<?xml version='1.0' encoding='utf-8'?>
<VTKFile type="UnstructuredGrid" version="0.1" byte_order="LittleEndian"><UnstructuredGrid><Piece NumberOfPoints="612" NumberOfCells="432"><Points><DataArray type="Float64" NumberOfComponents="3" format="ascii">0.74865811482053435 1.0599360533096862 0.21065964024575429 0.5 1 0 1 1 0 1.1899113092175064 1.2134998641745778 0.39368887915936379 0.78204758392660889 0.62452217387201669 0.12831391698446717 0.5 0.5 0 1 0.5 0 1.0912706415588957 0.61978627556806776 0.14753810541398321 0.42627830730466726 1.1847472546716218 0.20492771603113571 0.36700756848823046 0.71754147451356598 0.13919291421322574 0.57105660440781181 1.1336771986982801 0.23851425222590908 0.52260787208568504 0.79676233587616274 0.19099569809912412 0.091270641558895749 0.61978627556806776 0.14753810541398321 0 0.5 0 0.18991130921750643 1.2134998641745778 0.39368887915936379 0 1 0 1.11399487673932 0.60019671252100981 0.23483532060444445 0.82582599896295683 0.56527245219857347 0.17622809775768 0.86838572780213319 0.61872480914871431 0.27911148667583763 1.1609265693526438 0.66613644874599265 0.41055504252009722 0.70802894657764737 0.5087114430125963 0.29127832512904001 0.74719923502978236 0.54362284923354653 0.35814930060216704 0.62081315705179729 0.67233961116639318 0.27925667429392903 0.65472002320787737 0.74602765091867451 0.37460994655083601 0.66834214984837692 1.2092953081652436 0.32744102089223759 0.51912111686425455 0.91226406974417695 0.35930841731174123 0.52832297885046731 0.80914524863993997 0.27977237680311273 0.52491587079816271 0.76852891482435892 0.23523400687154911 0.7040149255275252 0.60499982504654781 0.20039252387578521 0.74588879477186376 0.53434598438583003 0.20387351060496109 0.74646620346087489 0.45114346685353651 0.098334771226153014 1.1251153335097559 0.49376834968580402 0.10373526108278179 0.65886596202090164 0.3852098649546537 0.16743195936567495 0.41943924024767471 0.47404277031551395 0.099639488707570556 0.34644138653142109 0.64897021492480755 0.19270717105794447 0.5 0 0 1 0 0 0.74865811482053435 0.05993605330968621 0.21065964024575429 1.1899113092175064 0.21349986417457778 0.39368887915936379 0.11399487673931996 0.60019671252100981 0.23483532060444445 0.1251153335097559 0.49376834968580402 0.10373526108278179 0.57105660440781181 0.1336771986982801 0.23851425222590908 0.42627830730466726 0.18474725467162179 0.20492771603113571 0.18991130921750643 0.21349986417457778 0.39368887915936379 0 0 0 0.16092656935264382 0.66613644874599265 0.41055504252009722 0.36925404220353375 0.74505886968403501 0.28246931820315624 0.66834214984837692 0.20929530816524355 0.32744102089223759 0.45079716155061628 0.77790996063464735 0.47869267758999556 0.55300288450262525 0.65526008200430641 0.53697686787505161 0.61701181574422792 0.84699355127398079 0.44666376410867031 0.69737331978877204 0.75307150338892836 0.46582172096183161 0.50210947615948265 0.91379476437397811 0.53273436650908346 0.67819941809531492 0.94894699556309914 0.46999714554126498 0.95773491142966238 0.80515478321742062 0.67959012702093158 1.1027115115100863 0.92854976726867033 0.55138816859259898 0.0047442575111098697 0.68855973428712092 0.46631298008187683 0.1277713593259597 0.55121336119632658 0.51584966626679296 0.29542376753610694 0.77973661782196479 0.5354935402104164 0.3946486615595598 0.71865681780593882 0.59696214048341256 0.10271151151008628 0.92854976726867033 0.55138816859259898 0.30001992699954871 0.85349141611647517 0.56193215716508416 -0.042265088570337617 0.80515478321742062 0.67959012702093158 0.52313676475399395 0.81822043318037074 0.69531530743798098 0.73251738490369123 0.56401066000552036 0.46065623576029274 0.75062323640106321 0.62577197531003237 0.42760338916430052 1.1277713593259597 0.55121336119632658 0.51584966626679296 1.0047442575111099 0.68855973428712092 0.46631298008187683 0.34341524438591758 0.3136269141777735 0.56280211244832989 0.28905277098920512 0.51243381084632578 0.60654114785641788 0.10271151151008628 -0.071450232731329666 0.55138816859259898 0.30787300931694939 0.12484796991761349 0.59954739720913086 0.25826535549668866 0.32247208848786374 0.6194003169763046 0.15006429899985602 0.29640506349530604 0.59059473055017764 0.67512074128539601 0.42156275955017397 0.74794037983614725 0.37432337033784274 0.14211851118672778 0.6696470035088915 0.36258536789480367 0.55456593452339009 0.68665247154828779 0.27550352503640524 0.38343067628885225 0.66430809770110266 0.11030062216122162 0.32479104122034175 0.67845858354620248 -0.042265088570337617 -0.19484521678257938 0.67959012702093158 0.50210947615948265 -0.086205235626021892 0.53273436650908346 0.52027340711603354 0.031978817622333199 0.61946743260732673 0.40439432885017307 -0.039283877916654997 0.60970651261351949 0.30001992699954871 -0.14650858388352483 0.56193215716508416 0.78806786901979697 0.15731443995494501 0.76228208266830944 0.55009380855723944 -0.01490624896123649 0.70539173127991783 0.30787300931694939 1.1248479699176135 0.59954739720913086 0.37432337033784274 1.1421185111867278 0.6696470035088915 0.40439432885017307 0.960716122083345 0.60970651261351949 0.55009380855723944 0.98509375103876351 0.70539173127991783 0.78806786901979697 1.1573144399549451 0.76228208266830944 0.52027340711603354 1.0319788176223332 0.61946743260732673 0.53733543186737021 0.62090079297087908 0.63934484536246172 0.4572850986934423 0.64535009638761331 0.66587019323714036 0.81673534993806363 0.6262499251686573 0.74719725284103578 0.51376705133346767 0.69049578610925944 0.72494074061053437 0.32975333040985971 0.7585009857740691 0.82684263209031439 0.5 0.75 1 0.25 1 1 0.15476914179364071 0.59124137606499994 0.93494092855805355 0.25 0.5 1 0 0.75 1 -0.019018268929560711 0.73745413339638211 0.903076484470962 0.56602118820699954 0.60631815514081933 0.85691669717385144 0.35900618020922082 0.42506457191099484 0.93588036272550834 0.48293618912562952 0.65012300355182273 0.82286359353922489 0.33929914299871144 0.50704182799240394 0.88145959192524359 0.47633760594235153 0.2817149016685061 0.93632476684379429 0.5 0.25 1 0.75 0.5 1 -0.10075250386377377 0.65132116198760559 0.83566439873570941 0.044595214920742185 0.53793036968247765 0.87775896276041177 0.013935440164594359 0.50303108678020225 0.82667410680614417 -0.18326465006193637 0.6262499251686573 0.74719725284103578 0.067448591940536998 0.3789617617336154 0.81275223385992412 0.031292230892635997 0.36890298363542856 0.77010800224355047 0.16345762017192153 0.40441381351348571 0.77565962701855495 0.24681738816560633 0.36002393962701223 0.7228754299776563 0.27979281139511525 0.41400179994540315 0.84045118050242651 0.22178692583521925 0.39119972108586304 0.83419249450895661 0.11239416320423913 0.38635228299123531 0.83974211355791772 0.053052334384612772 0.50232324066525902 0.91108254125737587 -0.0933409304006112 0.65753521554969352 0.88721848519705193 0.077526399386198389 0.35467225126701107 0.86612594374360752 0.24042424026897158 0.2899522190073679 0.88627710370160329 0.26439126087773063 0.29487338025402415 0.84538655446408528 1 0.75 1 1.25 0.5 1 1 0.25 1 0.9066590695993888 0.65753521554969352 0.88721848519705193 1.0530523343846128 0.50232324066525902 0.91108254125737587 0.89337803103089175 0.30438675065120996 0.88035508660441919 0.38690945243819164 0.17024674658171679 0.7879131839751915 0.37658857838783416 0.1627812403086428 0.86666771867597814 -0.0832322260868672 0.20941725544995099 0.83987574155704003 -0.10662196896910825 0.30438675065120996 0.88035508660441919 -0.03513823518475967 0.092954734748513013 0.8354975142270219 0 0.25 1 0.25 0 1 0.26490560808803587 0.25038452999165228 0.74479343159078726 1.031292230892636 0.36890298363542856 0.77010800224355047 1.067448591940537 0.3789617617336154 0.81275223385992412 0.9167677739131328 0.20941725544995099 0.83987574155704003 1.1103006221612217 0.32479104122034175 0.67845858354620248 1.1634576201719216 0.40441381351348571 0.77565962701855495 0.96486176481524033 0.092954734748513013 0.8354975142270219 0.95773491142966238 -0.19484521678257938 0.67959012702093158 0.89924749613622623 0.65132116198760559 0.83566439873570941 1.0445952149207423 0.53793036968247765 0.87775896276041177 1.0139354401645944 0.50303108678020225 0.82667410680614417 1 1.25 1 0.96486176481524033 1.0929547347485129 0.8354975142270219 1.25 1 1 0.75 1 1 0.84330712447553124 0.89785529371872608 0.93244229967413383 0.98098173107043929 0.73745413339638211 0.903076484470962 0.68870234923521589 0.10656826153650156 0.94408882008347716 0.75 0 1 0.76246155203873167 0.079350365485953589 0.89438843755517727 0.84330712447553124 -0.10214470628127392 0.93244229967413383 0.7817000025836639 0.81235928212411668 0.86980008996266678 0.76097114552721568 0.78537012778437409 0.81590011923842198 0.59745351610229946 0.75384290774971985 0.79372360278220011 0.63824198245646424 0.8999538439083159 0.78328922934187883 0.64213680257857775 0.033823213538727685 0.77629982575665202 0.52313676475399395 -0.18177956681962926 0.69531530743798098 0.63824198245646424 -0.1000461560916841 0.78328922934187883 0.6619617864305648 0.047208781475678127 0.8435473000905569 0.63530190149669408 -0.022779573800274622 0.83381594574184081 0.63530190149669408 0.97722042619972538 0.83381594574184081 0.63498415825752574 0.83924979111696263 0.83115389868423639 0.74212452987029143 0.81287380186250335 0.90893205080990025 0.63428987831560213 0.83578131384465348 0.86419720224399399 0.52231725520037442 1.0312592887747942 0.88531969243827779 0.52231725520037442 0.031259288774794225 0.88531969243827779 0.50960251385258526 0.075149338921303696 0.84338726603378666 0.37658857838783416 1.1627812403086428 0.86666771867597814 0.5 1.25 1 0.51262540682325797 0.081686689917840991 0.76890834023869747 0.32975333040985971 -0.2414990142259309 0.82684263209031439 0.64213680257857775 1.0338232135387277 0.77629982575665202 0.51262540682325797 1.081686689917841 0.76890834023869747 0.6619617864305648 1.0472087814756781 0.8435473000905569 0.50960251385258526 1.0751493389213036 0.84338726603378666 0.67819941809531492 -0.051053004436900862 0.46999714554126498 0.7478054096712754 0.25410618325463941 0.51230263379057306 1.1027115115100863 -0.071450232731329666 0.55138816859259898 -0.2521945903287246 0.25410618325463941 0.51230263379057306 0.74865811482053435 2.059936053309686 0.21065964024575429 0.5 2 0 1 2 0 1.1899113092175064 2.2134998641745778 0.39368887915936379 0.78204758392660889 1.6245221738720166 0.12831391698446717 0.5 1.5 0 1 1.5 0 1.0912706415588957 1.6197862755680679 0.14753810541398321 0.42627830730466726 2.1847472546716218 0.20492771603113571 0.36700756848823046 1.717541474513566 0.13919291421322574 0.57105660440781181 2.1336771986982801 0.23851425222590908 0.52260787208568504 1.7967623358761626 0.19099569809912412 0.091270641558895749 1.6197862755680679 0.14753810541398321 0 1.5 0 0.18991130921750643 2.2134998641745778 0.39368887915936379 0 2 0 1.11399487673932 1.6001967125210097 0.23483532060444445 0.82582599896295683 1.5652724521985735 0.17622809775768 0.86838572780213319 1.6187248091487143 0.27911148667583763 1.1609265693526438 1.6661364487459926 0.41055504252009722 0.70802894657764737 1.5087114430125963 0.29127832512904001 0.74719923502978236 1.5436228492335466 0.35814930060216704 0.62081315705179729 1.6723396111663931 0.27925667429392903 0.65472002320787737 1.7460276509186745 0.37460994655083601 0.66834214984837692 2.2092953081652436 0.32744102089223759 0.51912111686425455 1.9122640697441771 0.35930841731174123 0.52832297885046731 1.80914524863994 0.27977237680311273 0.52491587079816271 1.7685289148243588 0.23523400687154911 0.7040149255275252 1.6049998250465478 0.20039252387578521 0.74588879477186376 1.53434598438583 0.20387351060496109 0.74646620346087489 1.4511434668535366 0.098334771226153014 1.1251153335097559 1.4937683496858041 0.10373526108278179 0.65886596202090164 1.3852098649546538 0.16743195936567495 0.41943924024767471 1.4740427703155139 0.099639488707570556 0.34644138653142109 1.6489702149248076 0.19270717105794447 0.11399487673931996 1.6001967125210097 0.23483532060444445 0.1251153335097559 1.4937683496858041 0.10373526108278179 0.16092656935264382 1.6661364487459926 0.41055504252009722 0.36925404220353375 1.745058869684035 0.28246931820315624 0.45079716155061628 1.7779099606346473 0.47869267758999556 0.55300288450262525 1.6552600820043064 0.53697686787505161 0.61701181574422792 1.8469935512739808 0.44666376410867031 0.69737331978877204 1.7530715033889284 0.46582172096183161 0.50210947615948265 1.9137947643739781 0.53273436650908346 0.67819941809531492 1.9489469955630991 0.46999714554126498 0.95773491142966238 1.8051547832174206 0.67959012702093158 1.1027115115100863 1.9285497672686702 0.55138816859259898 0.0047442575111098697 1.688559734287121 0.46631298008187683 0.1277713593259597 1.5512133611963266 0.51584966626679296 0.29542376753610694 1.7797366178219649 0.5354935402104164 0.3946486615595598 1.7186568178059387 0.59696214048341256 0.10271151151008628 1.9285497672686702 0.55138816859259898 0.30001992699954871 1.8534914161164751 0.56193215716508416 -0.042265088570337617 1.8051547832174206 0.67959012702093158 0.52313676475399395 1.8182204331803709 0.69531530743798098 0.73251738490369123 1.5640106600055204 0.46065623576029274 0.75062323640106321 1.6257719753100324 0.42760338916430052 1.1277713593259597 1.5512133611963266 0.51584966626679296 1.0047442575111099 1.688559734287121 0.46631298008187683 0.34341524438591758 1.3136269141777734 0.56280211244832989 0.28905277098920512 1.5124338108463258 0.60654114785641788 0.25826535549668866 1.3224720884878638 0.6194003169763046 0.15006429899985602 1.2964050634953059 0.59059473055017764 0.67512074128539601 1.4215627595501741 0.74794037983614725 0.36258536789480367 1.55456593452339 0.68665247154828779 0.27550352503640524 1.3834306762888522 0.66430809770110266 0.11030062216122162 1.3247910412203416 0.67845858354620248 0.30787300931694939 2.1248479699176137 0.59954739720913086 0.37432337033784274 2.1421185111867276 0.6696470035088915 0.40439432885017307 1.9607161220833449 0.60970651261351949 0.55009380855723944 1.9850937510387636 0.70539173127991783 0.78806786901979697 2.1573144399549449 0.76228208266830944 0.52027340711603354 2.031978817622333 0.61946743260732673 0.53733543186737021 1.620900792970879 0.63934484536246172 0.4572850986934423 1.6453500963876133 0.66587019323714036 0.81673534993806363 1.6262499251686573 0.74719725284103578 0.51376705133346767 1.6904957861092593 0.72494074061053437 0.32975333040985971 1.7585009857740692 0.82684263209031439 0.5 1.75 1 0.25 2 1 0.15476914179364071 1.5912413760649999 0.93494092855805355 0.25 1.5 1 0 1.75 1 -0.019018268929560711 1.737454133396382 0.903076484470962 0.56602118820699954 1.6063181551408192 0.85691669717385144 0.35900618020922082 1.4250645719109949 0.93588036272550834 0.48293618912562952 1.6501230035518226 0.82286359353922489 0.33929914299871144 1.507041827992404 0.88145959192524359 0.47633760594235153 1.2817149016685061 0.93632476684379429 0.75 1.5 1 -0.10075250386377377 1.6513211619876056 0.83566439873570941 0.044595214920742185 1.5379303696824778 0.87775896276041177 0.013935440164594359 1.5030310867802021 0.82667410680614417 -0.18326465006193637 1.6262499251686573 0.74719725284103578 0.067448591940536998 1.3789617617336154 0.81275223385992412 0.031292230892635997 1.3689029836354285 0.77010800224355047 0.16345762017192153 1.4044138135134858 0.77565962701855495 0.24681738816560633 1.3600239396270122 0.7228754299776563 0.27979281139511525 1.4140017999454031 0.84045118050242651 0.22178692583521925 1.3911997210858631 0.83419249450895661 0.11239416320423913 1.3863522829912354 0.83974211355791772 0.053052334384612772 1.5023232406652589 0.91108254125737587 -0.0933409304006112 1.6575352155496934 0.88721848519705193 0.077526399386198389 1.3546722512670111 0.86612594374360752 0.24042424026897158 1.2899522190073678 0.88627710370160329 0.26439126087773063 1.2948733802540242 0.84538655446408528 1 1.75 1 1.25 1.5 1 0.9066590695993888 1.6575352155496934 0.88721848519705193 1.0530523343846128 1.5023232406652589 0.91108254125737587 0.89337803103089175 1.3043867506512099 0.88035508660441919 0.38690945243819164 1.1702467465817168 0.7879131839751915 -0.0832322260868672 1.2094172554499509 0.83987574155704003 -0.10662196896910825 1.3043867506512099 0.88035508660441919 -0.03513823518475967 1.0929547347485129 0.8354975142270219 0 1.25 1 0.26490560808803587 1.2503845299916523 0.74479343159078726 1.031292230892636 1.3689029836354285 0.77010800224355047 1.067448591940537 1.3789617617336154 0.81275223385992412 0.9167677739131328 1.2094172554499509 0.83987574155704003 1.1103006221612217 1.3247910412203416 0.67845858354620248 1.1634576201719216 1.4044138135134858 0.77565962701855495 0.89924749613622623 1.6513211619876056 0.83566439873570941 1.0445952149207423 1.5379303696824778 0.87775896276041177 1.0139354401645944 1.5030310867802021 0.82667410680614417 1 2.25 1 0.96486176481524033 2.0929547347485129 0.8354975142270219 1.25 2 1 0.75 2 1 0.84330712447553124 1.8978552937187261 0.93244229967413383 0.98098173107043929 1.737454133396382 0.903076484470962 0.68870234923521589 1.1065682615365016 0.94408882008347716 0.76246155203873167 1.0793503654859535 0.89438843755517727 0.7817000025836639 1.8123592821241168 0.86980008996266678 0.76097114552721568 1.7853701277843741 0.81590011923842198 0.59745351610229946 1.75384290774972 0.79372360278220011 0.63824198245646424 1.8999538439083159 0.78328922934187883 0.63530190149669408 1.9772204261997253 0.83381594574184081 0.63498415825752574 1.8392497911169627 0.83115389868423639 0.74212452987029143 1.8128738018625032 0.90893205080990025 0.63428987831560213 1.8357813138446535 0.86419720224399399 0.52231725520037442 2.0312592887747942 0.88531969243827779 0.37658857838783416 2.1627812403086426 0.86666771867597814 0.5 2.25 1 0.64213680257857775 2.0338232135387275 0.77629982575665202 0.51262540682325797 2.081686689917841 0.76890834023869747 0.6619617864305648 2.0472087814756783 0.8435473000905569 0.50960251385258526 2.0751493389213036 0.84338726603378666 0.7478054096712754 1.2541061832546394 0.51230263379057306 -0.2521945903287246 1.2541061832546394 0.51230263379057306 1.7486581148205342 1.0599360533096862 0.21065964024575429 1.5 1 0 2 1 0 2.1899113092175062 1.2134998641745778 0.39368887915936379 1.7820475839266088 0.62452217387201669 0.12831391698446717 1.5 0.5 0 2 0.5 0 2.0912706415588955 0.61978627556806776 0.14753810541398321 1.4262783073046672 1.1847472546716218 0.20492771603113571 1.3670075684882304 0.71754147451356598 0.13919291421322574 1.5710566044078118 1.1336771986982801 0.23851425222590908 1.522607872085685 0.79676233587616274 0.19099569809912412 2.1139948767393202 0.60019671252100981 0.23483532060444445 1.8258259989629568 0.56527245219857347 0.17622809775768 1.8683857278021332 0.61872480914871431 0.27911148667583763 2.160926569352644 0.66613644874599265 0.41055504252009722 1.7080289465776475 0.5087114430125963 0.29127832512904001 1.7471992350297825 0.54362284923354653 0.35814930060216704 1.6208131570517974 0.67233961116639318 0.27925667429392903 1.6547200232078774 0.74602765091867451 0.37460994655083601 1.6683421498483768 1.2092953081652436 0.32744102089223759 1.5191211168642544 0.91226406974417695 0.35930841731174123 1.5283229788504673 0.80914524863993997 0.27977237680311273 1.5249158707981627 0.76852891482435892 0.23523400687154911 1.7040149255275252 0.60499982504654781 0.20039252387578521 1.7458887947718638 0.53434598438583003 0.20387351060496109 1.7464662034608749 0.45114346685353651 0.098334771226153014 2.1251153335097559 0.49376834968580402 0.10373526108278179 1.6588659620209016 0.3852098649546537 0.16743195936567495 1.4194392402476748 0.47404277031551395 0.099639488707570556 1.3464413865314211 0.64897021492480755 0.19270717105794447 1.5 0 0 2 0 0 1.7486581148205342 0.05993605330968621 0.21065964024575429 2.1899113092175062 0.21349986417457778 0.39368887915936379 1.5710566044078118 0.1336771986982801 0.23851425222590908 1.4262783073046672 0.18474725467162179 0.20492771603113571 1.3692540422035337 0.74505886968403501 0.28246931820315624 1.6683421498483768 0.20929530816524355 0.32744102089223759 1.4507971615506163 0.77790996063464735 0.47869267758999556 1.5530028845026251 0.65526008200430641 0.53697686787505161 1.6170118157442279 0.84699355127398079 0.44666376410867031 1.6973733197887722 0.75307150338892836 0.46582172096183161 1.5021094761594826 0.91379476437397811 0.53273436650908346 1.678199418095315 0.94894699556309914 0.46999714554126498 1.9577349114296623 0.80515478321742062 0.67959012702093158 2.1027115115100861 0.92854976726867033 0.55138816859259898 1.2954237675361069 0.77973661782196479 0.5354935402104164 1.3946486615595597 0.71865681780593882 0.59696214048341256 1.3000199269995487 0.85349141611647517 0.56193215716508416 1.523136764753994 0.81822043318037074 0.69531530743798098 1.7325173849036912 0.56401066000552036 0.46065623576029274 1.7506232364010632 0.62577197531003237 0.42760338916430052 2.1277713593259597 0.55121336119632658 0.51584966626679296 2.0047442575111099 0.68855973428712092 0.46631298008187683 1.3434152443859175 0.3136269141777735 0.56280211244832989 1.2890527709892052 0.51243381084632578 0.60654114785641788 1.3078730093169493 0.12484796991761349 0.59954739720913086 1.2582653554966887 0.32247208848786374 0.6194003169763046 1.150064298999856 0.29640506349530604 0.59059473055017764 1.6751207412853959 0.42156275955017397 0.74794037983614725 1.3743233703378428 0.14211851118672778 0.6696470035088915 1.3625853678948037 0.55456593452339009 0.68665247154828779 1.2755035250364053 0.38343067628885225 0.66430809770110266 1.5021094761594826 -0.086205235626021892 0.53273436650908346 1.5202734071160335 0.031978817622333199 0.61946743260732673 1.404394328850173 -0.039283877916654997 0.60970651261351949 1.3000199269995487 -0.14650858388352483 0.56193215716508416 1.7880678690197969 0.15731443995494501 0.76228208266830944 1.5500938085572393 -0.01490624896123649 0.70539173127991783 1.3078730093169493 1.1248479699176135 0.59954739720913086 1.3743233703378428 1.1421185111867278 0.6696470035088915 1.404394328850173 0.960716122083345 0.60970651261351949 1.5500938085572393 0.98509375103876351 0.70539173127991783 1.7880678690197969 1.1573144399549451 0.76228208266830944 1.5202734071160335 1.0319788176223332 0.61946743260732673 1.5373354318673702 0.62090079297087908 0.63934484536246172 1.4572850986934422 0.64535009638761331 0.66587019323714036 1.8167353499380636 0.6262499251686573 0.74719725284103578 1.5137670513334678 0.69049578610925944 0.72494074061053437 1.3297533304098597 0.7585009857740691 0.82684263209031439 1.5 0.75 1 1.1547691417936408 0.59124137606499994 0.93494092855805355 1.5660211882069994 0.60631815514081933 0.85691669717385144 1.3590061802092208 0.42506457191099484 0.93588036272550834 1.4829361891256294 0.65012300355182273 0.82286359353922489 1.3392991429987116 0.50704182799240394 0.88145959192524359 1.4763376059423514 0.2817149016685061 0.93632476684379429 1.5 0.25 1 1.75 0.5 1 1.2468173881656064 0.36002393962701223 0.7228754299776563 1.2797928113951151 0.41400179994540315 0.84045118050242651 1.2217869258352192 0.39119972108586304 0.83419249450895661 1.1123941632042391 0.38635228299123531 0.83974211355791772 1.0775263993861983 0.35467225126701107 0.86612594374360752 1.2404242402689716 0.2899522190073679 0.88627710370160329 1.2643912608777306 0.29487338025402415 0.84538655446408528 2 0.75 1 2.25 0.5 1 2 0.25 1 1.9066590695993888 0.65753521554969352 0.88721848519705193 2.053052334384613 0.50232324066525902 0.91108254125737587 1.8933780310308919 0.30438675065120996 0.88035508660441919 1.3869094524381915 0.17024674658171679 0.7879131839751915 1.3765885783878342 0.1627812403086428 0.86666771867597814 1.25 0 1 1.2649056080880359 0.25038452999165228 0.74479343159078726 2.0312922308926362 0.36890298363542856 0.77010800224355047 2.0674485919405372 0.3789617617336154 0.81275223385992412 1.9167677739131328 0.20941725544995099 0.83987574155704003 2.1103006221612217 0.32479104122034175 0.67845858354620248 2.1634576201719216 0.40441381351348571 0.77565962701855495 1.9648617648152404 0.092954734748513013 0.8354975142270219 1.9577349114296623 -0.19484521678257938 0.67959012702093158 1.8992474961362262 0.65132116198760559 0.83566439873570941 2.0445952149207423 0.53793036968247765 0.87775896276041177 2.0139354401645946 0.50303108678020225 0.82667410680614417 2 1.25 1 1.9648617648152404 1.0929547347485129 0.8354975142270219 2.25 1 1 1.75 1 1 1.8433071244755312 0.89785529371872608 0.93244229967413383 1.9809817310704392 0.73745413339638211 0.903076484470962 1.688702349235216 0.10656826153650156 0.94408882008347716 1.75 0 1 1.7624615520387317 0.079350365485953589 0.89438843755517727 1.8433071244755312 -0.10214470628127392 0.93244229967413383 1.7817000025836638 0.81235928212411668 0.86980008996266678 1.7609711455272157 0.78537012778437409 0.81590011923842198 1.5974535161022994 0.75384290774971985 0.79372360278220011 1.6382419824564642 0.8999538439083159 0.78328922934187883 1.6421368025785776 0.033823213538727685 0.77629982575665202 1.523136764753994 -0.18177956681962926 0.69531530743798098 1.6382419824564642 -0.1000461560916841 0.78328922934187883 1.6619617864305649 0.047208781475678127 0.8435473000905569 1.6353019014966941 -0.022779573800274622 0.83381594574184081 1.6353019014966941 0.97722042619972538 0.83381594574184081 1.6349841582575257 0.83924979111696263 0.83115389868423639 1.7421245298702914 0.81287380186250335 0.90893205080990025 1.6342898783156021 0.83578131384465348 0.86419720224399399 1.5223172552003743 1.0312592887747942 0.88531969243827779 1.5223172552003743 0.031259288774794225 0.88531969243827779 1.5096025138525853 0.075149338921303696 0.84338726603378666 1.3765885783878342 1.1627812403086428 0.86666771867597814 1.5 1.25 1 1.5126254068232581 0.081686689917840991 0.76890834023869747 1.3297533304098597 -0.2414990142259309 0.82684263209031439 1.6421368025785776 1.0338232135387277 0.77629982575665202 1.5126254068232581 1.081686689917841 0.76890834023869747 1.6619617864305649 1.0472087814756781 0.8435473000905569 1.5096025138525853 1.0751493389213036 0.84338726603378666 1.678199418095315 -0.051053004436900862 0.46999714554126498 1.7478054096712754 0.25410618325463941 0.51230263379057306 2.1027115115100861 -0.071450232731329666 0.55138816859259898 1.7486581148205342 2.059936053309686 0.21065964024575429 1.5 2 0 2 2 0 2.1899113092175062 2.2134998641745778 0.39368887915936379 1.7820475839266088 1.6245221738720166 0.12831391698446717 1.5 1.5 0 2 1.5 0 2.0912706415588955 1.6197862755680679 0.14753810541398321 1.4262783073046672 2.1847472546716218 0.20492771603113571 1.3670075684882304 1.717541474513566 0.13919291421322574 1.5710566044078118 2.1336771986982801 0.23851425222590908 1.522607872085685 1.7967623358761626 0.19099569809912412 2.1139948767393202 1.6001967125210097 0.23483532060444445 1.8258259989629568 1.5652724521985735 0.17622809775768 1.8683857278021332 1.6187248091487143 0.27911148667583763 2.160926569352644 1.6661364487459926 0.41055504252009722 1.7080289465776475 1.5087114430125963 0.29127832512904001 1.7471992350297825 1.5436228492335466 0.35814930060216704 1.6208131570517974 1.6723396111663931 0.27925667429392903 1.6547200232078774 1.7460276509186745 0.37460994655083601 1.6683421498483768 2.2092953081652436 0.32744102089223759 1.5191211168642544 1.9122640697441771 0.35930841731174123 1.5283229788504673 1.80914524863994 0.27977237680311273 1.5249158707981627 1.7685289148243588 0.23523400687154911 1.7040149255275252 1.6049998250465478 0.20039252387578521 1.7458887947718638 1.53434598438583 0.20387351060496109 1.7464662034608749 1.4511434668535366 0.098334771226153014 2.1251153335097559 1.4937683496858041 0.10373526108278179 1.6588659620209016 1.3852098649546538 0.16743195936567495 1.4194392402476748 1.4740427703155139 0.099639488707570556 1.3464413865314211 1.6489702149248076 0.19270717105794447 1.3692540422035337 1.745058869684035 0.28246931820315624 1.4507971615506163 1.7779099606346473 0.47869267758999556 1.5530028845026251 1.6552600820043064 0.53697686787505161 1.6170118157442279 1.8469935512739808 0.44666376410867031 1.6973733197887722 1.7530715033889284 0.46582172096183161 1.5021094761594826 1.9137947643739781 0.53273436650908346 1.678199418095315 1.9489469955630991 0.46999714554126498 1.9577349114296623 1.8051547832174206 0.67959012702093158 2.1027115115100861 1.9285497672686702 0.55138816859259898 1.2954237675361069 1.7797366178219649 0.5354935402104164 1.3946486615595597 1.7186568178059387 0.59696214048341256 1.3000199269995487 1.8534914161164751 0.56193215716508416 1.523136764753994 1.8182204331803709 0.69531530743798098 1.7325173849036912 1.5640106600055204 0.46065623576029274 1.7506232364010632 1.6257719753100324 0.42760338916430052 2.1277713593259597 1.5512133611963266 0.51584966626679296 2.0047442575111099 1.688559734287121 0.46631298008187683 1.3434152443859175 1.3136269141777734 0.56280211244832989 1.2890527709892052 1.5124338108463258 0.60654114785641788 1.2582653554966887 1.3224720884878638 0.6194003169763046 1.150064298999856 1.2964050634953059 0.59059473055017764 1.6751207412853959 1.4215627595501741 0.74794037983614725 1.3625853678948037 1.55456593452339 0.68665247154828779 1.2755035250364053 1.3834306762888522 0.66430809770110266 1.3078730093169493 2.1248479699176137 0.59954739720913086 1.3743233703378428 2.1421185111867276 0.6696470035088915 1.404394328850173 1.9607161220833449 0.60970651261351949 1.5500938085572393 1.9850937510387636 0.70539173127991783 1.7880678690197969 2.1573144399549449 0.76228208266830944 1.5202734071160335 2.031978817622333 0.61946743260732673 1.5373354318673702 1.620900792970879 0.63934484536246172 1.4572850986934422 1.6453500963876133 0.66587019323714036 1.8167353499380636 1.6262499251686573 0.74719725284103578 1.5137670513334678 1.6904957861092593 0.72494074061053437 1.3297533304098597 1.7585009857740692 0.82684263209031439 1.5 1.75 1 1.1547691417936408 1.5912413760649999 0.93494092855805355 1.5660211882069994 1.6063181551408192 0.85691669717385144 1.3590061802092208 1.4250645719109949 0.93588036272550834 1.4829361891256294 1.6501230035518226 0.82286359353922489 1.3392991429987116 1.507041827992404 0.88145959192524359 1.4763376059423514 1.2817149016685061 0.93632476684379429 1.75 1.5 1 1.2468173881656064 1.3600239396270122 0.7228754299776563 1.2797928113951151 1.4140017999454031 0.84045118050242651 1.2217869258352192 1.3911997210858631 0.83419249450895661 1.1123941632042391 1.3863522829912354 0.83974211355791772 1.0775263993861983 1.3546722512670111 0.86612594374360752 1.2404242402689716 1.2899522190073678 0.88627710370160329 1.2643912608777306 1.2948733802540242 0.84538655446408528 2 1.75 1 2.25 1.5 1 1.9066590695993888 1.6575352155496934 0.88721848519705193 2.053052334384613 1.5023232406652589 0.91108254125737587 1.8933780310308919 1.3043867506512099 0.88035508660441919 1.3869094524381915 1.1702467465817168 0.7879131839751915 1.2649056080880359 1.2503845299916523 0.74479343159078726 2.0312922308926362 1.3689029836354285 0.77010800224355047 2.0674485919405372 1.3789617617336154 0.81275223385992412 1.9167677739131328 1.2094172554499509 0.83987574155704003 2.1103006221612217 1.3247910412203416 0.67845858354620248 2.1634576201719216 1.4044138135134858 0.77565962701855495 1.8992474961362262 1.6513211619876056 0.83566439873570941 2.0445952149207423 1.5379303696824778 0.87775896276041177 2.0139354401645946 1.5030310867802021 0.82667410680614417 2 2.25 1 1.9648617648152404 2.0929547347485129 0.8354975142270219 2.25 2 1 1.75 2 1 1.8433071244755312 1.8978552937187261 0.93244229967413383 1.9809817310704392 1.737454133396382 0.903076484470962 1.688702349235216 1.1065682615365016 0.94408882008347716 1.7624615520387317 1.0793503654859535 0.89438843755517727 1.7817000025836638 1.8123592821241168 0.86980008996266678 1.7609711455272157 1.7853701277843741 0.81590011923842198 1.5974535161022994 1.75384290774972 0.79372360278220011 1.6382419824564642 1.8999538439083159 0.78328922934187883 1.6353019014966941 1.9772204261997253 0.83381594574184081 1.6349841582575257 1.8392497911169627 0.83115389868423639 1.7421245298702914 1.8128738018625032 0.90893205080990025 1.6342898783156021 1.8357813138446535 0.86419720224399399 1.5223172552003743 2.0312592887747942 0.88531969243827779 1.3765885783878342 2.1627812403086426 0.86666771867597814 1.5 2.25 1 1.6421368025785776 2.0338232135387275 0.77629982575665202 1.5126254068232581 2.081686689917841 0.76890834023869747 1.6619617864305649 2.0472087814756783 0.8435473000905569 1.5096025138525853 2.0751493389213036 0.84338726603378666 1.7478054096712754 1.2541061832546394 0.51230263379057306</DataArray></Points><Cells><DataArray type="Int32" Name="connectivity" format="ascii">0 1 2 3 4 5 6 7 8 9 5 1 10 11 4 0 12 9 5 13 14 8 1 15 16 17 18 19 7 4 0 3 19 18 20 21 3 0 22 23 24 10 0 3 25 26 22 23 26 27 11 10 22 28 4 0 22 28 4 0 20 29 17 18 7 4 5 6 16 17 30 31 29 32 33 28 17 30 5 4 28 33 34 27 4 5 9 11 6 5 35 36 31 30 37 38 39 34 33 40 12 9 5 13 41 32 30 37 42 33 5 35 13 40 43 44 5 33 42 35 45 46 42 43 39 34 33 40 21 20 41 47 23 22 42 43 25 26 22 23 45 46 42 43 22 28 33 42 26 27 34 46 20 29 32 41 22 28 33 42 16 17 30 31 19 18 37 38 20 29 17 18 41 32 30 37 19 18 37 38 21 20 41 47 45 46 8 14 25 26 10 24 46 34 9 8 26 27 11 10 39 34 9 12 45 46 8 14 43 45 48 49 23 25 50 51 14 45 25 24 52 48 50 53 54 49 48 52 55 51 50 53 3 23 51 55 24 25 50 53 43 45 56 57 49 48 58 59 14 45 48 52 60 56 58 61 62 57 56 60 63 59 58 61 54 49 59 63 52 48 58 61 43 47 21 23 49 64 65 51 38 47 64 66 19 21 65 67 3 23 21 19 55 51 65 67 54 49 51 55 66 64 65 67 43 68 69 57 70 71 72 73 74 68 71 75 76 69 72 77 62 57 69 76 78 73 72 77 79 70 73 78 75 71 72 77 43 68 71 70 80 81 82 83 74 68 81 84 75 71 82 85 62 60 86 87 63 61 88 89 54 52 61 63 90 91 88 89 43 68 92 49 57 69 93 59 74 68 69 76 94 92 93 95 54 49 92 94 63 59 93 95 62 57 59 63 76 69 93 95 96 97 98 62 99 100 101 102 103 104 100 97 105 106 99 96 107 104 100 108 74 103 97 109 110 111 112 113 102 99 96 62 113 112 114 115 62 96 116 78 76 105 96 62 77 117 116 78 117 118 106 105 116 119 99 96 116 119 99 96 114 120 111 112 102 99 100 101 110 111 121 122 120 123 124 119 111 121 100 99 119 124 125 118 99 100 104 106 126 127 128 109 129 130 131 74 132 125 124 133 107 104 100 108 134 123 121 135 136 124 100 137 108 133 79 138 100 124 136 137 75 139 136 79 132 125 124 133 140 141 142 84 143 144 145 146 77 117 116 78 75 139 136 79 116 119 124 136 117 118 125 139 114 120 123 134 116 119 124 136 147 148 130 129 94 149 131 74 114 120 111 112 134 123 121 135 94 149 131 74 140 141 142 84 75 139 103 74 77 117 105 76 139 125 104 103 117 118 106 105 132 125 104 107 75 139 103 74 150 151 54 152 153 154 155 126 156 131 128 157 158 142 145 159 156 107 108 157 131 74 109 128 160 147 94 161 154 155 54 151 161 94 95 162 151 54 63 163 142 84 146 145 164 85 165 166 167 164 142 158 168 166 145 159 169 163 151 154 170 162 161 160 154 155 126 153 160 147 129 171 172 170 169 173 171 160 154 153 174 168 167 175 157 159 158 156 153 126 109 97 171 129 74 103 175 132 133 174 156 107 108 157 172 105 103 171 173 96 97 153 176 177 98 62 173 153 97 96 178 75 79 179 175 132 133 174 162 95 76 105 163 63 62 96 180 89 63 163 181 87 62 96 169 163 96 173 182 180 181 183 170 162 105 172 169 163 96 173 160 147 129 171 161 94 74 103 170 162 161 160 172 105 103 171 161 94 74 103 162 95 76 105 178 75 74 131 164 85 84 142 175 178 131 156 167 164 142 158 175 132 107 156 178 75 74 131 47 43 80 184 38 185 146 186 43 47 64 49 185 38 66 54 187 43 57 62 79 70 73 78 68 43 49 92 74 185 54 94 43 68 81 80 185 74 84 146 185 74 84 146 54 94 140 143 188 189 190 191 192 193 194 195 196 197 193 189 198 199 192 188 200 197 193 201 202 196 189 203 204 205 206 207 195 192 188 191 207 206 208 209 191 188 210 211 212 198 188 191 213 214 210 211 214 215 199 198 210 216 192 188 210 216 192 188 208 217 205 206 195 192 193 194 204 205 218 219 217 220 221 216 205 218 193 192 216 221 222 215 192 193 197 199 194 193 1 2 219 218 0 3 223 222 221 224 200 197 193 201 10 220 218 0 8 221 193 1 201 224 14 15 193 221 8 1 225 226 8 14 223 222 221 224 209 208 10 24 211 210 8 14 213 214 210 211 225 226 8 14 210 216 221 8 214 215 222 226 208 217 220 10 210 216 221 8 204 205 218 219 207 206 0 3 208 217 205 206 10 220 218 0 207 206 0 3 209 208 10 24 225 226 196 202 213 214 198 212 226 222 197 196 214 215 199 198 223 222 197 200 225 226 196 202 14 225 227 228 211 213 229 230 202 225 213 212 231 227 229 232 233 228 227 231 234 230 229 232 191 211 230 234 212 213 229 232 14 225 235 236 228 227 237 238 202 225 227 231 239 235 237 240 241 236 235 239 242 238 237 240 233 228 238 242 231 227 237 240 14 24 209 211 228 243 244 230 3 24 243 245 207 209 244 246 191 211 209 207 234 230 244 246 233 228 230 234 245 243 244 246 14 247 248 236 60 86 249 250 251 247 86 87 252 248 249 253 241 236 248 252 254 250 249 253 62 60 250 254 87 86 249 253 14 247 86 60 52 91 88 61 251 247 91 90 87 86 88 89 241 239 255 256 242 240 257 258 233 231 240 242 259 260 257 258 14 247 261 228 236 248 262 238 251 247 248 252 263 261 262 264 233 228 261 263 242 238 262 264 241 236 238 242 252 248 262 264 265 266 267 241 268 269 270 271 272 273 269 266 274 275 268 265 276 273 269 177 251 272 266 277 278 279 280 281 271 268 265 241 281 280 282 283 241 265 284 254 252 274 265 241 253 285 284 254 285 286 275 274 284 287 268 265 284 287 268 265 282 288 279 280 271 268 269 270 278 279 289 290 288 291 292 287 279 289 269 268 287 292 293 286 268 269 273 275 294 295 150 277 296 297 298 251 299 293 292 176 276 273 269 177 300 291 289 301 302 292 269 303 177 176 62 98 269 292 302 303 87 304 302 62 299 293 292 176 305 306 307 90 308 309 151 54 253 285 284 254 87 304 302 62 284 287 292 302 285 286 293 304 282 288 291 300 284 287 292 302 310 311 297 296 263 312 298 251 282 288 279 280 300 291 289 301 263 312 298 251 305 306 307 90 87 304 272 251 253 285 274 252 304 293 273 272 285 286 275 274 299 293 273 276 87 304 272 251 313 314 233 315 316 317 318 294 319 298 150 153 320 307 151 154 319 276 177 153 298 251 277 150 321 310 263 322 317 318 233 314 322 263 264 323 314 233 242 324 307 90 54 151 180 89 63 163 182 180 307 320 169 163 151 154 325 324 314 317 326 323 322 321 317 318 294 316 321 310 296 327 328 326 325 329 327 321 317 316 173 169 182 183 153 154 320 319 316 294 277 266 327 296 251 272 183 299 176 173 319 276 177 153 328 274 272 327 329 265 266 316 330 331 267 241 329 316 266 265 181 87 62 96 183 299 176 173 323 264 252 274 324 242 241 265 332 258 242 324 333 256 241 265 325 324 265 329 334 332 333 335 326 323 274 328 325 324 265 329 321 310 296 327 322 263 251 272 326 323 322 321 328 274 272 327 322 263 251 272 323 264 252 274 181 87 251 298 180 89 90 307 183 181 298 319 182 180 307 320 183 299 276 319 181 87 251 298 24 14 52 53 3 336 54 55 14 24 243 228 336 3 245 233 337 14 236 241 62 60 250 254 247 14 228 261 251 336 233 263 14 247 91 52 336 251 90 54 336 251 90 54 233 263 305 308 338 339 340 341 342 343 344 345 346 347 343 339 348 349 342 338 7 347 343 6 3 346 339 2 350 351 352 353 345 342 338 341 353 352 354 355 341 338 356 357 358 348 338 341 359 360 356 357 360 361 349 348 356 362 342 338 356 362 342 338 354 363 351 352 345 342 343 344 350 351 364 365 363 366 367 362 351 364 343 342 362 367 368 361 342 343 347 349 344 343 369 370 365 364 371 372 16 368 367 31 7 347 343 6 373 366 364 371 374 367 343 369 6 31 38 36 343 367 374 369 19 375 374 38 16 368 367 31 355 354 373 376 357 356 374 38 359 360 356 357 19 375 374 38 356 362 367 374 360 361 368 375 354 363 366 373 356 362 367 374 350 351 364 365 353 352 371 372 354 363 351 352 373 366 364 371 353 352 371 372 355 354 373 376 19 375 346 3 359 360 348 358 375 368 347 346 360 361 349 348 16 368 347 7 19 375 346 3 38 19 377 378 357 359 379 380 3 19 359 358 381 377 379 382 383 378 377 381 384 380 379 382 341 357 380 384 358 359 379 382 38 19 67 66 378 377 385 386 3 19 377 381 55 67 385 387 54 66 67 55 388 386 385 387 383 378 386 388 381 377 385 387 38 376 355 357 378 389 390 380 372 376 389 391 353 355 390 392 341 357 355 353 384 380 390 392 383 378 380 384 391 389 390 392 38 393 394 66 186 395 396 397 398 393 395 399 400 394 396 401 54 66 394 400 143 397 396 401 146 186 397 143 399 395 396 401 38 393 395 186 402 403 404 405 398 393 403 406 399 395 404 407 54 55 408 409 388 387 410 411 383 381 387 388 412 413 410 411 38 393 414 378 66 394 415 386 398 393 394 400 416 414 415 417 383 378 414 416 388 386 415 417 54 66 386 388 400 394 415 417 418 419 152 54 420 127 126 155 421 422 127 419 423 424 420 418 425 422 127 426 398 421 419 427 147 148 149 94 155 420 418 54 94 149 141 140 54 418 144 143 400 423 418 54 401 428 144 143 428 429 424 423 144 430 420 418 144 430 420 418 141 431 148 149 155 420 127 126 147 148 130 129 431 432 433 430 148 130 127 420 430 433 434 429 420 127 422 424 435 436 437 427 438 439 440 398 441 434 433 442 425 422 127 426 142 432 130 131 145 433 127 128 426 442 146 443 127 433 145 128 399 444 145 146 441 434 433 442 445 446 447 406 448 449 450 451 401 428 144 143 399 444 145 146 144 430 433 145 428 429 434 444 141 431 432 142 144 430 433 145 452 453 439 438 416 454 440 398 141 431 148 149 142 432 130 131 416 454 440 398 445 446 447 406 399 444 421 398 401 428 423 400 444 434 422 421 428 429 424 423 441 434 422 425 399 444 421 398 455 456 383 457 458 459 460 435 461 440 437 462 463 447 450 464 461 425 426 462 440 398 427 437 465 452 416 466 459 460 383 456 466 416 417 467 456 383 388 468 447 406 451 450 469 407 470 471 472 469 447 463 473 471 450 464 474 468 456 459 475 467 466 465 459 460 435 458 465 452 438 476 477 475 474 478 476 465 459 458 479 473 472 480 462 464 463 461 458 435 427 419 476 438 398 421 480 441 442 479 461 425 426 462 477 423 421 476 478 418 419 458 481 482 152 54 478 458 419 418 483 399 146 484 480 441 442 479 467 417 400 423 468 388 54 418 485 411 388 468 486 409 54 418 474 468 418 478 487 485 486 488 475 467 423 477 474 468 418 478 465 452 438 476 466 416 398 421 475 467 466 465 477 423 421 476 466 416 398 421 467 417 400 423 483 399 398 440 469 407 406 447 480 483 440 461 472 469 447 463 480 441 425 461 483 399 398 440 376 38 402 489 372 490 451 491 38 376 389 378 490 372 391 383 185 38 66 54 146 186 397 143 393 38 378 414 398 490 383 416 38 393 403 402 490 398 406 451 490 398 406 451 383 416 445 448 492 493 494 495 496 497 498 499 500 501 497 493 502 503 496 492 195 501 497 194 191 500 493 190 504 505 506 507 499 496 492 495 507 506 508 509 495 492 510 511 512 502 492 495 513 514 510 511 514 515 503 502 510 516 496 492 510 516 496 492 508 517 505 506 499 496 497 498 504 505 518 519 517 520 521 516 505 518 497 496 516 521 522 515 496 497 501 503 498 497 339 340 519 518 338 341 204 522 521 219 195 501 497 194 348 520 518 338 346 521 497 339 194 219 3 2 497 521 346 339 207 523 346 3 204 522 521 219 509 508 348 358 511 510 346 3 513 514 510 511 207 523 346 3 510 516 521 346 514 515 522 523 508 517 520 348 510 516 521 346 504 505 518 519 507 506 338 341 508 517 505 506 348 520 518 338 507 506 338 341 509 508 348 358 207 523 500 191 513 514 502 512 523 522 501 500 514 515 503 502 204 522 501 195 207 523 500 191 3 207 524 525 511 513 526 527 191 207 513 512 528 524 526 529 530 525 524 528 531 527 526 529 495 511 527 531 512 513 526 529 3 207 246 245 525 524 532 533 191 207 524 528 234 246 532 534 233 245 246 234 535 533 532 534 530 525 533 535 528 524 532 534 3 358 509 511 525 536 537 527 341 358 536 538 507 509 537 539 495 511 509 507 531 527 537 539 530 525 527 531 538 536 537 539 3 540 541 245 55 408 542 543 544 540 408 409 545 541 542 546 233 245 541 545 308 543 542 546 54 55 543 308 409 408 542 546 3 540 408 55 381 413 410 387 544 540 413 412 409 408 410 411 233 234 547 548 535 534 549 550 530 528 534 535 551 552 549 550 3 540 553 525 245 541 554 533 544 540 541 545 555 553 554 556 530 525 553 555 535 533 554 556 233 245 533 535 545 541 554 556 557 558 315 233 559 295 294 318 560 561 295 558 562 563 559 557 564 561 295 482 544 560 558 565 310 311 312 263 318 559 557 233 263 312 306 305 233 557 309 308 545 562 557 233 546 566 309 308 566 567 563 562 309 568 559 557 309 568 559 557 306 569 311 312 318 559 295 294 310 311 297 296 569 570 571 568 311 297 295 559 568 571 572 567 559 295 561 563 573 574 455 565 575 576 577 544 578 572 571 481 564 561 295 482 307 570 297 298 151 571 295 150 482 481 54 152 295 571 151 150 409 579 151 54 578 572 571 481 580 581 582 412 583 584 456 383 546 566 309 308 409 579 151 54 309 568 571 151 566 567 572 579 306 569 570 307 309 568 571 151 585 586 576 575 555 587 577 544 306 569 311 312 307 570 297 298 555 587 577 544 580 581 582 412 409 579 560 544 546 566 562 545 579 572 561 560 566 567 563 562 578 572 561 564 409 579 560 544 588 589 530 590 591 592 593 573 594 577 455 458 595 582 456 459 594 564 482 458 577 544 565 455 596 585 555 597 592 593 530 589 597 555 556 598 589 530 535 599 582 412 383 456 485 411 388 468 487 485 582 595 474 468 456 459 600 599 589 592 601 598 597 596 592 593 573 591 596 585 575 602 603 601 600 604 602 596 592 591 478 474 487 488 458 459 595 594 591 573 565 558 602 575 544 560 488 578 481 478 594 564 482 458 603 562 560 602 604 557 558 591 605 606 315 233 604 591 558 557 486 409 54 418 488 578 481 478 598 556 545 562 599 535 233 557 607 550 535 599 608 548 233 557 600 599 557 604 609 607 608 610 601 598 562 603 600 599 557 604 596 585 575 602 597 555 544 560 601 598 597 596 603 562 560 602 597 555 544 560 598 556 545 562 486 409 544 577 485 411 412 582 488 486 577 594 487 485 582 595 488 578 564 594 486 409 544 577 358 3 381 382 341 611 383 384 3 358 536 525 611 341 538 530 336 3 245 233 54 55 543 308 540 3 525 553 544 611 530 555 3 540 413 381 611 544 412 383 611 544 412 383 530 555 580 583</DataArray><DataArray type="Int32" Name="offsets" format="ascii">8 16 24 32 40 48 56 64 72 80 88 96 104 112 120 128 136 144 152 160 168 176 184 192 200 208 216 224 232 240 248 256 264 272 280 288 296 304 312 320 328 336 344 352 360 368 376 384 392 400 408 416 424 432 440 448 456 464 472 480 488 496 504 512 520 528 536 544 552 560 568 576 584 592 600 608 616 624 632 640 648 656 664 672 680 688 696 704 712 720 728 736 744 752 760 768 776 784 792 800 808 816 824 832 840 848 856 864 872 880 888 896 904 912 920 928 936 944 952 960 968 976 984 992 1000 1008 1016 1024 1032 1040 1048 1056 1064 1072 1080 1088 1096 1104 1112 1120 1128 1136 1144 1152 1160 1168 1176 1184 1192 1200 1208 1216 1224 1232 1240 1248 1256 1264 1272 1280 1288 1296 1304 1312 1320 1328 1336 1344 1352 1360 1368 1376 1384 1392 1400 1408 1416 1424 1432 1440 1448 1456 1464 1472 1480 1488 1496 1504 1512 1520 1528 1536 1544 1552 1560 1568 1576 1584 1592 1600 1608 1616 1624 1632 1640 1648 1656 1664 1672 1680 1688 1696 1704 1712 1720 1728 1736 1744 1752 1760 1768 1776 1784 1792 1800 1808 1816 1824 1832 1840 1848 1856 1864 1872 1880 1888 1896 1904 1912 1920 1928 1936 1944 1952 1960 1968 1976 1984 1992 2000 2008 2016 2024 2032 2040 2048 2056 2064 2072 2080 2088 2096 2104 2112 2120 2128 2136 2144 2152 2160 2168 2176 2184 2192 2200 2208 2216 2224 2232 2240 2248 2256 2264 2272 2280 2288 2296 2304 2312 2320 2328 2336 2344 2352 2360 2368 2376 2384 2392 2400 2408 2416 2424 2432 2440 2448 2456 2464 2472 2480 2488 2496 2504 2512 2520 2528 2536 2544 2552 2560 2568 2576 2584 2592 2600 2608 2616 2624 2632 2640 2648 2656 2664 2672 2680 2688 2696 2704 2712 2720 2728 2736 2744 2752 2760 2768 2776 2784 2792 2800 2808 2816 2824 2832 2840 2848 2856 2864 2872 2880 2888 2896 2904 2912 2920 2928 2936 2944 2952 2960 2968 2976 2984 2992 3000 3008 3016 3024 3032 3040 3048 3056 3064 3072 3080 3088 3096 3104 3112 3120 3128 3136 3144 3152 3160 3168 3176 3184 3192 3200 3208 3216 3224 3232 3240 3248 3256 3264 3272 3280 3288 3296 3304 3312 3320 3328 3336 3344 3352 3360 3368 3376 3384 3392 3400 3408 3416 3424 3432 3440 3448 3456</DataArray><DataArray type="Int32" Name="types" format="ascii">12 12 12 12 12 12 12 12 12 12 12 12 12 12 12 12 12 12 12 12 12 12 12 12 12 12 12 12 12 12 12 12 12 12 12 12 12 12 12 12 12 12 12 12 12 12 12 12 12 12 12 12 12 12 12 12 12 12 12 12 12 12 12 12 12 12 12 12 12 12 12 12 12 12 12 12 12 12 12 12 12 12 12 12 12 12 12 12 12 12 12 12 12 12 12 12 12 12 12 12 12 12 12 12 12 12 12 12 12 12 12 12 12 12 12 12 12 12 12 12 12 12 12 12 12 12 12 12 12 12 12 12 12 12 12 12 12 12 12 12 12 12 12 12 12 12 12 12 12 12 12 12 12 12 12 12 12 12 12 12 12 12 12 12 12 12 12 12 12 12 12 12 12 12 12 12 12 12 12 12 12 12 12 12 12 12 12 12 12 12 12 12 12 12 12 12 12 12 12 12 12 12 12 12 12 12 12 12 12 12 12 12 12 12 12 12 12 12 12 12 12 12 12 12 12 12 12 12 12 12 12 12 12 12 12 12 12 12 12 12 12 12 12 12 12 12 12 12 12 12 12 12 12 12 12 12 12 12 12 12 12 12 12 12 12 12 12 12 12 12 12 12 12 12 12 12 12 12 12 12 12 12 12 12 12 12 12 12 12 12 12 12 12 12 12 12 12 12 12 12 12 12 12 12 12 12 12 12 12 12 12 12 12 12 12 12 12 12 12 12 12 12 12 12 12 12 12 12 12 12 12 12 12 12 12 12 12 12 12 12 12 12 12 12 12 12 12 12 12 12 12 12 12 12 12 12 12 12 12 12 12 12 12 12 12 12 12 12 12 12 12 12 12 12 12 12 12 12 12 12 12 12 12 12 12 12 12 12 12 12 12 12 12 12 12 12 12 12 12 12 12 12 12 12 12 12 12 12 12 12 12 12 12 12 12 12 12 12 12 12 12 12 12 12 12 12 12 12 12 12 12 12</DataArray></Cells></Piece></UnstructuredGrid></VTKFile>