<?xml version='1.0' encoding='utf-8'?>
<VTKFile type="UnstructuredGrid" version="0.1" byte_order="LittleEndian"><UnstructuredGrid><Piece NumberOfPoints="206" NumberOfCells="110"><Points><DataArray type="Float64" NumberOfComponents="3" format="ascii">0.87682852868930539 1.019874591683068 0.20977769065980673 0.5 1 0 1 1 0 1.3128075284603125 1.1651376167662355 0.28075326996554634 0.80011529643079515 0.65920457917880615 0.13955920709380715 0.5 0.5 0 1 0.5 0 1.1628864681587401 0.65838243842576116 0.13561268605897694 0.50829257411510242 1.2120438989507687 0.19394987437388272 0.47529296263328419 0.76586538533277571 0.13486921978643646 0.76483579909568711 1.130028964694257 0.31916802857207738 0.66314361718335457 0.80917576920116796 0.21127360180127902 0.16288646815874008 0.65838243842576116 0.13561268605897694 0 0.5 0 0.31280752846031246 1.1651376167662355 0.28075326996554634 0 1 0 0.19226275134613968 0.62171360035028367 0.21997875923118382 -0.13627099185783065 0.55225303599952968 0.18416517870524318 -0.027938093547017817 0.56096462162539884 0.30848871447186443 0.29183758427369755 0.66933356169830627 0.33370737136263462 -0.19988470356920485 0.65920457917880615 0.13955920709380715 -0.12317147131069461 1.019874591683068 0.20977769065980673 1.2918375842736975 0.66933356169830627 0.33370737136263462 0.97206190645298218 0.56096462162539884 0.30848871447186443 0.86428791618514578 0.47096335508078979 0.35636676263375816 0.90940302155535246 0.49925117831826404 0.44404134574896159 0.7480707272059165 0.70240466782456723 0.37272553303466938 0.82318193368425152 0.68278566683559228 0.46658652739117185 0.81312173208766825 1.1736763189562609 0.40993643415192599 0.62198817571920517 0.83772700637440334 0.39969788031974268 0.6850690725110945 0.82257747144786275 0.33983365876858479 0.65882238173437602 0.78391662288138608 0.26954025100336154 0.76413075830483157 0.62317161435702884 0.21946797248880914 0.80558814593784644 0.53652993960735929 0.21897641758578856 0.86372900814216935 0.55225303599952968 0.18416517870524318 1.1922627513461397 0.62171360035028367 0.21997875923118382 0.81224548758919646 0.37670597425639035 0.1356013625918274 1.1102130425565302 0.48057567448694688 0.097600363383868599 0.75620227312193322 0.36222177598475103 0.19435301265715776 0.51257456665104884 0.45322552069924105 0.077630704584065832 0.46833218573079449 0.72523756943440243 0.19939020936039559 0.5 0 0 1 0 0 0.87682852868930539 0.019874591683068044 0.20977769065980673 1.3128075284603125 0.16513761676623551 0.28075326996554634 0.11021304255653019 0.48057567448694688 0.097600363383868599 0.76483579909568711 0.13002896469425695 0.31916802857207738 0.50829257411510242 0.21204389895076869 0.19394987437388272 0.31280752846031246 0.16513761676623551 0.28075326996554634 0 0 0 0.4718969068920576 0.75361811563441772 0.29208868315594178 0.81312173208766825 0.1736763189562609 0.40993643415192599 -0.18775451241080354 0.37670597425639035 0.1356013625918274 -0.12317147131069461 0.019874591683068044 0.20977769065980673 0.55879257247030512 0.7726952229204066 0.50435093895812788 0.667184073663178 0.49515769179692892 0.68534374776102702 0.67799291335199563 0.84021060494150479 0.490637187052543 0.81631317949849924 0.67304416516774224 0.60827695369394585 0.61447561161919739 1.0727653368266057 0.48335588736725033 0.83592014598932718 1.1328449052567808 0.49439347506724768 0.98804049063260113 0.84483541649206761 0.73407033126630339 1.0462316493994517 0.93379407282386873 0.64298635066910748 0.24310551087768634 0.67005648517739747 0.45402174255482963 0.20570602510271463 0.49877100077412739 0.45831728514786108 0.41507794230845152 0.73092528024703285 0.51862792948930236 0.44576906780375702 0.65159469972921946 0.59520702112070545 0.04623164939945168 0.93379407282386873 0.64298635066910748 0.47161809395112408 0.8751528770918624 0.55824822141437158 -0.011959509367398868 0.84483541649206761 0.73407033126630339 0.48644504304688224 0.83610607203755016 0.66693811585648033 0.90014509963327316 0.44053752117668887 0.53740626636262079 0.92936236057382704 0.54685522370541273 0.51014860505899273 -0.18687826791233175 0.1736763189562609 0.40993643415192599 -0.09985490036672684 0.44053752117668887 0.53740626636262079 -0.090596978444647536 0.49925117831826404 0.44404134574896159 -0.07063763942617296 0.54685522370541273 0.51014860505899273 -0.17681806631574848 0.68278566683559228 0.46658652739117185 -0.18368682050150076 0.67304416516774224 0.60827695369394585 1.2057060251027147 0.49877100077412739 0.45831728514786108 1.2431055108776863 0.67005648517739747 0.45402174255482963 0.61447561161919739 0.072765336826605687 0.48335588736725033 0.83592014598932718 0.13284490525678083 0.49439347506724768 0.90098952743876459 0.32228698555609786 0.5524105352955152 0.81175212500052596 0.31988298257048509 0.60451913291961945 -0.16407985401067282 0.13284490525678083 0.49439347506724768 0.04623164939945168 -0.066205927176131274 0.64298635066910748 -0.099010472561235408 0.32228698555609786 0.5524105352955152 0.044353066372881056 0.36349629031151193 0.56958151508973109 0.98843555512593484 0.35136650676383724 0.66755546206361327 1.0443530663728811 0.36349629031151193 0.56958151508973109 0.98804049063260113 -0.15516458350793239 0.73407033126630339 1.0462316493994517 -0.066205927176131274 0.64298635066910748 0.39818948632122358 0.22175276696821847 0.5393540876824231 0.28216744653996495 0.46319114252235405 0.54388617040157416 0.32804609297236992 0.15611024104858323 0.61430915602591107 0.20666825131081212 0.36415344203237404 0.59065452362311954 0.62537815492429205 0.41230536381620486 0.91944353937414403 0.30018482752257686 0.14391280440957177 0.70569381750769156 0.30642925712902486 0.53530205580475942 0.66216113819480493 0.19865130919586532 0.3723137140005402 0.63109307632114209 -0.011564444874065161 0.35136650676383724 0.66755546206361327 -0.011959509367398868 -0.15516458350793239 0.73407033126630339 0.61218693002445446 0.10130020179438211 0.57595117627287229 0.53320480118951996 0.034553195234186387 0.59817378831292622 0.47161809395112408 -0.1248471229081376 0.55824822141437158 0.70558183226469384 0.14419110542230718 0.6960960137711949 0.53439750335415825 0.025417915923050916 0.63807709307473404 0.32804609297236992 1.1561102410485833 0.61430915602591107 0.30018482752257686 1.1439128044095717 0.70569381750769156 0.53320480118951996 1.0345531952341864 0.59817378831292622 0.53439750335415825 1.025417915923051 0.63807709307473404 0.70558183226469384 1.1441911054223071 0.6960960137711949 0.61218693002445446 1.101300201794382 0.57595117627287229 0.63674522299794789 0.46791160313259988 0.70765120836670403 0.48943250241696762 0.58645283059904807 0.65069703037327753 0.73969220605975694 0.56752207985918834 0.86754248737814754 0.50460034859614755 0.61357119496558876 0.70661676559963804 0.74289577839915233 0.32884862522405134 0.65472059875917321 0.81784808522935115 0.36562061587945899 0.71634301056184091 0.23037606448768241 0.73988670246948718 0.81162471780702439 0.49790630401450781 0.74899133975431187 1 0.24790630401450781 0.99899133975431187 1 0.18188487954343913 0.55913327756833475 0.93688020620249735 0.24790630401450781 0.49899133975431187 1 -0.0020936959854921389 0.74899133975431187 1 -0.02025404744230197 0.76357690060841632 0.89016291146808646 0.46434208846933384 0.5962354612718358 0.92292217804457588 0.2779937160882488 0.47763136754238206 0.93440289966842616 0.35547598033498184 0.61600091597020612 0.78778543684729485 0.23608084143609465 0.51832169196855482 0.87245943789894076 0.49549266367215572 0.28763149286294398 0.93226856003646574 0.49790630401450781 0.24899133975431181 1 0.74790630401450786 0.49899133975431187 1 0.83625646693464384 0.6302818682590976 0.89855999099710471 1.0193195112176165 0.45798625172739077 0.88030350698625814 0.94291676003585678 0.49253832385324858 0.824426215197262 0.97974595255769803 0.76357690060841632 0.89016291146808646 1.1818848795434391 0.55913327756833475 0.93688020620249735 1.2303760644876824 0.73988670246948718 0.81162471780702439 0.87773740844460457 0.36343246495280029 0.74472839772988408 1.0181657096665915 0.35582829349089479 0.71957513027055842 0.17845958391526617 0.35521102620051814 0.68039780986193277 0.018165709666591479 0.35582829349089479 0.71957513027055842 0.15040865573262716 0.3563846139723883 0.78172200154586291 0.09007900435281721 0.34941712072040126 0.79651091715744005 -0.12226259155539543 0.36343246495280029 0.74472839772988408 -0.0040090938673795762 0.36051840505981897 0.80112245714597907 0.019319511217616547 0.45798625172739077 0.88030350698625814 -0.057083239964143218 0.49253832385324858 0.824426215197262 -0.16374353306535616 0.6302818682590976 0.89855999099710471 0.0024313666254957688 0.4188768301809277 0.91992949274929992 -0.15314601201312861 0.62836834959613275 0.93152538378184002 -0.0026745279804185618 0.32067138262410178 0.85010318818212449 0.16298567537985809 0.28853875502509602 0.88477081101941002 0.19860185739420699 0.29292779180686895 0.83273775305931175 0.99790630401450786 0.74899133975431187 1 1.2479063040145078 0.49899133975431187 1 0.99790630401450786 0.24899133975431181 1 0.84685398798687139 0.62836834959613275 0.93152538378184002 1.0024313666254958 0.4188768301809277 0.91992949274929992 0.75701127211141883 0.25737888994721275 0.91600191849457813 0.34274395946560543 0.15236091830293183 0.80124856212557594 0.33612076555546094 0.13852820059298132 0.87043981665853187 0.78340111431275616 0.17766368330155746 0.79133523972994901 0.99732547201958144 0.32067138262410178 0.85010318818212449 0.91292032470216411 0.053006167719331976 0.83106426300493041 1.1629856753798582 0.28853875502509602 0.88477081101941002 0.24790630401450781 -0.0010086602456881311 1 -0.08707967529783589 0.053006167719331976 0.83106426300493041 -0.0020936959854921389 0.24899133975431181 1 0.23196702469463729 0.23666159300915945 0.71754124396790742 0.99599090613262042 0.36051840505981897 0.80112245714597907 1.0900790043528172 0.34941712072040126 0.79651091715744005 0.99790630401450786 1.2489913397543118 1 0.91292032470216411 1.0530061677193321 0.83106426300493041 1.2479063040145078 0.99899133975431187 1 0.74790630401450786 0.99899133975431187 1 0.77008035222630666 0.97428788197944838 0.94439537521278771 0.66328529128111091 0.097434589289275869 0.92404607904072322 0.74790630401450786 -0.0010086602456881311 1 0.70436306138306426 0.061461219936929011 0.86422694206881523 0.77008035222630666 -0.025712118020551622 0.94439537521278771 0.67279889743725851 0.81680972811411157 0.89126607264794877 0.68518471513535784 0.74787760640624312 0.83575136902403568 0.51649615236832169 0.67730395930931242 0.7438034990921687 0.51615779005948181 0.81145505443428034 0.71343517223820652 0.78340111431275616 1.1776636833015575 0.79133523972994901 0.52308427913280553 1.0014785943504847 0.69575654630875494 0.54332752834273546 0.97496246984579171 0.79496844470669792 0.70436306138306426 1.0614612199369291 0.86422694206881523 0.5199185886336517 0.89503429271606239 0.80385429210825254 0.53487690488514128 0.78929930427057238 0.80787957896572615 0.64312906017906435 0.804343443489138 0.92444819539814516 0.52417518515598627 0.80606741096991352 0.84862022413134219 0.47850948088358114 0.96419959338923045 0.87023216142940318 0.47950174867481932 1.0068331494901397 0.826429122914633 0.66328529128111091 1.0974345892892758 0.92404607904072322 0.47950174867481932 0.0068331494901396894 0.826429122914633 0.47850948088358114 -0.035800406610769553 0.87023216142940318 0.33612076555546094 1.1385282005929813 0.87043981665853187 0.49790630401450781 1.2489913397543118 1 0.42810476110730394 0.045795091171683101 0.72383584292173742 0.23037606448768241 -0.26011329753051282 0.81162471780702439 0.42810476110730394 1.0457950911716831 0.72383584292173742 0.52308427913280553 0.0014785943504846966 0.69575654630875494 0.54332752834273546 -0.025037530154208287 0.79496844470669792</DataArray></Points><Cells><DataArray type="Int32" Name="connectivity" format="ascii">0 1 2 3 4 5 6 7 8 9 5 1 10 11 4 0 12 9 5 13 14 8 1 15 16 17 18 19 12 20 21 14 22 23 24 25 3 0 26 27 28 10 0 3 29 30 26 27 30 31 11 10 26 32 4 0 26 32 4 0 24 33 34 23 7 4 5 6 35 34 36 37 33 38 39 32 34 36 5 4 32 39 40 31 4 5 9 11 6 5 41 42 37 36 43 44 16 40 39 45 12 9 5 13 46 38 36 43 47 39 5 41 13 45 48 49 5 39 47 41 19 50 47 48 16 40 39 45 25 24 46 51 27 26 47 48 29 30 26 27 19 50 47 48 26 32 39 47 30 31 40 50 24 33 38 46 26 32 39 47 16 17 52 45 19 18 53 48 24 33 34 23 46 38 36 43 22 23 43 44 25 24 46 51 19 50 8 14 29 30 10 28 50 40 9 8 30 31 11 10 16 40 9 12 19 50 8 14 48 19 54 55 27 29 56 57 14 19 29 28 58 54 56 59 60 55 54 58 61 57 56 59 3 27 57 61 28 29 56 59 48 19 62 63 55 54 64 65 14 19 54 58 66 62 64 67 68 63 62 66 69 65 64 67 60 55 65 69 58 54 64 67 48 51 25 27 55 70 71 57 48 72 73 63 19 74 75 62 14 76 74 19 66 77 75 62 60 55 57 61 78 70 71 79 48 51 70 55 80 81 82 83 48 72 84 85 63 73 86 87 60 55 70 78 88 83 82 89 90 80 83 88 91 81 82 89 48 92 93 63 85 94 95 87 96 92 94 97 98 93 95 99 68 63 93 98 100 87 95 99 101 85 87 100 97 94 95 99 48 92 94 85 80 102 103 104 96 92 102 105 97 94 103 106 68 66 107 108 69 67 109 110 60 58 67 69 111 112 109 110 48 92 113 55 63 93 114 65 96 92 93 98 115 113 114 116 60 55 113 115 69 65 114 116 68 63 65 69 98 93 114 116 48 92 102 80 55 113 117 83 96 92 113 115 105 102 117 118 90 80 102 105 88 83 117 118 60 55 83 88 115 113 117 118 119 120 121 68 122 123 124 125 126 127 123 120 128 129 122 119 130 127 123 131 96 126 120 132 133 134 135 115 136 137 138 60 115 135 139 118 60 138 140 88 98 128 119 68 99 141 142 100 141 143 129 128 142 144 122 119 142 144 122 119 145 146 147 148 125 122 123 124 149 147 150 151 146 152 153 144 147 150 123 122 144 153 154 143 122 123 127 129 155 156 157 132 158 159 160 96 161 154 153 162 130 127 123 131 163 164 159 160 165 166 156 157 131 162 101 167 123 153 168 169 97 170 168 101 161 154 153 162 118 139 163 105 88 140 165 90 99 141 142 100 97 170 168 101 142 144 153 168 141 143 154 170 139 171 164 163 140 172 166 165 133 134 159 158 115 135 160 96 139 171 134 135 163 164 159 160 115 135 160 96 118 139 163 105 97 170 126 96 99 141 128 98 170 154 127 126 141 143 129 128 161 154 127 130 97 170 126 96 173 174 60 175 176 177 136 155 178 160 157 179 180 163 165 181 178 130 131 179 160 96 132 157 182 133 115 183 177 136 60 174 183 115 116 184 174 60 69 185 186 111 60 174 187 110 69 185 188 187 186 189 190 185 174 177 190 185 174 177 191 184 183 182 177 136 155 176 182 133 158 192 193 191 190 194 192 182 177 176 194 190 188 195 176 177 189 196 176 155 132 120 192 158 96 126 197 161 162 198 178 130 131 179 193 128 126 192 194 119 120 176 199 200 121 68 194 176 120 119 201 97 101 202 197 161 162 198 184 116 98 128 185 69 68 119 187 110 69 185 203 108 68 119 190 185 119 194 188 187 203 195 191 184 128 193 190 185 119 194 182 133 158 192 183 115 96 126 191 184 183 182 193 128 126 192 183 115 96 126 184 116 98 128 201 97 96 160 204 106 105 163 197 201 160 178 205 204 163 180 197 161 130 178 201 97 96 160</DataArray><DataArray type="Int32" Name="offsets" format="ascii">8 16 24 32 40 48 56 64 72 80 88 96 104 112 120 128 136 144 152 160 168 176 184 192 200 208 216 224 232 240 248 256 264 272 280 288 296 304 312 320 328 336 344 352 360 368 376 384 392 400 408 416 424 432 440 448 456 464 472 480 488 496 504 512 520 528 536 544 552 560 568 576 584 592 600 608 616 624 632 640 648 656 664 672 680 688 696 704 712 720 728 736 744 752 760 768 776 784 792 800 808 816 824 832 840 848 856 864 872 880</DataArray><DataArray type="Int32" Name="types" format="ascii">12 12 12 12 12 12 12 12 12 12 12 12 12 12 12 12 12 12 12 12 12 12 12 12 12 12 12 12 12 12 12 12 12 12 12 12 12 12 12 12 12 12 12 12 12 12 12 12 12 12 12 12 12 12 12 12 12 12 12 12 12 12 12 12 12 12 12 12 12 12 12 12 12 12 12 12 12 12 12 12 12 12 12 12 12 12 12 12 12 12 12 12 12 12 12 12 12 12 12 12 12 12 12 12 12 12 12 12 12 12</DataArray></Cells></Piece></UnstructuredGrid></VTKFile>