<?xml version='1.0' encoding='utf-8'?>
<VTKFile type="UnstructuredGrid" version="0.1" byte_order="LittleEndian"><UnstructuredGrid><Piece NumberOfPoints="651" NumberOfCells="440"><Points><DataArray type="Float64" NumberOfComponents="3" format="ascii">0.87682852868930539 1.019874591683068 0.20977769065980673 0.5 1 0 1 1 0 1.3128075284603125 1.1651376167662355 0.28075326996554634 0.80011529643079515 0.65920457917880615 0.13955920709380715 0.5 0.5 0 1 0.5 0 1.1628864681587401 0.65838243842576116 0.13561268605897694 0.50829257411510242 1.2120438989507687 0.19394987437388272 0.47529296263328419 0.76586538533277571 0.13486921978643646 0.76483579909568711 1.130028964694257 0.31916802857207738 0.66314361718335457 0.80917576920116796 0.21127360180127902 0.16288646815874008 0.65838243842576116 0.13561268605897694 0 0.5 0 0.31280752846031246 1.1651376167662355 0.28075326996554634 0 1 0 0.19226275134613968 0.62171360035028367 0.21997875923118382 -0.13627099185783065 0.55225303599952968 0.18416517870524318 -0.027938093547017817 0.56096462162539884 0.30848871447186443 0.29183758427369755 0.66933356169830627 0.33370737136263462 -0.19988470356920485 0.65920457917880615 0.13955920709380715 -0.12317147131069461 1.019874591683068 0.20977769065980673 1.2918375842736975 0.66933356169830627 0.33370737136263462 0.97206190645298218 0.56096462162539884 0.30848871447186443 0.86428791618514578 0.47096335508078979 0.35636676263375816 0.90940302155535246 0.49925117831826404 0.44404134574896159 0.7480707272059165 0.70240466782456723 0.37272553303466938 0.82318193368425152 0.68278566683559228 0.46658652739117185 0.81312173208766825 1.1736763189562609 0.40993643415192599 0.62198817571920517 0.83772700637440334 0.39969788031974268 0.6850690725110945 0.82257747144786275 0.33983365876858479 0.65882238173437602 0.78391662288138608 0.26954025100336154 0.76413075830483157 0.62317161435702884 0.21946797248880914 0.80558814593784644 0.53652993960735929 0.21897641758578856 0.86372900814216935 0.55225303599952968 0.18416517870524318 1.1922627513461397 0.62171360035028367 0.21997875923118382 0.81224548758919646 0.37670597425639035 0.1356013625918274 1.1102130425565302 0.48057567448694688 0.097600363383868599 0.75620227312193322 0.36222177598475103 0.19435301265715776 0.51257456665104884 0.45322552069924105 0.077630704584065832 0.46833218573079449 0.72523756943440243 0.19939020936039559 0.5 0 0 1 0 0 0.87682852868930539 0.019874591683068044 0.20977769065980673 1.3128075284603125 0.16513761676623551 0.28075326996554634 0.11021304255653019 0.48057567448694688 0.097600363383868599 0.76483579909568711 0.13002896469425695 0.31916802857207738 0.50829257411510242 0.21204389895076869 0.19394987437388272 0.31280752846031246 0.16513761676623551 0.28075326996554634 0 0 0 0.4718969068920576 0.75361811563441772 0.29208868315594178 0.81312173208766825 0.1736763189562609 0.40993643415192599 -0.18775451241080354 0.37670597425639035 0.1356013625918274 -0.12317147131069461 0.019874591683068044 0.20977769065980673 0.55879257247030512 0.7726952229204066 0.50435093895812788 0.667184073663178 0.49515769179692892 0.68534374776102702 0.67799291335199563 0.84021060494150479 0.490637187052543 0.81631317949849924 0.67304416516774224 0.60827695369394585 0.61447561161919739 1.0727653368266057 0.48335588736725033 0.83592014598932718 1.1328449052567808 0.49439347506724768 0.98804049063260113 0.84483541649206761 0.73407033126630339 1.0462316493994517 0.93379407282386873 0.64298635066910748 0.24310551087768634 0.67005648517739747 0.45402174255482963 0.20570602510271463 0.49877100077412739 0.45831728514786108 0.41507794230845152 0.73092528024703285 0.51862792948930236 0.44576906780375702 0.65159469972921946 0.59520702112070545 0.04623164939945168 0.93379407282386873 0.64298635066910748 0.47161809395112408 0.8751528770918624 0.55824822141437158 -0.011959509367398868 0.84483541649206761 0.73407033126630339 0.48644504304688224 0.83610607203755016 0.66693811585648033 0.90014509963327316 0.44053752117668887 0.53740626636262079 0.92936236057382704 0.54685522370541273 0.51014860505899273 -0.18687826791233175 0.1736763189562609 0.40993643415192599 -0.09985490036672684 0.44053752117668887 0.53740626636262079 -0.090596978444647536 0.49925117831826404 0.44404134574896159 -0.07063763942617296 0.54685522370541273 0.51014860505899273 -0.17681806631574848 0.68278566683559228 0.46658652739117185 -0.18368682050150076 0.67304416516774224 0.60827695369394585 1.2057060251027147 0.49877100077412739 0.45831728514786108 1.2431055108776863 0.67005648517739747 0.45402174255482963 0.61447561161919739 0.072765336826605687 0.48335588736725033 0.83592014598932718 0.13284490525678083 0.49439347506724768 0.90098952743876459 0.32228698555609786 0.5524105352955152 0.81175212500052596 0.31988298257048509 0.60451913291961945 -0.16407985401067282 0.13284490525678083 0.49439347506724768 0.04623164939945168 -0.066205927176131274 0.64298635066910748 -0.099010472561235408 0.32228698555609786 0.5524105352955152 0.044353066372881056 0.36349629031151193 0.56958151508973109 0.98843555512593484 0.35136650676383724 0.66755546206361327 1.0443530663728811 0.36349629031151193 0.56958151508973109 0.98804049063260113 -0.15516458350793239 0.73407033126630339 1.0462316493994517 -0.066205927176131274 0.64298635066910748 0.39818948632122358 0.22175276696821847 0.5393540876824231 0.28216744653996495 0.46319114252235405 0.54388617040157416 0.32804609297236992 0.15611024104858323 0.61430915602591107 0.20666825131081212 0.36415344203237404 0.59065452362311954 0.62537815492429205 0.41230536381620486 0.91944353937414403 0.30018482752257686 0.14391280440957177 0.70569381750769156 0.30642925712902486 0.53530205580475942 0.66216113819480493 0.19865130919586532 0.3723137140005402 0.63109307632114209 -0.011564444874065161 0.35136650676383724 0.66755546206361327 -0.011959509367398868 -0.15516458350793239 0.73407033126630339 0.61218693002445446 0.10130020179438211 0.57595117627287229 0.53320480118951996 0.034553195234186387 0.59817378831292622 0.47161809395112408 -0.1248471229081376 0.55824822141437158 0.70558183226469384 0.14419110542230718 0.6960960137711949 0.53439750335415825 0.025417915923050916 0.63807709307473404 0.32804609297236992 1.1561102410485833 0.61430915602591107 0.30018482752257686 1.1439128044095717 0.70569381750769156 0.53320480118951996 1.0345531952341864 0.59817378831292622 0.53439750335415825 1.025417915923051 0.63807709307473404 0.70558183226469384 1.1441911054223071 0.6960960137711949 0.61218693002445446 1.101300201794382 0.57595117627287229 0.63674522299794789 0.46791160313259988 0.70765120836670403 0.48943250241696762 0.58645283059904807 0.65069703037327753 0.73969220605975694 0.56752207985918834 0.86754248737814754 0.50460034859614755 0.61357119496558876 0.70661676559963804 0.74289577839915233 0.32884862522405134 0.65472059875917321 0.81784808522935115 0.36562061587945899 0.71634301056184091 0.23037606448768241 0.73988670246948718 0.81162471780702439 0.49790630401450781 0.74899133975431187 1 0.24790630401450781 0.99899133975431187 1 0.18188487954343913 0.55913327756833475 0.93688020620249735 0.24790630401450781 0.49899133975431187 1 -0.0020936959854921389 0.74899133975431187 1 -0.02025404744230197 0.76357690060841632 0.89016291146808646 0.46434208846933384 0.5962354612718358 0.92292217804457588 0.2779937160882488 0.47763136754238206 0.93440289966842616 0.35547598033498184 0.61600091597020612 0.78778543684729485 0.23608084143609465 0.51832169196855482 0.87245943789894076 0.49549266367215572 0.28763149286294398 0.93226856003646574 0.49790630401450781 0.24899133975431181 1 0.74790630401450786 0.49899133975431187 1 0.83625646693464384 0.6302818682590976 0.89855999099710471 1.0193195112176165 0.45798625172739077 0.88030350698625814 0.94291676003585678 0.49253832385324858 0.824426215197262 0.97974595255769803 0.76357690060841632 0.89016291146808646 1.1818848795434391 0.55913327756833475 0.93688020620249735 1.2303760644876824 0.73988670246948718 0.81162471780702439 0.87773740844460457 0.36343246495280029 0.74472839772988408 1.0181657096665915 0.35582829349089479 0.71957513027055842 0.17845958391526617 0.35521102620051814 0.68039780986193277 0.018165709666591479 0.35582829349089479 0.71957513027055842 0.15040865573262716 0.3563846139723883 0.78172200154586291 0.09007900435281721 0.34941712072040126 0.79651091715744005 -0.12226259155539543 0.36343246495280029 0.74472839772988408 -0.0040090938673795762 0.36051840505981897 0.80112245714597907 0.019319511217616547 0.45798625172739077 0.88030350698625814 -0.057083239964143218 0.49253832385324858 0.824426215197262 -0.16374353306535616 0.6302818682590976 0.89855999099710471 0.0024313666254957688 0.4188768301809277 0.91992949274929992 -0.15314601201312861 0.62836834959613275 0.93152538378184002 -0.0026745279804185618 0.32067138262410178 0.85010318818212449 0.16298567537985809 0.28853875502509602 0.88477081101941002 0.19860185739420699 0.29292779180686895 0.83273775305931175 0.99790630401450786 0.74899133975431187 1 1.2479063040145078 0.49899133975431187 1 0.99790630401450786 0.24899133975431181 1 0.84685398798687139 0.62836834959613275 0.93152538378184002 1.0024313666254958 0.4188768301809277 0.91992949274929992 0.75701127211141883 0.25737888994721275 0.91600191849457813 0.34274395946560543 0.15236091830293183 0.80124856212557594 0.33612076555546094 0.13852820059298132 0.87043981665853187 0.78340111431275616 0.17766368330155746 0.79133523972994901 0.99732547201958144 0.32067138262410178 0.85010318818212449 0.91292032470216411 0.053006167719331976 0.83106426300493041 1.1629856753798582 0.28853875502509602 0.88477081101941002 0.24790630401450781 -0.0010086602456881311 1 -0.08707967529783589 0.053006167719331976 0.83106426300493041 -0.0020936959854921389 0.24899133975431181 1 0.23196702469463729 0.23666159300915945 0.71754124396790742 0.99599090613262042 0.36051840505981897 0.80112245714597907 1.0900790043528172 0.34941712072040126 0.79651091715744005 0.99790630401450786 1.2489913397543118 1 0.91292032470216411 1.0530061677193321 0.83106426300493041 1.2479063040145078 0.99899133975431187 1 0.74790630401450786 0.99899133975431187 1 0.77008035222630666 0.97428788197944838 0.94439537521278771 0.66328529128111091 0.097434589289275869 0.92404607904072322 0.74790630401450786 -0.0010086602456881311 1 0.70436306138306426 0.061461219936929011 0.86422694206881523 0.77008035222630666 -0.025712118020551622 0.94439537521278771 0.67279889743725851 0.81680972811411157 0.89126607264794877 0.68518471513535784 0.74787760640624312 0.83575136902403568 0.51649615236832169 0.67730395930931242 0.7438034990921687 0.51615779005948181 0.81145505443428034 0.71343517223820652 0.78340111431275616 1.1776636833015575 0.79133523972994901 0.52308427913280553 1.0014785943504847 0.69575654630875494 0.54332752834273546 0.97496246984579171 0.79496844470669792 0.70436306138306426 1.0614612199369291 0.86422694206881523 0.5199185886336517 0.89503429271606239 0.80385429210825254 0.53487690488514128 0.78929930427057238 0.80787957896572615 0.64312906017906435 0.804343443489138 0.92444819539814516 0.52417518515598627 0.80606741096991352 0.84862022413134219 0.47850948088358114 0.96419959338923045 0.87023216142940318 0.47950174867481932 1.0068331494901397 0.826429122914633 0.66328529128111091 1.0974345892892758 0.92404607904072322 0.47950174867481932 0.0068331494901396894 0.826429122914633 0.47850948088358114 -0.035800406610769553 0.87023216142940318 0.33612076555546094 1.1385282005929813 0.87043981665853187 0.49790630401450781 1.2489913397543118 1 0.42810476110730394 0.045795091171683101 0.72383584292173742 0.23037606448768241 -0.26011329753051282 0.81162471780702439 0.42810476110730394 1.0457950911716831 0.72383584292173742 0.52308427913280553 0.0014785943504846966 0.69575654630875494 0.54332752834273546 -0.025037530154208287 0.79496844470669792 0.87682852868930539 2.019874591683068 0.20977769065980673 0.5 2 0 1 2 0 1.3128075284603125 2.1651376167662355 0.28075326996554634 0.80011529643079515 1.6592045791788061 0.13955920709380715 0.5 1.5 0 1 1.5 0 1.1628864681587401 1.6583824384257611 0.13561268605897694 0.50829257411510242 2.2120438989507685 0.19394987437388272 0.47529296263328419 1.7658653853327757 0.13486921978643646 0.76483579909568711 2.1300289646942572 0.31916802857207738 0.66314361718335457 1.8091757692011678 0.21127360180127902 0.16288646815874008 1.6583824384257611 0.13561268605897694 0 1.5 0 0.31280752846031246 2.1651376167662355 0.28075326996554634 0 2 0 0.19226275134613968 1.6217136003502837 0.21997875923118382 -0.13627099185783065 1.5522530359995297 0.18416517870524318 -0.027938093547017817 1.560964621625399 0.30848871447186443 0.29183758427369755 1.6693335616983063 0.33370737136263462 -0.19988470356920485 1.6592045791788061 0.13955920709380715 -0.12317147131069461 2.019874591683068 0.20977769065980673 1.2918375842736975 1.6693335616983063 0.33370737136263462 0.97206190645298218 1.560964621625399 0.30848871447186443 0.86428791618514578 1.4709633550807899 0.35636676263375816 0.90940302155535246 1.499251178318264 0.44404134574896159 0.7480707272059165 1.7024046678245672 0.37272553303466938 0.82318193368425152 1.6827856668355923 0.46658652739117185 0.81312173208766825 2.1736763189562609 0.40993643415192599 0.62198817571920517 1.8377270063744033 0.39969788031974268 0.6850690725110945 1.8225774714478629 0.33983365876858479 0.65882238173437602 1.7839166228813861 0.26954025100336154 0.76413075830483157 1.6231716143570289 0.21946797248880914 0.80558814593784644 1.5365299396073593 0.21897641758578856 0.86372900814216935 1.5522530359995297 0.18416517870524318 1.1922627513461397 1.6217136003502837 0.21997875923118382 0.81224548758919646 1.3767059742563903 0.1356013625918274 1.1102130425565302 1.4805756744869469 0.097600363383868599 0.75620227312193322 1.362221775984751 0.19435301265715776 0.51257456665104884 1.453225520699241 0.077630704584065832 0.46833218573079449 1.7252375694344024 0.19939020936039559 0.11021304255653019 1.4805756744869469 0.097600363383868599 0.4718969068920576 1.7536181156344177 0.29208868315594178 -0.18775451241080354 1.3767059742563903 0.1356013625918274 0.55879257247030512 1.7726952229204067 0.50435093895812788 0.667184073663178 1.4951576917969289 0.68534374776102702 0.67799291335199563 1.8402106049415048 0.490637187052543 0.81631317949849924 1.6730441651677421 0.60827695369394585 0.61447561161919739 2.0727653368266057 0.48335588736725033 0.83592014598932718 2.1328449052567811 0.49439347506724768 0.98804049063260113 1.8448354164920677 0.73407033126630339 1.0462316493994517 1.9337940728238687 0.64298635066910748 0.24310551087768634 1.6700564851773976 0.45402174255482963 0.20570602510271463 1.4987710007741275 0.45831728514786108 0.41507794230845152 1.7309252802470327 0.51862792948930236 0.44576906780375702 1.6515946997292195 0.59520702112070545 0.04623164939945168 1.9337940728238687 0.64298635066910748 0.47161809395112408 1.8751528770918624 0.55824822141437158 -0.011959509367398868 1.8448354164920677 0.73407033126630339 0.48644504304688224 1.8361060720375502 0.66693811585648033 0.90014509963327316 1.4405375211766889 0.53740626636262079 0.92936236057382704 1.5468552237054127 0.51014860505899273 -0.18687826791233175 1.1736763189562609 0.40993643415192599 -0.09985490036672684 1.4405375211766889 0.53740626636262079 -0.090596978444647536 1.499251178318264 0.44404134574896159 -0.07063763942617296 1.5468552237054127 0.51014860505899273 -0.17681806631574848 1.6827856668355923 0.46658652739117185 -0.18368682050150076 1.6730441651677421 0.60827695369394585 1.2057060251027147 1.4987710007741275 0.45831728514786108 1.2431055108776863 1.6700564851773976 0.45402174255482963 0.90098952743876459 1.3222869855560979 0.5524105352955152 0.81175212500052596 1.3198829825704852 0.60451913291961945 -0.16407985401067282 1.1328449052567808 0.49439347506724768 -0.099010472561235408 1.3222869855560979 0.5524105352955152 0.044353066372881056 1.363496290311512 0.56958151508973109 0.98843555512593484 1.3513665067638372 0.66755546206361327 1.0443530663728811 1.363496290311512 0.56958151508973109 0.39818948632122358 1.2217527669682184 0.5393540876824231 0.28216744653996495 1.463191142522354 0.54388617040157416 0.20666825131081212 1.364153442032374 0.59065452362311954 0.62537815492429205 1.4123053638162049 0.91944353937414403 0.30642925712902486 1.5353020558047594 0.66216113819480493 0.19865130919586532 1.3723137140005401 0.63109307632114209 -0.011564444874065161 1.3513665067638372 0.66755546206361327 0.32804609297236992 2.1561102410485833 0.61430915602591107 0.30018482752257686 2.1439128044095717 0.70569381750769156 0.53320480118951996 2.0345531952341864 0.59817378831292622 0.53439750335415825 2.0254179159230508 0.63807709307473404 0.70558183226469384 2.1441911054223071 0.6960960137711949 0.61218693002445446 2.1013002017943823 0.57595117627287229 0.63674522299794789 1.4679116031325998 0.70765120836670403 0.48943250241696762 1.5864528305990482 0.65069703037327753 0.73969220605975694 1.5675220798591885 0.86754248737814754 0.50460034859614755 1.6135711949655889 0.70661676559963804 0.74289577839915233 1.3288486252240514 0.65472059875917321 0.81784808522935115 1.365620615879459 0.71634301056184091 0.23037606448768241 1.7398867024694873 0.81162471780702439 0.49790630401450781 1.748991339754312 1 0.24790630401450781 1.998991339754312 1 0.18188487954343913 1.5591332775683346 0.93688020620249735 0.24790630401450781 1.498991339754312 1 -0.0020936959854921389 1.748991339754312 1 -0.02025404744230197 1.7635769006084163 0.89016291146808646 0.46434208846933384 1.5962354612718359 0.92292217804457588 0.2779937160882488 1.477631367542382 0.93440289966842616 0.35547598033498184 1.616000915970206 0.78778543684729485 0.23608084143609465 1.5183216919685547 0.87245943789894076 0.49549266367215572 1.287631492862944 0.93226856003646574 0.74790630401450786 1.498991339754312 1 0.83625646693464384 1.6302818682590976 0.89855999099710471 1.0193195112176165 1.4579862517273907 0.88030350698625814 0.94291676003585678 1.4925383238532486 0.824426215197262 0.97974595255769803 1.7635769006084163 0.89016291146808646 1.1818848795434391 1.5591332775683346 0.93688020620249735 1.2303760644876824 1.7398867024694873 0.81162471780702439 0.87773740844460457 1.3634324649528002 0.74472839772988408 1.0181657096665915 1.3558282934908947 0.71957513027055842 0.17845958391526617 1.3552110262005181 0.68039780986193277 0.018165709666591479 1.3558282934908947 0.71957513027055842 0.15040865573262716 1.3563846139723883 0.78172200154586291 0.09007900435281721 1.3494171207204013 0.79651091715744005 -0.12226259155539543 1.3634324649528002 0.74472839772988408 -0.0040090938673795762 1.3605184050598189 0.80112245714597907 0.019319511217616547 1.4579862517273907 0.88030350698625814 -0.057083239964143218 1.4925383238532486 0.824426215197262 -0.16374353306535616 1.6302818682590976 0.89855999099710471 0.0024313666254957688 1.4188768301809276 0.91992949274929992 -0.15314601201312861 1.6283683495961327 0.93152538378184002 -0.0026745279804185618 1.3206713826241017 0.85010318818212449 0.16298567537985809 1.288538755025096 0.88477081101941002 0.19860185739420699 1.2929277918068689 0.83273775305931175 0.99790630401450786 1.748991339754312 1 1.2479063040145078 1.498991339754312 1 0.84685398798687139 1.6283683495961327 0.93152538378184002 1.0024313666254958 1.4188768301809276 0.91992949274929992 0.75701127211141883 1.2573788899472127 0.91600191849457813 0.34274395946560543 1.1523609183029317 0.80124856212557594 0.99732547201958144 1.3206713826241017 0.85010318818212449 1.1629856753798582 1.288538755025096 0.88477081101941002 -0.08707967529783589 1.0530061677193321 0.83106426300493041 -0.0020936959854921389 1.2489913397543118 1 0.23196702469463729 1.2366615930091593 0.71754124396790742 0.99599090613262042 1.3605184050598189 0.80112245714597907 1.0900790043528172 1.3494171207204013 0.79651091715744005 0.99790630401450786 2.248991339754312 1 0.91292032470216411 2.0530061677193321 0.83106426300493041 1.2479063040145078 1.998991339754312 1 0.74790630401450786 1.998991339754312 1 0.77008035222630666 1.9742878819794485 0.94439537521278771 0.67279889743725851 1.8168097281141116 0.89126607264794877 0.68518471513535784 1.7478776064062431 0.83575136902403568 0.51649615236832169 1.6773039593093124 0.7438034990921687 0.51615779005948181 1.8114550544342802 0.71343517223820652 0.78340111431275616 2.1776636833015575 0.79133523972994901 0.52308427913280553 2.0014785943504849 0.69575654630875494 0.54332752834273546 1.9749624698457917 0.79496844470669792 0.70436306138306426 2.0614612199369291 0.86422694206881523 0.5199185886336517 1.8950342927160624 0.80385429210825254 0.53487690488514128 1.7892993042705725 0.80787957896572615 0.64312906017906435 1.8043434434891381 0.92444819539814516 0.52417518515598627 1.8060674109699135 0.84862022413134219 0.47850948088358114 1.9641995933892304 0.87023216142940318 0.47950174867481932 2.0068331494901397 0.826429122914633 0.66328529128111091 2.0974345892892758 0.92404607904072322 0.33612076555546094 2.1385282005929813 0.87043981665853187 0.49790630401450781 2.248991339754312 1 0.42810476110730394 2.0457950911716831 0.72383584292173742 1.8768285286893054 1.019874591683068 0.20977769065980673 1.5 1 0 2 1 0 2.3128075284603122 1.1651376167662355 0.28075326996554634 1.8001152964307952 0.65920457917880615 0.13955920709380715 1.5 0.5 0 2 0.5 0 2.1628864681587401 0.65838243842576116 0.13561268605897694 1.5082925741151025 1.2120438989507687 0.19394987437388272 1.4752929626332842 0.76586538533277571 0.13486921978643646 1.7648357990956871 1.130028964694257 0.31916802857207738 1.6631436171833545 0.80917576920116796 0.21127360180127902 2.2918375842736975 0.66933356169830627 0.33370737136263462 1.9720619064529821 0.56096462162539884 0.30848871447186443 1.8642879161851458 0.47096335508078979 0.35636676263375816 1.9094030215553524 0.49925117831826404 0.44404134574896159 1.7480707272059166 0.70240466782456723 0.37272553303466938 1.8231819336842516 0.68278566683559228 0.46658652739117185 1.8131217320876682 1.1736763189562609 0.40993643415192599 1.6219881757192052 0.83772700637440334 0.39969788031974268 1.6850690725110944 0.82257747144786275 0.33983365876858479 1.6588223817343759 0.78391662288138608 0.26954025100336154 1.7641307583048316 0.62317161435702884 0.21946797248880914 1.8055881459378464 0.53652993960735929 0.21897641758578856 1.8637290081421694 0.55225303599952968 0.18416517870524318 2.1922627513461395 0.62171360035028367 0.21997875923118382 1.8122454875891965 0.37670597425639035 0.1356013625918274 2.1102130425565302 0.48057567448694688 0.097600363383868599 1.7562022731219331 0.36222177598475103 0.19435301265715776 1.5125745666510488 0.45322552069924105 0.077630704584065832 1.4683321857307945 0.72523756943440243 0.19939020936039559 1.5 0 0 2 0 0 1.8768285286893054 0.019874591683068044 0.20977769065980673 2.3128075284603122 0.16513761676623551 0.28075326996554634 1.7648357990956871 0.13002896469425695 0.31916802857207738 1.5082925741151025 0.21204389895076869 0.19394987437388272 1.4718969068920575 0.75361811563441772 0.29208868315594178 1.8131217320876682 0.1736763189562609 0.40993643415192599 1.5587925724703051 0.7726952229204066 0.50435093895812788 1.667184073663178 0.49515769179692892 0.68534374776102702 1.6779929133519955 0.84021060494150479 0.490637187052543 1.8163131794984992 0.67304416516774224 0.60827695369394585 1.6144756116191974 1.0727653368266057 0.48335588736725033 1.8359201459893271 1.1328449052567808 0.49439347506724768 1.988040490632601 0.84483541649206761 0.73407033126630339 2.0462316493994517 0.93379407282386873 0.64298635066910748 1.4150779423084514 0.73092528024703285 0.51862792948930236 1.4457690678037571 0.65159469972921946 0.59520702112070545 1.4716180939511241 0.8751528770918624 0.55824822141437158 1.4864450430468823 0.83610607203755016 0.66693811585648033 1.9001450996332732 0.44053752117668887 0.53740626636262079 1.929362360573827 0.54685522370541273 0.51014860505899273 2.2057060251027147 0.49877100077412739 0.45831728514786108 2.2431055108776863 0.67005648517739747 0.45402174255482963 1.6144756116191974 0.072765336826605687 0.48335588736725033 1.8359201459893271 0.13284490525678083 0.49439347506724768 1.9009895274387647 0.32228698555609786 0.5524105352955152 1.811752125000526 0.31988298257048509 0.60451913291961945 1.988435555125935 0.35136650676383724 0.66755546206361327 2.0443530663728811 0.36349629031151193 0.56958151508973109 1.988040490632601 -0.15516458350793239 0.73407033126630339 2.0462316493994517 -0.066205927176131274 0.64298635066910748 1.3981894863212236 0.22175276696821847 0.5393540876824231 1.2821674465399648 0.46319114252235405 0.54388617040157416 1.3280460929723699 0.15611024104858323 0.61430915602591107 1.2066682513108122 0.36415344203237404 0.59065452362311954 1.6253781549242921 0.41230536381620486 0.91944353937414403 1.3001848275225769 0.14391280440957177 0.70569381750769156 1.3064292571290248 0.53530205580475942 0.66216113819480493 1.1986513091958653 0.3723137140005402 0.63109307632114209 1.6121869300244545 0.10130020179438211 0.57595117627287229 1.5332048011895201 0.034553195234186387 0.59817378831292622 1.4716180939511241 -0.1248471229081376 0.55824822141437158 1.7055818322646938 0.14419110542230718 0.6960960137711949 1.5343975033541581 0.025417915923050916 0.63807709307473404 1.3280460929723699 1.1561102410485833 0.61430915602591107 1.3001848275225769 1.1439128044095717 0.70569381750769156 1.5332048011895201 1.0345531952341864 0.59817378831292622 1.5343975033541581 1.025417915923051 0.63807709307473404 1.7055818322646938 1.1441911054223071 0.6960960137711949 1.6121869300244545 1.101300201794382 0.57595117627287229 1.636745222997948 0.46791160313259988 0.70765120836670403 1.4894325024169677 0.58645283059904807 0.65069703037327753 1.7396922060597571 0.56752207985918834 0.86754248737814754 1.5046003485961474 0.61357119496558876 0.70661676559963804 1.7428957783991523 0.32884862522405134 0.65472059875917321 1.8178480852293513 0.36562061587945899 0.71634301056184091 1.4979063040145078 0.74899133975431187 1 1.4643420884693339 0.5962354612718358 0.92292217804457588 1.2779937160882489 0.47763136754238206 0.93440289966842616 1.3554759803349818 0.61600091597020612 0.78778543684729485 1.2360808414360946 0.51832169196855482 0.87245943789894076 1.4954926636721557 0.28763149286294398 0.93226856003646574 1.4979063040145078 0.24899133975431181 1 1.7479063040145078 0.49899133975431187 1 1.8362564669346439 0.6302818682590976 0.89855999099710471 2.0193195112176165 0.45798625172739077 0.88030350698625814 1.9429167600358568 0.49253832385324858 0.824426215197262 1.9797459525576979 0.76357690060841632 0.89016291146808646 2.1818848795434391 0.55913327756833475 0.93688020620249735 2.2303760644876824 0.73988670246948718 0.81162471780702439 1.8777374084446046 0.36343246495280029 0.74472839772988408 2.0181657096665915 0.35582829349089479 0.71957513027055842 1.1784595839152661 0.35521102620051814 0.68039780986193277 1.1504086557326272 0.3563846139723883 0.78172200154586291 1.198601857394207 0.29292779180686895 0.83273775305931175 1.9979063040145078 0.74899133975431187 1 2.2479063040145078 0.49899133975431187 1 1.9979063040145078 0.24899133975431181 1 1.8468539879868713 0.62836834959613275 0.93152538378184002 2.0024313666254958 0.4188768301809277 0.91992949274929992 1.7570112721114188 0.25737888994721275 0.91600191849457813 1.3427439594656054 0.15236091830293183 0.80124856212557594 1.336120765555461 0.13852820059298132 0.87043981665853187 1.7834011143127562 0.17766368330155746 0.79133523972994901 1.9973254720195814 0.32067138262410178 0.85010318818212449 1.912920324702164 0.053006167719331976 0.83106426300493041 2.1629856753798582 0.28853875502509602 0.88477081101941002 1.2479063040145078 -0.0010086602456881311 1 1.2319670246946373 0.23666159300915945 0.71754124396790742 1.9959909061326204 0.36051840505981897 0.80112245714597907 2.090079004352817 0.34941712072040126 0.79651091715744005 1.9979063040145078 1.2489913397543118 1 1.912920324702164 1.0530061677193321 0.83106426300493041 2.2479063040145078 0.99899133975431187 1 1.7479063040145078 0.99899133975431187 1 1.7700803522263067 0.97428788197944838 0.94439537521278771 1.6632852912811109 0.097434589289275869 0.92404607904072322 1.7479063040145078 -0.0010086602456881311 1 1.7043630613830643 0.061461219936929011 0.86422694206881523 1.7700803522263067 -0.025712118020551622 0.94439537521278771 1.6727988974372585 0.81680972811411157 0.89126607264794877 1.6851847151353578 0.74787760640624312 0.83575136902403568 1.5164961523683216 0.67730395930931242 0.7438034990921687 1.5161577900594818 0.81145505443428034 0.71343517223820652 1.7834011143127562 1.1776636833015575 0.79133523972994901 1.5230842791328056 1.0014785943504847 0.69575654630875494 1.5433275283427355 0.97496246984579171 0.79496844470669792 1.7043630613830643 1.0614612199369291 0.86422694206881523 1.5199185886336517 0.89503429271606239 0.80385429210825254 1.5348769048851412 0.78929930427057238 0.80787957896572615 1.6431290601790645 0.804343443489138 0.92444819539814516 1.5241751851559862 0.80606741096991352 0.84862022413134219 1.4785094808835813 0.96419959338923045 0.87023216142940318 1.4795017486748194 1.0068331494901397 0.826429122914633 1.6632852912811109 1.0974345892892758 0.92404607904072322 1.4795017486748194 0.0068331494901396894 0.826429122914633 1.4785094808835813 -0.035800406610769553 0.87023216142940318 1.336120765555461 1.1385282005929813 0.87043981665853187 1.4979063040145078 1.2489913397543118 1 1.4281047611073039 0.045795091171683101 0.72383584292173742 1.2303760644876824 -0.26011329753051282 0.81162471780702439 1.4281047611073039 1.0457950911716831 0.72383584292173742 1.5230842791328056 0.0014785943504846966 0.69575654630875494 1.5433275283427355 -0.025037530154208287 0.79496844470669792 1.8768285286893054 2.019874591683068 0.20977769065980673 1.5 2 0 2 2 0 2.3128075284603122 2.1651376167662355 0.28075326996554634 1.8001152964307952 1.6592045791788061 0.13955920709380715 1.5 1.5 0 2 1.5 0 2.1628864681587401 1.6583824384257611 0.13561268605897694 1.5082925741151025 2.2120438989507685 0.19394987437388272 1.4752929626332842 1.7658653853327757 0.13486921978643646 1.7648357990956871 2.1300289646942572 0.31916802857207738 1.6631436171833545 1.8091757692011678 0.21127360180127902 2.2918375842736975 1.6693335616983063 0.33370737136263462 1.9720619064529821 1.560964621625399 0.30848871447186443 1.8642879161851458 1.4709633550807899 0.35636676263375816 1.9094030215553524 1.499251178318264 0.44404134574896159 1.7480707272059166 1.7024046678245672 0.37272553303466938 1.8231819336842516 1.6827856668355923 0.46658652739117185 1.8131217320876682 2.1736763189562609 0.40993643415192599 1.6219881757192052 1.8377270063744033 0.39969788031974268 1.6850690725110944 1.8225774714478629 0.33983365876858479 1.6588223817343759 1.7839166228813861 0.26954025100336154 1.7641307583048316 1.6231716143570289 0.21946797248880914 1.8055881459378464 1.5365299396073593 0.21897641758578856 1.8637290081421694 1.5522530359995297 0.18416517870524318 2.1922627513461395 1.6217136003502837 0.21997875923118382 1.8122454875891965 1.3767059742563903 0.1356013625918274 2.1102130425565302 1.4805756744869469 0.097600363383868599 1.7562022731219331 1.362221775984751 0.19435301265715776 1.5125745666510488 1.453225520699241 0.077630704584065832 1.4683321857307945 1.7252375694344024 0.19939020936039559 1.4718969068920575 1.7536181156344177 0.29208868315594178 1.5587925724703051 1.7726952229204067 0.50435093895812788 1.667184073663178 1.4951576917969289 0.68534374776102702 1.6779929133519955 1.8402106049415048 0.490637187052543 1.8163131794984992 1.6730441651677421 0.60827695369394585 1.6144756116191974 2.0727653368266057 0.48335588736725033 1.8359201459893271 2.1328449052567811 0.49439347506724768 1.988040490632601 1.8448354164920677 0.73407033126630339 2.0462316493994517 1.9337940728238687 0.64298635066910748 1.4150779423084514 1.7309252802470327 0.51862792948930236 1.4457690678037571 1.6515946997292195 0.59520702112070545 1.4716180939511241 1.8751528770918624 0.55824822141437158 1.4864450430468823 1.8361060720375502 0.66693811585648033 1.9001450996332732 1.4405375211766889 0.53740626636262079 1.929362360573827 1.5468552237054127 0.51014860505899273 2.2057060251027147 1.4987710007741275 0.45831728514786108 2.2431055108776863 1.6700564851773976 0.45402174255482963 1.9009895274387647 1.3222869855560979 0.5524105352955152 1.811752125000526 1.3198829825704852 0.60451913291961945 1.988435555125935 1.3513665067638372 0.66755546206361327 2.0443530663728811 1.363496290311512 0.56958151508973109 1.3981894863212236 1.2217527669682184 0.5393540876824231 1.2821674465399648 1.463191142522354 0.54388617040157416 1.2066682513108122 1.364153442032374 0.59065452362311954 1.6253781549242921 1.4123053638162049 0.91944353937414403 1.3064292571290248 1.5353020558047594 0.66216113819480493 1.1986513091958653 1.3723137140005401 0.63109307632114209 1.3280460929723699 2.1561102410485833 0.61430915602591107 1.3001848275225769 2.1439128044095717 0.70569381750769156 1.5332048011895201 2.0345531952341864 0.59817378831292622 1.5343975033541581 2.0254179159230508 0.63807709307473404 1.7055818322646938 2.1441911054223071 0.6960960137711949 1.6121869300244545 2.1013002017943823 0.57595117627287229 1.636745222997948 1.4679116031325998 0.70765120836670403 1.4894325024169677 1.5864528305990482 0.65069703037327753 1.7396922060597571 1.5675220798591885 0.86754248737814754 1.5046003485961474 1.6135711949655889 0.70661676559963804 1.7428957783991523 1.3288486252240514 0.65472059875917321 1.8178480852293513 1.365620615879459 0.71634301056184091 1.4979063040145078 1.748991339754312 1 1.4643420884693339 1.5962354612718359 0.92292217804457588 1.2779937160882489 1.477631367542382 0.93440289966842616 1.3554759803349818 1.616000915970206 0.78778543684729485 1.2360808414360946 1.5183216919685547 0.87245943789894076 1.4954926636721557 1.287631492862944 0.93226856003646574 1.7479063040145078 1.498991339754312 1 1.8362564669346439 1.6302818682590976 0.89855999099710471 2.0193195112176165 1.4579862517273907 0.88030350698625814 1.9429167600358568 1.4925383238532486 0.824426215197262 1.9797459525576979 1.7635769006084163 0.89016291146808646 2.1818848795434391 1.5591332775683346 0.93688020620249735 2.2303760644876824 1.7398867024694873 0.81162471780702439 1.8777374084446046 1.3634324649528002 0.74472839772988408 2.0181657096665915 1.3558282934908947 0.71957513027055842 1.1784595839152661 1.3552110262005181 0.68039780986193277 1.1504086557326272 1.3563846139723883 0.78172200154586291 1.198601857394207 1.2929277918068689 0.83273775305931175 1.9979063040145078 1.748991339754312 1 2.2479063040145078 1.498991339754312 1 1.8468539879868713 1.6283683495961327 0.93152538378184002 2.0024313666254958 1.4188768301809276 0.91992949274929992 1.7570112721114188 1.2573788899472127 0.91600191849457813 1.3427439594656054 1.1523609183029317 0.80124856212557594 1.9973254720195814 1.3206713826241017 0.85010318818212449 2.1629856753798582 1.288538755025096 0.88477081101941002 1.2319670246946373 1.2366615930091593 0.71754124396790742 1.9959909061326204 1.3605184050598189 0.80112245714597907 2.090079004352817 1.3494171207204013 0.79651091715744005 1.9979063040145078 2.248991339754312 1 1.912920324702164 2.0530061677193321 0.83106426300493041 2.2479063040145078 1.998991339754312 1 1.7479063040145078 1.998991339754312 1 1.7700803522263067 1.9742878819794485 0.94439537521278771 1.6727988974372585 1.8168097281141116 0.89126607264794877 1.6851847151353578 1.7478776064062431 0.83575136902403568 1.5164961523683216 1.6773039593093124 0.7438034990921687 1.5161577900594818 1.8114550544342802 0.71343517223820652 1.7834011143127562 2.1776636833015575 0.79133523972994901 1.5230842791328056 2.0014785943504849 0.69575654630875494 1.5433275283427355 1.9749624698457917 0.79496844470669792 1.7043630613830643 2.0614612199369291 0.86422694206881523 1.5199185886336517 1.8950342927160624 0.80385429210825254 1.5348769048851412 1.7892993042705725 0.80787957896572615 1.6431290601790645 1.8043434434891381 0.92444819539814516 1.5241751851559862 1.8060674109699135 0.84862022413134219 1.4785094808835813 1.9641995933892304 0.87023216142940318 1.4795017486748194 2.0068331494901397 0.826429122914633 1.6632852912811109 2.0974345892892758 0.92404607904072322 1.336120765555461 2.1385282005929813 0.87043981665853187 1.4979063040145078 2.248991339754312 1 1.4281047611073039 2.0457950911716831 0.72383584292173742</DataArray></Points><Cells><DataArray type="Int32" Name="connectivity" format="ascii">0 1 2 3 4 5 6 7 8 9 5 1 10 11 4 0 12 9 5 13 14 8 1 15 16 17 18 19 12 20 21 14 22 23 24 25 3 0 26 27 28 10 0 3 29 30 26 27 30 31 11 10 26 32 4 0 26 32 4 0 24 33 34 23 7 4 5 6 35 34 36 37 33 38 39 32 34 36 5 4 32 39 40 31 4 5 9 11 6 5 41 42 37 36 43 44 16 40 39 45 12 9 5 13 46 38 36 43 47 39 5 41 13 45 48 49 5 39 47 41 19 50 47 48 16 40 39 45 25 24 46 51 27 26 47 48 29 30 26 27 19 50 47 48 26 32 39 47 30 31 40 50 24 33 38 46 26 32 39 47 16 17 52 45 19 18 53 48 24 33 34 23 46 38 36 43 22 23 43 44 25 24 46 51 19 50 8 14 29 30 10 28 50 40 9 8 30 31 11 10 16 40 9 12 19 50 8 14 48 19 54 55 27 29 56 57 14 19 29 28 58 54 56 59 60 55 54 58 61 57 56 59 3 27 57 61 28 29 56 59 48 19 62 63 55 54 64 65 14 19 54 58 66 62 64 67 68 63 62 66 69 65 64 67 60 55 65 69 58 54 64 67 48 51 25 27 55 70 71 57 48 72 73 63 19 74 75 62 14 76 74 19 66 77 75 62 60 55 57 61 78 70 71 79 48 51 70 55 80 81 82 83 48 72 84 85 63 73 86 87 60 55 70 78 88 83 82 89 90 80 83 88 91 81 82 89 48 92 93 63 85 94 95 87 96 92 94 97 98 93 95 99 68 63 93 98 100 87 95 99 101 85 87 100 97 94 95 99 48 92 94 85 80 102 103 104 96 92 102 105 97 94 103 106 68 66 107 108 69 67 109 110 60 58 67 69 111 112 109 110 48 92 113 55 63 93 114 65 96 92 93 98 115 113 114 116 60 55 113 115 69 65 114 116 68 63 65 69 98 93 114 116 48 92 102 80 55 113 117 83 96 92 113 115 105 102 117 118 90 80 102 105 88 83 117 118 60 55 83 88 115 113 117 118 119 120 121 68 122 123 124 125 126 127 123 120 128 129 122 119 130 127 123 131 96 126 120 132 133 134 135 115 136 137 138 60 115 135 139 118 60 138 140 88 98 128 119 68 99 141 142 100 141 143 129 128 142 144 122 119 142 144 122 119 145 146 147 148 125 122 123 124 149 147 150 151 146 152 153 144 147 150 123 122 144 153 154 143 122 123 127 129 155 156 157 132 158 159 160 96 161 154 153 162 130 127 123 131 163 164 159 160 165 166 156 157 131 162 101 167 123 153 168 169 97 170 168 101 161 154 153 162 118 139 163 105 88 140 165 90 99 141 142 100 97 170 168 101 142 144 153 168 141 143 154 170 139 171 164 163 140 172 166 165 133 134 159 158 115 135 160 96 139 171 134 135 163 164 159 160 115 135 160 96 118 139 163 105 97 170 126 96 99 141 128 98 170 154 127 126 141 143 129 128 161 154 127 130 97 170 126 96 173 174 60 175 176 177 136 155 178 160 157 179 180 163 165 181 178 130 131 179 160 96 132 157 182 133 115 183 177 136 60 174 183 115 116 184 174 60 69 185 186 111 60 174 187 110 69 185 188 187 186 189 190 185 174 177 190 185 174 177 191 184 183 182 177 136 155 176 182 133 158 192 193 191 190 194 192 182 177 176 194 190 188 195 176 177 189 196 176 155 132 120 192 158 96 126 197 161 162 198 178 130 131 179 193 128 126 192 194 119 120 176 199 200 121 68 194 176 120 119 201 97 101 202 197 161 162 198 184 116 98 128 185 69 68 119 187 110 69 185 203 108 68 119 190 185 119 194 188 187 203 195 191 184 128 193 190 185 119 194 182 133 158 192 183 115 96 126 191 184 183 182 193 128 126 192 183 115 96 126 184 116 98 128 201 97 96 160 204 106 105 163 197 201 160 178 205 204 163 180 197 161 130 178 201 97 96 160 206 207 208 209 210 211 212 213 214 215 211 207 216 217 210 206 218 215 211 219 220 214 207 221 222 223 224 225 218 226 227 220 228 229 230 231 209 206 232 233 234 216 206 209 235 236 232 233 236 237 217 216 232 238 210 206 232 238 210 206 230 239 240 229 213 210 211 212 241 240 242 243 239 244 245 238 240 242 211 210 238 245 246 237 210 211 215 217 212 211 1 2 243 242 0 3 222 246 245 247 218 215 211 219 10 244 242 0 8 245 211 1 219 247 14 15 211 245 8 1 225 248 8 14 222 246 245 247 231 230 10 28 233 232 8 14 235 236 232 233 225 248 8 14 232 238 245 8 236 237 246 248 230 239 244 10 232 238 245 8 222 223 249 247 225 224 21 14 230 239 240 229 10 244 242 0 228 229 0 3 231 230 10 28 225 248 214 220 235 236 216 234 248 246 215 214 236 237 217 216 222 246 215 218 225 248 214 220 14 225 250 251 233 235 252 253 220 225 235 234 254 250 252 255 256 251 250 254 257 253 252 255 209 233 253 257 234 235 252 255 14 225 258 259 251 250 260 261 220 225 250 254 262 258 260 263 264 259 258 262 265 261 260 263 256 251 261 265 254 250 260 263 14 28 231 233 251 266 267 253 14 268 269 259 225 270 271 258 220 272 270 225 262 273 271 258 256 251 253 257 274 266 267 275 14 28 266 251 58 59 276 277 14 268 278 66 259 269 279 280 256 251 266 274 281 277 276 282 60 58 277 281 61 59 276 282 14 283 284 259 66 107 285 280 286 283 107 108 287 284 285 288 264 259 284 287 289 280 285 288 68 66 280 289 108 107 285 288 14 283 107 66 58 112 109 67 286 283 112 111 108 107 109 110 264 262 290 291 265 263 292 293 256 254 263 265 294 295 292 293 14 283 296 251 259 284 297 261 286 283 284 287 298 296 297 299 256 251 296 298 265 261 297 299 264 259 261 265 287 284 297 299 14 283 112 58 251 296 300 277 286 283 296 298 111 112 300 301 60 58 112 111 281 277 300 301 256 251 277 281 298 296 300 301 302 303 304 264 305 306 307 308 309 310 306 303 311 312 305 302 313 310 306 200 286 309 303 314 315 316 317 298 318 319 320 256 298 317 321 301 256 320 322 281 287 311 302 264 288 323 324 289 323 325 312 311 324 326 305 302 324 326 305 302 327 328 329 330 308 305 306 307 331 329 332 333 328 334 335 326 329 332 306 305 326 335 336 325 305 306 310 312 337 338 173 314 339 340 341 286 342 336 335 199 313 310 306 200 186 343 340 341 174 344 338 173 200 199 68 121 306 335 345 346 108 347 345 68 342 336 335 199 301 321 186 111 281 322 174 60 288 323 324 289 108 347 345 68 324 326 335 345 323 325 336 347 321 348 343 186 322 349 344 174 315 316 340 339 298 317 341 286 321 348 316 317 186 343 340 341 298 317 341 286 301 321 186 111 108 347 309 286 288 323 311 287 347 336 310 309 323 325 312 311 342 336 310 313 108 347 309 286 350 351 256 352 353 354 318 337 196 341 173 176 189 186 174 177 196 313 200 176 341 286 314 173 355 315 298 356 354 318 256 351 356 298 299 357 351 256 265 358 359 294 256 351 360 293 265 358 361 360 359 362 363 358 351 354 363 358 351 354 364 357 356 355 354 318 337 353 355 315 339 365 366 364 363 367 365 355 354 353 367 363 361 368 353 354 362 369 353 337 314 303 365 339 286 309 195 342 199 194 196 313 200 176 366 311 309 365 367 302 303 353 370 371 304 264 367 353 303 302 203 108 68 119 195 342 199 194 357 299 287 311 358 265 264 302 360 293 265 358 372 291 264 302 363 358 302 367 361 360 372 368 364 357 311 366 363 358 302 367 355 315 339 365 356 298 286 309 364 357 356 355 366 311 309 365 356 298 286 309 357 299 287 311 203 108 286 341 187 110 111 186 195 203 341 196 188 187 186 189 195 342 313 196 203 108 286 341 373 374 375 376 377 378 379 380 381 382 378 374 383 384 377 373 7 382 378 6 3 381 374 2 35 34 23 22 7 4 0 3 385 386 387 388 376 373 389 390 391 383 373 376 392 393 389 390 393 394 384 383 389 395 377 373 389 395 377 373 387 396 397 386 380 377 378 379 398 397 399 400 396 401 402 395 397 399 378 377 395 402 403 394 377 378 382 384 379 378 404 405 400 399 406 407 35 403 402 37 7 382 378 6 408 401 399 406 409 402 378 404 6 37 44 42 378 402 409 404 22 410 409 44 35 403 402 37 388 387 408 411 390 389 409 44 392 393 389 390 22 410 409 44 389 395 402 409 393 394 403 410 387 396 401 408 389 395 402 409 35 34 36 37 22 23 43 44 387 396 397 386 408 401 399 406 385 386 406 407 388 387 408 411 22 410 381 3 392 393 383 391 410 403 382 381 393 394 384 383 35 403 382 7 22 410 381 3 44 22 412 413 390 392 414 415 3 22 392 391 416 412 414 417 418 413 412 416 419 415 414 417 376 390 415 419 391 392 414 417 44 22 79 78 413 412 420 421 3 22 412 416 61 79 420 422 60 78 79 61 423 421 420 422 418 413 421 423 416 412 420 422 44 411 388 390 413 424 425 415 44 51 70 78 22 25 71 79 3 27 25 22 61 57 71 79 418 413 415 419 426 424 425 427 44 411 424 413 428 429 430 431 44 51 81 91 78 70 82 89 418 413 424 426 432 431 430 433 434 428 431 432 435 429 430 433 44 436 437 78 91 438 439 89 440 436 438 441 442 437 439 443 60 78 437 442 88 89 439 443 90 91 89 88 441 438 439 443 44 436 438 91 428 444 445 446 440 436 444 447 441 438 445 448 60 61 449 450 423 422 451 452 418 416 422 423 453 454 451 452 44 436 455 413 78 437 456 421 440 436 437 442 457 455 456 458 418 413 455 457 423 421 456 458 60 78 421 423 442 437 456 458 44 436 444 428 413 455 459 431 440 436 455 457 447 444 459 460 434 428 444 447 432 431 459 460 418 413 431 432 457 455 459 460 138 461 175 60 137 156 155 136 462 463 156 461 464 465 137 138 466 463 156 467 440 462 461 468 469 470 471 457 472 473 474 418 457 471 475 460 418 474 476 432 442 464 138 60 443 477 140 88 477 478 465 464 140 172 137 138 140 172 137 138 139 171 134 135 136 137 156 155 133 134 159 158 171 164 166 172 134 159 156 137 172 166 479 478 137 156 463 465 480 481 482 468 483 484 485 440 486 479 166 487 466 463 156 467 488 489 484 485 490 491 481 482 467 487 90 492 156 166 165 157 441 493 165 90 486 479 166 487 460 475 488 447 432 476 490 434 443 477 140 88 441 493 165 90 140 172 166 165 477 478 479 493 475 494 489 488 476 495 491 490 469 470 484 483 457 471 485 440 475 494 470 471 488 489 484 485 457 471 485 440 460 475 488 447 441 493 462 440 443 477 464 442 493 479 463 462 477 478 465 464 486 479 463 466 441 493 462 440 496 497 418 498 499 500 472 480 501 485 482 502 503 488 490 504 501 466 467 502 485 440 468 482 505 469 457 506 500 472 418 497 506 457 458 507 497 418 423 508 509 453 418 497 510 452 423 508 511 510 509 512 513 508 497 500 513 508 497 500 514 507 506 505 500 472 480 499 505 469 483 515 516 514 513 517 515 505 500 499 517 513 511 518 499 500 512 519 499 480 468 461 515 483 440 462 520 486 487 521 501 466 467 502 516 464 462 515 517 138 461 499 522 523 175 60 517 499 461 138 524 441 90 525 520 486 487 521 507 458 442 464 508 423 60 138 510 452 423 508 526 450 60 138 513 508 138 517 511 510 526 518 514 507 464 516 513 508 138 517 505 469 483 515 506 457 440 462 514 507 506 505 516 464 462 515 506 457 440 462 507 458 442 464 524 441 440 485 527 448 447 488 520 524 485 501 528 527 488 503 520 486 466 501 524 441 440 485 529 530 531 532 533 534 535 536 537 538 534 530 539 540 533 529 213 538 534 212 209 537 530 208 241 240 229 228 213 210 206 209 541 542 543 544 532 529 545 546 547 539 529 532 548 549 545 546 549 550 540 539 545 551 533 529 545 551 533 529 543 552 553 542 536 533 534 535 554 553 555 556 552 557 558 551 553 555 534 533 551 558 559 550 533 534 538 540 535 534 374 375 556 555 373 376 241 559 558 243 213 538 534 212 383 557 555 373 381 558 534 374 212 243 3 2 534 558 381 374 228 560 381 3 241 559 558 243 544 543 383 391 546 545 381 3 548 549 545 546 228 560 381 3 545 551 558 381 549 550 559 560 543 552 557 383 545 551 558 381 241 240 242 243 228 229 0 3 543 552 553 542 383 557 555 373 541 542 373 376 544 543 383 391 228 560 537 209 548 549 539 547 560 559 538 537 549 550 540 539 241 559 538 213 228 560 537 209 3 228 561 562 546 548 563 564 209 228 548 547 565 561 563 566 567 562 561 565 568 564 563 566 532 546 564 568 547 548 563 566 3 228 275 274 562 561 569 570 209 228 561 565 257 275 569 571 256 274 275 257 572 570 569 571 567 562 570 572 565 561 569 571 3 391 544 546 562 573 574 564 3 28 266 274 228 231 267 275 209 233 231 228 257 253 267 275 567 562 564 568 575 573 574 576 3 391 573 562 416 417 577 578 3 28 59 61 274 266 276 282 567 562 573 575 579 578 577 580 418 416 578 579 419 417 577 580 3 581 582 274 61 449 583 282 584 581 449 450 585 582 583 586 256 274 582 585 281 282 583 586 60 61 282 281 450 449 583 586 3 581 449 61 416 454 451 422 584 581 454 453 450 449 451 452 256 257 587 588 572 571 589 590 567 565 571 572 591 592 589 590 3 581 593 562 274 582 594 570 584 581 582 585 595 593 594 596 567 562 593 595 572 570 594 596 256 274 570 572 585 582 594 596 3 581 454 416 562 593 597 578 584 581 593 595 453 454 597 598 418 416 454 453 579 578 597 598 567 562 578 579 595 593 597 598 320 599 352 256 319 338 337 318 600 601 338 599 602 603 319 320 604 601 338 523 584 600 599 605 606 607 608 595 609 610 611 567 595 608 612 598 567 611 613 579 585 602 320 256 586 614 322 281 614 615 603 602 322 349 319 320 322 349 319 320 321 348 316 317 318 319 338 337 315 316 340 339 348 343 344 349 316 340 338 319 349 344 616 615 319 338 601 603 617 618 496 605 619 620 621 584 622 616 344 522 604 601 338 523 509 623 620 621 497 624 618 496 523 522 60 175 338 344 174 173 450 625 174 60 622 616 344 522 598 612 509 453 579 613 497 418 586 614 322 281 450 625 174 60 322 349 344 174 614 615 616 625 612 626 623 509 613 627 624 497 606 607 620 619 595 608 621 584 612 626 607 608 509 623 620 621 595 608 621 584 598 612 509 453 450 625 600 584 586 614 602 585 625 616 601 600 614 615 603 602 622 616 601 604 450 625 600 584 628 629 567 630 631 632 609 617 519 621 496 499 512 509 497 500 519 604 523 499 621 584 605 496 633 606 595 634 632 609 567 629 634 595 596 635 629 567 572 636 637 591 567 629 638 590 572 636 639 638 637 640 641 636 629 632 641 636 629 632 642 635 634 633 632 609 617 631 633 606 619 643 644 642 641 645 643 633 632 631 645 641 639 646 631 632 640 647 631 617 605 599 643 619 584 600 518 622 522 517 519 604 523 499 644 602 600 643 645 320 599 631 648 649 352 256 645 631 599 320 526 450 60 138 518 622 522 517 635 596 585 602 636 572 256 320 638 590 572 636 650 588 256 320 641 636 320 645 639 638 650 646 642 635 602 644 641 636 320 645 633 606 619 643 634 595 584 600 642 635 634 633 644 602 600 643 634 595 584 600 635 596 585 602 526 450 584 621 510 452 453 509 518 526 621 519 511 510 509 512 518 622 604 519 526 450 584 621</DataArray><DataArray type="Int32" Name="offsets" format="ascii">8 16 24 32 40 48 56 64 72 80 88 96 104 112 120 128 136 144 152 160 168 176 184 192 200 208 216 224 232 240 248 256 264 272 280 288 296 304 312 320 328 336 344 352 360 368 376 384 392 400 408 416 424 432 440 448 456 464 472 480 488 496 504 512 520 528 536 544 552 560 568 576 584 592 600 608 616 624 632 640 648 656 664 672 680 688 696 704 712 720 728 736 744 752 760 768 776 784 792 800 808 816 824 832 840 848 856 864 872 880 888 896 904 912 920 928 936 944 952 960 968 976 984 992 1000 1008 1016 1024 1032 1040 1048 1056 1064 1072 1080 1088 1096 1104 1112 1120 1128 1136 1144 1152 1160 1168 1176 1184 1192 1200 1208 1216 1224 1232 1240 1248 1256 1264 1272 1280 1288 1296 1304 1312 1320 1328 1336 1344 1352 1360 1368 1376 1384 1392 1400 1408 1416 1424 1432 1440 1448 1456 1464 1472 1480 1488 1496 1504 1512 1520 1528 1536 1544 1552 1560 1568 1576 1584 1592 1600 1608 1616 1624 1632 1640 1648 1656 1664 1672 1680 1688 1696 1704 1712 1720 1728 1736 1744 1752 1760 1768 1776 1784 1792 1800 1808 1816 1824 1832 1840 1848 1856 1864 1872 1880 1888 1896 1904 1912 1920 1928 1936 1944 1952 1960 1968 1976 1984 1992 2000 2008 2016 2024 2032 2040 2048 2056 2064 2072 2080 2088 2096 2104 2112 2120 2128 2136 2144 2152 2160 2168 2176 2184 2192 2200 2208 2216 2224 2232 2240 2248 2256 2264 2272 2280 2288 2296 2304 2312 2320 2328 2336 2344 2352 2360 2368 2376 2384 2392 2400 2408 2416 2424 2432 2440 2448 2456 2464 2472 2480 2488 2496 2504 2512 2520 2528 2536 2544 2552 2560 2568 2576 2584 2592 2600 2608 2616 2624 2632 2640 2648 2656 2664 2672 2680 2688 2696 2704 2712 2720 2728 2736 2744 2752 2760 2768 2776 2784 2792 2800 2808 2816 2824 2832 2840 2848 2856 2864 2872 2880 2888 2896 2904 2912 2920 2928 2936 2944 2952 2960 2968 2976 2984 2992 3000 3008 3016 3024 3032 3040 3048 3056 3064 3072 3080 3088 3096 3104 3112 3120 3128 3136 3144 3152 3160 3168 3176 3184 3192 3200 3208 3216 3224 3232 3240 3248 3256 3264 3272 3280 3288 3296 3304 3312 3320 3328 3336 3344 3352 3360 3368 3376 3384 3392 3400 3408 3416 3424 3432 3440 3448 3456 3464 3472 3480 3488 3496 3504 3512 3520</DataArray><DataArray type="Int32" Name="types" format="ascii">12 12 12 12 12 12 12 12 12 12 12 12 12 12 12 12 12 12 12 12 12 12 12 12 12 12 12 12 12 12 12 12 12 12 12 12 12 12 12 12 12 12 12 12 12 12 12 12 12 12 12 12 12 12 12 12 12 12 12 12 12 12 12 12 12 12 12 12 12 12 12 12 12 12 12 12 12 12 12 12 12 12 12 12 12 12 12 12 12 12 12 12 12 12 12 12 12 12 12 12 12 12 12 12 12 12 12 12 12 12 12 12 12 12 12 12 12 12 12 12 12 12 12 12 12 12 12 12 12 12 12 12 12 12 12 12 12 12 12 12 12 12 12 12 12 12 12 12 12 12 12 12 12 12 12 12 12 12 12 12 12 12 12 12 12 12 12 12 12 12 12 12 12 12 12 12 12 12 12 12 12 12 12 12 12 12 12 12 12 12 12 12 12 12 12 12 12 12 12 12 12 12 12 12 12 12 12 12 12 12 12 12 12 12 12 12 12 12 12 12 12 12 12 12 12 12 12 12 12 12 12 12 12 12 12 12 12 12 12 12 12 12 12 12 12 12 12 12 12 12 12 12 12 12 12 12 12 12 12 12 12 12 12 12 12 12 12 12 12 12 12 12 12 12 12 12 12 12 12 12 12 12 12 12 12 12 12 12 12 12 12 12 12 12 12 12 12 12 12 12 12 12 12 12 12 12 12 12 12 12 12 12 12 12 12 12 12 12 12 12 12 12 12 12 12 12 12 12 12 12 12 12 12 12 12 12 12 12 12 12 12 12 12 12 12 12 12 12 12 12 12 12 12 12 12 12 12 12 12 12 12 12 12 12 12 12 12 12 12 12 12 12 12 12 12 12 12 12 12 12 12 12 12 12 12 12 12 12 12 12 12 12 12 12 12 12 12 12 12 12 12 12 12 12 12 12 12 12 12 12 12 12 12 12 12 12 12 12 12 12 12 12 12 12 12 12 12 12 12 12 12 12 12 12 12 12 12 12 12 12</DataArray></Cells></Piece></UnstructuredGrid></VTKFile>