<?xml version='1.0' encoding='utf-8'?>
<VTKFile type="UnstructuredGrid" version="0.1" byte_order="LittleEndian"><UnstructuredGrid><Piece NumberOfPoints="241" NumberOfCells="152"><Points><DataArray type="Float64" NumberOfComponents="3" format="ascii">0 0 0 0.5 0 0 0.5 0.5 0 0 0.5 0 0.11367083582777263 -0.025897923626751584 0.52436919139028682 0.19347837737809895 0.044673359462624115 0.62205962396507486 0.54789619076996132 0.52853482055998446 0.30525537818306975 0.039623142708870115 0.25215614347604098 0.27293478994235831 1 0 0 1 0.5 0 0.29966081316413146 -0.2355734585771122 0.62420229066723754 1.1136708358277727 -0.025897923626751584 0.52436919139028682 1.03962314270887 0.25215614347604098 0.27293478994235831 0.90338293309369189 0.26815587887761705 0.25803943169352833 0.90239444837925298 0.28181595044959806 0.34631228597898095 0.2253311456090224 -0.25178946477209352 0.68355742104917061 0 1 0 0.5 1 0 0.19347837737809895 1.0446733594626241 0.62205962396507486 0.11367083582777263 0.97410207637324842 0.52436919139028682 0.067812344322721874 0.17148521617374846 0.44909240287195917 0.29966081316413146 0.7644265414228878 0.62420229066723754 0.2253311456090224 0.74821053522790648 0.68355742104917061 0.093857797493702697 0.095488736243893466 0.56122103184367023 1.0938577974937027 0.095488736243893466 0.56122103184367023 1.0678123443227219 0.17148521617374846 0.44909240287195917 0.75 0 1 0.5 -0.25 1 0.25 0 1 0.5 0.25 1 0.92637993874142222 0.11387722106461459 0.90696188306864101 0.93216816822566972 -0.30203876634314641 0.84958536884885416 1.1770211831032262 0.12426293689179803 0.73205089123223299 0.9369923743992149 0.4523243157941691 0.80983113409510354 0 0.25 1 0.25 0.5 1 0.31677376928729994 0.26645700668231814 0.8707927397519204 0.80972254478211836 0.57074111686058659 0.82545798109362467 0 -0.25 1 -0.25 0 1 0.68049507033728196 -0.37823827909390662 0.82659387607675261 -0.073620061258577785 0.11387722106461459 0.90696188306864101 1 0.25 1 0.75 0.5 1 1.3167737692873001 0.26645700668231814 0.8707927397519204 0.9436378197261398 0.58034974509321358 0.86034649966978449 0.5 0.75 1 0.93216816822566972 0.69796123365685359 0.84958536884885416 0 0.75 1 0.25 1 1 0.68049507033728196 0.62176172090609338 0.82659387607675261 1.1770211831032262 1.124262936891798 0.73205089123223299 -0.25 0.5 1 -0.056362180273860196 0.58034974509321358 0.86034649966978449 1 0.75 1 0.75 1 1 1.6804950703372818 0.62176172090609338 0.82659387607675261 0.92637993874142222 1.1138772210646146 0.90696188306864101 -0.073620061258577785 1.1138772210646146 0.90696188306864101 -0.067831831774330276 0.69796123365685359 0.84958536884885416 0.17702118310322623 1.124262936891798 0.73205089123223299 -0.0630076256007851 1.452324315794169 0.80983113409510354 0.27901313092191415 0.69411449299841355 0.80015761252098194 0.46975188828509412 0.72078211498562361 0.79883466496324851 1.0730224606169523 -0.069387909031159878 0.68860661204421791 0.46975188828509412 -0.27921788501437639 0.79883466496324851 -0.0630076256007851 0.4523243157941691 0.80983113409510354 0.9522019989897289 0.39681756688298231 0.74646834274465712 1.0786103013778376 0.17360973975939537 0.64898925978362787 1.0352394761622754 0.2874956007631157 0.67112850750043906 0.27901313092191415 -0.30588550700158645 0.80015761252098194 0.17702118310322623 0.12426293689179803 0.73205089123223299 0.073022460616952278 -0.069387909031159878 0.68860661204421791 -0.047798001010271096 0.39681756688298231 0.74646834274465712 0.078610301377837644 0.17360973975939537 0.64898925978362787 0.035239476162275407 0.2874956007631157 0.67112850750043906 0.96719739096158786 0.81748489215946307 0.69954602172148606 0.75609383690147558 0.65335192856686408 0.69788806419555793 1.0730224606169523 0.93061209096884012 0.68860661204421791 -0.032802609038412145 0.81748489215946307 0.69954602172148606 0.073022460616952278 0.93061209096884012 0.68860661204421791 1 1 0 1.1136708358277727 0.97410207637324842 0.52436919139028682 1.0938577974937027 1.0954887362438934 0.56122103184367023 1.0786103013778376 1.1736097397593954 0.64898925978362787 0.5 1.5 0 0 1.5 0 0.54789619076996132 1.5285348205599845 0.30525537818306975 0.039623142708870115 1.2521561434760411 0.27293478994235831 1 1.5 0 1.03962314270887 1.2521561434760411 0.27293478994235831 0.90338293309369189 1.268155878877617 0.25803943169352833 0.90239444837925298 1.2818159504495981 0.34631228597898095 0 2 0 0.5 2 0 0.19347837737809895 2.0446733594626241 0.62205962396507486 0.11367083582777263 1.9741020763732484 0.52436919139028682 0.067812344322721874 1.1714852161737483 0.44909240287195917 0.29966081316413146 1.7644265414228877 0.62420229066723754 0.2253311456090224 1.7482105352279065 0.68355742104917061 0.093857797493702697 1.0954887362438934 0.56122103184367023 1.0678123443227219 1.1714852161737483 0.44909240287195917 0.5 1.25 1 0.9369923743992149 1.452324315794169 0.80983113409510354 0 1.25 1 0.25 1.5 1 0.31677376928729994 1.2664570066823182 0.8707927397519204 0.80972254478211836 1.5707411168605865 0.82545798109362467 -0.25 1 1 1 1.25 1 0.75 1.5 1 1.3167737692873001 1.2664570066823182 0.8707927397519204 0.9436378197261398 1.5803497450932136 0.86034649966978449 0.5 1.75 1 0.93216816822566972 1.6979612336568537 0.84958536884885416 0 1.75 1 0.25 2 1 0.68049507033728196 1.6217617209060933 0.82659387607675261 1.1770211831032262 2.1242629368917982 0.73205089123223299 -0.25 1.5 1 -0.056362180273860196 1.5803497450932136 0.86034649966978449 1 1.75 1 0.75 2 1 1.6804950703372818 1.6217617209060933 0.82659387607675261 0.92637993874142222 2.1138772210646146 0.90696188306864101 -0.073620061258577785 2.1138772210646146 0.90696188306864101 -0.067831831774330276 1.6979612336568537 0.84958536884885416 0.17702118310322623 2.1242629368917982 0.73205089123223299 -0.0630076256007851 2.452324315794169 0.80983113409510354 0.27901313092191415 1.6941144929984135 0.80015761252098194 0.46975188828509412 1.7207821149856235 0.79883466496324851 0.9522019989897289 1.3968175668829823 0.74646834274465712 1.0352394761622754 1.2874956007631158 0.67112850750043906 -0.047798001010271096 1.3968175668829823 0.74646834274465712 0.078610301377837644 1.1736097397593954 0.64898925978362787 0.035239476162275407 1.2874956007631158 0.67112850750043906 0.96719739096158786 1.8174848921594631 0.69954602172148606 0.75609383690147558 1.6533519285668641 0.69788806419555793 1.0730224606169523 1.93061209096884 0.68860661204421791 -0.032802609038412145 1.8174848921594631 0.69954602172148606 0.073022460616952278 1.93061209096884 0.68860661204421791 1 2 0 1.1136708358277727 1.9741020763732484 0.52436919139028682 1.0938577974937027 2.0954887362438934 0.56122103184367023 1.0786103013778376 2.1736097397593954 0.64898925978362787 1.5 0 0 1.5 0.5 0 1.193478377378099 0.044673359462624115 0.62205962396507486 1.5478961907699613 0.52853482055998446 0.30525537818306975 2 0 0 2 0.5 0 1.2996608131641314 -0.2355734585771122 0.62420229066723754 2.1136708358277727 -0.025897923626751584 0.52436919139028682 2.0396231427088702 0.25215614347604098 0.27293478994235831 1.9033829330936918 0.26815587887761705 0.25803943169352833 1.902394448379253 0.28181595044959806 0.34631228597898095 1.2253311456090223 -0.25178946477209352 0.68355742104917061 1.5 1 0 1.193478377378099 1.0446733594626241 0.62205962396507486 1.2996608131641314 0.7644265414228878 0.62420229066723754 1.2253311456090223 0.74821053522790648 0.68355742104917061 2.0938577974937025 0.095488736243893466 0.56122103184367023 2.0678123443227219 0.17148521617374846 0.44909240287195917 1.75 0 1 1.5 -0.25 1 1.25 0 1 1.5 0.25 1 1.9263799387414222 0.11387722106461459 0.90696188306864101 1.9321681682256697 -0.30203876634314641 0.84958536884885416 2.1770211831032262 0.12426293689179803 0.73205089123223299 1.9369923743992148 0.4523243157941691 0.80983113409510354 1.25 0.5 1 1.8097225447821184 0.57074111686058659 0.82545798109362467 1 -0.25 1 1.6804950703372818 -0.37823827909390662 0.82659387607675261 2 0.25 1 1.75 0.5 1 2.3167737692873001 0.26645700668231814 0.8707927397519204 1.9436378197261397 0.58034974509321358 0.86034649966978449 1.5 0.75 1 1.9321681682256697 0.69796123365685359 0.84958536884885416 1.25 1 1 2.1770211831032262 1.124262936891798 0.73205089123223299 2 0.75 1 1.75 1 1 2.6804950703372818 0.62176172090609338 0.82659387607675261 1.9263799387414222 1.1138772210646146 0.90696188306864101 1.2790131309219142 0.69411449299841355 0.80015761252098194 1.4697518882850942 0.72078211498562361 0.79883466496324851 2.0730224606169525 -0.069387909031159878 0.68860661204421791 1.4697518882850942 -0.27921788501437639 0.79883466496324851 1.9522019989897288 0.39681756688298231 0.74646834274465712 2.0786103013778376 0.17360973975939537 0.64898925978362787 2.0352394761622756 0.2874956007631157 0.67112850750043906 1.2790131309219142 -0.30588550700158645 0.80015761252098194 1.9671973909615879 0.81748489215946307 0.69954602172148606 1.7560938369014756 0.65335192856686408 0.69788806419555793 2.0730224606169525 0.93061209096884012 0.68860661204421791 2 1 0 2.1136708358277727 0.97410207637324842 0.52436919139028682 2.0938577974937025 1.0954887362438934 0.56122103184367023 2.0786103013778376 1.1736097397593954 0.64898925978362787 1.5 1.5 0 1.5478961907699613 1.5285348205599845 0.30525537818306975 2 1.5 0 2.0396231427088702 1.2521561434760411 0.27293478994235831 1.9033829330936918 1.268155878877617 0.25803943169352833 1.902394448379253 1.2818159504495981 0.34631228597898095 1.5 2 0 1.193478377378099 2.0446733594626241 0.62205962396507486 1.2996608131641314 1.7644265414228877 0.62420229066723754 1.2253311456090223 1.7482105352279065 0.68355742104917061 2.0678123443227219 1.1714852161737483 0.44909240287195917 1.5 1.25 1 1.9369923743992148 1.452324315794169 0.80983113409510354 1.25 1.5 1 1.8097225447821184 1.5707411168605865 0.82545798109362467 2 1.25 1 1.75 1.5 1 2.3167737692873001 1.2664570066823182 0.8707927397519204 1.9436378197261397 1.5803497450932136 0.86034649966978449 1.5 1.75 1 1.9321681682256697 1.6979612336568537 0.84958536884885416 1.25 2 1 2.1770211831032262 2.1242629368917982 0.73205089123223299 2 1.75 1 1.75 2 1 2.6804950703372818 1.6217617209060933 0.82659387607675261 1.9263799387414222 2.1138772210646146 0.90696188306864101 0.9369923743992149 2.452324315794169 0.80983113409510354 1.2790131309219142 1.6941144929984135 0.80015761252098194 1.4697518882850942 1.7207821149856235 0.79883466496324851 1.9522019989897288 1.3968175668829823 0.74646834274465712 2.0352394761622756 1.2874956007631158 0.67112850750043906 1.9671973909615879 1.8174848921594631 0.69954602172148606 1.7560938369014756 1.6533519285668641 0.69788806419555793 2.0730224606169525 1.93061209096884 0.68860661204421791 2 2 0 2.1136708358277727 1.9741020763732484 0.52436919139028682 2.0938577974937025 2.0954887362438934 0.56122103184367023 2.0786103013778376 2.1736097397593954 0.64898925978362787</DataArray></Points><Cells><DataArray type="Int32" Name="connectivity" format="ascii">0 1 2 3 4 5 6 7 1 8 9 2 10 11 12 13 1 2 6 5 10 13 14 15 16 17 18 19 20 21 22 23 3 2 17 16 7 6 21 20 7 6 21 20 4 5 22 23 10 11 12 13 15 24 25 14 6 5 15 14 21 22 24 25 26 27 28 29 30 31 32 33 29 28 34 35 33 32 36 37 28 38 39 34 32 40 41 36 42 26 29 43 44 30 33 45 43 29 35 46 45 33 37 47 46 35 48 49 47 37 50 51 35 34 52 48 37 36 53 50 54 43 46 55 56 45 47 57 58 59 60 61 50 53 62 63 32 40 41 36 64 65 66 53 33 32 36 37 67 64 53 50 50 53 62 63 67 64 68 69 64 65 66 53 68 70 71 62 66 71 72 73 53 62 74 75 47 37 50 51 76 77 63 78 59 60 62 53 79 80 74 75 2 9 81 17 37 47 76 77 17 81 82 21 77 76 78 63 9 2 13 12 47 37 33 45 2 6 14 13 37 50 67 33 18 19 23 22 60 80 74 62 19 16 20 23 80 79 75 74 2 17 21 6 37 77 63 50 81 9 12 25 76 47 45 69 4 5 22 23 72 71 62 74 21 82 83 22 63 78 84 62 12 13 14 25 45 33 67 69 21 22 24 25 63 62 68 69 5 15 24 22 71 70 68 62 14 6 21 25 67 50 63 69 16 17 85 86 19 18 87 88 17 81 89 85 21 82 90 91 17 85 87 18 21 91 92 22 93 94 95 96 97 98 99 100 86 85 94 93 88 87 98 97 88 87 98 97 19 18 99 100 21 82 90 91 22 83 101 92 87 18 22 92 98 99 83 101 55 46 49 102 57 47 51 103 102 49 104 105 103 51 106 107 49 48 108 104 51 50 58 106 109 55 102 110 111 57 103 112 110 102 105 113 112 103 107 114 113 105 115 116 114 107 117 118 105 104 119 115 107 106 120 117 121 110 113 122 123 112 114 124 125 126 127 128 117 120 129 130 51 50 58 106 78 63 61 120 103 51 106 107 131 78 120 117 117 120 129 130 131 78 84 132 78 63 61 120 84 62 60 129 61 60 80 133 120 129 134 135 114 107 117 118 136 137 130 138 126 127 129 120 139 140 134 135 85 89 141 94 107 114 136 137 94 141 142 98 137 136 138 130 89 85 91 90 114 107 103 112 85 87 92 91 107 117 131 103 95 96 100 99 127 140 134 129 96 93 97 100 140 139 135 134 85 94 98 87 107 137 130 117 141 89 90 101 136 114 112 132 19 18 99 100 80 60 129 134 98 142 143 99 130 138 144 129 90 91 92 101 112 103 131 132 98 99 83 101 130 129 84 132 18 22 83 99 60 62 84 129 92 87 98 101 131 117 130 132 8 145 146 9 11 147 148 12 145 149 150 146 151 152 153 154 145 146 148 147 151 154 155 156 81 157 158 82 25 159 160 24 9 146 157 81 12 148 159 25 12 148 159 25 11 147 160 24 151 152 153 154 156 161 162 155 148 147 156 155 159 160 161 162 163 164 165 166 167 168 169 170 166 165 42 171 170 169 44 172 165 173 26 42 169 174 30 44 175 163 166 176 177 167 170 178 176 166 171 179 178 170 172 180 179 171 54 181 180 172 56 182 171 42 43 54 172 44 45 56 183 176 179 184 185 178 180 186 57 47 51 103 56 45 187 188 169 174 30 44 189 190 33 45 170 169 44 172 191 189 45 56 56 45 187 188 191 189 192 193 189 190 33 45 192 194 32 187 33 32 64 67 45 187 68 69 180 172 56 182 195 196 188 197 47 51 187 45 76 78 68 69 146 150 198 157 172 180 195 196 157 198 199 159 196 195 197 188 150 146 154 153 180 172 170 178 146 148 155 154 172 56 191 170 158 82 24 160 51 78 68 187 82 81 25 24 78 76 69 68 146 157 159 148 172 196 188 56 198 150 153 162 195 180 178 193 11 147 160 24 64 32 187 68 159 199 200 160 188 197 201 187 153 154 155 162 178 170 191 193 159 160 161 162 188 187 192 193 147 156 161 160 32 194 192 187 155 148 159 162 191 56 188 193 81 157 202 89 82 158 203 90 157 198 204 202 159 199 205 206 157 202 203 158 159 206 207 160 141 208 209 142 101 210 211 83 89 202 208 141 90 203 210 101 90 203 210 101 82 158 211 83 159 199 205 206 160 200 212 207 203 158 160 207 210 211 200 212 184 179 181 213 186 180 182 214 213 181 109 215 214 182 111 216 181 54 55 109 182 56 57 111 217 184 213 218 219 186 214 220 218 213 215 221 220 214 216 222 221 215 121 223 222 216 123 224 215 109 110 121 216 111 112 123 225 218 221 226 227 220 222 228 124 114 118 229 123 112 230 231 182 56 57 111 197 188 103 112 214 182 111 216 232 197 112 123 123 112 230 231 232 197 201 233 197 188 103 112 201 187 51 230 103 51 78 131 112 230 84 132 222 216 123 224 234 235 231 236 114 118 230 112 136 138 84 132 202 204 237 208 216 222 234 235 208 237 238 210 235 234 236 231 204 202 206 205 222 216 214 220 202 203 207 206 216 123 232 214 209 142 83 211 118 138 84 230 142 141 101 83 138 136 132 84 202 208 210 203 216 235 231 123 237 204 205 212 234 222 220 233 82 158 211 83 78 51 230 84 210 238 239 211 231 236 240 230 205 206 207 212 220 214 232 233 210 211 200 212 231 230 201 233 158 160 200 211 51 187 201 230 207 203 210 212 232 123 231 233</DataArray><DataArray type="Int32" Name="offsets" format="ascii">8 16 24 32 40 48 56 64 72 80 88 96 104 112 120 128 136 144 152 160 168 176 184 192 200 208 216 224 232 240 248 256 264 272 280 288 296 304 312 320 328 336 344 352 360 368 376 384 392 400 408 416 424 432 440 448 456 464 472 480 488 496 504 512 520 528 536 544 552 560 568 576 584 592 600 608 616 624 632 640 648 656 664 672 680 688 696 704 712 720 728 736 744 752 760 768 776 784 792 800 808 816 824 832 840 848 856 864 872 880 888 896 904 912 920 928 936 944 952 960 968 976 984 992 1000 1008 1016 1024 1032 1040 1048 1056 1064 1072 1080 1088 1096 1104 1112 1120 1128 1136 1144 1152 1160 1168 1176 1184 1192 1200 1208 1216</DataArray><DataArray type="Int32" Name="types" format="ascii">12 12 12 12 12 12 12 12 12 12 12 12 12 12 12 12 12 12 12 12 12 12 12 12 12 12 12 12 12 12 12 12 12 12 12 12 12 12 12 12 12 12 12 12 12 12 12 12 12 12 12 12 12 12 12 12 12 12 12 12 12 12 12 12 12 12 12 12 12 12 12 12 12 12 12 12 12 12 12 12 12 12 12 12 12 12 12 12 12 12 12 12 12 12 12 12 12 12 12 12 12 12 12 12 12 12 12 12 12 12 12 12 12 12 12 12 12 12 12 12 12 12 12 12 12 12 12 12 12 12 12 12 12 12 12 12 12 12 12 12 12 12 12 12 12 12 12 12 12 12 12 12</DataArray></Cells></Piece></UnstructuredGrid></VTKFile>