<?xml version='1.0' encoding='utf-8'?>
<VTKFile type="UnstructuredGrid" version="0.1" byte_order="LittleEndian"><UnstructuredGrid><Piece NumberOfPoints="85" NumberOfCells="38"><Points><DataArray type="Float64" NumberOfComponents="3" format="ascii">0 0 0 0.5 0 0 0.5 0.5 0 0 0.5 0 0.11367083582777263 -0.025897923626751584 0.52436919139028682 0.19347837737809895 0.044673359462624115 0.62205962396507486 0.54789619076996132 0.52853482055998446 0.30525537818306975 0.039623142708870115 0.25215614347604098 0.27293478994235831 1 0 0 1 0.5 0 0.29966081316413146 -0.2355734585771122 0.62420229066723754 1.1136708358277727 -0.025897923626751584 0.52436919139028682 1.03962314270887 0.25215614347604098 0.27293478994235831 0.90338293309369189 0.26815587887761705 0.25803943169352833 0.90239444837925298 0.28181595044959806 0.34631228597898095 0.2253311456090224 -0.25178946477209352 0.68355742104917061 0 1 0 0.5 1 0 0.19347837737809895 1.0446733594626241 0.62205962396507486 0.11367083582777263 0.97410207637324842 0.52436919139028682 0.067812344322721874 0.17148521617374846 0.44909240287195917 0.29966081316413146 0.7644265414228878 0.62420229066723754 0.2253311456090224 0.74821053522790648 0.68355742104917061 0.093857797493702697 0.095488736243893466 0.56122103184367023 1.0938577974937027 0.095488736243893466 0.56122103184367023 1.0678123443227219 0.17148521617374846 0.44909240287195917 0.75 0 1 0.5 -0.25 1 0.25 0 1 0.5 0.25 1 0.92637993874142222 0.11387722106461459 0.90696188306864101 0.93216816822566972 -0.30203876634314641 0.84958536884885416 1.1770211831032262 0.12426293689179803 0.73205089123223299 0.9369923743992149 0.4523243157941691 0.80983113409510354 0 0.25 1 0.25 0.5 1 0.31677376928729994 0.26645700668231814 0.8707927397519204 0.80972254478211836 0.57074111686058659 0.82545798109362467 0 -0.25 1 -0.25 0 1 0.68049507033728196 -0.37823827909390662 0.82659387607675261 -0.073620061258577785 0.11387722106461459 0.90696188306864101 1 0.25 1 0.75 0.5 1 1.3167737692873001 0.26645700668231814 0.8707927397519204 0.9436378197261398 0.58034974509321358 0.86034649966978449 0.5 0.75 1 0.93216816822566972 0.69796123365685359 0.84958536884885416 0 0.75 1 0.25 1 1 0.68049507033728196 0.62176172090609338 0.82659387607675261 1.1770211831032262 1.124262936891798 0.73205089123223299 -0.25 0.5 1 -0.056362180273860196 0.58034974509321358 0.86034649966978449 1 0.75 1 0.75 1 1 1.6804950703372818 0.62176172090609338 0.82659387607675261 0.92637993874142222 1.1138772210646146 0.90696188306864101 -0.073620061258577785 1.1138772210646146 0.90696188306864101 -0.067831831774330276 0.69796123365685359 0.84958536884885416 0.17702118310322623 1.124262936891798 0.73205089123223299 -0.0630076256007851 1.452324315794169 0.80983113409510354 0.27901313092191415 0.69411449299841355 0.80015761252098194 0.46975188828509412 0.72078211498562361 0.79883466496324851 1.0730224606169523 -0.069387909031159878 0.68860661204421791 0.46975188828509412 -0.27921788501437639 0.79883466496324851 -0.0630076256007851 0.4523243157941691 0.80983113409510354 0.9522019989897289 0.39681756688298231 0.74646834274465712 1.0786103013778376 0.17360973975939537 0.64898925978362787 1.0352394761622754 0.2874956007631157 0.67112850750043906 0.27901313092191415 -0.30588550700158645 0.80015761252098194 0.17702118310322623 0.12426293689179803 0.73205089123223299 0.073022460616952278 -0.069387909031159878 0.68860661204421791 -0.047798001010271096 0.39681756688298231 0.74646834274465712 0.078610301377837644 0.17360973975939537 0.64898925978362787 0.035239476162275407 0.2874956007631157 0.67112850750043906 0.96719739096158786 0.81748489215946307 0.69954602172148606 0.75609383690147558 0.65335192856686408 0.69788806419555793 1.0730224606169523 0.93061209096884012 0.68860661204421791 -0.032802609038412145 0.81748489215946307 0.69954602172148606 0.073022460616952278 0.93061209096884012 0.68860661204421791 1 1 0 1.1136708358277727 0.97410207637324842 0.52436919139028682 1.0938577974937027 1.0954887362438934 0.56122103184367023 1.0786103013778376 1.1736097397593954 0.64898925978362787</DataArray></Points><Cells><DataArray type="Int32" Name="connectivity" format="ascii">0 1 2 3 4 5 6 7 1 8 9 2 10 11 12 13 1 2 6 5 10 13 14 15 16 17 18 19 20 21 22 23 3 2 17 16 7 6 21 20 7 6 21 20 4 5 22 23 10 11 12 13 15 24 25 14 6 5 15 14 21 22 24 25 26 27 28 29 30 31 32 33 29 28 34 35 33 32 36 37 28 38 39 34 32 40 41 36 42 26 29 43 44 30 33 45 43 29 35 46 45 33 37 47 46 35 48 49 47 37 50 51 35 34 52 48 37 36 53 50 54 43 46 55 56 45 47 57 58 59 60 61 50 53 62 63 32 40 41 36 64 65 66 53 33 32 36 37 67 64 53 50 50 53 62 63 67 64 68 69 64 65 66 53 68 70 71 62 66 71 72 73 53 62 74 75 47 37 50 51 76 77 63 78 59 60 62 53 79 80 74 75 2 9 81 17 37 47 76 77 17 81 82 21 77 76 78 63 9 2 13 12 47 37 33 45 2 6 14 13 37 50 67 33 18 19 23 22 60 80 74 62 19 16 20 23 80 79 75 74 2 17 21 6 37 77 63 50 81 9 12 25 76 47 45 69 4 5 22 23 72 71 62 74 21 82 83 22 63 78 84 62 12 13 14 25 45 33 67 69 21 22 24 25 63 62 68 69 5 15 24 22 71 70 68 62 14 6 21 25 67 50 63 69</DataArray><DataArray type="Int32" Name="offsets" format="ascii">8 16 24 32 40 48 56 64 72 80 88 96 104 112 120 128 136 144 152 160 168 176 184 192 200 208 216 224 232 240 248 256 264 272 280 288 296 304</DataArray><DataArray type="Int32" Name="types" format="ascii">12 12 12 12 12 12 12 12 12 12 12 12 12 12 12 12 12 12 12 12 12 12 12 12 12 12 12 12 12 12 12 12 12 12 12 12 12 12</DataArray></Cells></Piece></UnstructuredGrid></VTKFile>