<?xml version='1.0' encoding='utf-8'?>
<VTKFile type="UnstructuredGrid" version="0.1" byte_order="LittleEndian"><UnstructuredGrid><Piece NumberOfPoints="321" NumberOfCells="208"><Points><DataArray type="Float64" NumberOfComponents="3" format="ascii">0.52393508428791946 1.0094602717825303 0.20427160147227946 0.5 1 0 1 1 0 0.78695675242432939 1.075600753885019 0.27878523752528583 0.52880678835281425 0.61950400395965699 0.093424002035420534 0.5 0.5 0 1 0.5 0 0.96201695324086189 0.60060310187676724 0.10825021216979562 0.22217612389459823 1.1449547557632158 0.20884840143792946 0.2612003300628748 0.69221301917734357 0.14189184331344953 0.32232672615488317 1.040624826714899 0.30287330297977244 0.37109279423932517 0.68955679822208371 0.1857016712176649 -0.037983046759138106 0.60060310187676724 0.10825021216979562 0 0.5 0 -0.21304324757567061 1.075600753885019 0.27878523752528583 0 1 0 0.94704433946418776 0.55654424234081923 0.20192262610045342 0.67267653428813523 0.548421392956433 0.20069476412851095 0.68066573024367238 0.5437175151629916 0.31109995163379794 0.85300753233724114 0.5571540463605188 0.33920642850023736 0.45257185900070412 0.39891951035472389 0.40739589537896675 0.55415454542092868 0.33050669636966695 0.45451768096882827 0.2883411954841944 0.50697698555833659 0.42130520023241813 0.21126093462327944 0.62279067264383559 0.57154011241324687 0.40586863813730656 1.0646022498612409 0.4723721176274045 0.087612366349183526 0.7933501052249361 0.55790407460367764 0.15302876755543171 0.74035282248838408 0.46592180572306352 0.28771703139848964 0.63387764486224596 0.27958462299764442 0.35788056306673915 0.52668757713885628 0.27193151495716944 0.46184423506201644 0.42908864585628059 0.30158249265648368 0.62943564990408396 0.45354942513249763 0.077963918046235911 0.96938421020058607 0.4618985808116664 0.084114890674507309 0.43826911030290028 0.32200130103956759 0.20964228107603347 0.39510440174272871 0.4287986230797794 0.096420363491369065 0.22345291465021336 0.67379569734737532 0.21732845720404076 0.5 0 0 1 0 0 0.52393508428791946 0.0094602717825302829 0.20427160147227946 0.78695675242432939 0.075600753885018968 0.27878523752528583 -0.052955660535812243 0.55654424234081923 0.20192262610045342 -0.030615789799413928 0.4618985808116664 0.084114890674507309 0.32232672615488317 0.040624826714898976 0.30287330297977244 0.22217612389459823 0.14495475576321581 0.20884840143792946 -0.21304324757567061 0.075600753885018968 0.27878523752528583 0 0 0 -0.14699246766275886 0.5571540463605188 0.33920642850023736 0.092059250347286195 0.74359527251139279 0.3430008861160625 0.40586863813730656 0.064602249861240857 0.4723721176274045 0.51516563748488242 0.38644231225705583 0.53555259344981176 0.78631595214407146 0.67059244703882503 0.51238394248267816 0.89087142835181754 0.9521817976434408 0.47243474464444968 0.34723003558057092 0.51235345156246648 0.62980107135873087 -0.10912857164818246 0.9521817976434408 0.47243474464444968 -0.21368404785592854 0.67059244703882503 0.51238394248267816 0.0092917756643769722 0.83222202298456427 0.63685487229614035 0.26333389495181952 1.0993618007037429 0.54660725300994029 0.26333389495181952 0.099361800703742897 0.54660725300994029 -0.10912857164818246 -0.047818202356559203 0.47243474464444968 0.75 0 1 0.5 -0.25 1 0.25 0 1 0.5 0.25 1 0.91117434394361374 -0.12329516454026868 0.90464821391831973 0.72740103487135055 -0.26169628025163327 0.85732239717030145 0.40632660862537517 0.11632354272736301 0.85567674008419914 0.5038636111174738 0.31435421456262125 0.92410234383791301 0 0.25 1 0.25 0.5 1 0.096022014363663366 0.11576398580232579 0.85551149715498442 0.43420948080904781 0.41261458739750334 0.90787622655806932 0.25 1 1 0 0.75 1 -0.25 1 1 0 1.25 1 0.40632660862537517 1.116323542727363 0.85567674008419914 0.036110205591063621 0.74117822287060497 0.92104198677746507 -0.08882565605638626 0.87670483545973132 0.90464821391831973 0.096022014363663366 1.1157639858023258 0.85551149715498442 1 0.25 1 0.75 0.5 1 1.0960220143636634 0.11576398580232579 0.85551149715498442 0.72565476742946722 0.50104829521367433 0.8982430463288541 0.5 0.75 1 0.72740103487135055 0.73830371974836673 0.85732239717030145 -0.25 0.5 1 -0.27434523257053278 0.50104829521367433 0.8982430463288541 1 0.75 1 0.75 1 1 1.0361102055910636 0.74117822287060497 0.92104198677746507 0.91117434394361374 0.87670483545973132 0.90464821391831973 0.84214222708313935 -0.0031995377733829988 0.68968671105566881 0.66568811756554069 0.14859102524600115 0.69672644016678997 0.84214222708313935 0.996800462226617 0.68968671105566881 0.32307655298692867 0.52120880384467072 0.7735197106476781 0.17928159817621842 0.64968692548439333 0.77756163754617968 0.66568811756554069 1.1485910252460012 0.69672644016678997 -0.15785777291686065 -0.0031995377733829988 0.68968671105566881 -0.33431188243445931 0.14859102524600115 0.69672644016678997 1.2112609346232794 0.62279067264383559 0.57154011241324687 1.0876123663491835 0.7933501052249361 0.55790407460367764 1.1792815981762184 0.64968692548439333 0.77756163754617968 1.0092917756643769 0.83222202298456427 0.63685487229614035 1.2633338949518196 1.0993618007037429 0.54660725300994029 1.0960220143636634 1.1157639858023258 0.85551149715498442 0.52393508428791946 2.0094602717825305 0.20427160147227946 0.5 2 0 1 2 0 0.78695675242432939 2.075600753885019 0.27878523752528583 0.52880678835281425 1.6195040039596571 0.093424002035420534 0.5 1.5 0 1 1.5 0 0.96201695324086189 1.6006031018767672 0.10825021216979562 0.22217612389459823 2.1449547557632158 0.20884840143792946 0.2612003300628748 1.6922130191773435 0.14189184331344953 0.32232672615488317 2.040624826714899 0.30287330297977244 0.37109279423932517 1.6895567982220836 0.1857016712176649 -0.037983046759138106 1.6006031018767672 0.10825021216979562 0 1.5 0 -0.21304324757567061 2.075600753885019 0.27878523752528583 0 2 0 0.94704433946418776 1.5565442423408191 0.20192262610045342 0.67267653428813523 1.548421392956433 0.20069476412851095 0.68066573024367238 1.5437175151629916 0.31109995163379794 0.85300753233724114 1.5571540463605187 0.33920642850023736 0.45257185900070412 1.3989195103547238 0.40739589537896675 0.55415454542092868 1.330506696369667 0.45451768096882827 0.2883411954841944 1.5069769855583366 0.42130520023241813 0.21126093462327944 1.6227906726438355 0.57154011241324687 0.40586863813730656 2.0646022498612409 0.4723721176274045 0.087612366349183526 1.7933501052249361 0.55790407460367764 0.15302876755543171 1.7403528224883842 0.46592180572306352 0.28771703139848964 1.6338776448622458 0.27958462299764442 0.35788056306673915 1.5266875771388562 0.27193151495716944 0.46184423506201644 1.4290886458562806 0.30158249265648368 0.62943564990408396 1.4535494251324976 0.077963918046235911 0.96938421020058607 1.4618985808116665 0.084114890674507309 0.43826911030290028 1.3220013010395677 0.20964228107603347 0.39510440174272871 1.4287986230797793 0.096420363491369065 0.22345291465021336 1.6737956973473753 0.21732845720404076 -0.052955660535812243 1.5565442423408191 0.20192262610045342 -0.030615789799413928 1.4618985808116665 0.084114890674507309 -0.14699246766275886 1.5571540463605187 0.33920642850023736 0.092059250347286195 1.7435952725113928 0.3430008861160625 0.51516563748488242 1.3864423122570559 0.53555259344981176 0.78631595214407146 1.6705924470388251 0.51238394248267816 0.89087142835181754 1.9521817976434408 0.47243474464444968 0.34723003558057092 1.5123534515624666 0.62980107135873087 -0.10912857164818246 1.9521817976434408 0.47243474464444968 -0.21368404785592854 1.6705924470388251 0.51238394248267816 0.0092917756643769722 1.8322220229845643 0.63685487229614035 0.26333389495181952 2.0993618007037429 0.54660725300994029 0.5 1.25 1 0.5038636111174738 1.3143542145626212 0.92410234383791301 0.25 1.5 1 0.43420948080904781 1.4126145873975033 0.90787622655806932 0.25 2 1 0 1.75 1 -0.25 2 1 0 2.25 1 0.40632660862537517 2.116323542727363 0.85567674008419914 0.036110205591063621 1.741178222870605 0.92104198677746507 -0.08882565605638626 1.8767048354597313 0.90464821391831973 0.096022014363663366 2.1157639858023258 0.85551149715498442 1 1.25 1 0.75 1.5 1 0.72565476742946722 1.5010482952136743 0.8982430463288541 0.5 1.75 1 0.72740103487135055 1.7383037197483668 0.85732239717030145 -0.25 1.5 1 -0.27434523257053278 1.5010482952136743 0.8982430463288541 1 1.75 1 0.75 2 1 1.0361102055910636 1.741178222870605 0.92104198677746507 0.91117434394361374 1.8767048354597313 0.90464821391831973 0.84214222708313935 1.9968004622266169 0.68968671105566881 0.32307655298692867 1.5212088038446707 0.7735197106476781 0.17928159817621842 1.6496869254843933 0.77756163754617968 0.66568811756554069 2.148591025246001 0.69672644016678997 -0.15785777291686065 0.996800462226617 0.68968671105566881 -0.33431188243445931 1.1485910252460012 0.69672644016678997 1.2112609346232794 1.6227906726438355 0.57154011241324687 1.0876123663491835 1.7933501052249361 0.55790407460367764 1.1792815981762184 1.6496869254843933 0.77756163754617968 1.0092917756643769 1.8322220229845643 0.63685487229614035 1.2633338949518196 2.0993618007037429 0.54660725300994029 1.0960220143636634 2.1157639858023258 0.85551149715498442 1.5239350842879196 1.0094602717825303 0.20427160147227946 1.5 1 0 2 1 0 1.7869567524243295 1.075600753885019 0.27878523752528583 1.5288067883528142 0.61950400395965699 0.093424002035420534 1.5 0.5 0 2 0.5 0 1.962016953240862 0.60060310187676724 0.10825021216979562 1.2221761238945983 1.1449547557632158 0.20884840143792946 1.2612003300628749 0.69221301917734357 0.14189184331344953 1.3223267261548832 1.040624826714899 0.30287330297977244 1.3710927942393252 0.68955679822208371 0.1857016712176649 1.9470443394641879 0.55654424234081923 0.20192262610045342 1.6726765342881351 0.548421392956433 0.20069476412851095 1.6806657302436725 0.5437175151629916 0.31109995163379794 1.8530075323372412 0.5571540463605188 0.33920642850023736 1.4525718590007042 0.39891951035472389 0.40739589537896675 1.5541545454209287 0.33050669636966695 0.45451768096882827 1.2883411954841943 0.50697698555833659 0.42130520023241813 1.4058686381373064 1.0646022498612409 0.4723721176274045 1.1530287675554316 0.74035282248838408 0.46592180572306352 1.2877170313984896 0.63387764486224596 0.27958462299764442 1.3578805630667392 0.52668757713885628 0.27193151495716944 1.4618442350620164 0.42908864585628059 0.30158249265648368 1.6294356499040838 0.45354942513249763 0.077963918046235911 1.9693842102005861 0.4618985808116664 0.084114890674507309 1.4382691103029002 0.32200130103956759 0.20964228107603347 1.3951044017427288 0.4287986230797794 0.096420363491369065 1.2234529146502133 0.67379569734737532 0.21732845720404076 1.5 0 0 2 0 0 1.5239350842879196 0.0094602717825302829 0.20427160147227946 1.7869567524243295 0.075600753885018968 0.27878523752528583 1.3223267261548832 0.040624826714898976 0.30287330297977244 1.2221761238945983 0.14495475576321581 0.20884840143792946 1.0920592503472861 0.74359527251139279 0.3430008861160625 1.4058686381373064 0.064602249861240857 0.4723721176274045 1.5151656374848823 0.38644231225705583 0.53555259344981176 1.7863159521440715 0.67059244703882503 0.51238394248267816 1.8908714283518175 0.9521817976434408 0.47243474464444968 1.3472300355805709 0.51235345156246648 0.62980107135873087 1.2633338949518196 0.099361800703742897 0.54660725300994029 0.89087142835181754 -0.047818202356559203 0.47243474464444968 1.75 0 1 1.5 -0.25 1 1.25 0 1 1.5 0.25 1 1.9111743439436137 -0.12329516454026868 0.90464821391831973 1.7274010348713507 -0.26169628025163327 0.85732239717030145 1.4063266086253752 0.11632354272736301 0.85567674008419914 1.5038636111174739 0.31435421456262125 0.92410234383791301 1.25 0.5 1 1.4342094808090478 0.41261458739750334 0.90787622655806932 1.25 1 1 1.4063266086253752 1.116323542727363 0.85567674008419914 2 0.25 1 1.75 0.5 1 2.0960220143636632 0.11576398580232579 0.85551149715498442 1.7256547674294671 0.50104829521367433 0.8982430463288541 1.5 0.75 1 1.7274010348713507 0.73830371974836673 0.85732239717030145 2 0.75 1 1.75 1 1 2.0361102055910636 0.74117822287060497 0.92104198677746507 1.9111743439436137 0.87670483545973132 0.90464821391831973 1.8421422270831393 -0.0031995377733829988 0.68968671105566881 1.6656881175655407 0.14859102524600115 0.69672644016678997 1.8421422270831393 0.996800462226617 0.68968671105566881 1.3230765529869286 0.52120880384467072 0.7735197106476781 1.6656881175655407 1.1485910252460012 0.69672644016678997 2.2112609346232794 0.62279067264383559 0.57154011241324687 2.0876123663491835 0.7933501052249361 0.55790407460367764 2.1792815981762184 0.64968692548439333 0.77756163754617968 2.0092917756643769 0.83222202298456427 0.63685487229614035 2.2633338949518196 1.0993618007037429 0.54660725300994029 2.0960220143636632 1.1157639858023258 0.85551149715498442 1.5239350842879196 2.0094602717825305 0.20427160147227946 1.5 2 0 2 2 0 1.7869567524243295 2.075600753885019 0.27878523752528583 1.5288067883528142 1.6195040039596571 0.093424002035420534 1.5 1.5 0 2 1.5 0 1.962016953240862 1.6006031018767672 0.10825021216979562 1.2221761238945983 2.1449547557632158 0.20884840143792946 1.2612003300628749 1.6922130191773435 0.14189184331344953 1.3223267261548832 2.040624826714899 0.30287330297977244 1.3710927942393252 1.6895567982220836 0.1857016712176649 1.9470443394641879 1.5565442423408191 0.20192262610045342 1.6726765342881351 1.548421392956433 0.20069476412851095 1.6806657302436725 1.5437175151629916 0.31109995163379794 1.8530075323372412 1.5571540463605187 0.33920642850023736 1.4525718590007042 1.3989195103547238 0.40739589537896675 1.5541545454209287 1.330506696369667 0.45451768096882827 1.2883411954841943 1.5069769855583366 0.42130520023241813 1.4058686381373064 2.0646022498612409 0.4723721176274045 1.1530287675554316 1.7403528224883842 0.46592180572306352 1.2877170313984896 1.6338776448622458 0.27958462299764442 1.3578805630667392 1.5266875771388562 0.27193151495716944 1.4618442350620164 1.4290886458562806 0.30158249265648368 1.6294356499040838 1.4535494251324976 0.077963918046235911 1.9693842102005861 1.4618985808116665 0.084114890674507309 1.4382691103029002 1.3220013010395677 0.20964228107603347 1.3951044017427288 1.4287986230797793 0.096420363491369065 1.2234529146502133 1.6737956973473753 0.21732845720404076 1.0920592503472861 1.7435952725113928 0.3430008861160625 1.5151656374848823 1.3864423122570559 0.53555259344981176 1.7863159521440715 1.6705924470388251 0.51238394248267816 1.8908714283518175 1.9521817976434408 0.47243474464444968 1.3472300355805709 1.5123534515624666 0.62980107135873087 1.5 1.25 1 1.5038636111174739 1.3143542145626212 0.92410234383791301 1.25 1.5 1 1.4342094808090478 1.4126145873975033 0.90787622655806932 1.25 2 1 1 2.25 1 1.4063266086253752 2.116323542727363 0.85567674008419914 2 1.25 1 1.75 1.5 1 1.7256547674294671 1.5010482952136743 0.8982430463288541 1.5 1.75 1 1.7274010348713507 1.7383037197483668 0.85732239717030145 2 1.75 1 1.75 2 1 2.0361102055910636 1.741178222870605 0.92104198677746507 1.9111743439436137 1.8767048354597313 0.90464821391831973 1.8421422270831393 1.9968004622266169 0.68968671105566881 1.3230765529869286 1.5212088038446707 0.7735197106476781 1.6656881175655407 2.148591025246001 0.69672644016678997 2.2112609346232794 1.6227906726438355 0.57154011241324687 2.0876123663491835 1.7933501052249361 0.55790407460367764 2.1792815981762184 1.6496869254843933 0.77756163754617968 2.0092917756643769 1.8322220229845643 0.63685487229614035 2.2633338949518196 2.0993618007037429 0.54660725300994029 2.0960220143636632 2.1157639858023258 0.85551149715498442</DataArray></Points><Cells><DataArray type="Int32" Name="connectivity" format="ascii">0 1 2 3 4 5 6 7 8 9 5 1 10 11 4 0 12 9 5 13 14 8 1 15 16 17 18 19 7 4 0 3 19 18 20 21 3 0 22 23 24 10 0 3 25 26 22 23 26 27 11 10 22 28 4 0 22 28 4 0 20 29 17 18 7 4 5 6 16 17 30 31 29 32 33 28 17 30 5 4 28 33 34 27 4 5 9 11 6 5 35 36 31 30 37 38 39 34 33 40 12 9 5 13 41 32 30 37 42 33 5 35 13 40 43 44 5 33 42 35 45 46 42 43 39 34 33 40 21 20 41 47 23 22 42 43 25 26 22 23 45 46 42 43 22 28 33 42 26 27 34 46 20 29 32 41 22 28 33 42 16 17 30 31 19 18 37 38 20 29 17 18 41 32 30 37 19 18 37 38 21 20 41 47 45 46 8 14 25 26 10 24 46 34 9 8 26 27 11 10 39 34 9 12 45 46 8 14 21 19 3 23 48 49 50 51 14 45 25 24 52 53 54 55 47 21 23 43 56 48 51 57 58 59 60 61 62 63 64 65 61 60 66 67 65 64 68 69 70 71 72 73 74 75 76 77 78 58 61 79 80 62 65 81 79 61 67 82 81 65 69 83 82 67 71 70 83 69 75 74 67 66 84 71 69 68 85 75 86 79 82 87 88 81 83 89 62 63 64 65 80 90 91 81 83 69 75 74 92 93 94 95 69 68 85 75 93 96 97 94 3 24 25 23 95 74 75 94 98 99 19 38 100 88 81 91 38 19 21 47 91 81 65 64 48 49 50 51 69 83 92 93 21 19 49 48 65 81 83 69 3 23 51 50 95 94 93 92 50 49 101 102 92 83 89 103 19 99 101 49 81 88 89 83 25 24 55 54 75 74 77 76 56 48 51 57 68 69 93 96 47 21 48 56 64 65 69 68 23 43 57 51 94 97 96 93 104 105 106 107 108 109 110 111 112 113 109 105 114 115 108 104 116 113 109 117 118 112 105 119 120 121 122 123 111 108 104 107 123 122 124 125 107 104 126 127 128 114 104 107 129 130 126 127 130 131 115 114 126 132 108 104 126 132 108 104 124 133 121 122 111 108 109 110 120 121 134 135 133 136 137 132 121 134 109 108 132 137 138 131 108 109 113 115 110 109 1 2 135 134 0 3 139 138 137 140 116 113 109 117 10 136 134 0 8 137 109 1 117 140 14 15 109 137 8 1 141 142 8 14 139 138 137 140 125 124 10 24 127 126 8 14 129 130 126 127 141 142 8 14 126 132 137 8 130 131 138 142 124 133 136 10 126 132 137 8 120 121 134 135 123 122 0 3 124 133 121 122 10 136 134 0 123 122 0 3 125 124 10 24 141 142 112 118 129 130 114 128 142 138 113 112 130 131 115 114 139 138 113 116 141 142 112 118 125 123 107 127 143 144 145 146 118 141 129 128 147 148 149 150 24 125 127 14 55 143 146 52 87 82 70 151 89 83 74 152 151 70 73 153 152 74 77 154 155 156 157 158 159 160 161 162 163 87 151 164 103 89 152 165 164 151 153 166 165 152 154 167 166 153 156 155 167 154 160 159 153 73 168 156 154 77 169 160 170 164 166 171 172 165 167 173 89 83 74 152 103 92 95 165 167 154 160 159 174 175 176 177 154 77 169 160 175 178 179 176 107 128 129 127 177 159 160 176 180 181 123 3 182 172 165 95 3 123 125 24 95 165 152 74 143 144 145 146 154 167 174 175 125 123 144 143 152 165 167 154 107 127 146 145 177 176 175 174 145 144 183 184 174 167 173 185 123 181 183 144 165 172 173 167 129 128 150 149 160 159 162 161 55 143 146 52 77 154 175 178 24 125 143 55 74 152 154 77 127 14 52 146 176 179 178 175 186 187 188 189 190 191 192 193 194 195 191 187 196 197 190 186 7 195 191 6 3 194 187 2 198 199 200 201 193 190 186 189 201 200 202 203 189 186 204 98 205 196 186 189 99 206 204 98 206 207 197 196 204 208 190 186 204 208 190 186 202 209 199 200 193 190 191 192 198 199 210 211 209 212 213 208 199 210 191 190 208 213 214 207 190 191 195 197 192 191 215 216 211 210 217 218 16 214 213 31 7 195 191 6 219 212 210 217 220 213 191 215 6 31 38 36 191 213 220 215 19 221 220 38 16 214 213 31 203 202 219 222 98 204 220 38 99 206 204 98 19 221 220 38 204 208 213 220 206 207 214 221 202 209 212 219 204 208 213 220 198 199 210 211 201 200 217 218 202 209 199 200 219 212 210 217 201 200 217 218 203 202 219 222 19 221 194 3 99 206 196 205 221 214 195 194 206 207 197 196 16 214 195 7 19 221 194 3 203 201 189 98 223 224 225 226 3 19 99 205 50 49 101 102 222 203 98 38 227 223 226 228 229 230 231 232 233 234 235 236 232 231 78 237 236 235 80 238 239 86 87 163 240 88 89 103 241 229 232 242 243 233 236 244 242 232 237 245 244 236 238 246 245 237 86 239 246 238 88 240 237 78 79 86 238 80 81 88 247 242 245 248 249 244 246 250 233 234 235 236 243 251 252 244 246 238 88 240 253 254 100 255 238 80 81 88 254 90 91 100 189 205 99 98 255 240 88 100 256 257 201 218 258 249 244 252 218 201 203 222 252 244 236 235 223 224 225 226 238 246 253 254 203 201 224 223 236 244 246 238 189 98 226 225 255 100 254 253 225 224 259 260 253 246 250 261 201 257 259 224 244 249 250 246 99 205 102 101 88 240 103 89 227 223 226 228 80 238 254 90 222 203 223 227 235 236 238 80 98 38 228 226 100 91 90 254 262 263 264 265 266 267 268 269 270 271 267 263 272 273 266 262 111 271 267 110 107 270 263 106 274 275 276 277 269 266 262 265 277 276 278 279 265 262 280 180 281 272 262 265 181 282 280 180 282 283 273 272 280 284 266 262 280 284 266 262 278 285 275 276 269 266 267 268 274 275 286 287 285 288 289 284 275 286 267 266 284 289 290 283 266 267 271 273 268 267 187 188 287 286 186 189 120 290 289 135 111 271 267 110 196 288 286 186 194 289 267 187 110 135 3 2 267 289 194 187 123 291 194 3 120 290 289 135 279 278 196 205 180 280 194 3 181 282 280 180 123 291 194 3 280 284 289 194 282 283 290 291 278 285 288 196 280 284 289 194 274 275 286 287 277 276 186 189 278 285 275 276 196 288 286 186 277 276 186 189 279 278 196 205 123 291 270 107 181 282 272 281 291 290 271 270 282 283 273 272 120 290 271 111 123 291 270 107 279 277 265 180 292 293 294 295 107 123 181 281 145 144 183 184 205 279 180 3 102 292 295 50 248 245 239 296 250 246 240 297 296 239 163 298 297 240 103 299 300 170 171 301 302 172 173 185 303 248 296 304 261 250 297 305 304 296 298 306 305 297 299 307 306 298 170 300 307 299 172 302 298 163 164 170 299 103 165 172 308 304 306 309 310 305 307 311 250 246 240 297 261 253 255 305 307 299 172 302 312 313 182 314 299 103 165 172 313 92 95 182 265 281 181 180 314 302 172 182 315 316 277 189 317 310 305 255 189 277 279 205 255 305 297 240 292 293 294 295 299 307 312 313 279 277 293 292 297 305 307 299 265 180 295 294 314 182 313 312 294 293 318 319 312 307 311 320 277 316 318 293 305 310 311 307 181 281 184 183 172 302 185 173 102 292 295 50 103 299 313 92 205 279 292 102 240 297 299 103 180 3 50 295 182 95 92 313</DataArray><DataArray type="Int32" Name="offsets" format="ascii">8 16 24 32 40 48 56 64 72 80 88 96 104 112 120 128 136 144 152 160 168 176 184 192 200 208 216 224 232 240 248 256 264 272 280 288 296 304 312 320 328 336 344 352 360 368 376 384 392 400 408 416 424 432 440 448 456 464 472 480 488 496 504 512 520 528 536 544 552 560 568 576 584 592 600 608 616 624 632 640 648 656 664 672 680 688 696 704 712 720 728 736 744 752 760 768 776 784 792 800 808 816 824 832 840 848 856 864 872 880 888 896 904 912 920 928 936 944 952 960 968 976 984 992 1000 1008 1016 1024 1032 1040 1048 1056 1064 1072 1080 1088 1096 1104 1112 1120 1128 1136 1144 1152 1160 1168 1176 1184 1192 1200 1208 1216 1224 1232 1240 1248 1256 1264 1272 1280 1288 1296 1304 1312 1320 1328 1336 1344 1352 1360 1368 1376 1384 1392 1400 1408 1416 1424 1432 1440 1448 1456 1464 1472 1480 1488 1496 1504 1512 1520 1528 1536 1544 1552 1560 1568 1576 1584 1592 1600 1608 1616 1624 1632 1640 1648 1656 1664</DataArray><DataArray type="Int32" Name="types" format="ascii">12 12 12 12 12 12 12 12 12 12 12 12 12 12 12 12 12 12 12 12 12 12 12 12 12 12 12 12 12 12 12 12 12 12 12 12 12 12 12 12 12 12 12 12 12 12 12 12 12 12 12 12 12 12 12 12 12 12 12 12 12 12 12 12 12 12 12 12 12 12 12 12 12 12 12 12 12 12 12 12 12 12 12 12 12 12 12 12 12 12 12 12 12 12 12 12 12 12 12 12 12 12 12 12 12 12 12 12 12 12 12 12 12 12 12 12 12 12 12 12 12 12 12 12 12 12 12 12 12 12 12 12 12 12 12 12 12 12 12 12 12 12 12 12 12 12 12 12 12 12 12 12 12 12 12 12 12 12 12 12 12 12 12 12 12 12 12 12 12 12 12 12 12 12 12 12 12 12 12 12 12 12 12 12 12 12 12 12 12 12 12 12 12 12 12 12 12 12 12 12 12 12 12 12 12 12 12 12</DataArray></Cells></Piece></UnstructuredGrid></VTKFile>