<?xml version='1.0' encoding='utf-8'?>
<VTKFile type="UnstructuredGrid" version="0.1" byte_order="LittleEndian"><UnstructuredGrid><Piece NumberOfPoints="104" NumberOfCells="52"><Points><DataArray type="Float64" NumberOfComponents="3" format="ascii">0.52393508428791946 1.0094602717825303 0.20427160147227946 0.5 1 0 1 1 0 0.78695675242432939 1.075600753885019 0.27878523752528583 0.52880678835281425 0.61950400395965699 0.093424002035420534 0.5 0.5 0 1 0.5 0 0.96201695324086189 0.60060310187676724 0.10825021216979562 0.22217612389459823 1.1449547557632158 0.20884840143792946 0.2612003300628748 0.69221301917734357 0.14189184331344953 0.32232672615488317 1.040624826714899 0.30287330297977244 0.37109279423932517 0.68955679822208371 0.1857016712176649 -0.037983046759138106 0.60060310187676724 0.10825021216979562 0 0.5 0 -0.21304324757567061 1.075600753885019 0.27878523752528583 0 1 0 0.94704433946418776 0.55654424234081923 0.20192262610045342 0.67267653428813523 0.548421392956433 0.20069476412851095 0.68066573024367238 0.5437175151629916 0.31109995163379794 0.85300753233724114 0.5571540463605188 0.33920642850023736 0.45257185900070412 0.39891951035472389 0.40739589537896675 0.55415454542092868 0.33050669636966695 0.45451768096882827 0.2883411954841944 0.50697698555833659 0.42130520023241813 0.21126093462327944 0.62279067264383559 0.57154011241324687 0.40586863813730656 1.0646022498612409 0.4723721176274045 0.087612366349183526 0.7933501052249361 0.55790407460367764 0.15302876755543171 0.74035282248838408 0.46592180572306352 0.28771703139848964 0.63387764486224596 0.27958462299764442 0.35788056306673915 0.52668757713885628 0.27193151495716944 0.46184423506201644 0.42908864585628059 0.30158249265648368 0.62943564990408396 0.45354942513249763 0.077963918046235911 0.96938421020058607 0.4618985808116664 0.084114890674507309 0.43826911030290028 0.32200130103956759 0.20964228107603347 0.39510440174272871 0.4287986230797794 0.096420363491369065 0.22345291465021336 0.67379569734737532 0.21732845720404076 0.5 0 0 1 0 0 0.52393508428791946 0.0094602717825302829 0.20427160147227946 0.78695675242432939 0.075600753885018968 0.27878523752528583 -0.052955660535812243 0.55654424234081923 0.20192262610045342 -0.030615789799413928 0.4618985808116664 0.084114890674507309 0.32232672615488317 0.040624826714898976 0.30287330297977244 0.22217612389459823 0.14495475576321581 0.20884840143792946 -0.21304324757567061 0.075600753885018968 0.27878523752528583 0 0 0 -0.14699246766275886 0.5571540463605188 0.33920642850023736 0.092059250347286195 0.74359527251139279 0.3430008861160625 0.40586863813730656 0.064602249861240857 0.4723721176274045 0.51516563748488242 0.38644231225705583 0.53555259344981176 0.78631595214407146 0.67059244703882503 0.51238394248267816 0.89087142835181754 0.9521817976434408 0.47243474464444968 0.34723003558057092 0.51235345156246648 0.62980107135873087 -0.10912857164818246 0.9521817976434408 0.47243474464444968 -0.21368404785592854 0.67059244703882503 0.51238394248267816 0.0092917756643769722 0.83222202298456427 0.63685487229614035 0.26333389495181952 1.0993618007037429 0.54660725300994029 0.26333389495181952 0.099361800703742897 0.54660725300994029 -0.10912857164818246 -0.047818202356559203 0.47243474464444968 0.75 0 1 0.5 -0.25 1 0.25 0 1 0.5 0.25 1 0.91117434394361374 -0.12329516454026868 0.90464821391831973 0.72740103487135055 -0.26169628025163327 0.85732239717030145 0.40632660862537517 0.11632354272736301 0.85567674008419914 0.5038636111174738 0.31435421456262125 0.92410234383791301 0 0.25 1 0.25 0.5 1 0.096022014363663366 0.11576398580232579 0.85551149715498442 0.43420948080904781 0.41261458739750334 0.90787622655806932 0.25 1 1 0 0.75 1 -0.25 1 1 0 1.25 1 0.40632660862537517 1.116323542727363 0.85567674008419914 0.036110205591063621 0.74117822287060497 0.92104198677746507 -0.08882565605638626 0.87670483545973132 0.90464821391831973 0.096022014363663366 1.1157639858023258 0.85551149715498442 1 0.25 1 0.75 0.5 1 1.0960220143636634 0.11576398580232579 0.85551149715498442 0.72565476742946722 0.50104829521367433 0.8982430463288541 0.5 0.75 1 0.72740103487135055 0.73830371974836673 0.85732239717030145 -0.25 0.5 1 -0.27434523257053278 0.50104829521367433 0.8982430463288541 1 0.75 1 0.75 1 1 1.0361102055910636 0.74117822287060497 0.92104198677746507 0.91117434394361374 0.87670483545973132 0.90464821391831973 0.84214222708313935 -0.0031995377733829988 0.68968671105566881 0.66568811756554069 0.14859102524600115 0.69672644016678997 0.84214222708313935 0.996800462226617 0.68968671105566881 0.32307655298692867 0.52120880384467072 0.7735197106476781 0.17928159817621842 0.64968692548439333 0.77756163754617968 0.66568811756554069 1.1485910252460012 0.69672644016678997 -0.15785777291686065 -0.0031995377733829988 0.68968671105566881 -0.33431188243445931 0.14859102524600115 0.69672644016678997 1.2112609346232794 0.62279067264383559 0.57154011241324687 1.0876123663491835 0.7933501052249361 0.55790407460367764 1.1792815981762184 0.64968692548439333 0.77756163754617968 1.0092917756643769 0.83222202298456427 0.63685487229614035 1.2633338949518196 1.0993618007037429 0.54660725300994029 1.0960220143636634 1.1157639858023258 0.85551149715498442</DataArray></Points><Cells><DataArray type="Int32" Name="connectivity" format="ascii">0 1 2 3 4 5 6 7 8 9 5 1 10 11 4 0 12 9 5 13 14 8 1 15 16 17 18 19 7 4 0 3 19 18 20 21 3 0 22 23 24 10 0 3 25 26 22 23 26 27 11 10 22 28 4 0 22 28 4 0 20 29 17 18 7 4 5 6 16 17 30 31 29 32 33 28 17 30 5 4 28 33 34 27 4 5 9 11 6 5 35 36 31 30 37 38 39 34 33 40 12 9 5 13 41 32 30 37 42 33 5 35 13 40 43 44 5 33 42 35 45 46 42 43 39 34 33 40 21 20 41 47 23 22 42 43 25 26 22 23 45 46 42 43 22 28 33 42 26 27 34 46 20 29 32 41 22 28 33 42 16 17 30 31 19 18 37 38 20 29 17 18 41 32 30 37 19 18 37 38 21 20 41 47 45 46 8 14 25 26 10 24 46 34 9 8 26 27 11 10 39 34 9 12 45 46 8 14 21 19 3 23 48 49 50 51 14 45 25 24 52 53 54 55 47 21 23 43 56 48 51 57 58 59 60 61 62 63 64 65 61 60 66 67 65 64 68 69 70 71 72 73 74 75 76 77 78 58 61 79 80 62 65 81 79 61 67 82 81 65 69 83 82 67 71 70 83 69 75 74 67 66 84 71 69 68 85 75 86 79 82 87 88 81 83 89 62 63 64 65 80 90 91 81 83 69 75 74 92 93 94 95 69 68 85 75 93 96 97 94 3 24 25 23 95 74 75 94 98 99 19 38 100 88 81 91 38 19 21 47 91 81 65 64 48 49 50 51 69 83 92 93 21 19 49 48 65 81 83 69 3 23 51 50 95 94 93 92 50 49 101 102 92 83 89 103 19 99 101 49 81 88 89 83 25 24 55 54 75 74 77 76 56 48 51 57 68 69 93 96 47 21 48 56 64 65 69 68 23 43 57 51 94 97 96 93</DataArray><DataArray type="Int32" Name="offsets" format="ascii">8 16 24 32 40 48 56 64 72 80 88 96 104 112 120 128 136 144 152 160 168 176 184 192 200 208 216 224 232 240 248 256 264 272 280 288 296 304 312 320 328 336 344 352 360 368 376 384 392 400 408 416</DataArray><DataArray type="Int32" Name="types" format="ascii">12 12 12 12 12 12 12 12 12 12 12 12 12 12 12 12 12 12 12 12 12 12 12 12 12 12 12 12 12 12 12 12 12 12 12 12 12 12 12 12 12 12 12 12 12 12 12 12 12 12 12 12</DataArray></Cells></Piece></UnstructuredGrid></VTKFile>