<?xml version='1.0' encoding='utf-8'?>
<VTKFile type="UnstructuredGrid" version="0.1" byte_order="LittleEndian"><UnstructuredGrid><Piece NumberOfPoints="331" NumberOfCells="224"><Points><DataArray type="Float64" NumberOfComponents="3" format="ascii">0.78524115040476017 -0.25066676059889714 0.16240709800373862 1.277388447767227 -0.4411678749289154 0.17553638025429619 1.3713900487129829 0.46381380652806414 0.054365874243278607 0.69373019763023469 0.510629257068556 0.078380819682902947 0.85204242880374614 -0.14647576213910518 0.33477390887283048 0.95605869427902079 -0.1484756611061776 0.45585368293992445 1.3772146014056106 0.50149725938533951 0.26522741909397168 0.66152687484103512 0.32817644280233799 0.19841072148762673 0.27738844776722704 -0.4411678749289154 0.17553638025429619 0.37139004871298287 0.46381380652806414 0.054365874243278607 0.21763489315870424 -0.3911516268653692 0.37563186410429567 0.52146499986853523 0.39470900416067606 0.1772400156361276 0.37721460140561058 0.50149725938533951 0.26522741909397168 -0.043941305720979207 -0.1484756611061776 0.45585368293992445 0.52754917194080475 0.40268111766994924 0.26989203789596627 0.067194083415764841 -0.38037325558439627 0.48335778990379097 0.78524115040476017 0.74933323940110286 0.16240709800373862 1.277388447767227 0.5588321250710846 0.17553638025429619 0.95605869427902079 0.8515243388938224 0.45585368293992445 0.85204242880374614 0.85352423786089482 0.33477390887283048 0.68139388681374147 0.29896639645789586 0.37970430088040058 1.2176348931587042 0.6088483731346308 0.37563186410429567 1.0671940834157649 0.61962674441560373 0.48335778990379097 0.71582180312367005 0.19010882039442775 0.50273880844195584 -0.30626980236976531 0.510629257068556 0.078380819682902947 0.27738844776722704 0.5588321250710846 0.17553638025429619 -0.21475884959523983 0.74933323940110286 0.16240709800373862 -0.33847312515896488 0.32817644280233799 0.19841072148762673 0.21763489315870424 0.6088483731346308 0.37563186410429567 -0.31860611318625853 0.29896639645789586 0.37970430088040058 0.067194083415764841 0.61962674441560373 0.48335778990379097 0.75 0 1 0.5 -0.25 1 0.25 0 1 0.5 0.25 1 0.77887230645590777 0.089602135139192018 0.97006065797340002 0.56637036438193189 -0.24149767994117122 0.86654773929377793 0.54564782853492011 0.018448954494322999 0.82321095406322164 0.58922873755041438 0.44139569638397264 0.90813551666520798 0 0.25 1 0.25 0.5 1 0.047488331535570555 0.31038504534784062 0.96471544332798609 0.3990423074686098 0.60570387425398386 0.91702242047298943 0 -0.25 1 -0.25 0 1 0.27933893044229641 -0.37189119267281123 0.87860888182558816 -0.22112769354409223 0.089602135139192018 0.97006065797340002 1 0.25 1 0.75 0.5 1 1.0474883315355705 0.31038504534784062 0.96471544332798609 0.79610401737344116 0.6000779908355296 0.86612271072197544 0.5 0.75 1 0.56637036438193189 0.75850232005882878 0.86654773929377793 0 0.75 1 0.25 1 1 0.27933893044229641 0.62810880732718877 0.87860888182558816 0.54564782853492011 1.0184489544943229 0.82321095406322164 -0.25 0.5 1 -0.20389598262655884 0.6000779908355296 0.86612271072197544 1 0.75 1 0.75 1 1 1.2793389304422964 0.62810880732718877 0.87860888182558816 0.77887230645590777 1.089602135139192 0.97006065797340002 0.58922873755041438 1.4413956963839727 0.90813551666520798 0.98850600818885859 0.59824220280321272 0.76354374409650816 1.2223798891096318 0.66703312980445206 0.79301378465506822 0.52462887340630471 0.078629413191749931 0.77429859432820791 0.2223798891096318 -0.33296687019554794 0.79301378465506822 -0.41077126244958562 0.44139569638397264 0.90813551666520798 0.56532474099932895 0.39876554472776382 0.85431951176238086 -0.011493991811141413 0.59824220280321272 0.76354374409650816 0.2223798891096318 0.66703312980445206 0.79301378465506822 0.56368845176958493 0.28378843161126394 0.72704134308752189 0.58001958098030315 0.36816379633719459 0.75371913083886155 -0.011493991811141413 -0.40175779719678728 0.76354374409650816 -0.45435217146507989 0.018448954494322999 0.82321095406322164 0.57958709914569839 0.79579558190703614 0.74657961329612421 0.48651696078528417 0.7186685133909656 0.77923133475502093 0.52462887340630471 1.07862941319175 0.77429859432820791 0.57430832832115142 0.65207226798864382 0.55012495547402196 0.69370346119412218 0.70687197949965008 0.55785958306753469 0.74172145975936499 0.75011658353290078 0.4914503725677799 0.45539059571745999 0.65806455139150111 0.51827300965325351 0.82131705022955259 0.83611373592641502 0.46081173806856646 0.31625088146808666 0.65311646000957824 0.56856409768775895 0.58565368248783234 0.58696310388045214 0.58538523229710215 0.65177122918568986 0.53689164651065879 0.62168725200868269 0.46359016591816427 0.61164496344662733 0.57578832370176691 0.53197761257863507 0.56853336066334026 0.57912819054166509 0.95240401849079126 0.81209577798851407 0.57155180679213524 0.69999764401937603 0.29269359728559646 0.59984664915264696 1.0507665507499051 0.63494755586224383 0.64546146283235617 0.66370348669415469 0.42928331197217595 0.58746236600355628 0.82131705022955259 -0.16388626407358498 0.46081173806856646 0.95240401849079126 -0.18790422201148593 0.57155180679213524 0.71582180312367005 1.1901088203944277 0.50273880844195584 0.69999764401937603 1.2926935972855964 0.59984664915264696 0.050766550749905104 0.63494755586224383 0.64546146283235617 0.56368845176958493 1.283788431611264 0.72704134308752189 -0.04759598150920874 -0.18790422201148593 0.57155180679213524 0.050766550749905104 -0.36505244413775617 0.64546146283235617 0.5 0 0 0.5 0.5 0 0 0.5 0 0 0 0 -0.21475884959523983 -0.25066676059889714 0.16240709800373862 1 0 0 1 0.5 0 0.5 1 0 0 1 0 1 1 0 1.3713900487129829 1.4638138065280641 0.054365874243278607 0.69373019763023469 1.510629257068556 0.078380819682902947 1.3772146014056106 1.5014972593853395 0.26522741909397168 0.66152687484103512 1.3281764428023379 0.19841072148762673 0.37139004871298287 1.4638138065280641 0.054365874243278607 0.52146499986853523 1.394709004160676 0.1772400156361276 0.37721460140561058 1.5014972593853395 0.26522741909397168 -0.043941305720979207 0.8515243388938224 0.45585368293992445 0.52754917194080475 1.4026811176699492 0.26989203789596627 0.78524115040476017 1.749333239401103 0.16240709800373862 1.277388447767227 1.5588321250710846 0.17553638025429619 0.95605869427902079 1.8515243388938223 0.45585368293992445 0.85204242880374614 1.8535242378608947 0.33477390887283048 0.68139388681374147 1.2989663964578959 0.37970430088040058 1.2176348931587042 1.6088483731346308 0.37563186410429567 1.0671940834157649 1.6196267444156036 0.48335778990379097 -0.30626980236976531 1.510629257068556 0.078380819682902947 0.27738844776722704 1.5588321250710846 0.17553638025429619 -0.21475884959523983 1.749333239401103 0.16240709800373862 -0.33847312515896488 1.3281764428023379 0.19841072148762673 0.21763489315870424 1.6088483731346308 0.37563186410429567 -0.31860611318625853 1.2989663964578959 0.37970430088040058 0.067194083415764841 1.6196267444156036 0.48335778990379097 0.5 1.25 1 0 1.25 1 0.25 1.5 1 0.047488331535570555 1.3103850453478407 0.96471544332798609 0.3990423074686098 1.605703874253984 0.91702242047298943 -0.25 1 1 -0.22112769354409223 1.089602135139192 0.97006065797340002 1 1.25 1 0.75 1.5 1 1.0474883315355705 1.3103850453478407 0.96471544332798609 0.79610401737344116 1.6000779908355296 0.86612271072197544 0.5 1.75 1 0.56637036438193189 1.7585023200588288 0.86654773929377793 0 1.75 1 0.25 2 1 0.27933893044229641 1.6281088073271888 0.87860888182558816 0.54564782853492011 2.0184489544943229 0.82321095406322164 -0.25 1.5 1 -0.20389598262655884 1.6000779908355296 0.86612271072197544 1 1.75 1 0.75 2 1 1.2793389304422964 1.6281088073271888 0.87860888182558816 0.77887230645590777 2.089602135139192 0.97006065797340002 0.58922873755041438 2.4413956963839727 0.90813551666520798 0.98850600818885859 1.5982422028032128 0.76354374409650816 1.2223798891096318 1.6670331298044521 0.79301378465506822 -0.41077126244958562 1.4413956963839727 0.90813551666520798 0.56532474099932895 1.3987655447277638 0.85431951176238086 -0.011493991811141413 1.5982422028032128 0.76354374409650816 0.2223798891096318 1.6670331298044521 0.79301378465506822 0.58001958098030315 1.3681637963371946 0.75371913083886155 -0.45435217146507989 1.0184489544943229 0.82321095406322164 0.57958709914569839 1.7957955819070361 0.74657961329612421 0.48651696078528417 1.7186685133909656 0.77923133475502093 0.52462887340630471 2.07862941319175 0.77429859432820791 0.57430832832115142 1.6520722679886437 0.55012495547402196 0.69370346119412218 1.7068719794996501 0.55785958306753469 0.74172145975936499 1.7501165835329009 0.4914503725677799 0.45539059571745999 1.6580645513915011 0.51827300965325351 0.82131705022955259 1.836113735926415 0.46081173806856646 0.31625088146808666 1.6531164600095782 0.56856409768775895 0.58565368248783234 1.5869631038804521 0.58538523229710215 0.65177122918568986 1.5368916465106588 0.62168725200868269 0.46359016591816427 1.6116449634466274 0.57578832370176691 0.53197761257863507 1.5685333606633403 0.57912819054166509 0.95240401849079126 1.8120957779885141 0.57155180679213524 1.0507665507499051 1.6349475558622437 0.64546146283235617 0.66370348669415469 1.429283311972176 0.58746236600355628 0.71582180312367005 2.1901088203944279 0.50273880844195584 0.69999764401937603 2.2926935972855964 0.59984664915264696 0.050766550749905104 1.6349475558622437 0.64546146283235617 0.56368845176958493 2.283788431611264 0.72704134308752189 -0.04759598150920874 0.81209577798851407 0.57155180679213524 0.5 1.5 0 0 1.5 0 1 1.5 0 0.5 2 0 0 2 0 1 2 0 1.7852411504047603 -0.25066676059889714 0.16240709800373862 2.277388447767227 -0.4411678749289154 0.17553638025429619 2.3713900487129829 0.46381380652806414 0.054365874243278607 1.6937301976302348 0.510629257068556 0.078380819682902947 1.8520424288037463 -0.14647576213910518 0.33477390887283048 1.9560586942790208 -0.1484756611061776 0.45585368293992445 2.3772146014056106 0.50149725938533951 0.26522741909397168 1.661526874841035 0.32817644280233799 0.19841072148762673 1.2176348931587042 -0.3911516268653692 0.37563186410429567 1.5214649998685352 0.39470900416067606 0.1772400156361276 1.5275491719408048 0.40268111766994924 0.26989203789596627 1.0671940834157649 -0.38037325558439627 0.48335778990379097 1.7852411504047603 0.74933323940110286 0.16240709800373862 2.277388447767227 0.5588321250710846 0.17553638025429619 1.9560586942790208 0.8515243388938224 0.45585368293992445 1.8520424288037463 0.85352423786089482 0.33477390887283048 1.6813938868137415 0.29896639645789586 0.37970430088040058 2.2176348931587042 0.6088483731346308 0.37563186410429567 2.0671940834157647 0.61962674441560373 0.48335778990379097 1.7158218031236701 0.19010882039442775 0.50273880844195584 1.75 0 1 1.5 -0.25 1 1.25 0 1 1.5 0.25 1 1.7788723064559078 0.089602135139192018 0.97006065797340002 1.5663703643819318 -0.24149767994117122 0.86654773929377793 1.54564782853492 0.018448954494322999 0.82321095406322164 1.5892287375504144 0.44139569638397264 0.90813551666520798 1.25 0.5 1 1.3990423074686098 0.60570387425398386 0.91702242047298943 1 -0.25 1 1.2793389304422964 -0.37189119267281123 0.87860888182558816 2 0.25 1 1.75 0.5 1 2.0474883315355705 0.31038504534784062 0.96471544332798609 1.7961040173734411 0.6000779908355296 0.86612271072197544 1.5 0.75 1 1.5663703643819318 0.75850232005882878 0.86654773929377793 1.25 1 1 1.54564782853492 1.0184489544943229 0.82321095406322164 2 0.75 1 1.75 1 1 2.2793389304422966 0.62810880732718877 0.87860888182558816 1.7788723064559078 1.089602135139192 0.97006065797340002 1.5892287375504144 1.4413956963839727 0.90813551666520798 1.9885060081888586 0.59824220280321272 0.76354374409650816 2.2223798891096318 0.66703312980445206 0.79301378465506822 1.5246288734063047 0.078629413191749931 0.77429859432820791 1.2223798891096318 -0.33296687019554794 0.79301378465506822 1.5653247409993289 0.39876554472776382 0.85431951176238086 1.5636884517695848 0.28378843161126394 0.72704134308752189 1.580019580980303 0.36816379633719459 0.75371913083886155 0.98850600818885859 -0.40175779719678728 0.76354374409650816 1.5795870991456984 0.79579558190703614 0.74657961329612421 1.4865169607852842 0.7186685133909656 0.77923133475502093 1.5246288734063047 1.07862941319175 0.77429859432820791 1.5743083283211514 0.65207226798864382 0.55012495547402196 1.6937034611941222 0.70687197949965008 0.55785958306753469 1.7417214597593649 0.75011658353290078 0.4914503725677799 1.45539059571746 0.65806455139150111 0.51827300965325351 1.8213170502295526 0.83611373592641502 0.46081173806856646 1.3162508814680867 0.65311646000957824 0.56856409768775895 1.5856536824878322 0.58696310388045214 0.58538523229710215 1.6517712291856899 0.53689164651065879 0.62168725200868269 1.4635901659181643 0.61164496344662733 0.57578832370176691 1.5319776125786351 0.56853336066334026 0.57912819054166509 1.9524040184907911 0.81209577798851407 0.57155180679213524 1.699997644019376 0.29269359728559646 0.59984664915264696 2.0507665507499051 0.63494755586224383 0.64546146283235617 1.6637034866941547 0.42928331197217595 0.58746236600355628 1.8213170502295526 -0.16388626407358498 0.46081173806856646 1.9524040184907911 -0.18790422201148593 0.57155180679213524 1.7158218031236701 1.1901088203944277 0.50273880844195584 1.699997644019376 1.2926935972855964 0.59984664915264696 1.5636884517695848 1.283788431611264 0.72704134308752189 1.0507665507499051 -0.36505244413775617 0.64546146283235617 1.5 0 0 1.5 0.5 0 2 0 0 2 0.5 0 1.5 1 0 2 1 0 2.3713900487129829 1.4638138065280641 0.054365874243278607 1.6937301976302348 1.510629257068556 0.078380819682902947 2.3772146014056106 1.5014972593853395 0.26522741909397168 1.661526874841035 1.3281764428023379 0.19841072148762673 1.5214649998685352 1.394709004160676 0.1772400156361276 1.5275491719408048 1.4026811176699492 0.26989203789596627 1.7852411504047603 1.749333239401103 0.16240709800373862 2.277388447767227 1.5588321250710846 0.17553638025429619 1.9560586942790208 1.8515243388938223 0.45585368293992445 1.8520424288037463 1.8535242378608947 0.33477390887283048 1.6813938868137415 1.2989663964578959 0.37970430088040058 2.2176348931587042 1.6088483731346308 0.37563186410429567 2.0671940834157647 1.6196267444156036 0.48335778990379097 1.5 1.25 1 1.25 1.5 1 1.3990423074686098 1.605703874253984 0.91702242047298943 2 1.25 1 1.75 1.5 1 2.0474883315355705 1.3103850453478407 0.96471544332798609 1.7961040173734411 1.6000779908355296 0.86612271072197544 1.5 1.75 1 1.5663703643819318 1.7585023200588288 0.86654773929377793 1.25 2 1 1.54564782853492 2.0184489544943229 0.82321095406322164 2 1.75 1 1.75 2 1 2.2793389304422966 1.6281088073271888 0.87860888182558816 1.7788723064559078 2.089602135139192 0.97006065797340002 1.5892287375504144 2.4413956963839727 0.90813551666520798 1.9885060081888586 1.5982422028032128 0.76354374409650816 2.2223798891096318 1.6670331298044521 0.79301378465506822 1.5653247409993289 1.3987655447277638 0.85431951176238086 1.580019580980303 1.3681637963371946 0.75371913083886155 1.5795870991456984 1.7957955819070361 0.74657961329612421 1.4865169607852842 1.7186685133909656 0.77923133475502093 1.5246288734063047 2.07862941319175 0.77429859432820791 1.5743083283211514 1.6520722679886437 0.55012495547402196 1.6937034611941222 1.7068719794996501 0.55785958306753469 1.7417214597593649 1.7501165835329009 0.4914503725677799 1.45539059571746 1.6580645513915011 0.51827300965325351 1.8213170502295526 1.836113735926415 0.46081173806856646 1.3162508814680867 1.6531164600095782 0.56856409768775895 1.5856536824878322 1.5869631038804521 0.58538523229710215 1.6517712291856899 1.5368916465106588 0.62168725200868269 1.4635901659181643 1.6116449634466274 0.57578832370176691 1.5319776125786351 1.5685333606633403 0.57912819054166509 1.9524040184907911 1.8120957779885141 0.57155180679213524 2.0507665507499051 1.6349475558622437 0.64546146283235617 1.6637034866941547 1.429283311972176 0.58746236600355628 1.7158218031236701 2.1901088203944279 0.50273880844195584 1.699997644019376 2.2926935972855964 0.59984664915264696 1.5636884517695848 2.283788431611264 0.72704134308752189 1.5 1.5 0 2 1.5 0 1.5 2 0 2 2 0</DataArray></Points><Cells><DataArray type="Int32" Name="connectivity" format="ascii">0 1 2 3 4 5 6 7 8 0 3 9 10 4 7 11 8 9 12 13 10 11 14 15 16 17 18 19 20 21 22 23 24 9 25 26 27 12 28 29 7 6 21 20 4 5 22 23 10 4 7 11 15 23 20 14 12 13 15 14 28 30 23 20 31 32 33 34 35 36 37 38 34 33 39 40 38 37 41 42 33 43 44 39 37 45 46 41 47 31 34 48 49 35 38 50 48 34 40 51 50 38 42 52 51 40 53 54 52 42 55 56 40 39 57 53 42 41 58 55 59 48 51 60 61 50 52 62 62 52 56 63 61 50 64 65 37 45 46 41 66 67 68 58 38 37 41 42 69 66 58 55 55 58 70 71 69 66 72 73 66 67 68 58 72 74 75 70 38 37 66 69 50 64 72 73 52 42 55 56 76 77 71 78 9 3 16 25 79 80 81 82 79 80 81 82 42 52 76 77 25 16 19 28 82 81 83 84 82 81 83 84 77 76 78 71 3 9 11 7 80 79 85 86 80 79 85 86 52 42 38 50 9 12 14 11 79 87 88 85 79 87 88 85 42 55 69 38 18 19 23 22 89 83 90 91 19 16 20 23 83 81 92 90 9 25 28 12 79 82 84 87 79 82 84 87 42 77 71 55 16 3 7 20 81 80 86 92 4 5 22 23 93 94 91 90 93 94 91 90 66 37 64 72 28 19 95 30 84 83 96 97 84 83 96 97 71 78 98 70 7 11 14 20 86 85 88 92 86 85 88 92 50 38 69 73 28 30 23 20 84 97 90 92 84 97 90 92 71 70 72 73 13 15 23 30 99 100 90 97 99 100 90 97 75 74 72 70 14 12 28 20 88 87 84 92 88 87 84 92 69 55 71 73 101 102 103 104 8 9 24 105 106 107 102 101 0 3 9 8 102 108 109 103 9 25 26 24 107 110 108 102 3 16 25 9 56 52 76 78 89 80 81 83 50 64 72 73 86 91 90 92 52 56 64 50 80 89 91 86 80 89 91 86 81 83 90 92 16 17 111 112 19 18 113 114 25 16 112 115 28 19 114 116 25 115 117 118 28 116 119 30 120 121 122 123 124 125 126 95 127 115 128 129 130 117 131 132 114 113 125 124 19 18 126 95 28 19 114 116 30 95 124 119 117 118 30 119 131 133 95 124 60 51 54 134 62 52 56 63 134 54 135 136 63 56 137 138 54 53 139 135 56 55 140 137 141 60 134 142 143 62 63 144 142 134 136 145 144 63 138 146 145 136 147 148 146 138 149 150 136 135 151 147 138 137 152 149 153 142 145 154 155 144 146 156 156 146 150 157 155 144 158 159 56 55 140 137 78 71 160 152 63 56 137 138 161 78 152 149 149 152 162 163 161 78 98 164 78 71 160 152 98 70 165 162 63 56 78 161 144 158 98 164 146 138 149 150 166 167 163 168 115 112 120 128 169 170 171 172 169 170 171 172 138 146 166 167 128 120 123 131 172 171 173 174 172 171 173 174 167 166 168 163 112 115 116 114 170 169 175 176 170 169 175 176 146 138 63 144 115 117 119 116 169 177 178 175 169 177 178 175 138 149 161 63 122 123 95 126 179 173 96 180 123 120 124 95 173 171 181 96 115 128 131 117 169 172 174 177 169 172 174 177 138 167 163 149 120 112 114 124 171 170 176 181 19 18 126 95 83 89 180 96 83 89 180 96 78 56 158 98 131 123 182 133 174 173 183 184 174 173 183 184 163 168 185 162 114 116 119 124 176 175 178 181 176 175 178 181 144 63 161 164 131 133 95 124 174 184 96 181 174 184 96 181 163 162 98 164 118 30 95 133 186 97 96 184 186 97 96 184 165 70 98 162 119 117 131 124 178 177 174 181 178 177 174 181 161 149 163 164 108 187 188 109 25 115 127 26 110 189 187 108 16 112 115 25 187 190 191 188 115 128 129 127 189 192 190 187 112 120 128 115 150 146 166 168 179 170 171 173 144 158 98 164 176 180 96 181 146 150 158 144 170 179 180 176 170 179 180 176 171 173 96 181 193 194 195 196 197 198 199 200 1 193 196 2 201 197 200 202 1 2 6 5 201 202 203 204 205 206 207 208 209 210 211 212 3 2 17 16 7 6 21 20 200 199 210 209 197 198 211 212 201 197 200 202 204 212 209 203 6 5 204 203 21 22 212 209 213 214 215 216 217 218 219 220 216 215 47 221 220 219 49 222 215 223 31 47 219 224 35 49 225 213 216 226 227 217 220 228 226 216 221 229 228 220 222 230 229 221 59 231 230 222 61 232 221 47 48 59 222 49 50 61 233 226 229 234 235 228 230 236 236 230 232 237 235 228 238 239 219 224 35 49 240 241 38 50 220 219 49 222 242 240 50 61 61 50 64 65 242 240 243 244 240 241 38 50 243 245 37 64 220 219 240 242 228 238 243 244 230 222 61 232 246 247 65 248 2 196 205 17 249 250 251 252 249 250 251 252 222 230 246 247 17 205 208 21 252 251 253 254 252 251 253 254 247 246 248 65 196 2 202 200 250 249 255 256 250 249 255 256 230 222 220 228 2 6 203 202 249 257 258 255 249 257 258 255 222 61 242 220 207 208 212 211 259 253 260 261 208 205 209 212 253 251 262 260 2 17 21 6 249 252 254 257 249 252 254 257 222 247 65 61 205 196 200 209 251 250 256 262 197 198 211 212 263 264 261 260 263 264 261 260 240 219 238 243 21 208 265 22 254 253 266 91 254 253 266 91 65 248 267 64 200 202 203 209 256 255 258 262 256 255 258 262 228 220 242 244 21 22 212 209 254 91 260 262 254 91 260 262 65 64 243 244 5 204 212 22 94 268 260 91 94 268 260 91 37 245 243 64 203 6 21 209 258 257 254 262 258 257 254 262 242 61 65 244 269 270 107 106 1 2 3 0 271 272 270 269 193 196 2 1 270 273 110 107 2 17 16 3 272 274 273 270 196 205 17 2 232 230 246 248 259 250 251 253 228 238 243 244 256 261 260 262 230 232 238 228 250 259 261 256 250 259 261 256 251 253 260 262 205 206 275 276 208 207 277 278 17 205 276 111 21 208 278 279 17 111 113 18 21 279 280 22 281 282 283 284 285 286 287 265 112 111 121 120 114 113 125 124 278 277 286 285 208 207 287 265 21 208 278 279 22 265 285 280 113 18 22 280 125 126 265 285 234 229 231 288 236 230 232 237 288 231 141 289 237 232 143 290 231 59 60 141 232 61 62 143 291 234 288 292 293 236 237 294 292 288 289 295 294 237 290 296 295 289 153 297 296 290 155 298 289 141 142 153 290 143 144 155 299 292 295 300 301 294 296 302 302 296 298 303 301 294 304 305 232 61 62 143 248 65 63 144 237 232 143 290 306 248 144 155 155 144 158 159 306 248 267 307 248 65 63 144 267 64 56 158 237 232 248 306 294 304 267 307 296 290 155 298 308 309 159 310 111 276 281 121 311 312 313 314 311 312 313 314 290 296 308 309 121 281 284 125 314 313 315 316 314 313 315 316 309 308 310 159 276 111 279 278 312 311 317 318 312 311 317 318 296 290 237 294 111 113 280 279 311 319 320 317 311 319 320 317 290 155 306 237 283 284 265 287 321 315 266 322 284 281 285 265 315 313 323 266 111 121 125 113 311 314 316 319 311 314 316 319 290 309 159 155 281 276 278 285 313 312 318 323 208 207 287 265 253 259 322 266 253 259 322 266 248 232 304 267 125 284 324 126 316 315 325 180 316 315 325 180 159 310 326 158 278 279 280 285 318 317 320 323 318 317 320 323 294 237 306 307 125 126 265 285 316 180 266 323 316 180 266 323 159 158 267 307 18 22 265 126 89 91 266 180 89 91 266 180 56 64 267 158 280 113 125 285 320 319 316 323 320 319 316 323 306 155 159 307 273 327 189 110 17 111 112 16 274 328 327 273 205 276 111 17 327 329 192 189 111 121 120 112 328 330 329 327 276 281 121 111 298 296 308 310 321 312 313 315 294 304 267 307 318 322 266 323 296 298 304 294 312 321 322 318 312 321 322 318 313 315 266 323</DataArray><DataArray type="Int32" Name="offsets" format="ascii">8 16 24 32 40 48 56 64 72 80 88 96 104 112 120 128 136 144 152 160 168 176 184 192 200 208 216 224 232 240 248 256 264 272 280 288 296 304 312 320 328 336 344 352 360 368 376 384 392 400 408 416 424 432 440 448 456 464 472 480 488 496 504 512 520 528 536 544 552 560 568 576 584 592 600 608 616 624 632 640 648 656 664 672 680 688 696 704 712 720 728 736 744 752 760 768 776 784 792 800 808 816 824 832 840 848 856 864 872 880 888 896 904 912 920 928 936 944 952 960 968 976 984 992 1000 1008 1016 1024 1032 1040 1048 1056 1064 1072 1080 1088 1096 1104 1112 1120 1128 1136 1144 1152 1160 1168 1176 1184 1192 1200 1208 1216 1224 1232 1240 1248 1256 1264 1272 1280 1288 1296 1304 1312 1320 1328 1336 1344 1352 1360 1368 1376 1384 1392 1400 1408 1416 1424 1432 1440 1448 1456 1464 1472 1480 1488 1496 1504 1512 1520 1528 1536 1544 1552 1560 1568 1576 1584 1592 1600 1608 1616 1624 1632 1640 1648 1656 1664 1672 1680 1688 1696 1704 1712 1720 1728 1736 1744 1752 1760 1768 1776 1784 1792</DataArray><DataArray type="Int32" Name="types" format="ascii">12 12 12 12 12 12 12 12 12 12 12 12 12 12 12 12 12 12 12 12 12 12 12 12 12 12 12 12 12 12 12 12 12 12 12 12 12 12 12 12 12 12 12 12 12 12 12 12 12 12 12 12 12 12 12 12 12 12 12 12 12 12 12 12 12 12 12 12 12 12 12 12 12 12 12 12 12 12 12 12 12 12 12 12 12 12 12 12 12 12 12 12 12 12 12 12 12 12 12 12 12 12 12 12 12 12 12 12 12 12 12 12 12 12 12 12 12 12 12 12 12 12 12 12 12 12 12 12 12 12 12 12 12 12 12 12 12 12 12 12 12 12 12 12 12 12 12 12 12 12 12 12 12 12 12 12 12 12 12 12 12 12 12 12 12 12 12 12 12 12 12 12 12 12 12 12 12 12 12 12 12 12 12 12 12 12 12 12 12 12 12 12 12 12 12 12 12 12 12 12 12 12 12 12 12 12 12 12 12 12 12 12 12 12 12 12 12 12 12 12 12 12 12 12</DataArray></Cells></Piece></UnstructuredGrid></VTKFile>