<?xml version='1.0' encoding='utf-8'?>
<VTKFile type="UnstructuredGrid" version="0.1" byte_order="LittleEndian"><UnstructuredGrid><Piece NumberOfPoints="334" NumberOfCells="224"><Points><DataArray type="Float64" NumberOfComponents="3" format="ascii">0.81609321735892804 -0.16682648641151865 0.16727399923923789 1.2474703367225874 -0.38656101606876037 0.16888314806085403 1.3608583868470172 0.48173874500218827 0.045687732505515381 0.72986796563370282 0.50467178458350714 0.062669633400791139 0.82646854611971021 -0.097971834321987195 0.3204886577109084 0.88447672284906054 -0.096957090788280298 0.42384769204631512 1.3353384525391174 0.5302002144914284 0.21543005816527924 0.68547034817293384 0.38395367552990067 0.14563039048079202 0.24747033672258745 -0.38656101606876037 0.16888314806085403 0.36085838684701721 0.48173874500218827 0.045687732505515381 0.1969910849734903 -0.3703083918231812 0.32182502414997144 0.50373558172926958 0.40422703748277805 0.14136970430421097 0.33533845253911743 0.5302002144914284 0.21543005816527924 -0.11552327715093946 -0.096957090788280298 0.42384769204631512 0.50195682634367722 0.42405810489556212 0.21458049390245695 0.065737441674439762 -0.35797076821568041 0.422347251081991 0.81609321735892804 0.83317351358848135 0.16727399923923789 1.2474703367225874 0.61343898393123963 0.16888314806085403 0.88447672284906054 0.9030429092117197 0.42384769204631512 0.82646854611971021 0.90202816567801281 0.3204886577109084 0.65747784244659391 0.32074979035055395 0.29611295600488136 1.1969910849734904 0.6296916081768188 0.32182502414997144 1.0657374416744398 0.64202923178431959 0.422347251081991 0.70112565973995833 0.20356717281046766 0.38933729444276233 -0.27013203436629718 0.50467178458350714 0.062669633400791139 0.24747033672258745 0.61343898393123963 0.16888314806085403 -0.18390678264107196 0.83317351358848135 0.16727399923923789 -0.31452965182706616 0.38395367552990067 0.14563039048079202 0.1969910849734903 0.6296916081768188 0.32182502414997144 -0.34252215755340609 0.32074979035055395 0.29611295600488136 0.065737441674439762 0.64202923178431959 0.422347251081991 0.75 0 1 0.5 -0.25 1 0.25 0 1 0.5 0.25 1 0.75174992424807485 0.04849740148580884 0.96587102553752857 0.72928323983525722 -0.24077307328022313 0.78170752264737808 0.83583158975141425 -0.086419107884645574 0.71414527645261972 0.67285694727013023 0.35783937848933173 0.88943597347979486 0 0.25 1 0.25 0.5 1 0.093026611811971568 0.36247887384943911 0.92314098490797636 0.48831719088726971 0.58193007130630425 0.84058007572694005 0.25 1 1 0 0.75 1 -0.25 1 1 0 1.25 1 0.83583158975141425 0.91358089211535443 0.71414527645261972 0.31839939197701933 0.5965871473966613 0.79758903220948074 -0.24825007575192515 1.0484974014858088 0.96587102553752857 0.093026611811971568 1.3624788738494391 0.92314098490797636 1 0.25 1 0.75 0.5 1 1.0930266118119716 0.36247887384943911 0.92314098490797636 0.73941955833621897 0.57442601347237832 0.86347532719812481 0.5 0.75 1 0.72928323983525722 0.75922692671977687 0.78170752264737808 -0.25 0.5 1 -0.26058044166378103 0.57442601347237832 0.86347532719812481 1 0.75 1 0.75 1 1 1.3183993919770194 0.5965871473966613 0.79758903220948074 0.75174992424807485 1.0484974014858088 0.96587102553752857 0.67285694727013023 1.3578393784893317 0.88943597347979486 1.0919944204555814 0.62874560237485588 0.61819827203191735 1.2643124825132455 0.64087574755708465 0.68804241173359837 0.31839939197701933 -0.4034128526033387 0.79758903220948074 -0.24825007575192515 0.04849740148580884 0.96587102553752857 0.77767752825723024 -0.09464482499539062 0.60936166564190197 0.26431248251324546 -0.35912425244291535 0.68804241173359837 -0.32714305272986977 0.35783937848933173 0.88943597347979486 0.64549707309695215 0.36628506912327363 0.75833447126783282 0.091994420455581372 0.62874560237485588 0.61819827203191735 0.26431248251324546 0.64087574755708465 0.68804241173359837 0.74458644290609077 0.21462529792554641 0.54930341802906812 0.71147216798218693 0.31967448120896302 0.6260259075221829 0.091994420455581372 -0.37125439762514412 0.61819827203191735 -0.16416841024858575 -0.086419107884645574 0.71414527645261972 0.73148793483411145 0.79661870934492862 0.67563354958692634 0.51747823482595545 0.69392409507672392 0.65480031748387124 0.77767752825723024 0.90535517500460938 0.60936166564190197 0.47388027213728662 0.64631955254300077 0.47829962668832704 0.62344846049855562 0.714937682766419 0.41584984735805031 0.67254406861673155 0.76296824248114659 0.38357625624942765 0.52112947339924631 0.69607632552300858 0.42923294394458761 0.75618426750339307 0.84723094756217976 0.40988006558743983 0.34048984963920803 0.66496641520192534 0.48533429240960868 0.55366770423914979 0.58776162504503837 0.47756984501937921 0.60056057978134447 0.6212326369343899 0.45832072571158178 0.40504957575026118 0.64047477230902106 0.47737607772322443 0.57281806889870046 0.51844068072251293 0.45761636843210751 0.88089607527072855 0.89055430686142045 0.61633859805552293 0.67316244675165204 0.32601758924717311 0.46160725223694576 1.1572668439083131 0.64116088817869199 0.50968810073236637 0.62403848101360215 0.4541600171368429 0.45366310580026381 0.75618426750339307 -0.15276905243782024 0.40988006558743983 0.88089607527072855 -0.10944569313857955 0.61633859805552293 0.70112565973995833 1.2035671728104678 0.38933729444276233 0.67316244675165204 1.3260175892471731 0.46160725223694576 0.15726684390831314 0.64116088817869199 0.50968810073236637 0.74458644290609077 1.2146252979255463 0.54930341802906812 -0.11910392472927145 -0.10944569313857955 0.61633859805552293 0.15726684390831314 -0.35883911182130801 0.50968810073236637 0.5 0 0 0.5 0.5 0 0 0.5 0 0 0 0 -0.18390678264107196 -0.16682648641151865 0.16727399923923789 1 0 0 1 0.5 0 0.5 1 0 0 1 0 1 1 0 1.3608583868470172 1.4817387450021884 0.045687732505515381 0.72986796563370282 1.5046717845835071 0.062669633400791139 1.3353384525391174 1.5302002144914284 0.21543005816527924 0.68547034817293384 1.3839536755299007 0.14563039048079202 0.36085838684701721 1.4817387450021884 0.045687732505515381 0.50373558172926958 1.4042270374827781 0.14136970430421097 0.33533845253911743 1.5302002144914284 0.21543005816527924 -0.11552327715093946 0.9030429092117197 0.42384769204631512 0.50195682634367722 1.4240581048955621 0.21458049390245695 0.81609321735892804 1.8331735135884815 0.16727399923923789 1.2474703367225874 1.6134389839312395 0.16888314806085403 0.88447672284906054 1.9030429092117198 0.42384769204631512 0.82646854611971021 1.9020281656780127 0.3204886577109084 0.65747784244659391 1.3207497903505541 0.29611295600488136 1.1969910849734904 1.6296916081768189 0.32182502414997144 1.0657374416744398 1.6420292317843197 0.422347251081991 -0.27013203436629718 1.5046717845835071 0.062669633400791139 0.24747033672258745 1.6134389839312395 0.16888314806085403 -0.18390678264107196 1.8331735135884815 0.16727399923923789 -0.31452965182706616 1.3839536755299007 0.14563039048079202 0.1969910849734903 1.6296916081768189 0.32182502414997144 -0.34252215755340609 1.3207497903505541 0.29611295600488136 0.065737441674439762 1.6420292317843197 0.422347251081991 0.5 1.25 1 0.25 1.5 1 0.48831719088726971 1.5819300713063043 0.84058007572694005 0.25 2 1 0 1.75 1 -0.25 2 1 0 2.25 1 0.83583158975141425 1.9135808921153545 0.71414527645261972 0.31839939197701933 1.5965871473966613 0.79758903220948074 -0.24825007575192515 2.0484974014858088 0.96587102553752857 0.093026611811971568 2.3624788738494393 0.92314098490797636 1 1.25 1 0.75 1.5 1 1.0930266118119716 1.3624788738494391 0.92314098490797636 0.73941955833621897 1.5744260134723782 0.86347532719812481 0.5 1.75 1 0.72928323983525722 1.7592269267197769 0.78170752264737808 -0.25 1.5 1 -0.26058044166378103 1.5744260134723782 0.86347532719812481 1 1.75 1 0.75 2 1 1.3183993919770194 1.5965871473966613 0.79758903220948074 0.75174992424807485 2.0484974014858088 0.96587102553752857 0.67285694727013023 2.3578393784893317 0.88943597347979486 1.0919944204555814 1.6287456023748559 0.61819827203191735 1.2643124825132455 1.6408757475570845 0.68804241173359837 -0.32714305272986977 1.3578393784893317 0.88943597347979486 0.64549707309695215 1.3662850691232737 0.75833447126783282 0.091994420455581372 1.6287456023748559 0.61819827203191735 0.26431248251324546 1.6408757475570845 0.68804241173359837 0.71147216798218693 1.3196744812089629 0.6260259075221829 -0.16416841024858575 0.91358089211535443 0.71414527645261972 0.73148793483411145 1.7966187093449286 0.67563354958692634 0.51747823482595545 1.6939240950767238 0.65480031748387124 0.77767752825723024 1.9053551750046094 0.60936166564190197 0.47388027213728662 1.6463195525430008 0.47829962668832704 0.62344846049855562 1.7149376827664189 0.41584984735805031 0.67254406861673155 1.7629682424811466 0.38357625624942765 0.52112947339924631 1.6960763255230087 0.42923294394458761 0.75618426750339307 1.8472309475621798 0.40988006558743983 0.34048984963920803 1.6649664152019255 0.48533429240960868 0.55366770423914979 1.5877616250450384 0.47756984501937921 0.60056057978134447 1.6212326369343899 0.45832072571158178 0.40504957575026118 1.6404747723090209 0.47737607772322443 0.57281806889870046 1.518440680722513 0.45761636843210751 0.88089607527072855 1.8905543068614206 0.61633859805552293 1.1572668439083131 1.6411608881786921 0.50968810073236637 0.62403848101360215 1.454160017136843 0.45366310580026381 0.70112565973995833 2.2035671728104678 0.38933729444276233 0.67316244675165204 2.3260175892471731 0.46160725223694576 0.15726684390831314 1.6411608881786921 0.50968810073236637 0.74458644290609077 2.2146252979255463 0.54930341802906812 -0.11910392472927145 0.89055430686142045 0.61633859805552293 0.5 1.5 0 0 1.5 0 1 1.5 0 0.5 2 0 0 2 0 1 2 0 1.8160932173589281 -0.16682648641151865 0.16727399923923789 2.2474703367225874 -0.38656101606876037 0.16888314806085403 2.360858386847017 0.48173874500218827 0.045687732505515381 1.7298679656337028 0.50467178458350714 0.062669633400791139 1.8264685461197101 -0.097971834321987195 0.3204886577109084 1.8844767228490604 -0.096957090788280298 0.42384769204631512 2.3353384525391174 0.5302002144914284 0.21543005816527924 1.6854703481729338 0.38395367552990067 0.14563039048079202 1.1969910849734904 -0.3703083918231812 0.32182502414997144 1.5037355817292695 0.40422703748277805 0.14136970430421097 1.5019568263436773 0.42405810489556212 0.21458049390245695 1.0657374416744398 -0.35797076821568041 0.422347251081991 1.8160932173589281 0.83317351358848135 0.16727399923923789 2.2474703367225874 0.61343898393123963 0.16888314806085403 1.8844767228490604 0.9030429092117197 0.42384769204631512 1.8264685461197101 0.90202816567801281 0.3204886577109084 1.6574778424465939 0.32074979035055395 0.29611295600488136 2.1969910849734902 0.6296916081768188 0.32182502414997144 2.0657374416744396 0.64202923178431959 0.422347251081991 1.7011256597399584 0.20356717281046766 0.38933729444276233 1.75 0 1 1.5 -0.25 1 1.25 0 1 1.5 0.25 1 1.7517499242480747 0.04849740148580884 0.96587102553752857 1.7292832398352571 -0.24077307328022313 0.78170752264737808 1.8358315897514141 -0.086419107884645574 0.71414527645261972 1.6728569472701302 0.35783937848933173 0.88943597347979486 1.25 0.5 1 1.4883171908872697 0.58193007130630425 0.84058007572694005 1.25 1 1 1.8358315897514141 0.91358089211535443 0.71414527645261972 2 0.25 1 1.75 0.5 1 2.0930266118119714 0.36247887384943911 0.92314098490797636 1.7394195583362189 0.57442601347237832 0.86347532719812481 1.5 0.75 1 1.7292832398352571 0.75922692671977687 0.78170752264737808 2 0.75 1 1.75 1 1 2.3183993919770192 0.5965871473966613 0.79758903220948074 1.7517499242480747 1.0484974014858088 0.96587102553752857 1.6728569472701302 1.3578393784893317 0.88943597347979486 2.0919944204555811 0.62874560237485588 0.61819827203191735 2.2643124825132457 0.64087574755708465 0.68804241173359837 1.3183993919770194 -0.4034128526033387 0.79758903220948074 1.7776775282572301 -0.09464482499539062 0.60936166564190197 1.2643124825132455 -0.35912425244291535 0.68804241173359837 1.6454970730969523 0.36628506912327363 0.75833447126783282 1.7445864429060909 0.21462529792554641 0.54930341802906812 1.7114721679821869 0.31967448120896302 0.6260259075221829 1.0919944204555814 -0.37125439762514412 0.61819827203191735 1.7314879348341115 0.79661870934492862 0.67563354958692634 1.5174782348259555 0.69392409507672392 0.65480031748387124 1.7776775282572301 0.90535517500460938 0.60936166564190197 1.4738802721372866 0.64631955254300077 0.47829962668832704 1.6234484604985555 0.714937682766419 0.41584984735805031 1.6725440686167317 0.76296824248114659 0.38357625624942765 1.5211294733992462 0.69607632552300858 0.42923294394458761 1.756184267503393 0.84723094756217976 0.40988006558743983 1.3404898496392081 0.66496641520192534 0.48533429240960868 1.5536677042391498 0.58776162504503837 0.47756984501937921 1.6005605797813445 0.6212326369343899 0.45832072571158178 1.4050495757502612 0.64047477230902106 0.47737607772322443 1.5728180688987003 0.51844068072251293 0.45761636843210751 1.8808960752707287 0.89055430686142045 0.61633859805552293 1.6731624467516522 0.32601758924717311 0.46160725223694576 2.1572668439083129 0.64116088817869199 0.50968810073236637 1.6240384810136022 0.4541600171368429 0.45366310580026381 1.756184267503393 -0.15276905243782024 0.40988006558743983 1.8808960752707287 -0.10944569313857955 0.61633859805552293 1.7011256597399584 1.2035671728104678 0.38933729444276233 1.6731624467516522 1.3260175892471731 0.46160725223694576 1.7445864429060909 1.2146252979255463 0.54930341802906812 1.1572668439083131 -0.35883911182130801 0.50968810073236637 1.5 0 0 1.5 0.5 0 2 0 0 2 0.5 0 1.5 1 0 2 1 0 2.360858386847017 1.4817387450021884 0.045687732505515381 1.7298679656337028 1.5046717845835071 0.062669633400791139 2.3353384525391174 1.5302002144914284 0.21543005816527924 1.6854703481729338 1.3839536755299007 0.14563039048079202 1.5037355817292695 1.4042270374827781 0.14136970430421097 1.5019568263436773 1.4240581048955621 0.21458049390245695 1.8160932173589281 1.8331735135884815 0.16727399923923789 2.2474703367225874 1.6134389839312395 0.16888314806085403 1.8844767228490604 1.9030429092117198 0.42384769204631512 1.8264685461197101 1.9020281656780127 0.3204886577109084 1.6574778424465939 1.3207497903505541 0.29611295600488136 2.1969910849734902 1.6296916081768189 0.32182502414997144 2.0657374416744396 1.6420292317843197 0.422347251081991 1.5 1.25 1 1.25 1.5 1 1.4883171908872697 1.5819300713063043 0.84058007572694005 1.25 2 1 1 2.25 1 1.8358315897514141 1.9135808921153545 0.71414527645261972 1.0930266118119716 2.3624788738494393 0.92314098490797636 2 1.25 1 1.75 1.5 1 2.0930266118119714 1.3624788738494391 0.92314098490797636 1.7394195583362189 1.5744260134723782 0.86347532719812481 1.5 1.75 1 1.7292832398352571 1.7592269267197769 0.78170752264737808 2 1.75 1 1.75 2 1 2.3183993919770192 1.5965871473966613 0.79758903220948074 1.7517499242480747 2.0484974014858088 0.96587102553752857 1.6728569472701302 2.3578393784893317 0.88943597347979486 2.0919944204555811 1.6287456023748559 0.61819827203191735 2.2643124825132457 1.6408757475570845 0.68804241173359837 1.6454970730969523 1.3662850691232737 0.75833447126783282 1.7114721679821869 1.3196744812089629 0.6260259075221829 1.7314879348341115 1.7966187093449286 0.67563354958692634 1.5174782348259555 1.6939240950767238 0.65480031748387124 1.7776775282572301 1.9053551750046094 0.60936166564190197 1.4738802721372866 1.6463195525430008 0.47829962668832704 1.6234484604985555 1.7149376827664189 0.41584984735805031 1.6725440686167317 1.7629682424811466 0.38357625624942765 1.5211294733992462 1.6960763255230087 0.42923294394458761 1.756184267503393 1.8472309475621798 0.40988006558743983 1.3404898496392081 1.6649664152019255 0.48533429240960868 1.5536677042391498 1.5877616250450384 0.47756984501937921 1.6005605797813445 1.6212326369343899 0.45832072571158178 1.4050495757502612 1.6404747723090209 0.47737607772322443 1.5728180688987003 1.518440680722513 0.45761636843210751 1.8808960752707287 1.8905543068614206 0.61633859805552293 2.1572668439083129 1.6411608881786921 0.50968810073236637 1.6240384810136022 1.454160017136843 0.45366310580026381 1.7011256597399584 2.2035671728104678 0.38933729444276233 1.6731624467516522 2.3260175892471731 0.46160725223694576 1.7445864429060909 2.2146252979255463 0.54930341802906812 1.5 1.5 0 2 1.5 0 1.5 2 0 2 2 0</DataArray></Points><Cells><DataArray type="Int32" Name="connectivity" format="ascii">0 1 2 3 4 5 6 7 8 0 3 9 10 4 7 11 8 9 12 13 10 11 14 15 16 17 18 19 20 21 22 23 24 9 25 26 27 12 28 29 7 6 21 20 4 5 22 23 10 4 7 11 15 23 20 14 12 13 15 14 28 30 23 20 31 32 33 34 35 36 37 38 34 33 39 40 38 37 41 42 43 44 45 46 47 48 49 50 51 31 34 52 53 35 38 54 52 34 40 55 54 38 42 56 55 40 44 43 56 42 48 47 40 39 57 44 42 41 58 48 59 52 55 60 61 54 56 62 62 56 47 63 61 54 64 65 37 66 67 41 68 69 70 58 38 37 41 42 71 68 58 48 48 58 72 73 71 68 74 75 68 69 70 58 74 76 77 72 38 37 68 71 54 64 74 75 56 42 48 47 78 79 73 80 56 47 64 54 78 80 74 75 9 3 16 25 81 82 83 84 81 82 83 84 42 56 78 79 25 16 19 28 84 83 85 86 84 83 85 86 79 78 80 73 3 9 11 7 82 81 87 88 82 81 87 88 56 42 38 54 9 12 14 11 81 89 90 87 81 89 90 87 42 48 71 38 18 19 23 22 91 85 92 93 91 85 92 93 47 80 74 64 19 16 20 23 85 83 94 92 85 83 94 92 80 78 75 74 9 25 28 12 81 84 86 89 81 84 86 89 42 79 73 48 16 3 7 20 83 82 88 94 83 82 88 94 78 56 54 75 4 5 22 23 95 96 93 92 95 96 93 92 68 37 64 74 28 19 97 30 86 85 98 99 86 85 98 99 73 80 100 72 7 11 14 20 88 87 90 94 88 87 90 94 54 38 71 75 28 30 23 20 86 99 92 94 86 99 92 94 73 72 74 75 13 15 23 30 101 102 92 99 101 102 92 99 77 76 74 72 14 12 28 20 90 89 86 94 90 89 86 94 71 48 73 75 103 104 105 106 8 9 24 107 108 109 104 103 0 3 9 8 104 110 111 105 9 25 26 24 109 112 110 104 3 16 25 9 16 17 113 114 19 18 115 116 25 16 114 117 28 19 116 118 25 117 119 120 28 118 121 30 122 123 124 125 126 127 128 97 129 117 130 131 132 119 133 134 116 115 127 126 19 18 128 97 28 19 116 118 30 97 126 121 119 120 30 121 133 135 97 126 60 55 43 136 62 56 47 63 136 43 46 137 63 47 50 138 139 140 141 142 143 144 145 146 147 60 136 148 149 62 63 150 148 136 137 151 150 63 138 152 151 137 140 139 152 138 144 143 137 46 153 140 138 50 154 144 155 148 151 156 157 150 152 158 158 152 143 159 157 150 160 161 47 48 49 50 80 73 162 154 63 47 50 138 163 80 154 144 144 154 164 165 163 80 100 166 80 73 162 154 100 72 167 164 63 47 80 163 150 160 100 166 152 138 144 143 168 169 165 170 152 143 160 150 168 170 100 166 117 114 122 130 171 172 173 174 171 172 173 174 138 152 168 169 130 122 125 133 174 173 175 176 174 173 175 176 169 168 170 165 114 117 118 116 172 171 177 178 172 171 177 178 152 138 63 150 117 119 121 118 171 179 180 177 171 179 180 177 138 144 163 63 124 125 97 128 181 175 98 182 181 175 98 182 143 170 100 160 125 122 126 97 175 173 183 98 175 173 183 98 170 168 166 100 117 130 133 119 171 174 176 179 171 174 176 179 138 169 165 144 122 114 116 126 173 172 178 183 173 172 178 183 168 152 150 166 19 18 128 97 85 91 182 98 85 91 182 98 80 47 160 100 133 125 184 135 176 175 185 186 176 175 185 186 165 170 187 164 116 118 121 126 178 177 180 183 178 177 180 183 150 63 163 166 133 135 97 126 176 186 98 183 176 186 98 183 165 164 100 166 120 30 97 135 188 99 98 186 188 99 98 186 167 72 100 164 121 119 133 126 180 179 176 183 180 179 176 183 163 144 165 166 110 189 190 111 25 117 129 26 112 191 189 110 16 114 117 25 189 192 193 190 117 130 131 129 191 194 192 189 114 122 130 117 195 196 197 198 199 200 201 202 1 195 198 2 203 199 202 204 1 2 6 5 203 204 205 206 207 208 209 210 211 212 213 214 3 2 17 16 7 6 21 20 202 201 212 211 199 200 213 214 203 199 202 204 206 214 211 205 6 5 206 205 21 22 214 211 215 216 217 218 219 220 221 222 218 217 51 223 222 221 53 224 225 59 60 147 226 61 62 149 227 215 218 228 229 219 222 230 228 218 223 231 230 222 224 232 231 223 59 225 232 224 61 226 223 51 52 59 224 53 54 61 233 228 231 234 235 230 232 236 236 232 226 237 235 230 238 239 221 240 35 53 241 242 38 54 222 221 53 224 243 241 54 61 61 54 64 65 243 241 244 245 241 242 38 54 244 246 37 64 222 221 241 243 230 238 244 245 232 224 61 226 247 248 65 249 232 226 238 230 247 249 244 245 2 198 207 17 250 251 252 253 250 251 252 253 224 232 247 248 17 207 210 21 253 252 254 255 253 252 254 255 248 247 249 65 198 2 204 202 251 250 256 257 251 250 256 257 232 224 222 230 2 6 205 204 250 258 259 256 250 258 259 256 224 61 243 222 209 210 214 213 260 254 261 262 260 254 261 262 226 249 244 238 210 207 211 214 254 252 263 261 254 252 263 261 249 247 245 244 2 17 21 6 250 253 255 258 250 253 255 258 224 248 65 61 207 198 202 211 252 251 257 263 252 251 257 263 247 232 230 245 199 200 213 214 264 265 262 261 264 265 262 261 241 221 238 244 21 210 266 22 255 254 267 93 255 254 267 93 65 249 268 64 202 204 205 211 257 256 259 263 257 256 259 263 230 222 243 245 21 22 214 211 255 93 261 263 255 93 261 263 65 64 244 245 5 206 214 22 96 269 261 93 96 269 261 93 37 246 244 64 205 6 21 211 259 258 255 263 259 258 255 263 243 61 65 245 270 271 109 108 1 2 3 0 272 273 271 270 195 198 2 1 271 274 112 109 2 17 16 3 273 275 274 271 198 207 17 2 207 208 276 277 210 209 278 279 17 207 277 113 21 210 279 280 17 113 115 18 21 280 281 22 282 283 284 285 286 287 288 266 114 113 123 122 116 115 127 126 279 278 287 286 210 209 288 266 21 210 279 280 22 266 286 281 115 18 22 281 127 128 266 286 234 231 225 289 236 232 226 237 289 225 147 290 237 226 149 291 292 155 156 293 294 157 158 295 296 234 289 297 298 236 237 299 297 289 290 300 299 237 291 301 300 290 155 292 301 291 157 294 290 147 148 155 291 149 150 157 302 297 300 303 304 299 301 305 305 301 294 306 304 299 307 308 226 61 62 149 249 65 63 150 237 226 149 291 309 249 150 157 157 150 160 161 309 249 268 310 249 65 63 150 268 64 47 160 237 226 249 309 299 307 268 310 301 291 157 294 311 312 161 313 301 294 307 299 311 313 268 310 113 277 282 123 314 315 316 317 314 315 316 317 291 301 311 312 123 282 285 127 317 316 318 319 317 316 318 319 312 311 313 161 277 113 280 279 315 314 320 321 315 314 320 321 301 291 237 299 113 115 281 280 314 322 323 320 314 322 323 320 291 157 309 237 284 285 266 288 324 318 267 325 324 318 267 325 294 313 268 307 285 282 286 266 318 316 326 267 318 316 326 267 313 311 310 268 113 123 127 115 314 317 319 322 314 317 319 322 291 312 161 157 282 277 279 286 316 315 321 326 316 315 321 326 311 301 299 310 210 209 288 266 254 260 325 267 254 260 325 267 249 226 307 268 127 285 327 128 319 318 328 182 319 318 328 182 161 313 329 160 279 280 281 286 321 320 323 326 321 320 323 326 299 237 309 310 127 128 266 286 319 182 267 326 319 182 267 326 161 160 268 310 18 22 266 128 91 93 267 182 91 93 267 182 47 64 268 160 281 115 127 286 323 322 319 326 323 322 319 326 309 157 161 310 274 330 191 112 17 113 114 16 275 331 330 274 207 277 113 17 330 332 194 191 113 123 122 114 331 333 332 330 277 282 123 113</DataArray><DataArray type="Int32" Name="offsets" format="ascii">8 16 24 32 40 48 56 64 72 80 88 96 104 112 120 128 136 144 152 160 168 176 184 192 200 208 216 224 232 240 248 256 264 272 280 288 296 304 312 320 328 336 344 352 360 368 376 384 392 400 408 416 424 432 440 448 456 464 472 480 488 496 504 512 520 528 536 544 552 560 568 576 584 592 600 608 616 624 632 640 648 656 664 672 680 688 696 704 712 720 728 736 744 752 760 768 776 784 792 800 808 816 824 832 840 848 856 864 872 880 888 896 904 912 920 928 936 944 952 960 968 976 984 992 1000 1008 1016 1024 1032 1040 1048 1056 1064 1072 1080 1088 1096 1104 1112 1120 1128 1136 1144 1152 1160 1168 1176 1184 1192 1200 1208 1216 1224 1232 1240 1248 1256 1264 1272 1280 1288 1296 1304 1312 1320 1328 1336 1344 1352 1360 1368 1376 1384 1392 1400 1408 1416 1424 1432 1440 1448 1456 1464 1472 1480 1488 1496 1504 1512 1520 1528 1536 1544 1552 1560 1568 1576 1584 1592 1600 1608 1616 1624 1632 1640 1648 1656 1664 1672 1680 1688 1696 1704 1712 1720 1728 1736 1744 1752 1760 1768 1776 1784 1792</DataArray><DataArray type="Int32" Name="types" format="ascii">12 12 12 12 12 12 12 12 12 12 12 12 12 12 12 12 12 12 12 12 12 12 12 12 12 12 12 12 12 12 12 12 12 12 12 12 12 12 12 12 12 12 12 12 12 12 12 12 12 12 12 12 12 12 12 12 12 12 12 12 12 12 12 12 12 12 12 12 12 12 12 12 12 12 12 12 12 12 12 12 12 12 12 12 12 12 12 12 12 12 12 12 12 12 12 12 12 12 12 12 12 12 12 12 12 12 12 12 12 12 12 12 12 12 12 12 12 12 12 12 12 12 12 12 12 12 12 12 12 12 12 12 12 12 12 12 12 12 12 12 12 12 12 12 12 12 12 12 12 12 12 12 12 12 12 12 12 12 12 12 12 12 12 12 12 12 12 12 12 12 12 12 12 12 12 12 12 12 12 12 12 12 12 12 12 12 12 12 12 12 12 12 12 12 12 12 12 12 12 12 12 12 12 12 12 12 12 12 12 12 12 12 12 12 12 12 12 12 12 12 12 12 12 12</DataArray></Cells></Piece></UnstructuredGrid></VTKFile>