<?xml version='1.0' encoding='utf-8'?>
<VTKFile type="UnstructuredGrid" version="0.1" byte_order="LittleEndian"><UnstructuredGrid><Piece NumberOfPoints="113" NumberOfCells="56"><Points><DataArray type="Float64" NumberOfComponents="3" format="ascii">0.81609321735892804 -0.16682648641151865 0.16727399923923789 1.2474703367225874 -0.38656101606876037 0.16888314806085403 1.3608583868470172 0.48173874500218827 0.045687732505515381 0.72986796563370282 0.50467178458350714 0.062669633400791139 0.82646854611971021 -0.097971834321987195 0.3204886577109084 0.88447672284906054 -0.096957090788280298 0.42384769204631512 1.3353384525391174 0.5302002144914284 0.21543005816527924 0.68547034817293384 0.38395367552990067 0.14563039048079202 0.24747033672258745 -0.38656101606876037 0.16888314806085403 0.36085838684701721 0.48173874500218827 0.045687732505515381 0.1969910849734903 -0.3703083918231812 0.32182502414997144 0.50373558172926958 0.40422703748277805 0.14136970430421097 0.33533845253911743 0.5302002144914284 0.21543005816527924 -0.11552327715093946 -0.096957090788280298 0.42384769204631512 0.50195682634367722 0.42405810489556212 0.21458049390245695 0.065737441674439762 -0.35797076821568041 0.422347251081991 0.81609321735892804 0.83317351358848135 0.16727399923923789 1.2474703367225874 0.61343898393123963 0.16888314806085403 0.88447672284906054 0.9030429092117197 0.42384769204631512 0.82646854611971021 0.90202816567801281 0.3204886577109084 0.65747784244659391 0.32074979035055395 0.29611295600488136 1.1969910849734904 0.6296916081768188 0.32182502414997144 1.0657374416744398 0.64202923178431959 0.422347251081991 0.70112565973995833 0.20356717281046766 0.38933729444276233 -0.27013203436629718 0.50467178458350714 0.062669633400791139 0.24747033672258745 0.61343898393123963 0.16888314806085403 -0.18390678264107196 0.83317351358848135 0.16727399923923789 -0.31452965182706616 0.38395367552990067 0.14563039048079202 0.1969910849734903 0.6296916081768188 0.32182502414997144 -0.34252215755340609 0.32074979035055395 0.29611295600488136 0.065737441674439762 0.64202923178431959 0.422347251081991 0.75 0 1 0.5 -0.25 1 0.25 0 1 0.5 0.25 1 0.75174992424807485 0.04849740148580884 0.96587102553752857 0.72928323983525722 -0.24077307328022313 0.78170752264737808 0.83583158975141425 -0.086419107884645574 0.71414527645261972 0.67285694727013023 0.35783937848933173 0.88943597347979486 0 0.25 1 0.25 0.5 1 0.093026611811971568 0.36247887384943911 0.92314098490797636 0.48831719088726971 0.58193007130630425 0.84058007572694005 0.25 1 1 0 0.75 1 -0.25 1 1 0 1.25 1 0.83583158975141425 0.91358089211535443 0.71414527645261972 0.31839939197701933 0.5965871473966613 0.79758903220948074 -0.24825007575192515 1.0484974014858088 0.96587102553752857 0.093026611811971568 1.3624788738494391 0.92314098490797636 1 0.25 1 0.75 0.5 1 1.0930266118119716 0.36247887384943911 0.92314098490797636 0.73941955833621897 0.57442601347237832 0.86347532719812481 0.5 0.75 1 0.72928323983525722 0.75922692671977687 0.78170752264737808 -0.25 0.5 1 -0.26058044166378103 0.57442601347237832 0.86347532719812481 1 0.75 1 0.75 1 1 1.3183993919770194 0.5965871473966613 0.79758903220948074 0.75174992424807485 1.0484974014858088 0.96587102553752857 0.67285694727013023 1.3578393784893317 0.88943597347979486 1.0919944204555814 0.62874560237485588 0.61819827203191735 1.2643124825132455 0.64087574755708465 0.68804241173359837 0.31839939197701933 -0.4034128526033387 0.79758903220948074 -0.24825007575192515 0.04849740148580884 0.96587102553752857 0.77767752825723024 -0.09464482499539062 0.60936166564190197 0.26431248251324546 -0.35912425244291535 0.68804241173359837 -0.32714305272986977 0.35783937848933173 0.88943597347979486 0.64549707309695215 0.36628506912327363 0.75833447126783282 0.091994420455581372 0.62874560237485588 0.61819827203191735 0.26431248251324546 0.64087574755708465 0.68804241173359837 0.74458644290609077 0.21462529792554641 0.54930341802906812 0.71147216798218693 0.31967448120896302 0.6260259075221829 0.091994420455581372 -0.37125439762514412 0.61819827203191735 -0.16416841024858575 -0.086419107884645574 0.71414527645261972 0.73148793483411145 0.79661870934492862 0.67563354958692634 0.51747823482595545 0.69392409507672392 0.65480031748387124 0.77767752825723024 0.90535517500460938 0.60936166564190197 0.47388027213728662 0.64631955254300077 0.47829962668832704 0.62344846049855562 0.714937682766419 0.41584984735805031 0.67254406861673155 0.76296824248114659 0.38357625624942765 0.52112947339924631 0.69607632552300858 0.42923294394458761 0.75618426750339307 0.84723094756217976 0.40988006558743983 0.34048984963920803 0.66496641520192534 0.48533429240960868 0.55366770423914979 0.58776162504503837 0.47756984501937921 0.60056057978134447 0.6212326369343899 0.45832072571158178 0.40504957575026118 0.64047477230902106 0.47737607772322443 0.57281806889870046 0.51844068072251293 0.45761636843210751 0.88089607527072855 0.89055430686142045 0.61633859805552293 0.67316244675165204 0.32601758924717311 0.46160725223694576 1.1572668439083131 0.64116088817869199 0.50968810073236637 0.62403848101360215 0.4541600171368429 0.45366310580026381 0.75618426750339307 -0.15276905243782024 0.40988006558743983 0.88089607527072855 -0.10944569313857955 0.61633859805552293 0.70112565973995833 1.2035671728104678 0.38933729444276233 0.67316244675165204 1.3260175892471731 0.46160725223694576 0.15726684390831314 0.64116088817869199 0.50968810073236637 0.74458644290609077 1.2146252979255463 0.54930341802906812 -0.11910392472927145 -0.10944569313857955 0.61633859805552293 0.15726684390831314 -0.35883911182130801 0.50968810073236637 0.5 0 0 0.5 0.5 0 0 0.5 0 0 0 0 -0.18390678264107196 -0.16682648641151865 0.16727399923923789 1 0 0 1 0.5 0 0.5 1 0 0 1 0 1 1 0</DataArray></Points><Cells><DataArray type="Int32" Name="connectivity" format="ascii">0 1 2 3 4 5 6 7 8 0 3 9 10 4 7 11 8 9 12 13 10 11 14 15 16 17 18 19 20 21 22 23 24 9 25 26 27 12 28 29 7 6 21 20 4 5 22 23 10 4 7 11 15 23 20 14 12 13 15 14 28 30 23 20 31 32 33 34 35 36 37 38 34 33 39 40 38 37 41 42 43 44 45 46 47 48 49 50 51 31 34 52 53 35 38 54 52 34 40 55 54 38 42 56 55 40 44 43 56 42 48 47 40 39 57 44 42 41 58 48 59 52 55 60 61 54 56 62 62 56 47 63 61 54 64 65 37 66 67 41 68 69 70 58 38 37 41 42 71 68 58 48 48 58 72 73 71 68 74 75 68 69 70 58 74 76 77 72 38 37 68 71 54 64 74 75 56 42 48 47 78 79 73 80 56 47 64 54 78 80 74 75 9 3 16 25 81 82 83 84 81 82 83 84 42 56 78 79 25 16 19 28 84 83 85 86 84 83 85 86 79 78 80 73 3 9 11 7 82 81 87 88 82 81 87 88 56 42 38 54 9 12 14 11 81 89 90 87 81 89 90 87 42 48 71 38 18 19 23 22 91 85 92 93 91 85 92 93 47 80 74 64 19 16 20 23 85 83 94 92 85 83 94 92 80 78 75 74 9 25 28 12 81 84 86 89 81 84 86 89 42 79 73 48 16 3 7 20 83 82 88 94 83 82 88 94 78 56 54 75 4 5 22 23 95 96 93 92 95 96 93 92 68 37 64 74 28 19 97 30 86 85 98 99 86 85 98 99 73 80 100 72 7 11 14 20 88 87 90 94 88 87 90 94 54 38 71 75 28 30 23 20 86 99 92 94 86 99 92 94 73 72 74 75 13 15 23 30 101 102 92 99 101 102 92 99 77 76 74 72 14 12 28 20 90 89 86 94 90 89 86 94 71 48 73 75 103 104 105 106 8 9 24 107 108 109 104 103 0 3 9 8 104 110 111 105 9 25 26 24 109 112 110 104 3 16 25 9</DataArray><DataArray type="Int32" Name="offsets" format="ascii">8 16 24 32 40 48 56 64 72 80 88 96 104 112 120 128 136 144 152 160 168 176 184 192 200 208 216 224 232 240 248 256 264 272 280 288 296 304 312 320 328 336 344 352 360 368 376 384 392 400 408 416 424 432 440 448</DataArray><DataArray type="Int32" Name="types" format="ascii">12 12 12 12 12 12 12 12 12 12 12 12 12 12 12 12 12 12 12 12 12 12 12 12 12 12 12 12 12 12 12 12 12 12 12 12 12 12 12 12 12 12 12 12 12 12 12 12 12 12 12 12 12 12 12 12</DataArray></Cells></Piece></UnstructuredGrid></VTKFile>