<?xml version='1.0' encoding='utf-8'?>
<VTKFile type="UnstructuredGrid" version="0.1" byte_order="LittleEndian"><UnstructuredGrid><Piece NumberOfPoints="111" NumberOfCells="56"><Points><DataArray type="Float64" NumberOfComponents="3" format="ascii">0.78524115040476017 -0.25066676059889714 0.16240709800373862 1.277388447767227 -0.4411678749289154 0.17553638025429619 1.3713900487129829 0.46381380652806414 0.054365874243278607 0.69373019763023469 0.510629257068556 0.078380819682902947 0.85204242880374614 -0.14647576213910518 0.33477390887283048 0.95605869427902079 -0.1484756611061776 0.45585368293992445 1.3772146014056106 0.50149725938533951 0.26522741909397168 0.66152687484103512 0.32817644280233799 0.19841072148762673 0.27738844776722704 -0.4411678749289154 0.17553638025429619 0.37139004871298287 0.46381380652806414 0.054365874243278607 0.21763489315870424 -0.3911516268653692 0.37563186410429567 0.52146499986853523 0.39470900416067606 0.1772400156361276 0.37721460140561058 0.50149725938533951 0.26522741909397168 -0.043941305720979207 -0.1484756611061776 0.45585368293992445 0.52754917194080475 0.40268111766994924 0.26989203789596627 0.067194083415764841 -0.38037325558439627 0.48335778990379097 0.78524115040476017 0.74933323940110286 0.16240709800373862 1.277388447767227 0.5588321250710846 0.17553638025429619 0.95605869427902079 0.8515243388938224 0.45585368293992445 0.85204242880374614 0.85352423786089482 0.33477390887283048 0.68139388681374147 0.29896639645789586 0.37970430088040058 1.2176348931587042 0.6088483731346308 0.37563186410429567 1.0671940834157649 0.61962674441560373 0.48335778990379097 0.71582180312367005 0.19010882039442775 0.50273880844195584 -0.30626980236976531 0.510629257068556 0.078380819682902947 0.27738844776722704 0.5588321250710846 0.17553638025429619 -0.21475884959523983 0.74933323940110286 0.16240709800373862 -0.33847312515896488 0.32817644280233799 0.19841072148762673 0.21763489315870424 0.6088483731346308 0.37563186410429567 -0.31860611318625853 0.29896639645789586 0.37970430088040058 0.067194083415764841 0.61962674441560373 0.48335778990379097 0.75 0 1 0.5 -0.25 1 0.25 0 1 0.5 0.25 1 0.77887230645590777 0.089602135139192018 0.97006065797340002 0.56637036438193189 -0.24149767994117122 0.86654773929377793 0.54564782853492011 0.018448954494322999 0.82321095406322164 0.58922873755041438 0.44139569638397264 0.90813551666520798 0 0.25 1 0.25 0.5 1 0.047488331535570555 0.31038504534784062 0.96471544332798609 0.3990423074686098 0.60570387425398386 0.91702242047298943 0 -0.25 1 -0.25 0 1 0.27933893044229641 -0.37189119267281123 0.87860888182558816 -0.22112769354409223 0.089602135139192018 0.97006065797340002 1 0.25 1 0.75 0.5 1 1.0474883315355705 0.31038504534784062 0.96471544332798609 0.79610401737344116 0.6000779908355296 0.86612271072197544 0.5 0.75 1 0.56637036438193189 0.75850232005882878 0.86654773929377793 0 0.75 1 0.25 1 1 0.27933893044229641 0.62810880732718877 0.87860888182558816 0.54564782853492011 1.0184489544943229 0.82321095406322164 -0.25 0.5 1 -0.20389598262655884 0.6000779908355296 0.86612271072197544 1 0.75 1 0.75 1 1 1.2793389304422964 0.62810880732718877 0.87860888182558816 0.77887230645590777 1.089602135139192 0.97006065797340002 0.58922873755041438 1.4413956963839727 0.90813551666520798 0.98850600818885859 0.59824220280321272 0.76354374409650816 1.2223798891096318 0.66703312980445206 0.79301378465506822 0.52462887340630471 0.078629413191749931 0.77429859432820791 0.2223798891096318 -0.33296687019554794 0.79301378465506822 -0.41077126244958562 0.44139569638397264 0.90813551666520798 0.56532474099932895 0.39876554472776382 0.85431951176238086 -0.011493991811141413 0.59824220280321272 0.76354374409650816 0.2223798891096318 0.66703312980445206 0.79301378465506822 0.56368845176958493 0.28378843161126394 0.72704134308752189 0.58001958098030315 0.36816379633719459 0.75371913083886155 -0.011493991811141413 -0.40175779719678728 0.76354374409650816 -0.45435217146507989 0.018448954494322999 0.82321095406322164 0.57958709914569839 0.79579558190703614 0.74657961329612421 0.48651696078528417 0.7186685133909656 0.77923133475502093 0.52462887340630471 1.07862941319175 0.77429859432820791 0.57430832832115142 0.65207226798864382 0.55012495547402196 0.69370346119412218 0.70687197949965008 0.55785958306753469 0.74172145975936499 0.75011658353290078 0.4914503725677799 0.45539059571745999 0.65806455139150111 0.51827300965325351 0.82131705022955259 0.83611373592641502 0.46081173806856646 0.31625088146808666 0.65311646000957824 0.56856409768775895 0.58565368248783234 0.58696310388045214 0.58538523229710215 0.65177122918568986 0.53689164651065879 0.62168725200868269 0.46359016591816427 0.61164496344662733 0.57578832370176691 0.53197761257863507 0.56853336066334026 0.57912819054166509 0.95240401849079126 0.81209577798851407 0.57155180679213524 0.69999764401937603 0.29269359728559646 0.59984664915264696 1.0507665507499051 0.63494755586224383 0.64546146283235617 0.66370348669415469 0.42928331197217595 0.58746236600355628 0.82131705022955259 -0.16388626407358498 0.46081173806856646 0.95240401849079126 -0.18790422201148593 0.57155180679213524 0.71582180312367005 1.1901088203944277 0.50273880844195584 0.69999764401937603 1.2926935972855964 0.59984664915264696 0.050766550749905104 0.63494755586224383 0.64546146283235617 0.56368845176958493 1.283788431611264 0.72704134308752189 -0.04759598150920874 -0.18790422201148593 0.57155180679213524 0.050766550749905104 -0.36505244413775617 0.64546146283235617 0.5 0 0 0.5 0.5 0 0 0.5 0 0 0 0 -0.21475884959523983 -0.25066676059889714 0.16240709800373862 1 0 0 1 0.5 0 0.5 1 0 0 1 0 1 1 0</DataArray></Points><Cells><DataArray type="Int32" Name="connectivity" format="ascii">0 1 2 3 4 5 6 7 8 0 3 9 10 4 7 11 8 9 12 13 10 11 14 15 16 17 18 19 20 21 22 23 24 9 25 26 27 12 28 29 7 6 21 20 4 5 22 23 10 4 7 11 15 23 20 14 12 13 15 14 28 30 23 20 31 32 33 34 35 36 37 38 34 33 39 40 38 37 41 42 33 43 44 39 37 45 46 41 47 31 34 48 49 35 38 50 48 34 40 51 50 38 42 52 51 40 53 54 52 42 55 56 40 39 57 53 42 41 58 55 59 48 51 60 61 50 52 62 62 52 56 63 61 50 64 65 37 45 46 41 66 67 68 58 38 37 41 42 69 66 58 55 55 58 70 71 69 66 72 73 66 67 68 58 72 74 75 70 38 37 66 69 50 64 72 73 52 42 55 56 76 77 71 78 9 3 16 25 79 80 81 82 79 80 81 82 42 52 76 77 25 16 19 28 82 81 83 84 82 81 83 84 77 76 78 71 3 9 11 7 80 79 85 86 80 79 85 86 52 42 38 50 9 12 14 11 79 87 88 85 79 87 88 85 42 55 69 38 18 19 23 22 89 83 90 91 19 16 20 23 83 81 92 90 9 25 28 12 79 82 84 87 79 82 84 87 42 77 71 55 16 3 7 20 81 80 86 92 4 5 22 23 93 94 91 90 93 94 91 90 66 37 64 72 28 19 95 30 84 83 96 97 84 83 96 97 71 78 98 70 7 11 14 20 86 85 88 92 86 85 88 92 50 38 69 73 28 30 23 20 84 97 90 92 84 97 90 92 71 70 72 73 13 15 23 30 99 100 90 97 99 100 90 97 75 74 72 70 14 12 28 20 88 87 84 92 88 87 84 92 69 55 71 73 101 102 103 104 8 9 24 105 106 107 102 101 0 3 9 8 102 108 109 103 9 25 26 24 107 110 108 102 3 16 25 9 56 52 76 78 89 80 81 83 50 64 72 73 86 91 90 92 52 56 64 50 80 89 91 86 80 89 91 86 81 83 90 92</DataArray><DataArray type="Int32" Name="offsets" format="ascii">8 16 24 32 40 48 56 64 72 80 88 96 104 112 120 128 136 144 152 160 168 176 184 192 200 208 216 224 232 240 248 256 264 272 280 288 296 304 312 320 328 336 344 352 360 368 376 384 392 400 408 416 424 432 440 448</DataArray><DataArray type="Int32" Name="types" format="ascii">12 12 12 12 12 12 12 12 12 12 12 12 12 12 12 12 12 12 12 12 12 12 12 12 12 12 12 12 12 12 12 12 12 12 12 12 12 12 12 12 12 12 12 12 12 12 12 12 12 12 12 12 12 12 12 12</DataArray></Cells></Piece></UnstructuredGrid></VTKFile>