<?xml version='1.0' encoding='utf-8'?>
<VTKFile type="UnstructuredGrid" version="0.1" byte_order="LittleEndian"><UnstructuredGrid><Piece NumberOfPoints="140" NumberOfCells="86"><Points><DataArray type="Float64" NumberOfComponents="3" format="ascii">0.74213396515189745 0.98359473888029214 0.29459534536900273 0.5 1 0 1 1 0 1.1726488169868796 1.0398379757613978 0.52877998105191859 0.73119680565731726 0.617858567390975 0.16154253594513301 0.5 0.5 0 1 0.5 0 1.0393350903768559 0.58768822268354848 0.17293511763835237 0.38529678729402611 1.0742347719687817 0.33322045121114602 0.28968601628548701 0.61759081124758453 0.17645943573536063 0.57407786025541785 1.0304547888136726 0.36175602929298617 0.50214947098681129 0.70691855621001876 0.25557029653778623 0.039335090376855897 0.58768822268354848 0.17293511763835237 0 0.5 0 0.17264881698687962 1.0398379757613978 0.52877998105191859 0 1 0 1.0754656966806824 0.5321456640802763 0.27740464975336099 0.81458986085538743 0.53902577017269127 0.22698021101094285 0.8654416950772208 0.50029564789252579 0.37958675004128106 1.1564210583663368 0.54100598554645118 0.48291453958343983 0.69705066946781435 0.36789667219436301 0.40158719331577131 0.77491846060969949 0.3567582569431173 0.49870682575485575 0.5736005554727629 0.57896841778304475 0.39676250976908789 0.67349750032353495 0.54089470965495656 0.48124411770743586 0.65883348965048549 1.0550686869209565 0.50497809262866267 0.48398648865474486 0.72171931203844686 0.47714864238360744 0.47554089183393533 0.70227864935123963 0.38140917794118484 0.4821303501071284 0.64316514870229835 0.30124265144695023 0.63062921012539563 0.57235233319772572 0.25946283189533909 0.67214146315271361 0.48208170739371631 0.28687061042359507 0.79269067593593423 0.41637884481783233 0.16323855824243766 1.1195937510914593 0.46127081525255714 0.16586404836780441 0.6479915019586634 0.41646710073901455 0.21690284366977397 0.36272408368383097 0.44995535605407577 0.12509157287022921 0.31121984612174636 0.54295801707170321 0.25986904941756472 0.5 0 0 1 0 0 0.74213396515189745 -0.016405261119707859 0.29459534536900273 1.1726488169868796 0.039837975761397804 0.52877998105191859 0.07546569668068237 0.5321456640802763 0.27740464975336099 0.11959375109145931 0.46127081525255714 0.16586404836780441 0.57407786025541785 0.030454788813672584 0.36175602929298617 0.38529678729402611 0.074234771968781699 0.33322045121114602 0.17264881698687962 0.039837975761397804 0.52877998105191859 0 0 0 0.1564210583663368 0.54100598554645118 0.48291453958343983 0.28756782912953288 0.56115989549870282 0.3971867143358439 0.65883348965048549 0.055068686920956456 0.50497809262866267 0.93292356872511473 0.73807875397647726 0.69119747674476251 0.70360454366978342 0.85810338739698311 0.60620023818577717 0.57606987680541966 0.64383452434058352 0.57488926682132691 0.70667411171634398 0.52067800408418374 0.6361585237154268 0.78134004463971729 0.40534599274164829 0.56066815268497916 1.0282124625380993 0.55912196541701398 0.58914610226564867 0.48316649289900493 0.74477369049507713 0.62199650832848508 0.38787516424478302 0.55783969177683579 0.59089623372644406 0.67611785725480977 0.18631837609846591 0.57972139045463322 0.50588685929650212 0.31128953184420399 0.71254282342799657 0.68496206976216112 0.52766742348067897 0.85215078688221602 0.88643043661789855 0.34585181194184211 0.62287957380030523 0.38334039964848116 0.85611806669737756 0.74385409282000647 0.50001614014741225 0.75017924211284015 1 0.2500161401474123 1.0001792421128402 1 0.14822592704402149 0.62052689843783126 0.90814723720223012 0.25001614014741236 0.50017924211284015 1 1.6140147412338095e-05 0.75017924211284015 1 -0.031811038936369718 0.77323913969138747 0.88506514129288372 0.60027591568486927 0.62077690250082485 0.86325831005233211 0.40284837917662586 0.48345266136995113 0.90813838865855223 0.47906019268245503 0.771163195191786 0.71542665668155558 0.33169945895438185 0.53816811922133256 0.84637304313842732 0.58552927099344765 0.35370634191365646 0.90197130890776422 0.50001614014741225 0.25017924211284015 1 0.75001614014741225 0.50017924211284015 1 -0.096319244892156153 0.74234956901780946 0.82019300285464691 0.061382125949067397 0.56089072603354317 0.85175438075364307 0.084313052704359265 0.66642853691146275 0.6952701950875293 -0.067076431274885273 0.73807875397647726 0.69119747674476251 0.08684895948347772 0.56354003881807435 0.63178514986043188 0.028212462538099281 0.55912196541701398 0.58914610226564867 0.21291108707068568 0.5251680979173079 0.60640229211317276 0.33005882208022003 0.52272908039789645 0.63324557008131144 0.29429072290175168 0.50469940626507315 0.76895564114780235 0.23498768833021971 0.50426504074875267 0.78562975635781163 0.12407125676820116 0.51829669669932488 0.74421419591182592 -0.0082707609866848886 0.48983847716862977 0.87849290952472314 -0.1177911522054722 0.6604161424706434 0.90281867887235001 0.057460875748533535 0.44541653225420363 0.78369708162091067 0.24997439265794702 0.41764606167564883 0.90261693352479289 0.32299004961180477 0.42489789089859692 0.82868785925742083 1.0000161401474124 0.75017924211284015 1 1.2500161401474124 0.50017924211284015 1 1.0000161401474124 0.25017924211284015 1 0.8822088477945278 0.6604161424706434 0.90281867887235001 0.99172923901331511 0.48983847716862977 0.87849290952472314 0.78654121746551897 0.41502865356253199 0.84602062077974172 0.49033281734302964 0.32031625971686595 0.80145527852484544 0.43498112821612583 0.25106270376395301 0.88609865472268512 -0.094779073328944752 0.31696754382559539 0.68986384650997845 -0.21345878253448103 0.41502865356253199 0.84602062077974172 0.024449630129210004 0.22164540026614396 0.72221904762750433 1.6140147412357919e-05 0.25017924211284015 1 0.2500161401474123 0.00017924211284015001 1 0.34197593656019726 0.39553780032929664 0.70326244328319398 -0.11356956338210145 0.34585181194184211 0.62287957380030523 0.90368075510784385 0.74234956901780946 0.82019300285464691 1.0613821259490674 0.56089072603354317 0.85175438075364307 1.0843130527043592 0.66642853691146275 0.6952701950875293 1.0868489594834778 0.56354003881807435 0.63178514986043188 0.90522092667105525 0.31696754382559539 0.68986384650997845 1.0244496301292101 0.22164540026614396 0.72221904762750433 1.2500161401474124 0.00017924211284015001 1 0.75001614014741225 0.00017924211284015001 1 0.82327336914736027 -0.02018763373331478 0.90855183805911 0.96818896106363028 -0.22676086030861253 0.88506514129288372 1.0000161401474124 -0.24982075788715985 1 0.73821848718481553 0.26495617083971473 0.86837331314230637 0.787813025281489 0.17994308355459793 0.78015304176083933 0.81057713128186237 0.91232328772834159 0.83919497540490928 0.84974742848681928 0.90228474160422512 0.69278999199341129 0.82327336914736027 0.97981236626668522 0.90855183805911 0.96818896106363028 0.77323913969138747 0.88506514129288372 1.0244496301292101 1.2216454002661439 0.72221904762750433 0.72245300262156154 0.90556956466180705 0.62925660905485192 0.69810974749379717 1.0192354979476417 0.59583848596221289 0.66876504751322641 0.1485239907988459 0.61167088578744166 0.69810974749379717 0.019235497947641678 0.59583848596221289 0.72003110281945526 0.096215513517877313 0.75731141456887163 0.72381341590079595 0.0016642722283342071 0.77567962135039481 0.72381341590079595 1.0016642722283342 0.77567962135039481 0.72823867452535995 0.93541554448876785 0.75545369803336249 0.75001614014741225 1.0001792421128402 1 0.75894572369127211 0.82840340561091219 0.90657726714331255 0.69591665494515387 0.89860930379912374 0.84086642533619393 0.62371266506499401 1.1067529449087501 0.90230131418931114 0.62371266506499401 0.10675294490875009 0.90230131418931114 0.69243520554373816 0.20976584541645524 0.84647140016167188 0.50001614014741225 -0.24982075788715985 1 0.38334039964848116 -0.14388193330262244 0.74385409282000647 0.5758245888873198 0.17076236782253024 0.68854027115708372</DataArray></Points><Cells><DataArray type="Int32" Name="connectivity" format="ascii">0 1 2 3 4 5 6 7 8 9 5 1 10 11 4 0 12 9 5 13 14 8 1 15 16 17 18 19 7 4 0 3 19 18 20 21 3 0 22 23 24 10 0 3 25 26 22 23 26 27 11 10 22 28 4 0 22 28 4 0 20 29 17 18 7 4 5 6 16 17 30 31 29 32 33 28 17 30 5 4 28 33 34 27 4 5 9 11 6 5 35 36 31 30 37 38 39 34 33 40 12 9 5 13 41 32 30 37 42 33 5 35 13 40 43 44 5 33 42 35 45 46 42 43 39 34 33 40 21 20 41 47 23 22 42 43 25 26 22 23 45 46 42 43 22 28 33 42 26 27 34 46 20 29 32 41 22 28 33 42 16 17 30 31 19 18 37 38 20 29 17 18 41 32 30 37 19 18 37 38 21 20 41 47 45 46 8 14 25 26 10 24 46 34 9 8 26 27 11 10 39 34 9 12 45 46 8 14 3 24 25 23 48 49 50 51 21 19 3 23 52 53 48 51 14 45 25 24 54 55 50 49 47 21 23 43 56 52 51 57 58 48 53 59 57 51 52 56 59 53 19 38 56 52 21 47 58 57 55 54 48 51 50 49 45 55 57 43 25 50 51 23 60 61 62 14 63 64 65 66 67 68 64 61 69 70 63 60 71 68 64 72 58 67 61 73 74 75 76 77 66 63 60 14 77 76 78 79 14 60 80 45 54 69 60 14 55 81 80 45 81 82 70 69 80 83 63 60 80 83 63 60 78 84 75 76 66 63 64 65 74 75 85 86 84 87 88 83 75 85 64 63 83 88 89 82 63 64 68 70 90 91 92 73 93 94 95 58 96 89 88 97 71 68 64 72 98 87 85 99 100 88 64 101 72 97 43 102 64 88 100 101 57 103 100 43 96 89 88 97 79 78 98 104 45 80 100 43 55 81 80 45 57 103 100 43 80 83 88 100 81 82 89 103 78 84 87 98 80 83 88 100 105 106 94 93 48 107 95 58 78 84 75 76 98 87 85 99 48 107 95 58 53 108 109 59 57 103 67 58 55 81 69 54 103 89 68 67 81 82 70 69 96 89 68 71 57 103 67 58 92 110 38 111 112 113 114 115 116 95 92 112 117 109 110 113 116 71 72 112 95 58 73 92 118 105 48 119 120 121 3 122 119 48 49 123 122 3 24 124 109 59 38 110 125 56 47 126 127 125 109 117 128 126 110 113 129 124 122 120 130 123 119 118 120 121 90 131 118 105 93 132 133 130 129 134 132 118 120 131 135 128 127 136 112 113 117 116 131 90 73 61 132 93 58 67 136 96 97 135 116 71 72 112 133 69 67 132 134 60 61 131 97 72 102 43 135 112 137 138 139 57 43 138 136 96 97 135 123 49 54 69 124 24 14 60 125 56 47 126 139 57 43 138 128 126 138 135 127 125 139 136 130 123 69 133 129 124 60 134 118 105 93 132 119 48 58 67 130 123 119 118 133 69 67 132 119 48 58 67 123 49 54 69 139 57 58 95 125 56 59 109 136 139 95 116 127 125 109 117 136 96 71 116 139 57 58 95</DataArray><DataArray type="Int32" Name="offsets" format="ascii">8 16 24 32 40 48 56 64 72 80 88 96 104 112 120 128 136 144 152 160 168 176 184 192 200 208 216 224 232 240 248 256 264 272 280 288 296 304 312 320 328 336 344 352 360 368 376 384 392 400 408 416 424 432 440 448 456 464 472 480 488 496 504 512 520 528 536 544 552 560 568 576 584 592 600 608 616 624 632 640 648 656 664 672 680 688</DataArray><DataArray type="Int32" Name="types" format="ascii">12 12 12 12 12 12 12 12 12 12 12 12 12 12 12 12 12 12 12 12 12 12 12 12 12 12 12 12 12 12 12 12 12 12 12 12 12 12 12 12 12 12 12 12 12 12 12 12 12 12 12 12 12 12 12 12 12 12 12 12 12 12 12 12 12 12 12 12 12 12 12 12 12 12 12 12 12 12 12 12 12 12 12 12 12 12</DataArray></Cells></Piece></UnstructuredGrid></VTKFile>