<?xml version='1.0' encoding='utf-8'?>
<VTKFile type="UnstructuredGrid" version="0.1" byte_order="LittleEndian"><UnstructuredGrid><Piece NumberOfPoints="470" NumberOfCells="344"><Points><DataArray type="Float64" NumberOfComponents="3" format="ascii">0.74213396515189745 0.98359473888029214 0.29459534536900273 0.5 1 0 1 1 0 1.1726488169868796 1.0398379757613978 0.52877998105191859 0.73119680565731726 0.617858567390975 0.16154253594513301 0.5 0.5 0 1 0.5 0 1.0393350903768559 0.58768822268354848 0.17293511763835237 0.38529678729402611 1.0742347719687817 0.33322045121114602 0.28968601628548701 0.61759081124758453 0.17645943573536063 0.57407786025541785 1.0304547888136726 0.36175602929298617 0.50214947098681129 0.70691855621001876 0.25557029653778623 0.039335090376855897 0.58768822268354848 0.17293511763835237 0 0.5 0 0.17264881698687962 1.0398379757613978 0.52877998105191859 0 1 0 1.0754656966806824 0.5321456640802763 0.27740464975336099 0.81458986085538743 0.53902577017269127 0.22698021101094285 0.8654416950772208 0.50029564789252579 0.37958675004128106 1.1564210583663368 0.54100598554645118 0.48291453958343983 0.69705066946781435 0.36789667219436301 0.40158719331577131 0.77491846060969949 0.3567582569431173 0.49870682575485575 0.5736005554727629 0.57896841778304475 0.39676250976908789 0.67349750032353495 0.54089470965495656 0.48124411770743586 0.65883348965048549 1.0550686869209565 0.50497809262866267 0.48398648865474486 0.72171931203844686 0.47714864238360744 0.47554089183393533 0.70227864935123963 0.38140917794118484 0.4821303501071284 0.64316514870229835 0.30124265144695023 0.63062921012539563 0.57235233319772572 0.25946283189533909 0.67214146315271361 0.48208170739371631 0.28687061042359507 0.79269067593593423 0.41637884481783233 0.16323855824243766 1.1195937510914593 0.46127081525255714 0.16586404836780441 0.6479915019586634 0.41646710073901455 0.21690284366977397 0.36272408368383097 0.44995535605407577 0.12509157287022921 0.31121984612174636 0.54295801707170321 0.25986904941756472 0.5 0 0 1 0 0 0.74213396515189745 -0.016405261119707859 0.29459534536900273 1.1726488169868796 0.039837975761397804 0.52877998105191859 0.07546569668068237 0.5321456640802763 0.27740464975336099 0.11959375109145931 0.46127081525255714 0.16586404836780441 0.57407786025541785 0.030454788813672584 0.36175602929298617 0.38529678729402611 0.074234771968781699 0.33322045121114602 0.17264881698687962 0.039837975761397804 0.52877998105191859 0 0 0 0.1564210583663368 0.54100598554645118 0.48291453958343983 0.28756782912953288 0.56115989549870282 0.3971867143358439 0.65883348965048549 0.055068686920956456 0.50497809262866267 0.93292356872511473 0.73807875397647726 0.69119747674476251 0.70360454366978342 0.85810338739698311 0.60620023818577717 0.57606987680541966 0.64383452434058352 0.57488926682132691 0.70667411171634398 0.52067800408418374 0.6361585237154268 0.78134004463971729 0.40534599274164829 0.56066815268497916 1.0282124625380993 0.55912196541701398 0.58914610226564867 0.48316649289900493 0.74477369049507713 0.62199650832848508 0.38787516424478302 0.55783969177683579 0.59089623372644406 0.67611785725480977 0.18631837609846591 0.57972139045463322 0.50588685929650212 0.31128953184420399 0.71254282342799657 0.68496206976216112 0.52766742348067897 0.85215078688221602 0.88643043661789855 0.34585181194184211 0.62287957380030523 0.38334039964848116 0.85611806669737756 0.74385409282000647 0.50001614014741225 0.75017924211284015 1 0.2500161401474123 1.0001792421128402 1 0.14822592704402149 0.62052689843783126 0.90814723720223012 0.25001614014741236 0.50017924211284015 1 1.6140147412338095e-05 0.75017924211284015 1 -0.031811038936369718 0.77323913969138747 0.88506514129288372 0.60027591568486927 0.62077690250082485 0.86325831005233211 0.40284837917662586 0.48345266136995113 0.90813838865855223 0.47906019268245503 0.771163195191786 0.71542665668155558 0.33169945895438185 0.53816811922133256 0.84637304313842732 0.58552927099344765 0.35370634191365646 0.90197130890776422 0.50001614014741225 0.25017924211284015 1 0.75001614014741225 0.50017924211284015 1 -0.096319244892156153 0.74234956901780946 0.82019300285464691 0.061382125949067397 0.56089072603354317 0.85175438075364307 0.084313052704359265 0.66642853691146275 0.6952701950875293 -0.067076431274885273 0.73807875397647726 0.69119747674476251 0.08684895948347772 0.56354003881807435 0.63178514986043188 0.028212462538099281 0.55912196541701398 0.58914610226564867 0.21291108707068568 0.5251680979173079 0.60640229211317276 0.33005882208022003 0.52272908039789645 0.63324557008131144 0.29429072290175168 0.50469940626507315 0.76895564114780235 0.23498768833021971 0.50426504074875267 0.78562975635781163 0.12407125676820116 0.51829669669932488 0.74421419591182592 -0.0082707609866848886 0.48983847716862977 0.87849290952472314 -0.1177911522054722 0.6604161424706434 0.90281867887235001 0.057460875748533535 0.44541653225420363 0.78369708162091067 0.24997439265794702 0.41764606167564883 0.90261693352479289 0.32299004961180477 0.42489789089859692 0.82868785925742083 1.0000161401474124 0.75017924211284015 1 1.2500161401474124 0.50017924211284015 1 1.0000161401474124 0.25017924211284015 1 0.8822088477945278 0.6604161424706434 0.90281867887235001 0.99172923901331511 0.48983847716862977 0.87849290952472314 0.78654121746551897 0.41502865356253199 0.84602062077974172 0.49033281734302964 0.32031625971686595 0.80145527852484544 0.43498112821612583 0.25106270376395301 0.88609865472268512 -0.094779073328944752 0.31696754382559539 0.68986384650997845 -0.21345878253448103 0.41502865356253199 0.84602062077974172 0.024449630129210004 0.22164540026614396 0.72221904762750433 1.6140147412357919e-05 0.25017924211284015 1 0.2500161401474123 0.00017924211284015001 1 0.34197593656019726 0.39553780032929664 0.70326244328319398 -0.11356956338210145 0.34585181194184211 0.62287957380030523 0.90368075510784385 0.74234956901780946 0.82019300285464691 1.0613821259490674 0.56089072603354317 0.85175438075364307 1.0843130527043592 0.66642853691146275 0.6952701950875293 1.0868489594834778 0.56354003881807435 0.63178514986043188 0.90522092667105525 0.31696754382559539 0.68986384650997845 1.0244496301292101 0.22164540026614396 0.72221904762750433 1.2500161401474124 0.00017924211284015001 1 0.75001614014741225 0.00017924211284015001 1 0.82327336914736027 -0.02018763373331478 0.90855183805911 0.96818896106363028 -0.22676086030861253 0.88506514129288372 1.0000161401474124 -0.24982075788715985 1 0.73821848718481553 0.26495617083971473 0.86837331314230637 0.787813025281489 0.17994308355459793 0.78015304176083933 0.81057713128186237 0.91232328772834159 0.83919497540490928 0.84974742848681928 0.90228474160422512 0.69278999199341129 0.82327336914736027 0.97981236626668522 0.90855183805911 0.96818896106363028 0.77323913969138747 0.88506514129288372 1.0244496301292101 1.2216454002661439 0.72221904762750433 0.72245300262156154 0.90556956466180705 0.62925660905485192 0.69810974749379717 1.0192354979476417 0.59583848596221289 0.66876504751322641 0.1485239907988459 0.61167088578744166 0.69810974749379717 0.019235497947641678 0.59583848596221289 0.72003110281945526 0.096215513517877313 0.75731141456887163 0.72381341590079595 0.0016642722283342071 0.77567962135039481 0.72381341590079595 1.0016642722283342 0.77567962135039481 0.72823867452535995 0.93541554448876785 0.75545369803336249 0.75001614014741225 1.0001792421128402 1 0.75894572369127211 0.82840340561091219 0.90657726714331255 0.69591665494515387 0.89860930379912374 0.84086642533619393 0.62371266506499401 1.1067529449087501 0.90230131418931114 0.62371266506499401 0.10675294490875009 0.90230131418931114 0.69243520554373816 0.20976584541645524 0.84647140016167188 0.50001614014741225 -0.24982075788715985 1 0.38334039964848116 -0.14388193330262244 0.74385409282000647 0.5758245888873198 0.17076236782253024 0.68854027115708372 0.74213396515189745 1.9835947388802921 0.29459534536900273 0.5 2 0 1 2 0 1.1726488169868796 2.0398379757613978 0.52877998105191859 0.73119680565731726 1.6178585673909751 0.16154253594513301 0.5 1.5 0 1 1.5 0 1.0393350903768559 1.5876882226835485 0.17293511763835237 0.38529678729402611 2.0742347719687819 0.33322045121114602 0.28968601628548701 1.6175908112475845 0.17645943573536063 0.57407786025541785 2.0304547888136728 0.36175602929298617 0.50214947098681129 1.7069185562100189 0.25557029653778623 0.039335090376855897 1.5876882226835485 0.17293511763835237 0 1.5 0 0.17264881698687962 2.0398379757613978 0.52877998105191859 0 2 0 1.0754656966806824 1.5321456640802764 0.27740464975336099 0.81458986085538743 1.5390257701726913 0.22698021101094285 0.8654416950772208 1.5002956478925258 0.37958675004128106 1.1564210583663368 1.5410059855464513 0.48291453958343983 0.69705066946781435 1.3678966721943631 0.40158719331577131 0.77491846060969949 1.3567582569431174 0.49870682575485575 0.5736005554727629 1.5789684177830448 0.39676250976908789 0.67349750032353495 1.5408947096549566 0.48124411770743586 0.65883348965048549 2.0550686869209565 0.50497809262866267 0.48398648865474486 1.7217193120384469 0.47714864238360744 0.47554089183393533 1.7022786493512396 0.38140917794118484 0.4821303501071284 1.6431651487022982 0.30124265144695023 0.63062921012539563 1.5723523331977258 0.25946283189533909 0.67214146315271361 1.4820817073937163 0.28687061042359507 0.79269067593593423 1.4163788448178323 0.16323855824243766 1.1195937510914593 1.4612708152525571 0.16586404836780441 0.6479915019586634 1.4164671007390146 0.21690284366977397 0.36272408368383097 1.4499553560540757 0.12509157287022921 0.31121984612174636 1.5429580170717032 0.25986904941756472 0.07546569668068237 1.5321456640802764 0.27740464975336099 0.11959375109145931 1.4612708152525571 0.16586404836780441 0.1564210583663368 1.5410059855464513 0.48291453958343983 0.28756782912953288 1.5611598954987027 0.3971867143358439 0.93292356872511473 1.7380787539764773 0.69119747674476251 0.70360454366978342 1.8581033873969832 0.60620023818577717 0.57606987680541966 1.6438345243405834 0.57488926682132691 0.70667411171634398 1.5206780040841839 0.6361585237154268 0.78134004463971729 1.4053459927416483 0.56066815268497916 1.0282124625380993 1.5591219654170141 0.58914610226564867 0.48316649289900493 1.744773690495077 0.62199650832848508 0.38787516424478302 1.5578396917768358 0.59089623372644406 0.67611785725480977 1.1863183760984659 0.57972139045463322 0.50588685929650212 1.3112895318442039 0.71254282342799657 0.68496206976216112 1.5276674234806791 0.85215078688221602 0.88643043661789855 1.3458518119418421 0.62287957380030523 0.38334039964848116 1.8561180666973776 0.74385409282000647 0.50001614014741225 1.7501792421128402 1 0.2500161401474123 2.0001792421128402 1 0.14822592704402149 1.6205268984378312 0.90814723720223012 0.25001614014741236 1.5001792421128402 1 1.6140147412338095e-05 1.7501792421128402 1 -0.031811038936369718 1.7732391396913876 0.88506514129288372 0.60027591568486927 1.620776902500825 0.86325831005233211 0.40284837917662586 1.483452661369951 0.90813838865855223 0.47906019268245503 1.7711631951917859 0.71542665668155558 0.33169945895438185 1.5381681192213326 0.84637304313842732 0.58552927099344765 1.3537063419136564 0.90197130890776422 0.50001614014741225 1.2501792421128402 1 0.75001614014741225 1.5001792421128402 1 -0.096319244892156153 1.7423495690178095 0.82019300285464691 0.061382125949067397 1.5608907260335432 0.85175438075364307 0.084313052704359265 1.6664285369114626 0.6952701950875293 -0.067076431274885273 1.7380787539764773 0.69119747674476251 0.08684895948347772 1.5635400388180742 0.63178514986043188 0.028212462538099281 1.5591219654170141 0.58914610226564867 0.21291108707068568 1.5251680979173079 0.60640229211317276 0.33005882208022003 1.5227290803978963 0.63324557008131144 0.29429072290175168 1.5046994062650731 0.76895564114780235 0.23498768833021971 1.5042650407487526 0.78562975635781163 0.12407125676820116 1.5182966966993248 0.74421419591182592 -0.0082707609866848886 1.4898384771686297 0.87849290952472314 -0.1177911522054722 1.6604161424706434 0.90281867887235001 0.057460875748533535 1.4454165322542036 0.78369708162091067 0.24997439265794702 1.4176460616756488 0.90261693352479289 0.32299004961180477 1.424897890898597 0.82868785925742083 1.0000161401474124 1.7501792421128402 1 1.2500161401474124 1.5001792421128402 1 1.0000161401474124 1.2501792421128402 1 0.8822088477945278 1.6604161424706434 0.90281867887235001 0.99172923901331511 1.4898384771686297 0.87849290952472314 0.78654121746551897 1.415028653562532 0.84602062077974172 0.49033281734302964 1.3203162597168658 0.80145527852484544 0.43498112821612583 1.251062703763953 0.88609865472268512 -0.094779073328944752 1.3169675438255954 0.68986384650997845 -0.21345878253448103 1.415028653562532 0.84602062077974172 0.024449630129210004 1.2216454002661439 0.72221904762750433 1.6140147412357919e-05 1.2501792421128402 1 0.34197593656019726 1.3955378003292966 0.70326244328319398 -0.11356956338210145 1.3458518119418421 0.62287957380030523 0.90368075510784385 1.7423495690178095 0.82019300285464691 1.0613821259490674 1.5608907260335432 0.85175438075364307 1.0843130527043592 1.6664285369114626 0.6952701950875293 1.0868489594834778 1.5635400388180742 0.63178514986043188 0.90522092667105525 1.3169675438255954 0.68986384650997845 1.2500161401474124 1.0001792421128402 1 0.73821848718481553 1.2649561708397148 0.86837331314230637 0.787813025281489 1.1799430835545979 0.78015304176083933 0.81057713128186237 1.9123232877283416 0.83919497540490928 0.84974742848681928 1.902284741604225 0.69278999199341129 0.82327336914736027 1.9798123662666853 0.90855183805911 0.96818896106363028 1.7732391396913876 0.88506514129288372 1.0244496301292101 2.2216454002661439 0.72221904762750433 0.72245300262156154 1.9055695646618069 0.62925660905485192 0.69810974749379717 2.0192354979476415 0.59583848596221289 0.66876504751322641 1.1485239907988458 0.61167088578744166 0.72003110281945526 1.0962155135178773 0.75731141456887163 0.72381341590079595 2.001664272228334 0.77567962135039481 0.72823867452535995 1.9354155444887677 0.75545369803336249 0.75001614014741225 2.0001792421128402 1 0.75894572369127211 1.8284034056109122 0.90657726714331255 0.69591665494515387 1.8986093037991236 0.84086642533619393 0.62371266506499401 2.1067529449087501 0.90230131418931114 0.69243520554373816 1.2097658454164553 0.84647140016167188 0.5758245888873198 1.1707623678225303 0.68854027115708372 1.7421339651518974 0.98359473888029214 0.29459534536900273 1.5 1 0 2 1 0 2.1726488169868796 1.0398379757613978 0.52877998105191859 1.7311968056573173 0.617858567390975 0.16154253594513301 1.5 0.5 0 2 0.5 0 2.0393350903768557 0.58768822268354848 0.17293511763835237 1.3852967872940261 1.0742347719687817 0.33322045121114602 1.2896860162854871 0.61759081124758453 0.17645943573536063 1.574077860255418 1.0304547888136726 0.36175602929298617 1.5021494709868113 0.70691855621001876 0.25557029653778623 2.0754656966806824 0.5321456640802763 0.27740464975336099 1.8145898608553874 0.53902577017269127 0.22698021101094285 1.8654416950772208 0.50029564789252579 0.37958675004128106 2.1564210583663366 0.54100598554645118 0.48291453958343983 1.6970506694678145 0.36789667219436301 0.40158719331577131 1.7749184606096995 0.3567582569431173 0.49870682575485575 1.5736005554727628 0.57896841778304475 0.39676250976908789 1.6734975003235348 0.54089470965495656 0.48124411770743586 1.6588334896504855 1.0550686869209565 0.50497809262866267 1.4839864886547449 0.72171931203844686 0.47714864238360744 1.4755408918339352 0.70227864935123963 0.38140917794118484 1.4821303501071283 0.64316514870229835 0.30124265144695023 1.6306292101253956 0.57235233319772572 0.25946283189533909 1.6721414631527136 0.48208170739371631 0.28687061042359507 1.7926906759359342 0.41637884481783233 0.16323855824243766 2.1195937510914593 0.46127081525255714 0.16586404836780441 1.6479915019586633 0.41646710073901455 0.21690284366977397 1.362724083683831 0.44995535605407577 0.12509157287022921 1.3112198461217464 0.54295801707170321 0.25986904941756472 1.5 0 0 2 0 0 1.7421339651518974 -0.016405261119707859 0.29459534536900273 2.1726488169868796 0.039837975761397804 0.52877998105191859 1.574077860255418 0.030454788813672584 0.36175602929298617 1.3852967872940261 0.074234771968781699 0.33322045121114602 1.2875678291295329 0.56115989549870282 0.3971867143358439 1.6588334896504855 0.055068686920956456 0.50497809262866267 1.9329235687251147 0.73807875397647726 0.69119747674476251 1.7036045436697833 0.85810338739698311 0.60620023818577717 1.5760698768054198 0.64383452434058352 0.57488926682132691 1.706674111716344 0.52067800408418374 0.6361585237154268 1.7813400446397174 0.40534599274164829 0.56066815268497916 2.0282124625380993 0.55912196541701398 0.58914610226564867 1.4831664928990049 0.74477369049507713 0.62199650832848508 1.3878751642447831 0.55783969177683579 0.59089623372644406 1.6761178572548099 0.18631837609846591 0.57972139045463322 1.5058868592965022 0.31128953184420399 0.71254282342799657 1.684962069762161 0.52766742348067897 0.85215078688221602 1.8864304366178986 0.34585181194184211 0.62287957380030523 1.3833403996484812 0.85611806669737756 0.74385409282000647 1.5000161401474124 0.75017924211284015 1 1.1482259270440216 0.62052689843783126 0.90814723720223012 1.6002759156848692 0.62077690250082485 0.86325831005233211 1.4028483791766257 0.48345266136995113 0.90813838865855223 1.4790601926824549 0.771163195191786 0.71542665668155558 1.3316994589543818 0.53816811922133256 0.84637304313842732 1.5855292709934476 0.35370634191365646 0.90197130890776422 1.5000161401474124 0.25017924211284015 1 1.7500161401474124 0.50017924211284015 1 1.2129110870706856 0.5251680979173079 0.60640229211317276 1.3300588220802201 0.52272908039789645 0.63324557008131144 1.2942907229017517 0.50469940626507315 0.76895564114780235 1.2349876883302198 0.50426504074875267 0.78562975635781163 1.1240712567682012 0.51829669669932488 0.74421419591182592 1.0574608757485335 0.44541653225420363 0.78369708162091067 1.249974392657947 0.41764606167564883 0.90261693352479289 1.3229900496118048 0.42489789089859692 0.82868785925742083 2.0000161401474124 0.75017924211284015 1 2.2500161401474124 0.50017924211284015 1 2.0000161401474124 0.25017924211284015 1 1.8822088477945278 0.6604161424706434 0.90281867887235001 1.9917292390133152 0.48983847716862977 0.87849290952472314 1.7865412174655191 0.41502865356253199 0.84602062077974172 1.4903328173430297 0.32031625971686595 0.80145527852484544 1.4349811282161258 0.25106270376395301 0.88609865472268512 1.3419759365601973 0.39553780032929664 0.70326244328319398 1.9036807551078438 0.74234956901780946 0.82019300285464691 2.0613821259490672 0.56089072603354317 0.85175438075364307 2.0843130527043594 0.66642853691146275 0.6952701950875293 2.0868489594834778 0.56354003881807435 0.63178514986043188 1.9052209266710554 0.31696754382559539 0.68986384650997845 2.0244496301292099 0.22164540026614396 0.72221904762750433 2.2500161401474124 0.00017924211284015001 1 1.7500161401474124 0.00017924211284015001 1 1.8232733691473602 -0.02018763373331478 0.90855183805911 1.9681889610636303 -0.22676086030861253 0.88506514129288372 2.0000161401474124 -0.24982075788715985 1 1.7382184871848154 0.26495617083971473 0.86837331314230637 1.787813025281489 0.17994308355459793 0.78015304176083933 1.8105771312818624 0.91232328772834159 0.83919497540490928 1.8497474284868192 0.90228474160422512 0.69278999199341129 1.8232733691473602 0.97981236626668522 0.90855183805911 1.9681889610636303 0.77323913969138747 0.88506514129288372 2.0244496301292099 1.2216454002661439 0.72221904762750433 1.7224530026215614 0.90556956466180705 0.62925660905485192 1.6981097474937972 1.0192354979476417 0.59583848596221289 1.6687650475132263 0.1485239907988459 0.61167088578744166 1.6981097474937972 0.019235497947641678 0.59583848596221289 1.7200311028194553 0.096215513517877313 0.75731141456887163 1.7238134159007958 0.0016642722283342071 0.77567962135039481 1.7238134159007958 1.0016642722283342 0.77567962135039481 1.72823867452536 0.93541554448876785 0.75545369803336249 1.7500161401474124 1.0001792421128402 1 1.758945723691272 0.82840340561091219 0.90657726714331255 1.6959166549451539 0.89860930379912374 0.84086642533619393 1.623712665064994 1.1067529449087501 0.90230131418931114 1.623712665064994 0.10675294490875009 0.90230131418931114 1.6924352055437382 0.20976584541645524 0.84647140016167188 1.5000161401474124 -0.24982075788715985 1 1.3833403996484812 -0.14388193330262244 0.74385409282000647 1.5758245888873197 0.17076236782253024 0.68854027115708372 1.7421339651518974 1.9835947388802921 0.29459534536900273 1.5 2 0 2 2 0 2.1726488169868796 2.0398379757613978 0.52877998105191859 1.7311968056573173 1.6178585673909751 0.16154253594513301 1.5 1.5 0 2 1.5 0 2.0393350903768557 1.5876882226835485 0.17293511763835237 1.3852967872940261 2.0742347719687819 0.33322045121114602 1.2896860162854871 1.6175908112475845 0.17645943573536063 1.574077860255418 2.0304547888136728 0.36175602929298617 1.5021494709868113 1.7069185562100189 0.25557029653778623 2.0754656966806824 1.5321456640802764 0.27740464975336099 1.8145898608553874 1.5390257701726913 0.22698021101094285 1.8654416950772208 1.5002956478925258 0.37958675004128106 2.1564210583663366 1.5410059855464513 0.48291453958343983 1.6970506694678145 1.3678966721943631 0.40158719331577131 1.7749184606096995 1.3567582569431174 0.49870682575485575 1.5736005554727628 1.5789684177830448 0.39676250976908789 1.6734975003235348 1.5408947096549566 0.48124411770743586 1.6588334896504855 2.0550686869209565 0.50497809262866267 1.4839864886547449 1.7217193120384469 0.47714864238360744 1.4755408918339352 1.7022786493512396 0.38140917794118484 1.4821303501071283 1.6431651487022982 0.30124265144695023 1.6306292101253956 1.5723523331977258 0.25946283189533909 1.6721414631527136 1.4820817073937163 0.28687061042359507 1.7926906759359342 1.4163788448178323 0.16323855824243766 2.1195937510914593 1.4612708152525571 0.16586404836780441 1.6479915019586633 1.4164671007390146 0.21690284366977397 1.362724083683831 1.4499553560540757 0.12509157287022921 1.3112198461217464 1.5429580170717032 0.25986904941756472 1.2875678291295329 1.5611598954987027 0.3971867143358439 1.9329235687251147 1.7380787539764773 0.69119747674476251 1.7036045436697833 1.8581033873969832 0.60620023818577717 1.5760698768054198 1.6438345243405834 0.57488926682132691 1.706674111716344 1.5206780040841839 0.6361585237154268 1.7813400446397174 1.4053459927416483 0.56066815268497916 2.0282124625380993 1.5591219654170141 0.58914610226564867 1.4831664928990049 1.744773690495077 0.62199650832848508 1.3878751642447831 1.5578396917768358 0.59089623372644406 1.6761178572548099 1.1863183760984659 0.57972139045463322 1.5058868592965022 1.3112895318442039 0.71254282342799657 1.684962069762161 1.5276674234806791 0.85215078688221602 1.8864304366178986 1.3458518119418421 0.62287957380030523 1.3833403996484812 1.8561180666973776 0.74385409282000647 1.5000161401474124 1.7501792421128402 1 1.2500161401474124 2.0001792421128402 1 1.1482259270440216 1.6205268984378312 0.90814723720223012 1.6002759156848692 1.620776902500825 0.86325831005233211 1.4028483791766257 1.483452661369951 0.90813838865855223 1.4790601926824549 1.7711631951917859 0.71542665668155558 1.3316994589543818 1.5381681192213326 0.84637304313842732 1.5855292709934476 1.3537063419136564 0.90197130890776422 1.5000161401474124 1.2501792421128402 1 1.7500161401474124 1.5001792421128402 1 1.2129110870706856 1.5251680979173079 0.60640229211317276 1.3300588220802201 1.5227290803978963 0.63324557008131144 1.2942907229017517 1.5046994062650731 0.76895564114780235 1.2349876883302198 1.5042650407487526 0.78562975635781163 1.1240712567682012 1.5182966966993248 0.74421419591182592 1.0574608757485335 1.4454165322542036 0.78369708162091067 1.249974392657947 1.4176460616756488 0.90261693352479289 1.3229900496118048 1.424897890898597 0.82868785925742083 2.0000161401474124 1.7501792421128402 1 2.2500161401474124 1.5001792421128402 1 2.0000161401474124 1.2501792421128402 1 1.8822088477945278 1.6604161424706434 0.90281867887235001 1.9917292390133152 1.4898384771686297 0.87849290952472314 1.7865412174655191 1.415028653562532 0.84602062077974172 1.4903328173430297 1.3203162597168658 0.80145527852484544 1.4349811282161258 1.251062703763953 0.88609865472268512 1.3419759365601973 1.3955378003292966 0.70326244328319398 1.9036807551078438 1.7423495690178095 0.82019300285464691 2.0613821259490672 1.5608907260335432 0.85175438075364307 2.0843130527043594 1.6664285369114626 0.6952701950875293 2.0868489594834778 1.5635400388180742 0.63178514986043188 1.9052209266710554 1.3169675438255954 0.68986384650997845 2.2500161401474124 1.0001792421128402 1 1.7382184871848154 1.2649561708397148 0.86837331314230637 1.787813025281489 1.1799430835545979 0.78015304176083933 1.8105771312818624 1.9123232877283416 0.83919497540490928 1.8497474284868192 1.902284741604225 0.69278999199341129 1.8232733691473602 1.9798123662666853 0.90855183805911 1.9681889610636303 1.7732391396913876 0.88506514129288372 2.0244496301292099 2.2216454002661439 0.72221904762750433 1.7224530026215614 1.9055695646618069 0.62925660905485192 1.6981097474937972 2.0192354979476415 0.59583848596221289 1.6687650475132263 1.1485239907988458 0.61167088578744166 1.7200311028194553 1.0962155135178773 0.75731141456887163 1.7238134159007958 2.001664272228334 0.77567962135039481 1.72823867452536 1.9354155444887677 0.75545369803336249 1.7500161401474124 2.0001792421128402 1 1.758945723691272 1.8284034056109122 0.90657726714331255 1.6959166549451539 1.8986093037991236 0.84086642533619393 1.623712665064994 2.1067529449087501 0.90230131418931114 1.6924352055437382 1.2097658454164553 0.84647140016167188 1.5758245888873197 1.1707623678225303 0.68854027115708372</DataArray></Points><Cells><DataArray type="Int32" Name="connectivity" format="ascii">0 1 2 3 4 5 6 7 8 9 5 1 10 11 4 0 12 9 5 13 14 8 1 15 16 17 18 19 7 4 0 3 19 18 20 21 3 0 22 23 24 10 0 3 25 26 22 23 26 27 11 10 22 28 4 0 22 28 4 0 20 29 17 18 7 4 5 6 16 17 30 31 29 32 33 28 17 30 5 4 28 33 34 27 4 5 9 11 6 5 35 36 31 30 37 38 39 34 33 40 12 9 5 13 41 32 30 37 42 33 5 35 13 40 43 44 5 33 42 35 45 46 42 43 39 34 33 40 21 20 41 47 23 22 42 43 25 26 22 23 45 46 42 43 22 28 33 42 26 27 34 46 20 29 32 41 22 28 33 42 16 17 30 31 19 18 37 38 20 29 17 18 41 32 30 37 19 18 37 38 21 20 41 47 45 46 8 14 25 26 10 24 46 34 9 8 26 27 11 10 39 34 9 12 45 46 8 14 3 24 25 23 48 49 50 51 21 19 3 23 52 53 48 51 14 45 25 24 54 55 50 49 47 21 23 43 56 52 51 57 58 48 53 59 57 51 52 56 59 53 19 38 56 52 21 47 58 57 55 54 48 51 50 49 45 55 57 43 25 50 51 23 60 61 62 14 63 64 65 66 67 68 64 61 69 70 63 60 71 68 64 72 58 67 61 73 74 75 76 77 66 63 60 14 77 76 78 79 14 60 80 45 54 69 60 14 55 81 80 45 81 82 70 69 80 83 63 60 80 83 63 60 78 84 75 76 66 63 64 65 74 75 85 86 84 87 88 83 75 85 64 63 83 88 89 82 63 64 68 70 90 91 92 73 93 94 95 58 96 89 88 97 71 68 64 72 98 87 85 99 100 88 64 101 72 97 43 102 64 88 100 101 57 103 100 43 96 89 88 97 79 78 98 104 45 80 100 43 55 81 80 45 57 103 100 43 80 83 88 100 81 82 89 103 78 84 87 98 80 83 88 100 105 106 94 93 48 107 95 58 78 84 75 76 98 87 85 99 48 107 95 58 53 108 109 59 57 103 67 58 55 81 69 54 103 89 68 67 81 82 70 69 96 89 68 71 57 103 67 58 92 110 38 111 112 113 114 115 116 95 92 112 117 109 110 113 116 71 72 112 95 58 73 92 118 105 48 119 120 121 3 122 119 48 49 123 122 3 24 124 109 59 38 110 125 56 47 126 127 125 109 117 128 126 110 113 129 124 122 120 130 123 119 118 120 121 90 131 118 105 93 132 133 130 129 134 132 118 120 131 135 128 127 136 112 113 117 116 131 90 73 61 132 93 58 67 136 96 97 135 116 71 72 112 133 69 67 132 134 60 61 131 97 72 102 43 135 112 137 138 139 57 43 138 136 96 97 135 123 49 54 69 124 24 14 60 125 56 47 126 139 57 43 138 128 126 138 135 127 125 139 136 130 123 69 133 129 124 60 134 118 105 93 132 119 48 58 67 130 123 119 118 133 69 67 132 119 48 58 67 123 49 54 69 139 57 58 95 125 56 59 109 136 139 95 116 127 125 109 117 136 96 71 116 139 57 58 95 140 141 142 143 144 145 146 147 148 149 145 141 150 151 144 140 152 149 145 153 154 148 141 155 156 157 158 159 147 144 140 143 159 158 160 161 143 140 162 163 164 150 140 143 165 166 162 163 166 167 151 150 162 168 144 140 162 168 144 140 160 169 157 158 147 144 145 146 156 157 170 171 169 172 173 168 157 170 145 144 168 173 174 167 144 145 149 151 146 145 1 2 171 170 0 3 175 174 173 176 152 149 145 153 10 172 170 0 8 173 145 1 153 176 14 15 145 173 8 1 177 178 8 14 175 174 173 176 161 160 10 24 163 162 8 14 165 166 162 163 177 178 8 14 162 168 173 8 166 167 174 178 160 169 172 10 162 168 173 8 156 157 170 171 159 158 0 3 160 169 157 158 10 172 170 0 159 158 0 3 161 160 10 24 177 178 148 154 165 166 150 164 178 174 149 148 166 167 151 150 175 174 149 152 177 178 148 154 143 164 165 163 179 180 181 182 161 159 143 163 183 184 179 182 154 177 165 164 185 186 181 180 24 161 163 14 187 183 182 188 189 179 184 190 188 182 183 187 190 184 159 3 187 183 161 24 189 188 186 185 179 182 181 180 177 186 188 14 165 181 182 163 191 192 193 154 194 195 196 197 198 199 195 192 200 201 194 191 202 199 195 203 189 198 192 204 205 206 207 208 197 194 191 154 208 207 209 210 154 191 211 177 185 200 191 154 186 212 211 177 212 213 201 200 211 214 194 191 211 214 194 191 209 215 206 207 197 194 195 196 205 206 216 217 215 218 219 214 206 216 195 194 214 219 220 213 194 195 199 201 221 222 223 204 224 225 226 189 227 220 219 228 202 199 195 203 229 218 216 230 231 219 195 232 203 228 14 62 195 219 231 232 188 233 231 14 227 220 219 228 210 209 229 234 177 211 231 14 186 212 211 177 188 233 231 14 211 214 219 231 212 213 220 233 209 215 218 229 211 214 219 231 235 236 225 224 179 237 226 189 209 215 206 207 229 218 216 230 179 237 226 189 184 238 239 190 188 233 198 189 186 212 200 185 233 220 199 198 212 213 201 200 227 220 199 202 188 233 198 189 223 122 3 240 131 120 121 90 241 226 223 131 242 239 122 120 241 202 203 131 226 189 204 223 243 235 179 244 245 246 143 247 244 179 180 248 247 143 164 249 239 190 3 122 250 187 24 124 251 250 239 242 129 124 122 120 252 249 247 245 253 248 244 243 245 246 221 254 243 235 224 255 256 253 252 257 255 243 245 254 134 129 251 258 131 120 242 241 254 221 204 192 255 224 189 198 258 227 228 134 241 202 203 131 256 200 198 255 257 191 192 254 228 203 62 14 134 131 61 60 259 188 14 60 258 227 228 134 248 180 185 200 249 164 154 191 250 187 24 124 259 188 14 60 129 124 60 134 251 250 259 258 253 248 200 256 252 249 191 257 243 235 224 255 244 179 189 198 253 248 244 243 256 200 198 255 244 179 189 198 248 180 185 200 259 188 189 226 250 187 190 239 258 259 226 241 251 250 239 242 258 227 202 241 259 188 189 226 260 261 262 263 264 265 266 267 268 269 265 261 270 271 264 260 7 269 265 6 3 268 261 2 272 273 274 275 267 264 260 263 275 274 276 277 263 260 278 279 280 270 260 263 281 282 278 279 282 283 271 270 278 284 264 260 278 284 264 260 276 285 273 274 267 264 265 266 272 273 286 287 285 288 289 284 273 286 265 264 284 289 290 283 264 265 269 271 266 265 291 292 287 286 293 294 16 290 289 31 7 269 265 6 295 288 286 293 296 289 265 291 6 31 38 36 265 289 296 291 19 297 296 38 16 290 289 31 277 276 295 298 279 278 296 38 281 282 278 279 19 297 296 38 278 284 289 296 282 283 290 297 276 285 288 295 278 284 289 296 272 273 286 287 275 274 293 294 276 285 273 274 295 288 286 293 275 274 293 294 277 276 295 298 19 297 268 3 281 282 270 280 297 290 269 268 282 283 271 270 16 290 269 7 19 297 268 3 263 280 281 279 299 300 301 302 277 275 263 279 303 304 299 302 3 19 281 280 305 306 301 300 298 277 279 38 307 303 302 308 309 299 304 310 308 302 303 307 310 304 275 294 307 303 277 298 309 308 306 305 299 302 301 300 19 306 308 38 281 301 302 279 311 312 240 3 313 91 90 121 314 315 91 312 316 317 313 311 318 315 91 319 309 314 312 320 105 106 107 48 121 313 311 3 48 107 108 53 3 311 321 19 305 316 311 3 306 322 321 19 322 323 317 316 321 324 313 311 321 324 313 311 108 325 106 107 121 313 91 90 105 106 94 93 325 326 327 324 106 94 91 313 324 327 328 323 313 91 315 317 329 330 331 320 332 333 334 309 335 328 327 336 318 315 91 319 109 326 94 95 110 327 91 92 319 336 38 111 91 327 110 92 308 337 110 38 335 328 327 336 53 108 109 59 19 321 110 38 306 322 321 19 308 337 110 38 321 324 327 110 322 323 328 337 108 325 326 109 321 324 327 110 338 339 333 332 299 340 334 309 108 325 106 107 109 326 94 95 299 340 334 309 304 341 342 310 308 337 314 309 306 322 316 305 337 328 315 314 322 323 317 316 335 328 315 318 308 337 314 309 331 343 294 344 345 346 347 348 349 334 331 345 350 342 343 346 349 318 319 345 334 309 320 331 351 338 299 352 353 354 263 355 352 299 300 356 355 263 280 357 342 310 294 343 358 307 298 359 360 358 342 350 361 359 343 346 362 357 355 353 363 356 352 351 353 354 329 364 351 338 332 365 366 363 362 367 365 351 353 364 368 361 360 369 345 346 350 349 364 329 320 312 365 332 309 314 369 335 336 368 349 318 319 345 366 316 314 365 367 311 312 364 336 319 111 38 368 345 370 371 372 308 38 371 369 335 336 368 356 300 305 316 357 280 3 311 358 307 298 359 372 308 38 371 361 359 371 368 360 358 372 369 363 356 316 366 362 357 311 367 351 338 332 365 352 299 309 314 363 356 352 351 366 316 314 365 352 299 309 314 356 300 305 316 372 308 309 334 358 307 310 342 369 372 334 349 360 358 342 350 369 335 318 349 372 308 309 334 373 374 375 376 377 378 379 380 381 382 378 374 383 384 377 373 147 382 378 146 143 381 374 142 385 386 387 388 380 377 373 376 388 387 389 390 376 373 391 392 393 383 373 376 394 395 391 392 395 396 384 383 391 397 377 373 391 397 377 373 389 398 386 387 380 377 378 379 385 386 399 400 398 401 402 397 386 399 378 377 397 402 403 396 377 378 382 384 379 378 261 262 400 399 260 263 156 403 402 171 147 382 378 146 270 401 399 260 268 402 378 261 146 171 3 2 378 402 268 261 159 404 268 3 156 403 402 171 390 389 270 280 392 391 268 3 394 395 391 392 159 404 268 3 391 397 402 268 395 396 403 404 389 398 401 270 391 397 402 268 385 386 399 400 388 387 260 263 389 398 386 387 270 401 399 260 388 387 260 263 390 389 270 280 159 404 381 143 394 395 383 393 404 403 382 381 395 396 384 383 156 403 382 147 159 404 381 143 376 393 394 392 405 406 407 408 390 388 376 392 409 410 405 408 143 159 394 393 411 412 407 406 280 390 392 3 413 409 408 414 415 405 410 416 414 408 409 413 416 410 388 263 413 409 390 280 415 414 412 411 405 408 407 406 159 412 414 3 394 407 408 392 417 418 419 143 420 222 221 246 421 422 222 418 423 424 420 417 425 422 222 426 415 421 418 427 235 236 237 179 246 420 417 143 179 237 238 184 143 417 428 159 411 423 417 143 412 429 428 159 429 430 424 423 428 431 420 417 428 431 420 417 238 432 236 237 246 420 222 221 235 236 225 224 432 433 434 431 236 225 222 420 431 434 435 430 420 222 422 424 436 437 438 427 439 440 441 415 442 435 434 443 425 422 222 426 239 433 225 226 122 434 222 223 426 443 3 240 222 434 122 223 414 444 122 3 442 435 434 443 184 238 239 190 159 428 122 3 412 429 428 159 414 444 122 3 428 431 434 122 429 430 435 444 238 432 433 239 428 431 434 122 445 446 440 439 405 447 441 415 238 432 236 237 239 433 225 226 405 447 441 415 410 448 449 416 414 444 421 415 412 429 423 411 444 435 422 421 429 430 424 423 442 435 422 425 414 444 421 415 438 355 263 450 364 353 354 329 451 441 438 364 452 449 355 353 451 425 426 364 441 415 427 438 453 445 405 454 455 456 376 457 454 405 406 458 457 376 393 459 449 416 263 355 460 413 280 357 461 460 449 452 362 357 355 353 462 459 457 455 463 458 454 453 455 456 436 464 453 445 439 465 466 463 462 467 465 453 455 464 367 362 461 468 364 353 452 451 464 436 427 418 465 439 415 421 468 442 443 367 451 425 426 364 466 423 421 465 467 417 418 464 443 426 240 3 367 364 312 311 469 414 3 311 468 442 443 367 458 406 411 423 459 393 143 417 460 413 280 357 469 414 3 311 362 357 311 367 461 460 469 468 463 458 423 466 462 459 417 467 453 445 439 465 454 405 415 421 463 458 454 453 466 423 421 465 454 405 415 421 458 406 411 423 469 414 415 441 460 413 416 449 468 469 441 451 461 460 449 452 468 442 425 451 469 414 415 441</DataArray><DataArray type="Int32" Name="offsets" format="ascii">8 16 24 32 40 48 56 64 72 80 88 96 104 112 120 128 136 144 152 160 168 176 184 192 200 208 216 224 232 240 248 256 264 272 280 288 296 304 312 320 328 336 344 352 360 368 376 384 392 400 408 416 424 432 440 448 456 464 472 480 488 496 504 512 520 528 536 544 552 560 568 576 584 592 600 608 616 624 632 640 648 656 664 672 680 688 696 704 712 720 728 736 744 752 760 768 776 784 792 800 808 816 824 832 840 848 856 864 872 880 888 896 904 912 920 928 936 944 952 960 968 976 984 992 1000 1008 1016 1024 1032 1040 1048 1056 1064 1072 1080 1088 1096 1104 1112 1120 1128 1136 1144 1152 1160 1168 1176 1184 1192 1200 1208 1216 1224 1232 1240 1248 1256 1264 1272 1280 1288 1296 1304 1312 1320 1328 1336 1344 1352 1360 1368 1376 1384 1392 1400 1408 1416 1424 1432 1440 1448 1456 1464 1472 1480 1488 1496 1504 1512 1520 1528 1536 1544 1552 1560 1568 1576 1584 1592 1600 1608 1616 1624 1632 1640 1648 1656 1664 1672 1680 1688 1696 1704 1712 1720 1728 1736 1744 1752 1760 1768 1776 1784 1792 1800 1808 1816 1824 1832 1840 1848 1856 1864 1872 1880 1888 1896 1904 1912 1920 1928 1936 1944 1952 1960 1968 1976 1984 1992 2000 2008 2016 2024 2032 2040 2048 2056 2064 2072 2080 2088 2096 2104 2112 2120 2128 2136 2144 2152 2160 2168 2176 2184 2192 2200 2208 2216 2224 2232 2240 2248 2256 2264 2272 2280 2288 2296 2304 2312 2320 2328 2336 2344 2352 2360 2368 2376 2384 2392 2400 2408 2416 2424 2432 2440 2448 2456 2464 2472 2480 2488 2496 2504 2512 2520 2528 2536 2544 2552 2560 2568 2576 2584 2592 2600 2608 2616 2624 2632 2640 2648 2656 2664 2672 2680 2688 2696 2704 2712 2720 2728 2736 2744 2752</DataArray><DataArray type="Int32" Name="types" format="ascii">12 12 12 12 12 12 12 12 12 12 12 12 12 12 12 12 12 12 12 12 12 12 12 12 12 12 12 12 12 12 12 12 12 12 12 12 12 12 12 12 12 12 12 12 12 12 12 12 12 12 12 12 12 12 12 12 12 12 12 12 12 12 12 12 12 12 12 12 12 12 12 12 12 12 12 12 12 12 12 12 12 12 12 12 12 12 12 12 12 12 12 12 12 12 12 12 12 12 12 12 12 12 12 12 12 12 12 12 12 12 12 12 12 12 12 12 12 12 12 12 12 12 12 12 12 12 12 12 12 12 12 12 12 12 12 12 12 12 12 12 12 12 12 12 12 12 12 12 12 12 12 12 12 12 12 12 12 12 12 12 12 12 12 12 12 12 12 12 12 12 12 12 12 12 12 12 12 12 12 12 12 12 12 12 12 12 12 12 12 12 12 12 12 12 12 12 12 12 12 12 12 12 12 12 12 12 12 12 12 12 12 12 12 12 12 12 12 12 12 12 12 12 12 12 12 12 12 12 12 12 12 12 12 12 12 12 12 12 12 12 12 12 12 12 12 12 12 12 12 12 12 12 12 12 12 12 12 12 12 12 12 12 12 12 12 12 12 12 12 12 12 12 12 12 12 12 12 12 12 12 12 12 12 12 12 12 12 12 12 12 12 12 12 12 12 12 12 12 12 12 12 12 12 12 12 12 12 12 12 12 12 12 12 12 12 12 12 12 12 12 12 12 12 12 12 12 12 12 12 12 12 12 12 12 12 12 12 12 12 12 12 12 12 12</DataArray></Cells></Piece></UnstructuredGrid></VTKFile>