<?xml version='1.0' encoding='utf-8'?>
<VTKFile type="UnstructuredGrid" version="0.1" byte_order="LittleEndian"><UnstructuredGrid><Piece NumberOfPoints="56" NumberOfCells="40"><Points><DataArray type="Float64" NumberOfComponents="3" format="ascii">1 1 -0.58333333333333337 1 0 -0.58333333333333337 0 0 -0.58333333333333337 0 1 -0.58333333333333337 0 -1 -0.58333333333333337 1 -1 -0.58333333333333337 -1 0 -0.58333333333333337 -1 1 -0.58333333333333337 -1 -1 -0.58333333333333337 0 1 0.58333333333333337 -0.38475799166666663 0.38475799166666663 0.58333333333333337 0 0 0.58333333333333337 1 1 0.58333333333333337 1 0 0.58333333333333337 0.38475799166666663 -0.38475799166666663 0.58333333333333337 -1 0 0.58333333333333337 -1 -1 0.58333333333333337 0 -1 0.58333333333333337 -1 1 0.58333333333333337 1 -1 0.58333333333333337 0.3563756697730609 0.3563756697730609 -0.10827937252935713 -0.3563756697730609 -0.3563756697730609 -0.10827937252935713 0.13706300651551043 0.34981525094269589 -0.085098931173254205 0.34981525094269589 0.13706300651551043 -0.085098931173254205 -0.34981525094269589 -0.13706300651551043 -0.085098931173254205 -0.13706300651551043 -0.34981525094269589 -0.085098931173254205 0.01701625182523572 0.01701625182523572 -0.077654408869944916 -0.01701625182523572 -0.01701625182523572 -0.077654408869944916 0.33734507752849635 0.057336403776196448 0.21418767708431583 0.057336403776196448 0.33734507752849635 0.21418767708431583 -0.057336403776196448 -0.33734507752849635 0.21418767708431583 -0.33734507752849635 -0.057336403776196448 0.21418767708431583 0.18249817210268804 -0.045765323755947947 0.25772906097263898 -0.045765323755947947 0.18249817210268804 0.25772906097263898 0.045765323755947947 -0.18249817210268804 0.25772906097263898 -0.18249817210268804 0.045765323755947947 0.25772906097263898 0 0 0.021115073548689321 -0.052099897876739167 0.052099897876739167 0.26962747790561531 0.052099897876739167 -0.052099897876739167 0.26962747790561531 0 0 0.047362399444530481 -0.0015137264214628097 0.0015137264214628097 0.045871517513957814 0.0015137264214628097 -0.0015137264214628097 0.045871517513957814 -0.017358330827741131 0.017358330827741131 0.17300488522323321 0.017358330827741131 -0.017358330827741131 0.17300488522323321 0.093832866529642914 0.093832866529642914 0.31741622591474683 -0.0938328665296429 -0.0938328665296429 0.31741622591474683 0 0 0.28268272628071678 0.31069956656478637 0.31069956656478637 0.23367162758406185 -0.31069956656478631 -0.31069956656478631 0.23367162758406185 0.070191161523712742 0.070191161523712742 0.24405048108848248 -0.070191161523712742 -0.070191161523712742 0.24405048108848248 0 0 0.26789194852742459 0.12084762293042428 0.12084762293042428 0.22114841085621945 -0.12084762293042428 -0.12084762293042428 0.22114841085621947 0 0 0.1993326516562148 0 0 0.15888639609279648</DataArray></Points><Cells><DataArray type="Int32" Name="connectivity" format="ascii">0 3 2 1 20 22 26 23 8 4 2 6 21 25 27 24 2 1 23 26 14 13 28 32 2 26 22 3 10 33 29 9 2 27 25 4 14 34 30 17 2 6 24 27 10 15 31 35 2 26 33 10 27 36 37 35 2 14 32 26 27 34 38 36 2 1 13 14 4 5 19 17 2 10 9 3 6 15 18 7 20 22 26 23 39 40 36 41 21 25 27 24 39 41 36 40 22 26 36 40 29 33 37 42 23 41 36 26 28 43 38 32 24 40 36 27 31 42 37 35 25 27 36 41 30 34 38 43 33 10 35 37 44 11 45 46 32 38 34 14 44 46 45 11 10 33 29 9 11 44 47 12 14 13 28 32 11 12 47 44 10 15 31 35 11 16 48 45 14 34 30 17 11 45 48 16 32 38 46 44 49 51 37 33 34 45 46 38 50 35 37 51 44 32 49 33 47 28 52 29 45 35 50 34 48 31 53 30 28 43 38 32 52 54 51 49 29 33 37 42 52 49 51 54 30 34 38 43 53 50 51 54 31 42 37 35 53 54 51 50 40 22 29 42 39 20 47 55 41 43 28 23 39 55 47 20 40 42 31 24 39 55 48 21 41 25 30 43 39 21 48 55 43 28 47 55 54 52 29 42 43 55 48 30 54 42 31 53 22 29 47 20 3 9 12 0 23 20 47 28 1 0 12 13 24 21 48 31 6 8 16 15 25 30 48 21 4 17 16 8</DataArray><DataArray type="Int32" Name="offsets" format="ascii">8 16 24 32 40 48 56 64 72 80 88 96 104 112 120 128 136 144 152 160 168 176 184 192 200 208 216 224 232 240 248 256 264 272 280 288 296 304 312 320</DataArray><DataArray type="Int32" Name="types" format="ascii">12 12 12 12 12 12 12 12 12 12 12 12 12 12 12 12 12 12 12 12 12 12 12 12 12 12 12 12 12 12 12 12 12 12 12 12 12 12 12 12</DataArray></Cells></Piece></UnstructuredGrid></VTKFile>