<?xml version='1.0' encoding='utf-8'?>
<VTKFile type="UnstructuredGrid" version="0.1" byte_order="LittleEndian"><UnstructuredGrid><Piece NumberOfPoints="62" NumberOfCells="44"><Points><DataArray type="Float64" NumberOfComponents="3" format="ascii">1 1 -0.58333333333333337 1 0 -0.58333333333333337 0 0 -0.58333333333333337 0 1 -0.58333333333333337 0 -1 -0.58333333333333337 1 -1 -0.58333333333333337 -1 0 -0.58333333333333337 -1 1 -0.58333333333333337 -1 -1 -0.58333333333333337 0 1 0.58333333333333337 -0.38475799166666663 0.38475799166666663 0.58333333333333337 0 0 0.58333333333333337 1 1 0.58333333333333337 1 0 0.58333333333333337 0.38475799166666663 -0.38475799166666663 0.58333333333333337 -1 0 0.58333333333333337 -1 -1 0.58333333333333337 0 -1 0.58333333333333337 -1 1 0.58333333333333337 1 -1 0.58333333333333337 0.37202953487774448 0.37202953487774448 -0.1864360973681092 -0.37202953487774448 -0.37202953487774448 -0.1864360973681092 0.29392797675278709 0.39230114078700923 -0.23004852273437196 0.39230114078700923 0.29392797675278709 -0.23004852273437196 -0.39230114078700923 -0.29392797675278709 -0.23004852273437196 -0.29392797675278709 -0.39230114078700923 -0.23004852273437196 0.12094994931262619 0.12094994931262619 -0.3470096307947631 -0.12094994931262619 -0.12094994931262619 -0.3470096307947631 0.59082358889016506 0.19488375168686517 0.34102044754604122 0.19488375168686517 0.59082358889016506 0.34102044754604122 -0.19488375168686517 -0.59082358889016506 0.34102044754604122 -0.59082358889016506 -0.19488375168686517 0.34102044754604122 0.42929310491663308 0.039499507447438673 0.40027142718476211 0.039499507447438673 0.42929310491663308 0.40027142718476211 -0.039499507447438673 -0.42929310491663308 0.40027142718476211 -0.42929310491663308 -0.039499507447438673 0.40027142718476211 0 0 -0.54133881685717167 0.11975317746692986 0.11975317746692986 -0.34697146488062891 -0.11975317746692986 -0.11975317746692986 -0.34697146488062891 -0.037845490175577902 0.29319131117104663 0.28764291148752985 0.29319131117104663 -0.037845490175577902 0.28764291148752985 -0.29319131117104663 0.037845490175577902 0.28764291148752985 0.037845490175577902 -0.29319131117104663 0.28764291148752985 -0.22292250860299867 0.22292250860299867 0.33745515555848915 0.22292250860299867 -0.22292250860299867 0.33745515555848915 0 0 0.19379313632845044 -0.0014929016324728233 0.0014929016324728233 0.18864924995168753 0.0014929016324728233 -0.0014929016324728233 0.18864924995168753 0 0 0.18492364650820023 -0.013957166797397115 0.013957166797397115 0.17848406913293011 0.013957166797397115 -0.013957166797397115 0.17848406913293011 -0.007950489494076533 0.007950489494076533 0.18641953037414599 0.007950489494076533 -0.007950489494076533 0.18641953037414599 0 0 -0.0064723500489629144 0.055128398993684186 -0.055128398993684186 0.12944136680863585 -0.055128398993684186 0.055128398993684186 0.12944136680863585 0.2573423157809604 0.2573423157809604 0.40517703660175403 -0.2573423157809604 -0.2573423157809604 0.40517703660175403 0.46775962498854229 0.46775962498854229 0.33671790609690266 -0.46775962498854229 -0.46775962498854229 0.33671790609690266 0 0 0.23559250806866283 0 0 0.23482392856959544</DataArray></Points><Cells><DataArray type="Int32" Name="connectivity" format="ascii">0 3 2 1 20 22 26 23 8 4 2 6 21 25 27 24 2 1 23 26 14 13 28 32 2 26 22 3 10 33 29 9 2 27 25 4 14 34 30 17 2 6 24 27 10 15 31 35 2 26 33 10 36 37 39 43 2 14 32 26 36 44 40 37 2 10 35 27 36 43 41 38 2 27 34 14 36 38 42 44 2 1 13 14 4 5 19 17 2 10 9 3 6 15 18 7 20 22 26 23 45 46 48 47 21 25 27 24 45 47 48 46 22 26 48 46 29 33 49 51 23 47 48 26 28 52 50 32 24 46 48 27 31 51 49 35 25 27 48 47 30 34 50 52 48 26 32 50 53 37 40 54 48 49 33 26 53 55 39 37 48 50 34 27 53 54 42 38 48 27 35 49 53 38 41 55 10 33 29 9 11 56 58 12 14 13 28 32 11 12 58 56 10 15 31 35 11 16 59 57 14 34 30 17 11 57 59 16 10 33 56 11 35 49 60 57 14 11 56 32 34 57 60 50 10 33 49 35 43 39 55 41 14 34 50 32 44 42 54 40 56 32 50 60 58 28 52 61 56 60 49 33 58 61 51 29 57 60 50 34 59 61 52 30 57 35 49 60 59 31 51 61 46 22 29 51 45 20 58 61 47 52 28 23 45 61 58 20 46 51 31 24 45 61 59 21 47 25 30 52 45 21 59 61 22 29 58 20 3 9 12 0 23 20 58 28 1 0 12 13 24 21 59 31 6 8 16 15 25 30 59 21 4 17 16 8 36 37 39 43 38 53 55 41 36 44 40 37 38 42 54 53</DataArray><DataArray type="Int32" Name="offsets" format="ascii">8 16 24 32 40 48 56 64 72 80 88 96 104 112 120 128 136 144 152 160 168 176 184 192 200 208 216 224 232 240 248 256 264 272 280 288 296 304 312 320 328 336 344 352</DataArray><DataArray type="Int32" Name="types" format="ascii">12 12 12 12 12 12 12 12 12 12 12 12 12 12 12 12 12 12 12 12 12 12 12 12 12 12 12 12 12 12 12 12 12 12 12 12 12 12 12 12 12 12 12 12</DataArray></Cells></Piece></UnstructuredGrid></VTKFile>