<?xml version='1.0' encoding='utf-8'?>
<VTKFile type="UnstructuredGrid" version="0.1" byte_order="LittleEndian"><UnstructuredGrid><Piece NumberOfPoints="50" NumberOfCells="34"><Points><DataArray type="Float64" NumberOfComponents="3" format="ascii">1 1 -0.58333333333333337 1 0 -0.58333333333333337 0 0 -0.58333333333333337 0 1 -0.58333333333333337 0 -1 -0.58333333333333337 1 -1 -0.58333333333333337 -1 0 -0.58333333333333337 -1 1 -0.58333333333333337 -1 -1 -0.58333333333333337 0 1 0.58333333333333337 -0.38475799166666663 0.38475799166666663 0.58333333333333337 0 0 0.58333333333333337 1 1 0.58333333333333337 1 0 0.58333333333333337 0.38475799166666663 -0.38475799166666663 0.58333333333333337 -1 0 0.58333333333333337 -1 -1 0.58333333333333337 0 -1 0.58333333333333337 -1 1 0.58333333333333337 1 -1 0.58333333333333337 0.35911456049342189 0.35911456049342189 -0.067542738675011732 -0.35911456049342189 -0.35911456049342189 -0.067542738675011732 0.22600726544455724 0.3130030906743187 -0.0667078124361868 0.3130030906743187 0.22600726544455724 -0.0667078124361868 -0.3130030906743187 -0.22600726544455724 -0.0667078124361868 -0.22600726544455724 -0.3130030906743187 -0.0667078124361868 0.11314448626283494 0.11314448626283494 -0.19362157417116455 -0.11314448626283494 -0.11314448626283494 -0.19362157417116455 0.33438321015726585 0.086975819156749887 0.19696212386604434 0.086975819156749887 0.33438321015726585 0.19696212386604434 -0.086975819156749887 -0.33438321015726585 0.19696212386604434 -0.33438321015726585 -0.086975819156749887 0.19696212386604434 0.30245260631829962 0.043041709390745739 0.20917481026778018 0.043041709390745739 0.30245260631829962 0.20917481026778018 -0.043041709390745739 -0.30245260631829962 0.20917481026778018 -0.30245260631829962 -0.043041709390745739 0.20917481026778018 0 0 0.081677635328877216 -0.084705418221799444 0.084705418221799444 0.19827165087514523 0.084705418221799444 -0.084705418221799444 0.19827165087514523 0 0 0.10708190490824254 -0.0044363199677040005 0.0044363199677040005 0.10506762385020589 0.0044363199677040005 -0.0044363199677040005 0.10506762385020589 -0.049859488459544479 0.049859488459544479 0.18478801383354507 0.049859488459544479 -0.049859488459544479 0.18478801383354507 0.10196182546219186 0.10196182546219186 0.33110212374731235 -0.10196182546219186 -0.10196182546219186 0.33110212374731235 0 0 0.25828454522036237 0.3271488997479548 0.3271488997479548 0.22350516925906441 -0.3271488997479548 -0.3271488997479548 0.22350516925906441 0 0 0.21073958856957989</DataArray></Points><Cells><DataArray type="Int32" Name="connectivity" format="ascii">0 3 2 1 20 22 26 23 8 4 2 6 21 25 27 24 2 1 23 26 14 13 28 32 2 26 22 3 10 33 29 9 2 27 25 4 14 34 30 17 2 6 24 27 10 15 31 35 2 26 33 10 27 36 37 35 2 14 32 26 27 34 38 36 2 1 13 14 4 5 19 17 2 10 9 3 6 15 18 7 20 22 26 23 39 40 36 41 21 25 27 24 39 41 36 40 22 26 36 40 29 33 37 42 23 41 36 26 28 43 38 32 24 40 36 27 31 42 37 35 25 27 36 41 30 34 38 43 33 10 35 37 44 11 45 46 32 38 34 14 44 46 45 11 10 33 29 9 11 44 47 12 14 13 28 32 11 12 47 44 10 15 31 35 11 16 48 45 14 34 30 17 11 45 48 16 32 38 46 44 28 43 49 47 33 44 46 37 29 47 49 42 34 45 46 38 30 48 49 43 35 37 46 45 31 42 49 48 40 22 29 42 39 20 47 49 41 43 28 23 39 49 47 20 40 42 31 24 39 49 48 21 41 25 30 43 39 21 48 49 22 29 47 20 3 9 12 0 23 20 47 28 1 0 12 13 24 21 48 31 6 8 16 15 25 30 48 21 4 17 16 8</DataArray><DataArray type="Int32" Name="offsets" format="ascii">8 16 24 32 40 48 56 64 72 80 88 96 104 112 120 128 136 144 152 160 168 176 184 192 200 208 216 224 232 240 248 256 264 272</DataArray><DataArray type="Int32" Name="types" format="ascii">12 12 12 12 12 12 12 12 12 12 12 12 12 12 12 12 12 12 12 12 12 12 12 12 12 12 12 12 12 12 12 12 12 12</DataArray></Cells></Piece></UnstructuredGrid></VTKFile>