<?xml version='1.0' encoding='utf-8'?>
<VTKFile type="UnstructuredGrid" version="0.1" byte_order="LittleEndian"><UnstructuredGrid><Piece NumberOfPoints="56" NumberOfCells="40"><Points><DataArray type="Float64" NumberOfComponents="3" format="ascii">1 1 -0.58333333333333337 1 0 -0.58333333333333337 0 0 -0.58333333333333337 0 1 -0.58333333333333337 0 -1 -0.58333333333333337 1 -1 -0.58333333333333337 -1 0 -0.58333333333333337 -1 1 -0.58333333333333337 -1 -1 -0.58333333333333337 0 1 0.58333333333333337 -0.38475799166666663 0.38475799166666663 0.58333333333333337 0 0 0.58333333333333337 1 1 0.58333333333333337 1 0 0.58333333333333337 0.38475799166666663 -0.38475799166666663 0.58333333333333337 -1 0 0.58333333333333337 -1 -1 0.58333333333333337 0 -1 0.58333333333333337 -1 1 0.58333333333333337 1 -1 0.58333333333333337 0.25064272159101675 0.25064272159101675 0.011241815060536212 -0.25064272159101675 -0.25064272159101675 0.011241815060536212 0.19103101246826759 0.32802847395384616 -0.063639080612741761 0.32802847395384616 0.19103101246826759 -0.063639080612741761 -0.32802847395384616 -0.19103101246826759 -0.063639080612741761 -0.19103101246826759 -0.32802847395384616 -0.063639080612741761 0.00061304415572178939 0.00061304415572178939 -0.57913170285958604 -0.00061304415572178939 -0.00061304415572178939 -0.57913170285958604 0.30847974921625843 0.018908899369980223 0.14576753755566008 0.018908899369980223 0.30847974921625843 0.14576753755566008 -0.018908899369980223 -0.30847974921625843 0.14576753755566008 -0.30847974921625843 -0.018908899369980223 0.14576753755566008 0.28707278919911733 -0.1064856984820258 0.2296221498582656 -0.1064856984820258 0.28707278919911733 0.2296221498582656 0.1064856984820258 -0.28707278919911733 0.2296221498582656 -0.28707278919911733 0.1064856984820258 0.2296221498582656 0 0 -0.57893027420526566 -0.17479932337848134 0.17479932337848134 0.16591544664356911 0.17479932337848134 -0.17479932337848134 0.16591544664356911 0 0 -0.017777644032765331 -0.067468125241720286 0.067468125241720286 -0.11492543630744917 0.067468125241720286 -0.067468125241720286 -0.11492543630744917 -0.15906297480195625 0.15906297480195625 0.15600694236627907 0.15906297480195625 -0.15906297480195625 0.15600694236627907 0.07199209633309947 0.07199209633309947 0.31166224931775566 -0.07199209633309947 -0.07199209633309947 0.31166224931775566 0 0 0.23581773330432157 0.23570933887493487 0.23570933887493487 0.16589973876938013 -0.23570933887493487 -0.23570933887493487 0.16589973876938013 0 0 0.18750153344048928 -0.036674741147106511 0.036674741147106511 0.013237685980011739 0.036674741147106511 -0.036674741147106511 0.013237685980011739 -0.044489744869918031 0.044489744869918031 0.13828815906844213 0.044489744869918031 -0.044489744869918031 0.13828815906844213 0 0 0.14335611203925569 0 0 0.039339551458911493</DataArray></Points><Cells><DataArray type="Int32" Name="connectivity" format="ascii">0 3 2 1 20 22 26 23 8 4 2 6 21 25 27 24 2 1 23 26 14 13 28 32 2 26 22 3 10 33 29 9 2 27 25 4 14 34 30 17 2 6 24 27 10 15 31 35 2 26 33 10 27 36 37 35 2 14 32 26 27 34 38 36 2 1 13 14 4 5 19 17 2 10 9 3 6 15 18 7 20 22 26 23 39 40 36 41 21 25 27 24 39 41 36 40 22 26 36 40 29 33 37 42 23 41 36 26 28 43 38 32 24 40 36 27 31 42 37 35 25 27 36 41 30 34 38 43 33 10 35 37 44 11 45 46 32 38 34 14 44 46 45 11 10 33 29 9 11 44 47 12 14 13 28 32 11 12 47 44 10 15 31 35 11 16 48 45 14 34 30 17 11 45 48 16 32 38 46 44 28 43 49 47 33 44 46 37 29 47 49 42 34 45 46 38 30 48 49 43 35 37 46 45 31 42 49 48 40 22 29 42 24 50 52 31 41 43 28 23 25 30 53 51 28 43 49 47 53 30 48 54 29 47 49 42 52 54 48 31 1 23 28 13 0 20 47 12 3 9 29 22 0 12 47 20 4 17 30 25 8 16 48 21 6 24 31 15 8 21 48 16 29 22 20 47 52 50 55 54 28 47 20 23 53 54 55 51 31 48 21 24 52 54 55 50 30 25 21 48 53 51 55 54 40 22 50 24 39 20 55 21 41 25 51 23 39 21 55 20</DataArray><DataArray type="Int32" Name="offsets" format="ascii">8 16 24 32 40 48 56 64 72 80 88 96 104 112 120 128 136 144 152 160 168 176 184 192 200 208 216 224 232 240 248 256 264 272 280 288 296 304 312 320</DataArray><DataArray type="Int32" Name="types" format="ascii">12 12 12 12 12 12 12 12 12 12 12 12 12 12 12 12 12 12 12 12 12 12 12 12 12 12 12 12 12 12 12 12 12 12 12 12 12 12 12 12</DataArray></Cells></Piece></UnstructuredGrid></VTKFile>