<?xml version='1.0' encoding='utf-8'?>
<VTKFile type="UnstructuredGrid" version="0.1" byte_order="LittleEndian"><UnstructuredGrid><Piece NumberOfPoints="62" NumberOfCells="44"><Points><DataArray type="Float64" NumberOfComponents="3" format="ascii">1 1 -0.58333333333333337 1 0 -0.58333333333333337 0 0 -0.58333333333333337 0 1 -0.58333333333333337 0 -1 -0.58333333333333337 1 -1 -0.58333333333333337 -1 0 -0.58333333333333337 -1 1 -0.58333333333333337 -1 -1 -0.58333333333333337 0 1 0.58333333333333337 -0.38475799166666663 0.38475799166666663 0.58333333333333337 0 0 0.58333333333333337 1 1 0.58333333333333337 1 0 0.58333333333333337 0.38475799166666663 -0.38475799166666663 0.58333333333333337 -1 0 0.58333333333333337 -1 -1 0.58333333333333337 0 -1 0.58333333333333337 -1 1 0.58333333333333337 1 -1 0.58333333333333337 0.28107848228749416 0.28107848228749416 -0.072856710035324637 -0.28107848228749416 -0.28107848228749416 -0.072856710035324637 0.16853634505980084 0.23670496308780725 -0.16896323643023403 0.23670496308780725 0.16853634505980084 -0.16896323643023403 -0.23670496308780725 -0.16853634505980084 -0.16896323643023403 -0.16853634505980084 -0.23670496308780725 -0.16896323643023403 0.069206586680440774 0.069206586680440774 -0.27627444050782518 -0.069206586680440774 -0.069206586680440774 -0.27627444050782518 0.38964212133924014 0.05931004358919368 0.20465240170137081 0.05931004358919368 0.38964212133924014 0.20465240170137081 -0.05931004358919368 -0.38964212133924014 0.20465240170137081 -0.38964212133924014 -0.05931004358919368 0.20465240170137081 0.31175694545837768 -0.068125405257457763 0.26375941924799279 -0.068125405257457763 0.31175694545837768 0.26375941924799279 0.068125405257457763 -0.31175694545837768 0.26375941924799279 -0.31175694545837768 0.068125405257457763 0.26375941924799279 0 0 -0.2200096460204112 -0.14411325069450376 0.14411325069450376 0.20952574173653454 0.14411325069450376 -0.14411325069450376 0.20952574173653454 0.14160561569134286 0.14160561569134286 -0.15319526658821811 -0.14160561569134286 -0.14160561569134286 -0.15319526658821811 0.12799685155464177 0.14919628927787176 -0.16427300086495417 0.14919628927787176 0.12799685155464177 -0.16427300086495417 -0.14919628927787176 -0.12799685155464177 -0.16427300086495417 -0.12799685155464177 -0.14919628927787176 -0.16427300086495417 0.091363598808303928 0.091363598808303928 -0.1845013363725421 -0.091363598808303928 -0.091363598808303928 -0.1845013363725421 -0.031429607755985321 0.031429607755985321 -0.022723720445755383 0.031429607755985321 -0.031429607755985321 -0.022723720445755383 -0.1065693875698195 0.1065693875698195 0.20476157923397656 0.1065693875698195 -0.1065693875698195 0.20476157923397656 -0.02890135452830608 0.02890135452830608 -0.020698873730909569 0.02890135452830608 -0.02890135452830608 -0.020698873730909569 0 0 -0.062246260226083497 0.099794930043459559 0.099794930043459559 0.31832993665322618 -0.099794930043459559 -0.099794930043459559 0.31832993665322618 0 0 0.25068525005699444 0.33517609530612991 0.33517609530612991 0.24780176544767879 -0.33517609530612991 -0.33517609530612991 0.24780176544767879 0 0 0.23538894310538064 0 0 0.10065153542523338 0 0 0.094228921390781886</DataArray></Points><Cells><DataArray type="Int32" Name="connectivity" format="ascii">0 3 2 1 20 22 26 23 8 4 2 6 21 25 27 24 2 1 23 26 14 13 28 32 2 26 22 3 10 33 29 9 2 27 25 4 14 34 30 17 2 6 24 27 10 15 31 35 2 26 33 10 27 36 37 35 2 14 32 26 27 34 38 36 2 1 13 14 4 5 19 17 2 10 9 3 6 15 18 7 20 22 26 23 39 41 45 42 21 25 27 24 40 44 46 43 26 22 29 33 36 47 49 37 26 32 28 23 36 38 50 48 27 35 31 24 36 37 49 47 27 25 30 34 36 48 50 38 26 22 47 36 45 41 51 53 26 36 48 23 45 53 52 42 27 36 47 24 46 53 51 43 27 25 48 36 46 44 52 53 33 10 35 37 54 11 55 56 32 38 34 14 54 56 55 11 10 33 29 9 11 54 57 12 14 13 28 32 11 12 57 54 10 15 31 35 11 16 58 55 14 34 30 17 11 55 58 16 32 38 56 54 28 50 59 57 33 54 56 37 29 57 59 49 34 55 56 38 30 58 59 50 35 37 56 55 31 49 59 58 22 29 49 47 20 57 59 60 23 48 50 28 20 60 59 57 24 47 49 31 21 60 59 58 25 30 50 48 21 58 59 60 22 29 57 20 3 9 12 0 23 20 57 28 1 0 12 13 24 21 58 31 6 8 16 15 25 30 58 21 4 17 16 8 47 22 20 60 51 41 39 61 48 60 20 23 52 61 39 42 47 60 21 24 51 61 40 43 48 25 21 60 52 44 40 61 51 41 39 61 53 45 42 52 51 61 40 43 53 52 44 46</DataArray><DataArray type="Int32" Name="offsets" format="ascii">8 16 24 32 40 48 56 64 72 80 88 96 104 112 120 128 136 144 152 160 168 176 184 192 200 208 216 224 232 240 248 256 264 272 280 288 296 304 312 320 328 336 344 352</DataArray><DataArray type="Int32" Name="types" format="ascii">12 12 12 12 12 12 12 12 12 12 12 12 12 12 12 12 12 12 12 12 12 12 12 12 12 12 12 12 12 12 12 12 12 12 12 12 12 12 12 12 12 12 12 12</DataArray></Cells></Piece></UnstructuredGrid></VTKFile>