<?xml version='1.0' encoding='utf-8'?>
<VTKFile type="UnstructuredGrid" version="0.1" byte_order="LittleEndian"><UnstructuredGrid><Piece NumberOfPoints="60" NumberOfCells="44"><Points><DataArray type="Float64" NumberOfComponents="3" format="ascii">1 1 -0.58333333333333337 1 0 -0.58333333333333337 0 0 -0.58333333333333337 0 1 -0.58333333333333337 0 -1 -0.58333333333333337 1 -1 -0.58333333333333337 -1 0 -0.58333333333333337 -1 1 -0.58333333333333337 -1 -1 -0.58333333333333337 0 1 0.58333333333333337 -0.38475799166666663 0.38475799166666663 0.58333333333333337 0 0 0.58333333333333337 1 1 0.58333333333333337 1 0 0.58333333333333337 0.38475799166666663 -0.38475799166666663 0.58333333333333337 -1 0 0.58333333333333337 -1 -1 0.58333333333333337 0 -1 0.58333333333333337 -1 1 0.58333333333333337 1 -1 0.58333333333333337 0.23494982973883569 0.23494982973883569 0.019829751408542172 -0.23494982973883569 -0.23494982973883569 0.019829751408542172 0.10679615321183203 0.14989555057356679 -0.015356266747600671 0.14989555057356679 0.10679615321183203 -0.015356266747600671 -0.14989555057356679 -0.10679615321183203 -0.015356266747600671 -0.10679615321183203 -0.14989555057356679 -0.015356266747600671 0.02122364186066367 0.02122364186066367 -0.096583994467008619 -0.02122364186066367 -0.02122364186066367 -0.096583994467008619 0.22093351204503664 0.034646937668192629 0.1667271699809007 0.034646937668192629 0.22093351204503664 0.1667271699809007 -0.034646937668192629 -0.22093351204503664 0.1667271699809007 -0.22093351204503664 -0.034646937668192629 0.1667271699809007 0.17968899662477267 -0.082909254356426695 0.24244481329482148 -0.082909254356426695 0.17968899662477267 0.24244481329482148 0.082909254356426695 -0.17968899662477267 0.24244481329482148 -0.17968899662477267 0.082909254356426695 0.24244481329482148 0 0 -0.08871188780409045 -0.10024032294650118 0.10024032294650118 0.17315565760526136 0.10024032294650118 -0.10024032294650118 0.17315565760526136 0 0 -0.012487021238153696 -0.019209504446197689 0.019209504446197689 -0.031176497540910886 0.019209504446197689 -0.019209504446197689 -0.031176497540910886 -0.099240740914939868 0.099240740914939868 0.17280833106766993 0.099240740914939868 -0.099240740914939868 0.17280833106766993 0.069558630507323485 0.069558630507323485 0.3118843963739335 -0.069558630507323499 -0.069558630507323499 0.3118843963739335 0 0 0.24409454335139188 0.23632349053646456 0.23632349053646456 0.1951676518267382 -0.23632349053646456 -0.23632349053646456 0.1951676518267382 0 0 0.21122709274732174 -0.01627577598620818 0.01627577598620818 0.020180126043500782 0.01627577598620818 -0.01627577598620818 0.020180126043500782 -0.014281648574730963 0.014281648574730963 0.12222393209157982 0.014281648574730963 -0.014281648574730963 0.12222393209157982 0.066264170512588705 0.066264170512588705 0.15072010679505701 -0.066264170512588705 -0.066264170512588705 0.15072010679505701 0 0 0.15345565999867808 0 0 0.12593747677250297 0 0 0.11542092652141156 0 0 0.075160599313089604</DataArray></Points><Cells><DataArray type="Int32" Name="connectivity" format="ascii">0 3 2 1 20 22 26 23 8 4 2 6 21 25 27 24 2 1 23 26 14 13 28 32 2 26 22 3 10 33 29 9 2 27 25 4 14 34 30 17 2 6 24 27 10 15 31 35 2 26 33 10 27 36 37 35 2 14 32 26 27 34 38 36 2 1 13 14 4 5 19 17 2 10 9 3 6 15 18 7 20 22 26 23 39 40 36 41 21 25 27 24 39 41 36 40 22 26 36 40 29 33 37 42 23 41 36 26 28 43 38 32 24 40 36 27 31 42 37 35 25 27 36 41 30 34 38 43 33 10 35 37 44 11 45 46 32 38 34 14 44 46 45 11 10 33 29 9 11 44 47 12 14 13 28 32 11 12 47 44 10 15 31 35 11 16 48 45 14 34 30 17 11 45 48 16 32 38 46 44 28 43 49 47 33 44 46 37 29 47 49 42 34 45 46 38 30 48 49 43 35 37 46 45 31 42 49 48 40 22 29 42 24 50 52 31 41 43 28 23 25 30 53 51 28 43 49 47 54 56 42 29 30 48 49 43 55 31 42 56 43 28 53 30 56 54 57 55 42 31 52 29 56 55 57 54 47 28 54 29 58 53 57 52 48 31 55 30 58 52 57 53 47 28 53 58 20 23 51 59 47 58 52 29 20 59 50 22 48 58 53 30 21 59 51 25 48 31 52 58 21 24 50 59 29 47 20 22 9 12 0 3 28 23 20 47 13 1 0 12 31 24 21 48 15 6 8 16 30 48 21 25 17 16 8 4 40 22 50 24 39 20 59 21 41 25 51 23 39 21 59 20</DataArray><DataArray type="Int32" Name="offsets" format="ascii">8 16 24 32 40 48 56 64 72 80 88 96 104 112 120 128 136 144 152 160 168 176 184 192 200 208 216 224 232 240 248 256 264 272 280 288 296 304 312 320 328 336 344 352</DataArray><DataArray type="Int32" Name="types" format="ascii">12 12 12 12 12 12 12 12 12 12 12 12 12 12 12 12 12 12 12 12 12 12 12 12 12 12 12 12 12 12 12 12 12 12 12 12 12 12 12 12 12 12 12 12</DataArray></Cells></Piece></UnstructuredGrid></VTKFile>