<?xml version='1.0' encoding='utf-8'?>
<VTKFile type="UnstructuredGrid" version="0.1" byte_order="LittleEndian"><UnstructuredGrid><Piece NumberOfPoints="62" NumberOfCells="44"><Points><DataArray type="Float64" NumberOfComponents="3" format="ascii">1 1 -0.58333333333333337 1 0 -0.58333333333333337 0 0 -0.58333333333333337 0 1 -0.58333333333333337 0 -1 -0.58333333333333337 1 -1 -0.58333333333333337 -1 0 -0.58333333333333337 -1 1 -0.58333333333333337 -1 -1 -0.58333333333333337 0 1 0.58333333333333337 -0.38475799166666663 0.38475799166666663 0.58333333333333337 0 0 0.58333333333333337 1 1 0.58333333333333337 1 0 0.58333333333333337 0.38475799166666663 -0.38475799166666663 0.58333333333333337 -1 0 0.58333333333333337 -1 -1 0.58333333333333337 0 -1 0.58333333333333337 -1 1 0.58333333333333337 1 -1 0.58333333333333337 0.35958817684621419 0.35958817684621419 -0.083764863711395993 -0.35958817684621419 -0.35958817684621419 -0.083764863711395993 0.1637483905968273 0.34804350454707111 -0.05784280719482781 0.34804350454707111 0.1637483905968273 -0.05784280719482781 -0.34804350454707111 -0.1637483905968273 -0.05784280719482781 -0.1637483905968273 -0.34804350454707111 -0.05784280719482781 0.076525656826460342 0.076525656826460342 -0.15048301679638026 -0.076525656826460342 -0.076525656826460342 -0.15048301679638026 0.39360858388967085 0.025055486602030639 0.23575371757465866 0.025055486602030639 0.39360858388967085 0.23575371757465866 -0.025055486602030639 -0.39360858388967085 0.23575371757465866 -0.39360858388967085 -0.025055486602030639 0.23575371757465866 0.34478785816269725 -0.029145957713735009 0.26911797922020619 -0.029145957713735009 0.34478785816269725 0.26911797922020619 0.029145957713735009 -0.34478785816269725 0.26911797922020619 -0.34478785816269725 0.029145957713735009 0.26911797922020619 0 0 0.10385376066627831 -0.086686576574579968 0.086686576574579968 0.21397946836733275 0.086686576574579968 -0.086686576574579968 0.21397946836733275 0 0 0.11278028968539955 -0.0016574301572722656 0.0016574301572722656 0.1108259297783266 0.0016574301572722656 -0.0016574301572722656 0.1108259297783266 -0.054879211627281453 0.054879211627281453 0.19993066001363582 0.054879211627281453 -0.054879211627281453 0.19993066001363582 -0.038971176404420382 0.16554208760222672 0.33445517495115668 0.16554208760222672 -0.038971176404420382 0.33445517495115668 -0.16554208760222672 0.038971176404420382 0.33445517495115668 0.038971176404420382 -0.16554208760222672 0.33445517495115668 -0.21865526290810722 0.21865526290810722 0.47551240337298634 0.21865526290810722 -0.21865526290810722 0.47551240337298634 -0.0541272363045971 0.054127236304597107 0.31833865479097351 0.054127236304597107 -0.0541272363045971 0.31833865479097351 0.08086072715516901 0.08086072715516901 0.34455715214059274 -0.08086072715516901 -0.08086072715516901 0.34455715214059279 0.31471683632569275 0.31471683632569275 0.25362799863016527 -0.31471683632569275 -0.31471683632569275 0.25362799863016527 0.026388586368202859 0.026388586368202859 0.36196054566489966 -0.026388586368202863 -0.026388586368202863 0.36196054566489966 0 0 0.50397091327304244 0 0 0.1980430089806226 0 0 0.28382757537055081 0 0 0.32865460244725797</DataArray></Points><Cells><DataArray type="Int32" Name="connectivity" format="ascii">0 3 2 1 20 22 26 23 8 4 2 6 21 25 27 24 2 1 23 26 14 13 28 32 2 26 22 3 10 33 29 9 2 27 25 4 14 34 30 17 2 6 24 27 10 15 31 35 2 26 33 10 27 36 37 35 2 14 32 26 27 34 38 36 2 1 13 14 4 5 19 17 2 10 9 3 6 15 18 7 20 22 26 23 39 40 36 41 21 25 27 24 39 41 36 40 22 26 36 40 29 33 37 42 23 41 36 26 28 43 38 32 24 40 36 27 31 42 37 35 25 27 36 41 30 34 38 43 33 10 35 37 44 48 46 50 32 38 34 14 45 51 47 49 10 33 29 9 11 52 54 12 14 13 28 32 11 12 54 52 10 15 31 35 11 16 55 53 14 34 30 17 11 53 55 16 10 33 52 11 48 44 56 58 14 11 52 32 49 58 56 45 10 11 53 35 48 58 57 46 14 34 53 11 49 47 57 58 28 43 38 32 54 59 60 52 29 33 37 42 54 52 60 59 30 34 38 43 55 53 60 59 31 42 37 35 55 59 60 53 38 32 52 60 51 45 56 61 37 60 52 33 50 61 56 44 38 60 53 34 51 61 57 47 37 35 53 60 50 46 57 61 40 22 29 42 39 20 54 59 41 43 28 23 39 59 54 20 40 42 31 24 39 59 55 21 41 25 30 43 39 21 55 59 22 29 54 20 3 9 12 0 23 20 54 28 1 0 12 13 24 21 55 31 6 8 16 15 25 30 55 21 4 17 16 8 48 44 56 58 46 50 61 57 49 58 56 45 47 57 61 51</DataArray><DataArray type="Int32" Name="offsets" format="ascii">8 16 24 32 40 48 56 64 72 80 88 96 104 112 120 128 136 144 152 160 168 176 184 192 200 208 216 224 232 240 248 256 264 272 280 288 296 304 312 320 328 336 344 352</DataArray><DataArray type="Int32" Name="types" format="ascii">12 12 12 12 12 12 12 12 12 12 12 12 12 12 12 12 12 12 12 12 12 12 12 12 12 12 12 12 12 12 12 12 12 12 12 12 12 12 12 12 12 12 12 12</DataArray></Cells></Piece></UnstructuredGrid></VTKFile>