<?xml version='1.0' encoding='utf-8'?>
<VTKFile type="UnstructuredGrid" version="0.1" byte_order="LittleEndian"><UnstructuredGrid><Piece NumberOfPoints="65" NumberOfCells="44"><Points><DataArray type="Float64" NumberOfComponents="3" format="ascii">1 1 -0.58333333333333337 1 0 -0.58333333333333337 0 0 -0.58333333333333337 0 1 -0.58333333333333337 0 -1 -0.58333333333333337 1 -1 -0.58333333333333337 -1 0 -0.58333333333333337 -1 1 -0.58333333333333337 -1 -1 -0.58333333333333337 0 1 0.58333333333333337 -0.38475799166666663 0.38475799166666663 0.58333333333333337 0 0 0.58333333333333337 1 1 0.58333333333333337 1 0 0.58333333333333337 0.38475799166666663 -0.38475799166666663 0.58333333333333337 -1 0 0.58333333333333337 -1 -1 0.58333333333333337 0 -1 0.58333333333333337 -1 1 0.58333333333333337 1 -1 0.58333333333333337 1 1 0 1 -1 0 1 0 0 -1 1 0 0 1 0 -1 -1 0 -1 0 0 0 -1 0 0 0 -0.42935977302092238 0.29926716109629936 0.29926716109629936 0.24818010150586589 -0.29926716109629936 -0.29926716109629936 0.24818010150586589 0.19149808258550835 0.36311952365397787 0.19862526140365053 0.36311952365397787 0.19149808258550835 0.19862526140365053 -0.36311952365397787 -0.19149808258550835 0.19862526140365053 -0.19149808258550835 -0.36311952365397787 0.19862526140365053 0.023573802628371419 0.023573802628371419 -0.26067540894896968 -0.023573802628371419 -0.023573802628371419 -0.26067540894896968 0.10467758184471242 0.42331147783893297 0.36031010457441642 0.42331147783893297 0.10467758184471242 0.36031010457441642 -0.42331147783893297 -0.10467758184471242 0.36031010457441642 -0.10467758184471242 -0.42331147783893297 0.36031010457441642 -0.27439933772579234 0.33304018815646391 0.48432580459912572 0.33304018815646391 -0.27439933772579234 0.48432580459912572 -0.33304018815646391 0.27439933772579234 0.48432580459912572 0.27439933772579234 -0.33304018815646391 0.48432580459912572 0 0 -0.25356443806655576 -0.29841476001126616 0.29841476001126616 0.48004363196941335 0.29841476001126616 -0.29841476001126616 0.48004363196941335 0 0 0.17860957073676631 -0.08257053872777334 0.08257053872777334 0.12236245845838718 0.08257053872777334 -0.08257053872777334 0.12236245845838718 -0.19868856136283272 0.19868856136283272 0.38384688111821746 0.19868856136283272 -0.19868856136283272 0.38384688111821746 0.014284344520132193 0.014284344520132193 0.56997711458188238 -0.014284344520132193 -0.014284344520132193 0.56997711458188238 0 0 0.50144491998713314 0.38461800541474267 0.38461800541474267 0.3540318024663745 -0.38461800541474267 -0.38461800541474267 0.3540318024663745 -0.065239537920641147 0.065239537920641147 0.28344055627694525 0.065239537920641147 -0.065239537920641147 0.28344055627694525 -0.052441360123603252 0.052441360123603252 0.26338034116691661 0.052441360123603252 -0.052441360123603252 0.26338034116691661 0 0 0.29898716492018523 0 0 0.30312266563607165 0 0 0.44340349396673889</DataArray></Points><Cells><DataArray type="Int32" Name="connectivity" format="ascii">0 3 2 1 20 24 28 22 8 4 2 6 25 27 28 26 2 1 22 28 4 5 21 27 2 28 24 3 6 26 23 7 20 24 28 22 29 31 35 32 25 27 28 26 30 34 36 33 22 28 27 21 13 14 17 19 24 23 26 28 9 18 15 10 28 24 9 10 35 31 37 41 28 14 13 22 35 42 38 32 28 10 15 26 36 43 39 33 28 27 17 14 36 34 40 44 10 28 35 41 43 36 45 46 14 42 35 28 44 47 45 36 29 31 35 32 48 49 45 50 30 34 36 33 48 50 45 49 31 35 45 49 37 41 46 51 32 50 45 35 38 52 47 42 33 49 45 36 39 51 46 43 34 36 45 50 40 44 47 52 41 10 43 46 53 11 54 55 42 47 44 14 53 55 54 11 9 10 41 37 12 11 53 56 13 38 42 14 12 56 53 11 15 39 43 10 16 57 54 11 17 14 44 40 16 11 54 57 24 9 37 31 20 12 56 29 22 32 38 13 20 29 56 12 26 33 39 15 25 30 57 16 27 17 40 34 25 16 57 30 37 31 29 56 58 60 62 63 38 56 29 32 59 63 62 61 39 57 30 33 58 63 62 60 40 34 30 57 59 61 62 63 41 37 56 53 46 51 64 55 42 53 56 38 47 55 64 52 43 54 57 39 46 55 64 51 44 40 57 54 47 52 64 55 37 56 64 51 58 63 57 39 38 52 64 56 59 40 57 63 51 37 58 39 49 31 60 33 52 40 59 38 50 34 61 32 49 31 60 33 48 29 62 30 50 34 61 32 48 30 62 29</DataArray><DataArray type="Int32" Name="offsets" format="ascii">8 16 24 32 40 48 56 64 72 80 88 96 104 112 120 128 136 144 152 160 168 176 184 192 200 208 216 224 232 240 248 256 264 272 280 288 296 304 312 320 328 336 344 352</DataArray><DataArray type="Int32" Name="types" format="ascii">12 12 12 12 12 12 12 12 12 12 12 12 12 12 12 12 12 12 12 12 12 12 12 12 12 12 12 12 12 12 12 12 12 12 12 12 12 12 12 12 12 12 12 12</DataArray></Cells></Piece></UnstructuredGrid></VTKFile>