<?xml version='1.0' encoding='utf-8'?>
<VTKFile type="UnstructuredGrid" version="0.1" byte_order="LittleEndian"><UnstructuredGrid><Piece NumberOfPoints="61" NumberOfCells="40"><Points><DataArray type="Float64" NumberOfComponents="3" format="ascii">1 1 -0.58333333333333337 1 0 -0.58333333333333337 0 0 -0.58333333333333337 0 1 -0.58333333333333337 0 -1 -0.58333333333333337 1 -1 -0.58333333333333337 -1 0 -0.58333333333333337 -1 1 -0.58333333333333337 -1 -1 -0.58333333333333337 0 1 0.58333333333333337 -0.38475799166666663 0.38475799166666663 0.58333333333333337 0 0 0.58333333333333337 1 1 0.58333333333333337 1 0 0.58333333333333337 0.38475799166666663 -0.38475799166666663 0.58333333333333337 -1 0 0.58333333333333337 -1 -1 0.58333333333333337 0 -1 0.58333333333333337 -1 1 0.58333333333333337 1 -1 0.58333333333333337 1 1 0 1 -1 0 1 0 0 -1 1 0 0 1 0 -1 -1 0 -1 0 0 0 -1 0 0.36150324255738125 0.36150324255738125 -0.32969890896700454 -0.36150324255738125 -0.36150324255738125 -0.32969890896700454 0.16644913338288467 0.38896396287260432 -0.38390382924356298 0.38896396287260432 0.16644913338288467 -0.38390382924356298 -0.38896396287260432 -0.16644913338288467 -0.38390382924356298 -0.16644913338288467 -0.38896396287260432 -0.38390382924356298 0.054709736106209869 0.054709736106209869 -0.51435580754315724 -0.054709736106209869 -0.054709736106209869 -0.51435580754315724 0.27348858656683939 -0.27348858656683939 -0.13673183865139063 -0.27348858656683939 0.27348858656683939 -0.13673183865139063 0.40310350003167622 0.098167787210880139 -0.29503955193644177 0.098167787210880139 0.40310350003167622 -0.29503955193644177 -0.098167787210880139 -0.40310350003167622 -0.29503955193644177 -0.40310350003167622 -0.098167787210880139 -0.29503955193644177 0.24584202831893795 -0.082070503069196096 -0.23697660394321596 -0.082070503069196096 0.24584202831893795 -0.23697660394321596 0.082070503069196096 -0.24584202831893795 -0.23697660394321596 -0.24584202831893795 0.082070503069196096 -0.23697660394321596 0 0 -0.33136703339090395 0.076312908716247671 -0.076312908716247671 -0.26968895926635345 -0.076312908716247671 0.076312908716247671 -0.26968895926635345 0 0 -0.24159256137080373 -0.012541603425089929 0.012541603425089929 -0.28301793266115965 0.012541603425089929 -0.012541603425089929 -0.28301793266115965 -0.014301056697688006 0.014301056697688006 -0.28175291419099763 0.014301056697688006 -0.014301056697688006 -0.28175291419099763 0 0 0.16525685087763742 0.10036220617129746 0.10036220617129746 -0.12612327079945823 -0.10036220617129746 -0.10036220617129746 -0.12612327079945823 0 0 -0.1895446924307507 0.3262374416948946 0.3262374416948946 -0.23870199718926402 -0.3262374416948946 -0.3262374416948946 -0.23870199718926402 0 0 -0.22096186107729421</DataArray></Points><Cells><DataArray type="Int32" Name="connectivity" format="ascii">0 3 2 1 28 30 34 31 8 4 2 6 29 33 35 32 2 1 31 34 36 22 38 42 2 34 30 3 37 43 39 24 2 35 33 4 36 44 40 27 2 6 32 35 37 26 41 45 34 2 36 42 46 35 44 47 34 43 37 2 46 48 45 35 2 1 22 36 4 5 21 27 2 37 24 3 6 26 23 7 28 30 34 31 49 50 46 51 29 33 35 32 49 51 46 50 30 34 46 50 39 43 48 52 31 51 46 34 38 53 47 42 32 50 46 35 41 52 48 45 33 35 46 51 40 44 47 53 36 42 47 44 54 55 57 56 37 45 48 43 54 56 57 55 36 22 38 42 54 20 58 55 37 43 39 24 54 55 58 20 36 44 40 27 54 56 59 25 37 26 41 45 54 25 59 56 36 22 20 54 14 13 12 11 37 54 20 24 10 11 12 9 36 54 25 27 14 11 16 17 37 26 25 54 10 15 16 11 22 36 27 21 13 14 17 19 24 23 26 37 9 18 15 10 1 31 38 22 0 28 58 20 3 24 39 30 0 20 58 28 4 27 40 33 8 25 59 29 6 32 41 26 8 29 59 25 39 30 28 58 52 50 49 60 38 58 28 31 53 60 49 51 41 59 29 32 52 60 49 50 40 33 29 59 53 51 49 60 38 42 55 58 53 47 57 60 39 58 55 43 52 60 57 48 40 59 56 44 53 60 57 47 41 45 56 59 52 48 57 60</DataArray><DataArray type="Int32" Name="offsets" format="ascii">8 16 24 32 40 48 56 64 72 80 88 96 104 112 120 128 136 144 152 160 168 176 184 192 200 208 216 224 232 240 248 256 264 272 280 288 296 304 312 320</DataArray><DataArray type="Int32" Name="types" format="ascii">12 12 12 12 12 12 12 12 12 12 12 12 12 12 12 12 12 12 12 12 12 12 12 12 12 12 12 12 12 12 12 12 12 12 12 12 12 12 12 12</DataArray></Cells></Piece></UnstructuredGrid></VTKFile>