<?xml version='1.0' encoding='utf-8'?>
<VTKFile type="UnstructuredGrid" version="0.1" byte_order="LittleEndian"><UnstructuredGrid><Piece NumberOfPoints="65" NumberOfCells="44"><Points><DataArray type="Float64" NumberOfComponents="3" format="ascii">1 1 -0.58333333333333337 1 0 -0.58333333333333337 0 0 -0.58333333333333337 0 1 -0.58333333333333337 0 -1 -0.58333333333333337 1 -1 -0.58333333333333337 -1 0 -0.58333333333333337 -1 1 -0.58333333333333337 -1 -1 -0.58333333333333337 0 1 0.58333333333333337 -0.38475799166666663 0.38475799166666663 0.58333333333333337 0 0 0.58333333333333337 1 1 0.58333333333333337 1 0 0.58333333333333337 0.38475799166666663 -0.38475799166666663 0.58333333333333337 -1 0 0.58333333333333337 -1 -1 0.58333333333333337 0 -1 0.58333333333333337 -1 1 0.58333333333333337 1 -1 0.58333333333333337 1 1 0 1 -1 0 1 0 0 -1 1 0 0 1 0 -1 -1 0 -1 0 0 0 -1 0 0.23117261774381845 0.23117261774381845 -0.21613797629743084 -0.23117261774381845 -0.23117261774381845 -0.21613797629743084 0.00068721726240454726 -0.00068721726240454726 -0.58274419638062036 -0.00068721726240454726 0.00068721726240454726 -0.58274419638062036 0.38228550722371313 -0.15315857889930282 -0.47091277696463085 -0.15315857889930282 0.38228550722371313 -0.47091277696463085 0.15315857889930282 -0.38228550722371313 -0.47091277696463085 -0.38228550722371313 0.15315857889930282 -0.47091277696463085 0.44411243839220177 -0.057029232664126094 -0.31567686783825744 -0.057029232664126094 0.44411243839220177 -0.31567686783825744 0.057029232664126094 -0.44411243839220177 -0.31567686783825744 -0.44411243839220177 0.057029232664126094 -0.31567686783825744 0.24770193215449327 0.15076454770761322 -0.25168887237116588 0.15076454770761322 0.24770193215449327 -0.25168887237116588 -0.15076454770761322 -0.24770193215449327 -0.25168887237116588 -0.24770193215449327 -0.15076454770761322 -0.25168887237116588 0 0 -0.58110446196732768 0.13089956578650319 0.13089956578650319 -0.30846371336275508 -0.13089956578650319 -0.13089956578650319 -0.30846371336275508 0.40035379474419153 -0.40035379474419153 -0.38664392723091201 -0.40035379474419153 0.40035379474419153 -0.38664392723091201 0.020313317518693186 0.020313317518693186 -0.42154659883352724 -0.020313317518693186 -0.020313317518693186 -0.42154659883352724 0 0 -0.39109765472026792 0.076978295596609986 0.076978295596609986 -0.35208863346115105 -0.076978295596609986 -0.076978295596609986 -0.35208863346115105 0.0041861471126402169 -0.0041861471126402169 -0.24713798374775242 -0.0041861471126402169 0.0041861471126402169 -0.24713798374775242 0 0 -0.24463700087947071 0 0 -0.25900632260471002 0.42685251858886752 -0.42685251858886752 -0.35629367748024571 -0.42685251858886752 0.42685251858886752 -0.35629367748024571 0.27695159833333333 -0.27695159833333333 0.14969135253497676 -0.27695159833333333 0.27695159833333333 0.14969135253497676 0 0 -0.01141977833910687 0 0 0.24401803022867924 0 0 -0.38843246774698248</DataArray></Points><Cells><DataArray type="Int32" Name="connectivity" format="ascii">0 3 2 1 20 24 28 22 8 4 2 6 25 27 29 26 2 1 22 28 30 32 36 40 2 28 24 3 31 41 37 33 2 29 27 4 30 42 38 34 2 6 26 29 31 35 39 43 28 2 30 40 41 31 44 45 29 42 30 2 43 46 44 31 2 1 32 30 4 5 47 34 2 31 33 3 6 35 48 7 32 30 34 47 49 44 50 51 33 48 35 31 49 51 50 44 32 30 44 49 36 40 45 52 33 49 44 31 37 52 45 41 34 50 44 30 38 53 46 42 35 31 44 50 39 43 46 53 40 28 41 45 54 56 55 57 42 46 43 29 54 57 55 56 22 28 40 36 21 56 54 58 24 37 41 28 23 59 55 56 27 38 42 29 21 58 54 56 26 29 43 39 23 56 55 59 22 28 56 21 60 62 29 27 24 23 56 28 61 26 29 62 20 24 28 22 63 61 62 60 25 27 29 26 63 60 62 61 21 22 60 27 19 13 14 17 23 26 61 24 18 15 10 9 1 22 36 32 5 21 58 47 3 33 37 24 7 48 59 23 4 34 38 27 5 47 58 21 6 26 39 35 7 23 59 48 36 32 47 58 52 49 51 64 37 59 48 33 52 64 51 49 38 58 47 34 53 64 51 50 39 35 48 59 53 50 51 64 40 36 58 54 45 52 64 57 41 55 59 37 45 57 64 52 42 54 58 38 46 57 64 53 43 39 59 55 46 53 64 57 22 20 63 60 13 12 11 14 24 61 63 20 9 10 11 12 27 60 63 25 17 14 11 16 26 25 63 61 15 16 11 10</DataArray><DataArray type="Int32" Name="offsets" format="ascii">8 16 24 32 40 48 56 64 72 80 88 96 104 112 120 128 136 144 152 160 168 176 184 192 200 208 216 224 232 240 248 256 264 272 280 288 296 304 312 320 328 336 344 352</DataArray><DataArray type="Int32" Name="types" format="ascii">12 12 12 12 12 12 12 12 12 12 12 12 12 12 12 12 12 12 12 12 12 12 12 12 12 12 12 12 12 12 12 12 12 12 12 12 12 12 12 12 12 12 12 12</DataArray></Cells></Piece></UnstructuredGrid></VTKFile>