<?xml version='1.0' encoding='utf-8'?>
<VTKFile type="UnstructuredGrid" version="0.1" byte_order="LittleEndian"><UnstructuredGrid><Piece NumberOfPoints="65" NumberOfCells="44"><Points><DataArray type="Float64" NumberOfComponents="3" format="ascii">1 1 -0.58333333333333337 1 0 -0.58333333333333337 0 0 -0.58333333333333337 0 1 -0.58333333333333337 0 -1 -0.58333333333333337 1 -1 -0.58333333333333337 -1 0 -0.58333333333333337 -1 1 -0.58333333333333337 -1 -1 -0.58333333333333337 0 1 0.58333333333333337 -0.38475799166666663 0.38475799166666663 0.58333333333333337 0 0 0.58333333333333337 1 1 0.58333333333333337 1 0 0.58333333333333337 0.38475799166666663 -0.38475799166666663 0.58333333333333337 -1 0 0.58333333333333337 -1 -1 0.58333333333333337 0 -1 0.58333333333333337 -1 1 0.58333333333333337 1 -1 0.58333333333333337 1 1 0 1 -1 0 1 0 0 -1 1 0 0 1 0 -1 -1 0 -1 0 0 0 -1 0 0.31723230219902737 0.31723230219902737 -0.3229482380771232 -0.31723230219902737 -0.31723230219902737 -0.3229482380771232 0.20539833773380536 0.28249685545721487 -0.32974696726254188 0.28249685545721487 0.20539833773380536 -0.32974696726254188 -0.28249685545721487 -0.20539833773380536 -0.32974696726254188 -0.20539833773380536 -0.28249685545721487 -0.32974696726254188 0.071176626784446667 0.071176626784446667 -0.41406485450409197 -0.071176626784446667 -0.071176626784446667 -0.41406485450409197 0.35081817878291677 -0.35081817878291677 0.1123663241987078 -0.35081817878291677 0.35081817878291677 0.1123663241987078 0.37944714176222272 0.14778121149784637 -0.16829946908533941 0.14778121149784637 0.37944714176222272 -0.16829946908533941 -0.14778121149784637 -0.37944714176222272 -0.16829946908533941 -0.37944714176222272 -0.14778121149784637 -0.16829946908533941 0.3060168449120072 0.024998236525169658 -0.11707977526000748 0.024998236525169658 0.3060168449120072 -0.11707977526000748 -0.024998236525169658 -0.3060168449120072 -0.11707977526000748 -0.3060168449120072 -0.024998236525169658 -0.11707977526000748 0 0 -0.24059306881488374 0.060954437865528982 -0.060954437865528982 -0.16144898189983864 -0.060954437865528982 0.060954437865528982 -0.16144898189983864 0 0 -0.18945172718928621 -0.0086715315623316983 0.0086715315623316983 -0.19779134374388324 0.0086715315623316983 -0.0086715315623316983 -0.19779134374388324 -0.0097269366425515869 0.0097269366425515869 -0.19601825854410679 0.0097269366425515869 -0.0097269366425515869 -0.19601825854410679 0 0 0.027149813741578443 0.11235217437369573 0.11235217437369573 -0.099974607695458489 -0.11235217437369573 -0.11235217437369573 -0.099974607695458489 0 0 -0.14695210499833786 0 0 0.36319683002449493 0.28701860154234249 0.28701860154234249 -0.20070190916681571 -0.28701860154234249 -0.28701860154234249 -0.20070190916681571 0.22446033445625382 0.22446033445625382 -0.13912478940563933 -0.22446033445625382 -0.22446033445625382 -0.13912478940563933 0 0 -0.17393923854622506 0 0 -0.18844644769037192</DataArray></Points><Cells><DataArray type="Int32" Name="connectivity" format="ascii">0 3 2 1 28 30 34 31 8 4 2 6 29 33 35 32 2 1 31 34 36 22 38 42 2 34 30 3 37 43 39 24 2 35 33 4 36 44 40 27 2 6 32 35 37 26 41 45 34 2 36 42 46 35 44 47 34 43 37 2 46 48 45 35 2 1 22 36 4 5 21 27 2 37 24 3 6 26 23 7 28 30 34 31 49 50 46 51 29 33 35 32 49 51 46 50 30 34 46 50 39 43 48 52 31 51 46 34 38 53 47 42 32 50 46 35 41 52 48 45 33 35 46 51 40 44 47 53 36 42 47 44 54 55 57 56 37 45 48 43 54 56 57 55 36 22 38 42 58 20 59 61 37 43 39 24 58 61 59 20 36 44 40 27 58 62 60 25 37 26 41 45 58 25 60 62 42 36 58 61 55 54 37 43 44 62 58 36 56 45 37 54 36 22 20 58 14 13 12 11 37 58 20 24 10 11 12 9 36 58 25 27 14 11 16 17 37 26 25 58 10 15 16 11 22 36 27 21 13 14 17 19 24 23 26 37 9 18 15 10 61 42 55 43 63 47 57 48 62 45 56 44 63 48 57 47 61 42 47 63 59 38 53 64 61 63 48 43 59 64 52 39 62 63 47 44 60 64 53 40 62 45 48 63 60 41 52 64 22 38 59 20 1 31 28 0 24 20 59 39 3 0 28 30 27 25 60 40 4 8 29 33 26 41 60 25 6 32 29 8 59 39 30 28 64 52 50 49 59 28 31 38 64 49 51 53 60 29 32 41 64 49 50 52 60 40 33 29 64 53 51 49</DataArray><DataArray type="Int32" Name="offsets" format="ascii">8 16 24 32 40 48 56 64 72 80 88 96 104 112 120 128 136 144 152 160 168 176 184 192 200 208 216 224 232 240 248 256 264 272 280 288 296 304 312 320 328 336 344 352</DataArray><DataArray type="Int32" Name="types" format="ascii">12 12 12 12 12 12 12 12 12 12 12 12 12 12 12 12 12 12 12 12 12 12 12 12 12 12 12 12 12 12 12 12 12 12 12 12 12 12 12 12 12 12 12 12</DataArray></Cells></Piece></UnstructuredGrid></VTKFile>