<?xml version='1.0' encoding='utf-8'?>
<VTKFile type="UnstructuredGrid" version="0.1" byte_order="LittleEndian"><UnstructuredGrid><Piece NumberOfPoints="59" NumberOfCells="38"><Points><DataArray type="Float64" NumberOfComponents="3" format="ascii">1 1 -0.58333333333333337 1 0 -0.58333333333333337 0 0 -0.58333333333333337 0 1 -0.58333333333333337 0 -1 -0.58333333333333337 1 -1 -0.58333333333333337 -1 0 -0.58333333333333337 -1 1 -0.58333333333333337 -1 -1 -0.58333333333333337 0 1 0.58333333333333337 -0.38475799166666663 0.38475799166666663 0.58333333333333337 0 0 0.58333333333333337 1 1 0.58333333333333337 1 0 0.58333333333333337 0.38475799166666663 -0.38475799166666663 0.58333333333333337 -1 0 0.58333333333333337 -1 -1 0.58333333333333337 0 -1 0.58333333333333337 -1 1 0.58333333333333337 1 -1 0.58333333333333337 1 1 0 1 -1 0 1 0 0 -1 1 0 0 1 0 -1 -1 0 -1 0 0 0 -1 0 0 0 -0.081750239396474189 0.37971902803433916 0.37971902803433916 0.24053947917352769 -0.37971902803433916 -0.37971902803433916 0.24053947917352769 0.16859540842000822 0.38309154032761078 0.19673263284580353 0.38309154032761078 0.16859540842000822 0.19673263284580353 -0.38309154032761078 -0.16859540842000822 0.19673263284580353 -0.16859540842000822 -0.38309154032761078 0.19673263284580353 0.075448284652559081 0.075448284652559081 0.06656667781067796 -0.075448284652559081 -0.075448284652559081 0.06656667781067796 0.073311099958071974 0.42036305857757034 0.33145793054481892 0.42036305857757034 0.073311099958071974 0.33145793054481892 -0.42036305857757034 -0.073311099958071974 0.33145793054481892 -0.073311099958071974 -0.42036305857757034 0.33145793054481892 -0.10091042997297486 0.33179568661214032 0.42389108021600641 0.33179568661214032 -0.10091042997297486 0.42389108021600641 -0.33179568661214032 0.10091042997297486 0.42389108021600641 0.10091042997297486 -0.33179568661214032 0.42389108021600641 0 0 0.23585825511373829 -0.088709003640159489 0.088709003640159489 0.3731894876285673 0.088709003640159489 -0.088709003640159489 0.3731894876285673 0 0 0.31678264696185648 -0.013148232374135135 0.013148232374135135 0.31039444547100731 0.013148232374135135 -0.013148232374135135 0.31039444547100731 -0.025123513481876508 0.025123513481876508 0.33124295161687167 0.025123513481876508 -0.025123513481876508 0.33124295161687167 0.084570711169284052 0.084570711169284052 0.47775287701972313 -0.084570711169284052 -0.084570711169284052 0.47775287701972313 0 0 0.41637408235983758 0.39381479099319333 0.39381479099319333 0.25896273493035554 -0.39381479099319333 -0.39381479099319333 0.25896273493035554 0 0 0.32671449265129354</DataArray></Points><Cells><DataArray type="Int32" Name="connectivity" format="ascii">0 3 2 1 20 24 28 22 8 4 2 6 25 27 28 26 2 1 22 28 4 5 21 27 2 28 24 3 6 26 23 7 20 24 28 22 29 31 35 32 25 27 28 26 30 34 36 33 22 28 27 21 13 14 17 19 24 23 26 28 9 18 15 10 28 24 9 10 35 31 37 41 28 14 13 22 35 42 38 32 28 10 15 26 36 43 39 33 28 27 17 14 36 34 40 44 10 28 35 41 43 36 45 46 14 42 35 28 44 47 45 36 29 31 35 32 48 49 45 50 30 34 36 33 48 50 45 49 31 35 45 49 37 41 46 51 32 50 45 35 38 52 47 42 33 49 45 36 39 51 46 43 34 36 45 50 40 44 47 52 41 10 43 46 53 11 54 55 42 47 44 14 53 55 54 11 9 10 41 37 12 11 53 56 13 38 42 14 12 56 53 11 15 39 43 10 16 57 54 11 17 14 44 40 16 11 54 57 24 9 37 31 20 12 56 29 22 32 38 13 20 29 56 12 26 33 39 15 25 30 57 16 27 17 40 34 25 16 57 30 37 31 29 56 51 49 48 58 38 56 29 32 52 58 48 50 39 57 30 33 51 58 48 49 40 34 30 57 52 50 48 58 41 37 56 53 46 51 58 55 42 53 56 38 47 55 58 52 43 54 57 39 46 55 58 51 44 40 57 54 47 52 58 55</DataArray><DataArray type="Int32" Name="offsets" format="ascii">8 16 24 32 40 48 56 64 72 80 88 96 104 112 120 128 136 144 152 160 168 176 184 192 200 208 216 224 232 240 248 256 264 272 280 288 296 304</DataArray><DataArray type="Int32" Name="types" format="ascii">12 12 12 12 12 12 12 12 12 12 12 12 12 12 12 12 12 12 12 12 12 12 12 12 12 12 12 12 12 12 12 12 12 12 12 12 12 12</DataArray></Cells></Piece></UnstructuredGrid></VTKFile>