<?xml version='1.0' encoding='utf-8'?>
<VTKFile type="UnstructuredGrid" version="0.1" byte_order="LittleEndian"><UnstructuredGrid><Piece NumberOfPoints="65" NumberOfCells="44"><Points><DataArray type="Float64" NumberOfComponents="3" format="ascii">1 1 -0.58333333333333337 1 0 -0.58333333333333337 0 0 -0.58333333333333337 0 1 -0.58333333333333337 0 -1 -0.58333333333333337 1 -1 -0.58333333333333337 -1 0 -0.58333333333333337 -1 1 -0.58333333333333337 -1 -1 -0.58333333333333337 0 1 0.58333333333333337 -0.38475799166666663 0.38475799166666663 0.58333333333333337 0 0 0.58333333333333337 1 1 0.58333333333333337 1 0 0.58333333333333337 0.38475799166666663 -0.38475799166666663 0.58333333333333337 -1 0 0.58333333333333337 -1 -1 0.58333333333333337 0 -1 0.58333333333333337 -1 1 0.58333333333333337 1 -1 0.58333333333333337 1 1 0 1 -1 0 1 0 0 -1 1 0 0 1 0 -1 -1 0 -1 0 0 0 -1 0 0 0 -0.23852508622962088 0.45280714733563382 0.45280714733563382 0.21718443861041442 -0.45280714733563382 -0.45280714733563382 0.21718443861041442 0.19097144083653134 0.34909125224949544 0.082454343359087703 0.34909125224949544 0.19097144083653134 0.082454343359087703 -0.34909125224949544 -0.19097144083653134 0.082454343359087703 -0.19097144083653134 -0.34909125224949544 0.082454343359087703 0.034624728842498981 0.034624728842498981 -0.13466014288441777 -0.034624728842498981 -0.034624728842498981 -0.13466014288441777 0.081848792398909645 0.46402298649132284 0.32199219945877733 0.46402298649132284 0.081848792398909645 0.32199219945877733 -0.46402298649132284 -0.081848792398909645 0.32199219945877733 -0.081848792398909645 -0.46402298649132284 0.32199219945877733 -0.20273288448362659 0.33799586231975309 0.4676446493491152 0.33799586231975309 -0.20273288448362659 0.4676446493491152 -0.33799586231975309 0.20273288448362659 0.4676446493491152 0.20273288448362659 -0.33799586231975309 0.4676446493491152 0 0 -0.10278464799008143 -0.19767681524935127 0.19767681524935127 0.39830117731651643 0.19767681524935127 -0.19767681524935127 0.39830117731651643 0 0 0.17698207056372905 -0.03204953243334125 0.03204953243334125 0.17004891814116027 0.03204953243334125 -0.03204953243334125 0.17004891814116027 -0.066919301918423116 0.066919301918423116 0.27105870081297712 0.066919301918423116 -0.066919301918423116 0.27105870081297712 0.013494658003625343 0.013494658003625343 0.56752554893039819 -0.013494658003625343 -0.013494658003625343 0.56752554893039819 0 0 0.52026661971815991 0.48877750561568073 0.48877750561568073 0.28421327056029433 -0.48877750561568073 -0.48877750561568073 0.28421327056029433 0 0 0.1772393582283073 0.086919676786418973 0.086919676786418973 0.38650165240072837 -0.086919676786418973 -0.086919676786418973 0.38650165240072837 0.11263212192924603 0.11263212192924603 0.36687258288659846 -0.11263212192924603 -0.11263212192924603 0.36687258288659846 0 0 0.34009177733985119 0 0 0.35861516635141444</DataArray></Points><Cells><DataArray type="Int32" Name="connectivity" format="ascii">0 3 2 1 20 24 28 22 8 4 2 6 25 27 28 26 2 1 22 28 4 5 21 27 2 28 24 3 6 26 23 7 20 24 28 22 29 31 35 32 25 27 28 26 30 34 36 33 22 28 27 21 13 14 17 19 24 23 26 28 9 18 15 10 28 24 9 10 35 31 37 41 28 14 13 22 35 42 38 32 28 10 15 26 36 43 39 33 28 27 17 14 36 34 40 44 10 28 35 41 43 36 45 46 14 42 35 28 44 47 45 36 29 31 35 32 48 49 45 50 30 34 36 33 48 50 45 49 31 35 45 49 37 41 46 51 32 50 45 35 38 52 47 42 33 49 45 36 39 51 46 43 34 36 45 50 40 44 47 52 41 10 43 46 53 11 54 55 42 47 44 14 53 55 54 11 9 10 41 37 12 11 53 56 13 38 42 14 12 56 53 11 15 39 43 10 16 57 54 11 17 14 44 40 16 11 54 57 24 9 37 31 20 12 56 29 22 32 38 13 20 29 56 12 26 33 39 15 25 30 57 16 27 17 40 34 25 16 57 30 37 31 29 56 51 49 48 58 38 56 29 32 52 58 48 50 39 57 30 33 51 58 48 49 40 34 30 57 52 50 48 58 41 37 56 53 59 61 38 42 43 54 57 39 60 44 40 62 56 37 51 58 38 61 63 52 57 58 51 39 40 52 63 62 37 41 46 51 61 59 64 63 38 52 47 42 61 63 64 59 39 51 46 43 62 63 64 60 40 44 47 52 62 60 64 63 53 41 59 42 55 46 64 47 54 44 60 43 55 47 64 46</DataArray><DataArray type="Int32" Name="offsets" format="ascii">8 16 24 32 40 48 56 64 72 80 88 96 104 112 120 128 136 144 152 160 168 176 184 192 200 208 216 224 232 240 248 256 264 272 280 288 296 304 312 320 328 336 344 352</DataArray><DataArray type="Int32" Name="types" format="ascii">12 12 12 12 12 12 12 12 12 12 12 12 12 12 12 12 12 12 12 12 12 12 12 12 12 12 12 12 12 12 12 12 12 12 12 12 12 12 12 12 12 12 12 12</DataArray></Cells></Piece></UnstructuredGrid></VTKFile>