<?xml version='1.0' encoding='utf-8'?>
<VTKFile type="UnstructuredGrid" version="0.1" byte_order="LittleEndian"><UnstructuredGrid><Piece NumberOfPoints="67" NumberOfCells="44"><Points><DataArray type="Float64" NumberOfComponents="3" format="ascii">1 1 -0.58333333333333337 1 0 -0.58333333333333337 0 0 -0.58333333333333337 0 1 -0.58333333333333337 0 -1 -0.58333333333333337 1 -1 -0.58333333333333337 -1 0 -0.58333333333333337 -1 1 -0.58333333333333337 -1 -1 -0.58333333333333337 0 1 0.58333333333333337 -0.38475799166666663 0.38475799166666663 0.58333333333333337 0 0 0.58333333333333337 1 1 0.58333333333333337 1 0 0.58333333333333337 0.38475799166666663 -0.38475799166666663 0.58333333333333337 -1 0 0.58333333333333337 -1 -1 0.58333333333333337 0 -1 0.58333333333333337 -1 1 0.58333333333333337 1 -1 0.58333333333333337 1 1 0 1 -1 0 1 -0.33333333333333331 0 1 0.33333333333333331 0 -1 1 0 0.33333333333333331 1 0 -0.33333333333333331 1 0 -1 -1 0 -1 0.33333333333333331 0 -1 -0.33333333333333331 0 -0.33333333333333331 -1 0 0.33333333333333331 -1 0 0.36789443707426955 0.36789443707426955 -0.34525935511809025 -0.36789443707426955 -0.36789443707426955 -0.34525935511809025 0.24363662308449116 0.35000002294163823 -0.37644881901788518 0.35000002294163823 0.24363662308449116 -0.37644881901788518 -0.35000002294163823 -0.24363662308449116 -0.37644881901788518 -0.24363662308449116 -0.35000002294163823 -0.37644881901788518 0.056482810814665121 0.056482810814665121 -0.50628348739541484 -0.056482810814665121 -0.056482810814665121 -0.50628348739541484 0.11409449317046515 -0.11409449317046515 -0.12261841972439197 -0.11409449317046515 0.11409449317046515 -0.12261841972439197 0.35642800894772675 0.18015238711044493 -0.23942568490883973 0.18015238711044493 0.35642800894772675 -0.23942568490883973 -0.18015238711044493 -0.35642800894772675 -0.23942568490883973 -0.35642800894772675 -0.18015238711044493 -0.23942568490883973 0.14599007571220254 -6.3789942153120815e-05 -0.23136975435561255 -6.3789942153120815e-05 0.14599007571220254 -0.23136975435561255 6.3789942153120815e-05 -0.14599007571220254 -0.23136975435561255 -0.14599007571220254 6.3789942153120815e-05 -0.23136975435561255 0 0 -0.35056008629862745 0.030438138476199344 -0.030438138476199344 -0.28374560681559791 -0.030438138476199344 0.030438138476199344 -0.28374560681559791 0.42952283124999996 -0.42952283125000001 0 -0.42952283125000001 0.42952283124999996 0 0 0 -0.25906212223615688 -0.010538648086668535 0.010538648086668535 -0.26425981753730959 0.010538648086668535 -0.010538648086668535 -0.26425981753730959 -0.011203279248826688 0.011203279248826688 -0.26210605899663358 0.011203279248826688 -0.011203279248826688 -0.26210605899663358 0 0 0.04647588203865971 0.10873079119500036 0.10873079119500036 -0.10708534657288486 -0.10873079119500036 -0.10873079119500036 -0.10708534657288486 0 0 -0.16279127138516902 0.32715749846352771 0.32715749846352771 -0.1745896232808713 -0.32715749846352771 -0.32715749846352771 -0.1745896232808713 0 0 -0.1673793422048567</DataArray></Points><Cells><DataArray type="Int32" Name="connectivity" format="ascii">0 3 2 1 32 34 38 35 8 4 2 6 33 37 39 36 2 1 35 38 40 23 42 46 2 38 34 3 41 47 43 25 2 39 37 4 40 48 44 30 2 6 36 39 41 29 45 49 38 2 40 46 50 39 48 51 38 47 41 2 50 52 49 39 2 1 23 40 53 22 13 14 2 41 25 3 54 10 9 26 2 40 30 4 53 14 17 31 2 6 29 41 54 28 15 10 4 5 1 2 31 21 22 53 6 2 3 7 28 54 26 24 32 34 38 35 55 56 50 57 33 37 39 36 55 57 50 56 34 38 50 56 43 47 52 58 35 57 50 38 42 59 51 46 36 56 50 39 45 58 52 49 37 39 50 57 44 48 51 59 40 46 51 48 60 61 63 62 41 49 52 47 60 62 63 61 40 23 42 46 60 20 64 61 41 47 43 25 60 61 64 20 40 48 44 30 60 62 65 27 41 29 45 49 60 27 65 62 40 23 20 60 14 13 12 11 41 60 20 25 10 11 12 9 40 60 27 30 14 11 16 17 41 29 27 60 10 15 16 11 1 35 42 23 0 32 64 20 3 25 43 34 0 20 64 32 4 30 44 37 8 27 65 33 6 36 45 29 8 33 65 27 43 34 32 64 58 56 55 66 42 64 32 35 59 66 55 57 45 65 33 36 58 66 55 56 44 37 33 65 59 57 55 66 42 46 61 64 59 51 63 66 43 64 61 47 58 66 63 52 44 65 62 48 59 66 63 51 45 49 62 65 58 52 63 66 54 10 9 26 28 15 18 24 53 22 13 14 31 21 19 17</DataArray><DataArray type="Int32" Name="offsets" format="ascii">8 16 24 32 40 48 56 64 72 80 88 96 104 112 120 128 136 144 152 160 168 176 184 192 200 208 216 224 232 240 248 256 264 272 280 288 296 304 312 320 328 336 344 352</DataArray><DataArray type="Int32" Name="types" format="ascii">12 12 12 12 12 12 12 12 12 12 12 12 12 12 12 12 12 12 12 12 12 12 12 12 12 12 12 12 12 12 12 12 12 12 12 12 12 12 12 12 12 12 12 12</DataArray></Cells></Piece></UnstructuredGrid></VTKFile>