<?xml version='1.0' encoding='utf-8'?>
<VTKFile type="UnstructuredGrid" version="0.1" byte_order="LittleEndian"><UnstructuredGrid><Piece NumberOfPoints="61" NumberOfCells="42"><Points><DataArray type="Float64" NumberOfComponents="3" format="ascii">1 1 -0.58333333333333337 1 0 -0.58333333333333337 0 0 -0.58333333333333337 0 1 -0.58333333333333337 0 -1 -0.58333333333333337 1 -1 -0.58333333333333337 -1 0 -0.58333333333333337 -1 1 -0.58333333333333337 -1 -1 -0.58333333333333337 0 1 0.58333333333333337 -0.38475799166666663 0.38475799166666663 0.58333333333333337 0 0 0.58333333333333337 1 1 0.58333333333333337 1 0 0.58333333333333337 0.38475799166666663 -0.38475799166666663 0.58333333333333337 -1 0 0.58333333333333337 -1 -1 0.58333333333333337 0 -1 0.58333333333333337 -1 1 0.58333333333333337 1 -1 0.58333333333333337 1 1 0.17690796582949408 1 -1 0.17690796582949408 1 -0.67871364905636522 0.042989685159515782 1 0.67871364905636522 0.042989685159515782 -1 1 0.17690796582949408 0.67871364905636522 1 0.042989685159515782 -0.67871364905636522 1 0.042989685159515782 -1 -1 0.17690796582949408 -1 0.67871364905636522 0.042989685159515782 -1 -0.67871364905636522 0.042989685159515782 -0.67871364905636522 -1 0.042989685159515782 0.67871364905636522 -1 0.042989685159515782 0.29180664774359583 0.29180664774359588 -0.05992361357589418 -0.29180664774359583 -0.29180664774359588 -0.05992361357589418 0.39325299397861213 -0.39325299397861213 -0.099252463412729905 -0.39325299397861213 0.39325299397861213 -0.099252463412729905 0.23706040658756045 0.21807171478165768 -0.0041157743117287938 0.21807171478165768 0.23706040658756045 -0.0041157743117287938 -0.21807171478165768 -0.23706040658756045 -0.0041157743117287938 -0.23706040658756045 -0.21807171478165768 -0.0041157743117287938 0 1.1254952313036127e-17 -0.040423231000427717 0.0059005587052052173 -0.0059005587052052173 -0.0051299343716655421 -0.0059005587052052451 0.0059005587052052451 -0.0051299343716655144 0 0 0.57545344761603001 -0.00037460967394654048 0.00037460967394654048 0.5719883599767922 0.00037460967394654048 -0.00037460967394654048 0.5719883599767922 0 5.3098923206741133e-18 0.57117999141439468 0.00060123249769709257 -0.00060123249769709257 0.56053327630266003 -0.00060123249769712033 0.00060123249769712033 0.56053327630266003 0.014620891738481825 0.014620891738481825 0.0064703324886004497 -0.014620891738481825 -0.014620891738481853 0.0064703324886004497 -1.4968151447197734e-18 -4.907612749374771e-18 0.55959959846786811 -5.8341704717838204e-18 -5.0061678780527042e-18 0.0015712700937595178 -4.1230606855657445e-18 -1.2369182056697233e-17 0.011499575659560422 0.0095367765528864903 0.0095367765528864903 0.013343898027486492 -0.0095367765528864903 -0.0095367765528864903 0.013343898027486492 0.00051944116032332551 0.00051944116032332551 0.011681148294222512 -0.00051944116032335327 -0.00051944116032335327 0.011681148294222539 7.8718247456492617e-19 7.8718247456492617e-19 0.033808516811605779 -7.7392968810902919e-18 -7.7392968810902919e-18 0.012173757059205998 -6.8937266851802672e-18 -6.8937266851802672e-18 0.012281117248550662</DataArray></Points><Cells><DataArray type="Int32" Name="connectivity" format="ascii">0 3 2 1 20 25 32 23 8 4 2 6 27 30 33 29 2 1 23 32 34 22 13 36 2 32 25 3 35 37 9 26 2 33 30 4 34 38 17 31 2 6 29 33 35 28 15 39 32 2 34 36 40 33 38 41 32 37 35 2 40 42 39 33 2 1 22 34 4 5 21 31 2 35 26 3 6 28 24 7 20 25 32 23 43 44 46 45 27 30 33 29 43 45 46 44 32 23 45 46 36 13 14 47 32 46 44 25 37 48 10 9 33 46 45 30 38 47 14 17 33 29 44 46 39 15 10 48 46 32 36 47 48 37 49 51 46 47 38 33 48 51 50 39 32 36 49 37 40 41 52 42 33 39 50 38 40 42 52 41 34 36 41 38 53 49 52 50 35 39 42 37 53 50 52 49 34 36 49 53 22 13 54 56 35 53 49 37 26 56 54 9 34 53 50 38 31 57 55 17 35 39 50 53 28 15 55 57 36 47 51 49 13 14 58 54 37 49 51 48 9 54 58 10 38 50 51 47 17 55 58 14 39 48 51 50 15 10 58 55 53 34 22 56 57 31 21 59 53 56 26 35 57 59 24 28 44 25 9 10 43 20 12 11 45 14 13 23 43 11 12 20 44 10 15 29 43 11 16 27 45 30 17 14 43 27 16 11 9 54 58 10 18 60 55 15 13 14 58 54 19 17 55 60 26 56 54 9 24 59 60 18 22 13 54 56 21 19 60 59 28 15 55 57 24 18 60 59 31 57 55 17 21 59 60 19</DataArray><DataArray type="Int32" Name="offsets" format="ascii">8 16 24 32 40 48 56 64 72 80 88 96 104 112 120 128 136 144 152 160 168 176 184 192 200 208 216 224 232 240 248 256 264 272 280 288 296 304 312 320 328 336</DataArray><DataArray type="Int32" Name="types" format="ascii">12 12 12 12 12 12 12 12 12 12 12 12 12 12 12 12 12 12 12 12 12 12 12 12 12 12 12 12 12 12 12 12 12 12 12 12 12 12 12 12 12 12</DataArray></Cells></Piece></UnstructuredGrid></VTKFile>