<?xml version='1.0' encoding='utf-8'?>
<VTKFile type="UnstructuredGrid" version="0.1" byte_order="LittleEndian"><UnstructuredGrid><Piece NumberOfPoints="65" NumberOfCells="42"><Points><DataArray type="Float64" NumberOfComponents="3" format="ascii">1 1 -0.58333333333333337 1 0 -0.58333333333333337 0 0 -0.58333333333333337 0 1 -0.58333333333333337 0 -1 -0.58333333333333337 1 -1 -0.58333333333333337 -1 0 -0.58333333333333337 -1 1 -0.58333333333333337 -1 -1 -0.58333333333333337 0 1 0.58333333333333337 -0.38475799166666663 0.38475799166666663 0.58333333333333337 0 0 0.58333333333333337 1 1 0.58333333333333337 1 0 0.58333333333333337 0.38475799166666663 -0.38475799166666663 0.58333333333333337 -1 0 0.58333333333333337 -1 -1 0.58333333333333337 0 -1 0.58333333333333337 -1 1 0.58333333333333337 1 -1 0.58333333333333337 1 1 0 1 -1 0 1 -0.33333333333333331 0 1 0.33333333333333331 0 -1 1 0 0.33333333333333331 1 0 -0.33333333333333331 1 0 -1 -1 0 -1 0.33333333333333331 0 -1 -0.33333333333333331 0 -0.33333333333333331 -1 0 0.33333333333333331 -1 0 0 0 -0.17128846422554569 0.42952283124999996 -0.42952283125000001 0 -0.42952283125000001 0.42952283124999996 0 0.45653613398612441 0.45653613398612441 0.22459204613675662 -0.45653613398612441 -0.45653613398612441 0.22459204613675662 0.21617541564419501 0.37445965378160917 0.12567170412157405 0.37445965378160917 0.21617541564419501 0.12567170412157405 -0.37445965378160917 -0.21617541564419501 0.12567170412157405 -0.21617541564419501 -0.37445965378160917 0.12567170412157405 0.057076214695837034 0.057076214695837034 -0.043357163031425991 -0.057076214695837034 -0.057076214695837034 -0.043357163031425991 0.14157667508443764 0.5145528061911262 0.32183145858290013 0.5145528061911262 0.14157667508443764 0.32183145858290013 -0.5145528061911262 -0.14157667508443764 0.32183145858290013 -0.14157667508443764 -0.5145528061911262 0.32183145858290013 -0.18332186152227686 0.3480083566379526 0.47481134492972854 0.3480083566379526 -0.18332186152227686 0.47481134492972854 -0.3480083566379526 0.18332186152227686 0.47481134492972854 0.18332186152227686 -0.3480083566379526 0.47481134492972854 0 0 0.0089066268090295421 -0.18213757122387422 0.18213757122387422 0.46155748850682937 0.18213757122387422 -0.18213757122387422 0.46155748850682937 0.0075939094089916394 0.0075939094089916394 0.57333103292426846 -0.0075939094089916394 -0.0075939094089916394 0.57333103292426846 0.48850519755963556 0.48850519755963556 0.27098241431505149 -0.48850519755963556 -0.48850519755963556 0.27098241431505149 0 0 0.53880022574380404 -0.033671407257581061 0.033671407257581061 0.28493195243410335 0.033671407257581061 -0.033671407257581061 0.28493195243410335 -0.045940927474797444 0.045940927474797444 0.31778345897881827 0.045940927474797444 -0.045940927474797444 0.31778345897881827 0 0 0.29442346077751907 0 0 0.29544881552737234</DataArray></Points><Cells><DataArray type="Int32" Name="connectivity" format="ascii">0 3 2 1 20 25 32 23 8 4 2 6 27 30 32 29 2 1 23 32 33 22 13 14 2 32 25 3 34 10 9 26 2 32 30 4 33 14 17 31 2 6 29 32 34 28 15 10 20 25 32 23 35 37 41 38 27 30 32 29 36 40 42 39 32 25 9 10 41 37 43 47 32 14 13 23 41 48 44 38 32 10 15 29 42 49 45 39 32 30 17 14 42 40 46 50 10 32 41 47 49 42 51 52 14 48 41 32 50 53 51 42 2 1 22 33 4 5 21 31 2 34 26 3 6 28 24 7 34 10 9 26 28 15 18 24 33 22 13 14 31 21 19 17 9 10 47 43 12 11 54 56 13 44 48 14 12 56 54 11 15 45 49 10 16 57 55 11 17 14 50 46 16 11 55 57 10 47 54 11 49 52 58 55 14 11 54 48 50 55 58 53 41 37 43 47 51 59 61 52 41 48 44 38 51 53 62 60 42 49 45 39 51 52 61 59 42 40 46 50 51 60 62 53 41 37 59 51 38 35 63 60 42 51 59 39 40 60 63 36 25 9 43 37 20 12 56 35 23 38 44 13 20 35 56 12 29 39 45 15 27 36 57 16 30 17 46 40 27 16 57 36 43 37 35 56 61 59 63 64 44 56 35 38 62 64 63 60 45 57 36 39 61 64 63 59 46 40 36 57 62 60 63 64 47 43 56 54 52 61 64 58 48 54 56 44 53 58 64 62 49 55 57 45 52 58 64 61 50 46 57 55 53 62 64 58</DataArray><DataArray type="Int32" Name="offsets" format="ascii">8 16 24 32 40 48 56 64 72 80 88 96 104 112 120 128 136 144 152 160 168 176 184 192 200 208 216 224 232 240 248 256 264 272 280 288 296 304 312 320 328 336</DataArray><DataArray type="Int32" Name="types" format="ascii">12 12 12 12 12 12 12 12 12 12 12 12 12 12 12 12 12 12 12 12 12 12 12 12 12 12 12 12 12 12 12 12 12 12 12 12 12 12 12 12 12 12</DataArray></Cells></Piece></UnstructuredGrid></VTKFile>