<?xml version='1.0' encoding='utf-8'?>
<VTKFile type="UnstructuredGrid" version="0.1" byte_order="LittleEndian"><UnstructuredGrid><Piece NumberOfPoints="59" NumberOfCells="40"><Points><DataArray type="Float64" NumberOfComponents="3" format="ascii">1 1 -0.58333333333333337 1 0 -0.58333333333333337 0 0 -0.58333333333333337 0 1 -0.58333333333333337 0 -1 -0.58333333333333337 1 -1 -0.58333333333333337 -1 0 -0.58333333333333337 -1 1 -0.58333333333333337 -1 -1 -0.58333333333333337 0 1 0.58333333333333337 -0.38475799166666663 0.38475799166666663 0.58333333333333337 0 0 0.58333333333333337 1 1 0.58333333333333337 1 0 0.58333333333333337 0.38475799166666663 -0.38475799166666663 0.58333333333333337 -1 0 0.58333333333333337 -1 -1 0.58333333333333337 0 -1 0.58333333333333337 -1 1 0.58333333333333337 1 -1 0.58333333333333337 1 1 0.23936428799092793 1 -1 0.23936428799092793 1 -0.621731876440211 0.2066373866394253 1 0.621731876440211 0.2066373866394253 -1 1 0.23936428799092793 0.621731876440211 1 0.2066373866394253 -0.621731876440211 1 0.2066373866394253 -1 -1 0.23936428799092793 -1 0.621731876440211 0.2066373866394253 -1 -0.621731876440211 0.2066373866394253 -0.621731876440211 -1 0.2066373866394253 0.621731876440211 -1 0.2066373866394253 0.29648322640816521 0.29648322640816521 0.15496045043620468 -0.29648322640816521 -0.29648322640816521 0.15496045043620468 0.17894499135463757 -0.17894499135463762 -0.14238886330000544 -0.17894499135463762 0.17894499135463762 -0.14238886330000541 0.29715348652505541 0.063683573223076426 0.25663623049229445 0.063683573223076426 0.29715348652505552 0.25663623049229456 -0.06368357322307644 -0.29715348652505547 0.25663623049229456 -0.29715348652505547 -0.063683573223076412 0.2566362304922945 -1.2290291785518338e-17 2.4580583571036674e-18 0.089868170929777905 0.033113217724436303 0.033113217724436331 0.1240422605044384 -0.033113217724436317 -0.033113217724436317 0.12404226050443845 0.0005768574556951272 0.0005768574556951272 0.093995116492032058 -0.00057685745569515496 -0.00057685745569515496 0.093995116492032058 -7.5968203648642823e-18 -6.0774562918914257e-18 0.095138733783745627 0.00062693203877041686 0.00062693203877041686 0.094155420259713268 -0.00062693203877047237 -0.00062693203877047237 0.094155420259713324 0.17671450329670138 -0.17671450329670138 0.3710009373163039 -0.17671450329670135 0.17671450329670138 0.37100093731630385 7.5285014405535696e-18 3.883366460697237e-18 0.42786858865687671 7.0201565292897994e-18 -1.6746018755895977e-17 0.13661442001543517 -0.020823979007800728 0.020823979007800728 0.43816510288869237 0.020823979007800728 -0.020823979007800728 0.43816510288869237 1.2439604548691137e-17 -1.2276446776461816e-17 0.43852837991913185 -2.2092664333317209e-17 1.7358731588098118e-17 0.096183737366876507 0.33959246350082206 -0.33959246350082206 0.33244672279874438 -0.33959246350082212 0.33959246350082217 0.33244672279874438 -2.0548126366478124e-17 -1.6828963121354165e-17 0.095148391600345272</DataArray></Points><Cells><DataArray type="Int32" Name="connectivity" format="ascii">0 3 2 1 20 25 32 23 8 4 2 6 27 30 33 29 2 1 23 32 34 22 13 36 2 32 25 3 35 37 9 26 2 33 30 4 34 38 17 31 2 6 29 33 35 28 15 39 32 2 34 36 37 35 40 41 33 38 34 2 39 42 40 35 2 1 22 34 4 5 21 31 2 35 26 3 6 28 24 7 22 34 31 21 43 40 44 45 26 24 28 35 43 45 44 40 22 34 40 43 13 36 41 46 26 43 40 35 9 46 41 37 31 44 40 34 17 47 42 38 28 35 40 44 15 39 42 47 36 32 37 41 48 50 49 51 38 42 39 33 48 51 49 50 32 25 9 37 50 52 10 49 32 36 13 23 50 48 14 53 33 39 15 29 50 49 10 52 33 30 17 38 50 53 14 48 23 32 50 53 20 25 52 54 30 53 50 33 27 54 52 29 41 36 48 51 55 56 38 42 41 51 49 37 55 42 39 57 36 48 38 56 13 14 17 19 37 57 39 49 9 18 15 10 9 46 41 37 18 58 55 57 13 36 41 46 19 56 55 58 15 39 42 47 18 57 55 58 17 47 42 38 19 58 55 56 26 43 46 9 24 45 58 18 22 13 46 43 21 19 58 45 28 15 47 44 24 18 58 45 31 44 47 17 21 45 58 19 25 9 10 52 20 12 11 54 23 53 14 13 20 54 11 12 29 52 10 15 27 54 11 16 30 17 14 53 27 16 11 54</DataArray><DataArray type="Int32" Name="offsets" format="ascii">8 16 24 32 40 48 56 64 72 80 88 96 104 112 120 128 136 144 152 160 168 176 184 192 200 208 216 224 232 240 248 256 264 272 280 288 296 304 312 320</DataArray><DataArray type="Int32" Name="types" format="ascii">12 12 12 12 12 12 12 12 12 12 12 12 12 12 12 12 12 12 12 12 12 12 12 12 12 12 12 12 12 12 12 12 12 12 12 12 12 12 12 12</DataArray></Cells></Piece></UnstructuredGrid></VTKFile>