<?xml version='1.0' encoding='utf-8'?>
<VTKFile type="UnstructuredGrid" version="0.1" byte_order="LittleEndian"><UnstructuredGrid><Piece NumberOfPoints="57" NumberOfCells="38"><Points><DataArray type="Float64" NumberOfComponents="3" format="ascii">1 1 -0.58333333333333337 1 0 -0.58333333333333337 0 0 -0.58333333333333337 0 1 -0.58333333333333337 0 -1 -0.58333333333333337 1 -1 -0.58333333333333337 -1 0 -0.58333333333333337 -1 1 -0.58333333333333337 -1 -1 -0.58333333333333337 0 1 0.58333333333333337 -0.38475799166666663 0.38475799166666663 0.58333333333333337 0 0 0.58333333333333337 1 1 0.58333333333333337 1 0 0.58333333333333337 0.38475799166666663 -0.38475799166666663 0.58333333333333337 -1 0 0.58333333333333337 -1 -1 0.58333333333333337 0 -1 0.58333333333333337 -1 1 0.58333333333333337 1 -1 0.58333333333333337 1 1 0.58217712120493326 1 -1 0.58217712120493326 1 -0.62358134377090124 0.3743733798749378 1 0.62358134377090124 0.3743733798749378 -1 1 0.58217712120493326 0.62358134377090124 1 0.3743733798749378 -0.62358134377090124 1 0.3743733798749378 -1 -1 0.58217712120493326 -1 0.62358134377090124 0.3743733798749378 -1 -0.62358134377090124 0.3743733798749378 -0.62358134377090124 -1 0.3743733798749378 0.62358134377090124 -1 0.3743733798749378 0.53749087339795754 0.53749087339795754 0.17066318682169687 -0.53749087339795754 -0.53749087339795754 0.17066318682169684 0.00063494465786564957 -0.00063494465786564957 -0.57837529026114964 -0.00063494465786564957 0.00063494465786564957 -0.57837529026114964 0.53657167734527578 0.38407310775041026 0.17673569294035146 0.38407310775041026 0.53657167734527578 0.17673569294035146 -0.38407310775041026 -0.53657167734527578 0.17673569294035146 -0.53657167734527578 -0.38407310775041026 0.17673569294035141 4.9203065864069431e-18 9.8406131728138862e-18 -0.57795074468815377 0.26515638488342885 0.26515638488342885 -0.021533112932806672 -0.26515638488342885 -0.26515638488342885 -0.021533112932806672 0.03750632342215144 0.03750632342215144 -0.11742958614857739 -0.03750632342215144 -0.03750632342215144 -0.11742958614857733 -4.5588903235987744e-18 -6.0785204314650323e-18 -0.11093018465465403 0.041343175207733868 0.041343175207733868 -0.10393525061065756 -0.041343175207733784 -0.041343175207733784 -0.1039352506106575 0.016232375394935824 -0.016232375394935824 0.23257216222577437 -0.016232375394935796 0.016232375394935796 0.23257216222577437 1.1420774131877354e-17 -9.903290270517669e-18 0.37598192364609201 2.8981278630701571e-18 6.4393273116668727e-18 0.20755357998758386 -0.00047362988515630767 0.00047362988515630767 0.37653320180832295 0.00047362988515633542 -0.00047362988515633542 0.37653320180832295 1.1139316881621794e-19 1.1245483725773881e-19 0.37841987411567174 2.5680971062298458e-17 2.6052205510505757e-17 0.0027289686226018716 2.3984185584218105e-17 2.3667018763711914e-17 -0.11070211774799313</DataArray></Points><Cells><DataArray type="Int32" Name="connectivity" format="ascii">0 3 2 1 20 25 32 23 8 4 2 6 27 30 33 29 2 1 23 32 34 22 13 36 2 32 25 3 35 37 9 26 2 33 30 4 34 38 17 31 2 6 29 33 35 28 15 39 32 2 34 36 37 35 40 41 33 38 34 2 39 42 40 35 2 1 22 34 4 5 21 31 2 35 26 3 6 28 24 7 22 34 31 21 43 40 44 45 26 24 28 35 43 45 44 40 22 34 40 43 13 36 41 46 26 43 40 35 9 46 41 37 31 44 40 34 17 47 42 38 28 35 40 44 15 39 42 47 36 32 37 41 48 50 49 51 38 42 39 33 48 51 49 50 32 25 9 37 50 52 10 49 32 36 13 23 50 48 14 53 33 39 15 29 50 49 10 52 33 30 17 38 50 53 14 48 23 32 50 53 20 25 52 54 30 53 50 33 27 54 52 29 41 36 48 51 46 13 14 55 41 51 49 37 46 55 10 9 42 51 48 38 47 55 14 17 42 39 49 51 47 15 10 55 25 9 10 52 20 12 11 54 23 53 14 13 20 54 11 12 29 52 10 15 27 54 11 16 30 17 14 53 27 16 11 54 46 55 10 9 56 47 15 18 46 13 14 55 56 19 17 47 26 43 46 9 24 45 56 18 22 13 46 43 21 19 56 45 28 15 47 44 24 18 56 45 31 44 47 17 21 45 56 19</DataArray><DataArray type="Int32" Name="offsets" format="ascii">8 16 24 32 40 48 56 64 72 80 88 96 104 112 120 128 136 144 152 160 168 176 184 192 200 208 216 224 232 240 248 256 264 272 280 288 296 304</DataArray><DataArray type="Int32" Name="types" format="ascii">12 12 12 12 12 12 12 12 12 12 12 12 12 12 12 12 12 12 12 12 12 12 12 12 12 12 12 12 12 12 12 12 12 12 12 12 12 12</DataArray></Cells></Piece></UnstructuredGrid></VTKFile>