<?xml version='1.0' encoding='utf-8'?>
<VTKFile type="UnstructuredGrid" version="0.1" byte_order="LittleEndian"><UnstructuredGrid><Piece NumberOfPoints="61" NumberOfCells="42"><Points><DataArray type="Float64" NumberOfComponents="3" format="ascii">1 1 -0.58333333333333337 1 0 -0.58333333333333337 0 0 -0.58333333333333337 0 1 -0.58333333333333337 0 -1 -0.58333333333333337 1 -1 -0.58333333333333337 -1 0 -0.58333333333333337 -1 1 -0.58333333333333337 -1 -1 -0.58333333333333337 0 1 0.58333333333333337 -0.38475799166666663 0.38475799166666663 0.58333333333333337 0 0 0.58333333333333337 1 1 0.58333333333333337 1 0 0.58333333333333337 0.38475799166666663 -0.38475799166666663 0.58333333333333337 -1 0 0.58333333333333337 -1 -1 0.58333333333333337 0 -1 0.58333333333333337 -1 1 0.58333333333333337 1 -1 0.58333333333333337 1 1 0.58333332333333332 1 -1 0.58333332333333332 1 -0.66761487722301283 0.4460907169165868 1 0.66761487722301283 0.4460907169165868 -1 1 0.58333332333333332 0.66761487722301283 1 0.4460907169165868 -0.66761487722301283 1 0.4460907169165868 -1 -1 0.58333332333333332 -1 0.66761487722301283 0.4460907169165868 -1 -0.66761487722301283 0.4460907169165868 -0.66761487722301283 -1 0.4460907169165868 0.66761487722301283 -1 0.4460907169165868 0.66728096790142066 0.66728096790142066 0.36028581834589646 -0.66728096790142066 -0.66728096790142066 0.36028581834589646 0.00039930901640517424 -0.00039930901640517424 -0.58111089664370086 -0.00039930901640517424 0.00039930901640517424 -0.58111089664370086 0.65147098292645766 0.43399250985077459 0.32142833001226523 0.43399250985077459 0.65147098292645766 0.32142833001226528 -0.43399250985077459 -0.65147098292645766 0.32142833001226523 -0.65147098292645766 -0.43399250985077459 0.32142833001226534 4.915956182705434e-18 -4.915956182705434e-18 -0.58021321268398451 0.29028686764420941 0.29028686764420941 0.13707503456333775 -0.29028686764420941 -0.29028686764420941 0.13707503456333775 0.057700395168439875 0.057700395168439875 -0.10938221583882524 -0.057700395168439875 -0.057700395168439875 -0.10938221583882524 -3.0387243426387726e-18 -3.0387243426387726e-18 0.0097092972539420171 0.16054103029214079 0.16054103029214079 0.027935050854016038 -0.16054103029214084 -0.16054103029214084 0.027935050854016038 0.0081503581801504622 -0.0081503581801504622 0.29025477531646626 -0.0081503581801504622 0.0081503581801504622 0.29025477531646626 7.9037579212887438e-18 3.1319795363769536e-18 0.29235004571237561 -2.1222450970932999e-19 5.5213983608115265e-18 0.2561279942647291 0 4.9097476064712977e-18 0.50077917578328257 -0.00048398132942481032 0.00048398132942481032 0.5034230741517175 0.00048398132942481032 -0.00048398132942481032 0.5034230741517175 -0.29414050207362707 0.29414050207362707 0.4913031230619862 0.29414050207362707 -0.29414050207362707 0.49130312306198615 -6.9934145742827237e-19 6.4613737266065872e-19 0.50369193480119823 6.0559513496532478e-18 -9.2524845589917886e-18 0.082357963173496987 -2.4320359150028737e-18 -5.7691302587056023e-18 0.056837906084597711 -1.2953550413232861e-17 -1.3612929403775141e-17 0.010441063477406802</DataArray></Points><Cells><DataArray type="Int32" Name="connectivity" format="ascii">0 3 2 1 20 25 32 23 8 4 2 6 27 30 33 29 2 1 23 32 34 22 13 36 2 32 25 3 35 37 9 26 2 33 30 4 34 38 17 31 2 6 29 33 35 28 15 39 32 2 34 36 37 35 40 41 33 38 34 2 39 42 40 35 2 1 22 34 4 5 21 31 2 35 26 3 6 28 24 7 22 34 31 21 43 40 44 45 26 24 28 35 43 45 44 40 22 34 40 43 13 36 41 46 26 43 40 35 9 46 41 37 31 44 40 34 17 47 42 38 28 35 40 44 15 39 42 47 36 32 37 41 48 50 49 51 38 42 39 33 48 51 49 50 32 25 9 37 52 53 10 55 32 36 13 23 52 56 14 54 33 39 15 29 52 55 10 53 33 30 17 38 52 54 14 56 32 36 56 52 50 48 38 33 32 52 55 37 50 33 39 49 23 32 52 54 20 25 53 57 30 54 52 33 27 57 53 29 36 56 38 48 41 58 42 51 37 49 39 55 41 51 42 58 36 56 58 41 13 14 59 46 37 41 58 55 9 46 59 10 38 42 58 56 17 47 59 14 39 55 58 42 15 10 59 47 25 9 10 53 20 12 11 57 23 54 14 13 20 57 11 12 29 53 10 15 27 57 11 16 30 17 14 54 27 16 11 57 9 46 59 10 18 60 47 15 13 14 59 46 19 17 47 60 26 43 46 9 24 45 60 18 22 13 46 43 21 19 60 45 28 15 47 44 24 18 60 45 31 44 47 17 21 45 60 19</DataArray><DataArray type="Int32" Name="offsets" format="ascii">8 16 24 32 40 48 56 64 72 80 88 96 104 112 120 128 136 144 152 160 168 176 184 192 200 208 216 224 232 240 248 256 264 272 280 288 296 304 312 320 328 336</DataArray><DataArray type="Int32" Name="types" format="ascii">12 12 12 12 12 12 12 12 12 12 12 12 12 12 12 12 12 12 12 12 12 12 12 12 12 12 12 12 12 12 12 12 12 12 12 12 12 12 12 12 12 12</DataArray></Cells></Piece></UnstructuredGrid></VTKFile>