<?xml version='1.0' encoding='utf-8'?>
<VTKFile type="UnstructuredGrid" version="0.1" byte_order="LittleEndian"><UnstructuredGrid><Piece NumberOfPoints="59" NumberOfCells="40"><Points><DataArray type="Float64" NumberOfComponents="3" format="ascii">1 1 -0.58333333333333337 1 0 -0.58333333333333337 0 0 -0.58333333333333337 0 1 -0.58333333333333337 0 -1 -0.58333333333333337 1 -1 -0.58333333333333337 -1 0 -0.58333333333333337 -1 1 -0.58333333333333337 -1 -1 -0.58333333333333337 0 1 0.58333333333333337 -0.38475799166666663 0.38475799166666663 0.58333333333333337 0 0 0.58333333333333337 1 1 0.58333333333333337 1 0 0.58333333333333337 0.38475799166666663 -0.38475799166666663 0.58333333333333337 -1 0 0.58333333333333337 -1 -1 0.58333333333333337 0 -1 0.58333333333333337 -1 1 0.58333333333333337 1 -1 0.58333333333333337 1 1 0.28439462732035792 1 -1 0.28439462732035792 1 -0.73592244083186042 0.23197840497864416 1 0.73592244083186042 0.23197840497864416 -1 1 0.28439462732035792 0.73592244083186042 1 0.23197840497864416 -0.73592244083186042 1 0.23197840497864416 -1 -1 0.28439462732035792 -1 0.73592244083186042 0.23197840497864416 -1 -0.73592244083186042 0.23197840497864416 -0.73592244083186042 -1 0.23197840497864416 0.73592244083186042 -1 0.23197840497864416 0.36192757500646699 0.36192757500646699 0.25567029331011892 -0.36192757500646699 -0.36192757500646699 0.25567029331011892 0.37021435215608611 -0.37021435215608611 -0.17466949396565598 -0.37021435215608611 0.37021435215608611 -0.17466949396565598 0.43162633333978362 0.23163638164635161 0.24796039937235106 0.23163638164635164 0.43162633333978362 0.24796039937235106 -0.23163638164635161 -0.43162633333978362 0.24796039937235106 -0.43162633333978362 -0.23163638164635161 0.24796039937235112 4.915956182705434e-18 -1.2289890456763585e-17 -0.14568925365753024 0.019004926348476284 0.019004926348476243 -0.10679197840499018 -0.019004926348476257 -0.019004926348476284 -0.10679197840499023 0.0023828798089275522 0.0023828798089275522 -0.063617687784067817 -0.0023828798089275522 -0.0023828798089275522 -0.063617687784067845 -1.5195620818707158e-18 -1.5195620818707158e-18 -0.015795015822703724 0.01298959589817319 0.01298959589817319 -0.08723562997015484 -0.01298959589817319 -0.01298959589817319 -0.087235629970154896 0.15992464679765614 -0.15992464679765614 0.23015413838743015 -0.15992464679765608 0.15992464679765608 0.2301541383874301 7.5527238750793155e-19 6.7317035810720287e-20 0.23739880080302589 -1.7519934806683061e-18 -5.3186336491086103e-18 0.14203093966874775 4.904918125858829e-18 0 0.35405799873134486 -0.032943559408177704 0.032943559408177704 0.47496405152814664 0.032943559408177676 -0.032943559408177676 0.47496405152814664 -0.15441231277144807 0.15441231277144807 0.32827787024300276 0.1544123127714481 -0.1544123127714481 0.32827787024300281 -2.3034977733828538e-18 2.2554773108605098e-18 0.47759710223340179 -1.1697200299620437e-17 -1.2184752093005978e-17 0.027526564571660018</DataArray></Points><Cells><DataArray type="Int32" Name="connectivity" format="ascii">0 3 2 1 20 25 32 23 8 4 2 6 27 30 33 29 2 1 23 32 34 22 13 36 2 32 25 3 35 37 9 26 2 33 30 4 34 38 17 31 2 6 29 33 35 28 15 39 32 2 34 36 37 35 40 41 33 38 34 2 39 42 40 35 2 1 22 34 4 5 21 31 2 35 26 3 6 28 24 7 22 34 31 21 43 40 44 45 26 24 28 35 43 45 44 40 22 34 40 43 13 36 41 46 26 43 40 35 9 46 41 37 31 44 40 34 17 47 42 38 28 35 40 44 15 39 42 47 36 32 37 41 48 50 49 51 38 42 39 33 48 51 49 50 32 25 9 37 52 53 10 55 32 36 13 23 52 56 14 54 33 39 15 29 52 55 10 53 33 30 17 38 52 54 14 56 32 36 56 52 50 48 38 33 32 52 55 37 50 33 39 49 23 32 52 54 20 25 53 57 30 54 52 33 27 57 53 29 36 56 38 48 13 14 17 19 37 49 39 55 9 18 15 10 9 46 41 37 18 58 51 49 13 36 41 46 19 48 51 58 15 39 42 47 18 49 51 58 17 47 42 38 19 58 51 48 26 43 46 9 24 45 58 18 22 13 46 43 21 19 58 45 28 15 47 44 24 18 58 45 31 44 47 17 21 45 58 19 25 9 10 53 20 12 11 57 23 54 14 13 20 57 11 12 29 53 10 15 27 57 11 16 30 17 14 54 27 16 11 57</DataArray><DataArray type="Int32" Name="offsets" format="ascii">8 16 24 32 40 48 56 64 72 80 88 96 104 112 120 128 136 144 152 160 168 176 184 192 200 208 216 224 232 240 248 256 264 272 280 288 296 304 312 320</DataArray><DataArray type="Int32" Name="types" format="ascii">12 12 12 12 12 12 12 12 12 12 12 12 12 12 12 12 12 12 12 12 12 12 12 12 12 12 12 12 12 12 12 12 12 12 12 12 12 12 12 12</DataArray></Cells></Piece></UnstructuredGrid></VTKFile>