<?xml version='1.0' encoding='utf-8'?>
<VTKFile type="UnstructuredGrid" version="0.1" byte_order="LittleEndian"><UnstructuredGrid><Piece NumberOfPoints="70" NumberOfCells="44"><Points><DataArray type="Float64" NumberOfComponents="3" format="ascii">1 1 -0.58333333333333337 1 0 -0.58333333333333337 0 0 -0.58333333333333337 0 1 -0.58333333333333337 0 -1 -0.58333333333333337 1 -1 -0.58333333333333337 -1 0 -0.58333333333333337 -1 1 -0.58333333333333337 -1 -1 -0.58333333333333337 0 1 0.58333333333333337 -0.38475799166666663 0.38475799166666663 0.58333333333333337 0 0 0.58333333333333337 1 1 0.58333333333333337 1 0 0.58333333333333337 0.38475799166666663 -0.38475799166666663 0.58333333333333337 -1 0 0.58333333333333337 -1 -1 0.58333333333333337 0 -1 0.58333333333333337 -1 1 0.58333333333333337 1 -1 0.58333333333333337 1 1 -0.19444444444444445 1 1 0.19444444444444445 1 -1 0.19444444444444445 1 -1 -0.19444444444444445 1 0 -0.19444444444444445 1 0 0.19444444444444445 -1 1 -0.19444444444444445 -1 1 0.19444444444444445 0 1 -0.19444444444444445 0 1 0.19444444444444445 -1 -1 -0.19444444444444445 -1 -1 0.19444444444444445 -1 0 -0.19444444444444445 -1 0 0.19444444444444445 0 -1 -0.19444444444444445 0 -1 0.19444444444444445 0 0 -0.41543388543210774 0.43611218628907406 0.43611218628907406 0.056643784964993532 -0.43611218628907406 -0.43611218628907406 0.056643784964993532 0.19372870404985876 0.41797148503780762 -0.065862179114007977 0.41797148503780762 0.19372870404985876 -0.065862179114007977 -0.41797148503780762 -0.19372870404985876 -0.065862179114007977 -0.19372870404985876 -0.41797148503780762 -0.065862179114007977 0.094757546253640357 0.094757546253640357 -0.23574207887172605 -0.094757546253640357 -0.094757546253640357 -0.23574207887172605 0.3113288730639589 -0.3113288730639589 0.1861008309450532 -0.3113288730639589 0.3113288730639589 0.1861008309450532 0.26307139897060405 -0.10676545955902161 0.082100665696381137 -0.10676545955902161 0.26307139897060405 0.082100665696381137 0.10676545955902161 -0.26307139897060405 0.082100665696381137 -0.26307139897060405 0.10676545955902161 0.082100665696381137 0.44461585793724495 0.1586505352232265 -0.014988597471550472 0.1586505352232265 0.44461585793724495 -0.014988597471550472 -0.1586505352232265 -0.44461585793724495 -0.014988597471550472 -0.44461585793724495 -0.1586505352232265 -0.014988597471550472 0.091273767137630982 -0.091273767137630982 0.077366227570386636 -0.091273767137630982 0.091273767137630982 0.077366227570386636 0 0 -0.024508087113995394 0 0 0.063533277893722706 -0.017552248622156399 0.017552248622156399 0.055885469724196661 0.017552248622156399 -0.017552248622156399 0.055885469724196661 -0.019399963344950109 0.019399963344950109 0.059286385791956005 0.019399963344950109 -0.019399963344950109 0.059286385791956005 0 0 0.58282812910916337 0.13631003932328092 0.13631003932328092 0.26303785330595486 -0.13631003932328092 -0.13631003932328092 0.26303785330595486 0 0 0.11995580046320525 0.4358121142424109 0.4358121142424109 0.057287115354818244 -0.4358121142424109 -0.4358121142424109 0.057287115354818244 0 0 0.065044416450146678</DataArray></Points><Cells><DataArray type="Int32" Name="connectivity" format="ascii">0 3 2 1 20 28 36 24 8 4 2 6 30 34 36 32 2 1 24 36 4 5 23 34 2 36 28 3 6 32 26 7 20 28 36 24 37 39 43 40 30 34 36 32 38 42 44 41 24 36 34 23 25 45 35 22 28 26 32 36 29 27 33 46 24 36 45 25 40 43 47 51 28 29 46 36 39 52 48 43 34 35 45 36 42 53 49 44 32 36 46 33 41 44 50 54 36 45 47 43 44 49 55 57 36 43 48 46 44 57 56 50 37 39 43 40 58 59 57 60 38 42 44 41 58 60 57 59 39 43 57 59 52 48 56 61 40 60 57 43 51 62 55 47 41 59 57 44 54 61 56 50 42 44 57 60 53 49 55 62 45 47 55 49 63 64 66 65 46 50 56 48 63 65 66 64 24 20 37 40 25 21 67 51 28 39 37 20 29 52 67 21 34 42 38 30 35 53 68 31 32 30 38 41 33 31 68 54 45 25 51 47 63 21 67 64 46 48 52 29 63 64 67 21 45 49 53 35 63 65 68 31 46 33 54 50 63 31 68 65 45 25 21 63 14 13 12 11 46 63 21 29 10 11 12 9 45 63 31 35 14 11 16 17 46 33 31 63 10 15 16 11 25 45 35 22 13 14 17 19 29 27 33 46 9 18 15 10 39 37 67 52 59 58 69 61 40 51 67 37 60 62 69 58 41 54 68 38 59 61 69 58 42 38 68 53 60 58 69 62 51 47 64 67 62 55 66 69 52 67 64 48 61 69 66 56 53 68 65 49 62 69 66 55 54 50 65 68 61 56 66 69</DataArray><DataArray type="Int32" Name="offsets" format="ascii">8 16 24 32 40 48 56 64 72 80 88 96 104 112 120 128 136 144 152 160 168 176 184 192 200 208 216 224 232 240 248 256 264 272 280 288 296 304 312 320 328 336 344 352</DataArray><DataArray type="Int32" Name="types" format="ascii">12 12 12 12 12 12 12 12 12 12 12 12 12 12 12 12 12 12 12 12 12 12 12 12 12 12 12 12 12 12 12 12 12 12 12 12 12 12 12 12 12 12 12 12</DataArray></Cells></Piece></UnstructuredGrid></VTKFile>