<?xml version='1.0' encoding='utf-8'?>
<VTKFile type="UnstructuredGrid" version="0.1" byte_order="LittleEndian"><UnstructuredGrid><Piece NumberOfPoints="68" NumberOfCells="42"><Points><DataArray type="Float64" NumberOfComponents="3" format="ascii">1 1 -0.58333333333333337 1 0 -0.58333333333333337 0 0 -0.58333333333333337 0 1 -0.58333333333333337 0 -1 -0.58333333333333337 1 -1 -0.58333333333333337 -1 0 -0.58333333333333337 -1 1 -0.58333333333333337 -1 -1 -0.58333333333333337 0 1 0.58333333333333337 -0.38475799166666663 0.38475799166666663 0.58333333333333337 0 0 0.58333333333333337 1 1 0.58333333333333337 1 0 0.58333333333333337 0.38475799166666663 -0.38475799166666663 0.58333333333333337 -1 0 0.58333333333333337 -1 -1 0.58333333333333337 0 -1 0.58333333333333337 -1 1 0.58333333333333337 1 -1 0.58333333333333337 1 1 -0.19444444444444445 1 1 0.19444444444444445 1 -1 0.19444444444444445 1 -1 -0.19444444444444445 1 0 -0.19444444444444445 1 0 0.19444444444444445 -1 1 -0.19444444444444445 -1 1 0.19444444444444445 0 1 -0.19444444444444445 0 1 0.19444444444444445 -1 -1 -0.19444444444444445 -1 -1 0.19444444444444445 -1 0 -0.19444444444444445 -1 0 0.19444444444444445 0 -1 -0.19444444444444445 0 -1 0.19444444444444445 0 0 -0.18433994433841988 0 0 -0.1836099954025858 0.56816315447802967 0.56816315447802967 0.3454289597545141 -0.56816315447802967 -0.56816315447802967 0.3454289597545141 0.16863460243763023 0.48256407523993877 0.166032433321466 0.48256407523993877 0.16863460243763023 0.166032433321466 -0.48256407523993877 -0.16863460243763023 0.166032433321466 -0.16863460243763023 -0.48256407523993877 0.166032433321466 0.033797138544357723 0.033797138544357723 -0.11852428541121567 -0.033797138544357723 -0.033797138544357723 -0.11852428541121567 0.034886305210392217 0.59648881159462186 0.40037020159030773 0.59648881159462186 0.034886305210392217 0.40037020159030773 -0.59648881159462186 -0.034886305210392217 0.40037020159030773 -0.034886305210392217 -0.59648881159462186 0.40037020159030773 -0.2344921323951086 0.39179130940230944 0.50222486661576282 0.39179130940230944 -0.2344921323951086 0.50222486661576282 -0.39179130940230944 0.2344921323951086 0.50222486661576282 0.2344921323951086 -0.39179130940230944 0.50222486661576282 0 0 -0.077087864678896917 -0.2064369126808501 0.2064369126808501 0.47163403005882204 0.2064369126808501 -0.2064369126808501 0.47163403005882204 0 0 0.28999477586633815 -0.032067600992262836 0.032067600992262836 0.1968473735440773 0.032067600992262836 -0.032067600992262836 0.1968473735440773 -0.13650407814912785 0.13650407814912785 0.39497480704465854 0.13650407814912785 -0.13650407814912785 0.39497480704465854 0.01094364403904368 0.01094364403904368 0.57397347507901719 -0.01094364403904368 -0.01094364403904368 0.57397347507901719 0 0 0.51646880648553384 0.55933295142360973 0.55933295142360973 0.3583253162838419 -0.55933295142360973 -0.55933295142360973 0.3583253162838419 0 0 0.31590840182940078</DataArray></Points><Cells><DataArray type="Int32" Name="connectivity" format="ascii">0 3 2 1 20 28 36 24 8 4 2 6 30 34 36 32 2 1 24 36 4 5 23 34 2 36 28 3 6 32 26 7 20 28 36 24 21 29 37 25 30 34 36 32 31 35 37 33 24 36 34 23 25 37 35 22 28 26 32 36 29 27 33 37 21 29 37 25 38 40 44 41 31 35 37 33 39 43 45 42 25 37 35 22 13 14 17 19 29 27 33 37 9 18 15 10 37 29 9 10 44 40 46 50 37 14 13 25 44 51 47 41 37 10 15 33 45 52 48 42 37 35 17 14 45 43 49 53 10 37 44 50 52 45 54 55 14 51 44 37 53 56 54 45 38 40 44 41 57 58 54 59 39 43 45 42 57 59 54 58 40 44 54 58 46 50 55 60 41 59 54 44 47 61 56 51 42 58 54 45 48 60 55 52 43 45 54 59 49 53 56 61 50 10 52 55 62 11 63 64 51 56 53 14 62 64 63 11 9 10 50 46 12 11 62 65 13 47 51 14 12 65 62 11 15 48 52 10 16 66 63 11 17 14 53 49 16 11 63 66 29 9 46 40 21 12 65 38 25 41 47 13 21 38 65 12 33 42 48 15 31 39 66 16 35 17 49 43 31 16 66 39 46 40 38 65 60 58 57 67 47 65 38 41 61 67 57 59 48 66 39 42 60 67 57 58 49 43 39 66 61 59 57 67 50 46 65 62 55 60 67 64 51 62 65 47 56 64 67 61 52 63 66 48 55 64 67 60 53 49 66 63 56 61 67 64</DataArray><DataArray type="Int32" Name="offsets" format="ascii">8 16 24 32 40 48 56 64 72 80 88 96 104 112 120 128 136 144 152 160 168 176 184 192 200 208 216 224 232 240 248 256 264 272 280 288 296 304 312 320 328 336</DataArray><DataArray type="Int32" Name="types" format="ascii">12 12 12 12 12 12 12 12 12 12 12 12 12 12 12 12 12 12 12 12 12 12 12 12 12 12 12 12 12 12 12 12 12 12 12 12 12 12 12 12 12 12</DataArray></Cells></Piece></UnstructuredGrid></VTKFile>