<?xml version='1.0' encoding='utf-8'?>
<VTKFile type="UnstructuredGrid" version="0.1" byte_order="LittleEndian"><UnstructuredGrid><Piece NumberOfPoints="68" NumberOfCells="44"><Points><DataArray type="Float64" NumberOfComponents="3" format="ascii">1 1 -0.58333333333333337 1 0 -0.58333333333333337 0 0 -0.58333333333333337 0 1 -0.58333333333333337 0 -1 -0.58333333333333337 1 -1 -0.58333333333333337 -1 0 -0.58333333333333337 -1 1 -0.58333333333333337 -1 -1 -0.58333333333333337 0 1 0.58333333333333337 -0.38475799166666663 0.38475799166666663 0.58333333333333337 0 0 0.58333333333333337 1 1 0.58333333333333337 1 0 0.58333333333333337 0.38475799166666663 -0.38475799166666663 0.58333333333333337 -1 0 0.58333333333333337 -1 -1 0.58333333333333337 0 -1 0.58333333333333337 -1 1 0.58333333333333337 1 -1 0.58333333333333337 1 1 -0.20458241333173177 1 1 0.48182448065496469 1 -1 0.48182448065496469 1 -1 -0.20458241333173177 1 0 -0.061533908826848449 1 -0.51320008483183155 0.42668029650527245 1 0.51320008483183155 0.42668029650527245 -1 1 -0.20458241333173177 -1 1 0.48182448065496469 0 1 -0.061533908826848449 0.51320008483183155 1 0.42668029650527245 -0.51320008483183155 1 0.42668029650527245 -1 -1 -0.20458241333173177 -1 -1 0.48182448065496469 -1 0 -0.061533908826848449 -1 0.51320008483183155 0.42668029650527245 -1 -0.51320008483183155 0.42668029650527245 0 -1 -0.061533908826848449 -0.51320008483183155 -1 0.42668029650527245 0.51320008483183155 -1 0.42668029650527245 -6.1679056923619804e-18 0 -0.0020745037444465202 0.31917186424996064 0.31917186424996069 0.38385476004929542 -0.31917186424996069 -0.31917186424996069 0.38385476004929542 0.27471803405751077 -0.27471803405751077 0.18168560701879216 -0.27471803405751077 0.27471803405751077 0.18168560701879222 0.39930524717742627 0.1525011935342514 0.39791505389220883 0.15250119353425134 0.39930524717742638 0.39791505389220894 -0.1525011935342514 -0.39930524717742633 0.39791505389220883 -0.39930524717742638 -0.15250119353425134 0.39791505389220888 -2.4655020062335241e-18 7.3965060187005726e-18 0.21714142639039835 0.1214563005622516 0.12145630056225162 0.31176820158337454 -0.12145630056225162 -0.1214563005622516 0.31176820158337448 0.020922743993264575 0.020922743993264575 0.24692693847428082 -0.020922743993264575 -0.020922743993264575 0.24692693847428082 7.5970666925146688e-18 7.5970666925146688e-18 0.29887661347404337 0.021703695371325483 0.021703695371325483 0.24751108460618529 -0.021703695371325483 -0.021703695371325483 0.24751108460618523 0.17473484420863547 -0.17473484420863544 0.46219161294643207 -0.17473484420863547 0.1747348442086355 0.46219161294643196 8.6142778167540438e-19 1.0020800781368827e-17 0.51779990805019693 -4.5852573645596898e-18 3.3243115893057751e-17 0.41362062005458 -0.085753137027790624 0.085753137027790624 0.53543466216048796 0.085753137027790624 -0.085753137027790624 0.53543466216048796 -6.5503301522610614e-18 6.5589560723470886e-18 0.53795761043239654 -2.4547565428881411e-17 3.6821348143322118e-17 0.30738033756319483 0.32043944778103428 -0.32043944778103428 0.43239023591306275 -0.32043944778103439 0.32043944778103439 0.43239023591306275 5.6143097767333795e-18 5.6143097767333795e-18 0.29913431607402108</DataArray></Points><Cells><DataArray type="Int32" Name="connectivity" format="ascii">0 3 2 1 20 29 40 24 8 4 2 6 32 37 40 34 2 1 24 40 4 5 23 37 2 40 29 3 6 34 27 7 20 29 40 24 21 30 41 26 32 37 40 34 33 38 42 36 24 40 37 23 25 43 39 22 29 27 34 40 31 28 35 44 24 40 43 25 26 41 45 13 29 31 44 40 30 9 46 41 37 39 43 40 38 17 47 42 34 40 44 35 36 42 48 15 40 43 45 41 44 49 50 46 40 42 47 43 44 48 51 49 25 43 39 22 52 49 53 54 31 28 35 44 52 54 53 49 25 43 49 52 13 45 50 55 31 52 49 44 9 55 50 46 39 53 49 43 17 56 51 47 35 44 49 53 15 48 51 56 45 41 46 50 57 59 58 60 47 51 48 42 57 60 58 59 30 9 46 41 61 10 58 59 26 41 45 13 62 59 57 14 36 42 48 15 61 59 58 10 38 17 47 42 62 14 57 59 26 41 59 62 21 30 61 63 38 62 59 42 33 63 61 36 50 45 57 60 64 65 47 51 50 60 58 46 64 51 48 66 45 57 47 65 13 14 17 19 46 66 48 58 9 18 15 10 9 55 50 46 18 67 64 66 13 45 50 55 19 65 64 67 15 48 51 56 18 66 64 67 17 56 51 47 19 67 64 65 31 52 55 9 28 54 67 18 25 13 55 52 22 19 67 54 35 15 56 53 28 18 67 54 39 53 56 17 22 54 67 19 30 9 10 61 21 12 11 63 26 62 14 13 21 63 11 12 36 61 10 15 33 63 11 16 38 17 14 62 33 16 11 63</DataArray><DataArray type="Int32" Name="offsets" format="ascii">8 16 24 32 40 48 56 64 72 80 88 96 104 112 120 128 136 144 152 160 168 176 184 192 200 208 216 224 232 240 248 256 264 272 280 288 296 304 312 320 328 336 344 352</DataArray><DataArray type="Int32" Name="types" format="ascii">12 12 12 12 12 12 12 12 12 12 12 12 12 12 12 12 12 12 12 12 12 12 12 12 12 12 12 12 12 12 12 12 12 12 12 12 12 12 12 12 12 12 12 12</DataArray></Cells></Piece></UnstructuredGrid></VTKFile>