<?xml version='1.0' encoding='utf-8'?>
<VTKFile type="UnstructuredGrid" version="0.1" byte_order="LittleEndian"><UnstructuredGrid><Piece NumberOfPoints="68" NumberOfCells="44"><Points><DataArray type="Float64" NumberOfComponents="3" format="ascii">1 1 -0.58333333333333337 1 0 -0.58333333333333337 0 0 -0.58333333333333337 0 1 -0.58333333333333337 0 -1 -0.58333333333333337 1 -1 -0.58333333333333337 -1 0 -0.58333333333333337 -1 1 -0.58333333333333337 -1 -1 -0.58333333333333337 0 1 0.58333333333333337 -0.38475799166666663 0.38475799166666663 0.58333333333333337 0 0 0.58333333333333337 1 1 0.58333333333333337 1 0 0.58333333333333337 0.38475799166666663 -0.38475799166666663 0.58333333333333337 -1 0 0.58333333333333337 -1 -1 0.58333333333333337 0 -1 0.58333333333333337 -1 1 0.58333333333333337 1 -1 0.58333333333333337 1 1 -0.19444444444444442 1 1 0.19444444444444442 1 -1 0.19444444444444442 1 -1 -0.19444444444444442 1 -0.33333333333333331 -0.22435897435897437 1 0.33333333333333331 -0.22435897435897437 1 0 0.1047008547008547 -1 1 -0.19444444444444442 -1 1 0.19444444444444442 0.33333333333333331 1 -0.22435897435897437 -0.33333333333333331 1 -0.22435897435897437 0 1 0.1047008547008547 -1 -1 -0.19444444444444442 -1 -1 0.19444444444444442 -1 0.33333333333333331 -0.22435897435897437 -1 -0.33333333333333331 -0.22435897435897437 -1 0 0.1047008547008547 -0.33333333333333331 -1 -0.22435897435897437 0.33333333333333331 -1 -0.22435897435897437 0 -1 0.1047008547008547 0.27986882880464359 0.27986882880464359 -0.24971228217822908 -0.27986882880464359 -0.27986882880464359 -0.24971228217822908 0.20684999745562732 -0.20684999745562732 -0.44591499217520836 -0.20684999745562732 0.20684999745562732 -0.44591499217520836 0.27500308595388662 0.22428010743296184 -0.2157840753497251 0.22428010743296184 0.27500308595388662 -0.2157840753497251 -0.22428010743296184 -0.27500308595388662 -0.2157840753497251 -0.27500308595388662 -0.22428010743296184 -0.2157840753497251 0 0 -0.31398065332685221 0.077545314272942353 0.077545314272942353 -0.16275721101796375 -0.077545314272942353 -0.077545314272942353 -0.16275721101796375 0.0064210704321062224 0.0064210704321062224 -0.15897257731307193 -0.0064210704321062224 -0.0064210704321062224 -0.15897257731307193 0 0 -0.14236585161104495 0.0096452300307028286 0.0096452300307028286 -0.14123171809805793 -0.0096452300307028286 -0.0096452300307028286 -0.14123171809805793 0.010163847614481289 -0.010163847614481289 0.051101524139973264 -0.010163847614481289 0.010163847614481289 0.051101524139973264 0 0 0.15183619099418114 0 0 0.013310413687143804 0.00027501633184150349 -0.00027501633184150349 0.15446613420165692 -0.00027501633184150349 0.00027501633184150349 0.15446613420165692 0.1296786869627167 -0.1296786869627167 0.3335342998274391 -0.1296786869627167 0.1296786869627167 0.3335342998274391 0 0 0.1548740364866398 0 0 -0.089114137597818555 0 0 -0.14214241499963298 0 0 0.23958924633493262</DataArray></Points><Cells><DataArray type="Int32" Name="connectivity" format="ascii">0 3 2 1 20 29 40 25 8 4 2 6 32 37 41 35 2 1 25 40 42 24 26 44 2 40 29 3 43 45 31 30 2 41 37 4 42 46 39 38 2 6 35 41 43 34 36 47 40 2 42 44 45 43 48 49 41 46 42 2 47 50 48 43 2 1 24 42 4 5 23 38 2 43 30 3 6 34 27 7 24 42 38 23 51 48 52 53 30 27 34 43 51 53 52 48 24 42 48 51 26 44 49 54 30 51 48 43 31 54 49 45 38 52 48 42 39 55 50 46 34 43 48 52 36 47 50 55 44 40 45 49 56 58 57 59 46 50 47 41 56 59 57 58 25 40 44 26 60 58 56 62 29 31 45 40 61 63 57 58 37 39 46 41 60 62 56 58 35 41 47 36 61 58 57 63 25 40 58 60 20 29 61 64 37 60 58 41 32 64 61 35 49 44 56 59 54 26 62 65 49 59 57 45 54 65 63 31 50 59 56 46 55 65 62 39 50 47 57 59 55 36 63 65 51 24 26 54 53 23 22 66 51 54 31 30 53 66 28 27 52 55 39 38 53 66 22 23 52 34 36 55 53 27 28 66 54 26 62 65 66 22 39 55 54 65 63 31 66 55 36 28 26 62 39 22 13 14 17 19 31 28 36 63 9 18 15 10 26 25 60 62 21 20 64 67 31 63 61 29 21 67 64 20 39 62 60 37 33 67 64 32 36 35 61 63 33 32 64 67 62 26 21 67 14 13 12 11 63 67 21 31 10 11 12 9 62 67 33 39 14 11 16 17 63 36 33 67 10 15 16 11</DataArray><DataArray type="Int32" Name="offsets" format="ascii">8 16 24 32 40 48 56 64 72 80 88 96 104 112 120 128 136 144 152 160 168 176 184 192 200 208 216 224 232 240 248 256 264 272 280 288 296 304 312 320 328 336 344 352</DataArray><DataArray type="Int32" Name="types" format="ascii">12 12 12 12 12 12 12 12 12 12 12 12 12 12 12 12 12 12 12 12 12 12 12 12 12 12 12 12 12 12 12 12 12 12 12 12 12 12 12 12 12 12 12 12</DataArray></Cells></Piece></UnstructuredGrid></VTKFile>