<?xml version='1.0' encoding='utf-8'?>
<VTKFile type="UnstructuredGrid" version="0.1" byte_order="LittleEndian"><UnstructuredGrid><Piece NumberOfPoints="66" NumberOfCells="42"><Points><DataArray type="Float64" NumberOfComponents="3" format="ascii">1 1 -0.58333333333333337 1 0 -0.58333333333333337 0 0 -0.58333333333333337 0 1 -0.58333333333333337 0 -1 -0.58333333333333337 1 -1 -0.58333333333333337 -1 0 -0.58333333333333337 -1 1 -0.58333333333333337 -1 -1 -0.58333333333333337 0 1 0.58333333333333337 -0.38475799166666663 0.38475799166666663 0.58333333333333337 0 0 0.58333333333333337 1 1 0.58333333333333337 1 0 0.58333333333333337 0.38475799166666663 -0.38475799166666663 0.58333333333333337 -1 0 0.58333333333333337 -1 -1 0.58333333333333337 0 -1 0.58333333333333337 -1 1 0.58333333333333337 1 -1 0.58333333333333337 1 1 -0.19444444444444445 1 1 0.58333332333333332 1 -1 0.58333332333333332 1 -1 -0.19444444444444445 1 0 -0.40391031186571796 1 -0.64937703531519719 0.40568289751765235 1 0.64937703531519719 0.40568289751765235 -1 1 -0.19444444444444445 -1 1 0.58333332333333332 0 1 -0.40391031186571796 0.64937703531519719 1 0.40568289751765235 -0.64937703531519719 1 0.40568289751765235 -1 -1 -0.19444444444444445 -1 -1 0.58333332333333332 -1 0 -0.40391031186571796 -1 0.64937703531519719 0.40568289751765235 -1 -0.64937703531519719 0.40568289751765235 0 -1 -0.40391031186571796 -0.64937703531519719 -1 0.40568289751765235 0.64937703531519719 -1 0.40568289751765235 1.2335811384723961e-17 0 -0.58333332333333332 0.54411347435932644 0.54411347435932644 0.19773621964996424 -0.54411347435932633 -0.54411347435932644 0.19773621964996424 0.0001798755602653895 -0.0001798755602653895 -0.58184436495954284 -0.00017987556026533399 0.0001798755602653895 -0.58184436495954284 0.5455189818203241 0.44444870946423271 0.20278471241102641 0.44444870946423271 0.5455189818203241 0.20278471241102641 -0.44444870946423271 -0.5455189818203241 0.20278471241102636 -0.5455189818203241 -0.44444870946423271 0.20278471241102641 1.480809934506961e-17 2.4680165575116018e-18 -0.58147036494252935 0.38230952394387191 0.38230952394387191 0.097364717285434374 -0.38230952394387191 -0.38230952394387191 0.097364717285434318 0.078230913347375253 0.078230913347375253 -0.052822394384934822 -0.078230913347375225 -0.078230913347375225 -0.052822394384934766 4.5590732226943881e-18 4.5590732226943881e-18 -0.039717989156755895 0.08821536007874671 0.08821536007874671 -0.024443230890755473 -0.08821536007874671 -0.08821536007874671 -0.024443230890755584 0.0085979416903988453 -0.0085979416903988453 0.34956597125398009 -0.0085979416903988175 0.0085979416903988453 0.34956597125398009 1.6533451930549149e-17 -1.079562298245877e-17 0.43761920915343611 1.5360381091861936e-17 1.0842621947196661e-17 0.34075933444598222 -0.098301823795266197 0.098301823795266197 0.49818863846578709 0.098301823795266252 -0.098301823795266252 0.49818863846578715 6.1552273150940929e-18 -6.0085355936164644e-18 0.5325961907617458 1.7525853218403565e-17 1.6526986543527422e-17 0.19419057488894406 1.1625963858984528e-17 1.141066438303829e-17 -0.038532389986693241</DataArray></Points><Cells><DataArray type="Int32" Name="connectivity" format="ascii">0 3 2 1 20 29 40 24 8 4 2 6 32 37 40 34 2 1 24 40 4 5 23 37 2 40 29 3 6 34 27 7 20 29 40 24 21 30 41 26 32 37 40 34 33 38 42 36 24 40 37 23 25 43 39 22 29 27 34 40 31 28 35 44 24 40 43 25 26 41 45 13 29 31 44 40 30 9 46 41 37 39 43 40 38 17 47 42 34 40 44 35 36 42 48 15 40 43 45 41 44 49 50 46 40 42 47 43 44 48 51 49 25 43 39 22 52 49 53 54 31 28 35 44 52 54 53 49 25 43 49 52 13 45 50 55 31 52 49 44 9 55 50 46 39 53 49 43 17 56 51 47 35 44 49 53 15 48 51 56 45 41 46 50 57 59 58 60 47 51 48 42 57 60 58 59 30 9 46 41 61 10 58 59 26 41 45 13 62 59 57 14 36 42 48 15 61 59 58 10 38 17 47 42 62 14 57 59 26 41 59 62 21 30 61 63 38 62 59 42 33 63 61 36 50 45 57 60 55 13 14 64 50 60 58 46 55 64 10 9 51 60 57 47 56 64 14 17 51 48 58 60 56 15 10 64 30 9 10 61 21 12 11 63 26 62 14 13 21 63 11 12 36 61 10 15 33 63 11 16 38 17 14 62 33 16 11 63 55 64 10 9 65 56 15 18 55 13 14 64 65 19 17 56 31 52 55 9 28 54 65 18 25 13 55 52 22 19 65 54 35 15 56 53 28 18 65 54 39 53 56 17 22 54 65 19</DataArray><DataArray type="Int32" Name="offsets" format="ascii">8 16 24 32 40 48 56 64 72 80 88 96 104 112 120 128 136 144 152 160 168 176 184 192 200 208 216 224 232 240 248 256 264 272 280 288 296 304 312 320 328 336</DataArray><DataArray type="Int32" Name="types" format="ascii">12 12 12 12 12 12 12 12 12 12 12 12 12 12 12 12 12 12 12 12 12 12 12 12 12 12 12 12 12 12 12 12 12 12 12 12 12 12 12 12 12 12</DataArray></Cells></Piece></UnstructuredGrid></VTKFile>