<?xml version='1.0' encoding='utf-8'?>
<VTKFile type="UnstructuredGrid" version="0.1" byte_order="LittleEndian"><UnstructuredGrid><Piece NumberOfPoints="68" NumberOfCells="44"><Points><DataArray type="Float64" NumberOfComponents="3" format="ascii">1 1 -0.58333333333333337 1 0 -0.58333333333333337 0 0 -0.58333333333333337 0 1 -0.58333333333333337 0 -1 -0.58333333333333337 1 -1 -0.58333333333333337 -1 0 -0.58333333333333337 -1 1 -0.58333333333333337 -1 -1 -0.58333333333333337 0 1 0.58333333333333337 -0.38475799166666663 0.38475799166666663 0.58333333333333337 0 0 0.58333333333333337 1 1 0.58333333333333337 1 0 0.58333333333333337 0.38475799166666663 -0.38475799166666663 0.58333333333333337 -1 0 0.58333333333333337 -1 -1 0.58333333333333337 0 -1 0.58333333333333337 -1 1 0.58333333333333337 1 -1 0.58333333333333337 1 1 -0.10254621069459043 1 1 0.5694072822443107 1 -1 0.5694072822443107 1 -1 -0.10254621069459043 1 0 -0.35387526015860615 1 -0.53753657146308098 0.34975928308238519 1 0.53753657146308098 0.34975928308238519 -1 1 -0.10254621069459043 -1 1 0.5694072822443107 0 1 -0.35387526015860615 0.53753657146308098 1 0.34975928308238519 -0.53753657146308098 1 0.34975928308238519 -1 -1 -0.10254621069459043 -1 -1 0.5694072822443107 -1 0 -0.35387526015860615 -1 0.53753657146308098 0.34975928308238519 -1 -0.53753657146308098 0.34975928308238519 0 -1 -0.35387526015860615 -0.53753657146308098 -1 0.34975928308238519 0.53753657146308098 -1 0.34975928308238519 -3.0839528461809902e-18 -3.0839528461809902e-18 -0.58333332333333332 0.49716096497415707 0.49716096497415707 0.22150471165269325 -0.49716096497415707 -0.49716096497415707 0.22150471165269325 0.00069124897058324528 -0.00069124897058324528 -0.58151141069529833 -0.00069124897058324528 0.00069124897058324528 -0.58151141069529844 0.51965084894003089 0.38402512447528758 0.21191518604356696 0.38402512447528764 0.51965084894003089 0.21191518604356691 -0.38402512447528764 -0.51965084894003089 0.21191518604356691 -0.51965084894003089 -0.38402512447528764 0.21191518604356696 1.232618497118594e-17 -9.8609479769487518e-18 -0.58132695246432686 0.32827953947110455 0.32827953947110455 0.032533519596873922 -0.32827953947110455 -0.32827953947110455 0.032533519596873922 0.0085529880733044121 0.0085529880733044121 -0.34698598511566525 -0.0085529880733044121 -0.0085529880733044121 -0.34698598511566525 7.5980666652279441e-18 4.5588399991367671e-18 -0.22049831008540718 0.0099213353659211977 0.0099213353659211422 -0.34471404054358629 -0.0099213353659211422 -0.0099213353659211422 -0.34471404054358634 0.052402314707311992 -0.052402314707311992 0.1643075281166311 -0.052402314707311992 0.052402314707311992 0.16430752811663116 -2.1268214379072494e-18 -1.7620196034017916e-17 0.19076829370807433 1.4349924928969608e-17 3.5874812322424019e-18 0.093381988627142545 -0.075417474899997491 0.075417474899997491 0.52026859327932562 0.075417474899997491 -0.075417474899997491 0.52026859327932562 -0.26342729478165333 0.26342729478165328 0.46824366654703531 0.26342729478165328 -0.26342729478165328 0.46824366654703525 -5.5894440509713143e-18 -1.8175910749355334e-17 0.40250802878588543 -3.6192374418196525e-19 -1.7046288471507873e-18 0.52495198200239834 2.1644638806278978e-17 1.0120936224440401e-17 -0.22032506273353844</DataArray></Points><Cells><DataArray type="Int32" Name="connectivity" format="ascii">0 3 2 1 20 29 40 24 8 4 2 6 32 37 40 34 2 1 24 40 4 5 23 37 2 40 29 3 6 34 27 7 20 29 40 24 21 30 41 26 32 37 40 34 33 38 42 36 24 40 37 23 25 43 39 22 29 27 34 40 31 28 35 44 24 40 43 25 26 41 45 13 29 31 44 40 30 9 46 41 37 39 43 40 38 17 47 42 34 40 44 35 36 42 48 15 40 43 45 41 44 49 50 46 40 42 47 43 44 48 51 49 25 43 39 22 52 49 53 54 31 28 35 44 52 54 53 49 25 43 49 52 13 45 50 55 31 52 49 44 9 55 50 46 39 53 49 43 17 56 51 47 35 44 49 53 15 48 51 56 45 41 46 50 57 59 58 60 47 51 48 42 57 60 58 59 30 9 46 41 61 10 63 65 26 41 45 13 62 65 64 14 36 42 48 15 61 65 63 10 38 17 47 42 62 14 64 65 41 45 64 65 59 57 47 42 41 65 63 46 59 42 48 58 26 41 65 62 21 30 61 66 38 62 65 42 33 66 61 36 45 64 47 57 13 14 17 19 46 58 48 63 9 18 15 10 9 55 50 46 18 67 60 58 13 45 50 55 19 57 60 67 15 48 51 56 18 58 60 67 17 56 51 47 19 67 60 57 31 52 55 9 28 54 67 18 25 13 55 52 22 19 67 54 35 15 56 53 28 18 67 54 39 53 56 17 22 54 67 19 30 9 10 61 21 12 11 66 26 62 14 13 21 66 11 12 36 61 10 15 33 66 11 16 38 17 14 62 33 16 11 66</DataArray><DataArray type="Int32" Name="offsets" format="ascii">8 16 24 32 40 48 56 64 72 80 88 96 104 112 120 128 136 144 152 160 168 176 184 192 200 208 216 224 232 240 248 256 264 272 280 288 296 304 312 320 328 336 344 352</DataArray><DataArray type="Int32" Name="types" format="ascii">12 12 12 12 12 12 12 12 12 12 12 12 12 12 12 12 12 12 12 12 12 12 12 12 12 12 12 12 12 12 12 12 12 12 12 12 12 12 12 12 12 12 12 12</DataArray></Cells></Piece></UnstructuredGrid></VTKFile>