<?xml version='1.0' encoding='utf-8'?>
<VTKFile type="UnstructuredGrid" version="0.1" byte_order="LittleEndian"><UnstructuredGrid><Piece NumberOfPoints="48" NumberOfCells="26"><Points><DataArray type="Float64" NumberOfComponents="3" format="ascii">-1 -1 0.58333333333333337 1 1 0.58333333333333337 0 0 0.58333333333333337 1 -1 0.58333333333333337 0 -1 0.58333333333333337 1 0 0.58333333333333337 0.38475799166666663 -0.38475799166666663 0.58333333333333337 -1 1 0.58333333333333337 -1 0 0.58333333333333337 -1 1 -0.58333333333333337 -1 0 -0.58333333333333337 -1 0.41666666666666669 0.13835449999999999 -1 0 0.37891710000000001 -1 -0.41666666666666669 0.13835449999999999 -1 -1 -0.58333333333333337 1 -1 -0.58333333333333337 1 0 -0.58333333333333337 1 -0.41666666666666669 0.13835449999999999 1 0 0.37891710000000001 1 0.41666666666666669 0.13835449999999999 1 1 -0.58333333333333337 0 1 -0.58333333333333337 0.41666666666666669 1 0.13835449999999999 0 1 0.37891710000000001 -0.41666666666666669 1 0.13835449999999999 0 1 0.58333333333333337 0 -1 -0.58333333333333337 -0.41666666666666669 -1 0.13835449999999999 0 -1 0.37891710000000001 0.41666666666666669 -1 0.13835449999999999 0 0 -0.58333333333333337 -0.38475799166666663 0.38475799166666663 0.58333333333333337 0.32677171666666666 0.30278148333333332 -0.14802373333333332 -0.3264543416666667 -0.30588370833333334 -0.14607851666666666 -0.34097420833333336 0.34297959166666669 -0.12550721666666667 -0.020506150833333334 0.44490925833333334 0.037252155833333335 -0.07454147916666666 0.54287874999999997 0.32633135833333332 -0.36313462499999999 0.18900044999999999 0.35347906666666667 0.0023589975833333333 -0.0011163632500000001 0.29441233333333333 0.36648178333333337 -0.19143359166666665 0.35062579166666663 0.071043267499999993 -0.54746031666666661 0.32457463333333331 0.018196617500000001 -0.44923317499999998 0.037384839999999996 0.33941197499999998 -0.34772121666666672 -0.12491675000000001 0.47123424166666666 -0.054731706666666664 0.060010170000000002 0.21500624999999998 -0.17529068333333334 0.11478483333333334 0.0010365913333333333 -0.0015229506666666667 0.00010379189166666666 -0.21333408333333334 0.17088459166666667 0.11369959166666667 -0.47083095833333338 0.051403154999999999 0.058568457500000004</DataArray></Points><Cells><DataArray type="Int32" Name="connectivity" format="ascii">16 19 1 20 30 32 22 21 42 17 16 30 43 18 19 32 42 29 26 30 17 3 15 16 35 23 25 36 32 22 1 19 36 25 31 37 19 1 2 38 18 5 1 19 39 6 2 38 44 39 18 43 45 38 19 32 45 38 19 32 46 37 36 35 32 22 21 30 35 23 24 34 47 46 45 33 34 35 32 30 33 45 44 41 30 32 43 42 30 21 9 10 34 24 7 11 41 28 27 33 42 29 26 30 47 12 11 34 33 13 10 30 27 26 14 0 33 30 10 13 40 4 0 13 41 28 27 33 37 31 8 12 38 2 0 13 39 6 2 38 40 4 0 13 45 38 13 33 44 39 40 41 46 37 12 47 45 38 13 33 35 23 24 34 36 25 7 11 46 37 36 35 47 12 11 34 36 25 7 11 37 31 8 12 40 4 3 17 39 6 5 18 41 40 17 42 44 39 18 43 41 28 29 42 40 4 3 17</DataArray><DataArray type="Int32" Name="offsets" format="ascii">8 16 24 32 40 48 56 64 72 80 88 96 104 112 120 128 136 144 152 160 168 176 184 192 200 208</DataArray><DataArray type="Int32" Name="types" format="ascii">12 12 12 12 12 12 12 12 12 12 12 12 12 12 12 12 12 12 12 12 12 12 12 12 12 12</DataArray></Cells></Piece></UnstructuredGrid></VTKFile>