<?xml version='1.0' encoding='utf-8'?>
<VTKFile type="UnstructuredGrid" version="0.1" byte_order="LittleEndian"><UnstructuredGrid><Piece NumberOfPoints="50" NumberOfCells="28"><Points><DataArray type="Float64" NumberOfComponents="3" format="ascii">-1 -1 0.58333333333333337 1 1 0.58333333333333337 0 0 0.58333333333333337 1 -1 0.58333333333333337 0 -1 0.58333333333333337 1 0 0.58333333333333337 0.38475799166666663 -0.38475799166666663 0.58333333333333337 -1 1 0.58333333333333337 -1 0 0.58333333333333337 -1 1 -0.58333333333333337 -1 0 -0.58333333333333337 -1 0.44698307823763833 0.15847561808574936 -1 0 0.27325458119708462 -1 -0.44698307823763833 0.15847561808574936 -1 -1 -0.58333333333333337 1 -1 -0.58333333333333337 1 0 -0.58333333333333337 1 -0.44698307823763833 0.15847561808574936 1 0 0.27325458119708462 1 0.44698307823763833 0.15847561808574936 1 1 -0.58333333333333337 0 1 -0.58333333333333337 0.44698307823763833 1 0.15847561808574936 0 1 0.27325458119708462 -0.44698307823763833 1 0.15847561808574936 0 1 0.58333333333333337 0 -1 -0.58333333333333337 -0.44698307823763833 -1 0.15847561808574936 0 -1 0.27325458119708462 0.44698307823763833 -1 0.15847561808574936 0 0 -0.58333333333333337 -0.38475799166666663 0.38475799166666663 0.58333333333333337 0.28943511423547652 0.5381712194249304 -0.034855978112309546 -0.29262991575501207 -0.53996888747736382 -0.033210668916979505 -0.49762891151335731 0.43048979353145983 -7.0980965798541972e-05 0.051038374368515341 0.54573099098796118 0.073225824688157998 0.066499776718201953 0.71244169106202593 0.42799917203998333 -0.23421475501777908 0.27688850456557912 0.47376210842125321 -0.057148414741432813 0.0035510250886512458 0.42640179389953992 0.28086482409900437 -0.2537606478904495 0.41357539542594296 -0.024484329733849508 -0.69886709376021883 0.41321510597287797 0.024272563456014171 -0.5514449960606409 0.12697062753231622 0.34706162559897669 -0.59023546455888121 0.017193948663617318 0.36151928470926753 -0.203415554506133 0.098696029882298919 0.14367301235149071 -0.20831789866649425 0.20381042810432867 -0.027799123022583458 0.028341045949868311 0.20135378985450805 -0.12489754801430088 0.30972038433296395 0.18605690276526624 -0.56900662211193487 0.353809601822553 0.12241645438154188 -0.50837717134034333 0.61985246617095036 0.26204257645397877 -0.28445197376399212 0.51942789129140843 0.41165019446271062</DataArray></Points><Cells><DataArray type="Int32" Name="connectivity" format="ascii">16 19 1 20 30 32 22 21 42 17 16 30 43 18 19 32 42 29 26 30 17 3 15 16 35 23 25 36 32 22 1 19 36 25 31 37 19 1 2 38 18 5 1 19 39 6 2 38 44 39 18 43 45 38 19 32 45 38 19 32 46 37 36 35 32 22 21 30 35 23 24 34 47 46 45 33 34 35 32 30 33 45 44 41 30 32 43 42 30 21 9 10 34 24 7 11 41 28 27 33 42 29 26 30 47 12 11 34 33 13 10 30 27 26 14 0 33 30 10 13 40 4 0 13 41 28 27 33 37 31 8 12 38 2 0 13 39 6 2 38 40 4 0 13 45 38 13 33 44 39 40 41 46 37 12 47 45 38 13 33 40 4 3 17 39 6 5 18 41 40 17 42 44 39 18 43 41 28 29 42 40 4 3 17 7 8 12 11 24 48 47 34 7 8 48 24 25 31 49 23 8 12 47 48 31 37 46 49 48 24 23 49 47 34 35 46 25 31 49 23 36 37 46 35</DataArray><DataArray type="Int32" Name="offsets" format="ascii">8 16 24 32 40 48 56 64 72 80 88 96 104 112 120 128 136 144 152 160 168 176 184 192 200 208 216 224</DataArray><DataArray type="Int32" Name="types" format="ascii">12 12 12 12 12 12 12 12 12 12 12 12 12 12 12 12 12 12 12 12 12 12 12 12 12 12 12 12</DataArray></Cells></Piece></UnstructuredGrid></VTKFile>