<?xml version='1.0' encoding='utf-8'?>
<VTKFile type="UnstructuredGrid" version="0.1" byte_order="LittleEndian"><UnstructuredGrid><Piece NumberOfPoints="50" NumberOfCells="28"><Points><DataArray type="Float64" NumberOfComponents="3" format="ascii">-1 -1 0.58333333333333337 1 1 0.58333333333333337 0 0 0.58333333333333337 1 -1 0.58333333333333337 0 -1 0.58333333333333337 1 0 0.58333333333333337 0.38475799166666663 -0.38475799166666663 0.58333333333333337 -1 1 0.58333333333333337 -1 0 0.58333333333333337 -1 1 -0.58333333333333337 -1 0 -0.58333333333333337 -1 0.44066794082463412 0.14587329268782623 -1 0 0.23753850070656288 -1 -0.44066794082463412 0.14587329268782623 -1 -1 -0.58333333333333337 1 -1 -0.58333333333333337 1 0 -0.58333333333333337 1 -0.44066794082463412 0.14587329268782623 1 0 0.23753850070656288 1 0.44066794082463412 0.14587329268782623 1 1 -0.58333333333333337 0 1 -0.58333333333333337 0.44066794082463412 1 0.14587329268782623 0 1 0.23753850070656288 -0.44066794082463412 1 0.14587329268782623 0 1 0.58333333333333337 0 -1 -0.58333333333333337 -0.44066794082463412 -1 0.14587329268782623 0 -1 0.23753850070656288 0.44066794082463412 -1 0.14587329268782623 0 0 -0.58333333333333337 -0.38475799166666663 0.38475799166666663 0.58333333333333337 0.25442432214334304 0.47911511929211814 -0.080781296753972706 -0.26663769802477261 -0.33007449154896634 -0.13618737115045196 -0.34725264294218083 0.58332837795091919 0.009798830596965645 -0.017001524133620004 0.52279304519723746 0.10182288068110677 0.0070830160057182368 0.66424944804221664 0.40621588001312775 -0.26066943604360354 0.27333082734419023 0.41650847598564555 -0.074771254083403779 -0.065440814290431859 0.33981433223362323 0.52368603836244143 -0.26507662016721978 0.40044980394436142 0.63755429109452522 -0.49251453653476551 0.24449427093118686 0.34225611745671686 -0.50883572883586148 0.084590100341972799 0.39564690308759637 -0.38464723926197331 -0.067083689475257724 0.38204316474168443 -0.19256449294649453 -0.0052469034187315761 0.14511428685481417 -0.46017992713786665 0.19727987836789312 -0.055640061186889377 -0.28888454909334937 0.15504231863627116 -0.13874123984533324 0.21869985060330163 0.15117503766419568 -0.34501417996998568 0.14587020625552363 0.03306648170832633 0.074560419976518647 -0.63033148592512478 0.28601595210440406 -0.014381216086821334 -0.51042991827954265 0.27804072263538121</DataArray></Points><Cells><DataArray type="Int32" Name="connectivity" format="ascii">16 19 1 20 30 32 22 21 42 17 16 30 43 18 19 32 42 29 26 30 17 3 15 16 35 23 25 36 32 22 1 19 36 25 31 37 19 1 2 38 18 5 1 19 39 6 2 38 44 39 18 43 45 38 19 32 45 38 19 32 46 37 36 35 32 22 21 30 35 23 24 34 47 46 45 33 34 35 32 30 33 45 44 41 30 32 43 42 30 21 9 10 34 24 7 11 41 28 27 33 42 29 26 30 47 12 11 34 33 13 10 30 27 26 14 0 33 30 10 13 37 31 8 12 38 2 0 13 46 37 12 47 45 38 13 33 35 23 24 34 36 25 7 11 46 37 36 35 47 12 11 34 36 25 7 11 37 31 8 12 40 4 3 17 39 6 5 18 41 40 17 42 44 39 18 43 41 28 29 42 40 4 3 17 6 4 0 2 48 28 27 49 39 6 2 38 44 48 49 45 0 2 49 27 13 38 45 33 48 28 27 49 44 41 33 45 6 4 28 48 39 40 41 44</DataArray><DataArray type="Int32" Name="offsets" format="ascii">8 16 24 32 40 48 56 64 72 80 88 96 104 112 120 128 136 144 152 160 168 176 184 192 200 208 216 224</DataArray><DataArray type="Int32" Name="types" format="ascii">12 12 12 12 12 12 12 12 12 12 12 12 12 12 12 12 12 12 12 12 12 12 12 12 12 12 12 12</DataArray></Cells></Piece></UnstructuredGrid></VTKFile>