<?xml version='1.0' encoding='utf-8'?>
<VTKFile type="UnstructuredGrid" version="0.1" byte_order="LittleEndian"><UnstructuredGrid><Piece NumberOfPoints="58" NumberOfCells="28"><Points><DataArray type="Float64" NumberOfComponents="3" format="ascii">-1 0 -1 0 0 -1 0 -1 -1 -1 -1 -1 -1 1 -1 0 1 -1 1 0 -1 1 -1 -1 1 1 -1 -1 -1 1 -0.5 -1 1 -0.5 -0.5 1 -1 -0.5 1 -0.5 0 1 -1 0 1 -0.5 0.5 1 -1 0.5 1 -0.5 1 1 -1 1 1 0 -1 1 0 -0.5 1 0 0 1 0 0.5 1 0 1 1 0.5 -1 1 0.5 -0.5 1 0.5 0 1 0.5 0.5 1 0.5 1 1 1 -1 1 1 -0.5 1 1 0 1 1 0.5 1 1 1 1 -1 -0.5 0 -1 0 0 -1 0.5 0 1 0 0 1 -0.5 0 1 0.5 0 0 -1 0 -0.5 -1 0 0.5 -1 0 -0.5 1 0 0 1 0 0.5 1 0 4.1847013501074462e-19 -0.5 -0.16801464076982114 -3.5251807653450288e-19 0.5 -0.16801464076982114 -7.8200297907544141e-19 -1.9825411154020655e-18 -0.15850994745852764 -0.5 2.2204460492503132e-17 0.41572702048527072 0.5 -2.2204460492503132e-17 0.41572702048527072 -0.5 -0.5 0.34683275281893855 0.5 -0.5 0.34683275281893855 -0.5 0.5 0.34683275281893855 0.5 0.5 0.34683275281893855 2.8743536541291646e-18 -0.5 0.31843674360942203 -9.8058740359707276e-19 0.5 0.31843674360942203 -4.75796993292889e-18 0 0.38496959678847631</DataArray></Points><Cells><DataArray type="Int32" Name="connectivity" format="ascii">0 3 2 1 35 34 46 48 6 1 2 7 37 48 46 38 0 1 5 4 35 48 47 36 6 8 5 1 37 39 47 48 35 34 46 48 49 51 55 57 37 48 46 38 50 57 55 52 35 48 47 36 49 57 56 53 37 39 47 48 50 54 56 57 3 2 46 34 41 40 55 51 7 38 46 2 42 52 55 40 4 36 47 5 43 53 56 44 8 5 47 39 45 44 56 54 49 51 55 57 13 11 20 21 50 57 55 52 26 21 20 25 49 57 56 53 13 21 22 15 50 54 56 57 26 27 22 21 35 34 51 49 14 12 11 13 37 50 52 38 31 26 25 30 35 49 53 36 14 13 15 16 37 39 54 50 31 32 27 26 51 55 20 11 41 40 19 10 52 25 20 55 42 24 19 40 53 15 22 56 43 17 23 44 54 56 22 27 45 44 23 28 34 3 41 51 12 9 10 11 38 52 42 7 30 25 24 29 36 53 43 4 16 15 17 18 39 8 45 54 32 33 28 27</DataArray><DataArray type="Int32" Name="offsets" format="ascii">8 16 24 32 40 48 56 64 72 80 88 96 104 112 120 128 136 144 152 160 168 176 184 192 200 208 216 224</DataArray><DataArray type="Int32" Name="types" format="ascii">12 12 12 12 12 12 12 12 12 12 12 12 12 12 12 12 12 12 12 12 12 12 12 12 12 12 12 12</DataArray></Cells></Piece></UnstructuredGrid></VTKFile>