<?xml version='1.0' encoding='utf-8'?>
<VTKFile type="UnstructuredGrid" version="0.1" byte_order="LittleEndian"><UnstructuredGrid><Piece NumberOfPoints="72" NumberOfCells="33"><Points><DataArray type="Float64" NumberOfComponents="3" format="ascii">-1 -0.33333333333333331 -1 -0.33333333333333331 -0.33333333333333331 -1 -0.33333333333333331 -1 -1 -1 -1 -1 -1 0.33333333333333331 -1 -0.33333333333333331 0.33333333333333331 -1 -1 1 -1 -0.33333333333333331 1 -1 0.33333333333333331 -0.33333333333333331 -1 0.33333333333333331 -1 -1 0.33333333333333331 0.33333333333333331 -1 0.33333333333333331 1 -1 1 -0.33333333333333331 -1 1 -1 -1 1 0.33333333333333331 -1 1 1 -1 -1 -1 1 -0.59999999999999998 -1 1 -0.59999999999999998 -0.59999999999999998 1 -1 -0.59999999999999998 1 -0.59999999999999998 -0.20000000000000001 1 -1 -0.20000000000000001 1 -0.59999999999999998 0.20000000000000001 1 -1 0.20000000000000001 1 -0.59999999999999998 0.59999999999999998 1 -1 0.59999999999999998 1 -0.59999999999999998 1 1 -1 1 1 -0.20000000000000001 -1 1 -0.20000000000000001 -0.59999999999999998 1 -0.20000000000000001 -0.20000000000000001 1 -0.20000000000000001 0.20000000000000001 1 -0.20000000000000001 0.59999999999999998 1 -0.20000000000000001 1 1 0.20000000000000001 -1 1 0.20000000000000001 -0.59999999999999998 1 0.20000000000000001 -0.20000000000000001 1 0.20000000000000001 0.20000000000000001 1 0.20000000000000001 0.59999999999999998 1 0.20000000000000001 1 1 0.59999999999999998 -1 1 0.59999999999999998 -0.59999999999999998 1 0.59999999999999998 -0.20000000000000001 1 0.59999999999999998 0.20000000000000001 1 0.59999999999999998 0.59999999999999998 1 0.59999999999999998 1 1 1 -1 1 1 -0.59999999999999998 1 1 -0.20000000000000001 1 1 0.20000000000000001 1 1 0.59999999999999998 1 1 1 1 -1 -0.13333333333333333 0 -1 0.13333333333333333 0 1 -0.13333333333333333 0 1 0.13333333333333333 0 -0.13333333333333333 -1 0 0.13333333333333333 -1 0 -0.13333333333333333 1 0 0.13333333333333333 1 0 -0.0001690029375854033 0.064130528584317739 -0.047019550756186954 0.0001690029375854033 0.064130528584317739 -0.047019550756186954 -0.0001690029375854033 -0.064130528584317739 -0.047019550756186954 0.0001690029375854033 -0.064130528584317739 -0.047019550756186954 -0.0048732055335548533 0.1754743672818537 0.3978092629734255 0.0048732055335548533 0.1754743672818537 0.3978092629734255 -0.0048732055335548533 -0.1754743672818537 0.3978092629734255 0.0048732055335548533 -0.1754743672818537 0.3978092629734255 -0.12362545609222471 -0.8576048139850978 -0.0068812583343013482 0.12362545609222471 -0.8576048139850978 -0.0068812583343013482 -0.12362545609222471 0.8576048139850978 -0.0068812583343013482 0.12362545609222471 0.8576048139850978 -0.0068812583343013482</DataArray></Points><Cells><DataArray type="Int32" Name="connectivity" format="ascii">5 1 8 10 60 62 63 61 60 62 63 61 64 66 67 65 5 1 62 60 4 0 52 53 10 61 63 8 14 55 54 12 1 8 63 62 68 69 67 66 5 60 61 10 70 64 65 71 60 62 66 64 22 20 30 31 61 65 67 63 43 37 36 42 64 66 67 65 31 30 36 37 62 1 68 66 20 18 29 30 63 67 69 8 42 36 35 41 60 64 70 5 22 31 32 24 61 10 71 65 43 44 38 37 60 62 20 22 53 52 21 23 61 43 42 63 55 49 48 54 66 67 36 30 68 69 35 29 64 31 37 65 70 32 38 71 62 1 18 20 52 0 19 21 63 42 41 8 54 48 47 12 60 22 24 5 53 23 25 4 61 10 44 43 55 14 50 49 1 8 69 68 2 9 57 56 5 70 71 10 7 58 59 11 1 68 29 18 2 56 28 17 8 41 35 69 9 40 34 57 5 24 32 70 7 26 33 58 10 71 38 44 11 59 39 45 68 69 35 29 56 57 34 28 70 32 38 71 58 33 39 59 1 18 19 0 2 17 16 3 8 12 47 41 9 13 46 40 5 4 25 24 7 6 27 26 10 44 50 14 11 45 51 15</DataArray><DataArray type="Int32" Name="offsets" format="ascii">8 16 24 32 40 48 56 64 72 80 88 96 104 112 120 128 136 144 152 160 168 176 184 192 200 208 216 224 232 240 248 256 264</DataArray><DataArray type="Int32" Name="types" format="ascii">12 12 12 12 12 12 12 12 12 12 12 12 12 12 12 12 12 12 12 12 12 12 12 12 12 12 12 12 12 12 12 12 12</DataArray></Cells></Piece></UnstructuredGrid></VTKFile>