<?xml version='1.0' encoding='utf-8'?>
<VTKFile type="UnstructuredGrid" version="0.1" byte_order="LittleEndian"><UnstructuredGrid><Piece NumberOfPoints="72" NumberOfCells="37"><Points><DataArray type="Float64" NumberOfComponents="3" format="ascii">-1 1 -1 1 1 -1 1 -1 -1 -1 -1 -1 -1 -1 1 -0.59999999999999998 -1 1 -0.59999999999999998 -0.59999999999999998 1 -1 -0.59999999999999998 1 -0.59999999999999998 -0.20000000000000001 1 -1 -0.20000000000000001 1 -0.59999999999999998 0.20000000000000001 1 -1 0.20000000000000001 1 -0.59999999999999998 0.59999999999999998 1 -1 0.59999999999999998 1 -0.59999999999999998 1 1 -1 1 1 -0.20000000000000001 -1 1 -0.20000000000000001 -0.59999999999999998 1 -0.20000000000000001 -0.20000000000000001 1 -0.20000000000000001 0.20000000000000001 1 -0.20000000000000001 0.59999999999999998 1 -0.20000000000000001 1 1 0.20000000000000001 -1 1 0.20000000000000001 -0.59999999999999998 1 0.20000000000000001 -0.20000000000000001 1 0.20000000000000001 0.20000000000000001 1 0.20000000000000001 0.59999999999999998 1 0.20000000000000001 1 1 0.59999999999999998 -1 1 0.59999999999999998 -0.59999999999999998 1 0.59999999999999998 -0.20000000000000001 1 0.59999999999999998 0.20000000000000001 1 0.59999999999999998 0.59999999999999998 1 0.59999999999999998 1 1 1 -1 1 1 -0.59999999999999998 1 1 -0.20000000000000001 1 1 0.20000000000000001 1 1 0.59999999999999998 1 1 1 1 -1 -0.3473684210526316 0.20000000000000001 -1 0.3473684210526316 0.20000000000000001 -1 -0.1368421052631579 0.59999999999999998 -1 0.1368421052631579 0.59999999999999998 1 0.3473684210526316 0.20000000000000001 1 -0.3473684210526316 0.20000000000000001 1 0.1368421052631579 0.59999999999999998 1 -0.1368421052631579 0.59999999999999998 0.3473684210526316 -1 0.20000000000000001 -0.3473684210526316 -1 0.20000000000000001 0.1368421052631579 -1 0.59999999999999998 -0.1368421052631579 -1 0.59999999999999998 -0.3473684210526316 1 0.20000000000000001 0.3473684210526316 1 0.20000000000000001 -0.1368421052631579 1 0.59999999999999998 0.1368421052631579 1 0.59999999999999998 -0.34737816480090972 0.54215796440087805 0.5822805669929153 0.34737816480090972 0.54215796440087805 0.5822805669929153 -0.34737816480090972 -0.54215796440087805 0.5822805669929153 0.34737816480090972 -0.54215796440087805 0.5822805669929153 0.35488423185810203 -0.21506938131048758 0.76960618794863056 -0.35488423185810203 -0.21506938131048758 0.76960618794863056 0.35488423185810203 0.21506938131048758 0.76960618794863056 -0.35488423185810203 0.21506938131048758 0.76960618794863056 -0.13768151824217886 0.19448641134967001 0.83960340471062245 0.13768151824217886 0.19448641134967001 0.83960340471062245 -0.13768151824217886 -0.19448641134967001 0.83960340471062245 0.13768151824217886 -0.19448641134967001 0.83960340471062245 -0.13684210526315793 0.5835789473684212 0.75454545454545463 0.13684210526315793 0.5835789473684212 0.75454545454545463 -0.13684210526315793 -0.5835789473684212 0.75454545454545463 0.13684210526315793 -0.5835789473684212 0.75454545454545463</DataArray></Points><Cells><DataArray type="Int32" Name="connectivity" format="ascii">0 3 2 1 41 40 45 44 41 40 45 44 43 42 47 46 1 0 41 44 53 52 56 57 2 45 40 3 48 59 58 49 40 45 47 42 58 59 60 61 41 43 46 44 56 63 62 57 0 41 56 52 15 13 12 14 1 53 57 44 39 33 32 38 3 49 58 40 4 5 6 7 2 45 59 48 34 35 29 28 42 40 58 61 9 7 6 8 47 60 59 45 36 30 29 35 43 63 56 41 11 10 12 13 46 44 57 62 37 38 32 31 43 42 47 46 63 61 60 62 43 42 61 63 11 9 8 10 46 62 60 47 37 31 30 36 63 61 60 62 64 66 67 65 56 63 62 57 68 64 65 69 58 59 60 61 70 71 67 66 61 63 10 8 66 64 19 18 60 30 31 62 67 24 25 65 58 61 8 6 70 66 18 17 59 29 30 60 71 23 24 67 56 12 10 63 68 20 19 64 57 62 31 32 69 65 25 26 64 66 67 65 19 18 24 25 66 67 24 18 70 71 23 17 64 19 25 65 68 20 26 69 57 56 68 69 53 52 54 55 59 71 70 58 48 50 51 49 6 58 70 17 5 49 51 16 29 23 71 59 28 22 50 48 12 20 68 56 14 21 54 52 32 57 69 26 33 53 55 27 70 71 23 17 51 50 22 16 68 20 26 69 54 21 27 55</DataArray><DataArray type="Int32" Name="offsets" format="ascii">8 16 24 32 40 48 56 64 72 80 88 96 104 112 120 128 136 144 152 160 168 176 184 192 200 208 216 224 232 240 248 256 264 272 280 288 296</DataArray><DataArray type="Int32" Name="types" format="ascii">12 12 12 12 12 12 12 12 12 12 12 12 12 12 12 12 12 12 12 12 12 12 12 12 12 12 12 12 12 12 12 12 12 12 12 12 12</DataArray></Cells></Piece></UnstructuredGrid></VTKFile>