<?xml version='1.0' encoding='utf-8'?>
<VTKFile type="UnstructuredGrid" version="0.1" byte_order="LittleEndian"><UnstructuredGrid><Piece NumberOfPoints="72" NumberOfCells="37"><Points><DataArray type="Float64" NumberOfComponents="3" format="ascii">-1 1 -1 1 1 -1 1 -1 -1 -1 -1 -1 -1 -1 1 -0.59999999999999998 -1 1 -0.59999999999999998 -0.59999999999999998 1 -1 -0.59999999999999998 1 -0.59999999999999998 -0.20000000000000001 1 -1 -0.20000000000000001 1 -0.59999999999999998 0.20000000000000001 1 -1 0.20000000000000001 1 -0.59999999999999998 0.59999999999999998 1 -1 0.59999999999999998 1 -0.59999999999999998 1 1 -1 1 1 -0.20000000000000001 -1 1 -0.20000000000000001 -0.59999999999999998 1 -0.20000000000000001 -0.20000000000000001 1 -0.20000000000000001 0.20000000000000001 1 -0.20000000000000001 0.59999999999999998 1 -0.20000000000000001 1 1 0.20000000000000001 -1 1 0.20000000000000001 -0.59999999999999998 1 0.20000000000000001 -0.20000000000000001 1 0.20000000000000001 0.20000000000000001 1 0.20000000000000001 0.59999999999999998 1 0.20000000000000001 1 1 0.59999999999999998 -1 1 0.59999999999999998 -0.59999999999999998 1 0.59999999999999998 -0.20000000000000001 1 0.59999999999999998 0.20000000000000001 1 0.59999999999999998 0.59999999999999998 1 0.59999999999999998 1 1 1 -1 1 1 -0.59999999999999998 1 1 -0.20000000000000001 1 1 0.20000000000000001 1 1 0.59999999999999998 1 1 1 1 -1 -0.3473684210526316 0.20000000000000001 -1 0.3473684210526316 0.20000000000000001 -1 -0.1368421052631579 0.59999999999999998 -1 0.1368421052631579 0.59999999999999998 1 0.3473684210526316 0.20000000000000001 1 -0.3473684210526316 0.20000000000000001 1 0.1368421052631579 0.59999999999999998 1 -0.1368421052631579 0.59999999999999998 0.3473684210526316 -1 0.20000000000000001 -0.3473684210526316 -1 0.20000000000000001 0.1368421052631579 -1 0.59999999999999998 -0.1368421052631579 -1 0.59999999999999998 -0.3473684210526316 1 0.20000000000000001 0.3473684210526316 1 0.20000000000000001 -0.1368421052631579 1 0.59999999999999998 0.1368421052631579 1 0.59999999999999998 -0.34736842105263149 0.37631578947368421 0.5818181818181819 0.34736842105263149 0.37631578947368421 0.5818181818181819 -0.34736842105263149 -0.37631578947368421 0.5818181818181819 0.34736842105263149 -0.37631578947368421 0.5818181818181819 -0.34736842105263166 -0.14842105263157895 0.75454545454545452 0.34736842105263166 -0.14842105263157895 0.75454545454545452 -0.34736842105263166 0.14842105263157895 0.75454545454545452 0.34736842105263166 0.14842105263157895 0.75454545454545452 0.1368421052631579 0.53842105263157891 0.75454545454545474 -0.1368421052631579 0.53842105263157891 0.75454545454545474 0.1368421052631579 -0.53842105263157891 0.75454545454545474 -0.1368421052631579 -0.53842105263157891 0.75454545454545474 -0.1368421052631579 0.17736842105263159 0.83636363636363631 0.1368421052631579 0.17736842105263159 0.83636363636363631 -0.1368421052631579 -0.17736842105263159 0.83636363636363631 0.1368421052631579 -0.17736842105263159 0.83636363636363631</DataArray></Points><Cells><DataArray type="Int32" Name="connectivity" format="ascii">0 3 2 1 41 40 45 44 41 40 45 44 56 58 59 57 1 0 41 44 53 52 56 57 2 45 40 3 48 59 58 49 41 40 58 56 43 42 60 62 44 57 59 45 46 63 61 47 56 58 59 57 62 60 61 63 57 56 62 63 64 65 68 69 59 61 60 58 66 71 70 67 40 58 60 42 7 6 8 9 45 47 61 59 35 36 30 29 41 43 62 56 13 11 10 12 44 57 63 46 38 32 31 37 62 60 61 63 68 70 71 69 43 42 60 62 11 9 8 10 46 63 61 47 37 31 30 36 60 62 10 8 70 68 19 18 61 30 31 63 71 24 25 69 58 60 8 6 67 70 18 17 59 29 30 61 66 23 24 71 56 12 10 62 65 20 19 68 57 63 31 32 64 69 25 26 57 56 65 64 53 52 54 55 59 66 67 58 48 50 51 49 0 41 56 52 15 13 12 14 1 53 57 44 39 33 32 38 3 49 58 40 4 5 6 7 2 45 59 48 34 35 29 28 68 70 71 69 19 18 24 25 70 71 24 18 67 66 23 17 68 19 25 69 65 20 26 64 6 58 67 17 5 49 51 16 29 23 66 59 28 22 50 48 12 20 65 56 14 21 54 52 32 57 64 26 33 53 55 27 67 66 23 17 51 50 22 16 65 20 26 64 54 21 27 55</DataArray><DataArray type="Int32" Name="offsets" format="ascii">8 16 24 32 40 48 56 64 72 80 88 96 104 112 120 128 136 144 152 160 168 176 184 192 200 208 216 224 232 240 248 256 264 272 280 288 296</DataArray><DataArray type="Int32" Name="types" format="ascii">12 12 12 12 12 12 12 12 12 12 12 12 12 12 12 12 12 12 12 12 12 12 12 12 12 12 12 12 12 12 12 12 12 12 12 12 12</DataArray></Cells></Piece></UnstructuredGrid></VTKFile>