<?xml version='1.0' encoding='utf-8'?>
<VTKFile type="UnstructuredGrid" version="0.1" byte_order="LittleEndian"><UnstructuredGrid><Piece NumberOfPoints="76" NumberOfCells="38"><Points><DataArray type="Float64" NumberOfComponents="3" format="ascii">-1 1 -1 1 1 -1 1 -1 -1 -1 -1 -1 -1 -1 1 -0.59999999999999998 -1 1 -0.59999999999999998 -0.59999999999999998 1 -1 -0.59999999999999998 1 -0.59999999999999998 -0.20000000000000001 1 -1 -0.20000000000000001 1 -0.59999999999999998 0.20000000000000001 1 -1 0.20000000000000001 1 -0.59999999999999998 0.59999999999999998 1 -1 0.59999999999999998 1 -0.59999999999999998 1 1 -1 1 1 -0.20000000000000001 -1 1 -0.20000000000000001 -0.59999999999999998 1 -0.20000000000000001 -0.20000000000000001 1 -0.20000000000000001 0.20000000000000001 1 -0.20000000000000001 0.59999999999999998 1 -0.20000000000000001 1 1 0.20000000000000001 -1 1 0.20000000000000001 -0.59999999999999998 1 0.20000000000000001 -0.20000000000000001 1 0.20000000000000001 0.20000000000000001 1 0.20000000000000001 0.59999999999999998 1 0.20000000000000001 1 1 0.59999999999999998 -1 1 0.59999999999999998 -0.59999999999999998 1 0.59999999999999998 -0.20000000000000001 1 0.59999999999999998 0.20000000000000001 1 0.59999999999999998 0.59999999999999998 1 0.59999999999999998 1 1 1 -1 1 1 -0.59999999999999998 1 1 -0.20000000000000001 1 1 0.20000000000000001 1 1 0.59999999999999998 1 1 1 1 -1 -1 0 -1 1 0 -1 -0.3473684210526316 0.59999999999999998 -1 0.3473684210526316 0.59999999999999998 -1 -0.1368421052631579 0.80000000000000004 -1 0.1368421052631579 0.80000000000000004 1 1 0 1 -1 0 1 0.3473684210526316 0.59999999999999998 1 -0.3473684210526316 0.59999999999999998 1 0.1368421052631579 0.80000000000000004 1 -0.1368421052631579 0.80000000000000004 0.3473684210526316 -1 0.59999999999999998 -0.3473684210526316 -1 0.59999999999999998 0.1368421052631579 -1 0.80000000000000004 -0.1368421052631579 -1 0.80000000000000004 -0.3473684210526316 1 0.59999999999999998 0.3473684210526316 1 0.59999999999999998 -0.1368421052631579 1 0.80000000000000004 0.1368421052631579 1 0.80000000000000004 0.34788330892185559 -0.54324160657459419 0.79399389437292733 -0.34788330892185559 -0.54324160657459419 0.79399389437292733 0.34788330892185559 0.54324160657459419 0.79399389437292733 -0.34788330892185559 0.54324160657459419 0.79399389437292733 0.37851244710080589 -0.19716914308411582 0.94764947251888554 -0.37851244710080589 -0.19716914308411582 0.94764947251888554 0.37851244710080589 0.19716914308411582 0.94764947251888554 -0.37851244710080589 0.19716914308411582 0.94764947251888554 -0.18602302291276462 0.20764638297997076 0.99331482909683022 0.18602302291276462 0.20764638297997076 0.99331482909683022 -0.18602302291276462 -0.20764638297997076 0.99331482909683022 0.18602302291276462 -0.20764638297997076 0.99331482909683022 -0.1369771552734467 -0.58422165100959822 0.87935425827378666 0.1369771552734467 -0.58422165100959822 0.87935425827378666 -0.1369771552734467 0.58422165100959822 0.87935425827378666 0.1369771552734467 0.58422165100959822 0.87935425827378666</DataArray></Points><Cells><DataArray type="Int32" Name="connectivity" format="ascii">0 3 2 1 41 40 47 46 41 40 47 46 43 42 49 48 40 47 49 42 53 52 60 61 41 43 48 46 56 63 62 57 43 42 49 48 45 44 51 50 42 49 51 44 61 60 64 65 43 45 50 48 63 67 66 62 42 40 53 61 7 4 5 6 49 60 52 47 35 29 28 34 43 63 56 41 13 12 14 15 48 46 57 62 38 39 33 32 44 42 61 65 9 7 6 8 51 64 60 49 36 30 29 35 45 67 63 43 11 10 12 13 50 48 62 66 37 38 32 31 45 44 51 50 67 65 64 66 45 44 65 67 11 9 8 10 50 66 64 51 37 31 30 36 67 65 64 66 68 70 71 69 61 60 64 65 72 73 71 70 63 67 66 62 74 68 69 75 65 67 10 8 70 68 19 18 64 30 31 66 71 24 25 69 61 65 8 6 72 70 18 17 60 29 30 64 73 23 24 71 63 12 10 67 74 20 19 68 62 66 31 32 75 69 25 26 68 70 71 69 19 18 24 25 70 71 24 18 72 73 23 17 68 19 25 69 74 20 26 75 61 60 73 72 53 52 54 55 63 74 75 62 56 58 59 57 6 61 72 17 5 53 55 16 29 23 73 60 28 22 54 52 12 20 74 63 14 21 58 56 32 62 75 26 33 57 59 27 72 73 23 17 55 54 22 16 74 20 26 75 58 21 27 59</DataArray><DataArray type="Int32" Name="offsets" format="ascii">8 16 24 32 40 48 56 64 72 80 88 96 104 112 120 128 136 144 152 160 168 176 184 192 200 208 216 224 232 240 248 256 264 272 280 288 296 304</DataArray><DataArray type="Int32" Name="types" format="ascii">12 12 12 12 12 12 12 12 12 12 12 12 12 12 12 12 12 12 12 12 12 12 12 12 12 12 12 12 12 12 12 12 12 12 12 12 12 12</DataArray></Cells></Piece></UnstructuredGrid></VTKFile>