<?xml version='1.0' encoding='utf-8'?>
<VTKFile type="UnstructuredGrid" version="0.1" byte_order="LittleEndian"><UnstructuredGrid><Piece NumberOfPoints="36" NumberOfCells="14"><Points><DataArray type="Float64" NumberOfComponents="3" format="ascii">-1 1 -1 1 1 -1 1 -1 -1 -1 -1 -1 -1 -1 1 -0.33333333333333331 -1 1 -0.33333333333333331 -0.33333333333333331 1 -1 -0.33333333333333331 1 -0.33333333333333331 0.33333333333333331 1 -1 0.33333333333333331 1 -0.33333333333333331 1 1 -1 1 1 0.33333333333333331 -1 1 0.33333333333333331 -0.33333333333333331 1 0.33333333333333331 0.33333333333333331 1 0.33333333333333331 1 1 1 -1 1 1 -0.33333333333333331 1 1 0.33333333333333331 1 1 1 1 -1 -1 0 -1 1 0 -1 -0.33333333333333331 0.5 -1 0.33333333333333331 0.5 1 1 0 1 -1 0 1 0.33333333333333331 0.5 1 -0.33333333333333331 0.5 0.33333333333333331 -1 0.5 -0.33333333333333331 -1 0.5 -0.33333333333333331 1 0.5 0.33333333333333331 1 0.5 -0.34502175125161322 -0.32809461575881982 0.97457449448727229 0.34502175125161322 -0.32809461575881982 0.97457449448727229 -0.34502175125161322 0.32809461575881982 0.97457449448727229 0.34502175125161322 0.32809461575881982 0.97457449448727229</DataArray></Points><Cells><DataArray type="Int32" Name="connectivity" format="ascii">0 3 2 1 21 20 25 24 21 20 25 24 30 29 28 31 21 20 29 30 23 22 32 34 24 31 28 25 26 35 33 27 30 29 28 31 34 32 33 35 29 28 33 32 5 12 13 6 30 34 35 31 10 8 14 15 34 32 33 35 8 6 13 14 34 32 6 8 23 22 7 9 35 14 13 33 26 18 17 27 20 29 32 22 4 5 6 7 25 27 33 28 16 17 13 12 21 23 34 30 11 9 8 10 24 31 35 26 19 15 14 18</DataArray><DataArray type="Int32" Name="offsets" format="ascii">8 16 24 32 40 48 56 64 72 80 88 96 104 112</DataArray><DataArray type="Int32" Name="types" format="ascii">12 12 12 12 12 12 12 12 12 12 12 12 12 12</DataArray></Cells></Piece></UnstructuredGrid></VTKFile>