MeshVersionFormatted 2
Dimension 3
Vertices
56
1 1 -0.58333333333333337 0
1 0 -0.58333333333333337 0
0 0 -0.58333333333333337 0
0 1 -0.58333333333333337 0
0 -1 -0.58333333333333337 0
1 -1 -0.58333333333333337 0
-1 0 -0.58333333333333337 0
-1 1 -0.58333333333333337 0
-1 -1 -0.58333333333333337 0
0 1 0.58333333333333337 0
-0.38475799166666663 0.38475799166666663 0.58333333333333337 0
0 0 0.58333333333333337 0
1 1 0.58333333333333337 0
1 0 0.58333333333333337 0
0.38475799166666663 -0.38475799166666663 0.58333333333333337 0
-1 0 0.58333333333333337 0
-1 -1 0.58333333333333337 0
0 -1 0.58333333333333337 0
-1 1 0.58333333333333337 0
1 -1 0.58333333333333337 0
0.3563756697730609 0.3563756697730609 -0.10827937252935713 0
-0.3563756697730609 -0.3563756697730609 -0.10827937252935713 0
0.13706300651551043 0.34981525094269589 -0.085098931173254205 0
0.34981525094269589 0.13706300651551043 -0.085098931173254205 0
-0.34981525094269589 -0.13706300651551043 -0.085098931173254205 0
-0.13706300651551043 -0.34981525094269589 -0.085098931173254205 0
0.01701625182523572 0.01701625182523572 -0.077654408869944916 0
-0.01701625182523572 -0.01701625182523572 -0.077654408869944916 0
0.33734507752849635 0.057336403776196448 0.21418767708431583 0
0.057336403776196448 0.33734507752849635 0.21418767708431583 0
-0.057336403776196448 -0.33734507752849635 0.21418767708431583 0
-0.33734507752849635 -0.057336403776196448 0.21418767708431583 0
0.18249817210268804 -0.045765323755947947 0.25772906097263898 0
-0.045765323755947947 0.18249817210268804 0.25772906097263898 0
0.045765323755947947 -0.18249817210268804 0.25772906097263898 0
-0.18249817210268804 0.045765323755947947 0.25772906097263898 0
0 0 0.021115073548689321 0
-0.052099897876739167 0.052099897876739167 0.26962747790561531 0
0.052099897876739167 -0.052099897876739167 0.26962747790561531 0
0 0 0.047362399444530481 0
-0.0015137264214628097 0.0015137264214628097 0.045871517513957814 0
0.0015137264214628097 -0.0015137264214628097 0.045871517513957814 0
-0.017358330827741131 0.017358330827741131 0.17300488522323321 0
0.017358330827741131 -0.017358330827741131 0.17300488522323321 0
0.093832866529642914 0.093832866529642914 0.31741622591474683 0
-0.0938328665296429 -0.0938328665296429 0.31741622591474683 0
0 0 0.28268272628071678 0
0.31069956656478637 0.31069956656478637 0.23367162758406185 0
-0.31069956656478631 -0.31069956656478631 0.23367162758406185 0
0.070191161523712742 0.070191161523712742 0.24405048108848248 0
-0.070191161523712742 -0.070191161523712742 0.24405048108848248 0
0 0 0.26789194852742459 0
0.12084762293042428 0.12084762293042428 0.22114841085621945 0
-0.12084762293042428 -0.12084762293042428 0.22114841085621947 0
0 0 0.1993326516562148 0
0 0 0.15888639609279648 0
Hexahedra
40
1 4 3 2 21 23 27 24 0
9 5 3 7 22 26 28 25 0
3 2 24 27 15 14 29 33 0
3 27 23 4 11 34 30 10 0
3 28 26 5 15 35 31 18 0
3 7 25 28 11 16 32 36 0
3 27 34 11 28 37 38 36 0
3 15 33 27 28 35 39 37 0
3 2 14 15 5 6 20 18 0
3 11 10 4 7 16 19 8 0
21 23 27 24 40 41 37 42 0
22 26 28 25 40 42 37 41 0
23 27 37 41 30 34 38 43 0
24 42 37 27 29 44 39 33 0
25 41 37 28 32 43 38 36 0
26 28 37 42 31 35 39 44 0
34 11 36 38 45 12 46 47 0
33 39 35 15 45 47 46 12 0
11 34 30 10 12 45 48 13 0
15 14 29 33 12 13 48 45 0
11 16 32 36 12 17 49 46 0
15 35 31 18 12 46 49 17 0
33 39 47 45 50 52 38 34 0
35 46 47 39 51 36 38 52 0
45 33 50 34 48 29 53 30 0
46 36 51 35 49 32 54 31 0
29 44 39 33 53 55 52 50 0
30 34 38 43 53 50 52 55 0
31 35 39 44 54 51 52 55 0
32 43 38 36 54 55 52 51 0
41 23 30 43 40 21 48 56 0
42 44 29 24 40 56 48 21 0
41 43 32 25 40 56 49 22 0
42 26 31 44 40 22 49 56 0
44 29 48 56 55 53 30 43 0
44 56 49 31 55 43 32 54 0
23 30 48 21 4 10 13 1 0
24 21 48 29 2 1 13 14 0
25 22 49 32 7 9 17 16 0
26 31 49 22 5 18 17 9 0
Quadrilaterals
18
1 2 3 4 0
5 3 2 6 0
3 7 8 4 0
5 9 7 3 0
10 11 12 13 0
14 13 12 15 0
11 16 17 12 0
15 12 17 18 0
10 19 16 11 0
18 20 14 15 0
6 2 14 20 0
14 2 1 13 0
1 4 10 13 0
10 4 8 19 0
8 7 16 19 0
16 7 9 17 0
9 5 18 17 0
18 5 6 20 0
End
