MeshVersionFormatted 2
Dimension 3
Vertices
50
1 1 -0.58333333333333337 0
1 0 -0.58333333333333337 0
0 0 -0.58333333333333337 0
0 1 -0.58333333333333337 0
0 -1 -0.58333333333333337 0
1 -1 -0.58333333333333337 0
-1 0 -0.58333333333333337 0
-1 1 -0.58333333333333337 0
-1 -1 -0.58333333333333337 0
0 1 0.58333333333333337 0
-0.38475799166666663 0.38475799166666663 0.58333333333333337 0
0 0 0.58333333333333337 0
1 1 0.58333333333333337 0
1 0 0.58333333333333337 0
0.38475799166666663 -0.38475799166666663 0.58333333333333337 0
-1 0 0.58333333333333337 0
-1 -1 0.58333333333333337 0
0 -1 0.58333333333333337 0
-1 1 0.58333333333333337 0
1 -1 0.58333333333333337 0
0.35911456049342189 0.35911456049342189 -0.067542738675011732 0
-0.35911456049342189 -0.35911456049342189 -0.067542738675011732 0
0.22600726544455724 0.3130030906743187 -0.0667078124361868 0
0.3130030906743187 0.22600726544455724 -0.0667078124361868 0
-0.3130030906743187 -0.22600726544455724 -0.0667078124361868 0
-0.22600726544455724 -0.3130030906743187 -0.0667078124361868 0
0.11314448626283494 0.11314448626283494 -0.19362157417116455 0
-0.11314448626283494 -0.11314448626283494 -0.19362157417116455 0
0.33438321015726585 0.086975819156749887 0.19696212386604434 0
0.086975819156749887 0.33438321015726585 0.19696212386604434 0
-0.086975819156749887 -0.33438321015726585 0.19696212386604434 0
-0.33438321015726585 -0.086975819156749887 0.19696212386604434 0
0.30245260631829962 0.043041709390745739 0.20917481026778018 0
0.043041709390745739 0.30245260631829962 0.20917481026778018 0
-0.043041709390745739 -0.30245260631829962 0.20917481026778018 0
-0.30245260631829962 -0.043041709390745739 0.20917481026778018 0
0 0 0.081677635328877216 0
-0.084705418221799444 0.084705418221799444 0.19827165087514523 0
0.084705418221799444 -0.084705418221799444 0.19827165087514523 0
0 0 0.10708190490824254 0
-0.0044363199677040005 0.0044363199677040005 0.10506762385020589 0
0.0044363199677040005 -0.0044363199677040005 0.10506762385020589 0
-0.049859488459544479 0.049859488459544479 0.18478801383354507 0
0.049859488459544479 -0.049859488459544479 0.18478801383354507 0
0.10196182546219186 0.10196182546219186 0.33110212374731235 0
-0.10196182546219186 -0.10196182546219186 0.33110212374731235 0
0 0 0.25828454522036237 0
0.3271488997479548 0.3271488997479548 0.22350516925906441 0
-0.3271488997479548 -0.3271488997479548 0.22350516925906441 0
0 0 0.21073958856957989 0
Hexahedra
34
1 4 3 2 21 23 27 24 0
9 5 3 7 22 26 28 25 0
3 2 24 27 15 14 29 33 0
3 27 23 4 11 34 30 10 0
3 28 26 5 15 35 31 18 0
3 7 25 28 11 16 32 36 0
3 27 34 11 28 37 38 36 0
3 15 33 27 28 35 39 37 0
3 2 14 15 5 6 20 18 0
3 11 10 4 7 16 19 8 0
21 23 27 24 40 41 37 42 0
22 26 28 25 40 42 37 41 0
23 27 37 41 30 34 38 43 0
24 42 37 27 29 44 39 33 0
25 41 37 28 32 43 38 36 0
26 28 37 42 31 35 39 44 0
34 11 36 38 45 12 46 47 0
33 39 35 15 45 47 46 12 0
11 34 30 10 12 45 48 13 0
15 14 29 33 12 13 48 45 0
11 16 32 36 12 17 49 46 0
15 35 31 18 12 46 49 17 0
33 39 47 45 29 44 50 48 0
34 45 47 38 30 48 50 43 0
35 46 47 39 31 49 50 44 0
36 38 47 46 32 43 50 49 0
41 23 30 43 40 21 48 50 0
42 44 29 24 40 50 48 21 0
41 43 32 25 40 50 49 22 0
42 26 31 44 40 22 49 50 0
23 30 48 21 4 10 13 1 0
24 21 48 29 2 1 13 14 0
25 22 49 32 7 9 17 16 0
26 31 49 22 5 18 17 9 0
Quadrilaterals
18
1 2 3 4 0
5 3 2 6 0
3 7 8 4 0
5 9 7 3 0
10 11 12 13 0
14 13 12 15 0
11 16 17 12 0
15 12 17 18 0
10 19 16 11 0
18 20 14 15 0
6 2 14 20 0
14 2 1 13 0
1 4 10 13 0
10 4 8 19 0
8 7 16 19 0
16 7 9 17 0
9 5 18 17 0
18 5 6 20 0
End
