MeshVersionFormatted 2
Dimension 3
Vertices
60
1 1 -0.58333333333333337 0
1 0 -0.58333333333333337 0
0 0 -0.58333333333333337 0
0 1 -0.58333333333333337 0
0 -1 -0.58333333333333337 0
1 -1 -0.58333333333333337 0
-1 0 -0.58333333333333337 0
-1 1 -0.58333333333333337 0
-1 -1 -0.58333333333333337 0
0 1 0.58333333333333337 0
-0.38475799166666663 0.38475799166666663 0.58333333333333337 0
0 0 0.58333333333333337 0
1 1 0.58333333333333337 0
1 0 0.58333333333333337 0
0.38475799166666663 -0.38475799166666663 0.58333333333333337 0
-1 0 0.58333333333333337 0
-1 -1 0.58333333333333337 0
0 -1 0.58333333333333337 0
-1 1 0.58333333333333337 0
1 -1 0.58333333333333337 0
0.23494982973883569 0.23494982973883569 0.019829751408542172 0
-0.23494982973883569 -0.23494982973883569 0.019829751408542172 0
0.10679615321183203 0.14989555057356679 -0.015356266747600671 0
0.14989555057356679 0.10679615321183203 -0.015356266747600671 0
-0.14989555057356679 -0.10679615321183203 -0.015356266747600671 0
-0.10679615321183203 -0.14989555057356679 -0.015356266747600671 0
0.02122364186066367 0.02122364186066367 -0.096583994467008619 0
-0.02122364186066367 -0.02122364186066367 -0.096583994467008619 0
0.22093351204503664 0.034646937668192629 0.1667271699809007 0
0.034646937668192629 0.22093351204503664 0.1667271699809007 0
-0.034646937668192629 -0.22093351204503664 0.1667271699809007 0
-0.22093351204503664 -0.034646937668192629 0.1667271699809007 0
0.17968899662477267 -0.082909254356426695 0.24244481329482148 0
-0.082909254356426695 0.17968899662477267 0.24244481329482148 0
0.082909254356426695 -0.17968899662477267 0.24244481329482148 0
-0.17968899662477267 0.082909254356426695 0.24244481329482148 0
0 0 -0.08871188780409045 0
-0.10024032294650118 0.10024032294650118 0.17315565760526136 0
0.10024032294650118 -0.10024032294650118 0.17315565760526136 0
0 0 -0.012487021238153696 0
-0.019209504446197689 0.019209504446197689 -0.031176497540910886 0
0.019209504446197689 -0.019209504446197689 -0.031176497540910886 0
-0.099240740914939868 0.099240740914939868 0.17280833106766993 0
0.099240740914939868 -0.099240740914939868 0.17280833106766993 0
0.069558630507323485 0.069558630507323485 0.3118843963739335 0
-0.069558630507323499 -0.069558630507323499 0.3118843963739335 0
0 0 0.24409454335139188 0
0.23632349053646456 0.23632349053646456 0.1951676518267382 0
-0.23632349053646456 -0.23632349053646456 0.1951676518267382 0
0 0 0.21122709274732174 0
-0.01627577598620818 0.01627577598620818 0.020180126043500782 0
0.01627577598620818 -0.01627577598620818 0.020180126043500782 0
-0.014281648574730963 0.014281648574730963 0.12222393209157982 0
0.014281648574730963 -0.014281648574730963 0.12222393209157982 0
0.066264170512588705 0.066264170512588705 0.15072010679505701 0
-0.066264170512588705 -0.066264170512588705 0.15072010679505701 0
0 0 0.15345565999867808 0
0 0 0.12593747677250297 0
0 0 0.11542092652141156 0
0 0 0.075160599313089604 0
Hexahedra
44
1 4 3 2 21 23 27 24 0
9 5 3 7 22 26 28 25 0
3 2 24 27 15 14 29 33 0
3 27 23 4 11 34 30 10 0
3 28 26 5 15 35 31 18 0
3 7 25 28 11 16 32 36 0
3 27 34 11 28 37 38 36 0
3 15 33 27 28 35 39 37 0
3 2 14 15 5 6 20 18 0
3 11 10 4 7 16 19 8 0
21 23 27 24 40 41 37 42 0
22 26 28 25 40 42 37 41 0
23 27 37 41 30 34 38 43 0
24 42 37 27 29 44 39 33 0
25 41 37 28 32 43 38 36 0
26 28 37 42 31 35 39 44 0
34 11 36 38 45 12 46 47 0
33 39 35 15 45 47 46 12 0
11 34 30 10 12 45 48 13 0
15 14 29 33 12 13 48 45 0
11 16 32 36 12 17 49 46 0
15 35 31 18 12 46 49 17 0
33 39 47 45 29 44 50 48 0
34 45 47 38 30 48 50 43 0
35 46 47 39 31 49 50 44 0
36 38 47 46 32 43 50 49 0
41 23 30 43 25 51 53 32 0
42 44 29 24 26 31 54 52 0
29 44 50 48 55 57 43 30 0
31 49 50 44 56 32 43 57 0
44 29 54 31 57 55 58 56 0
43 32 53 30 57 56 58 55 0
48 29 55 30 59 54 58 53 0
49 32 56 31 59 53 58 54 0
48 29 54 59 21 24 52 60 0
48 59 53 30 21 60 51 23 0
49 59 54 31 22 60 52 26 0
49 32 53 59 22 25 51 60 0
30 48 21 23 10 13 1 4 0
29 24 21 48 14 2 1 13 0
32 25 22 49 16 7 9 17 0
31 49 22 26 18 17 9 5 0
41 23 51 25 40 21 60 22 0
42 26 52 24 40 22 60 21 0
Quadrilaterals
18
1 2 3 4 0
5 3 2 6 0
3 7 8 4 0
5 9 7 3 0
10 11 12 13 0
14 13 12 15 0
11 16 17 12 0
15 12 17 18 0
10 19 16 11 0
18 20 14 15 0
6 2 14 20 0
14 2 1 13 0
1 4 10 13 0
10 4 8 19 0
8 7 16 19 0
16 7 9 17 0
9 5 18 17 0
18 5 6 20 0
End
