MeshVersionFormatted 2
Dimension 3
Vertices
62
1 1 -0.58333333333333337 0
1 0 -0.58333333333333337 0
0 0 -0.58333333333333337 0
0 1 -0.58333333333333337 0
0 -1 -0.58333333333333337 0
1 -1 -0.58333333333333337 0
-1 0 -0.58333333333333337 0
-1 1 -0.58333333333333337 0
-1 -1 -0.58333333333333337 0
0 1 0.58333333333333337 0
-0.38475799166666663 0.38475799166666663 0.58333333333333337 0
0 0 0.58333333333333337 0
1 1 0.58333333333333337 0
1 0 0.58333333333333337 0
0.38475799166666663 -0.38475799166666663 0.58333333333333337 0
-1 0 0.58333333333333337 0
-1 -1 0.58333333333333337 0
0 -1 0.58333333333333337 0
-1 1 0.58333333333333337 0
1 -1 0.58333333333333337 0
0.35958817684621419 0.35958817684621419 -0.083764863711395993 0
-0.35958817684621419 -0.35958817684621419 -0.083764863711395993 0
0.1637483905968273 0.34804350454707111 -0.05784280719482781 0
0.34804350454707111 0.1637483905968273 -0.05784280719482781 0
-0.34804350454707111 -0.1637483905968273 -0.05784280719482781 0
-0.1637483905968273 -0.34804350454707111 -0.05784280719482781 0
0.076525656826460342 0.076525656826460342 -0.15048301679638026 0
-0.076525656826460342 -0.076525656826460342 -0.15048301679638026 0
0.39360858388967085 0.025055486602030639 0.23575371757465866 0
0.025055486602030639 0.39360858388967085 0.23575371757465866 0
-0.025055486602030639 -0.39360858388967085 0.23575371757465866 0
-0.39360858388967085 -0.025055486602030639 0.23575371757465866 0
0.34478785816269725 -0.029145957713735009 0.26911797922020619 0
-0.029145957713735009 0.34478785816269725 0.26911797922020619 0
0.029145957713735009 -0.34478785816269725 0.26911797922020619 0
-0.34478785816269725 0.029145957713735009 0.26911797922020619 0
0 0 0.10385376066627831 0
-0.086686576574579968 0.086686576574579968 0.21397946836733275 0
0.086686576574579968 -0.086686576574579968 0.21397946836733275 0
0 0 0.11278028968539955 0
-0.0016574301572722656 0.0016574301572722656 0.1108259297783266 0
0.0016574301572722656 -0.0016574301572722656 0.1108259297783266 0
-0.054879211627281453 0.054879211627281453 0.19993066001363582 0
0.054879211627281453 -0.054879211627281453 0.19993066001363582 0
-0.038971176404420382 0.16554208760222672 0.33445517495115668 0
0.16554208760222672 -0.038971176404420382 0.33445517495115668 0
-0.16554208760222672 0.038971176404420382 0.33445517495115668 0
0.038971176404420382 -0.16554208760222672 0.33445517495115668 0
-0.21865526290810722 0.21865526290810722 0.47551240337298634 0
0.21865526290810722 -0.21865526290810722 0.47551240337298634 0
-0.0541272363045971 0.054127236304597107 0.31833865479097351 0
0.054127236304597107 -0.0541272363045971 0.31833865479097351 0
0.08086072715516901 0.08086072715516901 0.34455715214059274 0
-0.08086072715516901 -0.08086072715516901 0.34455715214059279 0
0.31471683632569275 0.31471683632569275 0.25362799863016527 0
-0.31471683632569275 -0.31471683632569275 0.25362799863016527 0
0.026388586368202859 0.026388586368202859 0.36196054566489966 0
-0.026388586368202863 -0.026388586368202863 0.36196054566489966 0
0 0 0.50397091327304244 0
0 0 0.1980430089806226 0
0 0 0.28382757537055081 0
0 0 0.32865460244725797 0
Hexahedra
44
1 4 3 2 21 23 27 24 0
9 5 3 7 22 26 28 25 0
3 2 24 27 15 14 29 33 0
3 27 23 4 11 34 30 10 0
3 28 26 5 15 35 31 18 0
3 7 25 28 11 16 32 36 0
3 27 34 11 28 37 38 36 0
3 15 33 27 28 35 39 37 0
3 2 14 15 5 6 20 18 0
3 11 10 4 7 16 19 8 0
21 23 27 24 40 41 37 42 0
22 26 28 25 40 42 37 41 0
23 27 37 41 30 34 38 43 0
24 42 37 27 29 44 39 33 0
25 41 37 28 32 43 38 36 0
26 28 37 42 31 35 39 44 0
34 11 36 38 45 49 47 51 0
33 39 35 15 46 52 48 50 0
11 34 30 10 12 53 55 13 0
15 14 29 33 12 13 55 53 0
11 16 32 36 12 17 56 54 0
15 35 31 18 12 54 56 17 0
11 34 53 12 49 45 57 59 0
15 12 53 33 50 59 57 46 0
11 12 54 36 49 59 58 47 0
15 35 54 12 50 48 58 59 0
29 44 39 33 55 60 61 53 0
30 34 38 43 55 53 61 60 0
31 35 39 44 56 54 61 60 0
32 43 38 36 56 60 61 54 0
39 33 53 61 52 46 57 62 0
38 61 53 34 51 62 57 45 0
39 61 54 35 52 62 58 48 0
38 36 54 61 51 47 58 62 0
41 23 30 43 40 21 55 60 0
42 44 29 24 40 60 55 21 0
41 43 32 25 40 60 56 22 0
42 26 31 44 40 22 56 60 0
23 30 55 21 4 10 13 1 0
24 21 55 29 2 1 13 14 0
25 22 56 32 7 9 17 16 0
26 31 56 22 5 18 17 9 0
49 45 57 59 47 51 62 58 0
50 59 57 46 48 58 62 52 0
Quadrilaterals
18
1 2 3 4 0
5 3 2 6 0
3 7 8 4 0
5 9 7 3 0
10 11 12 13 0
14 13 12 15 0
11 16 17 12 0
15 12 17 18 0
10 19 16 11 0
18 20 14 15 0
6 2 14 20 0
14 2 1 13 0
1 4 10 13 0
10 4 8 19 0
8 7 16 19 0
16 7 9 17 0
9 5 18 17 0
18 5 6 20 0
End
