MeshVersionFormatted 2
Dimension 3
Vertices
56
1 1 -0.58333333333333337 0
1 0 -0.58333333333333337 0
0 0 -0.58333333333333337 0
0 1 -0.58333333333333337 0
0 -1 -0.58333333333333337 0
1 -1 -0.58333333333333337 0
-1 0 -0.58333333333333337 0
-1 1 -0.58333333333333337 0
-1 -1 -0.58333333333333337 0
0 1 0.58333333333333337 0
-0.38475799166666663 0.38475799166666663 0.58333333333333337 0
0 0 0.58333333333333337 0
1 1 0.58333333333333337 0
1 0 0.58333333333333337 0
0.38475799166666663 -0.38475799166666663 0.58333333333333337 0
-1 0 0.58333333333333337 0
-1 -1 0.58333333333333337 0
0 -1 0.58333333333333337 0
-1 1 0.58333333333333337 0
1 -1 0.58333333333333337 0
0.25064272159101675 0.25064272159101675 0.011241815060536212 0
-0.25064272159101675 -0.25064272159101675 0.011241815060536212 0
0.19103101246826759 0.32802847395384616 -0.063639080612741761 0
0.32802847395384616 0.19103101246826759 -0.063639080612741761 0
-0.32802847395384616 -0.19103101246826759 -0.063639080612741761 0
-0.19103101246826759 -0.32802847395384616 -0.063639080612741761 0
0.00061304415572178939 0.00061304415572178939 -0.57913170285958604 0
-0.00061304415572178939 -0.00061304415572178939 -0.57913170285958604 0
0.30847974921625843 0.018908899369980223 0.14576753755566008 0
0.018908899369980223 0.30847974921625843 0.14576753755566008 0
-0.018908899369980223 -0.30847974921625843 0.14576753755566008 0
-0.30847974921625843 -0.018908899369980223 0.14576753755566008 0
0.28707278919911733 -0.1064856984820258 0.2296221498582656 0
-0.1064856984820258 0.28707278919911733 0.2296221498582656 0
0.1064856984820258 -0.28707278919911733 0.2296221498582656 0
-0.28707278919911733 0.1064856984820258 0.2296221498582656 0
0 0 -0.57893027420526566 0
-0.17479932337848134 0.17479932337848134 0.16591544664356911 0
0.17479932337848134 -0.17479932337848134 0.16591544664356911 0
0 0 -0.017777644032765331 0
-0.067468125241720286 0.067468125241720286 -0.11492543630744917 0
0.067468125241720286 -0.067468125241720286 -0.11492543630744917 0
-0.15906297480195625 0.15906297480195625 0.15600694236627907 0
0.15906297480195625 -0.15906297480195625 0.15600694236627907 0
0.07199209633309947 0.07199209633309947 0.31166224931775566 0
-0.07199209633309947 -0.07199209633309947 0.31166224931775566 0
0 0 0.23581773330432157 0
0.23570933887493487 0.23570933887493487 0.16589973876938013 0
-0.23570933887493487 -0.23570933887493487 0.16589973876938013 0
0 0 0.18750153344048928 0
-0.036674741147106511 0.036674741147106511 0.013237685980011739 0
0.036674741147106511 -0.036674741147106511 0.013237685980011739 0
-0.044489744869918031 0.044489744869918031 0.13828815906844213 0
0.044489744869918031 -0.044489744869918031 0.13828815906844213 0
0 0 0.14335611203925569 0
0 0 0.039339551458911493 0
Hexahedra
40
1 4 3 2 21 23 27 24 0
9 5 3 7 22 26 28 25 0
3 2 24 27 15 14 29 33 0
3 27 23 4 11 34 30 10 0
3 28 26 5 15 35 31 18 0
3 7 25 28 11 16 32 36 0
3 27 34 11 28 37 38 36 0
3 15 33 27 28 35 39 37 0
3 2 14 15 5 6 20 18 0
3 11 10 4 7 16 19 8 0
21 23 27 24 40 41 37 42 0
22 26 28 25 40 42 37 41 0
23 27 37 41 30 34 38 43 0
24 42 37 27 29 44 39 33 0
25 41 37 28 32 43 38 36 0
26 28 37 42 31 35 39 44 0
34 11 36 38 45 12 46 47 0
33 39 35 15 45 47 46 12 0
11 34 30 10 12 45 48 13 0
15 14 29 33 12 13 48 45 0
11 16 32 36 12 17 49 46 0
15 35 31 18 12 46 49 17 0
33 39 47 45 29 44 50 48 0
34 45 47 38 30 48 50 43 0
35 46 47 39 31 49 50 44 0
36 38 47 46 32 43 50 49 0
41 23 30 43 25 51 53 32 0
42 44 29 24 26 31 54 52 0
29 44 50 48 54 31 49 55 0
30 48 50 43 53 55 49 32 0
2 24 29 14 1 21 48 13 0
4 10 30 23 1 13 48 21 0
5 18 31 26 9 17 49 22 0
7 25 32 16 9 22 49 17 0
30 23 21 48 53 51 56 55 0
29 48 21 24 54 55 56 52 0
32 49 22 25 53 55 56 51 0
31 26 22 49 54 52 56 55 0
41 23 51 25 40 21 56 22 0
42 26 52 24 40 22 56 21 0
Quadrilaterals
18
1 2 3 4 0
5 3 2 6 0
3 7 8 4 0
5 9 7 3 0
10 11 12 13 0
14 13 12 15 0
11 16 17 12 0
15 12 17 18 0
10 19 16 11 0
18 20 14 15 0
6 2 14 20 0
14 2 1 13 0
1 4 10 13 0
10 4 8 19 0
8 7 16 19 0
16 7 9 17 0
9 5 18 17 0
18 5 6 20 0
End
