MeshVersionFormatted 2
Dimension 3
Vertices
62
1 1 -0.58333333333333337 0
1 0 -0.58333333333333337 0
0 0 -0.58333333333333337 0
0 1 -0.58333333333333337 0
0 -1 -0.58333333333333337 0
1 -1 -0.58333333333333337 0
-1 0 -0.58333333333333337 0
-1 1 -0.58333333333333337 0
-1 -1 -0.58333333333333337 0
0 1 0.58333333333333337 0
-0.38475799166666663 0.38475799166666663 0.58333333333333337 0
0 0 0.58333333333333337 0
1 1 0.58333333333333337 0
1 0 0.58333333333333337 0
0.38475799166666663 -0.38475799166666663 0.58333333333333337 0
-1 0 0.58333333333333337 0
-1 -1 0.58333333333333337 0
0 -1 0.58333333333333337 0
-1 1 0.58333333333333337 0
1 -1 0.58333333333333337 0
0.28107848228749416 0.28107848228749416 -0.072856710035324637 0
-0.28107848228749416 -0.28107848228749416 -0.072856710035324637 0
0.16853634505980084 0.23670496308780725 -0.16896323643023403 0
0.23670496308780725 0.16853634505980084 -0.16896323643023403 0
-0.23670496308780725 -0.16853634505980084 -0.16896323643023403 0
-0.16853634505980084 -0.23670496308780725 -0.16896323643023403 0
0.069206586680440774 0.069206586680440774 -0.27627444050782518 0
-0.069206586680440774 -0.069206586680440774 -0.27627444050782518 0
0.38964212133924014 0.05931004358919368 0.20465240170137081 0
0.05931004358919368 0.38964212133924014 0.20465240170137081 0
-0.05931004358919368 -0.38964212133924014 0.20465240170137081 0
-0.38964212133924014 -0.05931004358919368 0.20465240170137081 0
0.31175694545837768 -0.068125405257457763 0.26375941924799279 0
-0.068125405257457763 0.31175694545837768 0.26375941924799279 0
0.068125405257457763 -0.31175694545837768 0.26375941924799279 0
-0.31175694545837768 0.068125405257457763 0.26375941924799279 0
0 0 -0.2200096460204112 0
-0.14411325069450376 0.14411325069450376 0.20952574173653454 0
0.14411325069450376 -0.14411325069450376 0.20952574173653454 0
0.14160561569134286 0.14160561569134286 -0.15319526658821811 0
-0.14160561569134286 -0.14160561569134286 -0.15319526658821811 0
0.12799685155464177 0.14919628927787176 -0.16427300086495417 0
0.14919628927787176 0.12799685155464177 -0.16427300086495417 0
-0.14919628927787176 -0.12799685155464177 -0.16427300086495417 0
-0.12799685155464177 -0.14919628927787176 -0.16427300086495417 0
0.091363598808303928 0.091363598808303928 -0.1845013363725421 0
-0.091363598808303928 -0.091363598808303928 -0.1845013363725421 0
-0.031429607755985321 0.031429607755985321 -0.022723720445755383 0
0.031429607755985321 -0.031429607755985321 -0.022723720445755383 0
-0.1065693875698195 0.1065693875698195 0.20476157923397656 0
0.1065693875698195 -0.1065693875698195 0.20476157923397656 0
-0.02890135452830608 0.02890135452830608 -0.020698873730909569 0
0.02890135452830608 -0.02890135452830608 -0.020698873730909569 0
0 0 -0.062246260226083497 0
0.099794930043459559 0.099794930043459559 0.31832993665322618 0
-0.099794930043459559 -0.099794930043459559 0.31832993665322618 0
0 0 0.25068525005699444 0
0.33517609530612991 0.33517609530612991 0.24780176544767879 0
-0.33517609530612991 -0.33517609530612991 0.24780176544767879 0
0 0 0.23538894310538064 0
0 0 0.10065153542523338 0
0 0 0.094228921390781886 0
Hexahedra
44
1 4 3 2 21 23 27 24 0
9 5 3 7 22 26 28 25 0
3 2 24 27 15 14 29 33 0
3 27 23 4 11 34 30 10 0
3 28 26 5 15 35 31 18 0
3 7 25 28 11 16 32 36 0
3 27 34 11 28 37 38 36 0
3 15 33 27 28 35 39 37 0
3 2 14 15 5 6 20 18 0
3 11 10 4 7 16 19 8 0
21 23 27 24 40 42 46 43 0
22 26 28 25 41 45 47 44 0
27 23 30 34 37 48 50 38 0
27 33 29 24 37 39 51 49 0
28 36 32 25 37 38 50 48 0
28 26 31 35 37 49 51 39 0
27 23 48 37 46 42 52 54 0
27 37 49 24 46 54 53 43 0
28 37 48 25 47 54 52 44 0
28 26 49 37 47 45 53 54 0
34 11 36 38 55 12 56 57 0
33 39 35 15 55 57 56 12 0
11 34 30 10 12 55 58 13 0
15 14 29 33 12 13 58 55 0
11 16 32 36 12 17 59 56 0
15 35 31 18 12 56 59 17 0
33 39 57 55 29 51 60 58 0
34 55 57 38 30 58 60 50 0
35 56 57 39 31 59 60 51 0
36 38 57 56 32 50 60 59 0
23 30 50 48 21 58 60 61 0
24 49 51 29 21 61 60 58 0
25 48 50 32 22 61 60 59 0
26 31 51 49 22 59 60 61 0
23 30 58 21 4 10 13 1 0
24 21 58 29 2 1 13 14 0
25 22 59 32 7 9 17 16 0
26 31 59 22 5 18 17 9 0
48 23 21 61 52 42 40 62 0
49 61 21 24 53 62 40 43 0
48 61 22 25 52 62 41 44 0
49 26 22 61 53 45 41 62 0
52 42 40 62 54 46 43 53 0
52 62 41 44 54 53 45 47 0
Quadrilaterals
18
1 2 3 4 0
5 3 2 6 0
3 7 8 4 0
5 9 7 3 0
10 11 12 13 0
14 13 12 15 0
11 16 17 12 0
15 12 17 18 0
10 19 16 11 0
18 20 14 15 0
6 2 14 20 0
14 2 1 13 0
1 4 10 13 0
10 4 8 19 0
8 7 16 19 0
16 7 9 17 0
9 5 18 17 0
18 5 6 20 0
End
