MeshVersionFormatted 2
Dimension 3
Vertices
62
1 1 -0.58333333333333337 0
1 0 -0.58333333333333337 0
0 0 -0.58333333333333337 0
0 1 -0.58333333333333337 0
0 -1 -0.58333333333333337 0
1 -1 -0.58333333333333337 0
-1 0 -0.58333333333333337 0
-1 1 -0.58333333333333337 0
-1 -1 -0.58333333333333337 0
0 1 0.58333333333333337 0
-0.38475799166666663 0.38475799166666663 0.58333333333333337 0
0 0 0.58333333333333337 0
1 1 0.58333333333333337 0
1 0 0.58333333333333337 0
0.38475799166666663 -0.38475799166666663 0.58333333333333337 0
-1 0 0.58333333333333337 0
-1 -1 0.58333333333333337 0
0 -1 0.58333333333333337 0
-1 1 0.58333333333333337 0
1 -1 0.58333333333333337 0
0.37202953487774448 0.37202953487774448 -0.1864360973681092 0
-0.37202953487774448 -0.37202953487774448 -0.1864360973681092 0
0.29392797675278709 0.39230114078700923 -0.23004852273437196 0
0.39230114078700923 0.29392797675278709 -0.23004852273437196 0
-0.39230114078700923 -0.29392797675278709 -0.23004852273437196 0
-0.29392797675278709 -0.39230114078700923 -0.23004852273437196 0
0.12094994931262619 0.12094994931262619 -0.3470096307947631 0
-0.12094994931262619 -0.12094994931262619 -0.3470096307947631 0
0.59082358889016506 0.19488375168686517 0.34102044754604122 0
0.19488375168686517 0.59082358889016506 0.34102044754604122 0
-0.19488375168686517 -0.59082358889016506 0.34102044754604122 0
-0.59082358889016506 -0.19488375168686517 0.34102044754604122 0
0.42929310491663308 0.039499507447438673 0.40027142718476211 0
0.039499507447438673 0.42929310491663308 0.40027142718476211 0
-0.039499507447438673 -0.42929310491663308 0.40027142718476211 0
-0.42929310491663308 -0.039499507447438673 0.40027142718476211 0
0 0 -0.54133881685717167 0
0.11975317746692986 0.11975317746692986 -0.34697146488062891 0
-0.11975317746692986 -0.11975317746692986 -0.34697146488062891 0
-0.037845490175577902 0.29319131117104663 0.28764291148752985 0
0.29319131117104663 -0.037845490175577902 0.28764291148752985 0
-0.29319131117104663 0.037845490175577902 0.28764291148752985 0
0.037845490175577902 -0.29319131117104663 0.28764291148752985 0
-0.22292250860299867 0.22292250860299867 0.33745515555848915 0
0.22292250860299867 -0.22292250860299867 0.33745515555848915 0
0 0 0.19379313632845044 0
-0.0014929016324728233 0.0014929016324728233 0.18864924995168753 0
0.0014929016324728233 -0.0014929016324728233 0.18864924995168753 0
0 0 0.18492364650820023 0
-0.013957166797397115 0.013957166797397115 0.17848406913293011 0
0.013957166797397115 -0.013957166797397115 0.17848406913293011 0
-0.007950489494076533 0.007950489494076533 0.18641953037414599 0
0.007950489494076533 -0.007950489494076533 0.18641953037414599 0
0 0 -0.0064723500489629144 0
0.055128398993684186 -0.055128398993684186 0.12944136680863585 0
-0.055128398993684186 0.055128398993684186 0.12944136680863585 0
0.2573423157809604 0.2573423157809604 0.40517703660175403 0
-0.2573423157809604 -0.2573423157809604 0.40517703660175403 0
0.46775962498854229 0.46775962498854229 0.33671790609690266 0
-0.46775962498854229 -0.46775962498854229 0.33671790609690266 0
0 0 0.23559250806866283 0
0 0 0.23482392856959544 0
Hexahedra
44
1 4 3 2 21 23 27 24 0
9 5 3 7 22 26 28 25 0
3 2 24 27 15 14 29 33 0
3 27 23 4 11 34 30 10 0
3 28 26 5 15 35 31 18 0
3 7 25 28 11 16 32 36 0
3 27 34 11 37 38 40 44 0
3 15 33 27 37 45 41 38 0
3 11 36 28 37 44 42 39 0
3 28 35 15 37 39 43 45 0
3 2 14 15 5 6 20 18 0
3 11 10 4 7 16 19 8 0
21 23 27 24 46 47 49 48 0
22 26 28 25 46 48 49 47 0
23 27 49 47 30 34 50 52 0
24 48 49 27 29 53 51 33 0
25 47 49 28 32 52 50 36 0
26 28 49 48 31 35 51 53 0
49 27 33 51 54 38 41 55 0
49 50 34 27 54 56 40 38 0
49 51 35 28 54 55 43 39 0
49 28 36 50 54 39 42 56 0
11 34 30 10 12 57 59 13 0
15 14 29 33 12 13 59 57 0
11 16 32 36 12 17 60 58 0
15 35 31 18 12 58 60 17 0
11 34 57 12 36 50 61 58 0
15 12 57 33 35 58 61 51 0
11 34 50 36 44 40 56 42 0
15 35 51 33 45 43 55 41 0
57 33 51 61 59 29 53 62 0
57 61 50 34 59 62 52 30 0
58 61 51 35 60 62 53 31 0
58 36 50 61 60 32 52 62 0
47 23 30 52 46 21 59 62 0
48 53 29 24 46 62 59 21 0
47 52 32 25 46 62 60 22 0
48 26 31 53 46 22 60 62 0
23 30 59 21 4 10 13 1 0
24 21 59 29 2 1 13 14 0
25 22 60 32 7 9 17 16 0
26 31 60 22 5 18 17 9 0
37 38 40 44 39 54 56 42 0
37 45 41 38 39 43 55 54 0
Quadrilaterals
18
1 2 3 4 0
5 3 2 6 0
3 7 8 4 0
5 9 7 3 0
10 11 12 13 0
14 13 12 15 0
11 16 17 12 0
15 12 17 18 0
10 19 16 11 0
18 20 14 15 0
6 2 14 20 0
14 2 1 13 0
1 4 10 13 0
10 4 8 19 0
8 7 16 19 0
16 7 9 17 0
9 5 18 17 0
18 5 6 20 0
End
