MeshVersionFormatted 2
Dimension 3
Vertices
65
1 1 -0.58333333333333337 0
1 0 -0.58333333333333337 0
0 0 -0.58333333333333337 0
0 1 -0.58333333333333337 0
0 -1 -0.58333333333333337 0
1 -1 -0.58333333333333337 0
-1 0 -0.58333333333333337 0
-1 1 -0.58333333333333337 0
-1 -1 -0.58333333333333337 0
0 1 0.58333333333333337 0
-0.38475799166666663 0.38475799166666663 0.58333333333333337 0
0 0 0.58333333333333337 0
1 1 0.58333333333333337 0
1 0 0.58333333333333337 0
0.38475799166666663 -0.38475799166666663 0.58333333333333337 0
-1 0 0.58333333333333337 0
-1 -1 0.58333333333333337 0
0 -1 0.58333333333333337 0
-1 1 0.58333333333333337 0
1 -1 0.58333333333333337 0
1 1 0 0
1 -1 0 0
1 0 0 0
-1 1 0 0
0 1 0 0
-1 -1 0 0
-1 0 0 0
0 -1 0 0
0.23117261774381845 0.23117261774381845 -0.21613797629743084 0
-0.23117261774381845 -0.23117261774381845 -0.21613797629743084 0
0.00068721726240454726 -0.00068721726240454726 -0.58274419638062036 0
-0.00068721726240454726 0.00068721726240454726 -0.58274419638062036 0
0.38228550722371313 -0.15315857889930282 -0.47091277696463085 0
-0.15315857889930282 0.38228550722371313 -0.47091277696463085 0
0.15315857889930282 -0.38228550722371313 -0.47091277696463085 0
-0.38228550722371313 0.15315857889930282 -0.47091277696463085 0
0.44411243839220177 -0.057029232664126094 -0.31567686783825744 0
-0.057029232664126094 0.44411243839220177 -0.31567686783825744 0
0.057029232664126094 -0.44411243839220177 -0.31567686783825744 0
-0.44411243839220177 0.057029232664126094 -0.31567686783825744 0
0.24770193215449327 0.15076454770761322 -0.25168887237116588 0
0.15076454770761322 0.24770193215449327 -0.25168887237116588 0
-0.15076454770761322 -0.24770193215449327 -0.25168887237116588 0
-0.24770193215449327 -0.15076454770761322 -0.25168887237116588 0
0 0 -0.58110446196732768 0
0.13089956578650319 0.13089956578650319 -0.30846371336275508 0
-0.13089956578650319 -0.13089956578650319 -0.30846371336275508 0
0.40035379474419153 -0.40035379474419153 -0.38664392723091201 0
-0.40035379474419153 0.40035379474419153 -0.38664392723091201 0
0.020313317518693186 0.020313317518693186 -0.42154659883352724 0
-0.020313317518693186 -0.020313317518693186 -0.42154659883352724 0
0 0 -0.39109765472026792 0
0.076978295596609986 0.076978295596609986 -0.35208863346115105 0
-0.076978295596609986 -0.076978295596609986 -0.35208863346115105 0
0.0041861471126402169 -0.0041861471126402169 -0.24713798374775242 0
-0.0041861471126402169 0.0041861471126402169 -0.24713798374775242 0
0 0 -0.24463700087947071 0
0 0 -0.25900632260471002 0
0.42685251858886752 -0.42685251858886752 -0.35629367748024571 0
-0.42685251858886752 0.42685251858886752 -0.35629367748024571 0
0.27695159833333333 -0.27695159833333333 0.14969135253497676 0
-0.27695159833333333 0.27695159833333333 0.14969135253497676 0
0 0 -0.01141977833910687 0
0 0 0.24401803022867924 0
0 0 -0.38843246774698248 0
Hexahedra
44
1 4 3 2 21 25 29 23 0
9 5 3 7 26 28 30 27 0
3 2 23 29 31 33 37 41 0
3 29 25 4 32 42 38 34 0
3 30 28 5 31 43 39 35 0
3 7 27 30 32 36 40 44 0
29 3 31 41 42 32 45 46 0
30 43 31 3 44 47 45 32 0
3 2 33 31 5 6 48 35 0
3 32 34 4 7 36 49 8 0
33 31 35 48 50 45 51 52 0
34 49 36 32 50 52 51 45 0
33 31 45 50 37 41 46 53 0
34 50 45 32 38 53 46 42 0
35 51 45 31 39 54 47 43 0
36 32 45 51 40 44 47 54 0
41 29 42 46 55 57 56 58 0
43 47 44 30 55 58 56 57 0
23 29 41 37 22 57 55 59 0
25 38 42 29 24 60 56 57 0
28 39 43 30 22 59 55 57 0
27 30 44 40 24 57 56 60 0
23 29 57 22 61 63 30 28 0
25 24 57 29 62 27 30 63 0
21 25 29 23 64 62 63 61 0
26 28 30 27 64 61 63 62 0
22 23 61 28 20 14 15 18 0
24 27 62 25 19 16 11 10 0
2 23 37 33 6 22 59 48 0
4 34 38 25 8 49 60 24 0
5 35 39 28 6 48 59 22 0
7 27 40 36 8 24 60 49 0
37 33 48 59 53 50 52 65 0
38 60 49 34 53 65 52 50 0
39 59 48 35 54 65 52 51 0
40 36 49 60 54 51 52 65 0
41 37 59 55 46 53 65 58 0
42 56 60 38 46 58 65 53 0
43 55 59 39 47 58 65 54 0
44 40 60 56 47 54 65 58 0
23 21 64 61 14 13 12 15 0
25 62 64 21 10 11 12 13 0
28 61 64 26 18 15 12 17 0
27 26 64 62 16 17 12 11 0
Quadrilaterals
26
1 2 3 4 0
5 3 2 6 0
3 7 8 4 0
5 9 7 3 0
10 11 12 13 0
14 13 12 15 0
11 16 17 12 0
15 12 17 18 0
10 19 16 11 0
18 20 14 15 0
6 2 23 22 0
23 2 1 21 0
22 23 14 20 0
23 21 13 14 0
1 4 25 21 0
25 4 8 24 0
21 25 10 13 0
25 24 19 10 0
8 7 27 24 0
27 7 9 26 0
24 27 16 19 0
27 26 17 16 0
9 5 28 26 0
28 5 6 22 0
26 28 18 17 0
28 22 20 18 0
End
