MeshVersionFormatted 2
Dimension 3
Vertices
61
1 1 -0.58333333333333337 0
1 0 -0.58333333333333337 0
0 0 -0.58333333333333337 0
0 1 -0.58333333333333337 0
0 -1 -0.58333333333333337 0
1 -1 -0.58333333333333337 0
-1 0 -0.58333333333333337 0
-1 1 -0.58333333333333337 0
-1 -1 -0.58333333333333337 0
0 1 0.58333333333333337 0
-0.38475799166666663 0.38475799166666663 0.58333333333333337 0
0 0 0.58333333333333337 0
1 1 0.58333333333333337 0
1 0 0.58333333333333337 0
0.38475799166666663 -0.38475799166666663 0.58333333333333337 0
-1 0 0.58333333333333337 0
-1 -1 0.58333333333333337 0
0 -1 0.58333333333333337 0
-1 1 0.58333333333333337 0
1 -1 0.58333333333333337 0
1 1 0 0
1 -1 0 0
1 0 0 0
-1 1 0 0
0 1 0 0
-1 -1 0 0
-1 0 0 0
0 -1 0 0
0.36150324255738125 0.36150324255738125 -0.32969890896700454 0
-0.36150324255738125 -0.36150324255738125 -0.32969890896700454 0
0.16644913338288467 0.38896396287260432 -0.38390382924356298 0
0.38896396287260432 0.16644913338288467 -0.38390382924356298 0
-0.38896396287260432 -0.16644913338288467 -0.38390382924356298 0
-0.16644913338288467 -0.38896396287260432 -0.38390382924356298 0
0.054709736106209869 0.054709736106209869 -0.51435580754315724 0
-0.054709736106209869 -0.054709736106209869 -0.51435580754315724 0
0.27348858656683939 -0.27348858656683939 -0.13673183865139063 0
-0.27348858656683939 0.27348858656683939 -0.13673183865139063 0
0.40310350003167622 0.098167787210880139 -0.29503955193644177 0
0.098167787210880139 0.40310350003167622 -0.29503955193644177 0
-0.098167787210880139 -0.40310350003167622 -0.29503955193644177 0
-0.40310350003167622 -0.098167787210880139 -0.29503955193644177 0
0.24584202831893795 -0.082070503069196096 -0.23697660394321596 0
-0.082070503069196096 0.24584202831893795 -0.23697660394321596 0
0.082070503069196096 -0.24584202831893795 -0.23697660394321596 0
-0.24584202831893795 0.082070503069196096 -0.23697660394321596 0
0 0 -0.33136703339090395 0
0.076312908716247671 -0.076312908716247671 -0.26968895926635345 0
-0.076312908716247671 0.076312908716247671 -0.26968895926635345 0
0 0 -0.24159256137080373 0
-0.012541603425089929 0.012541603425089929 -0.28301793266115965 0
0.012541603425089929 -0.012541603425089929 -0.28301793266115965 0
-0.014301056697688006 0.014301056697688006 -0.28175291419099763 0
0.014301056697688006 -0.014301056697688006 -0.28175291419099763 0
0 0 0.16525685087763742 0
0.10036220617129746 0.10036220617129746 -0.12612327079945823 0
-0.10036220617129746 -0.10036220617129746 -0.12612327079945823 0
0 0 -0.1895446924307507 0
0.3262374416948946 0.3262374416948946 -0.23870199718926402 0
-0.3262374416948946 -0.3262374416948946 -0.23870199718926402 0
0 0 -0.22096186107729421 0
Hexahedra
40
1 4 3 2 29 31 35 32 0
9 5 3 7 30 34 36 33 0
3 2 32 35 37 23 39 43 0
3 35 31 4 38 44 40 25 0
3 36 34 5 37 45 41 28 0
3 7 33 36 38 27 42 46 0
35 3 37 43 47 36 45 48 0
35 44 38 3 47 49 46 36 0
3 2 23 37 5 6 22 28 0
3 38 25 4 7 27 24 8 0
29 31 35 32 50 51 47 52 0
30 34 36 33 50 52 47 51 0
31 35 47 51 40 44 49 53 0
32 52 47 35 39 54 48 43 0
33 51 47 36 42 53 49 46 0
34 36 47 52 41 45 48 54 0
37 43 48 45 55 56 58 57 0
38 46 49 44 55 57 58 56 0
37 23 39 43 55 21 59 56 0
38 44 40 25 55 56 59 21 0
37 45 41 28 55 57 60 26 0
38 27 42 46 55 26 60 57 0
37 23 21 55 15 14 13 12 0
38 55 21 25 11 12 13 10 0
37 55 26 28 15 12 17 18 0
38 27 26 55 11 16 17 12 0
23 37 28 22 14 15 18 20 0
25 24 27 38 10 19 16 11 0
2 32 39 23 1 29 59 21 0
4 25 40 31 1 21 59 29 0
5 28 41 34 9 26 60 30 0
7 33 42 27 9 30 60 26 0
40 31 29 59 53 51 50 61 0
39 59 29 32 54 61 50 52 0
42 60 30 33 53 61 50 51 0
41 34 30 60 54 52 50 61 0
39 43 56 59 54 48 58 61 0
40 59 56 44 53 61 58 49 0
41 60 57 45 54 61 58 48 0
42 46 57 60 53 49 58 61 0
Quadrilaterals
26
1 2 3 4 0
5 3 2 6 0
3 7 8 4 0
5 9 7 3 0
10 11 12 13 0
14 13 12 15 0
11 16 17 12 0
15 12 17 18 0
10 19 16 11 0
18 20 14 15 0
6 2 23 22 0
23 2 1 21 0
22 23 14 20 0
23 21 13 14 0
1 4 25 21 0
25 4 8 24 0
21 25 10 13 0
25 24 19 10 0
8 7 27 24 0
27 7 9 26 0
24 27 16 19 0
27 26 17 16 0
9 5 28 26 0
28 5 6 22 0
26 28 18 17 0
28 22 20 18 0
End
