MeshVersionFormatted 2
Dimension 3
Vertices
65
1 1 -0.58333333333333337 0
1 0 -0.58333333333333337 0
0 0 -0.58333333333333337 0
0 1 -0.58333333333333337 0
0 -1 -0.58333333333333337 0
1 -1 -0.58333333333333337 0
-1 0 -0.58333333333333337 0
-1 1 -0.58333333333333337 0
-1 -1 -0.58333333333333337 0
0 1 0.58333333333333337 0
-0.38475799166666663 0.38475799166666663 0.58333333333333337 0
0 0 0.58333333333333337 0
1 1 0.58333333333333337 0
1 0 0.58333333333333337 0
0.38475799166666663 -0.38475799166666663 0.58333333333333337 0
-1 0 0.58333333333333337 0
-1 -1 0.58333333333333337 0
0 -1 0.58333333333333337 0
-1 1 0.58333333333333337 0
1 -1 0.58333333333333337 0
1 1 0 0
1 -1 0 0
1 0 0 0
-1 1 0 0
0 1 0 0
-1 -1 0 0
-1 0 0 0
0 -1 0 0
0 0 -0.42935977302092238 0
0.29926716109629936 0.29926716109629936 0.24818010150586589 0
-0.29926716109629936 -0.29926716109629936 0.24818010150586589 0
0.19149808258550835 0.36311952365397787 0.19862526140365053 0
0.36311952365397787 0.19149808258550835 0.19862526140365053 0
-0.36311952365397787 -0.19149808258550835 0.19862526140365053 0
-0.19149808258550835 -0.36311952365397787 0.19862526140365053 0
0.023573802628371419 0.023573802628371419 -0.26067540894896968 0
-0.023573802628371419 -0.023573802628371419 -0.26067540894896968 0
0.10467758184471242 0.42331147783893297 0.36031010457441642 0
0.42331147783893297 0.10467758184471242 0.36031010457441642 0
-0.42331147783893297 -0.10467758184471242 0.36031010457441642 0
-0.10467758184471242 -0.42331147783893297 0.36031010457441642 0
-0.27439933772579234 0.33304018815646391 0.48432580459912572 0
0.33304018815646391 -0.27439933772579234 0.48432580459912572 0
-0.33304018815646391 0.27439933772579234 0.48432580459912572 0
0.27439933772579234 -0.33304018815646391 0.48432580459912572 0
0 0 -0.25356443806655576 0
-0.29841476001126616 0.29841476001126616 0.48004363196941335 0
0.29841476001126616 -0.29841476001126616 0.48004363196941335 0
0 0 0.17860957073676631 0
-0.08257053872777334 0.08257053872777334 0.12236245845838718 0
0.08257053872777334 -0.08257053872777334 0.12236245845838718 0
-0.19868856136283272 0.19868856136283272 0.38384688111821746 0
0.19868856136283272 -0.19868856136283272 0.38384688111821746 0
0.014284344520132193 0.014284344520132193 0.56997711458188238 0
-0.014284344520132193 -0.014284344520132193 0.56997711458188238 0
0 0 0.50144491998713314 0
0.38461800541474267 0.38461800541474267 0.3540318024663745 0
-0.38461800541474267 -0.38461800541474267 0.3540318024663745 0
-0.065239537920641147 0.065239537920641147 0.28344055627694525 0
0.065239537920641147 -0.065239537920641147 0.28344055627694525 0
-0.052441360123603252 0.052441360123603252 0.26338034116691661 0
0.052441360123603252 -0.052441360123603252 0.26338034116691661 0
0 0 0.29898716492018523 0
0 0 0.30312266563607165 0
0 0 0.44340349396673889 0
Hexahedra
44
1 4 3 2 21 25 29 23 0
9 5 3 7 26 28 29 27 0
3 2 23 29 5 6 22 28 0
3 29 25 4 7 27 24 8 0
21 25 29 23 30 32 36 33 0
26 28 29 27 31 35 37 34 0
23 29 28 22 14 15 18 20 0
25 24 27 29 10 19 16 11 0
29 25 10 11 36 32 38 42 0
29 15 14 23 36 43 39 33 0
29 11 16 27 37 44 40 34 0
29 28 18 15 37 35 41 45 0
11 29 36 42 44 37 46 47 0
15 43 36 29 45 48 46 37 0
30 32 36 33 49 50 46 51 0
31 35 37 34 49 51 46 50 0
32 36 46 50 38 42 47 52 0
33 51 46 36 39 53 48 43 0
34 50 46 37 40 52 47 44 0
35 37 46 51 41 45 48 53 0
42 11 44 47 54 12 55 56 0
43 48 45 15 54 56 55 12 0
10 11 42 38 13 12 54 57 0
14 39 43 15 13 57 54 12 0
16 40 44 11 17 58 55 12 0
18 15 45 41 17 12 55 58 0
25 10 38 32 21 13 57 30 0
23 33 39 14 21 30 57 13 0
27 34 40 16 26 31 58 17 0
28 18 41 35 26 17 58 31 0
38 32 30 57 59 61 63 64 0
39 57 30 33 60 64 63 62 0
40 58 31 34 59 64 63 61 0
41 35 31 58 60 62 63 64 0
42 38 57 54 47 52 65 56 0
43 54 57 39 48 56 65 53 0
44 55 58 40 47 56 65 52 0
45 41 58 55 48 53 65 56 0
38 57 65 52 59 64 58 40 0
39 53 65 57 60 41 58 64 0
52 38 59 40 50 32 61 34 0
53 41 60 39 51 35 62 33 0
50 32 61 34 49 30 63 31 0
51 35 62 33 49 31 63 30 0
Quadrilaterals
26
1 2 3 4 0
5 3 2 6 0
3 7 8 4 0
5 9 7 3 0
10 11 12 13 0
14 13 12 15 0
11 16 17 12 0
15 12 17 18 0
10 19 16 11 0
18 20 14 15 0
6 2 23 22 0
23 2 1 21 0
22 23 14 20 0
23 21 13 14 0
1 4 25 21 0
25 4 8 24 0
21 25 10 13 0
25 24 19 10 0
8 7 27 24 0
27 7 9 26 0
24 27 16 19 0
27 26 17 16 0
9 5 28 26 0
28 5 6 22 0
26 28 18 17 0
28 22 20 18 0
End
