MeshVersionFormatted 2
Dimension 3
Vertices
65
1 1 -0.58333333333333337 0
1 0 -0.58333333333333337 0
0 0 -0.58333333333333337 0
0 1 -0.58333333333333337 0
0 -1 -0.58333333333333337 0
1 -1 -0.58333333333333337 0
-1 0 -0.58333333333333337 0
-1 1 -0.58333333333333337 0
-1 -1 -0.58333333333333337 0
0 1 0.58333333333333337 0
-0.38475799166666663 0.38475799166666663 0.58333333333333337 0
0 0 0.58333333333333337 0
1 1 0.58333333333333337 0
1 0 0.58333333333333337 0
0.38475799166666663 -0.38475799166666663 0.58333333333333337 0
-1 0 0.58333333333333337 0
-1 -1 0.58333333333333337 0
0 -1 0.58333333333333337 0
-1 1 0.58333333333333337 0
1 -1 0.58333333333333337 0
1 1 0 0
1 -1 0 0
1 0 0 0
-1 1 0 0
0 1 0 0
-1 -1 0 0
-1 0 0 0
0 -1 0 0
0.31723230219902737 0.31723230219902737 -0.3229482380771232 0
-0.31723230219902737 -0.31723230219902737 -0.3229482380771232 0
0.20539833773380536 0.28249685545721487 -0.32974696726254188 0
0.28249685545721487 0.20539833773380536 -0.32974696726254188 0
-0.28249685545721487 -0.20539833773380536 -0.32974696726254188 0
-0.20539833773380536 -0.28249685545721487 -0.32974696726254188 0
0.071176626784446667 0.071176626784446667 -0.41406485450409197 0
-0.071176626784446667 -0.071176626784446667 -0.41406485450409197 0
0.35081817878291677 -0.35081817878291677 0.1123663241987078 0
-0.35081817878291677 0.35081817878291677 0.1123663241987078 0
0.37944714176222272 0.14778121149784637 -0.16829946908533941 0
0.14778121149784637 0.37944714176222272 -0.16829946908533941 0
-0.14778121149784637 -0.37944714176222272 -0.16829946908533941 0
-0.37944714176222272 -0.14778121149784637 -0.16829946908533941 0
0.3060168449120072 0.024998236525169658 -0.11707977526000748 0
0.024998236525169658 0.3060168449120072 -0.11707977526000748 0
-0.024998236525169658 -0.3060168449120072 -0.11707977526000748 0
-0.3060168449120072 -0.024998236525169658 -0.11707977526000748 0
0 0 -0.24059306881488374 0
0.060954437865528982 -0.060954437865528982 -0.16144898189983864 0
-0.060954437865528982 0.060954437865528982 -0.16144898189983864 0
0 0 -0.18945172718928621 0
-0.0086715315623316983 0.0086715315623316983 -0.19779134374388324 0
0.0086715315623316983 -0.0086715315623316983 -0.19779134374388324 0
-0.0097269366425515869 0.0097269366425515869 -0.19601825854410679 0
0.0097269366425515869 -0.0097269366425515869 -0.19601825854410679 0
0 0 0.027149813741578443 0
0.11235217437369573 0.11235217437369573 -0.099974607695458489 0
-0.11235217437369573 -0.11235217437369573 -0.099974607695458489 0
0 0 -0.14695210499833786 0
0 0 0.36319683002449493 0
0.28701860154234249 0.28701860154234249 -0.20070190916681571 0
-0.28701860154234249 -0.28701860154234249 -0.20070190916681571 0
0.22446033445625382 0.22446033445625382 -0.13912478940563933 0
-0.22446033445625382 -0.22446033445625382 -0.13912478940563933 0
0 0 -0.17393923854622506 0
0 0 -0.18844644769037192 0
Hexahedra
44
1 4 3 2 29 31 35 32 0
9 5 3 7 30 34 36 33 0
3 2 32 35 37 23 39 43 0
3 35 31 4 38 44 40 25 0
3 36 34 5 37 45 41 28 0
3 7 33 36 38 27 42 46 0
35 3 37 43 47 36 45 48 0
35 44 38 3 47 49 46 36 0
3 2 23 37 5 6 22 28 0
3 38 25 4 7 27 24 8 0
29 31 35 32 50 51 47 52 0
30 34 36 33 50 52 47 51 0
31 35 47 51 40 44 49 53 0
32 52 47 35 39 54 48 43 0
33 51 47 36 42 53 49 46 0
34 36 47 52 41 45 48 54 0
37 43 48 45 55 56 58 57 0
38 46 49 44 55 57 58 56 0
37 23 39 43 59 21 60 62 0
38 44 40 25 59 62 60 21 0
37 45 41 28 59 63 61 26 0
38 27 42 46 59 26 61 63 0
43 37 59 62 56 55 38 44 0
45 63 59 37 57 46 38 55 0
37 23 21 59 15 14 13 12 0
38 59 21 25 11 12 13 10 0
37 59 26 28 15 12 17 18 0
38 27 26 59 11 16 17 12 0
23 37 28 22 14 15 18 20 0
25 24 27 38 10 19 16 11 0
62 43 56 44 64 48 58 49 0
63 46 57 45 64 49 58 48 0
62 43 48 64 60 39 54 65 0
62 64 49 44 60 65 53 40 0
63 64 48 45 61 65 54 41 0
63 46 49 64 61 42 53 65 0
23 39 60 21 2 32 29 1 0
25 21 60 40 4 1 29 31 0
28 26 61 41 5 9 30 34 0
27 42 61 26 7 33 30 9 0
60 40 31 29 65 53 51 50 0
60 29 32 39 65 50 52 54 0
61 30 33 42 65 50 51 53 0
61 41 34 30 65 54 52 50 0
Quadrilaterals
26
1 2 3 4 0
5 3 2 6 0
3 7 8 4 0
5 9 7 3 0
10 11 12 13 0
14 13 12 15 0
11 16 17 12 0
15 12 17 18 0
10 19 16 11 0
18 20 14 15 0
6 2 23 22 0
23 2 1 21 0
22 23 14 20 0
23 21 13 14 0
1 4 25 21 0
25 4 8 24 0
21 25 10 13 0
25 24 19 10 0
8 7 27 24 0
27 7 9 26 0
24 27 16 19 0
27 26 17 16 0
9 5 28 26 0
28 5 6 22 0
26 28 18 17 0
28 22 20 18 0
End
