MeshVersionFormatted 2
Dimension 3
Vertices
65
1 1 -0.58333333333333337 0
1 0 -0.58333333333333337 0
0 0 -0.58333333333333337 0
0 1 -0.58333333333333337 0
0 -1 -0.58333333333333337 0
1 -1 -0.58333333333333337 0
-1 0 -0.58333333333333337 0
-1 1 -0.58333333333333337 0
-1 -1 -0.58333333333333337 0
0 1 0.58333333333333337 0
-0.38475799166666663 0.38475799166666663 0.58333333333333337 0
0 0 0.58333333333333337 0
1 1 0.58333333333333337 0
1 0 0.58333333333333337 0
0.38475799166666663 -0.38475799166666663 0.58333333333333337 0
-1 0 0.58333333333333337 0
-1 -1 0.58333333333333337 0
0 -1 0.58333333333333337 0
-1 1 0.58333333333333337 0
1 -1 0.58333333333333337 0
1 1 0 0
1 -1 0 0
1 0 0 0
-1 1 0 0
0 1 0 0
-1 -1 0 0
-1 0 0 0
0 -1 0 0
0 0 -0.23852508622962088 0
0.45280714733563382 0.45280714733563382 0.21718443861041442 0
-0.45280714733563382 -0.45280714733563382 0.21718443861041442 0
0.19097144083653134 0.34909125224949544 0.082454343359087703 0
0.34909125224949544 0.19097144083653134 0.082454343359087703 0
-0.34909125224949544 -0.19097144083653134 0.082454343359087703 0
-0.19097144083653134 -0.34909125224949544 0.082454343359087703 0
0.034624728842498981 0.034624728842498981 -0.13466014288441777 0
-0.034624728842498981 -0.034624728842498981 -0.13466014288441777 0
0.081848792398909645 0.46402298649132284 0.32199219945877733 0
0.46402298649132284 0.081848792398909645 0.32199219945877733 0
-0.46402298649132284 -0.081848792398909645 0.32199219945877733 0
-0.081848792398909645 -0.46402298649132284 0.32199219945877733 0
-0.20273288448362659 0.33799586231975309 0.4676446493491152 0
0.33799586231975309 -0.20273288448362659 0.4676446493491152 0
-0.33799586231975309 0.20273288448362659 0.4676446493491152 0
0.20273288448362659 -0.33799586231975309 0.4676446493491152 0
0 0 -0.10278464799008143 0
-0.19767681524935127 0.19767681524935127 0.39830117731651643 0
0.19767681524935127 -0.19767681524935127 0.39830117731651643 0
0 0 0.17698207056372905 0
-0.03204953243334125 0.03204953243334125 0.17004891814116027 0
0.03204953243334125 -0.03204953243334125 0.17004891814116027 0
-0.066919301918423116 0.066919301918423116 0.27105870081297712 0
0.066919301918423116 -0.066919301918423116 0.27105870081297712 0
0.013494658003625343 0.013494658003625343 0.56752554893039819 0
-0.013494658003625343 -0.013494658003625343 0.56752554893039819 0
0 0 0.52026661971815991 0
0.48877750561568073 0.48877750561568073 0.28421327056029433 0
-0.48877750561568073 -0.48877750561568073 0.28421327056029433 0
0 0 0.1772393582283073 0
0.086919676786418973 0.086919676786418973 0.38650165240072837 0
-0.086919676786418973 -0.086919676786418973 0.38650165240072837 0
0.11263212192924603 0.11263212192924603 0.36687258288659846 0
-0.11263212192924603 -0.11263212192924603 0.36687258288659846 0
0 0 0.34009177733985119 0
0 0 0.35861516635141444 0
Hexahedra
44
1 4 3 2 21 25 29 23 0
9 5 3 7 26 28 29 27 0
3 2 23 29 5 6 22 28 0
3 29 25 4 7 27 24 8 0
21 25 29 23 30 32 36 33 0
26 28 29 27 31 35 37 34 0
23 29 28 22 14 15 18 20 0
25 24 27 29 10 19 16 11 0
29 25 10 11 36 32 38 42 0
29 15 14 23 36 43 39 33 0
29 11 16 27 37 44 40 34 0
29 28 18 15 37 35 41 45 0
11 29 36 42 44 37 46 47 0
15 43 36 29 45 48 46 37 0
30 32 36 33 49 50 46 51 0
31 35 37 34 49 51 46 50 0
32 36 46 50 38 42 47 52 0
33 51 46 36 39 53 48 43 0
34 50 46 37 40 52 47 44 0
35 37 46 51 41 45 48 53 0
42 11 44 47 54 12 55 56 0
43 48 45 15 54 56 55 12 0
10 11 42 38 13 12 54 57 0
14 39 43 15 13 57 54 12 0
16 40 44 11 17 58 55 12 0
18 15 45 41 17 12 55 58 0
25 10 38 32 21 13 57 30 0
23 33 39 14 21 30 57 13 0
27 34 40 16 26 31 58 17 0
28 18 41 35 26 17 58 31 0
38 32 30 57 52 50 49 59 0
39 57 30 33 53 59 49 51 0
40 58 31 34 52 59 49 50 0
41 35 31 58 53 51 49 59 0
42 38 57 54 60 62 39 43 0
44 55 58 40 61 45 41 63 0
57 38 52 59 39 62 64 53 0
58 59 52 40 41 53 64 63 0
38 42 47 52 62 60 65 64 0
39 53 48 43 62 64 65 60 0
40 52 47 44 63 64 65 61 0
41 45 48 53 63 61 65 64 0
54 42 60 43 56 47 65 48 0
55 45 61 44 56 48 65 47 0
Quadrilaterals
26
1 2 3 4 0
5 3 2 6 0
3 7 8 4 0
5 9 7 3 0
10 11 12 13 0
14 13 12 15 0
11 16 17 12 0
15 12 17 18 0
10 19 16 11 0
18 20 14 15 0
6 2 23 22 0
23 2 1 21 0
22 23 14 20 0
23 21 13 14 0
1 4 25 21 0
25 4 8 24 0
21 25 10 13 0
25 24 19 10 0
8 7 27 24 0
27 7 9 26 0
24 27 16 19 0
27 26 17 16 0
9 5 28 26 0
28 5 6 22 0
26 28 18 17 0
28 22 20 18 0
End
