MeshVersionFormatted 2
Dimension 3
Vertices
67
1 1 -0.58333333333333337 0
1 0 -0.58333333333333337 0
0 0 -0.58333333333333337 0
0 1 -0.58333333333333337 0
0 -1 -0.58333333333333337 0
1 -1 -0.58333333333333337 0
-1 0 -0.58333333333333337 0
-1 1 -0.58333333333333337 0
-1 -1 -0.58333333333333337 0
0 1 0.58333333333333337 0
-0.38475799166666663 0.38475799166666663 0.58333333333333337 0
0 0 0.58333333333333337 0
1 1 0.58333333333333337 0
1 0 0.58333333333333337 0
0.38475799166666663 -0.38475799166666663 0.58333333333333337 0
-1 0 0.58333333333333337 0
-1 -1 0.58333333333333337 0
0 -1 0.58333333333333337 0
-1 1 0.58333333333333337 0
1 -1 0.58333333333333337 0
1 1 0 0
1 -1 0 0
1 -0.33333333333333331 0 0
1 0.33333333333333331 0 0
-1 1 0 0
0.33333333333333331 1 0 0
-0.33333333333333331 1 0 0
-1 -1 0 0
-1 0.33333333333333331 0 0
-1 -0.33333333333333331 0 0
-0.33333333333333331 -1 0 0
0.33333333333333331 -1 0 0
0.36789443707426955 0.36789443707426955 -0.34525935511809025 0
-0.36789443707426955 -0.36789443707426955 -0.34525935511809025 0
0.24363662308449116 0.35000002294163823 -0.37644881901788518 0
0.35000002294163823 0.24363662308449116 -0.37644881901788518 0
-0.35000002294163823 -0.24363662308449116 -0.37644881901788518 0
-0.24363662308449116 -0.35000002294163823 -0.37644881901788518 0
0.056482810814665121 0.056482810814665121 -0.50628348739541484 0
-0.056482810814665121 -0.056482810814665121 -0.50628348739541484 0
0.11409449317046515 -0.11409449317046515 -0.12261841972439197 0
-0.11409449317046515 0.11409449317046515 -0.12261841972439197 0
0.35642800894772675 0.18015238711044493 -0.23942568490883973 0
0.18015238711044493 0.35642800894772675 -0.23942568490883973 0
-0.18015238711044493 -0.35642800894772675 -0.23942568490883973 0
-0.35642800894772675 -0.18015238711044493 -0.23942568490883973 0
0.14599007571220254 -6.3789942153120815e-05 -0.23136975435561255 0
-6.3789942153120815e-05 0.14599007571220254 -0.23136975435561255 0
6.3789942153120815e-05 -0.14599007571220254 -0.23136975435561255 0
-0.14599007571220254 6.3789942153120815e-05 -0.23136975435561255 0
0 0 -0.35056008629862745 0
0.030438138476199344 -0.030438138476199344 -0.28374560681559791 0
-0.030438138476199344 0.030438138476199344 -0.28374560681559791 0
0.42952283124999996 -0.42952283125000001 0 0
-0.42952283125000001 0.42952283124999996 0 0
0 0 -0.25906212223615688 0
-0.010538648086668535 0.010538648086668535 -0.26425981753730959 0
0.010538648086668535 -0.010538648086668535 -0.26425981753730959 0
-0.011203279248826688 0.011203279248826688 -0.26210605899663358 0
0.011203279248826688 -0.011203279248826688 -0.26210605899663358 0
0 0 0.04647588203865971 0
0.10873079119500036 0.10873079119500036 -0.10708534657288486 0
-0.10873079119500036 -0.10873079119500036 -0.10708534657288486 0
0 0 -0.16279127138516902 0
0.32715749846352771 0.32715749846352771 -0.1745896232808713 0
-0.32715749846352771 -0.32715749846352771 -0.1745896232808713 0
0 0 -0.1673793422048567 0
Hexahedra
44
1 4 3 2 33 35 39 36 0
9 5 3 7 34 38 40 37 0
3 2 36 39 41 24 43 47 0
3 39 35 4 42 48 44 26 0
3 40 38 5 41 49 45 31 0
3 7 37 40 42 30 46 50 0
39 3 41 47 51 40 49 52 0
39 48 42 3 51 53 50 40 0
3 2 24 41 54 23 14 15 0
3 42 26 4 55 11 10 27 0
3 41 31 5 54 15 18 32 0
3 7 30 42 55 29 16 11 0
5 6 2 3 32 22 23 54 0
7 3 4 8 29 55 27 25 0
33 35 39 36 56 57 51 58 0
34 38 40 37 56 58 51 57 0
35 39 51 57 44 48 53 59 0
36 58 51 39 43 60 52 47 0
37 57 51 40 46 59 53 50 0
38 40 51 58 45 49 52 60 0
41 47 52 49 61 62 64 63 0
42 50 53 48 61 63 64 62 0
41 24 43 47 61 21 65 62 0
42 48 44 26 61 62 65 21 0
41 49 45 31 61 63 66 28 0
42 30 46 50 61 28 66 63 0
41 24 21 61 15 14 13 12 0
42 61 21 26 11 12 13 10 0
41 61 28 31 15 12 17 18 0
42 30 28 61 11 16 17 12 0
2 36 43 24 1 33 65 21 0
4 26 44 35 1 21 65 33 0
5 31 45 38 9 28 66 34 0
7 37 46 30 9 34 66 28 0
44 35 33 65 59 57 56 67 0
43 65 33 36 60 67 56 58 0
46 66 34 37 59 67 56 57 0
45 38 34 66 60 58 56 67 0
43 47 62 65 60 52 64 67 0
44 65 62 48 59 67 64 53 0
45 66 63 49 60 67 64 52 0
46 50 63 66 59 53 64 67 0
55 11 10 27 29 16 19 25 0
54 23 14 15 32 22 20 18 0
Quadrilaterals
30
1 2 3 4 0
5 3 2 6 0
3 7 8 4 0
5 9 7 3 0
10 11 12 13 0
14 13 12 15 0
11 16 17 12 0
15 12 17 18 0
10 19 16 11 0
18 20 14 15 0
6 2 23 22 0
23 2 24 14 0
22 23 14 20 0
24 2 1 21 0
14 24 21 13 0
1 4 26 21 0
26 4 27 10 0
21 26 10 13 0
27 4 8 25 0
10 27 25 19 0
8 7 29 25 0
29 7 30 16 0
25 29 16 19 0
30 7 9 28 0
16 30 28 17 0
9 5 31 28 0
31 5 32 18 0
28 31 18 17 0
32 5 6 22 0
18 32 22 20 0
End
