MeshVersionFormatted 2
Dimension 3
Vertices
61
1 1 -0.58333333333333337 0
1 0 -0.58333333333333337 0
0 0 -0.58333333333333337 0
0 1 -0.58333333333333337 0
0 -1 -0.58333333333333337 0
1 -1 -0.58333333333333337 0
-1 0 -0.58333333333333337 0
-1 1 -0.58333333333333337 0
-1 -1 -0.58333333333333337 0
0 1 0.58333333333333337 0
-0.38475799166666663 0.38475799166666663 0.58333333333333337 0
0 0 0.58333333333333337 0
1 1 0.58333333333333337 0
1 0 0.58333333333333337 0
0.38475799166666663 -0.38475799166666663 0.58333333333333337 0
-1 0 0.58333333333333337 0
-1 -1 0.58333333333333337 0
0 -1 0.58333333333333337 0
-1 1 0.58333333333333337 0
1 -1 0.58333333333333337 0
1 1 0.17690796582949408 0
1 -1 0.17690796582949408 0
1 -0.67871364905636522 0.042989685159515782 0
1 0.67871364905636522 0.042989685159515782 0
-1 1 0.17690796582949408 0
0.67871364905636522 1 0.042989685159515782 0
-0.67871364905636522 1 0.042989685159515782 0
-1 -1 0.17690796582949408 0
-1 0.67871364905636522 0.042989685159515782 0
-1 -0.67871364905636522 0.042989685159515782 0
-0.67871364905636522 -1 0.042989685159515782 0
0.67871364905636522 -1 0.042989685159515782 0
0.29180664774359583 0.29180664774359588 -0.05992361357589418 0
-0.29180664774359583 -0.29180664774359588 -0.05992361357589418 0
0.39325299397861213 -0.39325299397861213 -0.099252463412729905 0
-0.39325299397861213 0.39325299397861213 -0.099252463412729905 0
0.23706040658756045 0.21807171478165768 -0.0041157743117287938 0
0.21807171478165768 0.23706040658756045 -0.0041157743117287938 0
-0.21807171478165768 -0.23706040658756045 -0.0041157743117287938 0
-0.23706040658756045 -0.21807171478165768 -0.0041157743117287938 0
0 1.1254952313036127e-17 -0.040423231000427717 0
0.0059005587052052173 -0.0059005587052052173 -0.0051299343716655421 0
-0.0059005587052052451 0.0059005587052052451 -0.0051299343716655144 0
0 0 0.57545344761603001 0
-0.00037460967394654048 0.00037460967394654048 0.5719883599767922 0
0.00037460967394654048 -0.00037460967394654048 0.5719883599767922 0
0 5.3098923206741133e-18 0.57117999141439468 0
0.00060123249769709257 -0.00060123249769709257 0.56053327630266003 0
-0.00060123249769712033 0.00060123249769712033 0.56053327630266003 0
0.014620891738481825 0.014620891738481825 0.0064703324886004497 0
-0.014620891738481825 -0.014620891738481853 0.0064703324886004497 0
-1.4968151447197734e-18 -4.907612749374771e-18 0.55959959846786811 0
-5.8341704717838204e-18 -5.0061678780527042e-18 0.0015712700937595178 0
-4.1230606855657445e-18 -1.2369182056697233e-17 0.011499575659560422 0
0.0095367765528864903 0.0095367765528864903 0.013343898027486492 0
-0.0095367765528864903 -0.0095367765528864903 0.013343898027486492 0
0.00051944116032332551 0.00051944116032332551 0.011681148294222512 0
-0.00051944116032335327 -0.00051944116032335327 0.011681148294222539 0
7.8718247456492617e-19 7.8718247456492617e-19 0.033808516811605779 0
-7.7392968810902919e-18 -7.7392968810902919e-18 0.012173757059205998 0
-6.8937266851802672e-18 -6.8937266851802672e-18 0.012281117248550662 0
Hexahedra
42
1 4 3 2 21 26 33 24 0
9 5 3 7 28 31 34 30 0
3 2 24 33 35 23 14 37 0
3 33 26 4 36 38 10 27 0
3 34 31 5 35 39 18 32 0
3 7 30 34 36 29 16 40 0
33 3 35 37 41 34 39 42 0
33 38 36 3 41 43 40 34 0
3 2 23 35 5 6 22 32 0
3 36 27 4 7 29 25 8 0
21 26 33 24 44 45 47 46 0
28 31 34 30 44 46 47 45 0
33 24 46 47 37 14 15 48 0
33 47 45 26 38 49 11 10 0
34 47 46 31 39 48 15 18 0
34 30 45 47 40 16 11 49 0
47 33 37 48 49 38 50 52 0
47 48 39 34 49 52 51 40 0
33 37 50 38 41 42 53 43 0
34 40 51 39 41 43 53 42 0
35 37 42 39 54 50 53 51 0
36 40 43 38 54 51 53 50 0
35 37 50 54 23 14 55 57 0
36 54 50 38 27 57 55 10 0
35 54 51 39 32 58 56 18 0
36 40 51 54 29 16 56 58 0
37 48 52 50 14 15 59 55 0
38 50 52 49 10 55 59 11 0
39 51 52 48 18 56 59 15 0
40 49 52 51 16 11 59 56 0
54 35 23 57 58 32 22 60 0
54 57 27 36 58 60 25 29 0
45 26 10 11 44 21 13 12 0
46 15 14 24 44 12 13 21 0
45 11 16 30 44 12 17 28 0
46 31 18 15 44 28 17 12 0
10 55 59 11 19 61 56 16 0
14 15 59 55 20 18 56 61 0
27 57 55 10 25 60 61 19 0
23 14 55 57 22 20 61 60 0
29 16 56 58 25 19 61 60 0
32 58 56 18 22 60 61 20 0
Quadrilaterals
30
1 2 3 4 0
5 3 2 6 0
3 7 8 4 0
5 9 7 3 0
10 11 12 13 0
14 13 12 15 0
11 16 17 12 0
15 12 17 18 0
10 19 16 11 0
18 20 14 15 0
6 2 23 22 0
23 2 24 14 0
22 23 14 20 0
24 2 1 21 0
14 24 21 13 0
1 4 26 21 0
26 4 27 10 0
21 26 10 13 0
27 4 8 25 0
10 27 25 19 0
8 7 29 25 0
29 7 30 16 0
25 29 16 19 0
30 7 9 28 0
16 30 28 17 0
9 5 31 28 0
31 5 32 18 0
28 31 18 17 0
32 5 6 22 0
18 32 22 20 0
End
