MeshVersionFormatted 2
Dimension 3
Vertices
59
1 1 -0.58333333333333337 0
1 0 -0.58333333333333337 0
0 0 -0.58333333333333337 0
0 1 -0.58333333333333337 0
0 -1 -0.58333333333333337 0
1 -1 -0.58333333333333337 0
-1 0 -0.58333333333333337 0
-1 1 -0.58333333333333337 0
-1 -1 -0.58333333333333337 0
0 1 0.58333333333333337 0
-0.38475799166666663 0.38475799166666663 0.58333333333333337 0
0 0 0.58333333333333337 0
1 1 0.58333333333333337 0
1 0 0.58333333333333337 0
0.38475799166666663 -0.38475799166666663 0.58333333333333337 0
-1 0 0.58333333333333337 0
-1 -1 0.58333333333333337 0
0 -1 0.58333333333333337 0
-1 1 0.58333333333333337 0
1 -1 0.58333333333333337 0
1 1 0.28439462732035792 0
1 -1 0.28439462732035792 0
1 -0.73592244083186042 0.23197840497864416 0
1 0.73592244083186042 0.23197840497864416 0
-1 1 0.28439462732035792 0
0.73592244083186042 1 0.23197840497864416 0
-0.73592244083186042 1 0.23197840497864416 0
-1 -1 0.28439462732035792 0
-1 0.73592244083186042 0.23197840497864416 0
-1 -0.73592244083186042 0.23197840497864416 0
-0.73592244083186042 -1 0.23197840497864416 0
0.73592244083186042 -1 0.23197840497864416 0
0.36192757500646699 0.36192757500646699 0.25567029331011892 0
-0.36192757500646699 -0.36192757500646699 0.25567029331011892 0
0.37021435215608611 -0.37021435215608611 -0.17466949396565598 0
-0.37021435215608611 0.37021435215608611 -0.17466949396565598 0
0.43162633333978362 0.23163638164635161 0.24796039937235106 0
0.23163638164635164 0.43162633333978362 0.24796039937235106 0
-0.23163638164635161 -0.43162633333978362 0.24796039937235106 0
-0.43162633333978362 -0.23163638164635161 0.24796039937235112 0
4.915956182705434e-18 -1.2289890456763585e-17 -0.14568925365753024 0
0.019004926348476284 0.019004926348476243 -0.10679197840499018 0
-0.019004926348476257 -0.019004926348476284 -0.10679197840499023 0
0.0023828798089275522 0.0023828798089275522 -0.063617687784067817 0
-0.0023828798089275522 -0.0023828798089275522 -0.063617687784067845 0
-1.5195620818707158e-18 -1.5195620818707158e-18 -0.015795015822703724 0
0.01298959589817319 0.01298959589817319 -0.08723562997015484 0
-0.01298959589817319 -0.01298959589817319 -0.087235629970154896 0
0.15992464679765614 -0.15992464679765614 0.23015413838743015 0
-0.15992464679765608 0.15992464679765608 0.2301541383874301 0
7.5527238750793155e-19 6.7317035810720287e-20 0.23739880080302589 0
-1.7519934806683061e-18 -5.3186336491086103e-18 0.14203093966874775 0
4.904918125858829e-18 0 0.35405799873134486 0
-0.032943559408177704 0.032943559408177704 0.47496405152814664 0
0.032943559408177676 -0.032943559408177676 0.47496405152814664 0
-0.15441231277144807 0.15441231277144807 0.32827787024300276 0
0.1544123127714481 -0.1544123127714481 0.32827787024300281 0
-2.3034977733828538e-18 2.2554773108605098e-18 0.47759710223340179 0
-1.1697200299620437e-17 -1.2184752093005978e-17 0.027526564571660018 0
Hexahedra
40
1 4 3 2 21 26 33 24 0
9 5 3 7 28 31 34 30 0
3 2 24 33 35 23 14 37 0
3 33 26 4 36 38 10 27 0
3 34 31 5 35 39 18 32 0
3 7 30 34 36 29 16 40 0
33 3 35 37 38 36 41 42 0
34 39 35 3 40 43 41 36 0
3 2 23 35 5 6 22 32 0
3 36 27 4 7 29 25 8 0
23 35 32 22 44 41 45 46 0
27 25 29 36 44 46 45 41 0
23 35 41 44 14 37 42 47 0
27 44 41 36 10 47 42 38 0
32 45 41 35 18 48 43 39 0
29 36 41 45 16 40 43 48 0
37 33 38 42 49 51 50 52 0
39 43 40 34 49 52 50 51 0
33 26 10 38 53 54 11 56 0
33 37 14 24 53 57 15 55 0
34 40 16 30 53 56 11 54 0
34 31 18 39 53 55 15 57 0
33 37 57 53 51 49 39 34 0
33 53 56 38 51 34 40 50 0
24 33 53 55 21 26 54 58 0
31 55 53 34 28 58 54 30 0
37 57 39 49 14 15 18 20 0
38 50 40 56 10 19 16 11 0
10 47 42 38 19 59 52 50 0
14 37 42 47 20 49 52 59 0
16 40 43 48 19 50 52 59 0
18 48 43 39 20 59 52 49 0
27 44 47 10 25 46 59 19 0
23 14 47 44 22 20 59 46 0
29 16 48 45 25 19 59 46 0
32 45 48 18 22 46 59 20 0
26 10 11 54 21 13 12 58 0
24 55 15 14 21 58 12 13 0
30 54 11 16 28 58 12 17 0
31 18 15 55 28 17 12 58 0
Quadrilaterals
30
1 2 3 4 0
5 3 2 6 0
3 7 8 4 0
5 9 7 3 0
10 11 12 13 0
14 13 12 15 0
11 16 17 12 0
15 12 17 18 0
10 19 16 11 0
18 20 14 15 0
6 2 23 22 0
23 2 24 14 0
22 23 14 20 0
24 2 1 21 0
14 24 21 13 0
1 4 26 21 0
26 4 27 10 0
21 26 10 13 0
27 4 8 25 0
10 27 25 19 0
8 7 29 25 0
29 7 30 16 0
25 29 16 19 0
30 7 9 28 0
16 30 28 17 0
9 5 31 28 0
31 5 32 18 0
28 31 18 17 0
32 5 6 22 0
18 32 22 20 0
End
