MeshVersionFormatted 2
Dimension 3
Vertices
65
1 1 -0.58333333333333337 0
1 0 -0.58333333333333337 0
0 0 -0.58333333333333337 0
0 1 -0.58333333333333337 0
0 -1 -0.58333333333333337 0
1 -1 -0.58333333333333337 0
-1 0 -0.58333333333333337 0
-1 1 -0.58333333333333337 0
-1 -1 -0.58333333333333337 0
0 1 0.58333333333333337 0
-0.38475799166666663 0.38475799166666663 0.58333333333333337 0
0 0 0.58333333333333337 0
1 1 0.58333333333333337 0
1 0 0.58333333333333337 0
0.38475799166666663 -0.38475799166666663 0.58333333333333337 0
-1 0 0.58333333333333337 0
-1 -1 0.58333333333333337 0
0 -1 0.58333333333333337 0
-1 1 0.58333333333333337 0
1 -1 0.58333333333333337 0
1 1 0 0
1 -1 0 0
1 -0.33333333333333331 0 0
1 0.33333333333333331 0 0
-1 1 0 0
0.33333333333333331 1 0 0
-0.33333333333333331 1 0 0
-1 -1 0 0
-1 0.33333333333333331 0 0
-1 -0.33333333333333331 0 0
-0.33333333333333331 -1 0 0
0.33333333333333331 -1 0 0
0 0 -0.17128846422554569 0
0.42952283124999996 -0.42952283125000001 0 0
-0.42952283125000001 0.42952283124999996 0 0
0.45653613398612441 0.45653613398612441 0.22459204613675662 0
-0.45653613398612441 -0.45653613398612441 0.22459204613675662 0
0.21617541564419501 0.37445965378160917 0.12567170412157405 0
0.37445965378160917 0.21617541564419501 0.12567170412157405 0
-0.37445965378160917 -0.21617541564419501 0.12567170412157405 0
-0.21617541564419501 -0.37445965378160917 0.12567170412157405 0
0.057076214695837034 0.057076214695837034 -0.043357163031425991 0
-0.057076214695837034 -0.057076214695837034 -0.043357163031425991 0
0.14157667508443764 0.5145528061911262 0.32183145858290013 0
0.5145528061911262 0.14157667508443764 0.32183145858290013 0
-0.5145528061911262 -0.14157667508443764 0.32183145858290013 0
-0.14157667508443764 -0.5145528061911262 0.32183145858290013 0
-0.18332186152227686 0.3480083566379526 0.47481134492972854 0
0.3480083566379526 -0.18332186152227686 0.47481134492972854 0
-0.3480083566379526 0.18332186152227686 0.47481134492972854 0
0.18332186152227686 -0.3480083566379526 0.47481134492972854 0
0 0 0.0089066268090295421 0
-0.18213757122387422 0.18213757122387422 0.46155748850682937 0
0.18213757122387422 -0.18213757122387422 0.46155748850682937 0
0.0075939094089916394 0.0075939094089916394 0.57333103292426846 0
-0.0075939094089916394 -0.0075939094089916394 0.57333103292426846 0
0.48850519755963556 0.48850519755963556 0.27098241431505149 0
-0.48850519755963556 -0.48850519755963556 0.27098241431505149 0
0 0 0.53880022574380404 0
-0.033671407257581061 0.033671407257581061 0.28493195243410335 0
0.033671407257581061 -0.033671407257581061 0.28493195243410335 0
-0.045940927474797444 0.045940927474797444 0.31778345897881827 0
0.045940927474797444 -0.045940927474797444 0.31778345897881827 0
0 0 0.29442346077751907 0
0 0 0.29544881552737234 0
Hexahedra
42
1 4 3 2 21 26 33 24 0
9 5 3 7 28 31 33 30 0
3 2 24 33 34 23 14 15 0
3 33 26 4 35 11 10 27 0
3 33 31 5 34 15 18 32 0
3 7 30 33 35 29 16 11 0
21 26 33 24 36 38 42 39 0
28 31 33 30 37 41 43 40 0
33 26 10 11 42 38 44 48 0
33 15 14 24 42 49 45 39 0
33 11 16 30 43 50 46 40 0
33 31 18 15 43 41 47 51 0
11 33 42 48 50 43 52 53 0
15 49 42 33 51 54 52 43 0
3 2 23 34 5 6 22 32 0
3 35 27 4 7 29 25 8 0
35 11 10 27 29 16 19 25 0
34 23 14 15 32 22 20 18 0
10 11 48 44 13 12 55 57 0
14 45 49 15 13 57 55 12 0
16 46 50 11 17 58 56 12 0
18 15 51 47 17 12 56 58 0
11 48 55 12 50 53 59 56 0
15 12 55 49 51 56 59 54 0
42 38 44 48 52 60 62 53 0
42 49 45 39 52 54 63 61 0
43 50 46 40 52 53 62 60 0
43 41 47 51 52 61 63 54 0
42 38 60 52 39 36 64 61 0
43 52 60 40 41 61 64 37 0
26 10 44 38 21 13 57 36 0
24 39 45 14 21 36 57 13 0
30 40 46 16 28 37 58 17 0
31 18 47 41 28 17 58 37 0
44 38 36 57 62 60 64 65 0
45 57 36 39 63 65 64 61 0
46 58 37 40 62 65 64 60 0
47 41 37 58 63 61 64 65 0
48 44 57 55 53 62 65 59 0
49 55 57 45 54 59 65 63 0
50 56 58 46 53 59 65 62 0
51 47 58 56 54 63 65 59 0
Quadrilaterals
30
1 2 3 4 0
5 3 2 6 0
3 7 8 4 0
5 9 7 3 0
10 11 12 13 0
14 13 12 15 0
11 16 17 12 0
15 12 17 18 0
10 19 16 11 0
18 20 14 15 0
6 2 23 22 0
23 2 24 14 0
22 23 14 20 0
24 2 1 21 0
14 24 21 13 0
1 4 26 21 0
26 4 27 10 0
21 26 10 13 0
27 4 8 25 0
10 27 25 19 0
8 7 29 25 0
29 7 30 16 0
25 29 16 19 0
30 7 9 28 0
16 30 28 17 0
9 5 31 28 0
31 5 32 18 0
28 31 18 17 0
32 5 6 22 0
18 32 22 20 0
End
