MeshVersionFormatted 2
Dimension 3
Vertices
59
1 1 -0.58333333333333337 0
1 0 -0.58333333333333337 0
0 0 -0.58333333333333337 0
0 1 -0.58333333333333337 0
0 -1 -0.58333333333333337 0
1 -1 -0.58333333333333337 0
-1 0 -0.58333333333333337 0
-1 1 -0.58333333333333337 0
-1 -1 -0.58333333333333337 0
0 1 0.58333333333333337 0
-0.38475799166666663 0.38475799166666663 0.58333333333333337 0
0 0 0.58333333333333337 0
1 1 0.58333333333333337 0
1 0 0.58333333333333337 0
0.38475799166666663 -0.38475799166666663 0.58333333333333337 0
-1 0 0.58333333333333337 0
-1 -1 0.58333333333333337 0
0 -1 0.58333333333333337 0
-1 1 0.58333333333333337 0
1 -1 0.58333333333333337 0
1 1 0.23936428799092793 0
1 -1 0.23936428799092793 0
1 -0.621731876440211 0.2066373866394253 0
1 0.621731876440211 0.2066373866394253 0
-1 1 0.23936428799092793 0
0.621731876440211 1 0.2066373866394253 0
-0.621731876440211 1 0.2066373866394253 0
-1 -1 0.23936428799092793 0
-1 0.621731876440211 0.2066373866394253 0
-1 -0.621731876440211 0.2066373866394253 0
-0.621731876440211 -1 0.2066373866394253 0
0.621731876440211 -1 0.2066373866394253 0
0.29648322640816521 0.29648322640816521 0.15496045043620468 0
-0.29648322640816521 -0.29648322640816521 0.15496045043620468 0
0.17894499135463757 -0.17894499135463762 -0.14238886330000544 0
-0.17894499135463762 0.17894499135463762 -0.14238886330000541 0
0.29715348652505541 0.063683573223076426 0.25663623049229445 0
0.063683573223076426 0.29715348652505552 0.25663623049229456 0
-0.06368357322307644 -0.29715348652505547 0.25663623049229456 0
-0.29715348652505547 -0.063683573223076412 0.2566362304922945 0
-1.2290291785518338e-17 2.4580583571036674e-18 0.089868170929777905 0
0.033113217724436303 0.033113217724436331 0.1240422605044384 0
-0.033113217724436317 -0.033113217724436317 0.12404226050443845 0
0.0005768574556951272 0.0005768574556951272 0.093995116492032058 0
-0.00057685745569515496 -0.00057685745569515496 0.093995116492032058 0
-7.5968203648642823e-18 -6.0774562918914257e-18 0.095138733783745627 0
0.00062693203877041686 0.00062693203877041686 0.094155420259713268 0
-0.00062693203877047237 -0.00062693203877047237 0.094155420259713324 0
0.17671450329670138 -0.17671450329670138 0.3710009373163039 0
-0.17671450329670135 0.17671450329670138 0.37100093731630385 0
7.5285014405535696e-18 3.883366460697237e-18 0.42786858865687671 0
7.0201565292897994e-18 -1.6746018755895977e-17 0.13661442001543517 0
-0.020823979007800728 0.020823979007800728 0.43816510288869237 0
0.020823979007800728 -0.020823979007800728 0.43816510288869237 0
1.2439604548691137e-17 -1.2276446776461816e-17 0.43852837991913185 0
-2.2092664333317209e-17 1.7358731588098118e-17 0.096183737366876507 0
0.33959246350082206 -0.33959246350082206 0.33244672279874438 0
-0.33959246350082212 0.33959246350082217 0.33244672279874438 0
-2.0548126366478124e-17 -1.6828963121354165e-17 0.095148391600345272 0
Hexahedra
40
1 4 3 2 21 26 33 24 0
9 5 3 7 28 31 34 30 0
3 2 24 33 35 23 14 37 0
3 33 26 4 36 38 10 27 0
3 34 31 5 35 39 18 32 0
3 7 30 34 36 29 16 40 0
33 3 35 37 38 36 41 42 0
34 39 35 3 40 43 41 36 0
3 2 23 35 5 6 22 32 0
3 36 27 4 7 29 25 8 0
23 35 32 22 44 41 45 46 0
27 25 29 36 44 46 45 41 0
23 35 41 44 14 37 42 47 0
27 44 41 36 10 47 42 38 0
32 45 41 35 18 48 43 39 0
29 36 41 45 16 40 43 48 0
37 33 38 42 49 51 50 52 0
39 43 40 34 49 52 50 51 0
33 26 10 38 51 53 11 50 0
33 37 14 24 51 49 15 54 0
34 40 16 30 51 50 11 53 0
34 31 18 39 51 54 15 49 0
24 33 51 54 21 26 53 55 0
31 54 51 34 28 55 53 30 0
42 37 49 52 56 57 39 43 0
42 52 50 38 56 43 40 58 0
37 49 39 57 14 15 18 20 0
38 58 40 50 10 19 16 11 0
10 47 42 38 19 59 56 58 0
14 37 42 47 20 57 56 59 0
16 40 43 48 19 58 56 59 0
18 48 43 39 20 59 56 57 0
27 44 47 10 25 46 59 19 0
23 14 47 44 22 20 59 46 0
29 16 48 45 25 19 59 46 0
32 45 48 18 22 46 59 20 0
26 10 11 53 21 13 12 55 0
24 54 15 14 21 55 12 13 0
30 53 11 16 28 55 12 17 0
31 18 15 54 28 17 12 55 0
Quadrilaterals
30
1 2 3 4 0
5 3 2 6 0
3 7 8 4 0
5 9 7 3 0
10 11 12 13 0
14 13 12 15 0
11 16 17 12 0
15 12 17 18 0
10 19 16 11 0
18 20 14 15 0
6 2 23 22 0
23 2 24 14 0
22 23 14 20 0
24 2 1 21 0
14 24 21 13 0
1 4 26 21 0
26 4 27 10 0
21 26 10 13 0
27 4 8 25 0
10 27 25 19 0
8 7 29 25 0
29 7 30 16 0
25 29 16 19 0
30 7 9 28 0
16 30 28 17 0
9 5 31 28 0
31 5 32 18 0
28 31 18 17 0
32 5 6 22 0
18 32 22 20 0
End
