MeshVersionFormatted 2
Dimension 3
Vertices
61
1 1 -0.58333333333333337 0
1 0 -0.58333333333333337 0
0 0 -0.58333333333333337 0
0 1 -0.58333333333333337 0
0 -1 -0.58333333333333337 0
1 -1 -0.58333333333333337 0
-1 0 -0.58333333333333337 0
-1 1 -0.58333333333333337 0
-1 -1 -0.58333333333333337 0
0 1 0.58333333333333337 0
-0.38475799166666663 0.38475799166666663 0.58333333333333337 0
0 0 0.58333333333333337 0
1 1 0.58333333333333337 0
1 0 0.58333333333333337 0
0.38475799166666663 -0.38475799166666663 0.58333333333333337 0
-1 0 0.58333333333333337 0
-1 -1 0.58333333333333337 0
0 -1 0.58333333333333337 0
-1 1 0.58333333333333337 0
1 -1 0.58333333333333337 0
1 1 0.58333332333333332 0
1 -1 0.58333332333333332 0
1 -0.66761487722301283 0.4460907169165868 0
1 0.66761487722301283 0.4460907169165868 0
-1 1 0.58333332333333332 0
0.66761487722301283 1 0.4460907169165868 0
-0.66761487722301283 1 0.4460907169165868 0
-1 -1 0.58333332333333332 0
-1 0.66761487722301283 0.4460907169165868 0
-1 -0.66761487722301283 0.4460907169165868 0
-0.66761487722301283 -1 0.4460907169165868 0
0.66761487722301283 -1 0.4460907169165868 0
0.66728096790142066 0.66728096790142066 0.36028581834589646 0
-0.66728096790142066 -0.66728096790142066 0.36028581834589646 0
0.00039930901640517424 -0.00039930901640517424 -0.58111089664370086 0
-0.00039930901640517424 0.00039930901640517424 -0.58111089664370086 0
0.65147098292645766 0.43399250985077459 0.32142833001226523 0
0.43399250985077459 0.65147098292645766 0.32142833001226528 0
-0.43399250985077459 -0.65147098292645766 0.32142833001226523 0
-0.65147098292645766 -0.43399250985077459 0.32142833001226534 0
4.915956182705434e-18 -4.915956182705434e-18 -0.58021321268398451 0
0.29028686764420941 0.29028686764420941 0.13707503456333775 0
-0.29028686764420941 -0.29028686764420941 0.13707503456333775 0
0.057700395168439875 0.057700395168439875 -0.10938221583882524 0
-0.057700395168439875 -0.057700395168439875 -0.10938221583882524 0
-3.0387243426387726e-18 -3.0387243426387726e-18 0.0097092972539420171 0
0.16054103029214079 0.16054103029214079 0.027935050854016038 0
-0.16054103029214084 -0.16054103029214084 0.027935050854016038 0
0.0081503581801504622 -0.0081503581801504622 0.29025477531646626 0
-0.0081503581801504622 0.0081503581801504622 0.29025477531646626 0
7.9037579212887438e-18 3.1319795363769536e-18 0.29235004571237561 0
-2.1222450970932999e-19 5.5213983608115265e-18 0.2561279942647291 0
0 4.9097476064712977e-18 0.50077917578328257 0
-0.00048398132942481032 0.00048398132942481032 0.5034230741517175 0
0.00048398132942481032 -0.00048398132942481032 0.5034230741517175 0
-0.29414050207362707 0.29414050207362707 0.4913031230619862 0
0.29414050207362707 -0.29414050207362707 0.49130312306198615 0
-6.9934145742827237e-19 6.4613737266065872e-19 0.50369193480119823 0
6.0559513496532478e-18 -9.2524845589917886e-18 0.082357963173496987 0
-2.4320359150028737e-18 -5.7691302587056023e-18 0.056837906084597711 0
-1.2953550413232861e-17 -1.3612929403775141e-17 0.010441063477406802 0
Hexahedra
42
1 4 3 2 21 26 33 24 0
9 5 3 7 28 31 34 30 0
3 2 24 33 35 23 14 37 0
3 33 26 4 36 38 10 27 0
3 34 31 5 35 39 18 32 0
3 7 30 34 36 29 16 40 0
33 3 35 37 38 36 41 42 0
34 39 35 3 40 43 41 36 0
3 2 23 35 5 6 22 32 0
3 36 27 4 7 29 25 8 0
23 35 32 22 44 41 45 46 0
27 25 29 36 44 46 45 41 0
23 35 41 44 14 37 42 47 0
27 44 41 36 10 47 42 38 0
32 45 41 35 18 48 43 39 0
29 36 41 45 16 40 43 48 0
37 33 38 42 49 51 50 52 0
39 43 40 34 49 52 50 51 0
33 26 10 38 53 54 11 56 0
33 37 14 24 53 57 15 55 0
34 40 16 30 53 56 11 54 0
34 31 18 39 53 55 15 57 0
33 37 57 53 51 49 39 34 0
33 53 56 38 51 34 40 50 0
24 33 53 55 21 26 54 58 0
31 55 53 34 28 58 54 30 0
37 57 39 49 42 59 43 52 0
38 50 40 56 42 52 43 59 0
37 57 59 42 14 15 60 47 0
38 42 59 56 10 47 60 11 0
39 43 59 57 18 48 60 15 0
40 56 59 43 16 11 60 48 0
26 10 11 54 21 13 12 58 0
24 55 15 14 21 58 12 13 0
30 54 11 16 28 58 12 17 0
31 18 15 55 28 17 12 58 0
10 47 60 11 19 61 48 16 0
14 15 60 47 20 18 48 61 0
27 44 47 10 25 46 61 19 0
23 14 47 44 22 20 61 46 0
29 16 48 45 25 19 61 46 0
32 45 48 18 22 46 61 20 0
Quadrilaterals
30
1 2 3 4 0
5 3 2 6 0
3 7 8 4 0
5 9 7 3 0
10 11 12 13 0
14 13 12 15 0
11 16 17 12 0
15 12 17 18 0
10 19 16 11 0
18 20 14 15 0
6 2 23 22 0
23 2 24 14 0
22 23 14 20 0
24 2 1 21 0
14 24 21 13 0
1 4 26 21 0
26 4 27 10 0
21 26 10 13 0
27 4 8 25 0
10 27 25 19 0
8 7 29 25 0
29 7 30 16 0
25 29 16 19 0
30 7 9 28 0
16 30 28 17 0
9 5 31 28 0
31 5 32 18 0
28 31 18 17 0
32 5 6 22 0
18 32 22 20 0
End
