MeshVersionFormatted 2
Dimension 3
Vertices
57
1 1 -0.58333333333333337 0
1 0 -0.58333333333333337 0
0 0 -0.58333333333333337 0
0 1 -0.58333333333333337 0
0 -1 -0.58333333333333337 0
1 -1 -0.58333333333333337 0
-1 0 -0.58333333333333337 0
-1 1 -0.58333333333333337 0
-1 -1 -0.58333333333333337 0
0 1 0.58333333333333337 0
-0.38475799166666663 0.38475799166666663 0.58333333333333337 0
0 0 0.58333333333333337 0
1 1 0.58333333333333337 0
1 0 0.58333333333333337 0
0.38475799166666663 -0.38475799166666663 0.58333333333333337 0
-1 0 0.58333333333333337 0
-1 -1 0.58333333333333337 0
0 -1 0.58333333333333337 0
-1 1 0.58333333333333337 0
1 -1 0.58333333333333337 0
1 1 0.58217712120493326 0
1 -1 0.58217712120493326 0
1 -0.62358134377090124 0.3743733798749378 0
1 0.62358134377090124 0.3743733798749378 0
-1 1 0.58217712120493326 0
0.62358134377090124 1 0.3743733798749378 0
-0.62358134377090124 1 0.3743733798749378 0
-1 -1 0.58217712120493326 0
-1 0.62358134377090124 0.3743733798749378 0
-1 -0.62358134377090124 0.3743733798749378 0
-0.62358134377090124 -1 0.3743733798749378 0
0.62358134377090124 -1 0.3743733798749378 0
0.53749087339795754 0.53749087339795754 0.17066318682169687 0
-0.53749087339795754 -0.53749087339795754 0.17066318682169684 0
0.00063494465786564957 -0.00063494465786564957 -0.57837529026114964 0
-0.00063494465786564957 0.00063494465786564957 -0.57837529026114964 0
0.53657167734527578 0.38407310775041026 0.17673569294035146 0
0.38407310775041026 0.53657167734527578 0.17673569294035146 0
-0.38407310775041026 -0.53657167734527578 0.17673569294035146 0
-0.53657167734527578 -0.38407310775041026 0.17673569294035141 0
4.9203065864069431e-18 9.8406131728138862e-18 -0.57795074468815377 0
0.26515638488342885 0.26515638488342885 -0.021533112932806672 0
-0.26515638488342885 -0.26515638488342885 -0.021533112932806672 0
0.03750632342215144 0.03750632342215144 -0.11742958614857739 0
-0.03750632342215144 -0.03750632342215144 -0.11742958614857733 0
-4.5588903235987744e-18 -6.0785204314650323e-18 -0.11093018465465403 0
0.041343175207733868 0.041343175207733868 -0.10393525061065756 0
-0.041343175207733784 -0.041343175207733784 -0.1039352506106575 0
0.016232375394935824 -0.016232375394935824 0.23257216222577437 0
-0.016232375394935796 0.016232375394935796 0.23257216222577437 0
1.1420774131877354e-17 -9.903290270517669e-18 0.37598192364609201 0
2.8981278630701571e-18 6.4393273116668727e-18 0.20755357998758386 0
-0.00047362988515630767 0.00047362988515630767 0.37653320180832295 0
0.00047362988515633542 -0.00047362988515633542 0.37653320180832295 0
1.1139316881621794e-19 1.1245483725773881e-19 0.37841987411567174 0
2.5680971062298458e-17 2.6052205510505757e-17 0.0027289686226018716 0
2.3984185584218105e-17 2.3667018763711914e-17 -0.11070211774799313 0
Hexahedra
38
1 4 3 2 21 26 33 24 0
9 5 3 7 28 31 34 30 0
3 2 24 33 35 23 14 37 0
3 33 26 4 36 38 10 27 0
3 34 31 5 35 39 18 32 0
3 7 30 34 36 29 16 40 0
33 3 35 37 38 36 41 42 0
34 39 35 3 40 43 41 36 0
3 2 23 35 5 6 22 32 0
3 36 27 4 7 29 25 8 0
23 35 32 22 44 41 45 46 0
27 25 29 36 44 46 45 41 0
23 35 41 44 14 37 42 47 0
27 44 41 36 10 47 42 38 0
32 45 41 35 18 48 43 39 0
29 36 41 45 16 40 43 48 0
37 33 38 42 49 51 50 52 0
39 43 40 34 49 52 50 51 0
33 26 10 38 51 53 11 50 0
33 37 14 24 51 49 15 54 0
34 40 16 30 51 50 11 53 0
34 31 18 39 51 54 15 49 0
24 33 51 54 21 26 53 55 0
31 54 51 34 28 55 53 30 0
42 37 49 52 47 14 15 56 0
42 52 50 38 47 56 11 10 0
43 52 49 39 48 56 15 18 0
43 40 50 52 48 16 11 56 0
26 10 11 53 21 13 12 55 0
24 54 15 14 21 55 12 13 0
30 53 11 16 28 55 12 17 0
31 18 15 54 28 17 12 55 0
47 56 11 10 57 48 16 19 0
47 14 15 56 57 20 18 48 0
27 44 47 10 25 46 57 19 0
23 14 47 44 22 20 57 46 0
29 16 48 45 25 19 57 46 0
32 45 48 18 22 46 57 20 0
Quadrilaterals
30
1 2 3 4 0
5 3 2 6 0
3 7 8 4 0
5 9 7 3 0
10 11 12 13 0
14 13 12 15 0
11 16 17 12 0
15 12 17 18 0
10 19 16 11 0
18 20 14 15 0
6 2 23 22 0
23 2 24 14 0
22 23 14 20 0
24 2 1 21 0
14 24 21 13 0
1 4 26 21 0
26 4 27 10 0
21 26 10 13 0
27 4 8 25 0
10 27 25 19 0
8 7 29 25 0
29 7 30 16 0
25 29 16 19 0
30 7 9 28 0
16 30 28 17 0
9 5 31 28 0
31 5 32 18 0
28 31 18 17 0
32 5 6 22 0
18 32 22 20 0
End
