MeshVersionFormatted 2
Dimension 3
Vertices
70
1 1 -0.58333333333333337 0
1 0 -0.58333333333333337 0
0 0 -0.58333333333333337 0
0 1 -0.58333333333333337 0
0 -1 -0.58333333333333337 0
1 -1 -0.58333333333333337 0
-1 0 -0.58333333333333337 0
-1 1 -0.58333333333333337 0
-1 -1 -0.58333333333333337 0
0 1 0.58333333333333337 0
-0.38475799166666663 0.38475799166666663 0.58333333333333337 0
0 0 0.58333333333333337 0
1 1 0.58333333333333337 0
1 0 0.58333333333333337 0
0.38475799166666663 -0.38475799166666663 0.58333333333333337 0
-1 0 0.58333333333333337 0
-1 -1 0.58333333333333337 0
0 -1 0.58333333333333337 0
-1 1 0.58333333333333337 0
1 -1 0.58333333333333337 0
1 1 -0.19444444444444445 0
1 1 0.19444444444444445 0
1 -1 0.19444444444444445 0
1 -1 -0.19444444444444445 0
1 0 -0.19444444444444445 0
1 0 0.19444444444444445 0
-1 1 -0.19444444444444445 0
-1 1 0.19444444444444445 0
0 1 -0.19444444444444445 0
0 1 0.19444444444444445 0
-1 -1 -0.19444444444444445 0
-1 -1 0.19444444444444445 0
-1 0 -0.19444444444444445 0
-1 0 0.19444444444444445 0
0 -1 -0.19444444444444445 0
0 -1 0.19444444444444445 0
0 0 -0.41543388543210774 0
0.43611218628907406 0.43611218628907406 0.056643784964993532 0
-0.43611218628907406 -0.43611218628907406 0.056643784964993532 0
0.19372870404985876 0.41797148503780762 -0.065862179114007977 0
0.41797148503780762 0.19372870404985876 -0.065862179114007977 0
-0.41797148503780762 -0.19372870404985876 -0.065862179114007977 0
-0.19372870404985876 -0.41797148503780762 -0.065862179114007977 0
0.094757546253640357 0.094757546253640357 -0.23574207887172605 0
-0.094757546253640357 -0.094757546253640357 -0.23574207887172605 0
0.3113288730639589 -0.3113288730639589 0.1861008309450532 0
-0.3113288730639589 0.3113288730639589 0.1861008309450532 0
0.26307139897060405 -0.10676545955902161 0.082100665696381137 0
-0.10676545955902161 0.26307139897060405 0.082100665696381137 0
0.10676545955902161 -0.26307139897060405 0.082100665696381137 0
-0.26307139897060405 0.10676545955902161 0.082100665696381137 0
0.44461585793724495 0.1586505352232265 -0.014988597471550472 0
0.1586505352232265 0.44461585793724495 -0.014988597471550472 0
-0.1586505352232265 -0.44461585793724495 -0.014988597471550472 0
-0.44461585793724495 -0.1586505352232265 -0.014988597471550472 0
0.091273767137630982 -0.091273767137630982 0.077366227570386636 0
-0.091273767137630982 0.091273767137630982 0.077366227570386636 0
0 0 -0.024508087113995394 0
0 0 0.063533277893722706 0
-0.017552248622156399 0.017552248622156399 0.055885469724196661 0
0.017552248622156399 -0.017552248622156399 0.055885469724196661 0
-0.019399963344950109 0.019399963344950109 0.059286385791956005 0
0.019399963344950109 -0.019399963344950109 0.059286385791956005 0
0 0 0.58282812910916337 0
0.13631003932328092 0.13631003932328092 0.26303785330595486 0
-0.13631003932328092 -0.13631003932328092 0.26303785330595486 0
0 0 0.11995580046320525 0
0.4358121142424109 0.4358121142424109 0.057287115354818244 0
-0.4358121142424109 -0.4358121142424109 0.057287115354818244 0
0 0 0.065044416450146678 0
Hexahedra
44
1 4 3 2 21 29 37 25 0
9 5 3 7 31 35 37 33 0
3 2 25 37 5 6 24 35 0
3 37 29 4 7 33 27 8 0
21 29 37 25 38 40 44 41 0
31 35 37 33 39 43 45 42 0
25 37 35 24 26 46 36 23 0
29 27 33 37 30 28 34 47 0
25 37 46 26 41 44 48 52 0
29 30 47 37 40 53 49 44 0
35 36 46 37 43 54 50 45 0
33 37 47 34 42 45 51 55 0
37 46 48 44 45 50 56 58 0
37 44 49 47 45 58 57 51 0
38 40 44 41 59 60 58 61 0
39 43 45 42 59 61 58 60 0
40 44 58 60 53 49 57 62 0
41 61 58 44 52 63 56 48 0
42 60 58 45 55 62 57 51 0
43 45 58 61 54 50 56 63 0
46 48 56 50 64 65 67 66 0
47 51 57 49 64 66 67 65 0
25 21 38 41 26 22 68 52 0
29 40 38 21 30 53 68 22 0
35 43 39 31 36 54 69 32 0
33 31 39 42 34 32 69 55 0
46 26 52 48 64 22 68 65 0
47 49 53 30 64 65 68 22 0
46 50 54 36 64 66 69 32 0
47 34 55 51 64 32 69 66 0
46 26 22 64 15 14 13 12 0
47 64 22 30 11 12 13 10 0
46 64 32 36 15 12 17 18 0
47 34 32 64 11 16 17 12 0
26 46 36 23 14 15 18 20 0
30 28 34 47 10 19 16 11 0
40 38 68 53 60 59 70 62 0
41 52 68 38 61 63 70 59 0
42 55 69 39 60 62 70 59 0
43 39 69 54 61 59 70 63 0
52 48 65 68 63 56 67 70 0
53 68 65 49 62 70 67 57 0
54 69 66 50 63 70 67 56 0
55 51 66 69 62 57 67 70 0
Quadrilaterals
34
1 2 3 4 0
5 3 2 6 0
3 7 8 4 0
5 9 7 3 0
10 11 12 13 0
14 13 12 15 0
11 16 17 12 0
15 12 17 18 0
10 19 16 11 0
18 20 14 15 0
6 2 25 24 0
25 2 1 21 0
24 25 26 23 0
25 21 22 26 0
23 26 14 20 0
26 22 13 14 0
1 4 29 21 0
29 4 8 27 0
21 29 30 22 0
29 27 28 30 0
22 30 10 13 0
30 28 19 10 0
8 7 33 27 0
33 7 9 31 0
27 33 34 28 0
33 31 32 34 0
28 34 16 19 0
34 32 17 16 0
9 5 35 31 0
35 5 6 24 0
31 35 36 32 0
35 24 23 36 0
32 36 18 17 0
36 23 20 18 0
End
