MeshVersionFormatted 2
Dimension 3
Vertices
68
1 1 -0.58333333333333337 0
1 0 -0.58333333333333337 0
0 0 -0.58333333333333337 0
0 1 -0.58333333333333337 0
0 -1 -0.58333333333333337 0
1 -1 -0.58333333333333337 0
-1 0 -0.58333333333333337 0
-1 1 -0.58333333333333337 0
-1 -1 -0.58333333333333337 0
0 1 0.58333333333333337 0
-0.38475799166666663 0.38475799166666663 0.58333333333333337 0
0 0 0.58333333333333337 0
1 1 0.58333333333333337 0
1 0 0.58333333333333337 0
0.38475799166666663 -0.38475799166666663 0.58333333333333337 0
-1 0 0.58333333333333337 0
-1 -1 0.58333333333333337 0
0 -1 0.58333333333333337 0
-1 1 0.58333333333333337 0
1 -1 0.58333333333333337 0
1 1 -0.19444444444444445 0
1 1 0.19444444444444445 0
1 -1 0.19444444444444445 0
1 -1 -0.19444444444444445 0
1 0 -0.19444444444444445 0
1 0 0.19444444444444445 0
-1 1 -0.19444444444444445 0
-1 1 0.19444444444444445 0
0 1 -0.19444444444444445 0
0 1 0.19444444444444445 0
-1 -1 -0.19444444444444445 0
-1 -1 0.19444444444444445 0
-1 0 -0.19444444444444445 0
-1 0 0.19444444444444445 0
0 -1 -0.19444444444444445 0
0 -1 0.19444444444444445 0
0 0 -0.18433994433841988 0
0 0 -0.1836099954025858 0
0.56816315447802967 0.56816315447802967 0.3454289597545141 0
-0.56816315447802967 -0.56816315447802967 0.3454289597545141 0
0.16863460243763023 0.48256407523993877 0.166032433321466 0
0.48256407523993877 0.16863460243763023 0.166032433321466 0
-0.48256407523993877 -0.16863460243763023 0.166032433321466 0
-0.16863460243763023 -0.48256407523993877 0.166032433321466 0
0.033797138544357723 0.033797138544357723 -0.11852428541121567 0
-0.033797138544357723 -0.033797138544357723 -0.11852428541121567 0
0.034886305210392217 0.59648881159462186 0.40037020159030773 0
0.59648881159462186 0.034886305210392217 0.40037020159030773 0
-0.59648881159462186 -0.034886305210392217 0.40037020159030773 0
-0.034886305210392217 -0.59648881159462186 0.40037020159030773 0
-0.2344921323951086 0.39179130940230944 0.50222486661576282 0
0.39179130940230944 -0.2344921323951086 0.50222486661576282 0
-0.39179130940230944 0.2344921323951086 0.50222486661576282 0
0.2344921323951086 -0.39179130940230944 0.50222486661576282 0
0 0 -0.077087864678896917 0
-0.2064369126808501 0.2064369126808501 0.47163403005882204 0
0.2064369126808501 -0.2064369126808501 0.47163403005882204 0
0 0 0.28999477586633815 0
-0.032067600992262836 0.032067600992262836 0.1968473735440773 0
0.032067600992262836 -0.032067600992262836 0.1968473735440773 0
-0.13650407814912785 0.13650407814912785 0.39497480704465854 0
0.13650407814912785 -0.13650407814912785 0.39497480704465854 0
0.01094364403904368 0.01094364403904368 0.57397347507901719 0
-0.01094364403904368 -0.01094364403904368 0.57397347507901719 0
0 0 0.51646880648553384 0
0.55933295142360973 0.55933295142360973 0.3583253162838419 0
-0.55933295142360973 -0.55933295142360973 0.3583253162838419 0
0 0 0.31590840182940078 0
Hexahedra
42
1 4 3 2 21 29 37 25 0
9 5 3 7 31 35 37 33 0
3 2 25 37 5 6 24 35 0
3 37 29 4 7 33 27 8 0
21 29 37 25 22 30 38 26 0
31 35 37 33 32 36 38 34 0
25 37 35 24 26 38 36 23 0
29 27 33 37 30 28 34 38 0
22 30 38 26 39 41 45 42 0
32 36 38 34 40 44 46 43 0
26 38 36 23 14 15 18 20 0
30 28 34 38 10 19 16 11 0
38 30 10 11 45 41 47 51 0
38 15 14 26 45 52 48 42 0
38 11 16 34 46 53 49 43 0
38 36 18 15 46 44 50 54 0
11 38 45 51 53 46 55 56 0
15 52 45 38 54 57 55 46 0
39 41 45 42 58 59 55 60 0
40 44 46 43 58 60 55 59 0
41 45 55 59 47 51 56 61 0
42 60 55 45 48 62 57 52 0
43 59 55 46 49 61 56 53 0
44 46 55 60 50 54 57 62 0
51 11 53 56 63 12 64 65 0
52 57 54 15 63 65 64 12 0
10 11 51 47 13 12 63 66 0
14 48 52 15 13 66 63 12 0
16 49 53 11 17 67 64 12 0
18 15 54 50 17 12 64 67 0
30 10 47 41 22 13 66 39 0
26 42 48 14 22 39 66 13 0
34 43 49 16 32 40 67 17 0
36 18 50 44 32 17 67 40 0
47 41 39 66 61 59 58 68 0
48 66 39 42 62 68 58 60 0
49 67 40 43 61 68 58 59 0
50 44 40 67 62 60 58 68 0
51 47 66 63 56 61 68 65 0
52 63 66 48 57 65 68 62 0
53 64 67 49 56 65 68 61 0
54 50 67 64 57 62 68 65 0
Quadrilaterals
34
1 2 3 4 0
5 3 2 6 0
3 7 8 4 0
5 9 7 3 0
10 11 12 13 0
14 13 12 15 0
11 16 17 12 0
15 12 17 18 0
10 19 16 11 0
18 20 14 15 0
6 2 25 24 0
25 2 1 21 0
24 25 26 23 0
25 21 22 26 0
23 26 14 20 0
26 22 13 14 0
1 4 29 21 0
29 4 8 27 0
21 29 30 22 0
29 27 28 30 0
22 30 10 13 0
30 28 19 10 0
8 7 33 27 0
33 7 9 31 0
27 33 34 28 0
33 31 32 34 0
28 34 16 19 0
34 32 17 16 0
9 5 35 31 0
35 5 6 24 0
31 35 36 32 0
35 24 23 36 0
32 36 18 17 0
36 23 20 18 0
End
