MeshVersionFormatted 2
Dimension 3
Vertices
66
1 1 -0.58333333333333337 0
1 0 -0.58333333333333337 0
0 0 -0.58333333333333337 0
0 1 -0.58333333333333337 0
0 -1 -0.58333333333333337 0
1 -1 -0.58333333333333337 0
-1 0 -0.58333333333333337 0
-1 1 -0.58333333333333337 0
-1 -1 -0.58333333333333337 0
0 1 0.58333333333333337 0
-0.38475799166666663 0.38475799166666663 0.58333333333333337 0
0 0 0.58333333333333337 0
1 1 0.58333333333333337 0
1 0 0.58333333333333337 0
0.38475799166666663 -0.38475799166666663 0.58333333333333337 0
-1 0 0.58333333333333337 0
-1 -1 0.58333333333333337 0
0 -1 0.58333333333333337 0
-1 1 0.58333333333333337 0
1 -1 0.58333333333333337 0
1 1 -0.19444444444444445 0
1 1 0.58333332333333332 0
1 -1 0.58333332333333332 0
1 -1 -0.19444444444444445 0
1 0 -0.40391031186571796 0
1 -0.64937703531519719 0.40568289751765235 0
1 0.64937703531519719 0.40568289751765235 0
-1 1 -0.19444444444444445 0
-1 1 0.58333332333333332 0
0 1 -0.40391031186571796 0
0.64937703531519719 1 0.40568289751765235 0
-0.64937703531519719 1 0.40568289751765235 0
-1 -1 -0.19444444444444445 0
-1 -1 0.58333332333333332 0
-1 0 -0.40391031186571796 0
-1 0.64937703531519719 0.40568289751765235 0
-1 -0.64937703531519719 0.40568289751765235 0
0 -1 -0.40391031186571796 0
-0.64937703531519719 -1 0.40568289751765235 0
0.64937703531519719 -1 0.40568289751765235 0
1.2335811384723961e-17 0 -0.58333332333333332 0
0.54411347435932644 0.54411347435932644 0.19773621964996424 0
-0.54411347435932633 -0.54411347435932644 0.19773621964996424 0
0.0001798755602653895 -0.0001798755602653895 -0.58184436495954284 0
-0.00017987556026533399 0.0001798755602653895 -0.58184436495954284 0
0.5455189818203241 0.44444870946423271 0.20278471241102641 0
0.44444870946423271 0.5455189818203241 0.20278471241102641 0
-0.44444870946423271 -0.5455189818203241 0.20278471241102636 0
-0.5455189818203241 -0.44444870946423271 0.20278471241102641 0
1.480809934506961e-17 2.4680165575116018e-18 -0.58147036494252935 0
0.38230952394387191 0.38230952394387191 0.097364717285434374 0
-0.38230952394387191 -0.38230952394387191 0.097364717285434318 0
0.078230913347375253 0.078230913347375253 -0.052822394384934822 0
-0.078230913347375225 -0.078230913347375225 -0.052822394384934766 0
4.5590732226943881e-18 4.5590732226943881e-18 -0.039717989156755895 0
0.08821536007874671 0.08821536007874671 -0.024443230890755473 0
-0.08821536007874671 -0.08821536007874671 -0.024443230890755584 0
0.0085979416903988453 -0.0085979416903988453 0.34956597125398009 0
-0.0085979416903988175 0.0085979416903988453 0.34956597125398009 0
1.6533451930549149e-17 -1.079562298245877e-17 0.43761920915343611 0
1.5360381091861936e-17 1.0842621947196661e-17 0.34075933444598222 0
-0.098301823795266197 0.098301823795266197 0.49818863846578709 0
0.098301823795266252 -0.098301823795266252 0.49818863846578715 0
6.1552273150940929e-18 -6.0085355936164644e-18 0.5325961907617458 0
1.7525853218403565e-17 1.6526986543527422e-17 0.19419057488894406 0
1.1625963858984528e-17 1.141066438303829e-17 -0.038532389986693241 0
Hexahedra
42
1 4 3 2 21 30 41 25 0
9 5 3 7 33 38 41 35 0
3 2 25 41 5 6 24 38 0
3 41 30 4 7 35 28 8 0
21 30 41 25 22 31 42 27 0
33 38 41 35 34 39 43 37 0
25 41 38 24 26 44 40 23 0
30 28 35 41 32 29 36 45 0
25 41 44 26 27 42 46 14 0
30 32 45 41 31 10 47 42 0
38 40 44 41 39 18 48 43 0
35 41 45 36 37 43 49 16 0
41 44 46 42 45 50 51 47 0
41 43 48 44 45 49 52 50 0
26 44 40 23 53 50 54 55 0
32 29 36 45 53 55 54 50 0
26 44 50 53 14 46 51 56 0
32 53 50 45 10 56 51 47 0
40 54 50 44 18 57 52 48 0
36 45 50 54 16 49 52 57 0
46 42 47 51 58 60 59 61 0
48 52 49 43 58 61 59 60 0
31 10 47 42 62 11 59 60 0
27 42 46 14 63 60 58 15 0
37 43 49 16 62 60 59 11 0
39 18 48 43 63 15 58 60 0
27 42 60 63 22 31 62 64 0
39 63 60 43 34 64 62 37 0
51 46 58 61 56 14 15 65 0
51 61 59 47 56 65 11 10 0
52 61 58 48 57 65 15 18 0
52 49 59 61 57 16 11 65 0
31 10 11 62 22 13 12 64 0
27 63 15 14 22 64 12 13 0
37 62 11 16 34 64 12 17 0
39 18 15 63 34 17 12 64 0
56 65 11 10 66 57 16 19 0
56 14 15 65 66 20 18 57 0
32 53 56 10 29 55 66 19 0
26 14 56 53 23 20 66 55 0
36 16 57 54 29 19 66 55 0
40 54 57 18 23 55 66 20 0
Quadrilaterals
38
1 2 3 4 0
5 3 2 6 0
3 7 8 4 0
5 9 7 3 0
10 11 12 13 0
14 13 12 15 0
11 16 17 12 0
15 12 17 18 0
10 19 16 11 0
18 20 14 15 0
6 2 25 24 0
25 2 1 21 0
24 25 26 23 0
25 21 22 27 0
26 25 27 14 0
23 26 14 20 0
27 22 13 14 0
1 4 30 21 0
30 4 8 28 0
21 30 31 22 0
30 28 29 32 0
31 30 32 10 0
22 31 10 13 0
32 29 19 10 0
8 7 35 28 0
35 7 9 33 0
28 35 36 29 0
35 33 34 37 0
36 35 37 16 0
29 36 16 19 0
37 34 17 16 0
9 5 38 33 0
38 5 6 24 0
33 38 39 34 0
38 24 23 40 0
39 38 40 18 0
34 39 18 17 0
40 23 20 18 0
End
