MeshVersionFormatted 2
Dimension 3
Vertices
68
1 1 -0.58333333333333337 0
1 0 -0.58333333333333337 0
0 0 -0.58333333333333337 0
0 1 -0.58333333333333337 0
0 -1 -0.58333333333333337 0
1 -1 -0.58333333333333337 0
-1 0 -0.58333333333333337 0
-1 1 -0.58333333333333337 0
-1 -1 -0.58333333333333337 0
0 1 0.58333333333333337 0
-0.38475799166666663 0.38475799166666663 0.58333333333333337 0
0 0 0.58333333333333337 0
1 1 0.58333333333333337 0
1 0 0.58333333333333337 0
0.38475799166666663 -0.38475799166666663 0.58333333333333337 0
-1 0 0.58333333333333337 0
-1 -1 0.58333333333333337 0
0 -1 0.58333333333333337 0
-1 1 0.58333333333333337 0
1 -1 0.58333333333333337 0
1 1 -0.19444444444444442 0
1 1 0.19444444444444442 0
1 -1 0.19444444444444442 0
1 -1 -0.19444444444444442 0
1 -0.33333333333333331 -0.22435897435897437 0
1 0.33333333333333331 -0.22435897435897437 0
1 0 0.1047008547008547 0
-1 1 -0.19444444444444442 0
-1 1 0.19444444444444442 0
0.33333333333333331 1 -0.22435897435897437 0
-0.33333333333333331 1 -0.22435897435897437 0
0 1 0.1047008547008547 0
-1 -1 -0.19444444444444442 0
-1 -1 0.19444444444444442 0
-1 0.33333333333333331 -0.22435897435897437 0
-1 -0.33333333333333331 -0.22435897435897437 0
-1 0 0.1047008547008547 0
-0.33333333333333331 -1 -0.22435897435897437 0
0.33333333333333331 -1 -0.22435897435897437 0
0 -1 0.1047008547008547 0
0.27986882880464359 0.27986882880464359 -0.24971228217822908 0
-0.27986882880464359 -0.27986882880464359 -0.24971228217822908 0
0.20684999745562732 -0.20684999745562732 -0.44591499217520836 0
-0.20684999745562732 0.20684999745562732 -0.44591499217520836 0
0.27500308595388662 0.22428010743296184 -0.2157840753497251 0
0.22428010743296184 0.27500308595388662 -0.2157840753497251 0
-0.22428010743296184 -0.27500308595388662 -0.2157840753497251 0
-0.27500308595388662 -0.22428010743296184 -0.2157840753497251 0
0 0 -0.31398065332685221 0
0.077545314272942353 0.077545314272942353 -0.16275721101796375 0
-0.077545314272942353 -0.077545314272942353 -0.16275721101796375 0
0.0064210704321062224 0.0064210704321062224 -0.15897257731307193 0
-0.0064210704321062224 -0.0064210704321062224 -0.15897257731307193 0
0 0 -0.14236585161104495 0
0.0096452300307028286 0.0096452300307028286 -0.14123171809805793 0
-0.0096452300307028286 -0.0096452300307028286 -0.14123171809805793 0
0.010163847614481289 -0.010163847614481289 0.051101524139973264 0
-0.010163847614481289 0.010163847614481289 0.051101524139973264 0
0 0 0.15183619099418114 0
0 0 0.013310413687143804 0
0.00027501633184150349 -0.00027501633184150349 0.15446613420165692 0
-0.00027501633184150349 0.00027501633184150349 0.15446613420165692 0
0.1296786869627167 -0.1296786869627167 0.3335342998274391 0
-0.1296786869627167 0.1296786869627167 0.3335342998274391 0
0 0 0.1548740364866398 0
0 0 -0.089114137597818555 0
0 0 -0.14214241499963298 0
0 0 0.23958924633493262 0
Hexahedra
44
1 4 3 2 21 30 41 26 0
9 5 3 7 33 38 42 36 0
3 2 26 41 43 25 27 45 0
3 41 30 4 44 46 32 31 0
3 42 38 5 43 47 40 39 0
3 7 36 42 44 35 37 48 0
41 3 43 45 46 44 49 50 0
42 47 43 3 48 51 49 44 0
3 2 25 43 5 6 24 39 0
3 44 31 4 7 35 28 8 0
25 43 39 24 52 49 53 54 0
31 28 35 44 52 54 53 49 0
25 43 49 52 27 45 50 55 0
31 52 49 44 32 55 50 46 0
39 53 49 43 40 56 51 47 0
35 44 49 53 37 48 51 56 0
45 41 46 50 57 59 58 60 0
47 51 48 42 57 60 58 59 0
26 41 45 27 61 59 57 63 0
30 32 46 41 62 64 58 59 0
38 40 47 42 61 63 57 59 0
36 42 48 37 62 59 58 64 0
26 41 59 61 21 30 62 65 0
38 61 59 42 33 65 62 36 0
50 45 57 60 55 27 63 66 0
50 60 58 46 55 66 64 32 0
51 60 57 47 56 66 63 40 0
51 48 58 60 56 37 64 66 0
52 25 27 55 54 24 23 67 0
52 55 32 31 54 67 29 28 0
53 56 40 39 54 67 23 24 0
53 35 37 56 54 28 29 67 0
55 27 63 66 67 23 40 56 0
55 66 64 32 67 56 37 29 0
27 63 40 23 14 15 18 20 0
32 29 37 64 10 19 16 11 0
27 26 61 63 22 21 65 68 0
32 64 62 30 22 68 65 21 0
40 63 61 38 34 68 65 33 0
37 36 62 64 34 33 65 68 0
63 27 22 68 15 14 13 12 0
64 68 22 32 11 12 13 10 0
63 68 34 40 15 12 17 18 0
64 37 34 68 11 16 17 12 0
Quadrilaterals
38
1 2 3 4 0
5 3 2 6 0
3 7 8 4 0
5 9 7 3 0
10 11 12 13 0
14 13 12 15 0
11 16 17 12 0
15 12 17 18 0
10 19 16 11 0
18 20 14 15 0
6 2 25 24 0
25 2 26 27 0
24 25 27 23 0
26 2 1 21 0
27 26 21 22 0
23 27 14 20 0
27 22 13 14 0
1 4 30 21 0
30 4 31 32 0
21 30 32 22 0
31 4 8 28 0
32 31 28 29 0
22 32 10 13 0
32 29 19 10 0
8 7 35 28 0
35 7 36 37 0
28 35 37 29 0
36 7 9 33 0
37 36 33 34 0
29 37 16 19 0
37 34 17 16 0
9 5 38 33 0
38 5 39 40 0
33 38 40 34 0
39 5 6 24 0
40 39 24 23 0
34 40 18 17 0
40 23 20 18 0
End
