MeshVersionFormatted 2
Dimension 3
Vertices
68
1 1 -0.58333333333333337 0
1 0 -0.58333333333333337 0
0 0 -0.58333333333333337 0
0 1 -0.58333333333333337 0
0 -1 -0.58333333333333337 0
1 -1 -0.58333333333333337 0
-1 0 -0.58333333333333337 0
-1 1 -0.58333333333333337 0
-1 -1 -0.58333333333333337 0
0 1 0.58333333333333337 0
-0.38475799166666663 0.38475799166666663 0.58333333333333337 0
0 0 0.58333333333333337 0
1 1 0.58333333333333337 0
1 0 0.58333333333333337 0
0.38475799166666663 -0.38475799166666663 0.58333333333333337 0
-1 0 0.58333333333333337 0
-1 -1 0.58333333333333337 0
0 -1 0.58333333333333337 0
-1 1 0.58333333333333337 0
1 -1 0.58333333333333337 0
1 1 -0.20458241333173177 0
1 1 0.48182448065496469 0
1 -1 0.48182448065496469 0
1 -1 -0.20458241333173177 0
1 0 -0.061533908826848449 0
1 -0.51320008483183155 0.42668029650527245 0
1 0.51320008483183155 0.42668029650527245 0
-1 1 -0.20458241333173177 0
-1 1 0.48182448065496469 0
0 1 -0.061533908826848449 0
0.51320008483183155 1 0.42668029650527245 0
-0.51320008483183155 1 0.42668029650527245 0
-1 -1 -0.20458241333173177 0
-1 -1 0.48182448065496469 0
-1 0 -0.061533908826848449 0
-1 0.51320008483183155 0.42668029650527245 0
-1 -0.51320008483183155 0.42668029650527245 0
0 -1 -0.061533908826848449 0
-0.51320008483183155 -1 0.42668029650527245 0
0.51320008483183155 -1 0.42668029650527245 0
-6.1679056923619804e-18 0 -0.0020745037444465202 0
0.31917186424996064 0.31917186424996069 0.38385476004929542 0
-0.31917186424996069 -0.31917186424996069 0.38385476004929542 0
0.27471803405751077 -0.27471803405751077 0.18168560701879216 0
-0.27471803405751077 0.27471803405751077 0.18168560701879222 0
0.39930524717742627 0.1525011935342514 0.39791505389220883 0
0.15250119353425134 0.39930524717742638 0.39791505389220894 0
-0.1525011935342514 -0.39930524717742633 0.39791505389220883 0
-0.39930524717742638 -0.15250119353425134 0.39791505389220888 0
-2.4655020062335241e-18 7.3965060187005726e-18 0.21714142639039835 0
0.1214563005622516 0.12145630056225162 0.31176820158337454 0
-0.12145630056225162 -0.1214563005622516 0.31176820158337448 0
0.020922743993264575 0.020922743993264575 0.24692693847428082 0
-0.020922743993264575 -0.020922743993264575 0.24692693847428082 0
7.5970666925146688e-18 7.5970666925146688e-18 0.29887661347404337 0
0.021703695371325483 0.021703695371325483 0.24751108460618529 0
-0.021703695371325483 -0.021703695371325483 0.24751108460618523 0
0.17473484420863547 -0.17473484420863544 0.46219161294643207 0
-0.17473484420863547 0.1747348442086355 0.46219161294643196 0
8.6142778167540438e-19 1.0020800781368827e-17 0.51779990805019693 0
-4.5852573645596898e-18 3.3243115893057751e-17 0.41362062005458 0
-0.085753137027790624 0.085753137027790624 0.53543466216048796 0
0.085753137027790624 -0.085753137027790624 0.53543466216048796 0
-6.5503301522610614e-18 6.5589560723470886e-18 0.53795761043239654 0
-2.4547565428881411e-17 3.6821348143322118e-17 0.30738033756319483 0
0.32043944778103428 -0.32043944778103428 0.43239023591306275 0
-0.32043944778103439 0.32043944778103439 0.43239023591306275 0
5.6143097767333795e-18 5.6143097767333795e-18 0.29913431607402108 0
Hexahedra
44
1 4 3 2 21 30 41 25 0
9 5 3 7 33 38 41 35 0
3 2 25 41 5 6 24 38 0
3 41 30 4 7 35 28 8 0
21 30 41 25 22 31 42 27 0
33 38 41 35 34 39 43 37 0
25 41 38 24 26 44 40 23 0
30 28 35 41 32 29 36 45 0
25 41 44 26 27 42 46 14 0
30 32 45 41 31 10 47 42 0
38 40 44 41 39 18 48 43 0
35 41 45 36 37 43 49 16 0
41 44 46 42 45 50 51 47 0
41 43 48 44 45 49 52 50 0
26 44 40 23 53 50 54 55 0
32 29 36 45 53 55 54 50 0
26 44 50 53 14 46 51 56 0
32 53 50 45 10 56 51 47 0
40 54 50 44 18 57 52 48 0
36 45 50 54 16 49 52 57 0
46 42 47 51 58 60 59 61 0
48 52 49 43 58 61 59 60 0
31 10 47 42 62 11 59 60 0
27 42 46 14 63 60 58 15 0
37 43 49 16 62 60 59 11 0
39 18 48 43 63 15 58 60 0
27 42 60 63 22 31 62 64 0
39 63 60 43 34 64 62 37 0
51 46 58 61 65 66 48 52 0
51 61 59 47 65 52 49 67 0
46 58 48 66 14 15 18 20 0
47 67 49 59 10 19 16 11 0
10 56 51 47 19 68 65 67 0
14 46 51 56 20 66 65 68 0
16 49 52 57 19 67 65 68 0
18 57 52 48 20 68 65 66 0
32 53 56 10 29 55 68 19 0
26 14 56 53 23 20 68 55 0
36 16 57 54 29 19 68 55 0
40 54 57 18 23 55 68 20 0
31 10 11 62 22 13 12 64 0
27 63 15 14 22 64 12 13 0
37 62 11 16 34 64 12 17 0
39 18 15 63 34 17 12 64 0
Quadrilaterals
38
1 2 3 4 0
5 3 2 6 0
3 7 8 4 0
5 9 7 3 0
10 11 12 13 0
14 13 12 15 0
11 16 17 12 0
15 12 17 18 0
10 19 16 11 0
18 20 14 15 0
6 2 25 24 0
25 2 1 21 0
24 25 26 23 0
25 21 22 27 0
26 25 27 14 0
23 26 14 20 0
27 22 13 14 0
1 4 30 21 0
30 4 8 28 0
21 30 31 22 0
30 28 29 32 0
31 30 32 10 0
22 31 10 13 0
32 29 19 10 0
8 7 35 28 0
35 7 9 33 0
28 35 36 29 0
35 33 34 37 0
36 35 37 16 0
29 36 16 19 0
37 34 17 16 0
9 5 38 33 0
38 5 6 24 0
33 38 39 34 0
38 24 23 40 0
39 38 40 18 0
34 39 18 17 0
40 23 20 18 0
End
