MeshVersionFormatted 2
Dimension 3
Vertices
68
1 1 -0.58333333333333337 0
1 0 -0.58333333333333337 0
0 0 -0.58333333333333337 0
0 1 -0.58333333333333337 0
0 -1 -0.58333333333333337 0
1 -1 -0.58333333333333337 0
-1 0 -0.58333333333333337 0
-1 1 -0.58333333333333337 0
-1 -1 -0.58333333333333337 0
0 1 0.58333333333333337 0
-0.38475799166666663 0.38475799166666663 0.58333333333333337 0
0 0 0.58333333333333337 0
1 1 0.58333333333333337 0
1 0 0.58333333333333337 0
0.38475799166666663 -0.38475799166666663 0.58333333333333337 0
-1 0 0.58333333333333337 0
-1 -1 0.58333333333333337 0
0 -1 0.58333333333333337 0
-1 1 0.58333333333333337 0
1 -1 0.58333333333333337 0
1 1 -0.10254621069459043 0
1 1 0.5694072822443107 0
1 -1 0.5694072822443107 0
1 -1 -0.10254621069459043 0
1 0 -0.35387526015860615 0
1 -0.53753657146308098 0.34975928308238519 0
1 0.53753657146308098 0.34975928308238519 0
-1 1 -0.10254621069459043 0
-1 1 0.5694072822443107 0
0 1 -0.35387526015860615 0
0.53753657146308098 1 0.34975928308238519 0
-0.53753657146308098 1 0.34975928308238519 0
-1 -1 -0.10254621069459043 0
-1 -1 0.5694072822443107 0
-1 0 -0.35387526015860615 0
-1 0.53753657146308098 0.34975928308238519 0
-1 -0.53753657146308098 0.34975928308238519 0
0 -1 -0.35387526015860615 0
-0.53753657146308098 -1 0.34975928308238519 0
0.53753657146308098 -1 0.34975928308238519 0
-3.0839528461809902e-18 -3.0839528461809902e-18 -0.58333332333333332 0
0.49716096497415707 0.49716096497415707 0.22150471165269325 0
-0.49716096497415707 -0.49716096497415707 0.22150471165269325 0
0.00069124897058324528 -0.00069124897058324528 -0.58151141069529833 0
-0.00069124897058324528 0.00069124897058324528 -0.58151141069529844 0
0.51965084894003089 0.38402512447528758 0.21191518604356696 0
0.38402512447528764 0.51965084894003089 0.21191518604356691 0
-0.38402512447528764 -0.51965084894003089 0.21191518604356691 0
-0.51965084894003089 -0.38402512447528764 0.21191518604356696 0
1.232618497118594e-17 -9.8609479769487518e-18 -0.58132695246432686 0
0.32827953947110455 0.32827953947110455 0.032533519596873922 0
-0.32827953947110455 -0.32827953947110455 0.032533519596873922 0
0.0085529880733044121 0.0085529880733044121 -0.34698598511566525 0
-0.0085529880733044121 -0.0085529880733044121 -0.34698598511566525 0
7.5980666652279441e-18 4.5588399991367671e-18 -0.22049831008540718 0
0.0099213353659211977 0.0099213353659211422 -0.34471404054358629 0
-0.0099213353659211422 -0.0099213353659211422 -0.34471404054358634 0
0.052402314707311992 -0.052402314707311992 0.1643075281166311 0
-0.052402314707311992 0.052402314707311992 0.16430752811663116 0
-2.1268214379072494e-18 -1.7620196034017916e-17 0.19076829370807433 0
1.4349924928969608e-17 3.5874812322424019e-18 0.093381988627142545 0
-0.075417474899997491 0.075417474899997491 0.52026859327932562 0
0.075417474899997491 -0.075417474899997491 0.52026859327932562 0
-0.26342729478165333 0.26342729478165328 0.46824366654703531 0
0.26342729478165328 -0.26342729478165328 0.46824366654703525 0
-5.5894440509713143e-18 -1.8175910749355334e-17 0.40250802878588543 0
-3.6192374418196525e-19 -1.7046288471507873e-18 0.52495198200239834 0
2.1644638806278978e-17 1.0120936224440401e-17 -0.22032506273353844 0
Hexahedra
44
1 4 3 2 21 30 41 25 0
9 5 3 7 33 38 41 35 0
3 2 25 41 5 6 24 38 0
3 41 30 4 7 35 28 8 0
21 30 41 25 22 31 42 27 0
33 38 41 35 34 39 43 37 0
25 41 38 24 26 44 40 23 0
30 28 35 41 32 29 36 45 0
25 41 44 26 27 42 46 14 0
30 32 45 41 31 10 47 42 0
38 40 44 41 39 18 48 43 0
35 41 45 36 37 43 49 16 0
41 44 46 42 45 50 51 47 0
41 43 48 44 45 49 52 50 0
26 44 40 23 53 50 54 55 0
32 29 36 45 53 55 54 50 0
26 44 50 53 14 46 51 56 0
32 53 50 45 10 56 51 47 0
40 54 50 44 18 57 52 48 0
36 45 50 54 16 49 52 57 0
46 42 47 51 58 60 59 61 0
48 52 49 43 58 61 59 60 0
31 10 47 42 62 11 64 66 0
27 42 46 14 63 66 65 15 0
37 43 49 16 62 66 64 11 0
39 18 48 43 63 15 65 66 0
42 46 65 66 60 58 48 43 0
42 66 64 47 60 43 49 59 0
27 42 66 63 22 31 62 67 0
39 63 66 43 34 67 62 37 0
46 65 48 58 14 15 18 20 0
47 59 49 64 10 19 16 11 0
10 56 51 47 19 68 61 59 0
14 46 51 56 20 58 61 68 0
16 49 52 57 19 59 61 68 0
18 57 52 48 20 68 61 58 0
32 53 56 10 29 55 68 19 0
26 14 56 53 23 20 68 55 0
36 16 57 54 29 19 68 55 0
40 54 57 18 23 55 68 20 0
31 10 11 62 22 13 12 67 0
27 63 15 14 22 67 12 13 0
37 62 11 16 34 67 12 17 0
39 18 15 63 34 17 12 67 0
Quadrilaterals
38
1 2 3 4 0
5 3 2 6 0
3 7 8 4 0
5 9 7 3 0
10 11 12 13 0
14 13 12 15 0
11 16 17 12 0
15 12 17 18 0
10 19 16 11 0
18 20 14 15 0
6 2 25 24 0
25 2 1 21 0
24 25 26 23 0
25 21 22 27 0
26 25 27 14 0
23 26 14 20 0
27 22 13 14 0
1 4 30 21 0
30 4 8 28 0
21 30 31 22 0
30 28 29 32 0
31 30 32 10 0
22 31 10 13 0
32 29 19 10 0
8 7 35 28 0
35 7 9 33 0
28 35 36 29 0
35 33 34 37 0
36 35 37 16 0
29 36 16 19 0
37 34 17 16 0
9 5 38 33 0
38 5 6 24 0
33 38 39 34 0
38 24 23 40 0
39 38 40 18 0
34 39 18 17 0
40 23 20 18 0
End
