MeshVersionFormatted 2
Dimension 3
Vertices
48
-1 -1 0.58333333333333337 0
1 1 0.58333333333333337 0
0 0 0.58333333333333337 0
1 -1 0.58333333333333337 0
0 -1 0.58333333333333337 0
1 0 0.58333333333333337 0
0.38475799166666663 -0.38475799166666663 0.58333333333333337 0
-1 1 0.58333333333333337 0
-1 0 0.58333333333333337 0
-1 1 -0.58333333333333337 0
-1 0 -0.58333333333333337 0
-1 0.41666666666666669 0.13835449999999999 0
-1 0 0.37891710000000001 0
-1 -0.41666666666666669 0.13835449999999999 0
-1 -1 -0.58333333333333337 0
1 -1 -0.58333333333333337 0
1 0 -0.58333333333333337 0
1 -0.41666666666666669 0.13835449999999999 0
1 0 0.37891710000000001 0
1 0.41666666666666669 0.13835449999999999 0
1 1 -0.58333333333333337 0
0 1 -0.58333333333333337 0
0.41666666666666669 1 0.13835449999999999 0
0 1 0.37891710000000001 0
-0.41666666666666669 1 0.13835449999999999 0
0 1 0.58333333333333337 0
0 -1 -0.58333333333333337 0
-0.41666666666666669 -1 0.13835449999999999 0
0 -1 0.37891710000000001 0
0.41666666666666669 -1 0.13835449999999999 0
0 0 -0.58333333333333337 0
-0.38475799166666663 0.38475799166666663 0.58333333333333337 0
0.32677171666666666 0.30278148333333332 -0.14802373333333332 0
-0.3264543416666667 -0.30588370833333334 -0.14607851666666666 0
-0.34097420833333336 0.34297959166666669 -0.12550721666666667 0
-0.020506150833333334 0.44490925833333334 0.037252155833333335 0
-0.07454147916666666 0.54287874999999997 0.32633135833333332 0
-0.36313462499999999 0.18900044999999999 0.35347906666666667 0
0.0023589975833333333 -0.0011163632500000001 0.29441233333333333 0
0.36648178333333337 -0.19143359166666665 0.35062579166666663 0
0.071043267499999993 -0.54746031666666661 0.32457463333333331 0
0.018196617500000001 -0.44923317499999998 0.037384839999999996 0
0.33941197499999998 -0.34772121666666672 -0.12491675000000001 0
0.47123424166666666 -0.054731706666666664 0.060010170000000002 0
0.21500624999999998 -0.17529068333333334 0.11478483333333334 0
0.0010365913333333333 -0.0015229506666666667 0.00010379189166666666 0
-0.21333408333333334 0.17088459166666667 0.11369959166666667 0
-0.47083095833333338 0.051403154999999999 0.058568457500000004 0
Hexahedra
26
17 20 2 21 31 33 23 22 0
43 18 17 31 44 19 20 33 0
43 30 27 31 18 4 16 17 0
36 24 26 37 33 23 2 20 0
37 26 32 38 20 2 3 39 0
19 6 2 20 40 7 3 39 0
45 40 19 44 46 39 20 33 0
46 39 20 33 47 38 37 36 0
33 23 22 31 36 24 25 35 0
48 47 46 34 35 36 33 31 0
34 46 45 42 31 33 44 43 0
31 22 10 11 35 25 8 12 0
42 29 28 34 43 30 27 31 0
48 13 12 35 34 14 11 31 0
28 27 15 1 34 31 11 14 0
41 5 1 14 42 29 28 34 0
38 32 9 13 39 3 1 14 0
40 7 3 39 41 5 1 14 0
46 39 14 34 45 40 41 42 0
47 38 13 48 46 39 14 34 0
36 24 25 35 37 26 8 12 0
47 38 37 36 48 13 12 35 0
37 26 8 12 38 32 9 13 0
41 5 4 18 40 7 6 19 0
42 41 18 43 45 40 19 44 0
42 29 30 43 41 5 4 18 0
Quadrilaterals
30
17 21 2 20 0
2 21 22 23 0
21 17 31 22 0
18 17 20 19 0
18 4 16 17 0
30 27 16 4 0
27 31 17 16 0
24 26 2 23 0
26 32 3 2 0
19 20 2 6 0
6 2 3 7 0
23 22 25 24 0
31 11 10 22 0
22 10 8 25 0
10 11 12 8 0
29 28 27 30 0
13 12 11 14 0
28 1 15 27 0
27 15 11 31 0
15 1 14 11 0
5 1 28 29 0
32 9 1 3 0
9 13 14 1 0
7 3 1 5 0
24 25 8 26 0
26 8 9 32 0
8 12 13 9 0
5 4 6 7 0
4 18 19 6 0
29 30 4 5 0
End
