MeshVersionFormatted 2
Dimension 3
Vertices
50
-1 -1 0.58333333333333337 0
1 1 0.58333333333333337 0
0 0 0.58333333333333337 0
1 -1 0.58333333333333337 0
0 -1 0.58333333333333337 0
1 0 0.58333333333333337 0
0.38475799166666663 -0.38475799166666663 0.58333333333333337 0
-1 1 0.58333333333333337 0
-1 0 0.58333333333333337 0
-1 1 -0.58333333333333337 0
-1 0 -0.58333333333333337 0
-1 0.44698307823763833 0.15847561808574936 0
-1 0 0.27325458119708462 0
-1 -0.44698307823763833 0.15847561808574936 0
-1 -1 -0.58333333333333337 0
1 -1 -0.58333333333333337 0
1 0 -0.58333333333333337 0
1 -0.44698307823763833 0.15847561808574936 0
1 0 0.27325458119708462 0
1 0.44698307823763833 0.15847561808574936 0
1 1 -0.58333333333333337 0
0 1 -0.58333333333333337 0
0.44698307823763833 1 0.15847561808574936 0
0 1 0.27325458119708462 0
-0.44698307823763833 1 0.15847561808574936 0
0 1 0.58333333333333337 0
0 -1 -0.58333333333333337 0
-0.44698307823763833 -1 0.15847561808574936 0
0 -1 0.27325458119708462 0
0.44698307823763833 -1 0.15847561808574936 0
0 0 -0.58333333333333337 0
-0.38475799166666663 0.38475799166666663 0.58333333333333337 0
0.28943511423547652 0.5381712194249304 -0.034855978112309546 0
-0.29262991575501207 -0.53996888747736382 -0.033210668916979505 0
-0.49762891151335731 0.43048979353145983 -7.0980965798541972e-05 0
0.051038374368515341 0.54573099098796118 0.073225824688157998 0
0.066499776718201953 0.71244169106202593 0.42799917203998333 0
-0.23421475501777908 0.27688850456557912 0.47376210842125321 0
-0.057148414741432813 0.0035510250886512458 0.42640179389953992 0
0.28086482409900437 -0.2537606478904495 0.41357539542594296 0
-0.024484329733849508 -0.69886709376021883 0.41321510597287797 0
0.024272563456014171 -0.5514449960606409 0.12697062753231622 0
0.34706162559897669 -0.59023546455888121 0.017193948663617318 0
0.36151928470926753 -0.203415554506133 0.098696029882298919 0
0.14367301235149071 -0.20831789866649425 0.20381042810432867 0
-0.027799123022583458 0.028341045949868311 0.20135378985450805 0
-0.12489754801430088 0.30972038433296395 0.18605690276526624 0
-0.56900662211193487 0.353809601822553 0.12241645438154188 0
-0.50837717134034333 0.61985246617095036 0.26204257645397877 0
-0.28445197376399212 0.51942789129140843 0.41165019446271062 0
Hexahedra
28
17 20 2 21 31 33 23 22 0
43 18 17 31 44 19 20 33 0
43 30 27 31 18 4 16 17 0
36 24 26 37 33 23 2 20 0
37 26 32 38 20 2 3 39 0
19 6 2 20 40 7 3 39 0
45 40 19 44 46 39 20 33 0
46 39 20 33 47 38 37 36 0
33 23 22 31 36 24 25 35 0
48 47 46 34 35 36 33 31 0
34 46 45 42 31 33 44 43 0
31 22 10 11 35 25 8 12 0
42 29 28 34 43 30 27 31 0
48 13 12 35 34 14 11 31 0
28 27 15 1 34 31 11 14 0
41 5 1 14 42 29 28 34 0
38 32 9 13 39 3 1 14 0
40 7 3 39 41 5 1 14 0
46 39 14 34 45 40 41 42 0
47 38 13 48 46 39 14 34 0
41 5 4 18 40 7 6 19 0
42 41 18 43 45 40 19 44 0
42 29 30 43 41 5 4 18 0
8 9 13 12 25 49 48 35 0
8 9 49 25 26 32 50 24 0
9 13 48 49 32 38 47 50 0
49 25 24 50 48 35 36 47 0
26 32 50 24 37 38 47 36 0
Quadrilaterals
30
17 21 2 20 0
2 21 22 23 0
21 17 31 22 0
18 17 20 19 0
18 4 16 17 0
30 27 16 4 0
27 31 17 16 0
24 26 2 23 0
26 32 3 2 0
19 20 2 6 0
6 2 3 7 0
23 22 25 24 0
31 11 10 22 0
22 10 8 25 0
10 11 12 8 0
29 28 27 30 0
13 12 11 14 0
28 1 15 27 0
27 15 11 31 0
15 1 14 11 0
5 1 28 29 0
32 9 1 3 0
9 13 14 1 0
7 3 1 5 0
24 25 8 26 0
26 8 9 32 0
8 12 13 9 0
5 4 6 7 0
4 18 19 6 0
29 30 4 5 0
End
