MeshVersionFormatted 2
Dimension 3
Vertices
50
-1 -1 0.58333333333333337 0
1 1 0.58333333333333337 0
0 0 0.58333333333333337 0
1 -1 0.58333333333333337 0
0 -1 0.58333333333333337 0
1 0 0.58333333333333337 0
0.38475799166666663 -0.38475799166666663 0.58333333333333337 0
-1 1 0.58333333333333337 0
-1 0 0.58333333333333337 0
-1 1 -0.58333333333333337 0
-1 0 -0.58333333333333337 0
-1 0.44066794082463412 0.14587329268782623 0
-1 0 0.23753850070656288 0
-1 -0.44066794082463412 0.14587329268782623 0
-1 -1 -0.58333333333333337 0
1 -1 -0.58333333333333337 0
1 0 -0.58333333333333337 0
1 -0.44066794082463412 0.14587329268782623 0
1 0 0.23753850070656288 0
1 0.44066794082463412 0.14587329268782623 0
1 1 -0.58333333333333337 0
0 1 -0.58333333333333337 0
0.44066794082463412 1 0.14587329268782623 0
0 1 0.23753850070656288 0
-0.44066794082463412 1 0.14587329268782623 0
0 1 0.58333333333333337 0
0 -1 -0.58333333333333337 0
-0.44066794082463412 -1 0.14587329268782623 0
0 -1 0.23753850070656288 0
0.44066794082463412 -1 0.14587329268782623 0
0 0 -0.58333333333333337 0
-0.38475799166666663 0.38475799166666663 0.58333333333333337 0
0.25442432214334304 0.47911511929211814 -0.080781296753972706 0
-0.26663769802477261 -0.33007449154896634 -0.13618737115045196 0
-0.34725264294218083 0.58332837795091919 0.009798830596965645 0
-0.017001524133620004 0.52279304519723746 0.10182288068110677 0
0.0070830160057182368 0.66424944804221664 0.40621588001312775 0
-0.26066943604360354 0.27333082734419023 0.41650847598564555 0
-0.074771254083403779 -0.065440814290431859 0.33981433223362323 0
0.52368603836244143 -0.26507662016721978 0.40044980394436142 0
0.63755429109452522 -0.49251453653476551 0.24449427093118686 0
0.34225611745671686 -0.50883572883586148 0.084590100341972799 0
0.39564690308759637 -0.38464723926197331 -0.067083689475257724 0
0.38204316474168443 -0.19256449294649453 -0.0052469034187315761 0
0.14511428685481417 -0.46017992713786665 0.19727987836789312 0
-0.055640061186889377 -0.28888454909334937 0.15504231863627116 0
-0.13874123984533324 0.21869985060330163 0.15117503766419568 0
-0.34501417996998568 0.14587020625552363 0.03306648170832633 0
0.074560419976518647 -0.63033148592512478 0.28601595210440406 0
-0.014381216086821334 -0.51042991827954265 0.27804072263538121 0
Hexahedra
28
17 20 2 21 31 33 23 22 0
43 18 17 31 44 19 20 33 0
43 30 27 31 18 4 16 17 0
36 24 26 37 33 23 2 20 0
37 26 32 38 20 2 3 39 0
19 6 2 20 40 7 3 39 0
45 40 19 44 46 39 20 33 0
46 39 20 33 47 38 37 36 0
33 23 22 31 36 24 25 35 0
48 47 46 34 35 36 33 31 0
34 46 45 42 31 33 44 43 0
31 22 10 11 35 25 8 12 0
42 29 28 34 43 30 27 31 0
48 13 12 35 34 14 11 31 0
28 27 15 1 34 31 11 14 0
38 32 9 13 39 3 1 14 0
47 38 13 48 46 39 14 34 0
36 24 25 35 37 26 8 12 0
47 38 37 36 48 13 12 35 0
37 26 8 12 38 32 9 13 0
41 5 4 18 40 7 6 19 0
42 41 18 43 45 40 19 44 0
42 29 30 43 41 5 4 18 0
7 5 1 3 49 29 28 50 0
40 7 3 39 45 49 50 46 0
1 3 50 28 14 39 46 34 0
49 29 28 50 45 42 34 46 0
7 5 29 49 40 41 42 45 0
Quadrilaterals
30
17 21 2 20 0
2 21 22 23 0
21 17 31 22 0
18 17 20 19 0
18 4 16 17 0
30 27 16 4 0
27 31 17 16 0
24 26 2 23 0
26 32 3 2 0
19 20 2 6 0
6 2 3 7 0
23 22 25 24 0
31 11 10 22 0
22 10 8 25 0
10 11 12 8 0
29 28 27 30 0
13 12 11 14 0
28 1 15 27 0
27 15 11 31 0
15 1 14 11 0
5 1 28 29 0
32 9 1 3 0
9 13 14 1 0
7 3 1 5 0
24 25 8 26 0
26 8 9 32 0
8 12 13 9 0
5 4 6 7 0
4 18 19 6 0
29 30 4 5 0
End
