MeshVersionFormatted 2
Dimension 3
Vertices
40
1 1 -0.58333333333333337 0
1 0 -0.58333333333333337 0
0 0 -0.58333333333333337 0
0 1 -0.58333333333333337 0
0 -1 -0.58333333333333337 0
1 -1 -0.58333333333333337 0
-1 0 -0.58333333333333337 0
-1 1 -0.58333333333333337 0
-1 -1 -0.58333333333333337 0
0 1 0.58333333333333337 0
-0.38475799166666663 0.38475799166666663 0.58333333333333337 0
0 0 0.58333333333333337 0
1 1 0.58333333333333337 0
1 0 0.58333333333333337 0
0.38475799166666663 -0.38475799166666663 0.58333333333333337 0
-1 0 0.58333333333333337 0
-1 -1 0.58333333333333337 0
0 -1 0.58333333333333337 0
-1 1 0.58333333333333337 0
1 -1 0.58333333333333337 0
1 1 -0.19444444444444445 0
1 1 0.19444444444444445 0
1 -1 0.19444444444444445 0
1 -1 -0.19444444444444445 0
1 0 -0.1047008547008547 0
1 -0.33333333333333331 0.22435897435897437 0
1 0.33333333333333331 0.22435897435897437 0
-1 1 -0.19444444444444445 0
-1 1 0.19444444444444445 0
-0 1 -0.1047008547008547 0
0.33333333333333331 1 0.22435897435897437 0
-0.33333333333333331 1 0.22435897435897437 0
-1 -1 -0.19444444444444445 0
-1 -1 0.19444444444444445 0
-1 -0 -0.1047008547008547 0
-1 0.33333333333333331 0.22435897435897437 0
-1 -0.33333333333333331 0.22435897435897437 0
0 -1 -0.1047008547008547 0
-0.33333333333333331 -1 0.22435897435897437 0
0.33333333333333331 -1 0.22435897435897437 0
Hexahedra
0
Quadrilaterals
38
1 2 3 4 0
5 3 2 6 0
3 7 8 4 0
5 9 7 3 0
10 11 12 13 0
14 13 12 15 0
11 16 17 12 0
15 12 17 18 0
10 19 16 11 0
18 20 14 15 0
6 2 25 24 0
25 2 1 21 0
24 25 26 23 0
25 21 22 27 0
26 25 27 14 0
23 26 14 20 0
27 22 13 14 0
1 4 30 21 0
30 4 8 28 0
21 30 31 22 0
30 28 29 32 0
31 30 32 10 0
22 31 10 13 0
32 29 19 10 0
8 7 35 28 0
35 7 9 33 0
28 35 36 29 0
35 33 34 37 0
36 35 37 16 0
29 36 16 19 0
37 34 17 16 0
9 5 38 33 0
38 5 6 24 0
33 38 39 34 0
38 24 23 40 0
39 38 40 18 0
34 39 18 17 0
40 23 20 18 0
End
