MeshVersionFormatted 2
Dimension 3
Vertices
32
-1 -1 0.58333333333333337 0
1 1 0.58333333333333337 0
0 0 0.58333333333333337 0
1 -1 0.58333333333333337 0
0 -1 0.58333333333333337 0
1 0 0.58333333333333337 0
0.38475799166666663 -0.38475799166666663 0.58333333333333337 0
-1 1 0.58333333333333337 0
-1 0 0.58333333333333337 0
-1 1 -0.58333333333333337 0
-1 0 -0.58333333333333337 0
-1 0.41666666666666669 0.13835449999999999 0
-1 0 0.37891710000000001 0
-1 -0.41666666666666669 0.13835449999999999 0
-1 -1 -0.58333333333333337 0
1 -1 -0.58333333333333337 0
1 0 -0.58333333333333337 0
1 -0.41666666666666669 0.13835449999999999 0
1 0 0.37891710000000001 0
1 0.41666666666666669 0.13835449999999999 0
1 1 -0.58333333333333337 0
0 1 -0.58333333333333337 0
0.41666666666666669 1 0.13835449999999999 0
0 1 0.37891710000000001 0
-0.41666666666666669 1 0.13835449999999999 0
0 1 0.58333333333333337 0
0 -1 -0.58333333333333337 0
-0.41666666666666669 -1 0.13835449999999999 0
0 -1 0.37891710000000001 0
0.41666666666666669 -1 0.13835449999999999 0
0 0 -0.58333333333333337 0
-0.38475799166666663 0.38475799166666663 0.58333333333333337 0
Hexahedra
0
Quadrilaterals
30
17 21 2 20 0
2 21 22 23 0
21 17 31 22 0
18 17 20 19 0
18 4 16 17 0
30 27 16 4 0
27 31 17 16 0
24 26 2 23 0
26 32 3 2 0
19 20 2 6 0
6 2 3 7 0
23 22 25 24 0
31 11 10 22 0
22 10 8 25 0
10 11 12 8 0
29 28 27 30 0
13 12 11 14 0
28 1 15 27 0
27 15 11 31 0
15 1 14 11 0
5 1 28 29 0
32 9 1 3 0
9 13 14 1 0
7 3 1 5 0
24 25 8 26 0
26 8 9 32 0
8 12 13 9 0
5 4 6 7 0
4 18 19 6 0
29 30 4 5 0
End
