MeshVersionFormatted 2
Dimension 3
Vertices
40
1 1 -0.58333333333333337 0
1 0 -0.58333333333333337 0
0 0 -0.58333333333333337 0
0 1 -0.58333333333333337 0
0 -1 -0.58333333333333337 0
1 -1 -0.58333333333333337 0
-1 0 -0.58333333333333337 0
-1 1 -0.58333333333333337 0
-1 -1 -0.58333333333333337 0
0 1 0.58333333333333337 0
-0.38475799166666663 0.38475799166666663 0.58333333333333337 0
0 0 0.58333333333333337 0
1 1 0.58333333333333337 0
1 0 0.58333333333333337 0
0.38475799166666663 -0.38475799166666663 0.58333333333333337 0
-1 0 0.58333333333333337 0
-1 -1 0.58333333333333337 0
0 -1 0.58333333333333337 0
-1 1 0.58333333333333337 0
1 -1 0.58333333333333337 0
1 1 -0.19444444444444442 0
1 1 0.19444444444444442 0
1 -1 0.19444444444444442 0
1 -1 -0.19444444444444442 0
1 -0.33333333333333331 -0.22435897435897437 0
1 0.33333333333333331 -0.22435897435897437 0
1 0 0.1047008547008547 0
-1 1 -0.19444444444444442 0
-1 1 0.19444444444444442 0
0.33333333333333331 1 -0.22435897435897437 0
-0.33333333333333331 1 -0.22435897435897437 0
-0 1 0.1047008547008547 0
-1 -1 -0.19444444444444442 0
-1 -1 0.19444444444444442 0
-1 0.33333333333333331 -0.22435897435897437 0
-1 -0.33333333333333331 -0.22435897435897437 0
-1 -0 0.1047008547008547 0
-0.33333333333333331 -1 -0.22435897435897437 0
0.33333333333333331 -1 -0.22435897435897437 0
0 -1 0.1047008547008547 0
Hexahedra
0
Quadrilaterals
38
1 2 3 4 0
5 3 2 6 0
3 7 8 4 0
5 9 7 3 0
10 11 12 13 0
14 13 12 15 0
11 16 17 12 0
15 12 17 18 0
10 19 16 11 0
18 20 14 15 0
6 2 25 24 0
25 2 26 27 0
24 25 27 23 0
26 2 1 21 0
27 26 21 22 0
23 27 14 20 0
27 22 13 14 0
1 4 30 21 0
30 4 31 32 0
21 30 32 22 0
31 4 8 28 0
32 31 28 29 0
22 32 10 13 0
32 29 19 10 0
8 7 35 28 0
35 7 36 37 0
28 35 37 29 0
36 7 9 33 0
37 36 33 34 0
29 37 16 19 0
37 34 17 16 0
9 5 38 33 0
38 5 39 40 0
33 38 40 34 0
39 5 6 24 0
40 39 24 23 0
34 40 18 17 0
40 23 20 18 0
End
