MeshVersionFormatted 2
Dimension 3
Vertices
36
1 1 -0.58333333333333337 0
1 0 -0.58333333333333337 0
0 0 -0.58333333333333337 0
0 1 -0.58333333333333337 0
0 -1 -0.58333333333333337 0
1 -1 -0.58333333333333337 0
-1 0 -0.58333333333333337 0
-1 1 -0.58333333333333337 0
-1 -1 -0.58333333333333337 0
0 1 0.58333333333333337 0
-0.38475799166666663 0.38475799166666663 0.58333333333333337 0
0 0 0.58333333333333337 0
1 1 0.58333333333333337 0
1 0 0.58333333333333337 0
0.38475799166666663 -0.38475799166666663 0.58333333333333337 0
-1 0 0.58333333333333337 0
-1 -1 0.58333333333333337 0
0 -1 0.58333333333333337 0
-1 1 0.58333333333333337 0
1 -1 0.58333333333333337 0
1 1 -0.19444444444444445 0
1 1 0.19444444444444445 0
1 -1 0.19444444444444445 0
1 -1 -0.19444444444444445 0
1 0 -0.19444444444444445 0
1 0 0.19444444444444445 0
-1 1 -0.19444444444444445 0
-1 1 0.19444444444444445 0
-0 1 -0.19444444444444445 0
-0 1 0.19444444444444445 0
-1 -1 -0.19444444444444445 0
-1 -1 0.19444444444444445 0
-1 -0 -0.19444444444444445 0
-1 -0 0.19444444444444445 0
0 -1 -0.19444444444444445 0
0 -1 0.19444444444444445 0
Hexahedra
0
Quadrilaterals
34
1 2 3 4 0
5 3 2 6 0
3 7 8 4 0
5 9 7 3 0
10 11 12 13 0
14 13 12 15 0
11 16 17 12 0
15 12 17 18 0
10 19 16 11 0
18 20 14 15 0
6 2 25 24 0
25 2 1 21 0
24 25 26 23 0
25 21 22 26 0
23 26 14 20 0
26 22 13 14 0
1 4 29 21 0
29 4 8 27 0
21 29 30 22 0
29 27 28 30 0
22 30 10 13 0
30 28 19 10 0
8 7 33 27 0
33 7 9 31 0
27 33 34 28 0
33 31 32 34 0
28 34 16 19 0
34 32 17 16 0
9 5 35 31 0
35 5 6 24 0
31 35 36 32 0
35 24 23 36 0
32 36 18 17 0
36 23 20 18 0
End
