MeshVersionFormatted 2
Dimension 3
Vertices
64
-1 -1 -1 0
-1 -1 -0.33333333333333337 0
-1 -1 0.33333333333333326 0
-1 -1 1 0
-1 -0.33333333333333337 -1 0
-1 -0.33333333333333337 -0.33333333333333337 0
-1 -0.33333333333333337 0.33333333333333326 0
-1 -0.33333333333333337 1 0
-1 0.33333333333333326 -1 0
-1 0.33333333333333326 -0.33333333333333337 0
-1 0.33333333333333326 0.33333333333333326 0
-1 0.33333333333333326 1 0
-1 1 -1 0
-1 1 -0.33333333333333337 0
-1 1 0.33333333333333326 0
-1 1 1 0
-0.33333333333333337 -1 -1 0
-0.33333333333333337 -1 -0.33333333333333337 0
-0.33333333333333337 -1 0.33333333333333326 0
-0.33333333333333337 -1 1 0
-0.33333333333333337 -0.33333333333333337 -1 0
-0.33333333333333337 -0.33333333333333337 1 0
-0.33333333333333337 0.33333333333333326 -1 0
-0.33333333333333337 0.33333333333333326 1 0
-0.33333333333333337 1 -1 0
-0.33333333333333337 1 -0.33333333333333337 0
-0.33333333333333337 1 0.33333333333333326 0
-0.33333333333333337 1 1 0
0.33333333333333326 -1 -1 0
0.33333333333333326 -1 -0.33333333333333337 0
0.33333333333333326 -1 0.33333333333333326 0
0.33333333333333326 -1 1 0
0.33333333333333326 -0.33333333333333337 -1 0
0.33333333333333326 -0.33333333333333337 1 0
0.33333333333333326 0.33333333333333326 -1 0
0.33333333333333326 0.33333333333333326 1 0
0.33333333333333326 1 -1 0
0.33333333333333326 1 -0.33333333333333337 0
0.33333333333333326 1 0.33333333333333326 0
0.33333333333333326 1 1 0
1 -1 -1 0
1 -1 -0.33333333333333337 0
1 -1 0.33333333333333326 0
1 -1 1 0
1 -0.33333333333333337 -1 0
1 -0.33333333333333337 -0.33333333333333337 0
1 -0.33333333333333337 0.33333333333333326 0
1 -0.33333333333333337 1 0
1 0.33333333333333326 -1 0
1 0.33333333333333326 -0.33333333333333337 0
1 0.33333333333333326 0.33333333333333326 0
1 0.33333333333333326 1 0
1 1 -1 0
1 1 -0.33333333333333337 0
1 1 0.33333333333333326 0
1 1 1 0
-0.33333333333333337 -0.33333333333333337 -0.33333333333333337 0
-0.33333333333333337 -0.33333333333333337 0.33333333333333326 0
-0.33333333333333337 0.33333333333333326 -0.33333333333333337 0
-0.33333333333333337 0.33333333333333326 0.33333333333333326 0
0.33333333333333326 -0.33333333333333337 -0.33333333333333337 0
0.33333333333333326 -0.33333333333333337 0.33333333333333326 0
0.33333333333333326 0.33333333333333326 -0.33333333333333337 0
0.33333333333333326 0.33333333333333326 0.33333333333333326 0
Hexahedra
27
1 17 21 5 2 18 57 6 0
2 18 57 6 3 19 58 7 0
3 19 58 7 4 20 22 8 0
5 21 23 9 6 57 59 10 0
6 57 59 10 7 58 60 11 0
7 58 60 11 8 22 24 12 0
9 23 25 13 10 59 26 14 0
10 59 26 14 11 60 27 15 0
11 60 27 15 12 24 28 16 0
17 29 33 21 18 30 61 57 0
18 30 61 57 19 31 62 58 0
19 31 62 58 20 32 34 22 0
21 33 35 23 57 61 63 59 0
57 61 63 59 58 62 64 60 0
58 62 64 60 22 34 36 24 0
23 35 37 25 59 63 38 26 0
59 63 38 26 60 64 39 27 0
60 64 39 27 24 36 40 28 0
29 41 45 33 30 42 46 61 0
30 42 46 61 31 43 47 62 0
31 43 47 62 32 44 48 34 0
33 45 49 35 61 46 50 63 0
61 46 50 63 62 47 51 64 0
62 47 51 64 34 48 52 36 0
35 49 53 37 63 50 54 38 0
63 50 54 38 64 51 55 39 0
64 51 55 39 36 52 56 40 0
Quadrilaterals
54
1 5 21 17 0
1 17 18 2 0
5 1 2 6 0
2 18 19 3 0
6 2 3 7 0
4 20 22 8 0
3 19 20 4 0
7 3 4 8 0
5 9 23 21 0
9 5 6 10 0
10 6 7 11 0
8 22 24 12 0
11 7 8 12 0
9 13 25 23 0
25 13 14 26 0
13 9 10 14 0
26 14 15 27 0
14 10 11 15 0
12 24 28 16 0
27 15 16 28 0
15 11 12 16 0
17 21 33 29 0
17 29 30 18 0
18 30 31 19 0
20 32 34 22 0
19 31 32 20 0
21 23 35 33 0
22 34 36 24 0
23 25 37 35 0
37 25 26 38 0
38 26 27 39 0
24 36 40 28 0
39 27 28 40 0
29 33 45 41 0
29 41 42 30 0
41 45 46 42 0
30 42 43 31 0
42 46 47 43 0
32 44 48 34 0
31 43 44 32 0
43 47 48 44 0
33 35 49 45 0
45 49 50 46 0
46 50 51 47 0
34 48 52 36 0
47 51 52 48 0
35 37 53 49 0
49 53 54 50 0
53 37 38 54 0
50 54 55 51 0
54 38 39 55 0
36 52 56 40 0
51 55 56 52 0
55 39 40 56 0
End
