MeshVersionFormatted 2
Dimension 3
Vertices
27
2 2 -1 0
2 2 0 0
2 2 1 0
2 3 -1 0
2 3 0 0
2 3 1 0
2 4 -1 0
2 4 0 0
2 4 1 0
3 2 -1 0
3 2 0 0
3 2 1 0
3 3 -1 0
3 3 1 0
3 4 -1 0
3 4 0 0
3 4 1 0
4 2 -1 0
4 2 0 0
4 2 1 0
4 3 -1 0
4 3 0 0
4 3 1 0
4 4 -1 0
4 4 0 0
4 4 1 0
3 3 0 0
Hexahedra
8
1 10 13 4 2 11 27 5 0
2 11 27 5 3 12 14 6 0
4 13 15 7 5 27 16 8 0
5 27 16 8 6 14 17 9 0
10 18 21 13 11 19 22 27 0
11 19 22 27 12 20 23 14 0
13 21 24 15 27 22 25 16 0
27 22 25 16 14 23 26 17 0
Quadrilaterals
24
1 4 13 10 0
1 10 11 2 0
4 1 2 5 0
3 12 14 6 0
2 11 12 3 0
5 2 3 6 0
4 7 15 13 0
15 7 8 16 0
7 4 5 8 0
6 14 17 9 0
16 8 9 17 0
8 5 6 9 0
10 13 21 18 0
10 18 19 11 0
18 21 22 19 0
12 20 23 14 0
11 19 20 12 0
19 22 23 20 0
13 15 24 21 0
21 24 25 22 0
24 15 16 25 0
14 23 26 17 0
22 25 26 23 0
25 16 17 26 0
End
