MeshVersionFormatted 2
Dimension 3
Vertices
43
-1.0 -1.0 -1.0 0
-1.0 -1.0 0.0 0
-1.0 -1.0 1.0 0
-1.0 0.0 -1.0 0
-1.0 0.0 0.0 0
-1.0 0.0 1.0 0
-1.0 1.0 -1.0 0
-1.0 1.0 0.0 0
-1.0 1.0 1.0 0
0.0 -1.0 -1.0 0
0.0 -1.0 0.0 0
0.0 -1.0 1.0 0
0.0 0.0 -1.0 0
0.0 0.0 1.0 0
0.0 1.0 -1.0 0
0.0 1.0 0.0 0
0.0 1.0 1.0 0
1.0 -1.0 -1.0 0
1.0 -1.0 0.0 0
1.0 -1.0 1.0 0
1.0 0.0 -1.0 0
1.0 0.0 0.0 0
1.0 0.0 1.0 0
1.0 1.0 -1.0 0
1.0 1.0 0.0 0
1.0 1.0 1.0 0
0.0 0.0 0.0 0
-0.7 0.3 0.3 0
-0.3 0.3 0.3 0
-0.3 0.7 0.3 0
-0.7 0.7 0.3 0
-0.7 0.3 0.7 0
-0.3 0.3 0.7 0
-0.3 0.7 0.7 0
-0.7 0.7 0.7 0
0.3 0.3 0.3 0
0.7 0.3 0.3 0
0.7 0.7 0.3 0
0.3 0.7 0.3 0
0.3 0.3 0.7 0
0.7 0.3 0.7 0
0.7 0.7 0.7 0
0.3 0.7 0.7 0
Hexahedra
20
1 10 13 4 2 11 27 5 0
2 11 27 5 3 12 14 6 0
4 13 15 7 5 27 16 8 0
28 29 30 31 32 33 34 35 0
5 27 16 8 28 29 30 31 0
6 9 17 14 32 35 34 33 0
5 6 14 27 28 32 33 29 0
27 14 17 16 29 33 34 30 0
16 17 9 8 30 34 35 31 0
8 9 6 5 31 35 32 28 0
10 18 21 13 11 19 22 27 0
11 19 22 27 12 20 23 14 0
13 21 24 15 27 22 25 16 0
36 37 38 39 40 41 42 43 0
27 22 25 16 36 37 38 39 0
14 17 26 23 40 43 42 41 0
27 14 23 22 36 40 41 37 0
22 23 26 25 37 41 42 38 0
25 26 17 16 38 42 43 39 0
16 17 14 27 39 43 40 36 0
Quadrilaterals
24
1 4 13 10 0
1 10 11 2 0
4 1 2 5 0
3 12 14 6 0
2 11 12 3 0
5 2 3 6 0
4 7 15 13 0
15 7 8 16 0
7 4 5 8 0
6 14 17 9 0
16 8 9 17 0
8 5 6 9 0
10 13 21 18 0
10 18 19 11 0
18 21 22 19 0
12 20 23 14 0
11 19 20 12 0
19 22 23 20 0
13 15 24 21 0
21 24 25 22 0
24 15 16 25 0
14 23 26 17 0
22 25 26 23 0
25 16 17 26 0
End
