MeshVersionFormatted 2
Dimension 3
Vertices
61
1 1 0 0
1 -1 0 0
-1 -1 0 0
-1 1 0 0
0 -0 1.4142135623730951 0
1 0 0 0
-1 0 0 0
0 1 0 0
0 -1 0 0
0.5 0.5 0.70710678118654757 0
0.5 -0.5 0.70710678118654757 0
-0.5 0.5 0.70710678118654757 0
-0.5 -0.5 0.70710678118654757 0
0 0 0 0
0 0.66666666666666663 0.47140452079103173 0
0 -0.66666666666666663 0.47140452079103173 0
0.66666666666666663 0 0.47140452079103173 0
-0.66666666666666663 0 0.47140452079103173 0
0.20441198229758001 -0.085046482303194004 0.73421335048781411 0
0.26076165260097001 0.0010975072190263001 0.65729981414612482 0
0.20494320893897999 0.087564855245229001 0.73395699097074985 0
0.00092413837612833 -0.034256844379444998 0.72299469657626958 0
0.00097166990581860002 0.0010325582566781 0.69314222038722373 0
0.00097055900002728998 0.0363074016774 0.72293123180433327 0
-0.20289632609493999 -0.085348020754206999 0.73437615238728848 0
-0.25870248973364002 0.00074489841932964004 0.6577749516530258 0
-0.20292598607383 0.086897957424813002 0.73457905810252355 0
0.1024714800019 0.0013530532759900001 0.91224939371618086 0
0.19688324001415999 -0.37568048875788002 0.61729904923531109 0
0.00087568008873787002 -0.28563298069472998 0.67394595520587075 0
0.00093223157892939005 0.0011828612059854001 0.83535117791337365 0
0.15136123043179001 -0.14496642050172001 0.66870277983810644 0
0.065271501982611002 -0.17715469188266 0.67682978060757393 0
0.00095344825566836004 -0.078656666078619999 0.68735057766070218 0
0.00091701322197946004 -0.13270016078104999 0.68631521122020667 0
-0.14963763974256999 -0.14492072896263 0.66893171328184475 0
-0.063574175678007994 -0.17711144998917 0.67693237423047503 0
-0.10106881619313 0.0010130306154855001 0.91270307114129445 0
-0.19556916697304 -0.37556729345166001 0.61709283482309141 0
0.16557572104658 0.00068882484856650004 0.38352591352350485 0
0.00049893709473542997 0.00078611241840094003 0.44047825504126004 0
0.15397366660912001 0.0010817228292977 0.56208296236495348 0
0.057340569475947997 0.00097439885500127 0.53107367992101784 0
0.00086545872653345996 0.0010407719318843 0.6256732803060564 0
0.00077870146320769998 0.00097913513743902989 0.57325317077960458 0
-0.15231017484483 0.00097675931682134 0.56244479594109431 0
-0.055943736153766001 0.00093417771949600998 0.53121024685811702 0
-0.16487641166271 0.00066550103879775004 0.38356296049763527 0
0.19694057496261999 0.37710304221782998 0.61687848410881674 0
0.00061550515928210001 0.28730016100340999 0.67276438681928585 0
0.15178843057088001 0.14737623349612999 0.66809341116186005 0
0.065417318717007997 0.17927610304941 0.67601320194129011 0
0.00092312420815852004 0.080734905761026002 0.68691345598063214 0
0.00086054744406550998 0.13475281776574 0.68563111524679388 0
-0.15000289877591 0.14694052379021 0.66843639095677876 0
-0.063826197166800006 0.17908446933788999 0.67617227079568121 0
-0.19607140284992 0.37697979218674998 0.61678206918314959 0
0.00028036099341829999 -0.43940800957088999 0.5169209830811734 0
0.00019545911696898001 0.44114292484874001 0.51663664837940049 0
0.00016779077428562001 0.00056875328224163997 0.2231074276793005 0
0 -0 0.20000050379690362 0
Hexahedra
44
13 5 11 16 39 30 29 58 0
33 30 29 32 28 5 11 19 0
19 11 17 20 28 5 10 21 0
28 21 20 19 31 24 23 22 0
28 52 51 21 31 54 53 24 0
28 5 50 52 31 38 56 54 0
51 21 10 49 52 28 5 50 0
33 28 19 32 35 31 22 34 0
22 31 24 23 25 38 27 26 0
34 35 31 22 36 37 38 25 0
33 30 5 28 35 37 38 31 0
56 54 31 38 55 53 24 27 0
30 37 36 39 5 38 25 13 0
13 25 26 18 5 38 27 12 0
57 12 27 55 50 5 38 56 0
51 21 20 42 49 10 17 40 0
52 51 42 43 50 49 40 41 0
43 42 32 33 41 40 29 30 0
42 20 19 32 40 17 11 29 0
54 53 44 45 52 51 42 43 0
53 24 23 44 51 21 20 42 0
45 44 34 35 43 42 32 33 0
44 23 22 34 42 20 19 32 0
56 55 46 47 54 53 44 45 0
55 27 26 46 53 24 23 44 0
47 46 36 37 45 44 34 35 0
46 26 25 36 44 23 22 34 0
50 57 48 41 56 55 46 47 0
57 12 18 48 55 27 26 46 0
41 48 39 30 47 46 36 37 0
48 18 13 39 46 26 25 36 0
41 43 45 47 30 33 35 37 0
50 52 54 56 41 43 45 47 0
39 30 29 58 48 41 40 60 0
48 41 40 60 57 50 49 59 0
16 58 29 11 61 60 40 17 0
61 60 40 17 15 59 49 10 0
61 18 48 60 15 12 57 59 0
16 13 39 58 61 18 48 60 0
12 15 10 5 57 59 49 50 0
4 7 14 8 12 18 61 15 0
7 3 9 14 18 13 16 61 0
14 9 2 6 61 16 11 17 0
14 6 1 8 61 17 10 15 0
Quadrilaterals
16
13 16 11 5 0
11 17 10 5 0
18 13 5 12 0
12 5 10 15 0
4 8 14 7 0
4 7 18 12 0
8 4 12 15 0
7 14 9 3 0
7 3 13 18 0
3 9 16 13 0
14 6 2 9 0
9 2 11 16 0
2 6 17 11 0
14 8 1 6 0
6 1 10 17 0
1 8 15 10 0
End
