MeshVersionFormatted 2
Dimension 3
Vertices
51
1 1 0 0
1 -1 0 0
-1 -1 0 0
-1 1 0 0
0 -0 1.4142135623730951 0
1 0 0 0
-1 0 0 0
0 1 0 0
0 -1 0 0
0.5 0.5 0.70710678118654757 0
0.5 -0.5 0.70710678118654757 0
-0.5 0.5 0.70710678118654757 0
-0.5 -0.5 0.70710678118654757 0
0 0 0 0
0 0.66666666666666663 0.47140452079103173 0
0 -0.66666666666666663 0.47140452079103173 0
0.66666666666666663 0 0.47140452079103173 0
-0.66666666666666663 0 0.47140452079103173 0
0.301535 0.30153099999999999 0.30920789591794062 0
0.32261200000000001 0.1533775 0.26033738924753441 0
0.075273499999999993 0.075271000000000005 0.13043763090287844 0
0.1533795 0.322602 0.26033833205657597 0
0.2649975 -0.2648065 0.44652284737463949 0
-0.264797 0.26500649999999998 0.44652284737463949 0
0.00012103149999999999 0.000121002 0.63266493628583176 0
0.2274545 0.2274515 0.5146780415860861 0
0.30779099999999998 0.010523100000000001 0.39149532625818151 0
0.0105294 0.30779000000000001 0.39149438344914 0
0.2309435 -0.123262 0.4096165874419096 0
-0.123255 0.2309475 0.40961611603738879 0
0.070990999999999999 0.070990499999999998 0.55095969052876781 0
-0.075240500000000002 -0.0752385 0.13041406067683894 0
-0.1533545 -0.32259349999999998 0.26031711885314041 0
-0.30148049999999998 -0.30147699999999999 0.30920412468177433 0
-0.32260149999999999 -0.1533525 0.26031617604409879 0
-0.22730449999999999 -0.227302 0.51470349743020882 0
-0.30764399999999997 -0.0103625 0.39152549614751225 0
-0.010368499999999999 -0.30764399999999997 0.39152455333847058 0
4.2738247499999997e-05 4.4944197499999999e-05 0.38378314829804028 0
0.035047700000000001 -0.034948649999999998 0.35018284826961793 0
3.2059649999999997e-05 3.2072897499999999e-05 0.22290834170124729 0
-0.034947550000000001 0.035046899999999999 0.35018331967413868 0
0.12343899999999999 -0.23077400000000001 0.40962978676849171 0
-0.23076949999999999 0.1234455 0.40963072957753338 0
-0.070790500000000006 -0.070789500000000005 0.55096110474233018 0
6.7353000000000004e-05 6.6363000000000001e-05 0.45913291830579955 0
0.082357 -0.082214999999999996 0.39824206775974275 0
-0.082212999999999994 0.082359000000000002 0.39824159635522199 0
0.13338700000000001 -0.13322899999999999 0.40353829755082998 0
-0.13322500000000001 0.13339100000000001 0.40353829755082998 0
8.3736499999999994e-05 8.3616500000000001e-05 0.51092283317346465 0
Hexahedra
36
1 8 14 6 19 22 21 20 0
2 6 14 9 11 17 23 16 0
4 7 14 8 12 18 24 15 0
12 5 13 18 15 10 25 24 0
6 17 10 1 20 27 26 19 0
13 25 10 5 16 23 17 11 0
1 10 15 8 19 26 28 22 0
6 20 21 14 17 27 29 23 0
8 14 21 22 15 24 30 28 0
15 10 25 24 28 26 31 30 0
25 31 26 10 23 29 27 17 0
14 7 3 9 32 35 34 33 0
7 18 13 3 35 37 36 34 0
9 3 13 16 33 34 36 38 0
19 22 21 20 39 42 41 40 0
23 14 9 16 43 32 33 38 0
24 18 7 14 44 37 35 32 0
25 13 18 24 45 36 37 44 0
26 19 20 27 46 39 40 47 0
23 16 13 25 43 38 36 45 0
28 22 19 26 48 42 39 46 0
29 27 20 21 49 47 40 41 0
29 21 14 23 49 41 32 43 0
30 24 14 21 50 44 32 41 0
30 21 22 28 50 41 42 48 0
31 25 24 30 51 45 44 50 0
31 30 28 26 51 50 48 46 0
31 26 27 29 51 46 47 49 0
29 23 25 31 49 43 45 51 0
37 44 50 48 35 32 41 42 0
47 49 43 38 40 41 32 33 0
34 35 42 39 33 32 41 40 0
36 38 47 46 45 43 49 51 0
46 48 37 36 51 50 44 45 0
46 36 34 39 47 38 33 40 0
46 39 34 36 48 42 35 37 0
Quadrilaterals
16
1 6 14 8 0
2 9 14 6 0
2 6 17 11 0
9 2 11 16 0
4 8 14 7 0
4 7 18 12 0
8 4 12 15 0
12 18 13 5 0
12 5 10 15 0
6 1 10 17 0
10 5 11 17 0
5 13 16 11 0
1 8 15 10 0
14 9 3 7 0
7 3 13 18 0
9 16 13 3 0
End
