MeshVersionFormatted 2
Dimension 3
Vertices
61
1 1 0 0
1 -1 0 0
-1 -1 0 0
-1 1 0 0
0 -0 1.4142135623730951 0
1 0 0 0
-1 0 0 0
0 1 0 0
0 -1 0 0
0.5 0.5 0.70710678118654757 0
0.5 -0.5 0.70710678118654757 0
-0.5 0.5 0.70710678118654757 0
-0.5 -0.5 0.70710678118654757 0
0 0 0 0
0 0.66666666666666663 0.47140452079103173 0
0 -0.66666666666666663 0.47140452079103173 0
0.66666666666666663 0 0.47140452079103173 0
-0.66666666666666663 0 0.47140452079103173 0
0.20379437585133248 -0.086214328931860748 0.73428138798709397 0
0.25973207116730501 0 0.65753738289957531 0
0.20379437585133248 0.086214328931860748 0.73428138798709397 0
0 -0.035282123028422499 0.72296296419030148 0
0 0 0.69314222038722373 0
0 0.035282123028422499 0.72296296419030148 0
-0.20379437585133248 -0.086214328931860748 0.73428138798709397 0
-0.25973207116730501 0 0.65753738289957531 0
-0.20379437585133248 0.086214328931860748 0.73428138798709397 0
0.101770148097515 0 0.91247623242873765 0
0.19636609619993498 -0.37633265415353001 0.61701310933759224 0
0 -0.28646657084907001 0.67335517101257825 0
0 0 0.83535117791337365 0
0.1506975498802875 -0.1460509766876725 0.66854107380964745 0
0.06452229838610675 -0.17815667856478251 0.67648690689375512 0
0 -0.079695785919823001 0.68713201682066716 0
0 -0.13372648927339498 0.68597316323350022 0
-0.1506975498802875 -0.1460509766876725 0.66854107380964745 0
-0.06452229838610675 -0.17815667856478251 0.67648690689375512 0
-0.101770148097515 0 0.91247623242873765 0
-0.19636609619993498 -0.37633265415353001 0.61701310933759224 0
0.16522606635464498 0 0.38354443701057006 0
0 0 0.44047825504126004 0
0.15314192072697502 0 0.56226387915302389 0
0.056642152814856996 0 0.53114196338956743 0
0 0 0.6256732803060564 0
0 0 0.57325317077960458 0
-0.15314192072697502 0 0.56226387915302389 0
-0.056642152814856996 0 0.53114196338956743 0
-0.16522606635464498 0 0.38354443701057006 0
0.19636609619993498 0.37633265415353001 0.61701310933759224 0
0 0.28646657084907001 0.67335517101257825 0
0.1506975498802875 0.1460509766876725 0.66854107380964745 0
0.06452229838610675 0.17815667856478251 0.67648690689375512 0
0 0.079695785919823001 0.68713201682066716 0
0 0.13372648927339498 0.68597316323350022 0
-0.1506975498802875 0.1460509766876725 0.66854107380964745 0
-0.06452229838610675 0.17815667856478251 0.67648690689375512 0
-0.19636609619993498 0.37633265415353001 0.61701310933759224 0
0 -0.44027546720981497 0.51677881573028694 0
0 0.44027546720981497 0.51677881573028694 0
0 0 0.2231074276793005 0
0 0 0.20000050379690362 0
Hexahedra
44
13 5 11 16 39 30 29 58 0
33 30 29 32 28 5 11 19 0
19 11 17 20 28 5 10 21 0
28 21 20 19 31 24 23 22 0
28 52 51 21 31 54 53 24 0
28 5 50 52 31 38 56 54 0
51 21 10 49 52 28 5 50 0
33 28 19 32 35 31 22 34 0
22 31 24 23 25 38 27 26 0
34 35 31 22 36 37 38 25 0
33 30 5 28 35 37 38 31 0
56 54 31 38 55 53 24 27 0
30 37 36 39 5 38 25 13 0
13 25 26 18 5 38 27 12 0
57 12 27 55 50 5 38 56 0
51 21 20 42 49 10 17 40 0
52 51 42 43 50 49 40 41 0
43 42 32 33 41 40 29 30 0
42 20 19 32 40 17 11 29 0
54 53 44 45 52 51 42 43 0
53 24 23 44 51 21 20 42 0
45 44 34 35 43 42 32 33 0
44 23 22 34 42 20 19 32 0
56 55 46 47 54 53 44 45 0
55 27 26 46 53 24 23 44 0
47 46 36 37 45 44 34 35 0
46 26 25 36 44 23 22 34 0
50 57 48 41 56 55 46 47 0
57 12 18 48 55 27 26 46 0
41 48 39 30 47 46 36 37 0
48 18 13 39 46 26 25 36 0
41 43 45 47 30 33 35 37 0
50 52 54 56 41 43 45 47 0
39 30 29 58 48 41 40 60 0
48 41 40 60 57 50 49 59 0
16 58 29 11 61 60 40 17 0
61 60 40 17 15 59 49 10 0
61 18 48 60 15 12 57 59 0
16 13 39 58 61 18 48 60 0
12 15 10 5 57 59 49 50 0
4 7 14 8 12 18 61 15 0
7 3 9 14 18 13 16 61 0
14 9 2 6 61 16 11 17 0
14 6 1 8 61 17 10 15 0
Quadrilaterals
16
13 16 11 5 0
11 17 10 5 0
18 13 5 12 0
12 5 10 15 0
4 8 14 7 0
4 7 18 12 0
8 4 12 15 0
7 14 9 3 0
7 3 13 18 0
3 9 16 13 0
14 6 2 9 0
9 2 11 16 0
2 6 17 11 0
14 8 1 6 0
6 1 10 17 0
1 8 15 10 0
End
