MeshVersionFormatted 2
Dimension 3
Vertices
51
1 1 0 0
1 -1 0 0
-1 -1 0 0
-1 1 0 0
0 -0 1.4142135623730951 0
1 0 0 0
-1 0 0 0
0 1 0 0
0 -1 0 0
0.5 0.5 0.70710678118654757 0
0.5 -0.5 0.70710678118654757 0
-0.5 0.5 0.70710678118654757 0
-0.5 -0.5 0.70710678118654757 0
0 0 0 0
0 0.66666666666666663 0.47140452079103173 0
0 -0.66666666666666663 0.47140452079103173 0
0.66666666666666663 0 0.47140452079103173 0
-0.66666666666666663 0 0.47140452079103173 0
0.45745665918573231 0.45745665918573231 0.25559485728901604 0
0.42890933303427453 0.26088819027682886 0.2255426003526344 0
0.039566561018259526 0.039566561018259526 0.089926954273224072 0
0.26088819027682886 0.42890933303427453 0.2255426003526344 0
0.24145432001128789 -0.24145432001128789 0.43733061904828896 0
-0.24145432001128789 0.24145432001128789 0.43733061904828896 0
0 0 0.58072631317276213 0
0.30508311444592917 0.30508311444592917 0.52611918488325171 0
0.46761666352909659 0.069799352696667344 0.39867942523872835 0
0.069799352696667344 0.46761666352909659 0.39867942523872835 0
0.24564980799844793 -0.19864517854446337 0.42934482785281564 0
-0.19864517854446337 0.24564980799844793 0.42934482785281564 0
0.02074447457420869 0.02074447457420869 0.56621072312639742 0
-0.039566561018259526 -0.039566561018259526 0.089926954273224072 0
-0.26088819027682886 -0.42890933303427453 0.2255426003526344 0
-0.45745665918573231 -0.45745665918573231 0.25559485728901604 0
-0.42890933303427453 -0.26088819027682886 0.2255426003526344 0
-0.30508311444592917 -0.30508311444592917 0.52611918488325171 0
-0.46761666352909659 -0.069799352696667344 0.39867942523872835 0
-0.069799352696667344 -0.46761666352909659 0.39867942523872835 0
0 0 0.39776376195330204 0
0.036725761992622452 -0.036725761992622452 0.38891195726158867 0
0 0 0.12598380838129644 0
-0.036725761992622452 0.036725761992622452 0.38891195726158867 0
0.19864517854446337 -0.24564980799844793 0.42934482785281564 0
-0.24564980799844793 0.19864517854446337 0.42934482785281564 0
-0.02074447457420869 -0.02074447457420869 0.56621072312639742 0
0 0 0.40895425420722031 0
0.039518065668178184 -0.039518065668178184 0.39538281382067619 0
-0.039518065668178184 0.039518065668178184 0.39538281382067619 0
0.19743245982991359 -0.19743245982991359 0.42844627142973807 0
-0.19743245982991359 0.19743245982991359 0.42844627142973807 0
0 0 0.52718731094065419 0
Hexahedra
36
1 8 14 6 19 22 21 20 0
2 6 14 9 11 17 23 16 0
4 7 14 8 12 18 24 15 0
12 5 13 18 15 10 25 24 0
6 17 10 1 20 27 26 19 0
13 25 10 5 16 23 17 11 0
1 10 15 8 19 26 28 22 0
6 20 21 14 17 27 29 23 0
8 14 21 22 15 24 30 28 0
15 10 25 24 28 26 31 30 0
25 31 26 10 23 29 27 17 0
14 7 3 9 32 35 34 33 0
7 18 13 3 35 37 36 34 0
9 3 13 16 33 34 36 38 0
19 22 21 20 39 42 41 40 0
23 14 9 16 43 32 33 38 0
24 18 7 14 44 37 35 32 0
25 13 18 24 45 36 37 44 0
26 19 20 27 46 39 40 47 0
23 16 13 25 43 38 36 45 0
28 22 19 26 48 42 39 46 0
29 27 20 21 49 47 40 41 0
29 21 14 23 49 41 32 43 0
30 24 14 21 50 44 32 41 0
30 21 22 28 50 41 42 48 0
31 25 24 30 51 45 44 50 0
31 30 28 26 51 50 48 46 0
31 26 27 29 51 46 47 49 0
29 23 25 31 49 43 45 51 0
37 44 50 48 35 32 41 42 0
47 49 43 38 40 41 32 33 0
34 35 42 39 33 32 41 40 0
36 38 47 46 45 43 49 51 0
46 48 37 36 51 50 44 45 0
46 36 34 39 47 38 33 40 0
46 39 34 36 48 42 35 37 0
Quadrilaterals
16
1 6 14 8 0
2 9 14 6 0
2 6 17 11 0
2 11 16 9 0
4 8 14 7 0
4 7 18 12 0
4 12 15 8 0
12 18 13 5 0
12 5 10 15 0
6 1 10 17 0
5 11 17 10 0
13 16 11 5 0
1 8 15 10 0
14 9 3 7 0
7 3 13 18 0
9 16 13 3 0
End
