MeshVersionFormatted 2
Dimension 3
Vertices
66
-1 0 -1 0
0 0 -1 0
0 -1 -1 0
-1 -1 -1 0
-1 1 -1 0
0 1 -1 0
1 0 -1 0
1 -1 -1 0
1 1 -1 0
-1 -1 1 0
-0.5 -1 1 0
-0.5 -0.5 1 0
-1 -0.5 1 0
-0.5 0 1 0
-1 0 1 0
-0.5 0.5 1 0
-1 0.5 1 0
-0.5 1 1 0
-1 1 1 0
0 -1 1 0
0 -0.5 1 0
0 0 1 0
0 0.5 1 0
0 1 1 0
0.5 -1 1 0
0.5 -0.5 1 0
0.5 0 1 0
0.5 0.5 1 0
0.5 1 1 0
1 -1 1 0
1 -0.5 1 0
1 0 1 0
1 0.5 1 0
1 1 1 0
-1 0 0.51724137931034486 0
-1 -0.16666666666666666 0.7931034482758621 0
-1 0.16666666666666666 0.7931034482758621 0
-1 0 0.86206896551724133 0
1 0 0.51724137931034486 0
1 -0.16666666666666666 0.7931034482758621 0
1 0.16666666666666666 0.7931034482758621 0
1 0 0.86206896551724133 0
0 -1 0.51724137931034486 0
-0.16666666666666666 -1 0.7931034482758621 0
0.16666666666666666 -1 0.7931034482758621 0
0 -1 0.86206896551724133 0
0 1 0.51724137931034486 0
-0.16666666666666666 1 0.7931034482758621 0
0.16666666666666666 1 0.7931034482758621 0
0 1 0.86206896551724133 0
1.946493685694513e-18 -5.551115123125783e-18 0.57576581341231214 0
4.2162448731883539e-19 -0.22705038610122305 0.49865370315762481 0
6.8789178556159904e-19 0.22705038610122305 0.49865370315762481 0
1.5850232469720493e-19 -6.6956450835888767e-18 0.14302324436348512 0
3.1264262024590638e-21 -0.38759777426858727 0.57290789426178057 0
1.334462917416277e-18 0.38759777426858727 0.57290789426178057 0
-0.16796254512570932 -0.48870561104347338 0.85885284237502024 0
0.16796254512570932 -0.48870561104347338 0.85885284237502024 0
-0.16796254512570932 0.48870561104347338 0.85885284237502024 0
0.16796254512570932 0.48870561104347338 0.85885284237502024 0
8.6229521555921314e-18 -2.3432386452523993e-17 0.57606799933849873 0
-0.18345124773039764 2.2143974087618522e-18 0.86529916427009579 0
0.18345124773039764 -9.4558670613535797e-18 0.86529916427009579 0
1.4777406605932184e-17 0 0.95433276929377975 0
3.6267489797968309e-18 -0.4981670922375615 0.91065591192043382 0
6.6601452219420668e-18 0.4981670922375615 0.91065591192043382 0
Hexahedra
34
38 36 35 37 51 52 54 53 0
42 41 39 40 51 53 54 52 0
36 35 54 52 13 10 43 55 0
40 52 54 39 31 55 43 30 0
37 53 54 35 17 56 47 19 0
41 39 54 53 33 34 47 56 0
35 54 43 10 1 2 3 4 0
39 30 43 54 7 8 3 2 0
35 19 47 54 1 5 6 2 0
39 54 47 34 7 2 6 9 0
13 10 43 55 12 11 44 57 0
31 55 43 30 26 58 45 25 0
17 56 47 19 16 59 48 18 0
33 34 47 56 28 29 49 60 0
52 36 13 55 51 38 15 61 0
52 55 31 40 51 61 32 42 0
53 56 17 37 51 61 15 38 0
53 41 33 56 51 42 32 61 0
13 55 61 15 12 57 62 14 0
31 32 61 55 26 27 63 58 0
17 15 61 56 16 14 62 59 0
33 56 61 32 28 60 63 27 0
55 61 62 57 58 63 64 65 0
56 59 62 61 60 66 64 63 0
43 55 57 44 45 58 65 46 0
47 48 59 56 49 50 66 60 0
12 57 62 14 21 65 64 22 0
26 27 63 58 21 22 64 65 0
16 14 62 59 23 22 64 66 0
28 60 63 27 23 66 64 22 0
12 57 65 21 11 44 46 20 0
26 21 65 58 25 20 46 45 0
16 23 66 59 18 24 50 48 0
28 60 66 23 29 49 50 24 0
Quadrilaterals
48
1 2 3 4 0
5 6 2 1 0
2 7 8 3 0
6 9 7 2 0
10 11 12 13 0
13 12 14 15 0
15 14 16 17 0
17 16 18 19 0
11 20 21 12 0
12 21 22 14 0
14 22 23 16 0
16 23 24 18 0
20 25 26 21 0
21 26 27 22 0
22 27 28 23 0
23 28 29 24 0
25 30 31 26 0
26 31 32 27 0
27 32 33 28 0
28 33 34 29 0
10 35 1 4 0
19 5 1 35 0
13 36 35 10 0
37 17 19 35 0
38 37 35 36 0
15 38 36 13 0
38 15 17 37 0
8 7 39 30 0
39 7 9 34 0
30 39 40 31 0
39 34 33 41 0
40 39 41 42 0
31 40 42 32 0
41 33 32 42 0
4 3 43 10 0
43 3 8 30 0
10 43 44 11 0
43 30 25 45 0
44 43 45 46 0
11 44 46 20 0
45 25 20 46 0
19 47 6 5 0
34 9 6 47 0
18 48 47 19 0
49 29 34 47 0
50 49 47 48 0
24 50 48 18 0
50 24 29 49 0
End
