MeshVersionFormatted 2
Dimension 3
Vertices
58
-1 0 -1 0
0 0 -1 0
0 -1 -1 0
-1 -1 -1 0
-1 1 -1 0
0 1 -1 0
1 0 -1 0
1 -1 -1 0
1 1 -1 0
-1 -1 1 0
-0.5 -1 1 0
-0.5 -0.5 1 0
-1 -0.5 1 0
-0.5 0 1 0
-1 0 1 0
-0.5 0.5 1 0
-1 0.5 1 0
-0.5 1 1 0
-1 1 1 0
0 -1 1 0
0 -0.5 1 0
0 0 1 0
0 0.5 1 0
0 1 1 0
0.5 -1 1 0
0.5 -0.5 1 0
0.5 0 1 0
0.5 0.5 1 0
0.5 1 1 0
1 -1 1 0
1 -0.5 1 0
1 0 1 0
1 0.5 1 0
1 1 1 0
-1 -0.5 0 0
-1 0 0 0
-1 0.5 0 0
1 0 0 0
1 -0.5 0 0
1 0.5 0 0
0 -1 0 0
-0.5 -1 0 0
0.5 -1 0 0
-0.5 1 0 0
0 1 0 0
0.5 1 0 0
4.1847013501074462e-19 -0.5 -0.16801464076982114 0
-3.5251807653450288e-19 0.5 -0.16801464076982114 0
-7.8200297907544141e-19 -1.9825411154020655e-18 -0.15850994745852764 0
-0.5 2.2204460492503132e-17 0.41572702048527072 0
0.5 -2.2204460492503132e-17 0.41572702048527072 0
-0.5 -0.5 0.34683275281893855 0
0.5 -0.5 0.34683275281893855 0
-0.5 0.5 0.34683275281893855 0
0.5 0.5 0.34683275281893855 0
2.8743536541291646e-18 -0.5 0.31843674360942203 0
-9.8058740359707276e-19 0.5 0.31843674360942203 0
-4.75796993292889e-18 0 0.38496959678847631 0
Hexahedra
28
1 4 3 2 36 35 47 49 0
7 2 3 8 38 49 47 39 0
1 2 6 5 36 49 48 37 0
7 9 6 2 38 40 48 49 0
36 35 47 49 50 52 56 58 0
38 49 47 39 51 58 56 53 0
36 49 48 37 50 58 57 54 0
38 40 48 49 51 55 57 58 0
4 3 47 35 42 41 56 52 0
8 39 47 3 43 53 56 41 0
5 37 48 6 44 54 57 45 0
9 6 48 40 46 45 57 55 0
50 52 56 58 14 12 21 22 0
51 58 56 53 27 22 21 26 0
50 58 57 54 14 22 23 16 0
51 55 57 58 27 28 23 22 0
36 35 52 50 15 13 12 14 0
38 51 53 39 32 27 26 31 0
36 50 54 37 15 14 16 17 0
38 40 55 51 32 33 28 27 0
52 56 21 12 42 41 20 11 0
53 26 21 56 43 25 20 41 0
54 16 23 57 44 18 24 45 0
55 57 23 28 46 45 24 29 0
35 4 42 52 13 10 11 12 0
39 53 43 8 31 26 25 30 0
37 54 44 5 17 16 18 19 0
40 9 46 55 33 34 29 28 0
Quadrilaterals
44
1 2 3 4 0
5 6 2 1 0
2 7 8 3 0
6 9 7 2 0
10 11 12 13 0
13 12 14 15 0
15 14 16 17 0
17 16 18 19 0
11 20 21 12 0
12 21 22 14 0
14 22 23 16 0
16 23 24 18 0
20 25 26 21 0
21 26 27 22 0
22 27 28 23 0
23 28 29 24 0
25 30 31 26 0
26 31 32 27 0
27 32 33 28 0
28 33 34 29 0
35 36 1 4 0
37 5 1 36 0
13 15 36 35 0
10 13 35 4 0
17 19 5 37 0
15 17 37 36 0
8 7 38 39 0
38 7 9 40 0
39 38 32 31 0
8 39 31 30 0
40 9 34 33 0
38 40 33 32 0
4 3 41 42 0
41 3 8 43 0
42 41 20 11 0
4 42 11 10 0
43 8 30 25 0
41 43 25 20 0
44 45 6 5 0
46 9 6 45 0
18 24 45 44 0
19 18 44 5 0
29 34 9 46 0
24 29 46 45 0
End
