MeshVersionFormatted 2
Dimension 3
Vertices
76
-1 1 -1 0
1 1 -1 0
1 -1 -1 0
-1 -1 -1 0
-1 -1 1 0
-0.59999999999999998 -1 1 0
-0.59999999999999998 -0.59999999999999998 1 0
-1 -0.59999999999999998 1 0
-0.59999999999999998 -0.20000000000000001 1 0
-1 -0.20000000000000001 1 0
-0.59999999999999998 0.20000000000000001 1 0
-1 0.20000000000000001 1 0
-0.59999999999999998 0.59999999999999998 1 0
-1 0.59999999999999998 1 0
-0.59999999999999998 1 1 0
-1 1 1 0
-0.20000000000000001 -1 1 0
-0.20000000000000001 -0.59999999999999998 1 0
-0.20000000000000001 -0.20000000000000001 1 0
-0.20000000000000001 0.20000000000000001 1 0
-0.20000000000000001 0.59999999999999998 1 0
-0.20000000000000001 1 1 0
0.20000000000000001 -1 1 0
0.20000000000000001 -0.59999999999999998 1 0
0.20000000000000001 -0.20000000000000001 1 0
0.20000000000000001 0.20000000000000001 1 0
0.20000000000000001 0.59999999999999998 1 0
0.20000000000000001 1 1 0
0.59999999999999998 -1 1 0
0.59999999999999998 -0.59999999999999998 1 0
0.59999999999999998 -0.20000000000000001 1 0
0.59999999999999998 0.20000000000000001 1 0
0.59999999999999998 0.59999999999999998 1 0
0.59999999999999998 1 1 0
1 -1 1 0
1 -0.59999999999999998 1 0
1 -0.20000000000000001 1 0
1 0.20000000000000001 1 0
1 0.59999999999999998 1 0
1 1 1 0
-1 -1 0 0
-1 1 0 0
-1 -0.3473684210526316 0.59999999999999998 0
-1 0.3473684210526316 0.59999999999999998 0
-1 -0.1368421052631579 0.80000000000000004 0
-1 0.1368421052631579 0.80000000000000004 0
1 1 0 0
1 -1 0 0
1 0.3473684210526316 0.59999999999999998 0
1 -0.3473684210526316 0.59999999999999998 0
1 0.1368421052631579 0.80000000000000004 0
1 -0.1368421052631579 0.80000000000000004 0
0.3473684210526316 -1 0.59999999999999998 0
-0.3473684210526316 -1 0.59999999999999998 0
0.1368421052631579 -1 0.80000000000000004 0
-0.1368421052631579 -1 0.80000000000000004 0
-0.3473684210526316 1 0.59999999999999998 0
0.3473684210526316 1 0.59999999999999998 0
-0.1368421052631579 1 0.80000000000000004 0
0.1368421052631579 1 0.80000000000000004 0
0.4949386196503951 -0.42192329239011672 0.79076093975177486 0
-0.4949386196503951 -0.42192329239011672 0.79076093975177486 0
0.4949386196503951 0.42192329239011672 0.79076093975177486 0
-0.4949386196503951 0.42192329239011672 0.79076093975177486 0
-0.50959316438309932 -0.19781858326535637 0.87597161084314945 0
0.50959316438309932 -0.19781858326535637 0.87597161084314945 0
-0.50959316438309932 0.19781858326535637 0.87597161084314945 0
0.50959316438309932 0.19781858326535637 0.87597161084314945 0
-0.2000095950100895 -0.59974808434939997 0.99974195672574606 0
0.2000095950100895 -0.59974808434939997 0.99974195672574606 0
-0.2000095950100895 0.59974808434939997 0.99974195672574606 0
0.2000095950100895 0.59974808434939997 0.99974195672574606 0
0.19936661181635645 -0.21725747455300906 0.99328263265871497 0
-0.19936661181635645 -0.21725747455300906 0.99328263265871497 0
0.19936661181635645 0.21725747455300906 0.99328263265871497 0
-0.19936661181635645 0.21725747455300906 0.99328263265871497 0
Hexahedra
38
1 4 3 2 42 41 48 47 0
42 41 48 47 44 43 50 49 0
41 48 50 43 54 53 61 62 0
42 44 49 47 57 64 63 58 0
44 43 50 49 64 62 61 63 0
44 43 62 64 46 45 65 67 0
49 63 61 50 51 68 66 52 0
64 62 61 63 67 65 66 68 0
62 61 66 65 69 70 73 74 0
64 67 68 63 71 76 75 72 0
43 41 54 62 8 5 6 7 0
50 61 53 48 36 30 29 35 0
44 64 57 42 14 13 15 16 0
49 47 58 63 39 40 34 33 0
54 53 61 62 56 55 70 69 0
57 64 63 58 59 71 72 60 0
43 62 65 45 8 7 9 10 0
50 52 66 61 36 37 31 30 0
44 46 67 64 14 12 11 13 0
49 63 68 51 39 33 32 38 0
67 65 66 68 76 74 73 75 0
61 66 73 70 30 31 25 24 0
62 69 74 65 7 18 19 9 0
63 72 75 68 33 27 26 32 0
64 67 76 71 13 11 20 21 0
67 65 74 76 11 9 19 20 0
68 75 73 66 32 26 25 31 0
67 65 9 11 46 45 10 12 0
68 32 31 66 51 38 37 52 0
76 74 73 75 20 19 25 26 0
74 73 25 19 69 70 24 18 0
76 20 26 75 71 21 27 72 0
62 69 18 7 54 56 17 6 0
61 30 24 70 53 29 23 55 0
64 13 21 71 57 15 22 59 0
63 72 27 33 58 60 28 34 0
69 70 24 18 56 55 23 17 0
71 21 27 72 59 22 28 60 0
Quadrilaterals
58
1 2 3 4 0
5 6 7 8 0
8 7 9 10 0
10 9 11 12 0
12 11 13 14 0
14 13 15 16 0
6 17 18 7 0
7 18 19 9 0
9 19 20 11 0
11 20 21 13 0
13 21 22 15 0
17 23 24 18 0
18 24 25 19 0
19 25 26 20 0
20 26 27 21 0
21 27 28 22 0
23 29 30 24 0
24 30 31 25 0
25 31 32 26 0
26 32 33 27 0
27 33 34 28 0
29 35 36 30 0
30 36 37 31 0
31 37 38 32 0
32 38 39 33 0
33 39 40 34 0
41 42 1 4 0
43 44 42 41 0
14 16 42 44 0
45 46 44 43 0
5 8 43 41 0
46 12 14 44 0
10 12 46 45 0
8 10 45 43 0
3 2 47 48 0
48 47 49 50 0
49 47 40 39 0
50 49 51 52 0
48 50 36 35 0
49 39 38 51 0
52 51 38 37 0
50 52 37 36 0
4 3 48 41 0
41 48 53 54 0
53 48 35 29 0
54 53 55 56 0
41 54 6 5 0
53 29 23 55 0
56 55 23 17 0
54 56 17 6 0
42 47 2 1 0
57 58 47 42 0
34 40 47 58 0
59 60 58 57 0
16 15 57 42 0
60 28 34 58 0
22 28 60 59 0
15 22 59 57 0
End
