MeshVersionFormatted 2
Dimension 3
Vertices
72
-1 1 -1 0
1 1 -1 0
1 -1 -1 0
-1 -1 -1 0
-1 -1 1 0
-0.59999999999999998 -1 1 0
-0.59999999999999998 -0.59999999999999998 1 0
-1 -0.59999999999999998 1 0
-0.59999999999999998 -0.20000000000000001 1 0
-1 -0.20000000000000001 1 0
-0.59999999999999998 0.20000000000000001 1 0
-1 0.20000000000000001 1 0
-0.59999999999999998 0.59999999999999998 1 0
-1 0.59999999999999998 1 0
-0.59999999999999998 1 1 0
-1 1 1 0
-0.20000000000000001 -1 1 0
-0.20000000000000001 -0.59999999999999998 1 0
-0.20000000000000001 -0.20000000000000001 1 0
-0.20000000000000001 0.20000000000000001 1 0
-0.20000000000000001 0.59999999999999998 1 0
-0.20000000000000001 1 1 0
0.20000000000000001 -1 1 0
0.20000000000000001 -0.59999999999999998 1 0
0.20000000000000001 -0.20000000000000001 1 0
0.20000000000000001 0.20000000000000001 1 0
0.20000000000000001 0.59999999999999998 1 0
0.20000000000000001 1 1 0
0.59999999999999998 -1 1 0
0.59999999999999998 -0.59999999999999998 1 0
0.59999999999999998 -0.20000000000000001 1 0
0.59999999999999998 0.20000000000000001 1 0
0.59999999999999998 0.59999999999999998 1 0
0.59999999999999998 1 1 0
1 -1 1 0
1 -0.59999999999999998 1 0
1 -0.20000000000000001 1 0
1 0.20000000000000001 1 0
1 0.59999999999999998 1 0
1 1 1 0
-1 -0.3473684210526316 0.20000000000000001 0
-1 0.3473684210526316 0.20000000000000001 0
-1 -0.1368421052631579 0.59999999999999998 0
-1 0.1368421052631579 0.59999999999999998 0
1 0.3473684210526316 0.20000000000000001 0
1 -0.3473684210526316 0.20000000000000001 0
1 0.1368421052631579 0.59999999999999998 0
1 -0.1368421052631579 0.59999999999999998 0
0.3473684210526316 -1 0.20000000000000001 0
-0.3473684210526316 -1 0.20000000000000001 0
0.1368421052631579 -1 0.59999999999999998 0
-0.1368421052631579 -1 0.59999999999999998 0
-0.3473684210526316 1 0.20000000000000001 0
0.3473684210526316 1 0.20000000000000001 0
-0.1368421052631579 1 0.59999999999999998 0
0.1368421052631579 1 0.59999999999999998 0
-0.34736842105263149 0.37631578947368421 0.5818181818181819 0
0.34736842105263149 0.37631578947368421 0.5818181818181819 0
-0.34736842105263149 -0.37631578947368421 0.5818181818181819 0
0.34736842105263149 -0.37631578947368421 0.5818181818181819 0
-0.34736842105263166 -0.14842105263157895 0.75454545454545452 0
0.34736842105263166 -0.14842105263157895 0.75454545454545452 0
-0.34736842105263166 0.14842105263157895 0.75454545454545452 0
0.34736842105263166 0.14842105263157895 0.75454545454545452 0
0.1368421052631579 0.53842105263157891 0.75454545454545474 0
-0.1368421052631579 0.53842105263157891 0.75454545454545474 0
0.1368421052631579 -0.53842105263157891 0.75454545454545474 0
-0.1368421052631579 -0.53842105263157891 0.75454545454545474 0
-0.1368421052631579 0.17736842105263159 0.83636363636363631 0
0.1368421052631579 0.17736842105263159 0.83636363636363631 0
-0.1368421052631579 -0.17736842105263159 0.83636363636363631 0
0.1368421052631579 -0.17736842105263159 0.83636363636363631 0
Hexahedra
37
1 4 3 2 42 41 46 45 0
42 41 46 45 57 59 60 58 0
2 1 42 45 54 53 57 58 0
3 46 41 4 49 60 59 50 0
42 41 59 57 44 43 61 63 0
45 58 60 46 47 64 62 48 0
57 59 60 58 63 61 62 64 0
58 57 63 64 65 66 69 70 0
60 62 61 59 67 72 71 68 0
41 59 61 43 8 7 9 10 0
46 48 62 60 36 37 31 30 0
42 44 63 57 14 12 11 13 0
45 58 64 47 39 33 32 38 0
63 61 62 64 69 71 72 70 0
44 43 61 63 12 10 9 11 0
47 64 62 48 38 32 31 37 0
61 63 11 9 71 69 20 19 0
62 31 32 64 72 25 26 70 0
59 61 9 7 68 71 19 18 0
60 30 31 62 67 24 25 72 0
57 13 11 63 66 21 20 69 0
58 64 32 33 65 70 26 27 0
58 57 66 65 54 53 55 56 0
60 67 68 59 49 51 52 50 0
1 42 57 53 16 14 13 15 0
2 54 58 45 40 34 33 39 0
4 50 59 41 5 6 7 8 0
3 46 60 49 35 36 30 29 0
69 71 72 70 20 19 25 26 0
71 72 25 19 68 67 24 18 0
69 20 26 70 66 21 27 65 0
7 59 68 18 6 50 52 17 0
30 24 67 60 29 23 51 49 0
13 21 66 57 15 22 55 53 0
33 58 65 27 34 54 56 28 0
68 67 24 18 52 51 23 17 0
66 21 27 65 55 22 28 56 0
Quadrilaterals
54
1 2 3 4 0
5 6 7 8 0
8 7 9 10 0
10 9 11 12 0
12 11 13 14 0
14 13 15 16 0
6 17 18 7 0
7 18 19 9 0
9 19 20 11 0
11 20 21 13 0
13 21 22 15 0
17 23 24 18 0
18 24 25 19 0
19 25 26 20 0
20 26 27 21 0
21 27 28 22 0
23 29 30 24 0
24 30 31 25 0
25 31 32 26 0
26 32 33 27 0
27 33 34 28 0
29 35 36 30 0
30 36 37 31 0
31 37 38 32 0
32 38 39 33 0
33 39 40 34 0
41 42 1 4 0
14 16 1 42 0
43 44 42 41 0
5 8 41 4 0
44 12 14 42 0
10 12 44 43 0
8 10 43 41 0
3 2 45 46 0
45 2 40 39 0
46 45 47 48 0
3 46 36 35 0
45 39 38 47 0
48 47 38 37 0
46 48 37 36 0
4 3 49 50 0
49 3 35 29 0
50 49 51 52 0
4 50 6 5 0
49 29 23 51 0
52 51 23 17 0
50 52 17 6 0
53 54 2 1 0
34 40 2 54 0
55 56 54 53 0
16 15 53 1 0
56 28 34 54 0
22 28 56 55 0
15 22 55 53 0
End
