MeshVersionFormatted 2
Dimension 3
Vertices
72
-1 -0.33333333333333331 -1 0
-0.33333333333333331 -0.33333333333333331 -1 0
-0.33333333333333331 -1 -1 0
-1 -1 -1 0
-1 0.33333333333333331 -1 0
-0.33333333333333331 0.33333333333333331 -1 0
-1 1 -1 0
-0.33333333333333331 1 -1 0
0.33333333333333331 -0.33333333333333331 -1 0
0.33333333333333331 -1 -1 0
0.33333333333333331 0.33333333333333331 -1 0
0.33333333333333331 1 -1 0
1 -0.33333333333333331 -1 0
1 -1 -1 0
1 0.33333333333333331 -1 0
1 1 -1 0
-1 -1 1 0
-0.59999999999999998 -1 1 0
-0.59999999999999998 -0.59999999999999998 1 0
-1 -0.59999999999999998 1 0
-0.59999999999999998 -0.20000000000000001 1 0
-1 -0.20000000000000001 1 0
-0.59999999999999998 0.20000000000000001 1 0
-1 0.20000000000000001 1 0
-0.59999999999999998 0.59999999999999998 1 0
-1 0.59999999999999998 1 0
-0.59999999999999998 1 1 0
-1 1 1 0
-0.20000000000000001 -1 1 0
-0.20000000000000001 -0.59999999999999998 1 0
-0.20000000000000001 -0.20000000000000001 1 0
-0.20000000000000001 0.20000000000000001 1 0
-0.20000000000000001 0.59999999999999998 1 0
-0.20000000000000001 1 1 0
0.20000000000000001 -1 1 0
0.20000000000000001 -0.59999999999999998 1 0
0.20000000000000001 -0.20000000000000001 1 0
0.20000000000000001 0.20000000000000001 1 0
0.20000000000000001 0.59999999999999998 1 0
0.20000000000000001 1 1 0
0.59999999999999998 -1 1 0
0.59999999999999998 -0.59999999999999998 1 0
0.59999999999999998 -0.20000000000000001 1 0
0.59999999999999998 0.20000000000000001 1 0
0.59999999999999998 0.59999999999999998 1 0
0.59999999999999998 1 1 0
1 -1 1 0
1 -0.59999999999999998 1 0
1 -0.20000000000000001 1 0
1 0.20000000000000001 1 0
1 0.59999999999999998 1 0
1 1 1 0
-1 -0.13333333333333333 0 0
-1 0.13333333333333333 0 0
1 -0.13333333333333333 0 0
1 0.13333333333333333 0 0
-0.13333333333333333 -1 0 0
0.13333333333333333 -1 0 0
-0.13333333333333333 1 0 0
0.13333333333333333 1 0 0
-0.0001690029375854033 0.064130528584317739 -0.047019550756186954 0
0.0001690029375854033 0.064130528584317739 -0.047019550756186954 0
-0.0001690029375854033 -0.064130528584317739 -0.047019550756186954 0
0.0001690029375854033 -0.064130528584317739 -0.047019550756186954 0
-0.0048732055335548533 0.1754743672818537 0.3978092629734255 0
0.0048732055335548533 0.1754743672818537 0.3978092629734255 0
-0.0048732055335548533 -0.1754743672818537 0.3978092629734255 0
0.0048732055335548533 -0.1754743672818537 0.3978092629734255 0
-0.12362545609222471 -0.8576048139850978 -0.0068812583343013482 0
0.12362545609222471 -0.8576048139850978 -0.0068812583343013482 0
-0.12362545609222471 0.8576048139850978 -0.0068812583343013482 0
0.12362545609222471 0.8576048139850978 -0.0068812583343013482 0
Hexahedra
33
6 2 9 11 61 63 64 62 0
61 63 64 62 65 67 68 66 0
6 2 63 61 5 1 53 54 0
11 62 64 9 15 56 55 13 0
2 9 64 63 69 70 68 67 0
6 61 62 11 71 65 66 72 0
61 63 67 65 23 21 31 32 0
62 66 68 64 44 38 37 43 0
65 67 68 66 32 31 37 38 0
63 2 69 67 21 19 30 31 0
64 68 70 9 43 37 36 42 0
61 65 71 6 23 32 33 25 0
62 11 72 66 44 45 39 38 0
61 63 21 23 54 53 22 24 0
62 44 43 64 56 50 49 55 0
67 68 37 31 69 70 36 30 0
65 32 38 66 71 33 39 72 0
63 2 19 21 53 1 20 22 0
64 43 42 9 55 49 48 13 0
61 23 25 6 54 24 26 5 0
62 11 45 44 56 15 51 50 0
2 9 70 69 3 10 58 57 0
6 71 72 11 8 59 60 12 0
2 69 30 19 3 57 29 18 0
9 42 36 70 10 41 35 58 0
6 25 33 71 8 27 34 59 0
11 72 39 45 12 60 40 46 0
69 70 36 30 57 58 35 29 0
71 33 39 72 59 34 40 60 0
2 19 20 1 3 18 17 4 0
9 13 48 42 10 14 47 41 0
6 5 26 25 8 7 28 27 0
11 45 51 15 12 46 52 16 0
Quadrilaterals
58
1 2 3 4 0
5 6 2 1 0
7 8 6 5 0
2 9 10 3 0
6 11 9 2 0
8 12 11 6 0
9 13 14 10 0
11 15 13 9 0
12 16 15 11 0
17 18 19 20 0
20 19 21 22 0
22 21 23 24 0
24 23 25 26 0
26 25 27 28 0
18 29 30 19 0
19 30 31 21 0
21 31 32 23 0
23 32 33 25 0
25 33 34 27 0
29 35 36 30 0
30 36 37 31 0
31 37 38 32 0
32 38 39 33 0
33 39 40 34 0
35 41 42 36 0
36 42 43 37 0
37 43 44 38 0
38 44 45 39 0
39 45 46 40 0
41 47 48 42 0
42 48 49 43 0
43 49 50 44 0
44 50 51 45 0
45 51 52 46 0
17 20 1 4 0
22 53 1 20 0
54 5 1 53 0
24 54 53 22 0
24 26 5 54 0
28 7 5 26 0
14 13 48 47 0
48 13 55 49 0
55 13 15 56 0
49 55 56 50 0
56 15 51 50 0
51 15 16 52 0
4 3 18 17 0
18 3 57 29 0
57 3 10 58 0
29 57 58 35 0
58 10 41 35 0
41 10 14 47 0
28 27 8 7 0
34 59 8 27 0
60 12 8 59 0
40 60 59 34 0
40 46 12 60 0
52 16 12 46 0
End
