MeshVersionFormatted 2
Dimension 3
Vertices
612
0.74865811482053435 1.0599360533096862 0.21065964024575429 0
0.5 1 0 0
1 1 0 0
1.1899113092175064 1.2134998641745778 0.39368887915936379 0
0.78204758392660889 0.62452217387201669 0.12831391698446717 0
0.5 0.5 0 0
1 0.5 0 0
1.0912706415588957 0.61978627556806776 0.14753810541398321 0
0.42627830730466726 1.1847472546716218 0.20492771603113571 0
0.36700756848823046 0.71754147451356598 0.13919291421322574 0
0.57105660440781181 1.1336771986982801 0.23851425222590908 0
0.52260787208568504 0.79676233587616274 0.19099569809912412 0
0.091270641558895749 0.61978627556806776 0.14753810541398321 0
0 0.5 0 0
0.18991130921750643 1.2134998641745778 0.39368887915936379 0
0 1 0 0
1.11399487673932 0.60019671252100981 0.23483532060444445 0
0.82582599896295683 0.56527245219857347 0.17622809775768 0
0.86838572780213319 0.61872480914871431 0.27911148667583763 0
1.1609265693526438 0.66613644874599265 0.41055504252009722 0
0.70802894657764737 0.5087114430125963 0.29127832512904001 0
0.74719923502978236 0.54362284923354653 0.35814930060216704 0
0.62081315705179729 0.67233961116639318 0.27925667429392903 0
0.65472002320787737 0.74602765091867451 0.37460994655083601 0
0.66834214984837692 1.2092953081652436 0.32744102089223759 0
0.51912111686425455 0.91226406974417695 0.35930841731174123 0
0.52832297885046731 0.80914524863993997 0.27977237680311273 0
0.52491587079816271 0.76852891482435892 0.23523400687154911 0
0.7040149255275252 0.60499982504654781 0.20039252387578521 0
0.74588879477186376 0.53434598438583003 0.20387351060496109 0
0.74646620346087489 0.45114346685353651 0.098334771226153014 0
1.1251153335097559 0.49376834968580402 0.10373526108278179 0
0.65886596202090164 0.3852098649546537 0.16743195936567495 0
0.41943924024767471 0.47404277031551395 0.099639488707570556 0
0.34644138653142109 0.64897021492480755 0.19270717105794447 0
0.5 0 0 0
1 0 0 0
0.74865811482053435 0.05993605330968621 0.21065964024575429 0
1.1899113092175064 0.21349986417457778 0.39368887915936379 0
0.11399487673931996 0.60019671252100981 0.23483532060444445 0
0.1251153335097559 0.49376834968580402 0.10373526108278179 0
0.57105660440781181 0.1336771986982801 0.23851425222590908 0
0.42627830730466726 0.18474725467162179 0.20492771603113571 0
0.18991130921750643 0.21349986417457778 0.39368887915936379 0
0 0 0 0
0.16092656935264382 0.66613644874599265 0.41055504252009722 0
0.36925404220353375 0.74505886968403501 0.28246931820315624 0
0.66834214984837692 0.20929530816524355 0.32744102089223759 0
0.45079716155061628 0.77790996063464735 0.47869267758999556 0
0.55300288450262525 0.65526008200430641 0.53697686787505161 0
0.61701181574422792 0.84699355127398079 0.44666376410867031 0
0.69737331978877204 0.75307150338892836 0.46582172096183161 0
0.50210947615948265 0.91379476437397811 0.53273436650908346 0
0.67819941809531492 0.94894699556309914 0.46999714554126498 0
0.95773491142966238 0.80515478321742062 0.67959012702093158 0
1.1027115115100863 0.92854976726867033 0.55138816859259898 0
0.0047442575111098697 0.68855973428712092 0.46631298008187683 0
0.1277713593259597 0.55121336119632658 0.51584966626679296 0
0.29542376753610694 0.77973661782196479 0.5354935402104164 0
0.3946486615595598 0.71865681780593882 0.59696214048341256 0
0.10271151151008628 0.92854976726867033 0.55138816859259898 0
0.30001992699954871 0.85349141611647517 0.56193215716508416 0
-0.042265088570337617 0.80515478321742062 0.67959012702093158 0
0.52313676475399395 0.81822043318037074 0.69531530743798098 0
0.73251738490369123 0.56401066000552036 0.46065623576029274 0
0.75062323640106321 0.62577197531003237 0.42760338916430052 0
1.1277713593259597 0.55121336119632658 0.51584966626679296 0
1.0047442575111099 0.68855973428712092 0.46631298008187683 0
0.34341524438591758 0.3136269141777735 0.56280211244832989 0
0.28905277098920512 0.51243381084632578 0.60654114785641788 0
0.10271151151008628 -0.071450232731329666 0.55138816859259898 0
0.30787300931694939 0.12484796991761349 0.59954739720913086 0
0.25826535549668866 0.32247208848786374 0.6194003169763046 0
0.15006429899985602 0.29640506349530604 0.59059473055017764 0
0.67512074128539601 0.42156275955017397 0.74794037983614725 0
0.37432337033784274 0.14211851118672778 0.6696470035088915 0
0.36258536789480367 0.55456593452339009 0.68665247154828779 0
0.27550352503640524 0.38343067628885225 0.66430809770110266 0
0.11030062216122162 0.32479104122034175 0.67845858354620248 0
-0.042265088570337617 -0.19484521678257938 0.67959012702093158 0
0.50210947615948265 -0.086205235626021892 0.53273436650908346 0
0.52027340711603354 0.031978817622333199 0.61946743260732673 0
0.40439432885017307 -0.039283877916654997 0.60970651261351949 0
0.30001992699954871 -0.14650858388352483 0.56193215716508416 0
0.78806786901979697 0.15731443995494501 0.76228208266830944 0
0.55009380855723944 -0.01490624896123649 0.70539173127991783 0
0.30787300931694939 1.1248479699176135 0.59954739720913086 0
0.37432337033784274 1.1421185111867278 0.6696470035088915 0
0.40439432885017307 0.960716122083345 0.60970651261351949 0
0.55009380855723944 0.98509375103876351 0.70539173127991783 0
0.78806786901979697 1.1573144399549451 0.76228208266830944 0
0.52027340711603354 1.0319788176223332 0.61946743260732673 0
0.53733543186737021 0.62090079297087908 0.63934484536246172 0
0.4572850986934423 0.64535009638761331 0.66587019323714036 0
0.81673534993806363 0.6262499251686573 0.74719725284103578 0
0.51376705133346767 0.69049578610925944 0.72494074061053437 0
0.32975333040985971 0.7585009857740691 0.82684263209031439 0
0.5 0.75 1 0
0.25 1 1 0
0.15476914179364071 0.59124137606499994 0.93494092855805355 0
0.25 0.5 1 0
0 0.75 1 0
-0.019018268929560711 0.73745413339638211 0.903076484470962 0
0.56602118820699954 0.60631815514081933 0.85691669717385144 0
0.35900618020922082 0.42506457191099484 0.93588036272550834 0
0.48293618912562952 0.65012300355182273 0.82286359353922489 0
0.33929914299871144 0.50704182799240394 0.88145959192524359 0
0.47633760594235153 0.2817149016685061 0.93632476684379429 0
0.5 0.25 1 0
0.75 0.5 1 0
-0.10075250386377377 0.65132116198760559 0.83566439873570941 0
0.044595214920742185 0.53793036968247765 0.87775896276041177 0
0.013935440164594359 0.50303108678020225 0.82667410680614417 0
-0.18326465006193637 0.6262499251686573 0.74719725284103578 0
0.067448591940536998 0.3789617617336154 0.81275223385992412 0
0.031292230892635997 0.36890298363542856 0.77010800224355047 0
0.16345762017192153 0.40441381351348571 0.77565962701855495 0
0.24681738816560633 0.36002393962701223 0.7228754299776563 0
0.27979281139511525 0.41400179994540315 0.84045118050242651 0
0.22178692583521925 0.39119972108586304 0.83419249450895661 0
0.11239416320423913 0.38635228299123531 0.83974211355791772 0
0.053052334384612772 0.50232324066525902 0.91108254125737587 0
-0.0933409304006112 0.65753521554969352 0.88721848519705193 0
0.077526399386198389 0.35467225126701107 0.86612594374360752 0
0.24042424026897158 0.2899522190073679 0.88627710370160329 0
0.26439126087773063 0.29487338025402415 0.84538655446408528 0
1 0.75 1 0
1.25 0.5 1 0
1 0.25 1 0
0.9066590695993888 0.65753521554969352 0.88721848519705193 0
1.0530523343846128 0.50232324066525902 0.91108254125737587 0
0.89337803103089175 0.30438675065120996 0.88035508660441919 0
0.38690945243819164 0.17024674658171679 0.7879131839751915 0
0.37658857838783416 0.1627812403086428 0.86666771867597814 0
-0.0832322260868672 0.20941725544995099 0.83987574155704003 0
-0.10662196896910825 0.30438675065120996 0.88035508660441919 0
-0.03513823518475967 0.092954734748513013 0.8354975142270219 0
0 0.25 1 0
0.25 0 1 0
0.26490560808803587 0.25038452999165228 0.74479343159078726 0
1.031292230892636 0.36890298363542856 0.77010800224355047 0
1.067448591940537 0.3789617617336154 0.81275223385992412 0
0.9167677739131328 0.20941725544995099 0.83987574155704003 0
1.1103006221612217 0.32479104122034175 0.67845858354620248 0
1.1634576201719216 0.40441381351348571 0.77565962701855495 0
0.96486176481524033 0.092954734748513013 0.8354975142270219 0
0.95773491142966238 -0.19484521678257938 0.67959012702093158 0
0.89924749613622623 0.65132116198760559 0.83566439873570941 0
1.0445952149207423 0.53793036968247765 0.87775896276041177 0
1.0139354401645944 0.50303108678020225 0.82667410680614417 0
1 1.25 1 0
0.96486176481524033 1.0929547347485129 0.8354975142270219 0
1.25 1 1 0
0.75 1 1 0
0.84330712447553124 0.89785529371872608 0.93244229967413383 0
0.98098173107043929 0.73745413339638211 0.903076484470962 0
0.68870234923521589 0.10656826153650156 0.94408882008347716 0
0.75 0 1 0
0.76246155203873167 0.079350365485953589 0.89438843755517727 0
0.84330712447553124 -0.10214470628127392 0.93244229967413383 0
0.7817000025836639 0.81235928212411668 0.86980008996266678 0
0.76097114552721568 0.78537012778437409 0.81590011923842198 0
0.59745351610229946 0.75384290774971985 0.79372360278220011 0
0.63824198245646424 0.8999538439083159 0.78328922934187883 0
0.64213680257857775 0.033823213538727685 0.77629982575665202 0
0.52313676475399395 -0.18177956681962926 0.69531530743798098 0
0.63824198245646424 -0.1000461560916841 0.78328922934187883 0
0.6619617864305648 0.047208781475678127 0.8435473000905569 0
0.63530190149669408 -0.022779573800274622 0.83381594574184081 0
0.63530190149669408 0.97722042619972538 0.83381594574184081 0
0.63498415825752574 0.83924979111696263 0.83115389868423639 0
0.74212452987029143 0.81287380186250335 0.90893205080990025 0
0.63428987831560213 0.83578131384465348 0.86419720224399399 0
0.52231725520037442 1.0312592887747942 0.88531969243827779 0
0.52231725520037442 0.031259288774794225 0.88531969243827779 0
0.50960251385258526 0.075149338921303696 0.84338726603378666 0
0.37658857838783416 1.1627812403086428 0.86666771867597814 0
0.5 1.25 1 0
0.51262540682325797 0.081686689917840991 0.76890834023869747 0
0.32975333040985971 -0.2414990142259309 0.82684263209031439 0
0.64213680257857775 1.0338232135387277 0.77629982575665202 0
0.51262540682325797 1.081686689917841 0.76890834023869747 0
0.6619617864305648 1.0472087814756781 0.8435473000905569 0
0.50960251385258526 1.0751493389213036 0.84338726603378666 0
0.67819941809531492 -0.051053004436900862 0.46999714554126498 0
0.7478054096712754 0.25410618325463941 0.51230263379057306 0
1.1027115115100863 -0.071450232731329666 0.55138816859259898 0
-0.2521945903287246 0.25410618325463941 0.51230263379057306 0
0.74865811482053435 2.059936053309686 0.21065964024575429 0
0.5 2 0 0
1 2 0 0
1.1899113092175064 2.2134998641745778 0.39368887915936379 0
0.78204758392660889 1.6245221738720166 0.12831391698446717 0
0.5 1.5 0 0
1 1.5 0 0
1.0912706415588957 1.6197862755680679 0.14753810541398321 0
0.42627830730466726 2.1847472546716218 0.20492771603113571 0
0.36700756848823046 1.717541474513566 0.13919291421322574 0
0.57105660440781181 2.1336771986982801 0.23851425222590908 0
0.52260787208568504 1.7967623358761626 0.19099569809912412 0
0.091270641558895749 1.6197862755680679 0.14753810541398321 0
0 1.5 0 0
0.18991130921750643 2.2134998641745778 0.39368887915936379 0
0 2 0 0
1.11399487673932 1.6001967125210097 0.23483532060444445 0
0.82582599896295683 1.5652724521985735 0.17622809775768 0
0.86838572780213319 1.6187248091487143 0.27911148667583763 0
1.1609265693526438 1.6661364487459926 0.41055504252009722 0
0.70802894657764737 1.5087114430125963 0.29127832512904001 0
0.74719923502978236 1.5436228492335466 0.35814930060216704 0
0.62081315705179729 1.6723396111663931 0.27925667429392903 0
0.65472002320787737 1.7460276509186745 0.37460994655083601 0
0.66834214984837692 2.2092953081652436 0.32744102089223759 0
0.51912111686425455 1.9122640697441771 0.35930841731174123 0
0.52832297885046731 1.80914524863994 0.27977237680311273 0
0.52491587079816271 1.7685289148243588 0.23523400687154911 0
0.7040149255275252 1.6049998250465478 0.20039252387578521 0
0.74588879477186376 1.53434598438583 0.20387351060496109 0
0.74646620346087489 1.4511434668535366 0.098334771226153014 0
1.1251153335097559 1.4937683496858041 0.10373526108278179 0
0.65886596202090164 1.3852098649546538 0.16743195936567495 0
0.41943924024767471 1.4740427703155139 0.099639488707570556 0
0.34644138653142109 1.6489702149248076 0.19270717105794447 0
0.11399487673931996 1.6001967125210097 0.23483532060444445 0
0.1251153335097559 1.4937683496858041 0.10373526108278179 0
0.16092656935264382 1.6661364487459926 0.41055504252009722 0
0.36925404220353375 1.745058869684035 0.28246931820315624 0
0.45079716155061628 1.7779099606346473 0.47869267758999556 0
0.55300288450262525 1.6552600820043064 0.53697686787505161 0
0.61701181574422792 1.8469935512739808 0.44666376410867031 0
0.69737331978877204 1.7530715033889284 0.46582172096183161 0
0.50210947615948265 1.9137947643739781 0.53273436650908346 0
0.67819941809531492 1.9489469955630991 0.46999714554126498 0
0.95773491142966238 1.8051547832174206 0.67959012702093158 0
1.1027115115100863 1.9285497672686702 0.55138816859259898 0
0.0047442575111098697 1.688559734287121 0.46631298008187683 0
0.1277713593259597 1.5512133611963266 0.51584966626679296 0
0.29542376753610694 1.7797366178219649 0.5354935402104164 0
0.3946486615595598 1.7186568178059387 0.59696214048341256 0
0.10271151151008628 1.9285497672686702 0.55138816859259898 0
0.30001992699954871 1.8534914161164751 0.56193215716508416 0
-0.042265088570337617 1.8051547832174206 0.67959012702093158 0
0.52313676475399395 1.8182204331803709 0.69531530743798098 0
0.73251738490369123 1.5640106600055204 0.46065623576029274 0
0.75062323640106321 1.6257719753100324 0.42760338916430052 0
1.1277713593259597 1.5512133611963266 0.51584966626679296 0
1.0047442575111099 1.688559734287121 0.46631298008187683 0
0.34341524438591758 1.3136269141777734 0.56280211244832989 0
0.28905277098920512 1.5124338108463258 0.60654114785641788 0
0.25826535549668866 1.3224720884878638 0.6194003169763046 0
0.15006429899985602 1.2964050634953059 0.59059473055017764 0
0.67512074128539601 1.4215627595501741 0.74794037983614725 0
0.36258536789480367 1.55456593452339 0.68665247154828779 0
0.27550352503640524 1.3834306762888522 0.66430809770110266 0
0.11030062216122162 1.3247910412203416 0.67845858354620248 0
0.30787300931694939 2.1248479699176137 0.59954739720913086 0
0.37432337033784274 2.1421185111867276 0.6696470035088915 0
0.40439432885017307 1.9607161220833449 0.60970651261351949 0
0.55009380855723944 1.9850937510387636 0.70539173127991783 0
0.78806786901979697 2.1573144399549449 0.76228208266830944 0
0.52027340711603354 2.031978817622333 0.61946743260732673 0
0.53733543186737021 1.620900792970879 0.63934484536246172 0
0.4572850986934423 1.6453500963876133 0.66587019323714036 0
0.81673534993806363 1.6262499251686573 0.74719725284103578 0
0.51376705133346767 1.6904957861092593 0.72494074061053437 0
0.32975333040985971 1.7585009857740692 0.82684263209031439 0
0.5 1.75 1 0
0.25 2 1 0
0.15476914179364071 1.5912413760649999 0.93494092855805355 0
0.25 1.5 1 0
0 1.75 1 0
-0.019018268929560711 1.737454133396382 0.903076484470962 0
0.56602118820699954 1.6063181551408192 0.85691669717385144 0
0.35900618020922082 1.4250645719109949 0.93588036272550834 0
0.48293618912562952 1.6501230035518226 0.82286359353922489 0
0.33929914299871144 1.507041827992404 0.88145959192524359 0
0.47633760594235153 1.2817149016685061 0.93632476684379429 0
0.75 1.5 1 0
-0.10075250386377377 1.6513211619876056 0.83566439873570941 0
0.044595214920742185 1.5379303696824778 0.87775896276041177 0
0.013935440164594359 1.5030310867802021 0.82667410680614417 0
-0.18326465006193637 1.6262499251686573 0.74719725284103578 0
0.067448591940536998 1.3789617617336154 0.81275223385992412 0
0.031292230892635997 1.3689029836354285 0.77010800224355047 0
0.16345762017192153 1.4044138135134858 0.77565962701855495 0
0.24681738816560633 1.3600239396270122 0.7228754299776563 0
0.27979281139511525 1.4140017999454031 0.84045118050242651 0
0.22178692583521925 1.3911997210858631 0.83419249450895661 0
0.11239416320423913 1.3863522829912354 0.83974211355791772 0
0.053052334384612772 1.5023232406652589 0.91108254125737587 0
-0.0933409304006112 1.6575352155496934 0.88721848519705193 0
0.077526399386198389 1.3546722512670111 0.86612594374360752 0
0.24042424026897158 1.2899522190073678 0.88627710370160329 0
0.26439126087773063 1.2948733802540242 0.84538655446408528 0
1 1.75 1 0
1.25 1.5 1 0
0.9066590695993888 1.6575352155496934 0.88721848519705193 0
1.0530523343846128 1.5023232406652589 0.91108254125737587 0
0.89337803103089175 1.3043867506512099 0.88035508660441919 0
0.38690945243819164 1.1702467465817168 0.7879131839751915 0
-0.0832322260868672 1.2094172554499509 0.83987574155704003 0
-0.10662196896910825 1.3043867506512099 0.88035508660441919 0
-0.03513823518475967 1.0929547347485129 0.8354975142270219 0
0 1.25 1 0
0.26490560808803587 1.2503845299916523 0.74479343159078726 0
1.031292230892636 1.3689029836354285 0.77010800224355047 0
1.067448591940537 1.3789617617336154 0.81275223385992412 0
0.9167677739131328 1.2094172554499509 0.83987574155704003 0
1.1103006221612217 1.3247910412203416 0.67845858354620248 0
1.1634576201719216 1.4044138135134858 0.77565962701855495 0
0.89924749613622623 1.6513211619876056 0.83566439873570941 0
1.0445952149207423 1.5379303696824778 0.87775896276041177 0
1.0139354401645944 1.5030310867802021 0.82667410680614417 0
1 2.25 1 0
0.96486176481524033 2.0929547347485129 0.8354975142270219 0
1.25 2 1 0
0.75 2 1 0
0.84330712447553124 1.8978552937187261 0.93244229967413383 0
0.98098173107043929 1.737454133396382 0.903076484470962 0
0.68870234923521589 1.1065682615365016 0.94408882008347716 0
0.76246155203873167 1.0793503654859535 0.89438843755517727 0
0.7817000025836639 1.8123592821241168 0.86980008996266678 0
0.76097114552721568 1.7853701277843741 0.81590011923842198 0
0.59745351610229946 1.75384290774972 0.79372360278220011 0
0.63824198245646424 1.8999538439083159 0.78328922934187883 0
0.63530190149669408 1.9772204261997253 0.83381594574184081 0
0.63498415825752574 1.8392497911169627 0.83115389868423639 0
0.74212452987029143 1.8128738018625032 0.90893205080990025 0
0.63428987831560213 1.8357813138446535 0.86419720224399399 0
0.52231725520037442 2.0312592887747942 0.88531969243827779 0
0.37658857838783416 2.1627812403086426 0.86666771867597814 0
0.5 2.25 1 0
0.64213680257857775 2.0338232135387275 0.77629982575665202 0
0.51262540682325797 2.081686689917841 0.76890834023869747 0
0.6619617864305648 2.0472087814756783 0.8435473000905569 0
0.50960251385258526 2.0751493389213036 0.84338726603378666 0
0.7478054096712754 1.2541061832546394 0.51230263379057306 0
-0.2521945903287246 1.2541061832546394 0.51230263379057306 0
1.7486581148205342 1.0599360533096862 0.21065964024575429 0
1.5 1 0 0
2 1 0 0
2.1899113092175062 1.2134998641745778 0.39368887915936379 0
1.7820475839266088 0.62452217387201669 0.12831391698446717 0
1.5 0.5 0 0
2 0.5 0 0
2.0912706415588955 0.61978627556806776 0.14753810541398321 0
1.4262783073046672 1.1847472546716218 0.20492771603113571 0
1.3670075684882304 0.71754147451356598 0.13919291421322574 0
1.5710566044078118 1.1336771986982801 0.23851425222590908 0
1.522607872085685 0.79676233587616274 0.19099569809912412 0
2.1139948767393202 0.60019671252100981 0.23483532060444445 0
1.8258259989629568 0.56527245219857347 0.17622809775768 0
1.8683857278021332 0.61872480914871431 0.27911148667583763 0
2.160926569352644 0.66613644874599265 0.41055504252009722 0
1.7080289465776475 0.5087114430125963 0.29127832512904001 0
1.7471992350297825 0.54362284923354653 0.35814930060216704 0
1.6208131570517974 0.67233961116639318 0.27925667429392903 0
1.6547200232078774 0.74602765091867451 0.37460994655083601 0
1.6683421498483768 1.2092953081652436 0.32744102089223759 0
1.5191211168642544 0.91226406974417695 0.35930841731174123 0
1.5283229788504673 0.80914524863993997 0.27977237680311273 0
1.5249158707981627 0.76852891482435892 0.23523400687154911 0
1.7040149255275252 0.60499982504654781 0.20039252387578521 0
1.7458887947718638 0.53434598438583003 0.20387351060496109 0
1.7464662034608749 0.45114346685353651 0.098334771226153014 0
2.1251153335097559 0.49376834968580402 0.10373526108278179 0
1.6588659620209016 0.3852098649546537 0.16743195936567495 0
1.4194392402476748 0.47404277031551395 0.099639488707570556 0
1.3464413865314211 0.64897021492480755 0.19270717105794447 0
1.5 0 0 0
2 0 0 0
1.7486581148205342 0.05993605330968621 0.21065964024575429 0
2.1899113092175062 0.21349986417457778 0.39368887915936379 0
1.5710566044078118 0.1336771986982801 0.23851425222590908 0
1.4262783073046672 0.18474725467162179 0.20492771603113571 0
1.3692540422035337 0.74505886968403501 0.28246931820315624 0
1.6683421498483768 0.20929530816524355 0.32744102089223759 0
1.4507971615506163 0.77790996063464735 0.47869267758999556 0
1.5530028845026251 0.65526008200430641 0.53697686787505161 0
1.6170118157442279 0.84699355127398079 0.44666376410867031 0
1.6973733197887722 0.75307150338892836 0.46582172096183161 0
1.5021094761594826 0.91379476437397811 0.53273436650908346 0
1.678199418095315 0.94894699556309914 0.46999714554126498 0
1.9577349114296623 0.80515478321742062 0.67959012702093158 0
2.1027115115100861 0.92854976726867033 0.55138816859259898 0
1.2954237675361069 0.77973661782196479 0.5354935402104164 0
1.3946486615595597 0.71865681780593882 0.59696214048341256 0
1.3000199269995487 0.85349141611647517 0.56193215716508416 0
1.523136764753994 0.81822043318037074 0.69531530743798098 0
1.7325173849036912 0.56401066000552036 0.46065623576029274 0
1.7506232364010632 0.62577197531003237 0.42760338916430052 0
2.1277713593259597 0.55121336119632658 0.51584966626679296 0
2.0047442575111099 0.68855973428712092 0.46631298008187683 0
1.3434152443859175 0.3136269141777735 0.56280211244832989 0
1.2890527709892052 0.51243381084632578 0.60654114785641788 0
1.3078730093169493 0.12484796991761349 0.59954739720913086 0
1.2582653554966887 0.32247208848786374 0.6194003169763046 0
1.150064298999856 0.29640506349530604 0.59059473055017764 0
1.6751207412853959 0.42156275955017397 0.74794037983614725 0
1.3743233703378428 0.14211851118672778 0.6696470035088915 0
1.3625853678948037 0.55456593452339009 0.68665247154828779 0
1.2755035250364053 0.38343067628885225 0.66430809770110266 0
1.5021094761594826 -0.086205235626021892 0.53273436650908346 0
1.5202734071160335 0.031978817622333199 0.61946743260732673 0
1.404394328850173 -0.039283877916654997 0.60970651261351949 0
1.3000199269995487 -0.14650858388352483 0.56193215716508416 0
1.7880678690197969 0.15731443995494501 0.76228208266830944 0
1.5500938085572393 -0.01490624896123649 0.70539173127991783 0
1.3078730093169493 1.1248479699176135 0.59954739720913086 0
1.3743233703378428 1.1421185111867278 0.6696470035088915 0
1.404394328850173 0.960716122083345 0.60970651261351949 0
1.5500938085572393 0.98509375103876351 0.70539173127991783 0
1.7880678690197969 1.1573144399549451 0.76228208266830944 0
1.5202734071160335 1.0319788176223332 0.61946743260732673 0
1.5373354318673702 0.62090079297087908 0.63934484536246172 0
1.4572850986934422 0.64535009638761331 0.66587019323714036 0
1.8167353499380636 0.6262499251686573 0.74719725284103578 0
1.5137670513334678 0.69049578610925944 0.72494074061053437 0
1.3297533304098597 0.7585009857740691 0.82684263209031439 0
1.5 0.75 1 0
1.1547691417936408 0.59124137606499994 0.93494092855805355 0
1.5660211882069994 0.60631815514081933 0.85691669717385144 0
1.3590061802092208 0.42506457191099484 0.93588036272550834 0
1.4829361891256294 0.65012300355182273 0.82286359353922489 0
1.3392991429987116 0.50704182799240394 0.88145959192524359 0
1.4763376059423514 0.2817149016685061 0.93632476684379429 0
1.5 0.25 1 0
1.75 0.5 1 0
1.2468173881656064 0.36002393962701223 0.7228754299776563 0
1.2797928113951151 0.41400179994540315 0.84045118050242651 0
1.2217869258352192 0.39119972108586304 0.83419249450895661 0
1.1123941632042391 0.38635228299123531 0.83974211355791772 0
1.0775263993861983 0.35467225126701107 0.86612594374360752 0
1.2404242402689716 0.2899522190073679 0.88627710370160329 0
1.2643912608777306 0.29487338025402415 0.84538655446408528 0
2 0.75 1 0
2.25 0.5 1 0
2 0.25 1 0
1.9066590695993888 0.65753521554969352 0.88721848519705193 0
2.053052334384613 0.50232324066525902 0.91108254125737587 0
1.8933780310308919 0.30438675065120996 0.88035508660441919 0
1.3869094524381915 0.17024674658171679 0.7879131839751915 0
1.3765885783878342 0.1627812403086428 0.86666771867597814 0
1.25 0 1 0
1.2649056080880359 0.25038452999165228 0.74479343159078726 0
2.0312922308926362 0.36890298363542856 0.77010800224355047 0
2.0674485919405372 0.3789617617336154 0.81275223385992412 0
1.9167677739131328 0.20941725544995099 0.83987574155704003 0
2.1103006221612217 0.32479104122034175 0.67845858354620248 0
2.1634576201719216 0.40441381351348571 0.77565962701855495 0
1.9648617648152404 0.092954734748513013 0.8354975142270219 0
1.9577349114296623 -0.19484521678257938 0.67959012702093158 0
1.8992474961362262 0.65132116198760559 0.83566439873570941 0
2.0445952149207423 0.53793036968247765 0.87775896276041177 0
2.0139354401645946 0.50303108678020225 0.82667410680614417 0
2 1.25 1 0
1.9648617648152404 1.0929547347485129 0.8354975142270219 0
2.25 1 1 0
1.75 1 1 0
1.8433071244755312 0.89785529371872608 0.93244229967413383 0
1.9809817310704392 0.73745413339638211 0.903076484470962 0
1.688702349235216 0.10656826153650156 0.94408882008347716 0
1.75 0 1 0
1.7624615520387317 0.079350365485953589 0.89438843755517727 0
1.8433071244755312 -0.10214470628127392 0.93244229967413383 0
1.7817000025836638 0.81235928212411668 0.86980008996266678 0
1.7609711455272157 0.78537012778437409 0.81590011923842198 0
1.5974535161022994 0.75384290774971985 0.79372360278220011 0
1.6382419824564642 0.8999538439083159 0.78328922934187883 0
1.6421368025785776 0.033823213538727685 0.77629982575665202 0
1.523136764753994 -0.18177956681962926 0.69531530743798098 0
1.6382419824564642 -0.1000461560916841 0.78328922934187883 0
1.6619617864305649 0.047208781475678127 0.8435473000905569 0
1.6353019014966941 -0.022779573800274622 0.83381594574184081 0
1.6353019014966941 0.97722042619972538 0.83381594574184081 0
1.6349841582575257 0.83924979111696263 0.83115389868423639 0
1.7421245298702914 0.81287380186250335 0.90893205080990025 0
1.6342898783156021 0.83578131384465348 0.86419720224399399 0
1.5223172552003743 1.0312592887747942 0.88531969243827779 0
1.5223172552003743 0.031259288774794225 0.88531969243827779 0
1.5096025138525853 0.075149338921303696 0.84338726603378666 0
1.3765885783878342 1.1627812403086428 0.86666771867597814 0
1.5 1.25 1 0
1.5126254068232581 0.081686689917840991 0.76890834023869747 0
1.3297533304098597 -0.2414990142259309 0.82684263209031439 0
1.6421368025785776 1.0338232135387277 0.77629982575665202 0
1.5126254068232581 1.081686689917841 0.76890834023869747 0
1.6619617864305649 1.0472087814756781 0.8435473000905569 0
1.5096025138525853 1.0751493389213036 0.84338726603378666 0
1.678199418095315 -0.051053004436900862 0.46999714554126498 0
1.7478054096712754 0.25410618325463941 0.51230263379057306 0
2.1027115115100861 -0.071450232731329666 0.55138816859259898 0
1.7486581148205342 2.059936053309686 0.21065964024575429 0
1.5 2 0 0
2 2 0 0
2.1899113092175062 2.2134998641745778 0.39368887915936379 0
1.7820475839266088 1.6245221738720166 0.12831391698446717 0
1.5 1.5 0 0
2 1.5 0 0
2.0912706415588955 1.6197862755680679 0.14753810541398321 0
1.4262783073046672 2.1847472546716218 0.20492771603113571 0
1.3670075684882304 1.717541474513566 0.13919291421322574 0
1.5710566044078118 2.1336771986982801 0.23851425222590908 0
1.522607872085685 1.7967623358761626 0.19099569809912412 0
2.1139948767393202 1.6001967125210097 0.23483532060444445 0
1.8258259989629568 1.5652724521985735 0.17622809775768 0
1.8683857278021332 1.6187248091487143 0.27911148667583763 0
2.160926569352644 1.6661364487459926 0.41055504252009722 0
1.7080289465776475 1.5087114430125963 0.29127832512904001 0
1.7471992350297825 1.5436228492335466 0.35814930060216704 0
1.6208131570517974 1.6723396111663931 0.27925667429392903 0
1.6547200232078774 1.7460276509186745 0.37460994655083601 0
1.6683421498483768 2.2092953081652436 0.32744102089223759 0
1.5191211168642544 1.9122640697441771 0.35930841731174123 0
1.5283229788504673 1.80914524863994 0.27977237680311273 0
1.5249158707981627 1.7685289148243588 0.23523400687154911 0
1.7040149255275252 1.6049998250465478 0.20039252387578521 0
1.7458887947718638 1.53434598438583 0.20387351060496109 0
1.7464662034608749 1.4511434668535366 0.098334771226153014 0
2.1251153335097559 1.4937683496858041 0.10373526108278179 0
1.6588659620209016 1.3852098649546538 0.16743195936567495 0
1.4194392402476748 1.4740427703155139 0.099639488707570556 0
1.3464413865314211 1.6489702149248076 0.19270717105794447 0
1.3692540422035337 1.745058869684035 0.28246931820315624 0
1.4507971615506163 1.7779099606346473 0.47869267758999556 0
1.5530028845026251 1.6552600820043064 0.53697686787505161 0
1.6170118157442279 1.8469935512739808 0.44666376410867031 0
1.6973733197887722 1.7530715033889284 0.46582172096183161 0
1.5021094761594826 1.9137947643739781 0.53273436650908346 0
1.678199418095315 1.9489469955630991 0.46999714554126498 0
1.9577349114296623 1.8051547832174206 0.67959012702093158 0
2.1027115115100861 1.9285497672686702 0.55138816859259898 0
1.2954237675361069 1.7797366178219649 0.5354935402104164 0
1.3946486615595597 1.7186568178059387 0.59696214048341256 0
1.3000199269995487 1.8534914161164751 0.56193215716508416 0
1.523136764753994 1.8182204331803709 0.69531530743798098 0
1.7325173849036912 1.5640106600055204 0.46065623576029274 0
1.7506232364010632 1.6257719753100324 0.42760338916430052 0
2.1277713593259597 1.5512133611963266 0.51584966626679296 0
2.0047442575111099 1.688559734287121 0.46631298008187683 0
1.3434152443859175 1.3136269141777734 0.56280211244832989 0
1.2890527709892052 1.5124338108463258 0.60654114785641788 0
1.2582653554966887 1.3224720884878638 0.6194003169763046 0
1.150064298999856 1.2964050634953059 0.59059473055017764 0
1.6751207412853959 1.4215627595501741 0.74794037983614725 0
1.3625853678948037 1.55456593452339 0.68665247154828779 0
1.2755035250364053 1.3834306762888522 0.66430809770110266 0
1.3078730093169493 2.1248479699176137 0.59954739720913086 0
1.3743233703378428 2.1421185111867276 0.6696470035088915 0
1.404394328850173 1.9607161220833449 0.60970651261351949 0
1.5500938085572393 1.9850937510387636 0.70539173127991783 0
1.7880678690197969 2.1573144399549449 0.76228208266830944 0
1.5202734071160335 2.031978817622333 0.61946743260732673 0
1.5373354318673702 1.620900792970879 0.63934484536246172 0
1.4572850986934422 1.6453500963876133 0.66587019323714036 0
1.8167353499380636 1.6262499251686573 0.74719725284103578 0
1.5137670513334678 1.6904957861092593 0.72494074061053437 0
1.3297533304098597 1.7585009857740692 0.82684263209031439 0
1.5 1.75 1 0
1.1547691417936408 1.5912413760649999 0.93494092855805355 0
1.5660211882069994 1.6063181551408192 0.85691669717385144 0
1.3590061802092208 1.4250645719109949 0.93588036272550834 0
1.4829361891256294 1.6501230035518226 0.82286359353922489 0
1.3392991429987116 1.507041827992404 0.88145959192524359 0
1.4763376059423514 1.2817149016685061 0.93632476684379429 0
1.75 1.5 1 0
1.2468173881656064 1.3600239396270122 0.7228754299776563 0
1.2797928113951151 1.4140017999454031 0.84045118050242651 0
1.2217869258352192 1.3911997210858631 0.83419249450895661 0
1.1123941632042391 1.3863522829912354 0.83974211355791772 0
1.0775263993861983 1.3546722512670111 0.86612594374360752 0
1.2404242402689716 1.2899522190073678 0.88627710370160329 0
1.2643912608777306 1.2948733802540242 0.84538655446408528 0
2 1.75 1 0
2.25 1.5 1 0
1.9066590695993888 1.6575352155496934 0.88721848519705193 0
2.053052334384613 1.5023232406652589 0.91108254125737587 0
1.8933780310308919 1.3043867506512099 0.88035508660441919 0
1.3869094524381915 1.1702467465817168 0.7879131839751915 0
1.2649056080880359 1.2503845299916523 0.74479343159078726 0
2.0312922308926362 1.3689029836354285 0.77010800224355047 0
2.0674485919405372 1.3789617617336154 0.81275223385992412 0
1.9167677739131328 1.2094172554499509 0.83987574155704003 0
2.1103006221612217 1.3247910412203416 0.67845858354620248 0
2.1634576201719216 1.4044138135134858 0.77565962701855495 0
1.8992474961362262 1.6513211619876056 0.83566439873570941 0
2.0445952149207423 1.5379303696824778 0.87775896276041177 0
2.0139354401645946 1.5030310867802021 0.82667410680614417 0
2 2.25 1 0
1.9648617648152404 2.0929547347485129 0.8354975142270219 0
2.25 2 1 0
1.75 2 1 0
1.8433071244755312 1.8978552937187261 0.93244229967413383 0
1.9809817310704392 1.737454133396382 0.903076484470962 0
1.688702349235216 1.1065682615365016 0.94408882008347716 0
1.7624615520387317 1.0793503654859535 0.89438843755517727 0
1.7817000025836638 1.8123592821241168 0.86980008996266678 0
1.7609711455272157 1.7853701277843741 0.81590011923842198 0
1.5974535161022994 1.75384290774972 0.79372360278220011 0
1.6382419824564642 1.8999538439083159 0.78328922934187883 0
1.6353019014966941 1.9772204261997253 0.83381594574184081 0
1.6349841582575257 1.8392497911169627 0.83115389868423639 0
1.7421245298702914 1.8128738018625032 0.90893205080990025 0
1.6342898783156021 1.8357813138446535 0.86419720224399399 0
1.5223172552003743 2.0312592887747942 0.88531969243827779 0
1.3765885783878342 2.1627812403086426 0.86666771867597814 0
1.5 2.25 1 0
1.6421368025785776 2.0338232135387275 0.77629982575665202 0
1.5126254068232581 2.081686689917841 0.76890834023869747 0
1.6619617864305649 2.0472087814756783 0.8435473000905569 0
1.5096025138525853 2.0751493389213036 0.84338726603378666 0
1.7478054096712754 1.2541061832546394 0.51230263379057306 0
Hexahedra
432
1 2 3 4 5 6 7 8 0
9 10 6 2 11 12 5 1 0
13 10 6 14 15 9 2 16 0
17 18 19 20 8 5 1 4 0
20 19 21 22 4 1 23 24 0
25 11 1 4 26 27 23 24 0
27 28 12 11 23 29 5 1 0
23 29 5 1 21 30 18 19 0
8 5 6 7 17 18 31 32 0
30 33 34 29 18 31 6 5 0
29 34 35 28 5 6 10 12 0
7 6 36 37 32 31 38 39 0
40 35 34 41 13 10 6 14 0
42 33 31 38 43 34 6 36 0
14 41 44 45 6 34 43 36 0
46 47 43 44 40 35 34 41 0
22 21 42 48 24 23 43 44 0
26 27 23 24 46 47 43 44 0
23 29 34 43 27 28 35 47 0
21 30 33 42 23 29 34 43 0
17 18 31 32 20 19 38 39 0
21 30 18 19 42 33 31 38 0
20 19 38 39 22 21 42 48 0
46 47 9 15 26 27 11 25 0
47 35 10 9 27 28 12 11 0
40 35 10 13 46 47 9 15 0
44 46 49 50 24 26 51 52 0
15 46 26 25 53 49 51 54 0
55 50 49 53 56 52 51 54 0
4 24 52 56 25 26 51 54 0
44 46 57 58 50 49 59 60 0
15 46 49 53 61 57 59 62 0
63 58 57 61 64 60 59 62 0
55 50 60 64 53 49 59 62 0
44 48 22 24 50 65 66 52 0
39 48 65 67 20 22 66 68 0
4 24 22 20 56 52 66 68 0
55 50 52 56 67 65 66 68 0
44 69 70 58 71 72 73 74 0
75 69 72 76 77 70 73 78 0
63 58 70 77 79 74 73 78 0
80 71 74 79 76 72 73 78 0
44 69 72 71 81 82 83 84 0
75 69 82 85 76 72 83 86 0
63 61 87 88 64 62 89 90 0
55 53 62 64 91 92 89 90 0
44 69 93 50 58 70 94 60 0
75 69 70 77 95 93 94 96 0
55 50 93 95 64 60 94 96 0
63 58 60 64 77 70 94 96 0
97 98 99 63 100 101 102 103 0
104 105 101 98 106 107 100 97 0
108 105 101 109 75 104 98 110 0
111 112 113 114 103 100 97 63 0
114 113 115 116 63 97 117 79 0
77 106 97 63 78 118 117 79 0
118 119 107 106 117 120 100 97 0
117 120 100 97 115 121 112 113 0
103 100 101 102 111 112 122 123 0
121 124 125 120 112 122 101 100 0
120 125 126 119 100 101 105 107 0
127 128 129 110 130 131 132 75 0
133 126 125 134 108 105 101 109 0
135 124 122 136 137 125 101 138 0
109 134 80 139 101 125 137 138 0
76 140 137 80 133 126 125 134 0
141 142 143 85 144 145 146 147 0
78 118 117 79 76 140 137 80 0
117 120 125 137 118 119 126 140 0
115 121 124 135 117 120 125 137 0
148 149 131 130 95 150 132 75 0
115 121 112 113 135 124 122 136 0
95 150 132 75 141 142 143 85 0
76 140 104 75 78 118 106 77 0
140 126 105 104 118 119 107 106 0
133 126 105 108 76 140 104 75 0
151 152 55 153 154 155 156 127 0
157 132 129 158 159 143 146 160 0
157 108 109 158 132 75 110 129 0
161 148 95 162 155 156 55 152 0
162 95 96 163 152 55 64 164 0
143 85 147 146 165 86 166 167 0
168 165 143 159 169 167 146 160 0
170 164 152 155 171 163 162 161 0
155 156 127 154 161 148 130 172 0
173 171 170 174 172 161 155 154 0
175 169 168 176 158 160 159 157 0
154 127 110 98 172 130 75 104 0
176 133 134 175 157 108 109 158 0
173 106 104 172 174 97 98 154 0
177 178 99 63 174 154 98 97 0
179 76 80 180 176 133 134 175 0
163 96 77 106 164 64 63 97 0
181 90 64 164 182 88 63 97 0
170 164 97 174 183 181 182 184 0
171 163 106 173 170 164 97 174 0
161 148 130 172 162 95 75 104 0
171 163 162 161 173 106 104 172 0
162 95 75 104 163 96 77 106 0
179 76 75 132 165 86 85 143 0
176 179 132 157 168 165 143 159 0
176 133 108 157 179 76 75 132 0
48 44 81 185 39 186 147 187 0
44 48 65 50 186 39 67 55 0
188 44 58 63 80 71 74 79 0
69 44 50 93 75 186 55 95 0
44 69 82 81 186 75 85 147 0
186 75 85 147 55 95 141 144 0
189 190 191 192 193 194 195 196 0
197 198 194 190 199 200 193 189 0
201 198 194 202 203 197 190 204 0
205 206 207 208 196 193 189 192 0
208 207 209 210 192 189 211 212 0
213 199 189 192 214 215 211 212 0
215 216 200 199 211 217 193 189 0
211 217 193 189 209 218 206 207 0
196 193 194 195 205 206 219 220 0
218 221 222 217 206 219 194 193 0
217 222 223 216 193 194 198 200 0
195 194 2 3 220 219 1 4 0
224 223 222 225 201 198 194 202 0
11 221 219 1 9 222 194 2 0
202 225 15 16 194 222 9 2 0
226 227 9 15 224 223 222 225 0
210 209 11 25 212 211 9 15 0
214 215 211 212 226 227 9 15 0
211 217 222 9 215 216 223 227 0
209 218 221 11 211 217 222 9 0
205 206 219 220 208 207 1 4 0
209 218 206 207 11 221 219 1 0
208 207 1 4 210 209 11 25 0
226 227 197 203 214 215 199 213 0
227 223 198 197 215 216 200 199 0
224 223 198 201 226 227 197 203 0
15 226 228 229 212 214 230 231 0
203 226 214 213 232 228 230 233 0
234 229 228 232 235 231 230 233 0
192 212 231 235 213 214 230 233 0
15 226 236 237 229 228 238 239 0
203 226 228 232 240 236 238 241 0
242 237 236 240 243 239 238 241 0
234 229 239 243 232 228 238 241 0
15 25 210 212 229 244 245 231 0
4 25 244 246 208 210 245 247 0
192 212 210 208 235 231 245 247 0
234 229 231 235 246 244 245 247 0
15 248 249 237 61 87 250 251 0
252 248 87 88 253 249 250 254 0
242 237 249 253 255 251 250 254 0
63 61 251 255 88 87 250 254 0
15 248 87 61 53 92 89 62 0
252 248 92 91 88 87 89 90 0
242 240 256 257 243 241 258 259 0
234 232 241 243 260 261 258 259 0
15 248 262 229 237 249 263 239 0
252 248 249 253 264 262 263 265 0
234 229 262 264 243 239 263 265 0
242 237 239 243 253 249 263 265 0
266 267 268 242 269 270 271 272 0
273 274 270 267 275 276 269 266 0
277 274 270 178 252 273 267 278 0
279 280 281 282 272 269 266 242 0
282 281 283 284 242 266 285 255 0
253 275 266 242 254 286 285 255 0
286 287 276 275 285 288 269 266 0
285 288 269 266 283 289 280 281 0
272 269 270 271 279 280 290 291 0
289 292 293 288 280 290 270 269 0
288 293 294 287 269 270 274 276 0
295 296 151 278 297 298 299 252 0
300 294 293 177 277 274 270 178 0
301 292 290 302 303 293 270 304 0
178 177 63 99 270 293 303 304 0
88 305 303 63 300 294 293 177 0
306 307 308 91 309 310 152 55 0
254 286 285 255 88 305 303 63 0
285 288 293 303 286 287 294 305 0
283 289 292 301 285 288 293 303 0
311 312 298 297 264 313 299 252 0
283 289 280 281 301 292 290 302 0
264 313 299 252 306 307 308 91 0
88 305 273 252 254 286 275 253 0
305 294 274 273 286 287 276 275 0
300 294 274 277 88 305 273 252 0
314 315 234 316 317 318 319 295 0
320 299 151 154 321 308 152 155 0
320 277 178 154 299 252 278 151 0
322 311 264 323 318 319 234 315 0
323 264 265 324 315 234 243 325 0
308 91 55 152 181 90 64 164 0
183 181 308 321 170 164 152 155 0
326 325 315 318 327 324 323 322 0
318 319 295 317 322 311 297 328 0
329 327 326 330 328 322 318 317 0
174 170 183 184 154 155 321 320 0
317 295 278 267 328 297 252 273 0
184 300 177 174 320 277 178 154 0
329 275 273 328 330 266 267 317 0
331 332 268 242 330 317 267 266 0
182 88 63 97 184 300 177 174 0
324 265 253 275 325 243 242 266 0
333 259 243 325 334 257 242 266 0
326 325 266 330 335 333 334 336 0
327 324 275 329 326 325 266 330 0
322 311 297 328 323 264 252 273 0
327 324 323 322 329 275 273 328 0
323 264 252 273 324 265 253 275 0
182 88 252 299 181 90 91 308 0
184 182 299 320 183 181 308 321 0
184 300 277 320 182 88 252 299 0
25 15 53 54 4 337 55 56 0
15 25 244 229 337 4 246 234 0
338 15 237 242 63 61 251 255 0
248 15 229 262 252 337 234 264 0
15 248 92 53 337 252 91 55 0
337 252 91 55 234 264 306 309 0
339 340 341 342 343 344 345 346 0
347 348 344 340 349 350 343 339 0
8 348 344 7 4 347 340 3 0
351 352 353 354 346 343 339 342 0
354 353 355 356 342 339 357 358 0
359 349 339 342 360 361 357 358 0
361 362 350 349 357 363 343 339 0
357 363 343 339 355 364 352 353 0
346 343 344 345 351 352 365 366 0
364 367 368 363 352 365 344 343 0
363 368 369 362 343 344 348 350 0
345 344 370 371 366 365 372 373 0
17 369 368 32 8 348 344 7 0
374 367 365 372 375 368 344 370 0
7 32 39 37 344 368 375 370 0
20 376 375 39 17 369 368 32 0
356 355 374 377 358 357 375 39 0
360 361 357 358 20 376 375 39 0
357 363 368 375 361 362 369 376 0
355 364 367 374 357 363 368 375 0
351 352 365 366 354 353 372 373 0
355 364 352 353 374 367 365 372 0
354 353 372 373 356 355 374 377 0
20 376 347 4 360 361 349 359 0
376 369 348 347 361 362 350 349 0
17 369 348 8 20 376 347 4 0
39 20 378 379 358 360 380 381 0
4 20 360 359 382 378 380 383 0
384 379 378 382 385 381 380 383 0
342 358 381 385 359 360 380 383 0
39 20 68 67 379 378 386 387 0
4 20 378 382 56 68 386 388 0
55 67 68 56 389 387 386 388 0
384 379 387 389 382 378 386 388 0
39 377 356 358 379 390 391 381 0
373 377 390 392 354 356 391 393 0
342 358 356 354 385 381 391 393 0
384 379 381 385 392 390 391 393 0
39 394 395 67 187 396 397 398 0
399 394 396 400 401 395 397 402 0
55 67 395 401 144 398 397 402 0
147 187 398 144 400 396 397 402 0
39 394 396 187 403 404 405 406 0
399 394 404 407 400 396 405 408 0
55 56 409 410 389 388 411 412 0
384 382 388 389 413 414 411 412 0
39 394 415 379 67 395 416 387 0
399 394 395 401 417 415 416 418 0
384 379 415 417 389 387 416 418 0
55 67 387 389 401 395 416 418 0
419 420 153 55 421 128 127 156 0
422 423 128 420 424 425 421 419 0
426 423 128 427 399 422 420 428 0
148 149 150 95 156 421 419 55 0
95 150 142 141 55 419 145 144 0
401 424 419 55 402 429 145 144 0
429 430 425 424 145 431 421 419 0
145 431 421 419 142 432 149 150 0
156 421 128 127 148 149 131 130 0
432 433 434 431 149 131 128 421 0
431 434 435 430 421 128 423 425 0
436 437 438 428 439 440 441 399 0
442 435 434 443 426 423 128 427 0
143 433 131 132 146 434 128 129 0
427 443 147 444 128 434 146 129 0
400 445 146 147 442 435 434 443 0
446 447 448 407 449 450 451 452 0
402 429 145 144 400 445 146 147 0
145 431 434 146 429 430 435 445 0
142 432 433 143 145 431 434 146 0
453 454 440 439 417 455 441 399 0
142 432 149 150 143 433 131 132 0
417 455 441 399 446 447 448 407 0
400 445 422 399 402 429 424 401 0
445 435 423 422 429 430 425 424 0
442 435 423 426 400 445 422 399 0
456 457 384 458 459 460 461 436 0
462 441 438 463 464 448 451 465 0
462 426 427 463 441 399 428 438 0
466 453 417 467 460 461 384 457 0
467 417 418 468 457 384 389 469 0
448 407 452 451 470 408 471 472 0
473 470 448 464 474 472 451 465 0
475 469 457 460 476 468 467 466 0
460 461 436 459 466 453 439 477 0
478 476 475 479 477 466 460 459 0
480 474 473 481 463 465 464 462 0
459 436 428 420 477 439 399 422 0
481 442 443 480 462 426 427 463 0
478 424 422 477 479 419 420 459 0
482 483 153 55 479 459 420 419 0
484 400 147 485 481 442 443 480 0
468 418 401 424 469 389 55 419 0
486 412 389 469 487 410 55 419 0
475 469 419 479 488 486 487 489 0
476 468 424 478 475 469 419 479 0
466 453 439 477 467 417 399 422 0
476 468 467 466 478 424 422 477 0
467 417 399 422 468 418 401 424 0
484 400 399 441 470 408 407 448 0
481 484 441 462 473 470 448 464 0
481 442 426 462 484 400 399 441 0
377 39 403 490 373 491 452 492 0
39 377 390 379 491 373 392 384 0
186 39 67 55 147 187 398 144 0
394 39 379 415 399 491 384 417 0
39 394 404 403 491 399 407 452 0
491 399 407 452 384 417 446 449 0
493 494 495 496 497 498 499 500 0
501 502 498 494 503 504 497 493 0
196 502 498 195 192 501 494 191 0
505 506 507 508 500 497 493 496 0
508 507 509 510 496 493 511 512 0
513 503 493 496 514 515 511 512 0
515 516 504 503 511 517 497 493 0
511 517 497 493 509 518 506 507 0
500 497 498 499 505 506 519 520 0
518 521 522 517 506 519 498 497 0
517 522 523 516 497 498 502 504 0
499 498 340 341 520 519 339 342 0
205 523 522 220 196 502 498 195 0
349 521 519 339 347 522 498 340 0
195 220 4 3 498 522 347 340 0
208 524 347 4 205 523 522 220 0
510 509 349 359 512 511 347 4 0
514 515 511 512 208 524 347 4 0
511 517 522 347 515 516 523 524 0
509 518 521 349 511 517 522 347 0
505 506 519 520 508 507 339 342 0
509 518 506 507 349 521 519 339 0
508 507 339 342 510 509 349 359 0
208 524 501 192 514 515 503 513 0
524 523 502 501 515 516 504 503 0
205 523 502 196 208 524 501 192 0
4 208 525 526 512 514 527 528 0
192 208 514 513 529 525 527 530 0
531 526 525 529 532 528 527 530 0
496 512 528 532 513 514 527 530 0
4 208 247 246 526 525 533 534 0
192 208 525 529 235 247 533 535 0
234 246 247 235 536 534 533 535 0
531 526 534 536 529 525 533 535 0
4 359 510 512 526 537 538 528 0
342 359 537 539 508 510 538 540 0
496 512 510 508 532 528 538 540 0
531 526 528 532 539 537 538 540 0
4 541 542 246 56 409 543 544 0
545 541 409 410 546 542 543 547 0
234 246 542 546 309 544 543 547 0
55 56 544 309 410 409 543 547 0
4 541 409 56 382 414 411 388 0
545 541 414 413 410 409 411 412 0
234 235 548 549 536 535 550 551 0
531 529 535 536 552 553 550 551 0
4 541 554 526 246 542 555 534 0
545 541 542 546 556 554 555 557 0
531 526 554 556 536 534 555 557 0
234 246 534 536 546 542 555 557 0
558 559 316 234 560 296 295 319 0
561 562 296 559 563 564 560 558 0
565 562 296 483 545 561 559 566 0
311 312 313 264 319 560 558 234 0
264 313 307 306 234 558 310 309 0
546 563 558 234 547 567 310 309 0
567 568 564 563 310 569 560 558 0
310 569 560 558 307 570 312 313 0
319 560 296 295 311 312 298 297 0
570 571 572 569 312 298 296 560 0
569 572 573 568 560 296 562 564 0
574 575 456 566 576 577 578 545 0
579 573 572 482 565 562 296 483 0
308 571 298 299 152 572 296 151 0
483 482 55 153 296 572 152 151 0
410 580 152 55 579 573 572 482 0
581 582 583 413 584 585 457 384 0
547 567 310 309 410 580 152 55 0
310 569 572 152 567 568 573 580 0
307 570 571 308 310 569 572 152 0
586 587 577 576 556 588 578 545 0
307 570 312 313 308 571 298 299 0
556 588 578 545 581 582 583 413 0
410 580 561 545 547 567 563 546 0
580 573 562 561 567 568 564 563 0
579 573 562 565 410 580 561 545 0
589 590 531 591 592 593 594 574 0
595 578 456 459 596 583 457 460 0
595 565 483 459 578 545 566 456 0
597 586 556 598 593 594 531 590 0
598 556 557 599 590 531 536 600 0
583 413 384 457 486 412 389 469 0
488 486 583 596 475 469 457 460 0
601 600 590 593 602 599 598 597 0
593 594 574 592 597 586 576 603 0
604 602 601 605 603 597 593 592 0
479 475 488 489 459 460 596 595 0
592 574 566 559 603 576 545 561 0
489 579 482 479 595 565 483 459 0
604 563 561 603 605 558 559 592 0
606 607 316 234 605 592 559 558 0
487 410 55 419 489 579 482 479 0
599 557 546 563 600 536 234 558 0
608 551 536 600 609 549 234 558 0
601 600 558 605 610 608 609 611 0
602 599 563 604 601 600 558 605 0
597 586 576 603 598 556 545 561 0
602 599 598 597 604 563 561 603 0
598 556 545 561 599 557 546 563 0
487 410 545 578 486 412 413 583 0
489 487 578 595 488 486 583 596 0
489 579 565 595 487 410 545 578 0
359 4 382 383 342 612 384 385 0
4 359 537 526 612 342 539 531 0
337 4 246 234 55 56 544 309 0
541 4 526 554 545 612 531 556 0
4 541 414 382 612 545 413 384 0
612 545 413 384 531 556 581 584 0
Quadrilaterals
48
2 3 7 6 0
6 14 16 2 0
7 37 36 6 0
45 14 6 36 0
98 99 102 101 0
101 109 110 98 0
127 110 129 128 0
139 109 101 138 0
153 151 154 127 0
109 158 129 110 0
154 98 110 127 0
178 99 98 154 0
190 191 195 194 0
194 202 204 190 0
195 3 2 194 0
16 202 194 2 0
267 268 271 270 0
270 178 278 267 0
295 278 151 296 0
99 178 270 304 0
316 314 317 295 0
178 154 151 278 0
317 267 278 295 0
332 268 267 317 0
340 341 345 344 0
344 7 3 340 0
345 371 370 344 0
37 7 344 370 0
420 153 127 128 0
128 427 428 420 0
436 428 438 437 0
444 427 128 129 0
458 456 459 436 0
427 463 438 428 0
459 420 428 436 0
483 153 420 459 0
494 495 499 498 0
498 195 191 494 0
499 341 340 498 0
3 195 498 340 0
559 316 295 296 0
296 483 566 559 0
574 566 456 575 0
153 483 296 151 0
591 589 592 574 0
483 459 456 566 0
592 559 566 574 0
607 316 559 592 0
End
