MeshVersionFormatted 2
Dimension 3
Vertices
188
0.74865811482053435 1.0599360533096862 0.21065964024575429 0
0.5 1 0 0
1 1 0 0
1.1899113092175064 1.2134998641745778 0.39368887915936379 0
0.78204758392660889 0.62452217387201669 0.12831391698446717 0
0.5 0.5 0 0
1 0.5 0 0
1.0912706415588957 0.61978627556806776 0.14753810541398321 0
0.42627830730466726 1.1847472546716218 0.20492771603113571 0
0.36700756848823046 0.71754147451356598 0.13919291421322574 0
0.57105660440781181 1.1336771986982801 0.23851425222590908 0
0.52260787208568504 0.79676233587616274 0.19099569809912412 0
0.091270641558895749 0.61978627556806776 0.14753810541398321 0
0 0.5 0 0
0.18991130921750643 1.2134998641745778 0.39368887915936379 0
0 1 0 0
1.11399487673932 0.60019671252100981 0.23483532060444445 0
0.82582599896295683 0.56527245219857347 0.17622809775768 0
0.86838572780213319 0.61872480914871431 0.27911148667583763 0
1.1609265693526438 0.66613644874599265 0.41055504252009722 0
0.70802894657764737 0.5087114430125963 0.29127832512904001 0
0.74719923502978236 0.54362284923354653 0.35814930060216704 0
0.62081315705179729 0.67233961116639318 0.27925667429392903 0
0.65472002320787737 0.74602765091867451 0.37460994655083601 0
0.66834214984837692 1.2092953081652436 0.32744102089223759 0
0.51912111686425455 0.91226406974417695 0.35930841731174123 0
0.52832297885046731 0.80914524863993997 0.27977237680311273 0
0.52491587079816271 0.76852891482435892 0.23523400687154911 0
0.7040149255275252 0.60499982504654781 0.20039252387578521 0
0.74588879477186376 0.53434598438583003 0.20387351060496109 0
0.74646620346087489 0.45114346685353651 0.098334771226153014 0
1.1251153335097559 0.49376834968580402 0.10373526108278179 0
0.65886596202090164 0.3852098649546537 0.16743195936567495 0
0.41943924024767471 0.47404277031551395 0.099639488707570556 0
0.34644138653142109 0.64897021492480755 0.19270717105794447 0
0.5 0 0 0
1 0 0 0
0.74865811482053435 0.05993605330968621 0.21065964024575429 0
1.1899113092175064 0.21349986417457778 0.39368887915936379 0
0.11399487673931996 0.60019671252100981 0.23483532060444445 0
0.1251153335097559 0.49376834968580402 0.10373526108278179 0
0.57105660440781181 0.1336771986982801 0.23851425222590908 0
0.42627830730466726 0.18474725467162179 0.20492771603113571 0
0.18991130921750643 0.21349986417457778 0.39368887915936379 0
0 0 0 0
0.16092656935264382 0.66613644874599265 0.41055504252009722 0
0.36925404220353375 0.74505886968403501 0.28246931820315624 0
0.66834214984837692 0.20929530816524355 0.32744102089223759 0
0.45079716155061628 0.77790996063464735 0.47869267758999556 0
0.55300288450262525 0.65526008200430641 0.53697686787505161 0
0.61701181574422792 0.84699355127398079 0.44666376410867031 0
0.69737331978877204 0.75307150338892836 0.46582172096183161 0
0.50210947615948265 0.91379476437397811 0.53273436650908346 0
0.67819941809531492 0.94894699556309914 0.46999714554126498 0
0.95773491142966238 0.80515478321742062 0.67959012702093158 0
1.1027115115100863 0.92854976726867033 0.55138816859259898 0
0.0047442575111098697 0.68855973428712092 0.46631298008187683 0
0.1277713593259597 0.55121336119632658 0.51584966626679296 0
0.29542376753610694 0.77973661782196479 0.5354935402104164 0
0.3946486615595598 0.71865681780593882 0.59696214048341256 0
0.10271151151008628 0.92854976726867033 0.55138816859259898 0
0.30001992699954871 0.85349141611647517 0.56193215716508416 0
-0.042265088570337617 0.80515478321742062 0.67959012702093158 0
0.52313676475399395 0.81822043318037074 0.69531530743798098 0
0.73251738490369123 0.56401066000552036 0.46065623576029274 0
0.75062323640106321 0.62577197531003237 0.42760338916430052 0
1.1277713593259597 0.55121336119632658 0.51584966626679296 0
1.0047442575111099 0.68855973428712092 0.46631298008187683 0
0.34341524438591758 0.3136269141777735 0.56280211244832989 0
0.28905277098920512 0.51243381084632578 0.60654114785641788 0
0.10271151151008628 -0.071450232731329666 0.55138816859259898 0
0.30787300931694939 0.12484796991761349 0.59954739720913086 0
0.25826535549668866 0.32247208848786374 0.6194003169763046 0
0.15006429899985602 0.29640506349530604 0.59059473055017764 0
0.67512074128539601 0.42156275955017397 0.74794037983614725 0
0.37432337033784274 0.14211851118672778 0.6696470035088915 0
0.36258536789480367 0.55456593452339009 0.68665247154828779 0
0.27550352503640524 0.38343067628885225 0.66430809770110266 0
0.11030062216122162 0.32479104122034175 0.67845858354620248 0
-0.042265088570337617 -0.19484521678257938 0.67959012702093158 0
0.50210947615948265 -0.086205235626021892 0.53273436650908346 0
0.52027340711603354 0.031978817622333199 0.61946743260732673 0
0.40439432885017307 -0.039283877916654997 0.60970651261351949 0
0.30001992699954871 -0.14650858388352483 0.56193215716508416 0
0.78806786901979697 0.15731443995494501 0.76228208266830944 0
0.55009380855723944 -0.01490624896123649 0.70539173127991783 0
0.30787300931694939 1.1248479699176135 0.59954739720913086 0
0.37432337033784274 1.1421185111867278 0.6696470035088915 0
0.40439432885017307 0.960716122083345 0.60970651261351949 0
0.55009380855723944 0.98509375103876351 0.70539173127991783 0
0.78806786901979697 1.1573144399549451 0.76228208266830944 0
0.52027340711603354 1.0319788176223332 0.61946743260732673 0
0.53733543186737021 0.62090079297087908 0.63934484536246172 0
0.4572850986934423 0.64535009638761331 0.66587019323714036 0
0.81673534993806363 0.6262499251686573 0.74719725284103578 0
0.51376705133346767 0.69049578610925944 0.72494074061053437 0
0.32975333040985971 0.7585009857740691 0.82684263209031439 0
0.5 0.75 1 0
0.25 1 1 0
0.15476914179364071 0.59124137606499994 0.93494092855805355 0
0.25 0.5 1 0
0 0.75 1 0
-0.019018268929560711 0.73745413339638211 0.903076484470962 0
0.56602118820699954 0.60631815514081933 0.85691669717385144 0
0.35900618020922082 0.42506457191099484 0.93588036272550834 0
0.48293618912562952 0.65012300355182273 0.82286359353922489 0
0.33929914299871144 0.50704182799240394 0.88145959192524359 0
0.47633760594235153 0.2817149016685061 0.93632476684379429 0
0.5 0.25 1 0
0.75 0.5 1 0
-0.10075250386377377 0.65132116198760559 0.83566439873570941 0
0.044595214920742185 0.53793036968247765 0.87775896276041177 0
0.013935440164594359 0.50303108678020225 0.82667410680614417 0
-0.18326465006193637 0.6262499251686573 0.74719725284103578 0
0.067448591940536998 0.3789617617336154 0.81275223385992412 0
0.031292230892635997 0.36890298363542856 0.77010800224355047 0
0.16345762017192153 0.40441381351348571 0.77565962701855495 0
0.24681738816560633 0.36002393962701223 0.7228754299776563 0
0.27979281139511525 0.41400179994540315 0.84045118050242651 0
0.22178692583521925 0.39119972108586304 0.83419249450895661 0
0.11239416320423913 0.38635228299123531 0.83974211355791772 0
0.053052334384612772 0.50232324066525902 0.91108254125737587 0
-0.0933409304006112 0.65753521554969352 0.88721848519705193 0
0.077526399386198389 0.35467225126701107 0.86612594374360752 0
0.24042424026897158 0.2899522190073679 0.88627710370160329 0
0.26439126087773063 0.29487338025402415 0.84538655446408528 0
1 0.75 1 0
1.25 0.5 1 0
1 0.25 1 0
0.9066590695993888 0.65753521554969352 0.88721848519705193 0
1.0530523343846128 0.50232324066525902 0.91108254125737587 0
0.89337803103089175 0.30438675065120996 0.88035508660441919 0
0.38690945243819164 0.17024674658171679 0.7879131839751915 0
0.37658857838783416 0.1627812403086428 0.86666771867597814 0
-0.0832322260868672 0.20941725544995099 0.83987574155704003 0
-0.10662196896910825 0.30438675065120996 0.88035508660441919 0
-0.03513823518475967 0.092954734748513013 0.8354975142270219 0
0 0.25 1 0
0.25 0 1 0
0.26490560808803587 0.25038452999165228 0.74479343159078726 0
1.031292230892636 0.36890298363542856 0.77010800224355047 0
1.067448591940537 0.3789617617336154 0.81275223385992412 0
0.9167677739131328 0.20941725544995099 0.83987574155704003 0
1.1103006221612217 0.32479104122034175 0.67845858354620248 0
1.1634576201719216 0.40441381351348571 0.77565962701855495 0
0.96486176481524033 0.092954734748513013 0.8354975142270219 0
0.95773491142966238 -0.19484521678257938 0.67959012702093158 0
0.89924749613622623 0.65132116198760559 0.83566439873570941 0
1.0445952149207423 0.53793036968247765 0.87775896276041177 0
1.0139354401645944 0.50303108678020225 0.82667410680614417 0
1 1.25 1 0
0.96486176481524033 1.0929547347485129 0.8354975142270219 0
1.25 1 1 0
0.75 1 1 0
0.84330712447553124 0.89785529371872608 0.93244229967413383 0
0.98098173107043929 0.73745413339638211 0.903076484470962 0
0.68870234923521589 0.10656826153650156 0.94408882008347716 0
0.75 0 1 0
0.76246155203873167 0.079350365485953589 0.89438843755517727 0
0.84330712447553124 -0.10214470628127392 0.93244229967413383 0
0.7817000025836639 0.81235928212411668 0.86980008996266678 0
0.76097114552721568 0.78537012778437409 0.81590011923842198 0
0.59745351610229946 0.75384290774971985 0.79372360278220011 0
0.63824198245646424 0.8999538439083159 0.78328922934187883 0
0.64213680257857775 0.033823213538727685 0.77629982575665202 0
0.52313676475399395 -0.18177956681962926 0.69531530743798098 0
0.63824198245646424 -0.1000461560916841 0.78328922934187883 0
0.6619617864305648 0.047208781475678127 0.8435473000905569 0
0.63530190149669408 -0.022779573800274622 0.83381594574184081 0
0.63530190149669408 0.97722042619972538 0.83381594574184081 0
0.63498415825752574 0.83924979111696263 0.83115389868423639 0
0.74212452987029143 0.81287380186250335 0.90893205080990025 0
0.63428987831560213 0.83578131384465348 0.86419720224399399 0
0.52231725520037442 1.0312592887747942 0.88531969243827779 0
0.52231725520037442 0.031259288774794225 0.88531969243827779 0
0.50960251385258526 0.075149338921303696 0.84338726603378666 0
0.37658857838783416 1.1627812403086428 0.86666771867597814 0
0.5 1.25 1 0
0.51262540682325797 0.081686689917840991 0.76890834023869747 0
0.32975333040985971 -0.2414990142259309 0.82684263209031439 0
0.64213680257857775 1.0338232135387277 0.77629982575665202 0
0.51262540682325797 1.081686689917841 0.76890834023869747 0
0.6619617864305648 1.0472087814756781 0.8435473000905569 0
0.50960251385258526 1.0751493389213036 0.84338726603378666 0
0.67819941809531492 -0.051053004436900862 0.46999714554126498 0
0.7478054096712754 0.25410618325463941 0.51230263379057306 0
1.1027115115100863 -0.071450232731329666 0.55138816859259898 0
-0.2521945903287246 0.25410618325463941 0.51230263379057306 0
Hexahedra
108
1 2 3 4 5 6 7 8 0
9 10 6 2 11 12 5 1 0
13 10 6 14 15 9 2 16 0
17 18 19 20 8 5 1 4 0
20 19 21 22 4 1 23 24 0
25 11 1 4 26 27 23 24 0
27 28 12 11 23 29 5 1 0
23 29 5 1 21 30 18 19 0
8 5 6 7 17 18 31 32 0
30 33 34 29 18 31 6 5 0
29 34 35 28 5 6 10 12 0
7 6 36 37 32 31 38 39 0
40 35 34 41 13 10 6 14 0
42 33 31 38 43 34 6 36 0
14 41 44 45 6 34 43 36 0
46 47 43 44 40 35 34 41 0
22 21 42 48 24 23 43 44 0
26 27 23 24 46 47 43 44 0
23 29 34 43 27 28 35 47 0
21 30 33 42 23 29 34 43 0
17 18 31 32 20 19 38 39 0
21 30 18 19 42 33 31 38 0
20 19 38 39 22 21 42 48 0
46 47 9 15 26 27 11 25 0
47 35 10 9 27 28 12 11 0
40 35 10 13 46 47 9 15 0
44 46 49 50 24 26 51 52 0
15 46 26 25 53 49 51 54 0
55 50 49 53 56 52 51 54 0
4 24 52 56 25 26 51 54 0
44 46 57 58 50 49 59 60 0
15 46 49 53 61 57 59 62 0
63 58 57 61 64 60 59 62 0
55 50 60 64 53 49 59 62 0
44 48 22 24 50 65 66 52 0
39 48 65 67 20 22 66 68 0
4 24 22 20 56 52 66 68 0
55 50 52 56 67 65 66 68 0
44 69 70 58 71 72 73 74 0
75 69 72 76 77 70 73 78 0
63 58 70 77 79 74 73 78 0
80 71 74 79 76 72 73 78 0
44 69 72 71 81 82 83 84 0
75 69 82 85 76 72 83 86 0
63 61 87 88 64 62 89 90 0
55 53 62 64 91 92 89 90 0
44 69 93 50 58 70 94 60 0
75 69 70 77 95 93 94 96 0
55 50 93 95 64 60 94 96 0
63 58 60 64 77 70 94 96 0
97 98 99 63 100 101 102 103 0
104 105 101 98 106 107 100 97 0
108 105 101 109 75 104 98 110 0
111 112 113 114 103 100 97 63 0
114 113 115 116 63 97 117 79 0
77 106 97 63 78 118 117 79 0
118 119 107 106 117 120 100 97 0
117 120 100 97 115 121 112 113 0
103 100 101 102 111 112 122 123 0
121 124 125 120 112 122 101 100 0
120 125 126 119 100 101 105 107 0
127 128 129 110 130 131 132 75 0
133 126 125 134 108 105 101 109 0
135 124 122 136 137 125 101 138 0
109 134 80 139 101 125 137 138 0
76 140 137 80 133 126 125 134 0
141 142 143 85 144 145 146 147 0
78 118 117 79 76 140 137 80 0
117 120 125 137 118 119 126 140 0
115 121 124 135 117 120 125 137 0
148 149 131 130 95 150 132 75 0
115 121 112 113 135 124 122 136 0
95 150 132 75 141 142 143 85 0
76 140 104 75 78 118 106 77 0
140 126 105 104 118 119 107 106 0
133 126 105 108 76 140 104 75 0
151 152 55 153 154 155 156 127 0
157 132 129 158 159 143 146 160 0
157 108 109 158 132 75 110 129 0
161 148 95 162 155 156 55 152 0
162 95 96 163 152 55 64 164 0
143 85 147 146 165 86 166 167 0
168 165 143 159 169 167 146 160 0
170 164 152 155 171 163 162 161 0
155 156 127 154 161 148 130 172 0
173 171 170 174 172 161 155 154 0
175 169 168 176 158 160 159 157 0
154 127 110 98 172 130 75 104 0
176 133 134 175 157 108 109 158 0
173 106 104 172 174 97 98 154 0
177 178 99 63 174 154 98 97 0
179 76 80 180 176 133 134 175 0
163 96 77 106 164 64 63 97 0
181 90 64 164 182 88 63 97 0
170 164 97 174 183 181 182 184 0
171 163 106 173 170 164 97 174 0
161 148 130 172 162 95 75 104 0
171 163 162 161 173 106 104 172 0
162 95 75 104 163 96 77 106 0
179 76 75 132 165 86 85 143 0
176 179 132 157 168 165 143 159 0
176 133 108 157 179 76 75 132 0
48 44 81 185 39 186 147 187 0
44 48 65 50 186 39 67 55 0
188 44 58 63 80 71 74 79 0
69 44 50 93 75 186 55 95 0
44 69 82 81 186 75 85 147 0
186 75 85 147 55 95 141 144 0
Quadrilaterals
12
2 3 7 6 0
6 14 16 2 0
7 37 36 6 0
45 14 6 36 0
98 99 102 101 0
101 109 110 98 0
127 110 129 128 0
139 109 101 138 0
153 151 154 127 0
109 158 129 110 0
154 98 110 127 0
178 99 98 154 0
End
