MeshVersionFormatted 2
Dimension 3
Vertices
651
0.87682852868930539 1.019874591683068 0.20977769065980673 0
0.5 1 0 0
1 1 0 0
1.3128075284603125 1.1651376167662355 0.28075326996554634 0
0.80011529643079515 0.65920457917880615 0.13955920709380715 0
0.5 0.5 0 0
1 0.5 0 0
1.1628864681587401 0.65838243842576116 0.13561268605897694 0
0.50829257411510242 1.2120438989507687 0.19394987437388272 0
0.47529296263328419 0.76586538533277571 0.13486921978643646 0
0.76483579909568711 1.130028964694257 0.31916802857207738 0
0.66314361718335457 0.80917576920116796 0.21127360180127902 0
0.16288646815874008 0.65838243842576116 0.13561268605897694 0
0 0.5 0 0
0.31280752846031246 1.1651376167662355 0.28075326996554634 0
0 1 0 0
0.19226275134613968 0.62171360035028367 0.21997875923118382 0
-0.13627099185783065 0.55225303599952968 0.18416517870524318 0
-0.027938093547017817 0.56096462162539884 0.30848871447186443 0
0.29183758427369755 0.66933356169830627 0.33370737136263462 0
-0.19988470356920485 0.65920457917880615 0.13955920709380715 0
-0.12317147131069461 1.019874591683068 0.20977769065980673 0
1.2918375842736975 0.66933356169830627 0.33370737136263462 0
0.97206190645298218 0.56096462162539884 0.30848871447186443 0
0.86428791618514578 0.47096335508078979 0.35636676263375816 0
0.90940302155535246 0.49925117831826404 0.44404134574896159 0
0.7480707272059165 0.70240466782456723 0.37272553303466938 0
0.82318193368425152 0.68278566683559228 0.46658652739117185 0
0.81312173208766825 1.1736763189562609 0.40993643415192599 0
0.62198817571920517 0.83772700637440334 0.39969788031974268 0
0.6850690725110945 0.82257747144786275 0.33983365876858479 0
0.65882238173437602 0.78391662288138608 0.26954025100336154 0
0.76413075830483157 0.62317161435702884 0.21946797248880914 0
0.80558814593784644 0.53652993960735929 0.21897641758578856 0
0.86372900814216935 0.55225303599952968 0.18416517870524318 0
1.1922627513461397 0.62171360035028367 0.21997875923118382 0
0.81224548758919646 0.37670597425639035 0.1356013625918274 0
1.1102130425565302 0.48057567448694688 0.097600363383868599 0
0.75620227312193322 0.36222177598475103 0.19435301265715776 0
0.51257456665104884 0.45322552069924105 0.077630704584065832 0
0.46833218573079449 0.72523756943440243 0.19939020936039559 0
0.5 0 0 0
1 0 0 0
0.87682852868930539 0.019874591683068044 0.20977769065980673 0
1.3128075284603125 0.16513761676623551 0.28075326996554634 0
0.11021304255653019 0.48057567448694688 0.097600363383868599 0
0.76483579909568711 0.13002896469425695 0.31916802857207738 0
0.50829257411510242 0.21204389895076869 0.19394987437388272 0
0.31280752846031246 0.16513761676623551 0.28075326996554634 0
0 0 0 0
0.4718969068920576 0.75361811563441772 0.29208868315594178 0
0.81312173208766825 0.1736763189562609 0.40993643415192599 0
-0.18775451241080354 0.37670597425639035 0.1356013625918274 0
-0.12317147131069461 0.019874591683068044 0.20977769065980673 0
0.55879257247030512 0.7726952229204066 0.50435093895812788 0
0.667184073663178 0.49515769179692892 0.68534374776102702 0
0.67799291335199563 0.84021060494150479 0.490637187052543 0
0.81631317949849924 0.67304416516774224 0.60827695369394585 0
0.61447561161919739 1.0727653368266057 0.48335588736725033 0
0.83592014598932718 1.1328449052567808 0.49439347506724768 0
0.98804049063260113 0.84483541649206761 0.73407033126630339 0
1.0462316493994517 0.93379407282386873 0.64298635066910748 0
0.24310551087768634 0.67005648517739747 0.45402174255482963 0
0.20570602510271463 0.49877100077412739 0.45831728514786108 0
0.41507794230845152 0.73092528024703285 0.51862792948930236 0
0.44576906780375702 0.65159469972921946 0.59520702112070545 0
0.04623164939945168 0.93379407282386873 0.64298635066910748 0
0.47161809395112408 0.8751528770918624 0.55824822141437158 0
-0.011959509367398868 0.84483541649206761 0.73407033126630339 0
0.48644504304688224 0.83610607203755016 0.66693811585648033 0
0.90014509963327316 0.44053752117668887 0.53740626636262079 0
0.92936236057382704 0.54685522370541273 0.51014860505899273 0
-0.18687826791233175 0.1736763189562609 0.40993643415192599 0
-0.09985490036672684 0.44053752117668887 0.53740626636262079 0
-0.090596978444647536 0.49925117831826404 0.44404134574896159 0
-0.07063763942617296 0.54685522370541273 0.51014860505899273 0
-0.17681806631574848 0.68278566683559228 0.46658652739117185 0
-0.18368682050150076 0.67304416516774224 0.60827695369394585 0
1.2057060251027147 0.49877100077412739 0.45831728514786108 0
1.2431055108776863 0.67005648517739747 0.45402174255482963 0
0.61447561161919739 0.072765336826605687 0.48335588736725033 0
0.83592014598932718 0.13284490525678083 0.49439347506724768 0
0.90098952743876459 0.32228698555609786 0.5524105352955152 0
0.81175212500052596 0.31988298257048509 0.60451913291961945 0
-0.16407985401067282 0.13284490525678083 0.49439347506724768 0
0.04623164939945168 -0.066205927176131274 0.64298635066910748 0
-0.099010472561235408 0.32228698555609786 0.5524105352955152 0
0.044353066372881056 0.36349629031151193 0.56958151508973109 0
0.98843555512593484 0.35136650676383724 0.66755546206361327 0
1.0443530663728811 0.36349629031151193 0.56958151508973109 0
0.98804049063260113 -0.15516458350793239 0.73407033126630339 0
1.0462316493994517 -0.066205927176131274 0.64298635066910748 0
0.39818948632122358 0.22175276696821847 0.5393540876824231 0
0.28216744653996495 0.46319114252235405 0.54388617040157416 0
0.32804609297236992 0.15611024104858323 0.61430915602591107 0
0.20666825131081212 0.36415344203237404 0.59065452362311954 0
0.62537815492429205 0.41230536381620486 0.91944353937414403 0
0.30018482752257686 0.14391280440957177 0.70569381750769156 0
0.30642925712902486 0.53530205580475942 0.66216113819480493 0
0.19865130919586532 0.3723137140005402 0.63109307632114209 0
-0.011564444874065161 0.35136650676383724 0.66755546206361327 0
-0.011959509367398868 -0.15516458350793239 0.73407033126630339 0
0.61218693002445446 0.10130020179438211 0.57595117627287229 0
0.53320480118951996 0.034553195234186387 0.59817378831292622 0
0.47161809395112408 -0.1248471229081376 0.55824822141437158 0
0.70558183226469384 0.14419110542230718 0.6960960137711949 0
0.53439750335415825 0.025417915923050916 0.63807709307473404 0
0.32804609297236992 1.1561102410485833 0.61430915602591107 0
0.30018482752257686 1.1439128044095717 0.70569381750769156 0
0.53320480118951996 1.0345531952341864 0.59817378831292622 0
0.53439750335415825 1.025417915923051 0.63807709307473404 0
0.70558183226469384 1.1441911054223071 0.6960960137711949 0
0.61218693002445446 1.101300201794382 0.57595117627287229 0
0.63674522299794789 0.46791160313259988 0.70765120836670403 0
0.48943250241696762 0.58645283059904807 0.65069703037327753 0
0.73969220605975694 0.56752207985918834 0.86754248737814754 0
0.50460034859614755 0.61357119496558876 0.70661676559963804 0
0.74289577839915233 0.32884862522405134 0.65472059875917321 0
0.81784808522935115 0.36562061587945899 0.71634301056184091 0
0.23037606448768241 0.73988670246948718 0.81162471780702439 0
0.49790630401450781 0.74899133975431187 1 0
0.24790630401450781 0.99899133975431187 1 0
0.18188487954343913 0.55913327756833475 0.93688020620249735 0
0.24790630401450781 0.49899133975431187 1 0
-0.0020936959854921389 0.74899133975431187 1 0
-0.02025404744230197 0.76357690060841632 0.89016291146808646 0
0.46434208846933384 0.5962354612718358 0.92292217804457588 0
0.2779937160882488 0.47763136754238206 0.93440289966842616 0
0.35547598033498184 0.61600091597020612 0.78778543684729485 0
0.23608084143609465 0.51832169196855482 0.87245943789894076 0
0.49549266367215572 0.28763149286294398 0.93226856003646574 0
0.49790630401450781 0.24899133975431181 1 0
0.74790630401450786 0.49899133975431187 1 0
0.83625646693464384 0.6302818682590976 0.89855999099710471 0
1.0193195112176165 0.45798625172739077 0.88030350698625814 0
0.94291676003585678 0.49253832385324858 0.824426215197262 0
0.97974595255769803 0.76357690060841632 0.89016291146808646 0
1.1818848795434391 0.55913327756833475 0.93688020620249735 0
1.2303760644876824 0.73988670246948718 0.81162471780702439 0
0.87773740844460457 0.36343246495280029 0.74472839772988408 0
1.0181657096665915 0.35582829349089479 0.71957513027055842 0
0.17845958391526617 0.35521102620051814 0.68039780986193277 0
0.018165709666591479 0.35582829349089479 0.71957513027055842 0
0.15040865573262716 0.3563846139723883 0.78172200154586291 0
0.09007900435281721 0.34941712072040126 0.79651091715744005 0
-0.12226259155539543 0.36343246495280029 0.74472839772988408 0
-0.0040090938673795762 0.36051840505981897 0.80112245714597907 0
0.019319511217616547 0.45798625172739077 0.88030350698625814 0
-0.057083239964143218 0.49253832385324858 0.824426215197262 0
-0.16374353306535616 0.6302818682590976 0.89855999099710471 0
0.0024313666254957688 0.4188768301809277 0.91992949274929992 0
-0.15314601201312861 0.62836834959613275 0.93152538378184002 0
-0.0026745279804185618 0.32067138262410178 0.85010318818212449 0
0.16298567537985809 0.28853875502509602 0.88477081101941002 0
0.19860185739420699 0.29292779180686895 0.83273775305931175 0
0.99790630401450786 0.74899133975431187 1 0
1.2479063040145078 0.49899133975431187 1 0
0.99790630401450786 0.24899133975431181 1 0
0.84685398798687139 0.62836834959613275 0.93152538378184002 0
1.0024313666254958 0.4188768301809277 0.91992949274929992 0
0.75701127211141883 0.25737888994721275 0.91600191849457813 0
0.34274395946560543 0.15236091830293183 0.80124856212557594 0
0.33612076555546094 0.13852820059298132 0.87043981665853187 0
0.78340111431275616 0.17766368330155746 0.79133523972994901 0
0.99732547201958144 0.32067138262410178 0.85010318818212449 0
0.91292032470216411 0.053006167719331976 0.83106426300493041 0
1.1629856753798582 0.28853875502509602 0.88477081101941002 0
0.24790630401450781 -0.0010086602456881311 1 0
-0.08707967529783589 0.053006167719331976 0.83106426300493041 0
-0.0020936959854921389 0.24899133975431181 1 0
0.23196702469463729 0.23666159300915945 0.71754124396790742 0
0.99599090613262042 0.36051840505981897 0.80112245714597907 0
1.0900790043528172 0.34941712072040126 0.79651091715744005 0
0.99790630401450786 1.2489913397543118 1 0
0.91292032470216411 1.0530061677193321 0.83106426300493041 0
1.2479063040145078 0.99899133975431187 1 0
0.74790630401450786 0.99899133975431187 1 0
0.77008035222630666 0.97428788197944838 0.94439537521278771 0
0.66328529128111091 0.097434589289275869 0.92404607904072322 0
0.74790630401450786 -0.0010086602456881311 1 0
0.70436306138306426 0.061461219936929011 0.86422694206881523 0
0.77008035222630666 -0.025712118020551622 0.94439537521278771 0
0.67279889743725851 0.81680972811411157 0.89126607264794877 0
0.68518471513535784 0.74787760640624312 0.83575136902403568 0
0.51649615236832169 0.67730395930931242 0.7438034990921687 0
0.51615779005948181 0.81145505443428034 0.71343517223820652 0
0.78340111431275616 1.1776636833015575 0.79133523972994901 0
0.52308427913280553 1.0014785943504847 0.69575654630875494 0
0.54332752834273546 0.97496246984579171 0.79496844470669792 0
0.70436306138306426 1.0614612199369291 0.86422694206881523 0
0.5199185886336517 0.89503429271606239 0.80385429210825254 0
0.53487690488514128 0.78929930427057238 0.80787957896572615 0
0.64312906017906435 0.804343443489138 0.92444819539814516 0
0.52417518515598627 0.80606741096991352 0.84862022413134219 0
0.47850948088358114 0.96419959338923045 0.87023216142940318 0
0.47950174867481932 1.0068331494901397 0.826429122914633 0
0.66328529128111091 1.0974345892892758 0.92404607904072322 0
0.47950174867481932 0.0068331494901396894 0.826429122914633 0
0.47850948088358114 -0.035800406610769553 0.87023216142940318 0
0.33612076555546094 1.1385282005929813 0.87043981665853187 0
0.49790630401450781 1.2489913397543118 1 0
0.42810476110730394 0.045795091171683101 0.72383584292173742 0
0.23037606448768241 -0.26011329753051282 0.81162471780702439 0
0.42810476110730394 1.0457950911716831 0.72383584292173742 0
0.52308427913280553 0.0014785943504846966 0.69575654630875494 0
0.54332752834273546 -0.025037530154208287 0.79496844470669792 0
0.87682852868930539 2.019874591683068 0.20977769065980673 0
0.5 2 0 0
1 2 0 0
1.3128075284603125 2.1651376167662355 0.28075326996554634 0
0.80011529643079515 1.6592045791788061 0.13955920709380715 0
0.5 1.5 0 0
1 1.5 0 0
1.1628864681587401 1.6583824384257611 0.13561268605897694 0
0.50829257411510242 2.2120438989507685 0.19394987437388272 0
0.47529296263328419 1.7658653853327757 0.13486921978643646 0
0.76483579909568711 2.1300289646942572 0.31916802857207738 0
0.66314361718335457 1.8091757692011678 0.21127360180127902 0
0.16288646815874008 1.6583824384257611 0.13561268605897694 0
0 1.5 0 0
0.31280752846031246 2.1651376167662355 0.28075326996554634 0
0 2 0 0
0.19226275134613968 1.6217136003502837 0.21997875923118382 0
-0.13627099185783065 1.5522530359995297 0.18416517870524318 0
-0.027938093547017817 1.560964621625399 0.30848871447186443 0
0.29183758427369755 1.6693335616983063 0.33370737136263462 0
-0.19988470356920485 1.6592045791788061 0.13955920709380715 0
-0.12317147131069461 2.019874591683068 0.20977769065980673 0
1.2918375842736975 1.6693335616983063 0.33370737136263462 0
0.97206190645298218 1.560964621625399 0.30848871447186443 0
0.86428791618514578 1.4709633550807899 0.35636676263375816 0
0.90940302155535246 1.499251178318264 0.44404134574896159 0
0.7480707272059165 1.7024046678245672 0.37272553303466938 0
0.82318193368425152 1.6827856668355923 0.46658652739117185 0
0.81312173208766825 2.1736763189562609 0.40993643415192599 0
0.62198817571920517 1.8377270063744033 0.39969788031974268 0
0.6850690725110945 1.8225774714478629 0.33983365876858479 0
0.65882238173437602 1.7839166228813861 0.26954025100336154 0
0.76413075830483157 1.6231716143570289 0.21946797248880914 0
0.80558814593784644 1.5365299396073593 0.21897641758578856 0
0.86372900814216935 1.5522530359995297 0.18416517870524318 0
1.1922627513461397 1.6217136003502837 0.21997875923118382 0
0.81224548758919646 1.3767059742563903 0.1356013625918274 0
1.1102130425565302 1.4805756744869469 0.097600363383868599 0
0.75620227312193322 1.362221775984751 0.19435301265715776 0
0.51257456665104884 1.453225520699241 0.077630704584065832 0
0.46833218573079449 1.7252375694344024 0.19939020936039559 0
0.11021304255653019 1.4805756744869469 0.097600363383868599 0
0.4718969068920576 1.7536181156344177 0.29208868315594178 0
-0.18775451241080354 1.3767059742563903 0.1356013625918274 0
0.55879257247030512 1.7726952229204067 0.50435093895812788 0
0.667184073663178 1.4951576917969289 0.68534374776102702 0
0.67799291335199563 1.8402106049415048 0.490637187052543 0
0.81631317949849924 1.6730441651677421 0.60827695369394585 0
0.61447561161919739 2.0727653368266057 0.48335588736725033 0
0.83592014598932718 2.1328449052567811 0.49439347506724768 0
0.98804049063260113 1.8448354164920677 0.73407033126630339 0
1.0462316493994517 1.9337940728238687 0.64298635066910748 0
0.24310551087768634 1.6700564851773976 0.45402174255482963 0
0.20570602510271463 1.4987710007741275 0.45831728514786108 0
0.41507794230845152 1.7309252802470327 0.51862792948930236 0
0.44576906780375702 1.6515946997292195 0.59520702112070545 0
0.04623164939945168 1.9337940728238687 0.64298635066910748 0
0.47161809395112408 1.8751528770918624 0.55824822141437158 0
-0.011959509367398868 1.8448354164920677 0.73407033126630339 0
0.48644504304688224 1.8361060720375502 0.66693811585648033 0
0.90014509963327316 1.4405375211766889 0.53740626636262079 0
0.92936236057382704 1.5468552237054127 0.51014860505899273 0
-0.18687826791233175 1.1736763189562609 0.40993643415192599 0
-0.09985490036672684 1.4405375211766889 0.53740626636262079 0
-0.090596978444647536 1.499251178318264 0.44404134574896159 0
-0.07063763942617296 1.5468552237054127 0.51014860505899273 0
-0.17681806631574848 1.6827856668355923 0.46658652739117185 0
-0.18368682050150076 1.6730441651677421 0.60827695369394585 0
1.2057060251027147 1.4987710007741275 0.45831728514786108 0
1.2431055108776863 1.6700564851773976 0.45402174255482963 0
0.90098952743876459 1.3222869855560979 0.5524105352955152 0
0.81175212500052596 1.3198829825704852 0.60451913291961945 0
-0.16407985401067282 1.1328449052567808 0.49439347506724768 0
-0.099010472561235408 1.3222869855560979 0.5524105352955152 0
0.044353066372881056 1.363496290311512 0.56958151508973109 0
0.98843555512593484 1.3513665067638372 0.66755546206361327 0
1.0443530663728811 1.363496290311512 0.56958151508973109 0
0.39818948632122358 1.2217527669682184 0.5393540876824231 0
0.28216744653996495 1.463191142522354 0.54388617040157416 0
0.20666825131081212 1.364153442032374 0.59065452362311954 0
0.62537815492429205 1.4123053638162049 0.91944353937414403 0
0.30642925712902486 1.5353020558047594 0.66216113819480493 0
0.19865130919586532 1.3723137140005401 0.63109307632114209 0
-0.011564444874065161 1.3513665067638372 0.66755546206361327 0
0.32804609297236992 2.1561102410485833 0.61430915602591107 0
0.30018482752257686 2.1439128044095717 0.70569381750769156 0
0.53320480118951996 2.0345531952341864 0.59817378831292622 0
0.53439750335415825 2.0254179159230508 0.63807709307473404 0
0.70558183226469384 2.1441911054223071 0.6960960137711949 0
0.61218693002445446 2.1013002017943823 0.57595117627287229 0
0.63674522299794789 1.4679116031325998 0.70765120836670403 0
0.48943250241696762 1.5864528305990482 0.65069703037327753 0
0.73969220605975694 1.5675220798591885 0.86754248737814754 0
0.50460034859614755 1.6135711949655889 0.70661676559963804 0
0.74289577839915233 1.3288486252240514 0.65472059875917321 0
0.81784808522935115 1.365620615879459 0.71634301056184091 0
0.23037606448768241 1.7398867024694873 0.81162471780702439 0
0.49790630401450781 1.748991339754312 1 0
0.24790630401450781 1.998991339754312 1 0
0.18188487954343913 1.5591332775683346 0.93688020620249735 0
0.24790630401450781 1.498991339754312 1 0
-0.0020936959854921389 1.748991339754312 1 0
-0.02025404744230197 1.7635769006084163 0.89016291146808646 0
0.46434208846933384 1.5962354612718359 0.92292217804457588 0
0.2779937160882488 1.477631367542382 0.93440289966842616 0
0.35547598033498184 1.616000915970206 0.78778543684729485 0
0.23608084143609465 1.5183216919685547 0.87245943789894076 0
0.49549266367215572 1.287631492862944 0.93226856003646574 0
0.74790630401450786 1.498991339754312 1 0
0.83625646693464384 1.6302818682590976 0.89855999099710471 0
1.0193195112176165 1.4579862517273907 0.88030350698625814 0
0.94291676003585678 1.4925383238532486 0.824426215197262 0
0.97974595255769803 1.7635769006084163 0.89016291146808646 0
1.1818848795434391 1.5591332775683346 0.93688020620249735 0
1.2303760644876824 1.7398867024694873 0.81162471780702439 0
0.87773740844460457 1.3634324649528002 0.74472839772988408 0
1.0181657096665915 1.3558282934908947 0.71957513027055842 0
0.17845958391526617 1.3552110262005181 0.68039780986193277 0
0.018165709666591479 1.3558282934908947 0.71957513027055842 0
0.15040865573262716 1.3563846139723883 0.78172200154586291 0
0.09007900435281721 1.3494171207204013 0.79651091715744005 0
-0.12226259155539543 1.3634324649528002 0.74472839772988408 0
-0.0040090938673795762 1.3605184050598189 0.80112245714597907 0
0.019319511217616547 1.4579862517273907 0.88030350698625814 0
-0.057083239964143218 1.4925383238532486 0.824426215197262 0
-0.16374353306535616 1.6302818682590976 0.89855999099710471 0
0.0024313666254957688 1.4188768301809276 0.91992949274929992 0
-0.15314601201312861 1.6283683495961327 0.93152538378184002 0
-0.0026745279804185618 1.3206713826241017 0.85010318818212449 0
0.16298567537985809 1.288538755025096 0.88477081101941002 0
0.19860185739420699 1.2929277918068689 0.83273775305931175 0
0.99790630401450786 1.748991339754312 1 0
1.2479063040145078 1.498991339754312 1 0
0.84685398798687139 1.6283683495961327 0.93152538378184002 0
1.0024313666254958 1.4188768301809276 0.91992949274929992 0
0.75701127211141883 1.2573788899472127 0.91600191849457813 0
0.34274395946560543 1.1523609183029317 0.80124856212557594 0
0.99732547201958144 1.3206713826241017 0.85010318818212449 0
1.1629856753798582 1.288538755025096 0.88477081101941002 0
-0.08707967529783589 1.0530061677193321 0.83106426300493041 0
-0.0020936959854921389 1.2489913397543118 1 0
0.23196702469463729 1.2366615930091593 0.71754124396790742 0
0.99599090613262042 1.3605184050598189 0.80112245714597907 0
1.0900790043528172 1.3494171207204013 0.79651091715744005 0
0.99790630401450786 2.248991339754312 1 0
0.91292032470216411 2.0530061677193321 0.83106426300493041 0
1.2479063040145078 1.998991339754312 1 0
0.74790630401450786 1.998991339754312 1 0
0.77008035222630666 1.9742878819794485 0.94439537521278771 0
0.67279889743725851 1.8168097281141116 0.89126607264794877 0
0.68518471513535784 1.7478776064062431 0.83575136902403568 0
0.51649615236832169 1.6773039593093124 0.7438034990921687 0
0.51615779005948181 1.8114550544342802 0.71343517223820652 0
0.78340111431275616 2.1776636833015575 0.79133523972994901 0
0.52308427913280553 2.0014785943504849 0.69575654630875494 0
0.54332752834273546 1.9749624698457917 0.79496844470669792 0
0.70436306138306426 2.0614612199369291 0.86422694206881523 0
0.5199185886336517 1.8950342927160624 0.80385429210825254 0
0.53487690488514128 1.7892993042705725 0.80787957896572615 0
0.64312906017906435 1.8043434434891381 0.92444819539814516 0
0.52417518515598627 1.8060674109699135 0.84862022413134219 0
0.47850948088358114 1.9641995933892304 0.87023216142940318 0
0.47950174867481932 2.0068331494901397 0.826429122914633 0
0.66328529128111091 2.0974345892892758 0.92404607904072322 0
0.33612076555546094 2.1385282005929813 0.87043981665853187 0
0.49790630401450781 2.248991339754312 1 0
0.42810476110730394 2.0457950911716831 0.72383584292173742 0
1.8768285286893054 1.019874591683068 0.20977769065980673 0
1.5 1 0 0
2 1 0 0
2.3128075284603122 1.1651376167662355 0.28075326996554634 0
1.8001152964307952 0.65920457917880615 0.13955920709380715 0
1.5 0.5 0 0
2 0.5 0 0
2.1628864681587401 0.65838243842576116 0.13561268605897694 0
1.5082925741151025 1.2120438989507687 0.19394987437388272 0
1.4752929626332842 0.76586538533277571 0.13486921978643646 0
1.7648357990956871 1.130028964694257 0.31916802857207738 0
1.6631436171833545 0.80917576920116796 0.21127360180127902 0
2.2918375842736975 0.66933356169830627 0.33370737136263462 0
1.9720619064529821 0.56096462162539884 0.30848871447186443 0
1.8642879161851458 0.47096335508078979 0.35636676263375816 0
1.9094030215553524 0.49925117831826404 0.44404134574896159 0
1.7480707272059166 0.70240466782456723 0.37272553303466938 0
1.8231819336842516 0.68278566683559228 0.46658652739117185 0
1.8131217320876682 1.1736763189562609 0.40993643415192599 0
1.6219881757192052 0.83772700637440334 0.39969788031974268 0
1.6850690725110944 0.82257747144786275 0.33983365876858479 0
1.6588223817343759 0.78391662288138608 0.26954025100336154 0
1.7641307583048316 0.62317161435702884 0.21946797248880914 0
1.8055881459378464 0.53652993960735929 0.21897641758578856 0
1.8637290081421694 0.55225303599952968 0.18416517870524318 0
2.1922627513461395 0.62171360035028367 0.21997875923118382 0
1.8122454875891965 0.37670597425639035 0.1356013625918274 0
2.1102130425565302 0.48057567448694688 0.097600363383868599 0
1.7562022731219331 0.36222177598475103 0.19435301265715776 0
1.5125745666510488 0.45322552069924105 0.077630704584065832 0
1.4683321857307945 0.72523756943440243 0.19939020936039559 0
1.5 0 0 0
2 0 0 0
1.8768285286893054 0.019874591683068044 0.20977769065980673 0
2.3128075284603122 0.16513761676623551 0.28075326996554634 0
1.7648357990956871 0.13002896469425695 0.31916802857207738 0
1.5082925741151025 0.21204389895076869 0.19394987437388272 0
1.4718969068920575 0.75361811563441772 0.29208868315594178 0
1.8131217320876682 0.1736763189562609 0.40993643415192599 0
1.5587925724703051 0.7726952229204066 0.50435093895812788 0
1.667184073663178 0.49515769179692892 0.68534374776102702 0
1.6779929133519955 0.84021060494150479 0.490637187052543 0
1.8163131794984992 0.67304416516774224 0.60827695369394585 0
1.6144756116191974 1.0727653368266057 0.48335588736725033 0
1.8359201459893271 1.1328449052567808 0.49439347506724768 0
1.988040490632601 0.84483541649206761 0.73407033126630339 0
2.0462316493994517 0.93379407282386873 0.64298635066910748 0
1.4150779423084514 0.73092528024703285 0.51862792948930236 0
1.4457690678037571 0.65159469972921946 0.59520702112070545 0
1.4716180939511241 0.8751528770918624 0.55824822141437158 0
1.4864450430468823 0.83610607203755016 0.66693811585648033 0
1.9001450996332732 0.44053752117668887 0.53740626636262079 0
1.929362360573827 0.54685522370541273 0.51014860505899273 0
2.2057060251027147 0.49877100077412739 0.45831728514786108 0
2.2431055108776863 0.67005648517739747 0.45402174255482963 0
1.6144756116191974 0.072765336826605687 0.48335588736725033 0
1.8359201459893271 0.13284490525678083 0.49439347506724768 0
1.9009895274387647 0.32228698555609786 0.5524105352955152 0
1.811752125000526 0.31988298257048509 0.60451913291961945 0
1.988435555125935 0.35136650676383724 0.66755546206361327 0
2.0443530663728811 0.36349629031151193 0.56958151508973109 0
1.988040490632601 -0.15516458350793239 0.73407033126630339 0
2.0462316493994517 -0.066205927176131274 0.64298635066910748 0
1.3981894863212236 0.22175276696821847 0.5393540876824231 0
1.2821674465399648 0.46319114252235405 0.54388617040157416 0
1.3280460929723699 0.15611024104858323 0.61430915602591107 0
1.2066682513108122 0.36415344203237404 0.59065452362311954 0
1.6253781549242921 0.41230536381620486 0.91944353937414403 0
1.3001848275225769 0.14391280440957177 0.70569381750769156 0
1.3064292571290248 0.53530205580475942 0.66216113819480493 0
1.1986513091958653 0.3723137140005402 0.63109307632114209 0
1.6121869300244545 0.10130020179438211 0.57595117627287229 0
1.5332048011895201 0.034553195234186387 0.59817378831292622 0
1.4716180939511241 -0.1248471229081376 0.55824822141437158 0
1.7055818322646938 0.14419110542230718 0.6960960137711949 0
1.5343975033541581 0.025417915923050916 0.63807709307473404 0
1.3280460929723699 1.1561102410485833 0.61430915602591107 0
1.3001848275225769 1.1439128044095717 0.70569381750769156 0
1.5332048011895201 1.0345531952341864 0.59817378831292622 0
1.5343975033541581 1.025417915923051 0.63807709307473404 0
1.7055818322646938 1.1441911054223071 0.6960960137711949 0
1.6121869300244545 1.101300201794382 0.57595117627287229 0
1.636745222997948 0.46791160313259988 0.70765120836670403 0
1.4894325024169677 0.58645283059904807 0.65069703037327753 0
1.7396922060597571 0.56752207985918834 0.86754248737814754 0
1.5046003485961474 0.61357119496558876 0.70661676559963804 0
1.7428957783991523 0.32884862522405134 0.65472059875917321 0
1.8178480852293513 0.36562061587945899 0.71634301056184091 0
1.4979063040145078 0.74899133975431187 1 0
1.4643420884693339 0.5962354612718358 0.92292217804457588 0
1.2779937160882489 0.47763136754238206 0.93440289966842616 0
1.3554759803349818 0.61600091597020612 0.78778543684729485 0
1.2360808414360946 0.51832169196855482 0.87245943789894076 0
1.4954926636721557 0.28763149286294398 0.93226856003646574 0
1.4979063040145078 0.24899133975431181 1 0
1.7479063040145078 0.49899133975431187 1 0
1.8362564669346439 0.6302818682590976 0.89855999099710471 0
2.0193195112176165 0.45798625172739077 0.88030350698625814 0
1.9429167600358568 0.49253832385324858 0.824426215197262 0
1.9797459525576979 0.76357690060841632 0.89016291146808646 0
2.1818848795434391 0.55913327756833475 0.93688020620249735 0
2.2303760644876824 0.73988670246948718 0.81162471780702439 0
1.8777374084446046 0.36343246495280029 0.74472839772988408 0
2.0181657096665915 0.35582829349089479 0.71957513027055842 0
1.1784595839152661 0.35521102620051814 0.68039780986193277 0
1.1504086557326272 0.3563846139723883 0.78172200154586291 0
1.198601857394207 0.29292779180686895 0.83273775305931175 0
1.9979063040145078 0.74899133975431187 1 0
2.2479063040145078 0.49899133975431187 1 0
1.9979063040145078 0.24899133975431181 1 0
1.8468539879868713 0.62836834959613275 0.93152538378184002 0
2.0024313666254958 0.4188768301809277 0.91992949274929992 0
1.7570112721114188 0.25737888994721275 0.91600191849457813 0
1.3427439594656054 0.15236091830293183 0.80124856212557594 0
1.336120765555461 0.13852820059298132 0.87043981665853187 0
1.7834011143127562 0.17766368330155746 0.79133523972994901 0
1.9973254720195814 0.32067138262410178 0.85010318818212449 0
1.912920324702164 0.053006167719331976 0.83106426300493041 0
2.1629856753798582 0.28853875502509602 0.88477081101941002 0
1.2479063040145078 -0.0010086602456881311 1 0
1.2319670246946373 0.23666159300915945 0.71754124396790742 0
1.9959909061326204 0.36051840505981897 0.80112245714597907 0
2.090079004352817 0.34941712072040126 0.79651091715744005 0
1.9979063040145078 1.2489913397543118 1 0
1.912920324702164 1.0530061677193321 0.83106426300493041 0
2.2479063040145078 0.99899133975431187 1 0
1.7479063040145078 0.99899133975431187 1 0
1.7700803522263067 0.97428788197944838 0.94439537521278771 0
1.6632852912811109 0.097434589289275869 0.92404607904072322 0
1.7479063040145078 -0.0010086602456881311 1 0
1.7043630613830643 0.061461219936929011 0.86422694206881523 0
1.7700803522263067 -0.025712118020551622 0.94439537521278771 0
1.6727988974372585 0.81680972811411157 0.89126607264794877 0
1.6851847151353578 0.74787760640624312 0.83575136902403568 0
1.5164961523683216 0.67730395930931242 0.7438034990921687 0
1.5161577900594818 0.81145505443428034 0.71343517223820652 0
1.7834011143127562 1.1776636833015575 0.79133523972994901 0
1.5230842791328056 1.0014785943504847 0.69575654630875494 0
1.5433275283427355 0.97496246984579171 0.79496844470669792 0
1.7043630613830643 1.0614612199369291 0.86422694206881523 0
1.5199185886336517 0.89503429271606239 0.80385429210825254 0
1.5348769048851412 0.78929930427057238 0.80787957896572615 0
1.6431290601790645 0.804343443489138 0.92444819539814516 0
1.5241751851559862 0.80606741096991352 0.84862022413134219 0
1.4785094808835813 0.96419959338923045 0.87023216142940318 0
1.4795017486748194 1.0068331494901397 0.826429122914633 0
1.6632852912811109 1.0974345892892758 0.92404607904072322 0
1.4795017486748194 0.0068331494901396894 0.826429122914633 0
1.4785094808835813 -0.035800406610769553 0.87023216142940318 0
1.336120765555461 1.1385282005929813 0.87043981665853187 0
1.4979063040145078 1.2489913397543118 1 0
1.4281047611073039 0.045795091171683101 0.72383584292173742 0
1.2303760644876824 -0.26011329753051282 0.81162471780702439 0
1.4281047611073039 1.0457950911716831 0.72383584292173742 0
1.5230842791328056 0.0014785943504846966 0.69575654630875494 0
1.5433275283427355 -0.025037530154208287 0.79496844470669792 0
1.8768285286893054 2.019874591683068 0.20977769065980673 0
1.5 2 0 0
2 2 0 0
2.3128075284603122 2.1651376167662355 0.28075326996554634 0
1.8001152964307952 1.6592045791788061 0.13955920709380715 0
1.5 1.5 0 0
2 1.5 0 0
2.1628864681587401 1.6583824384257611 0.13561268605897694 0
1.5082925741151025 2.2120438989507685 0.19394987437388272 0
1.4752929626332842 1.7658653853327757 0.13486921978643646 0
1.7648357990956871 2.1300289646942572 0.31916802857207738 0
1.6631436171833545 1.8091757692011678 0.21127360180127902 0
2.2918375842736975 1.6693335616983063 0.33370737136263462 0
1.9720619064529821 1.560964621625399 0.30848871447186443 0
1.8642879161851458 1.4709633550807899 0.35636676263375816 0
1.9094030215553524 1.499251178318264 0.44404134574896159 0
1.7480707272059166 1.7024046678245672 0.37272553303466938 0
1.8231819336842516 1.6827856668355923 0.46658652739117185 0
1.8131217320876682 2.1736763189562609 0.40993643415192599 0
1.6219881757192052 1.8377270063744033 0.39969788031974268 0
1.6850690725110944 1.8225774714478629 0.33983365876858479 0
1.6588223817343759 1.7839166228813861 0.26954025100336154 0
1.7641307583048316 1.6231716143570289 0.21946797248880914 0
1.8055881459378464 1.5365299396073593 0.21897641758578856 0
1.8637290081421694 1.5522530359995297 0.18416517870524318 0
2.1922627513461395 1.6217136003502837 0.21997875923118382 0
1.8122454875891965 1.3767059742563903 0.1356013625918274 0
2.1102130425565302 1.4805756744869469 0.097600363383868599 0
1.7562022731219331 1.362221775984751 0.19435301265715776 0
1.5125745666510488 1.453225520699241 0.077630704584065832 0
1.4683321857307945 1.7252375694344024 0.19939020936039559 0
1.4718969068920575 1.7536181156344177 0.29208868315594178 0
1.5587925724703051 1.7726952229204067 0.50435093895812788 0
1.667184073663178 1.4951576917969289 0.68534374776102702 0
1.6779929133519955 1.8402106049415048 0.490637187052543 0
1.8163131794984992 1.6730441651677421 0.60827695369394585 0
1.6144756116191974 2.0727653368266057 0.48335588736725033 0
1.8359201459893271 2.1328449052567811 0.49439347506724768 0
1.988040490632601 1.8448354164920677 0.73407033126630339 0
2.0462316493994517 1.9337940728238687 0.64298635066910748 0
1.4150779423084514 1.7309252802470327 0.51862792948930236 0
1.4457690678037571 1.6515946997292195 0.59520702112070545 0
1.4716180939511241 1.8751528770918624 0.55824822141437158 0
1.4864450430468823 1.8361060720375502 0.66693811585648033 0
1.9001450996332732 1.4405375211766889 0.53740626636262079 0
1.929362360573827 1.5468552237054127 0.51014860505899273 0
2.2057060251027147 1.4987710007741275 0.45831728514786108 0
2.2431055108776863 1.6700564851773976 0.45402174255482963 0
1.9009895274387647 1.3222869855560979 0.5524105352955152 0
1.811752125000526 1.3198829825704852 0.60451913291961945 0
1.988435555125935 1.3513665067638372 0.66755546206361327 0
2.0443530663728811 1.363496290311512 0.56958151508973109 0
1.3981894863212236 1.2217527669682184 0.5393540876824231 0
1.2821674465399648 1.463191142522354 0.54388617040157416 0
1.2066682513108122 1.364153442032374 0.59065452362311954 0
1.6253781549242921 1.4123053638162049 0.91944353937414403 0
1.3064292571290248 1.5353020558047594 0.66216113819480493 0
1.1986513091958653 1.3723137140005401 0.63109307632114209 0
1.3280460929723699 2.1561102410485833 0.61430915602591107 0
1.3001848275225769 2.1439128044095717 0.70569381750769156 0
1.5332048011895201 2.0345531952341864 0.59817378831292622 0
1.5343975033541581 2.0254179159230508 0.63807709307473404 0
1.7055818322646938 2.1441911054223071 0.6960960137711949 0
1.6121869300244545 2.1013002017943823 0.57595117627287229 0
1.636745222997948 1.4679116031325998 0.70765120836670403 0
1.4894325024169677 1.5864528305990482 0.65069703037327753 0
1.7396922060597571 1.5675220798591885 0.86754248737814754 0
1.5046003485961474 1.6135711949655889 0.70661676559963804 0
1.7428957783991523 1.3288486252240514 0.65472059875917321 0
1.8178480852293513 1.365620615879459 0.71634301056184091 0
1.4979063040145078 1.748991339754312 1 0
1.4643420884693339 1.5962354612718359 0.92292217804457588 0
1.2779937160882489 1.477631367542382 0.93440289966842616 0
1.3554759803349818 1.616000915970206 0.78778543684729485 0
1.2360808414360946 1.5183216919685547 0.87245943789894076 0
1.4954926636721557 1.287631492862944 0.93226856003646574 0
1.7479063040145078 1.498991339754312 1 0
1.8362564669346439 1.6302818682590976 0.89855999099710471 0
2.0193195112176165 1.4579862517273907 0.88030350698625814 0
1.9429167600358568 1.4925383238532486 0.824426215197262 0
1.9797459525576979 1.7635769006084163 0.89016291146808646 0
2.1818848795434391 1.5591332775683346 0.93688020620249735 0
2.2303760644876824 1.7398867024694873 0.81162471780702439 0
1.8777374084446046 1.3634324649528002 0.74472839772988408 0
2.0181657096665915 1.3558282934908947 0.71957513027055842 0
1.1784595839152661 1.3552110262005181 0.68039780986193277 0
1.1504086557326272 1.3563846139723883 0.78172200154586291 0
1.198601857394207 1.2929277918068689 0.83273775305931175 0
1.9979063040145078 1.748991339754312 1 0
2.2479063040145078 1.498991339754312 1 0
1.8468539879868713 1.6283683495961327 0.93152538378184002 0
2.0024313666254958 1.4188768301809276 0.91992949274929992 0
1.7570112721114188 1.2573788899472127 0.91600191849457813 0
1.3427439594656054 1.1523609183029317 0.80124856212557594 0
1.9973254720195814 1.3206713826241017 0.85010318818212449 0
2.1629856753798582 1.288538755025096 0.88477081101941002 0
1.2319670246946373 1.2366615930091593 0.71754124396790742 0
1.9959909061326204 1.3605184050598189 0.80112245714597907 0
2.090079004352817 1.3494171207204013 0.79651091715744005 0
1.9979063040145078 2.248991339754312 1 0
1.912920324702164 2.0530061677193321 0.83106426300493041 0
2.2479063040145078 1.998991339754312 1 0
1.7479063040145078 1.998991339754312 1 0
1.7700803522263067 1.9742878819794485 0.94439537521278771 0
1.6727988974372585 1.8168097281141116 0.89126607264794877 0
1.6851847151353578 1.7478776064062431 0.83575136902403568 0
1.5164961523683216 1.6773039593093124 0.7438034990921687 0
1.5161577900594818 1.8114550544342802 0.71343517223820652 0
1.7834011143127562 2.1776636833015575 0.79133523972994901 0
1.5230842791328056 2.0014785943504849 0.69575654630875494 0
1.5433275283427355 1.9749624698457917 0.79496844470669792 0
1.7043630613830643 2.0614612199369291 0.86422694206881523 0
1.5199185886336517 1.8950342927160624 0.80385429210825254 0
1.5348769048851412 1.7892993042705725 0.80787957896572615 0
1.6431290601790645 1.8043434434891381 0.92444819539814516 0
1.5241751851559862 1.8060674109699135 0.84862022413134219 0
1.4785094808835813 1.9641995933892304 0.87023216142940318 0
1.4795017486748194 2.0068331494901397 0.826429122914633 0
1.6632852912811109 2.0974345892892758 0.92404607904072322 0
1.336120765555461 2.1385282005929813 0.87043981665853187 0
1.4979063040145078 2.248991339754312 1 0
1.4281047611073039 2.0457950911716831 0.72383584292173742 0
Hexahedra
440
1 2 3 4 5 6 7 8 0
9 10 6 2 11 12 5 1 0
13 10 6 14 15 9 2 16 0
17 18 19 20 13 21 22 15 0
23 24 25 26 4 1 27 28 0
29 11 1 4 30 31 27 28 0
31 32 12 11 27 33 5 1 0
27 33 5 1 25 34 35 24 0
8 5 6 7 36 35 37 38 0
34 39 40 33 35 37 6 5 0
33 40 41 32 5 6 10 12 0
7 6 42 43 38 37 44 45 0
17 41 40 46 13 10 6 14 0
47 39 37 44 48 40 6 42 0
14 46 49 50 6 40 48 42 0
20 51 48 49 17 41 40 46 0
26 25 47 52 28 27 48 49 0
30 31 27 28 20 51 48 49 0
27 33 40 48 31 32 41 51 0
25 34 39 47 27 33 40 48 0
17 18 53 46 20 19 54 49 0
25 34 35 24 47 39 37 44 0
23 24 44 45 26 25 47 52 0
20 51 9 15 30 31 11 29 0
51 41 10 9 31 32 12 11 0
17 41 10 13 20 51 9 15 0
49 20 55 56 28 30 57 58 0
15 20 30 29 59 55 57 60 0
61 56 55 59 62 58 57 60 0
4 28 58 62 29 30 57 60 0
49 20 63 64 56 55 65 66 0
15 20 55 59 67 63 65 68 0
69 64 63 67 70 66 65 68 0
61 56 66 70 59 55 65 68 0
49 52 26 28 56 71 72 58 0
49 73 74 64 20 75 76 63 0
15 77 75 20 67 78 76 63 0
61 56 58 62 79 71 72 80 0
49 52 71 56 81 82 83 84 0
49 73 85 86 64 74 87 88 0
61 56 71 79 89 84 83 90 0
91 81 84 89 92 82 83 90 0
49 93 94 64 86 95 96 88 0
97 93 95 98 99 94 96 100 0
69 64 94 99 101 88 96 100 0
102 86 88 101 98 95 96 100 0
49 93 95 86 81 103 104 105 0
97 93 103 106 98 95 104 107 0
69 67 108 109 70 68 110 111 0
61 59 68 70 112 113 110 111 0
49 93 114 56 64 94 115 66 0
97 93 94 99 116 114 115 117 0
61 56 114 116 70 66 115 117 0
69 64 66 70 99 94 115 117 0
49 93 103 81 56 114 118 84 0
97 93 114 116 106 103 118 119 0
91 81 103 106 89 84 118 119 0
61 56 84 89 116 114 118 119 0
120 121 122 69 123 124 125 126 0
127 128 124 121 129 130 123 120 0
131 128 124 132 97 127 121 133 0
134 135 136 116 137 138 139 61 0
116 136 140 119 61 139 141 89 0
99 129 120 69 100 142 143 101 0
142 144 130 129 143 145 123 120 0
143 145 123 120 146 147 148 149 0
126 123 124 125 150 148 151 152 0
147 153 154 145 148 151 124 123 0
145 154 155 144 123 124 128 130 0
156 157 158 133 159 160 161 97 0
162 155 154 163 131 128 124 132 0
164 165 160 161 166 167 157 158 0
132 163 102 168 124 154 169 170 0
98 171 169 102 162 155 154 163 0
119 140 164 106 89 141 166 91 0
100 142 143 101 98 171 169 102 0
143 145 154 169 142 144 155 171 0
140 172 165 164 141 173 167 166 0
134 135 160 159 116 136 161 97 0
140 172 135 136 164 165 160 161 0
116 136 161 97 119 140 164 106 0
98 171 127 97 100 142 129 99 0
171 155 128 127 142 144 130 129 0
162 155 128 131 98 171 127 97 0
174 175 61 176 177 178 137 156 0
179 161 158 180 181 164 166 182 0
179 131 132 180 161 97 133 158 0
183 134 116 184 178 137 61 175 0
184 116 117 185 175 61 70 186 0
187 112 61 175 188 111 70 186 0
189 188 187 190 191 186 175 178 0
191 186 175 178 192 185 184 183 0
178 137 156 177 183 134 159 193 0
194 192 191 195 193 183 178 177 0
195 191 189 196 177 178 190 197 0
177 156 133 121 193 159 97 127 0
198 162 163 199 179 131 132 180 0
194 129 127 193 195 120 121 177 0
200 201 122 69 195 177 121 120 0
202 98 102 203 198 162 163 199 0
185 117 99 129 186 70 69 120 0
188 111 70 186 204 109 69 120 0
191 186 120 195 189 188 204 196 0
192 185 129 194 191 186 120 195 0
183 134 159 193 184 116 97 127 0
192 185 184 183 194 129 127 193 0
184 116 97 127 185 117 99 129 0
202 98 97 161 205 107 106 164 0
198 202 161 179 206 205 164 181 0
198 162 131 179 202 98 97 161 0
207 208 209 210 211 212 213 214 0
215 216 212 208 217 218 211 207 0
219 216 212 220 221 215 208 222 0
223 224 225 226 219 227 228 221 0
229 230 231 232 210 207 233 234 0
235 217 207 210 236 237 233 234 0
237 238 218 217 233 239 211 207 0
233 239 211 207 231 240 241 230 0
214 211 212 213 242 241 243 244 0
240 245 246 239 241 243 212 211 0
239 246 247 238 211 212 216 218 0
213 212 2 3 244 243 1 4 0
223 247 246 248 219 216 212 220 0
11 245 243 1 9 246 212 2 0
220 248 15 16 212 246 9 2 0
226 249 9 15 223 247 246 248 0
232 231 11 29 234 233 9 15 0
236 237 233 234 226 249 9 15 0
233 239 246 9 237 238 247 249 0
231 240 245 11 233 239 246 9 0
223 224 250 248 226 225 22 15 0
231 240 241 230 11 245 243 1 0
229 230 1 4 232 231 11 29 0
226 249 215 221 236 237 217 235 0
249 247 216 215 237 238 218 217 0
223 247 216 219 226 249 215 221 0
15 226 251 252 234 236 253 254 0
221 226 236 235 255 251 253 256 0
257 252 251 255 258 254 253 256 0
210 234 254 258 235 236 253 256 0
15 226 259 260 252 251 261 262 0
221 226 251 255 263 259 261 264 0
265 260 259 263 266 262 261 264 0
257 252 262 266 255 251 261 264 0
15 29 232 234 252 267 268 254 0
15 269 270 260 226 271 272 259 0
221 273 271 226 263 274 272 259 0
257 252 254 258 275 267 268 276 0
15 29 267 252 59 60 277 278 0
15 269 279 67 260 270 280 281 0
257 252 267 275 282 278 277 283 0
61 59 278 282 62 60 277 283 0
15 284 285 260 67 108 286 281 0
287 284 108 109 288 285 286 289 0
265 260 285 288 290 281 286 289 0
69 67 281 290 109 108 286 289 0
15 284 108 67 59 113 110 68 0
287 284 113 112 109 108 110 111 0
265 263 291 292 266 264 293 294 0
257 255 264 266 295 296 293 294 0
15 284 297 252 260 285 298 262 0
287 284 285 288 299 297 298 300 0
257 252 297 299 266 262 298 300 0
265 260 262 266 288 285 298 300 0
15 284 113 59 252 297 301 278 0
287 284 297 299 112 113 301 302 0
61 59 113 112 282 278 301 302 0
257 252 278 282 299 297 301 302 0
303 304 305 265 306 307 308 309 0
310 311 307 304 312 313 306 303 0
314 311 307 201 287 310 304 315 0
316 317 318 299 319 320 321 257 0
299 318 322 302 257 321 323 282 0
288 312 303 265 289 324 325 290 0
324 326 313 312 325 327 306 303 0
325 327 306 303 328 329 330 331 0
309 306 307 308 332 330 333 334 0
329 335 336 327 330 333 307 306 0
327 336 337 326 306 307 311 313 0
338 339 174 315 340 341 342 287 0
343 337 336 200 314 311 307 201 0
187 344 341 342 175 345 339 174 0
201 200 69 122 307 336 346 347 0
109 348 346 69 343 337 336 200 0
302 322 187 112 282 323 175 61 0
289 324 325 290 109 348 346 69 0
325 327 336 346 324 326 337 348 0
322 349 344 187 323 350 345 175 0
316 317 341 340 299 318 342 287 0
322 349 317 318 187 344 341 342 0
299 318 342 287 302 322 187 112 0
109 348 310 287 289 324 312 288 0
348 337 311 310 324 326 313 312 0
343 337 311 314 109 348 310 287 0
351 352 257 353 354 355 319 338 0
197 342 174 177 190 187 175 178 0
197 314 201 177 342 287 315 174 0
356 316 299 357 355 319 257 352 0
357 299 300 358 352 257 266 359 0
360 295 257 352 361 294 266 359 0
362 361 360 363 364 359 352 355 0
364 359 352 355 365 358 357 356 0
355 319 338 354 356 316 340 366 0
367 365 364 368 366 356 355 354 0
368 364 362 369 354 355 363 370 0
354 338 315 304 366 340 287 310 0
196 343 200 195 197 314 201 177 0
367 312 310 366 368 303 304 354 0
371 372 305 265 368 354 304 303 0
204 109 69 120 196 343 200 195 0
358 300 288 312 359 266 265 303 0
361 294 266 359 373 292 265 303 0
364 359 303 368 362 361 373 369 0
365 358 312 367 364 359 303 368 0
356 316 340 366 357 299 287 310 0
365 358 357 356 367 312 310 366 0
357 299 287 310 358 300 288 312 0
204 109 287 342 188 111 112 187 0
196 204 342 197 189 188 187 190 0
196 343 314 197 204 109 287 342 0
374 375 376 377 378 379 380 381 0
382 383 379 375 384 385 378 374 0
8 383 379 7 4 382 375 3 0
36 35 24 23 8 5 1 4 0
386 387 388 389 377 374 390 391 0
392 384 374 377 393 394 390 391 0
394 395 385 384 390 396 378 374 0
390 396 378 374 388 397 398 387 0
381 378 379 380 399 398 400 401 0
397 402 403 396 398 400 379 378 0
396 403 404 395 378 379 383 385 0
380 379 405 406 401 400 407 408 0
36 404 403 38 8 383 379 7 0
409 402 400 407 410 403 379 405 0
7 38 45 43 379 403 410 405 0
23 411 410 45 36 404 403 38 0
389 388 409 412 391 390 410 45 0
393 394 390 391 23 411 410 45 0
390 396 403 410 394 395 404 411 0
388 397 402 409 390 396 403 410 0
36 35 37 38 23 24 44 45 0
388 397 398 387 409 402 400 407 0
386 387 407 408 389 388 409 412 0
23 411 382 4 393 394 384 392 0
411 404 383 382 394 395 385 384 0
36 404 383 8 23 411 382 4 0
45 23 413 414 391 393 415 416 0
4 23 393 392 417 413 415 418 0
419 414 413 417 420 416 415 418 0
377 391 416 420 392 393 415 418 0
45 23 80 79 414 413 421 422 0
4 23 413 417 62 80 421 423 0
61 79 80 62 424 422 421 423 0
419 414 422 424 417 413 421 423 0
45 412 389 391 414 425 426 416 0
45 52 71 79 23 26 72 80 0
4 28 26 23 62 58 72 80 0
419 414 416 420 427 425 426 428 0
45 412 425 414 429 430 431 432 0
45 52 82 92 79 71 83 90 0
419 414 425 427 433 432 431 434 0
435 429 432 433 436 430 431 434 0
45 437 438 79 92 439 440 90 0
441 437 439 442 443 438 440 444 0
61 79 438 443 89 90 440 444 0
91 92 90 89 442 439 440 444 0
45 437 439 92 429 445 446 447 0
441 437 445 448 442 439 446 449 0
61 62 450 451 424 423 452 453 0
419 417 423 424 454 455 452 453 0
45 437 456 414 79 438 457 422 0
441 437 438 443 458 456 457 459 0
419 414 456 458 424 422 457 459 0
61 79 422 424 443 438 457 459 0
45 437 445 429 414 456 460 432 0
441 437 456 458 448 445 460 461 0
435 429 445 448 433 432 460 461 0
419 414 432 433 458 456 460 461 0
139 462 176 61 138 157 156 137 0
463 464 157 462 465 466 138 139 0
467 464 157 468 441 463 462 469 0
470 471 472 458 473 474 475 419 0
458 472 476 461 419 475 477 433 0
443 465 139 61 444 478 141 89 0
478 479 466 465 141 173 138 139 0
141 173 138 139 140 172 135 136 0
137 138 157 156 134 135 160 159 0
172 165 167 173 135 160 157 138 0
173 167 480 479 138 157 464 466 0
481 482 483 469 484 485 486 441 0
487 480 167 488 467 464 157 468 0
489 490 485 486 491 492 482 483 0
468 488 91 493 157 167 166 158 0
442 494 166 91 487 480 167 488 0
461 476 489 448 433 477 491 435 0
444 478 141 89 442 494 166 91 0
141 173 167 166 478 479 480 494 0
476 495 490 489 477 496 492 491 0
470 471 485 484 458 472 486 441 0
476 495 471 472 489 490 485 486 0
458 472 486 441 461 476 489 448 0
442 494 463 441 444 478 465 443 0
494 480 464 463 478 479 466 465 0
487 480 464 467 442 494 463 441 0
497 498 419 499 500 501 473 481 0
502 486 483 503 504 489 491 505 0
502 467 468 503 486 441 469 483 0
506 470 458 507 501 473 419 498 0
507 458 459 508 498 419 424 509 0
510 454 419 498 511 453 424 509 0
512 511 510 513 514 509 498 501 0
514 509 498 501 515 508 507 506 0
501 473 481 500 506 470 484 516 0
517 515 514 518 516 506 501 500 0
518 514 512 519 500 501 513 520 0
500 481 469 462 516 484 441 463 0
521 487 488 522 502 467 468 503 0
517 465 463 516 518 139 462 500 0
523 524 176 61 518 500 462 139 0
525 442 91 526 521 487 488 522 0
508 459 443 465 509 424 61 139 0
511 453 424 509 527 451 61 139 0
514 509 139 518 512 511 527 519 0
515 508 465 517 514 509 139 518 0
506 470 484 516 507 458 441 463 0
515 508 507 506 517 465 463 516 0
507 458 441 463 508 459 443 465 0
525 442 441 486 528 449 448 489 0
521 525 486 502 529 528 489 504 0
521 487 467 502 525 442 441 486 0
530 531 532 533 534 535 536 537 0
538 539 535 531 540 541 534 530 0
214 539 535 213 210 538 531 209 0
242 241 230 229 214 211 207 210 0
542 543 544 545 533 530 546 547 0
548 540 530 533 549 550 546 547 0
550 551 541 540 546 552 534 530 0
546 552 534 530 544 553 554 543 0
537 534 535 536 555 554 556 557 0
553 558 559 552 554 556 535 534 0
552 559 560 551 534 535 539 541 0
536 535 375 376 557 556 374 377 0
242 560 559 244 214 539 535 213 0
384 558 556 374 382 559 535 375 0
213 244 4 3 535 559 382 375 0
229 561 382 4 242 560 559 244 0
545 544 384 392 547 546 382 4 0
549 550 546 547 229 561 382 4 0
546 552 559 382 550 551 560 561 0
544 553 558 384 546 552 559 382 0
242 241 243 244 229 230 1 4 0
544 553 554 543 384 558 556 374 0
542 543 374 377 545 544 384 392 0
229 561 538 210 549 550 540 548 0
561 560 539 538 550 551 541 540 0
242 560 539 214 229 561 538 210 0
4 229 562 563 547 549 564 565 0
210 229 549 548 566 562 564 567 0
568 563 562 566 569 565 564 567 0
533 547 565 569 548 549 564 567 0
4 229 276 275 563 562 570 571 0
210 229 562 566 258 276 570 572 0
257 275 276 258 573 571 570 572 0
568 563 571 573 566 562 570 572 0
4 392 545 547 563 574 575 565 0
4 29 267 275 229 232 268 276 0
210 234 232 229 258 254 268 276 0
568 563 565 569 576 574 575 577 0
4 392 574 563 417 418 578 579 0
4 29 60 62 275 267 277 283 0
568 563 574 576 580 579 578 581 0
419 417 579 580 420 418 578 581 0
4 582 583 275 62 450 584 283 0
585 582 450 451 586 583 584 587 0
257 275 583 586 282 283 584 587 0
61 62 283 282 451 450 584 587 0
4 582 450 62 417 455 452 423 0
585 582 455 454 451 450 452 453 0
257 258 588 589 573 572 590 591 0
568 566 572 573 592 593 590 591 0
4 582 594 563 275 583 595 571 0
585 582 583 586 596 594 595 597 0
568 563 594 596 573 571 595 597 0
257 275 571 573 586 583 595 597 0
4 582 455 417 563 594 598 579 0
585 582 594 596 454 455 598 599 0
419 417 455 454 580 579 598 599 0
568 563 579 580 596 594 598 599 0
321 600 353 257 320 339 338 319 0
601 602 339 600 603 604 320 321 0
605 602 339 524 585 601 600 606 0
607 608 609 596 610 611 612 568 0
596 609 613 599 568 612 614 580 0
586 603 321 257 587 615 323 282 0
615 616 604 603 323 350 320 321 0
323 350 320 321 322 349 317 318 0
319 320 339 338 316 317 341 340 0
349 344 345 350 317 341 339 320 0
350 345 617 616 320 339 602 604 0
618 619 497 606 620 621 622 585 0
623 617 345 523 605 602 339 524 0
510 624 621 622 498 625 619 497 0
524 523 61 176 339 345 175 174 0
451 626 175 61 623 617 345 523 0
599 613 510 454 580 614 498 419 0
587 615 323 282 451 626 175 61 0
323 350 345 175 615 616 617 626 0
613 627 624 510 614 628 625 498 0
607 608 621 620 596 609 622 585 0
613 627 608 609 510 624 621 622 0
596 609 622 585 599 613 510 454 0
451 626 601 585 587 615 603 586 0
626 617 602 601 615 616 604 603 0
623 617 602 605 451 626 601 585 0
629 630 568 631 632 633 610 618 0
520 622 497 500 513 510 498 501 0
520 605 524 500 622 585 606 497 0
634 607 596 635 633 610 568 630 0
635 596 597 636 630 568 573 637 0
638 592 568 630 639 591 573 637 0
640 639 638 641 642 637 630 633 0
642 637 630 633 643 636 635 634 0
633 610 618 632 634 607 620 644 0
645 643 642 646 644 634 633 632 0
646 642 640 647 632 633 641 648 0
632 618 606 600 644 620 585 601 0
519 623 523 518 520 605 524 500 0
645 603 601 644 646 321 600 632 0
649 650 353 257 646 632 600 321 0
527 451 61 139 519 623 523 518 0
636 597 586 603 637 573 257 321 0
639 591 573 637 651 589 257 321 0
642 637 321 646 640 639 651 647 0
643 636 603 645 642 637 321 646 0
634 607 620 644 635 596 585 601 0
643 636 635 634 645 603 601 644 0
635 596 585 601 636 597 586 603 0
527 451 585 622 511 453 454 510 0
519 527 622 520 512 511 510 513 0
519 623 605 520 527 451 585 622 0
Quadrilaterals
48
2 3 7 6 0
6 14 16 2 0
7 43 42 6 0
50 14 6 42 0
121 122 125 124 0
124 132 133 121 0
156 133 158 157 0
168 132 124 170 0
176 174 177 156 0
132 180 158 133 0
177 121 133 156 0
201 122 121 177 0
208 209 213 212 0
212 220 222 208 0
213 3 2 212 0
16 220 212 2 0
304 305 308 307 0
307 201 315 304 0
338 315 174 339 0
122 201 307 347 0
353 351 354 338 0
201 177 174 315 0
354 304 315 338 0
372 305 304 354 0
375 376 380 379 0
379 7 3 375 0
380 406 405 379 0
43 7 379 405 0
462 176 156 157 0
157 468 469 462 0
481 469 483 482 0
493 468 157 158 0
499 497 500 481 0
468 503 483 469 0
500 462 469 481 0
524 176 462 500 0
531 532 536 535 0
535 213 209 531 0
536 376 375 535 0
3 213 535 375 0
600 353 338 339 0
339 524 606 600 0
618 606 497 619 0
176 524 339 174 0
631 629 632 618 0
524 500 497 606 0
632 600 606 618 0
650 353 600 632 0
End
