MeshVersionFormatted 2
Dimension 3
Vertices
206
0.87682852868930539 1.019874591683068 0.20977769065980673 0
0.5 1 0 0
1 1 0 0
1.3128075284603125 1.1651376167662355 0.28075326996554634 0
0.80011529643079515 0.65920457917880615 0.13955920709380715 0
0.5 0.5 0 0
1 0.5 0 0
1.1628864681587401 0.65838243842576116 0.13561268605897694 0
0.50829257411510242 1.2120438989507687 0.19394987437388272 0
0.47529296263328419 0.76586538533277571 0.13486921978643646 0
0.76483579909568711 1.130028964694257 0.31916802857207738 0
0.66314361718335457 0.80917576920116796 0.21127360180127902 0
0.16288646815874008 0.65838243842576116 0.13561268605897694 0
0 0.5 0 0
0.31280752846031246 1.1651376167662355 0.28075326996554634 0
0 1 0 0
0.19226275134613968 0.62171360035028367 0.21997875923118382 0
-0.13627099185783065 0.55225303599952968 0.18416517870524318 0
-0.027938093547017817 0.56096462162539884 0.30848871447186443 0
0.29183758427369755 0.66933356169830627 0.33370737136263462 0
-0.19988470356920485 0.65920457917880615 0.13955920709380715 0
-0.12317147131069461 1.019874591683068 0.20977769065980673 0
1.2918375842736975 0.66933356169830627 0.33370737136263462 0
0.97206190645298218 0.56096462162539884 0.30848871447186443 0
0.86428791618514578 0.47096335508078979 0.35636676263375816 0
0.90940302155535246 0.49925117831826404 0.44404134574896159 0
0.7480707272059165 0.70240466782456723 0.37272553303466938 0
0.82318193368425152 0.68278566683559228 0.46658652739117185 0
0.81312173208766825 1.1736763189562609 0.40993643415192599 0
0.62198817571920517 0.83772700637440334 0.39969788031974268 0
0.6850690725110945 0.82257747144786275 0.33983365876858479 0
0.65882238173437602 0.78391662288138608 0.26954025100336154 0
0.76413075830483157 0.62317161435702884 0.21946797248880914 0
0.80558814593784644 0.53652993960735929 0.21897641758578856 0
0.86372900814216935 0.55225303599952968 0.18416517870524318 0
1.1922627513461397 0.62171360035028367 0.21997875923118382 0
0.81224548758919646 0.37670597425639035 0.1356013625918274 0
1.1102130425565302 0.48057567448694688 0.097600363383868599 0
0.75620227312193322 0.36222177598475103 0.19435301265715776 0
0.51257456665104884 0.45322552069924105 0.077630704584065832 0
0.46833218573079449 0.72523756943440243 0.19939020936039559 0
0.5 0 0 0
1 0 0 0
0.87682852868930539 0.019874591683068044 0.20977769065980673 0
1.3128075284603125 0.16513761676623551 0.28075326996554634 0
0.11021304255653019 0.48057567448694688 0.097600363383868599 0
0.76483579909568711 0.13002896469425695 0.31916802857207738 0
0.50829257411510242 0.21204389895076869 0.19394987437388272 0
0.31280752846031246 0.16513761676623551 0.28075326996554634 0
0 0 0 0
0.4718969068920576 0.75361811563441772 0.29208868315594178 0
0.81312173208766825 0.1736763189562609 0.40993643415192599 0
-0.18775451241080354 0.37670597425639035 0.1356013625918274 0
-0.12317147131069461 0.019874591683068044 0.20977769065980673 0
0.55879257247030512 0.7726952229204066 0.50435093895812788 0
0.667184073663178 0.49515769179692892 0.68534374776102702 0
0.67799291335199563 0.84021060494150479 0.490637187052543 0
0.81631317949849924 0.67304416516774224 0.60827695369394585 0
0.61447561161919739 1.0727653368266057 0.48335588736725033 0
0.83592014598932718 1.1328449052567808 0.49439347506724768 0
0.98804049063260113 0.84483541649206761 0.73407033126630339 0
1.0462316493994517 0.93379407282386873 0.64298635066910748 0
0.24310551087768634 0.67005648517739747 0.45402174255482963 0
0.20570602510271463 0.49877100077412739 0.45831728514786108 0
0.41507794230845152 0.73092528024703285 0.51862792948930236 0
0.44576906780375702 0.65159469972921946 0.59520702112070545 0
0.04623164939945168 0.93379407282386873 0.64298635066910748 0
0.47161809395112408 0.8751528770918624 0.55824822141437158 0
-0.011959509367398868 0.84483541649206761 0.73407033126630339 0
0.48644504304688224 0.83610607203755016 0.66693811585648033 0
0.90014509963327316 0.44053752117668887 0.53740626636262079 0
0.92936236057382704 0.54685522370541273 0.51014860505899273 0
-0.18687826791233175 0.1736763189562609 0.40993643415192599 0
-0.09985490036672684 0.44053752117668887 0.53740626636262079 0
-0.090596978444647536 0.49925117831826404 0.44404134574896159 0
-0.07063763942617296 0.54685522370541273 0.51014860505899273 0
-0.17681806631574848 0.68278566683559228 0.46658652739117185 0
-0.18368682050150076 0.67304416516774224 0.60827695369394585 0
1.2057060251027147 0.49877100077412739 0.45831728514786108 0
1.2431055108776863 0.67005648517739747 0.45402174255482963 0
0.61447561161919739 0.072765336826605687 0.48335588736725033 0
0.83592014598932718 0.13284490525678083 0.49439347506724768 0
0.90098952743876459 0.32228698555609786 0.5524105352955152 0
0.81175212500052596 0.31988298257048509 0.60451913291961945 0
-0.16407985401067282 0.13284490525678083 0.49439347506724768 0
0.04623164939945168 -0.066205927176131274 0.64298635066910748 0
-0.099010472561235408 0.32228698555609786 0.5524105352955152 0
0.044353066372881056 0.36349629031151193 0.56958151508973109 0
0.98843555512593484 0.35136650676383724 0.66755546206361327 0
1.0443530663728811 0.36349629031151193 0.56958151508973109 0
0.98804049063260113 -0.15516458350793239 0.73407033126630339 0
1.0462316493994517 -0.066205927176131274 0.64298635066910748 0
0.39818948632122358 0.22175276696821847 0.5393540876824231 0
0.28216744653996495 0.46319114252235405 0.54388617040157416 0
0.32804609297236992 0.15611024104858323 0.61430915602591107 0
0.20666825131081212 0.36415344203237404 0.59065452362311954 0
0.62537815492429205 0.41230536381620486 0.91944353937414403 0
0.30018482752257686 0.14391280440957177 0.70569381750769156 0
0.30642925712902486 0.53530205580475942 0.66216113819480493 0
0.19865130919586532 0.3723137140005402 0.63109307632114209 0
-0.011564444874065161 0.35136650676383724 0.66755546206361327 0
-0.011959509367398868 -0.15516458350793239 0.73407033126630339 0
0.61218693002445446 0.10130020179438211 0.57595117627287229 0
0.53320480118951996 0.034553195234186387 0.59817378831292622 0
0.47161809395112408 -0.1248471229081376 0.55824822141437158 0
0.70558183226469384 0.14419110542230718 0.6960960137711949 0
0.53439750335415825 0.025417915923050916 0.63807709307473404 0
0.32804609297236992 1.1561102410485833 0.61430915602591107 0
0.30018482752257686 1.1439128044095717 0.70569381750769156 0
0.53320480118951996 1.0345531952341864 0.59817378831292622 0
0.53439750335415825 1.025417915923051 0.63807709307473404 0
0.70558183226469384 1.1441911054223071 0.6960960137711949 0
0.61218693002445446 1.101300201794382 0.57595117627287229 0
0.63674522299794789 0.46791160313259988 0.70765120836670403 0
0.48943250241696762 0.58645283059904807 0.65069703037327753 0
0.73969220605975694 0.56752207985918834 0.86754248737814754 0
0.50460034859614755 0.61357119496558876 0.70661676559963804 0
0.74289577839915233 0.32884862522405134 0.65472059875917321 0
0.81784808522935115 0.36562061587945899 0.71634301056184091 0
0.23037606448768241 0.73988670246948718 0.81162471780702439 0
0.49790630401450781 0.74899133975431187 1 0
0.24790630401450781 0.99899133975431187 1 0
0.18188487954343913 0.55913327756833475 0.93688020620249735 0
0.24790630401450781 0.49899133975431187 1 0
-0.0020936959854921389 0.74899133975431187 1 0
-0.02025404744230197 0.76357690060841632 0.89016291146808646 0
0.46434208846933384 0.5962354612718358 0.92292217804457588 0
0.2779937160882488 0.47763136754238206 0.93440289966842616 0
0.35547598033498184 0.61600091597020612 0.78778543684729485 0
0.23608084143609465 0.51832169196855482 0.87245943789894076 0
0.49549266367215572 0.28763149286294398 0.93226856003646574 0
0.49790630401450781 0.24899133975431181 1 0
0.74790630401450786 0.49899133975431187 1 0
0.83625646693464384 0.6302818682590976 0.89855999099710471 0
1.0193195112176165 0.45798625172739077 0.88030350698625814 0
0.94291676003585678 0.49253832385324858 0.824426215197262 0
0.97974595255769803 0.76357690060841632 0.89016291146808646 0
1.1818848795434391 0.55913327756833475 0.93688020620249735 0
1.2303760644876824 0.73988670246948718 0.81162471780702439 0
0.87773740844460457 0.36343246495280029 0.74472839772988408 0
1.0181657096665915 0.35582829349089479 0.71957513027055842 0
0.17845958391526617 0.35521102620051814 0.68039780986193277 0
0.018165709666591479 0.35582829349089479 0.71957513027055842 0
0.15040865573262716 0.3563846139723883 0.78172200154586291 0
0.09007900435281721 0.34941712072040126 0.79651091715744005 0
-0.12226259155539543 0.36343246495280029 0.74472839772988408 0
-0.0040090938673795762 0.36051840505981897 0.80112245714597907 0
0.019319511217616547 0.45798625172739077 0.88030350698625814 0
-0.057083239964143218 0.49253832385324858 0.824426215197262 0
-0.16374353306535616 0.6302818682590976 0.89855999099710471 0
0.0024313666254957688 0.4188768301809277 0.91992949274929992 0
-0.15314601201312861 0.62836834959613275 0.93152538378184002 0
-0.0026745279804185618 0.32067138262410178 0.85010318818212449 0
0.16298567537985809 0.28853875502509602 0.88477081101941002 0
0.19860185739420699 0.29292779180686895 0.83273775305931175 0
0.99790630401450786 0.74899133975431187 1 0
1.2479063040145078 0.49899133975431187 1 0
0.99790630401450786 0.24899133975431181 1 0
0.84685398798687139 0.62836834959613275 0.93152538378184002 0
1.0024313666254958 0.4188768301809277 0.91992949274929992 0
0.75701127211141883 0.25737888994721275 0.91600191849457813 0
0.34274395946560543 0.15236091830293183 0.80124856212557594 0
0.33612076555546094 0.13852820059298132 0.87043981665853187 0
0.78340111431275616 0.17766368330155746 0.79133523972994901 0
0.99732547201958144 0.32067138262410178 0.85010318818212449 0
0.91292032470216411 0.053006167719331976 0.83106426300493041 0
1.1629856753798582 0.28853875502509602 0.88477081101941002 0
0.24790630401450781 -0.0010086602456881311 1 0
-0.08707967529783589 0.053006167719331976 0.83106426300493041 0
-0.0020936959854921389 0.24899133975431181 1 0
0.23196702469463729 0.23666159300915945 0.71754124396790742 0
0.99599090613262042 0.36051840505981897 0.80112245714597907 0
1.0900790043528172 0.34941712072040126 0.79651091715744005 0
0.99790630401450786 1.2489913397543118 1 0
0.91292032470216411 1.0530061677193321 0.83106426300493041 0
1.2479063040145078 0.99899133975431187 1 0
0.74790630401450786 0.99899133975431187 1 0
0.77008035222630666 0.97428788197944838 0.94439537521278771 0
0.66328529128111091 0.097434589289275869 0.92404607904072322 0
0.74790630401450786 -0.0010086602456881311 1 0
0.70436306138306426 0.061461219936929011 0.86422694206881523 0
0.77008035222630666 -0.025712118020551622 0.94439537521278771 0
0.67279889743725851 0.81680972811411157 0.89126607264794877 0
0.68518471513535784 0.74787760640624312 0.83575136902403568 0
0.51649615236832169 0.67730395930931242 0.7438034990921687 0
0.51615779005948181 0.81145505443428034 0.71343517223820652 0
0.78340111431275616 1.1776636833015575 0.79133523972994901 0
0.52308427913280553 1.0014785943504847 0.69575654630875494 0
0.54332752834273546 0.97496246984579171 0.79496844470669792 0
0.70436306138306426 1.0614612199369291 0.86422694206881523 0
0.5199185886336517 0.89503429271606239 0.80385429210825254 0
0.53487690488514128 0.78929930427057238 0.80787957896572615 0
0.64312906017906435 0.804343443489138 0.92444819539814516 0
0.52417518515598627 0.80606741096991352 0.84862022413134219 0
0.47850948088358114 0.96419959338923045 0.87023216142940318 0
0.47950174867481932 1.0068331494901397 0.826429122914633 0
0.66328529128111091 1.0974345892892758 0.92404607904072322 0
0.47950174867481932 0.0068331494901396894 0.826429122914633 0
0.47850948088358114 -0.035800406610769553 0.87023216142940318 0
0.33612076555546094 1.1385282005929813 0.87043981665853187 0
0.49790630401450781 1.2489913397543118 1 0
0.42810476110730394 0.045795091171683101 0.72383584292173742 0
0.23037606448768241 -0.26011329753051282 0.81162471780702439 0
0.42810476110730394 1.0457950911716831 0.72383584292173742 0
0.52308427913280553 0.0014785943504846966 0.69575654630875494 0
0.54332752834273546 -0.025037530154208287 0.79496844470669792 0
Hexahedra
110
1 2 3 4 5 6 7 8 0
9 10 6 2 11 12 5 1 0
13 10 6 14 15 9 2 16 0
17 18 19 20 13 21 22 15 0
23 24 25 26 4 1 27 28 0
29 11 1 4 30 31 27 28 0
31 32 12 11 27 33 5 1 0
27 33 5 1 25 34 35 24 0
8 5 6 7 36 35 37 38 0
34 39 40 33 35 37 6 5 0
33 40 41 32 5 6 10 12 0
7 6 42 43 38 37 44 45 0
17 41 40 46 13 10 6 14 0
47 39 37 44 48 40 6 42 0
14 46 49 50 6 40 48 42 0
20 51 48 49 17 41 40 46 0
26 25 47 52 28 27 48 49 0
30 31 27 28 20 51 48 49 0
27 33 40 48 31 32 41 51 0
25 34 39 47 27 33 40 48 0
17 18 53 46 20 19 54 49 0
25 34 35 24 47 39 37 44 0
23 24 44 45 26 25 47 52 0
20 51 9 15 30 31 11 29 0
51 41 10 9 31 32 12 11 0
17 41 10 13 20 51 9 15 0
49 20 55 56 28 30 57 58 0
15 20 30 29 59 55 57 60 0
61 56 55 59 62 58 57 60 0
4 28 58 62 29 30 57 60 0
49 20 63 64 56 55 65 66 0
15 20 55 59 67 63 65 68 0
69 64 63 67 70 66 65 68 0
61 56 66 70 59 55 65 68 0
49 52 26 28 56 71 72 58 0
49 73 74 64 20 75 76 63 0
15 77 75 20 67 78 76 63 0
61 56 58 62 79 71 72 80 0
49 52 71 56 81 82 83 84 0
49 73 85 86 64 74 87 88 0
61 56 71 79 89 84 83 90 0
91 81 84 89 92 82 83 90 0
49 93 94 64 86 95 96 88 0
97 93 95 98 99 94 96 100 0
69 64 94 99 101 88 96 100 0
102 86 88 101 98 95 96 100 0
49 93 95 86 81 103 104 105 0
97 93 103 106 98 95 104 107 0
69 67 108 109 70 68 110 111 0
61 59 68 70 112 113 110 111 0
49 93 114 56 64 94 115 66 0
97 93 94 99 116 114 115 117 0
61 56 114 116 70 66 115 117 0
69 64 66 70 99 94 115 117 0
49 93 103 81 56 114 118 84 0
97 93 114 116 106 103 118 119 0
91 81 103 106 89 84 118 119 0
61 56 84 89 116 114 118 119 0
120 121 122 69 123 124 125 126 0
127 128 124 121 129 130 123 120 0
131 128 124 132 97 127 121 133 0
134 135 136 116 137 138 139 61 0
116 136 140 119 61 139 141 89 0
99 129 120 69 100 142 143 101 0
142 144 130 129 143 145 123 120 0
143 145 123 120 146 147 148 149 0
126 123 124 125 150 148 151 152 0
147 153 154 145 148 151 124 123 0
145 154 155 144 123 124 128 130 0
156 157 158 133 159 160 161 97 0
162 155 154 163 131 128 124 132 0
164 165 160 161 166 167 157 158 0
132 163 102 168 124 154 169 170 0
98 171 169 102 162 155 154 163 0
119 140 164 106 89 141 166 91 0
100 142 143 101 98 171 169 102 0
143 145 154 169 142 144 155 171 0
140 172 165 164 141 173 167 166 0
134 135 160 159 116 136 161 97 0
140 172 135 136 164 165 160 161 0
116 136 161 97 119 140 164 106 0
98 171 127 97 100 142 129 99 0
171 155 128 127 142 144 130 129 0
162 155 128 131 98 171 127 97 0
174 175 61 176 177 178 137 156 0
179 161 158 180 181 164 166 182 0
179 131 132 180 161 97 133 158 0
183 134 116 184 178 137 61 175 0
184 116 117 185 175 61 70 186 0
187 112 61 175 188 111 70 186 0
189 188 187 190 191 186 175 178 0
191 186 175 178 192 185 184 183 0
178 137 156 177 183 134 159 193 0
194 192 191 195 193 183 178 177 0
195 191 189 196 177 178 190 197 0
177 156 133 121 193 159 97 127 0
198 162 163 199 179 131 132 180 0
194 129 127 193 195 120 121 177 0
200 201 122 69 195 177 121 120 0
202 98 102 203 198 162 163 199 0
185 117 99 129 186 70 69 120 0
188 111 70 186 204 109 69 120 0
191 186 120 195 189 188 204 196 0
192 185 129 194 191 186 120 195 0
183 134 159 193 184 116 97 127 0
192 185 184 183 194 129 127 193 0
184 116 97 127 185 117 99 129 0
202 98 97 161 205 107 106 164 0
198 202 161 179 206 205 164 181 0
198 162 131 179 202 98 97 161 0
Quadrilaterals
12
2 3 7 6 0
6 14 16 2 0
7 43 42 6 0
50 14 6 42 0
121 122 125 124 0
124 132 133 121 0
156 133 158 157 0
168 132 124 170 0
176 174 177 156 0
132 180 158 133 0
177 121 133 156 0
201 122 121 177 0
End
