MeshVersionFormatted 2
Dimension 3
Vertices
85
0 0 0 0
0.5 0 0 0
0.5 0.5 0 0
0 0.5 0 0
0.11367083582777263 -0.025897923626751584 0.52436919139028682 0
0.19347837737809895 0.044673359462624115 0.62205962396507486 0
0.54789619076996132 0.52853482055998446 0.30525537818306975 0
0.039623142708870115 0.25215614347604098 0.27293478994235831 0
1 0 0 0
1 0.5 0 0
0.29966081316413146 -0.2355734585771122 0.62420229066723754 0
1.1136708358277727 -0.025897923626751584 0.52436919139028682 0
1.03962314270887 0.25215614347604098 0.27293478994235831 0
0.90338293309369189 0.26815587887761705 0.25803943169352833 0
0.90239444837925298 0.28181595044959806 0.34631228597898095 0
0.2253311456090224 -0.25178946477209352 0.68355742104917061 0
0 1 0 0
0.5 1 0 0
0.19347837737809895 1.0446733594626241 0.62205962396507486 0
0.11367083582777263 0.97410207637324842 0.52436919139028682 0
0.067812344322721874 0.17148521617374846 0.44909240287195917 0
0.29966081316413146 0.7644265414228878 0.62420229066723754 0
0.2253311456090224 0.74821053522790648 0.68355742104917061 0
0.093857797493702697 0.095488736243893466 0.56122103184367023 0
1.0938577974937027 0.095488736243893466 0.56122103184367023 0
1.0678123443227219 0.17148521617374846 0.44909240287195917 0
0.75 0 1 0
0.5 -0.25 1 0
0.25 0 1 0
0.5 0.25 1 0
0.92637993874142222 0.11387722106461459 0.90696188306864101 0
0.93216816822566972 -0.30203876634314641 0.84958536884885416 0
1.1770211831032262 0.12426293689179803 0.73205089123223299 0
0.9369923743992149 0.4523243157941691 0.80983113409510354 0
0 0.25 1 0
0.25 0.5 1 0
0.31677376928729994 0.26645700668231814 0.8707927397519204 0
0.80972254478211836 0.57074111686058659 0.82545798109362467 0
0 -0.25 1 0
-0.25 0 1 0
0.68049507033728196 -0.37823827909390662 0.82659387607675261 0
-0.073620061258577785 0.11387722106461459 0.90696188306864101 0
1 0.25 1 0
0.75 0.5 1 0
1.3167737692873001 0.26645700668231814 0.8707927397519204 0
0.9436378197261398 0.58034974509321358 0.86034649966978449 0
0.5 0.75 1 0
0.93216816822566972 0.69796123365685359 0.84958536884885416 0
0 0.75 1 0
0.25 1 1 0
0.68049507033728196 0.62176172090609338 0.82659387607675261 0
1.1770211831032262 1.124262936891798 0.73205089123223299 0
-0.25 0.5 1 0
-0.056362180273860196 0.58034974509321358 0.86034649966978449 0
1 0.75 1 0
0.75 1 1 0
1.6804950703372818 0.62176172090609338 0.82659387607675261 0
0.92637993874142222 1.1138772210646146 0.90696188306864101 0
-0.073620061258577785 1.1138772210646146 0.90696188306864101 0
-0.067831831774330276 0.69796123365685359 0.84958536884885416 0
0.17702118310322623 1.124262936891798 0.73205089123223299 0
-0.0630076256007851 1.452324315794169 0.80983113409510354 0
0.27901313092191415 0.69411449299841355 0.80015761252098194 0
0.46975188828509412 0.72078211498562361 0.79883466496324851 0
1.0730224606169523 -0.069387909031159878 0.68860661204421791 0
0.46975188828509412 -0.27921788501437639 0.79883466496324851 0
-0.0630076256007851 0.4523243157941691 0.80983113409510354 0
0.9522019989897289 0.39681756688298231 0.74646834274465712 0
1.0786103013778376 0.17360973975939537 0.64898925978362787 0
1.0352394761622754 0.2874956007631157 0.67112850750043906 0
0.27901313092191415 -0.30588550700158645 0.80015761252098194 0
0.17702118310322623 0.12426293689179803 0.73205089123223299 0
0.073022460616952278 -0.069387909031159878 0.68860661204421791 0
-0.047798001010271096 0.39681756688298231 0.74646834274465712 0
0.078610301377837644 0.17360973975939537 0.64898925978362787 0
0.035239476162275407 0.2874956007631157 0.67112850750043906 0
0.96719739096158786 0.81748489215946307 0.69954602172148606 0
0.75609383690147558 0.65335192856686408 0.69788806419555793 0
1.0730224606169523 0.93061209096884012 0.68860661204421791 0
-0.032802609038412145 0.81748489215946307 0.69954602172148606 0
0.073022460616952278 0.93061209096884012 0.68860661204421791 0
1 1 0 0
1.1136708358277727 0.97410207637324842 0.52436919139028682 0
1.0938577974937027 1.0954887362438934 0.56122103184367023 0
1.0786103013778376 1.1736097397593954 0.64898925978362787 0
Hexahedra
38
1 2 3 4 5 6 7 8 0
2 9 10 3 11 12 13 14 0
2 3 7 6 11 14 15 16 0
17 18 19 20 21 22 23 24 0
4 3 18 17 8 7 22 21 0
8 7 22 21 5 6 23 24 0
11 12 13 14 16 25 26 15 0
7 6 16 15 22 23 25 26 0
27 28 29 30 31 32 33 34 0
30 29 35 36 34 33 37 38 0
29 39 40 35 33 41 42 37 0
43 27 30 44 45 31 34 46 0
44 30 36 47 46 34 38 48 0
47 36 49 50 48 38 51 52 0
36 35 53 49 38 37 54 51 0
55 44 47 56 57 46 48 58 0
59 60 61 62 51 54 63 64 0
33 41 42 37 65 66 67 54 0
34 33 37 38 68 65 54 51 0
51 54 63 64 68 65 69 70 0
65 66 67 54 69 71 72 63 0
67 72 73 74 54 63 75 76 0
48 38 51 52 77 78 64 79 0
60 61 63 54 80 81 75 76 0
3 10 82 18 38 48 77 78 0
18 82 83 22 78 77 79 64 0
10 3 14 13 48 38 34 46 0
3 7 15 14 38 51 68 34 0
19 20 24 23 61 81 75 63 0
20 17 21 24 81 80 76 75 0
3 18 22 7 38 78 64 51 0
82 10 13 26 77 48 46 70 0
5 6 23 24 73 72 63 75 0
22 83 84 23 64 79 85 63 0
13 14 15 26 46 34 68 70 0
22 23 25 26 64 63 69 70 0
6 16 25 23 72 71 69 63 0
15 7 22 26 68 51 64 70 0
Quadrilaterals
12
1 4 3 2 0
2 3 10 9 0
4 17 18 3 0
27 30 29 28 0
30 36 35 29 0
29 35 40 39 0
43 44 30 27 0
44 47 36 30 0
47 50 49 36 0
36 49 53 35 0
55 56 47 44 0
3 18 82 10 0
End
