MeshVersionFormatted 2
Dimension 3
Vertices
241
0 0 0 0
0.5 0 0 0
0.5 0.5 0 0
0 0.5 0 0
0.11367083582777263 -0.025897923626751584 0.52436919139028682 0
0.19347837737809895 0.044673359462624115 0.62205962396507486 0
0.54789619076996132 0.52853482055998446 0.30525537818306975 0
0.039623142708870115 0.25215614347604098 0.27293478994235831 0
1 0 0 0
1 0.5 0 0
0.29966081316413146 -0.2355734585771122 0.62420229066723754 0
1.1136708358277727 -0.025897923626751584 0.52436919139028682 0
1.03962314270887 0.25215614347604098 0.27293478994235831 0
0.90338293309369189 0.26815587887761705 0.25803943169352833 0
0.90239444837925298 0.28181595044959806 0.34631228597898095 0
0.2253311456090224 -0.25178946477209352 0.68355742104917061 0
0 1 0 0
0.5 1 0 0
0.19347837737809895 1.0446733594626241 0.62205962396507486 0
0.11367083582777263 0.97410207637324842 0.52436919139028682 0
0.067812344322721874 0.17148521617374846 0.44909240287195917 0
0.29966081316413146 0.7644265414228878 0.62420229066723754 0
0.2253311456090224 0.74821053522790648 0.68355742104917061 0
0.093857797493702697 0.095488736243893466 0.56122103184367023 0
1.0938577974937027 0.095488736243893466 0.56122103184367023 0
1.0678123443227219 0.17148521617374846 0.44909240287195917 0
0.75 0 1 0
0.5 -0.25 1 0
0.25 0 1 0
0.5 0.25 1 0
0.92637993874142222 0.11387722106461459 0.90696188306864101 0
0.93216816822566972 -0.30203876634314641 0.84958536884885416 0
1.1770211831032262 0.12426293689179803 0.73205089123223299 0
0.9369923743992149 0.4523243157941691 0.80983113409510354 0
0 0.25 1 0
0.25 0.5 1 0
0.31677376928729994 0.26645700668231814 0.8707927397519204 0
0.80972254478211836 0.57074111686058659 0.82545798109362467 0
0 -0.25 1 0
-0.25 0 1 0
0.68049507033728196 -0.37823827909390662 0.82659387607675261 0
-0.073620061258577785 0.11387722106461459 0.90696188306864101 0
1 0.25 1 0
0.75 0.5 1 0
1.3167737692873001 0.26645700668231814 0.8707927397519204 0
0.9436378197261398 0.58034974509321358 0.86034649966978449 0
0.5 0.75 1 0
0.93216816822566972 0.69796123365685359 0.84958536884885416 0
0 0.75 1 0
0.25 1 1 0
0.68049507033728196 0.62176172090609338 0.82659387607675261 0
1.1770211831032262 1.124262936891798 0.73205089123223299 0
-0.25 0.5 1 0
-0.056362180273860196 0.58034974509321358 0.86034649966978449 0
1 0.75 1 0
0.75 1 1 0
1.6804950703372818 0.62176172090609338 0.82659387607675261 0
0.92637993874142222 1.1138772210646146 0.90696188306864101 0
-0.073620061258577785 1.1138772210646146 0.90696188306864101 0
-0.067831831774330276 0.69796123365685359 0.84958536884885416 0
0.17702118310322623 1.124262936891798 0.73205089123223299 0
-0.0630076256007851 1.452324315794169 0.80983113409510354 0
0.27901313092191415 0.69411449299841355 0.80015761252098194 0
0.46975188828509412 0.72078211498562361 0.79883466496324851 0
1.0730224606169523 -0.069387909031159878 0.68860661204421791 0
0.46975188828509412 -0.27921788501437639 0.79883466496324851 0
-0.0630076256007851 0.4523243157941691 0.80983113409510354 0
0.9522019989897289 0.39681756688298231 0.74646834274465712 0
1.0786103013778376 0.17360973975939537 0.64898925978362787 0
1.0352394761622754 0.2874956007631157 0.67112850750043906 0
0.27901313092191415 -0.30588550700158645 0.80015761252098194 0
0.17702118310322623 0.12426293689179803 0.73205089123223299 0
0.073022460616952278 -0.069387909031159878 0.68860661204421791 0
-0.047798001010271096 0.39681756688298231 0.74646834274465712 0
0.078610301377837644 0.17360973975939537 0.64898925978362787 0
0.035239476162275407 0.2874956007631157 0.67112850750043906 0
0.96719739096158786 0.81748489215946307 0.69954602172148606 0
0.75609383690147558 0.65335192856686408 0.69788806419555793 0
1.0730224606169523 0.93061209096884012 0.68860661204421791 0
-0.032802609038412145 0.81748489215946307 0.69954602172148606 0
0.073022460616952278 0.93061209096884012 0.68860661204421791 0
1 1 0 0
1.1136708358277727 0.97410207637324842 0.52436919139028682 0
1.0938577974937027 1.0954887362438934 0.56122103184367023 0
1.0786103013778376 1.1736097397593954 0.64898925978362787 0
0.5 1.5 0 0
0 1.5 0 0
0.54789619076996132 1.5285348205599845 0.30525537818306975 0
0.039623142708870115 1.2521561434760411 0.27293478994235831 0
1 1.5 0 0
1.03962314270887 1.2521561434760411 0.27293478994235831 0
0.90338293309369189 1.268155878877617 0.25803943169352833 0
0.90239444837925298 1.2818159504495981 0.34631228597898095 0
0 2 0 0
0.5 2 0 0
0.19347837737809895 2.0446733594626241 0.62205962396507486 0
0.11367083582777263 1.9741020763732484 0.52436919139028682 0
0.067812344322721874 1.1714852161737483 0.44909240287195917 0
0.29966081316413146 1.7644265414228877 0.62420229066723754 0
0.2253311456090224 1.7482105352279065 0.68355742104917061 0
0.093857797493702697 1.0954887362438934 0.56122103184367023 0
1.0678123443227219 1.1714852161737483 0.44909240287195917 0
0.5 1.25 1 0
0.9369923743992149 1.452324315794169 0.80983113409510354 0
0 1.25 1 0
0.25 1.5 1 0
0.31677376928729994 1.2664570066823182 0.8707927397519204 0
0.80972254478211836 1.5707411168605865 0.82545798109362467 0
-0.25 1 1 0
1 1.25 1 0
0.75 1.5 1 0
1.3167737692873001 1.2664570066823182 0.8707927397519204 0
0.9436378197261398 1.5803497450932136 0.86034649966978449 0
0.5 1.75 1 0
0.93216816822566972 1.6979612336568537 0.84958536884885416 0
0 1.75 1 0
0.25 2 1 0
0.68049507033728196 1.6217617209060933 0.82659387607675261 0
1.1770211831032262 2.1242629368917982 0.73205089123223299 0
-0.25 1.5 1 0
-0.056362180273860196 1.5803497450932136 0.86034649966978449 0
1 1.75 1 0
0.75 2 1 0
1.6804950703372818 1.6217617209060933 0.82659387607675261 0
0.92637993874142222 2.1138772210646146 0.90696188306864101 0
-0.073620061258577785 2.1138772210646146 0.90696188306864101 0
-0.067831831774330276 1.6979612336568537 0.84958536884885416 0
0.17702118310322623 2.1242629368917982 0.73205089123223299 0
-0.0630076256007851 2.452324315794169 0.80983113409510354 0
0.27901313092191415 1.6941144929984135 0.80015761252098194 0
0.46975188828509412 1.7207821149856235 0.79883466496324851 0
0.9522019989897289 1.3968175668829823 0.74646834274465712 0
1.0352394761622754 1.2874956007631158 0.67112850750043906 0
-0.047798001010271096 1.3968175668829823 0.74646834274465712 0
0.078610301377837644 1.1736097397593954 0.64898925978362787 0
0.035239476162275407 1.2874956007631158 0.67112850750043906 0
0.96719739096158786 1.8174848921594631 0.69954602172148606 0
0.75609383690147558 1.6533519285668641 0.69788806419555793 0
1.0730224606169523 1.93061209096884 0.68860661204421791 0
-0.032802609038412145 1.8174848921594631 0.69954602172148606 0
0.073022460616952278 1.93061209096884 0.68860661204421791 0
1 2 0 0
1.1136708358277727 1.9741020763732484 0.52436919139028682 0
1.0938577974937027 2.0954887362438934 0.56122103184367023 0
1.0786103013778376 2.1736097397593954 0.64898925978362787 0
1.5 0 0 0
1.5 0.5 0 0
1.193478377378099 0.044673359462624115 0.62205962396507486 0
1.5478961907699613 0.52853482055998446 0.30525537818306975 0
2 0 0 0
2 0.5 0 0
1.2996608131641314 -0.2355734585771122 0.62420229066723754 0
2.1136708358277727 -0.025897923626751584 0.52436919139028682 0
2.0396231427088702 0.25215614347604098 0.27293478994235831 0
1.9033829330936918 0.26815587887761705 0.25803943169352833 0
1.902394448379253 0.28181595044959806 0.34631228597898095 0
1.2253311456090223 -0.25178946477209352 0.68355742104917061 0
1.5 1 0 0
1.193478377378099 1.0446733594626241 0.62205962396507486 0
1.2996608131641314 0.7644265414228878 0.62420229066723754 0
1.2253311456090223 0.74821053522790648 0.68355742104917061 0
2.0938577974937025 0.095488736243893466 0.56122103184367023 0
2.0678123443227219 0.17148521617374846 0.44909240287195917 0
1.75 0 1 0
1.5 -0.25 1 0
1.25 0 1 0
1.5 0.25 1 0
1.9263799387414222 0.11387722106461459 0.90696188306864101 0
1.9321681682256697 -0.30203876634314641 0.84958536884885416 0
2.1770211831032262 0.12426293689179803 0.73205089123223299 0
1.9369923743992148 0.4523243157941691 0.80983113409510354 0
1.25 0.5 1 0
1.8097225447821184 0.57074111686058659 0.82545798109362467 0
1 -0.25 1 0
1.6804950703372818 -0.37823827909390662 0.82659387607675261 0
2 0.25 1 0
1.75 0.5 1 0
2.3167737692873001 0.26645700668231814 0.8707927397519204 0
1.9436378197261397 0.58034974509321358 0.86034649966978449 0
1.5 0.75 1 0
1.9321681682256697 0.69796123365685359 0.84958536884885416 0
1.25 1 1 0
2.1770211831032262 1.124262936891798 0.73205089123223299 0
2 0.75 1 0
1.75 1 1 0
2.6804950703372818 0.62176172090609338 0.82659387607675261 0
1.9263799387414222 1.1138772210646146 0.90696188306864101 0
1.2790131309219142 0.69411449299841355 0.80015761252098194 0
1.4697518882850942 0.72078211498562361 0.79883466496324851 0
2.0730224606169525 -0.069387909031159878 0.68860661204421791 0
1.4697518882850942 -0.27921788501437639 0.79883466496324851 0
1.9522019989897288 0.39681756688298231 0.74646834274465712 0
2.0786103013778376 0.17360973975939537 0.64898925978362787 0
2.0352394761622756 0.2874956007631157 0.67112850750043906 0
1.2790131309219142 -0.30588550700158645 0.80015761252098194 0
1.9671973909615879 0.81748489215946307 0.69954602172148606 0
1.7560938369014756 0.65335192856686408 0.69788806419555793 0
2.0730224606169525 0.93061209096884012 0.68860661204421791 0
2 1 0 0
2.1136708358277727 0.97410207637324842 0.52436919139028682 0
2.0938577974937025 1.0954887362438934 0.56122103184367023 0
2.0786103013778376 1.1736097397593954 0.64898925978362787 0
1.5 1.5 0 0
1.5478961907699613 1.5285348205599845 0.30525537818306975 0
2 1.5 0 0
2.0396231427088702 1.2521561434760411 0.27293478994235831 0
1.9033829330936918 1.268155878877617 0.25803943169352833 0
1.902394448379253 1.2818159504495981 0.34631228597898095 0
1.5 2 0 0
1.193478377378099 2.0446733594626241 0.62205962396507486 0
1.2996608131641314 1.7644265414228877 0.62420229066723754 0
1.2253311456090223 1.7482105352279065 0.68355742104917061 0
2.0678123443227219 1.1714852161737483 0.44909240287195917 0
1.5 1.25 1 0
1.9369923743992148 1.452324315794169 0.80983113409510354 0
1.25 1.5 1 0
1.8097225447821184 1.5707411168605865 0.82545798109362467 0
2 1.25 1 0
1.75 1.5 1 0
2.3167737692873001 1.2664570066823182 0.8707927397519204 0
1.9436378197261397 1.5803497450932136 0.86034649966978449 0
1.5 1.75 1 0
1.9321681682256697 1.6979612336568537 0.84958536884885416 0
1.25 2 1 0
2.1770211831032262 2.1242629368917982 0.73205089123223299 0
2 1.75 1 0
1.75 2 1 0
2.6804950703372818 1.6217617209060933 0.82659387607675261 0
1.9263799387414222 2.1138772210646146 0.90696188306864101 0
0.9369923743992149 2.452324315794169 0.80983113409510354 0
1.2790131309219142 1.6941144929984135 0.80015761252098194 0
1.4697518882850942 1.7207821149856235 0.79883466496324851 0
1.9522019989897288 1.3968175668829823 0.74646834274465712 0
2.0352394761622756 1.2874956007631158 0.67112850750043906 0
1.9671973909615879 1.8174848921594631 0.69954602172148606 0
1.7560938369014756 1.6533519285668641 0.69788806419555793 0
2.0730224606169525 1.93061209096884 0.68860661204421791 0
2 2 0 0
2.1136708358277727 1.9741020763732484 0.52436919139028682 0
2.0938577974937025 2.0954887362438934 0.56122103184367023 0
2.0786103013778376 2.1736097397593954 0.64898925978362787 0
Hexahedra
152
1 2 3 4 5 6 7 8 0
2 9 10 3 11 12 13 14 0
2 3 7 6 11 14 15 16 0
17 18 19 20 21 22 23 24 0
4 3 18 17 8 7 22 21 0
8 7 22 21 5 6 23 24 0
11 12 13 14 16 25 26 15 0
7 6 16 15 22 23 25 26 0
27 28 29 30 31 32 33 34 0
30 29 35 36 34 33 37 38 0
29 39 40 35 33 41 42 37 0
43 27 30 44 45 31 34 46 0
44 30 36 47 46 34 38 48 0
47 36 49 50 48 38 51 52 0
36 35 53 49 38 37 54 51 0
55 44 47 56 57 46 48 58 0
59 60 61 62 51 54 63 64 0
33 41 42 37 65 66 67 54 0
34 33 37 38 68 65 54 51 0
51 54 63 64 68 65 69 70 0
65 66 67 54 69 71 72 63 0
67 72 73 74 54 63 75 76 0
48 38 51 52 77 78 64 79 0
60 61 63 54 80 81 75 76 0
3 10 82 18 38 48 77 78 0
18 82 83 22 78 77 79 64 0
10 3 14 13 48 38 34 46 0
3 7 15 14 38 51 68 34 0
19 20 24 23 61 81 75 63 0
20 17 21 24 81 80 76 75 0
3 18 22 7 38 78 64 51 0
82 10 13 26 77 48 46 70 0
5 6 23 24 73 72 63 75 0
22 83 84 23 64 79 85 63 0
13 14 15 26 46 34 68 70 0
22 23 25 26 64 63 69 70 0
6 16 25 23 72 71 69 63 0
15 7 22 26 68 51 64 70 0
17 18 86 87 20 19 88 89 0
18 82 90 86 22 83 91 92 0
18 86 88 19 22 92 93 23 0
94 95 96 97 98 99 100 101 0
87 86 95 94 89 88 99 98 0
89 88 99 98 20 19 100 101 0
22 83 91 92 23 84 102 93 0
88 19 23 93 99 100 84 102 0
56 47 50 103 58 48 52 104 0
103 50 105 106 104 52 107 108 0
50 49 109 105 52 51 59 107 0
110 56 103 111 112 58 104 113 0
111 103 106 114 113 104 108 115 0
114 106 116 117 115 108 118 119 0
106 105 120 116 108 107 121 118 0
122 111 114 123 124 113 115 125 0
126 127 128 129 118 121 130 131 0
52 51 59 107 79 64 62 121 0
104 52 107 108 132 79 121 118 0
118 121 130 131 132 79 85 133 0
79 64 62 121 85 63 61 130 0
62 61 81 134 121 130 135 136 0
115 108 118 119 137 138 131 139 0
127 128 130 121 140 141 135 136 0
86 90 142 95 108 115 137 138 0
95 142 143 99 138 137 139 131 0
90 86 92 91 115 108 104 113 0
86 88 93 92 108 118 132 104 0
96 97 101 100 128 141 135 130 0
97 94 98 101 141 140 136 135 0
86 95 99 88 108 138 131 118 0
142 90 91 102 137 115 113 133 0
20 19 100 101 81 61 130 135 0
99 143 144 100 131 139 145 130 0
91 92 93 102 113 104 132 133 0
99 100 84 102 131 130 85 133 0
19 23 84 100 61 63 85 130 0
93 88 99 102 132 118 131 133 0
9 146 147 10 12 148 149 13 0
146 150 151 147 152 153 154 155 0
146 147 149 148 152 155 156 157 0
82 158 159 83 26 160 161 25 0
10 147 158 82 13 149 160 26 0
13 149 160 26 12 148 161 25 0
152 153 154 155 157 162 163 156 0
149 148 157 156 160 161 162 163 0
164 165 166 167 168 169 170 171 0
167 166 43 172 171 170 45 173 0
166 174 27 43 170 175 31 45 0
176 164 167 177 178 168 171 179 0
177 167 172 180 179 171 173 181 0
180 172 55 182 181 173 57 183 0
172 43 44 55 173 45 46 57 0
184 177 180 185 186 179 181 187 0
58 48 52 104 57 46 188 189 0
170 175 31 45 190 191 34 46 0
171 170 45 173 192 190 46 57 0
57 46 188 189 192 190 193 194 0
190 191 34 46 193 195 33 188 0
34 33 65 68 46 188 69 70 0
181 173 57 183 196 197 189 198 0
48 52 188 46 77 79 69 70 0
147 151 199 158 173 181 196 197 0
158 199 200 160 197 196 198 189 0
151 147 155 154 181 173 171 179 0
147 149 156 155 173 57 192 171 0
159 83 25 161 52 79 69 188 0
83 82 26 25 79 77 70 69 0
147 158 160 149 173 197 189 57 0
199 151 154 163 196 181 179 194 0
12 148 161 25 65 33 188 69 0
160 200 201 161 189 198 202 188 0
154 155 156 163 179 171 192 194 0
160 161 162 163 189 188 193 194 0
148 157 162 161 33 195 193 188 0
156 149 160 163 192 57 189 194 0
82 158 203 90 83 159 204 91 0
158 199 205 203 160 200 206 207 0
158 203 204 159 160 207 208 161 0
142 209 210 143 102 211 212 84 0
90 203 209 142 91 204 211 102 0
91 204 211 102 83 159 212 84 0
160 200 206 207 161 201 213 208 0
204 159 161 208 211 212 201 213 0
185 180 182 214 187 181 183 215 0
214 182 110 216 215 183 112 217 0
182 55 56 110 183 57 58 112 0
218 185 214 219 220 187 215 221 0
219 214 216 222 221 215 217 223 0
222 216 122 224 223 217 124 225 0
216 110 111 122 217 112 113 124 0
226 219 222 227 228 221 223 229 0
125 115 119 230 124 113 231 232 0
183 57 58 112 198 189 104 113 0
215 183 112 217 233 198 113 124 0
124 113 231 232 233 198 202 234 0
198 189 104 113 202 188 52 231 0
104 52 79 132 113 231 85 133 0
223 217 124 225 235 236 232 237 0
115 119 231 113 137 139 85 133 0
203 205 238 209 217 223 235 236 0
209 238 239 211 236 235 237 232 0
205 203 207 206 223 217 215 221 0
203 204 208 207 217 124 233 215 0
210 143 84 212 119 139 85 231 0
143 142 102 84 139 137 133 85 0
203 209 211 204 217 236 232 124 0
238 205 206 213 235 223 221 234 0
83 159 212 84 79 52 231 85 0
211 239 240 212 232 237 241 231 0
206 207 208 213 221 215 233 234 0
211 212 201 213 232 231 202 234 0
159 161 201 212 52 188 202 231 0
208 204 211 213 233 124 232 234 0
Quadrilaterals
48
1 4 3 2 0
2 3 10 9 0
4 17 18 3 0
27 30 29 28 0
30 36 35 29 0
29 35 40 39 0
43 44 30 27 0
44 47 36 30 0
47 50 49 36 0
36 49 53 35 0
55 56 47 44 0
3 18 82 10 0
17 87 86 18 0
18 86 90 82 0
87 94 95 86 0
56 103 50 47 0
103 106 105 50 0
50 105 109 49 0
110 111 103 56 0
111 114 106 103 0
114 117 116 106 0
106 116 120 105 0
122 123 114 111 0
86 95 142 90 0
9 10 147 146 0
146 147 151 150 0
10 82 158 147 0
164 167 166 165 0
167 172 43 166 0
166 43 27 174 0
176 177 167 164 0
177 180 172 167 0
180 182 55 172 0
172 55 44 43 0
184 185 180 177 0
147 158 199 151 0
82 90 203 158 0
158 203 205 199 0
90 142 209 203 0
185 214 182 180 0
214 216 110 182 0
182 110 56 55 0
218 219 214 185 0
219 222 216 214 0
222 224 122 216 0
216 122 111 110 0
226 227 222 219 0
203 209 238 205 0
End
