MeshVersionFormatted 2
Dimension 3
Vertices
104
0.52393508428791946 1.0094602717825303 0.20427160147227946 0
0.5 1 0 0
1 1 0 0
0.78695675242432939 1.075600753885019 0.27878523752528583 0
0.52880678835281425 0.61950400395965699 0.093424002035420534 0
0.5 0.5 0 0
1 0.5 0 0
0.96201695324086189 0.60060310187676724 0.10825021216979562 0
0.22217612389459823 1.1449547557632158 0.20884840143792946 0
0.2612003300628748 0.69221301917734357 0.14189184331344953 0
0.32232672615488317 1.040624826714899 0.30287330297977244 0
0.37109279423932517 0.68955679822208371 0.1857016712176649 0
-0.037983046759138106 0.60060310187676724 0.10825021216979562 0
0 0.5 0 0
-0.21304324757567061 1.075600753885019 0.27878523752528583 0
0 1 0 0
0.94704433946418776 0.55654424234081923 0.20192262610045342 0
0.67267653428813523 0.548421392956433 0.20069476412851095 0
0.68066573024367238 0.5437175151629916 0.31109995163379794 0
0.85300753233724114 0.5571540463605188 0.33920642850023736 0
0.45257185900070412 0.39891951035472389 0.40739589537896675 0
0.55415454542092868 0.33050669636966695 0.45451768096882827 0
0.2883411954841944 0.50697698555833659 0.42130520023241813 0
0.21126093462327944 0.62279067264383559 0.57154011241324687 0
0.40586863813730656 1.0646022498612409 0.4723721176274045 0
0.087612366349183526 0.7933501052249361 0.55790407460367764 0
0.15302876755543171 0.74035282248838408 0.46592180572306352 0
0.28771703139848964 0.63387764486224596 0.27958462299764442 0
0.35788056306673915 0.52668757713885628 0.27193151495716944 0
0.46184423506201644 0.42908864585628059 0.30158249265648368 0
0.62943564990408396 0.45354942513249763 0.077963918046235911 0
0.96938421020058607 0.4618985808116664 0.084114890674507309 0
0.43826911030290028 0.32200130103956759 0.20964228107603347 0
0.39510440174272871 0.4287986230797794 0.096420363491369065 0
0.22345291465021336 0.67379569734737532 0.21732845720404076 0
0.5 0 0 0
1 0 0 0
0.52393508428791946 0.0094602717825302829 0.20427160147227946 0
0.78695675242432939 0.075600753885018968 0.27878523752528583 0
-0.052955660535812243 0.55654424234081923 0.20192262610045342 0
-0.030615789799413928 0.4618985808116664 0.084114890674507309 0
0.32232672615488317 0.040624826714898976 0.30287330297977244 0
0.22217612389459823 0.14495475576321581 0.20884840143792946 0
-0.21304324757567061 0.075600753885018968 0.27878523752528583 0
0 0 0 0
-0.14699246766275886 0.5571540463605188 0.33920642850023736 0
0.092059250347286195 0.74359527251139279 0.3430008861160625 0
0.40586863813730656 0.064602249861240857 0.4723721176274045 0
0.51516563748488242 0.38644231225705583 0.53555259344981176 0
0.78631595214407146 0.67059244703882503 0.51238394248267816 0
0.89087142835181754 0.9521817976434408 0.47243474464444968 0
0.34723003558057092 0.51235345156246648 0.62980107135873087 0
-0.10912857164818246 0.9521817976434408 0.47243474464444968 0
-0.21368404785592854 0.67059244703882503 0.51238394248267816 0
0.0092917756643769722 0.83222202298456427 0.63685487229614035 0
0.26333389495181952 1.0993618007037429 0.54660725300994029 0
0.26333389495181952 0.099361800703742897 0.54660725300994029 0
-0.10912857164818246 -0.047818202356559203 0.47243474464444968 0
0.75 0 1 0
0.5 -0.25 1 0
0.25 0 1 0
0.5 0.25 1 0
0.91117434394361374 -0.12329516454026868 0.90464821391831973 0
0.72740103487135055 -0.26169628025163327 0.85732239717030145 0
0.40632660862537517 0.11632354272736301 0.85567674008419914 0
0.5038636111174738 0.31435421456262125 0.92410234383791301 0
0 0.25 1 0
0.25 0.5 1 0
0.096022014363663366 0.11576398580232579 0.85551149715498442 0
0.43420948080904781 0.41261458739750334 0.90787622655806932 0
0.25 1 1 0
0 0.75 1 0
-0.25 1 1 0
0 1.25 1 0
0.40632660862537517 1.116323542727363 0.85567674008419914 0
0.036110205591063621 0.74117822287060497 0.92104198677746507 0
-0.08882565605638626 0.87670483545973132 0.90464821391831973 0
0.096022014363663366 1.1157639858023258 0.85551149715498442 0
1 0.25 1 0
0.75 0.5 1 0
1.0960220143636634 0.11576398580232579 0.85551149715498442 0
0.72565476742946722 0.50104829521367433 0.8982430463288541 0
0.5 0.75 1 0
0.72740103487135055 0.73830371974836673 0.85732239717030145 0
-0.25 0.5 1 0
-0.27434523257053278 0.50104829521367433 0.8982430463288541 0
1 0.75 1 0
0.75 1 1 0
1.0361102055910636 0.74117822287060497 0.92104198677746507 0
0.91117434394361374 0.87670483545973132 0.90464821391831973 0
0.84214222708313935 -0.0031995377733829988 0.68968671105566881 0
0.66568811756554069 0.14859102524600115 0.69672644016678997 0
0.84214222708313935 0.996800462226617 0.68968671105566881 0
0.32307655298692867 0.52120880384467072 0.7735197106476781 0
0.17928159817621842 0.64968692548439333 0.77756163754617968 0
0.66568811756554069 1.1485910252460012 0.69672644016678997 0
-0.15785777291686065 -0.0031995377733829988 0.68968671105566881 0
-0.33431188243445931 0.14859102524600115 0.69672644016678997 0
1.2112609346232794 0.62279067264383559 0.57154011241324687 0
1.0876123663491835 0.7933501052249361 0.55790407460367764 0
1.1792815981762184 0.64968692548439333 0.77756163754617968 0
1.0092917756643769 0.83222202298456427 0.63685487229614035 0
1.2633338949518196 1.0993618007037429 0.54660725300994029 0
1.0960220143636634 1.1157639858023258 0.85551149715498442 0
Hexahedra
52
1 2 3 4 5 6 7 8 0
9 10 6 2 11 12 5 1 0
13 10 6 14 15 9 2 16 0
17 18 19 20 8 5 1 4 0
20 19 21 22 4 1 23 24 0
25 11 1 4 26 27 23 24 0
27 28 12 11 23 29 5 1 0
23 29 5 1 21 30 18 19 0
8 5 6 7 17 18 31 32 0
30 33 34 29 18 31 6 5 0
29 34 35 28 5 6 10 12 0
7 6 36 37 32 31 38 39 0
40 35 34 41 13 10 6 14 0
42 33 31 38 43 34 6 36 0
14 41 44 45 6 34 43 36 0
46 47 43 44 40 35 34 41 0
22 21 42 48 24 23 43 44 0
26 27 23 24 46 47 43 44 0
23 29 34 43 27 28 35 47 0
21 30 33 42 23 29 34 43 0
17 18 31 32 20 19 38 39 0
21 30 18 19 42 33 31 38 0
20 19 38 39 22 21 42 48 0
46 47 9 15 26 27 11 25 0
47 35 10 9 27 28 12 11 0
40 35 10 13 46 47 9 15 0
22 20 4 24 49 50 51 52 0
15 46 26 25 53 54 55 56 0
48 22 24 44 57 49 52 58 0
59 60 61 62 63 64 65 66 0
62 61 67 68 66 65 69 70 0
71 72 73 74 75 76 77 78 0
79 59 62 80 81 63 66 82 0
80 62 68 83 82 66 70 84 0
83 68 72 71 84 70 76 75 0
68 67 85 72 70 69 86 76 0
87 80 83 88 89 82 84 90 0
63 64 65 66 81 91 92 82 0
84 70 76 75 93 94 95 96 0
70 69 86 76 94 97 98 95 0
4 25 26 24 96 75 76 95 0
99 100 20 39 101 89 82 92 0
39 20 22 48 92 82 66 65 0
49 50 51 52 70 84 93 94 0
22 20 50 49 66 82 84 70 0
4 24 52 51 96 95 94 93 0
51 50 102 103 93 84 90 104 0
20 100 102 50 82 89 90 84 0
26 25 56 55 76 75 78 77 0
57 49 52 58 69 70 94 97 0
48 22 49 57 65 66 70 69 0
24 44 58 52 95 98 97 94 0
Quadrilaterals
12
2 3 7 6 0
6 14 16 2 0
7 37 36 6 0
45 14 6 36 0
59 62 61 60 0
62 68 67 61 0
71 74 73 72 0
79 80 62 59 0
80 83 68 62 0
83 71 72 68 0
68 72 85 67 0
87 88 83 80 0
End
