MeshVersionFormatted 2
Dimension 3
Vertices
321
0.52393508428791946 1.0094602717825303 0.20427160147227946 0
0.5 1 0 0
1 1 0 0
0.78695675242432939 1.075600753885019 0.27878523752528583 0
0.52880678835281425 0.61950400395965699 0.093424002035420534 0
0.5 0.5 0 0
1 0.5 0 0
0.96201695324086189 0.60060310187676724 0.10825021216979562 0
0.22217612389459823 1.1449547557632158 0.20884840143792946 0
0.2612003300628748 0.69221301917734357 0.14189184331344953 0
0.32232672615488317 1.040624826714899 0.30287330297977244 0
0.37109279423932517 0.68955679822208371 0.1857016712176649 0
-0.037983046759138106 0.60060310187676724 0.10825021216979562 0
0 0.5 0 0
-0.21304324757567061 1.075600753885019 0.27878523752528583 0
0 1 0 0
0.94704433946418776 0.55654424234081923 0.20192262610045342 0
0.67267653428813523 0.548421392956433 0.20069476412851095 0
0.68066573024367238 0.5437175151629916 0.31109995163379794 0
0.85300753233724114 0.5571540463605188 0.33920642850023736 0
0.45257185900070412 0.39891951035472389 0.40739589537896675 0
0.55415454542092868 0.33050669636966695 0.45451768096882827 0
0.2883411954841944 0.50697698555833659 0.42130520023241813 0
0.21126093462327944 0.62279067264383559 0.57154011241324687 0
0.40586863813730656 1.0646022498612409 0.4723721176274045 0
0.087612366349183526 0.7933501052249361 0.55790407460367764 0
0.15302876755543171 0.74035282248838408 0.46592180572306352 0
0.28771703139848964 0.63387764486224596 0.27958462299764442 0
0.35788056306673915 0.52668757713885628 0.27193151495716944 0
0.46184423506201644 0.42908864585628059 0.30158249265648368 0
0.62943564990408396 0.45354942513249763 0.077963918046235911 0
0.96938421020058607 0.4618985808116664 0.084114890674507309 0
0.43826911030290028 0.32200130103956759 0.20964228107603347 0
0.39510440174272871 0.4287986230797794 0.096420363491369065 0
0.22345291465021336 0.67379569734737532 0.21732845720404076 0
0.5 0 0 0
1 0 0 0
0.52393508428791946 0.0094602717825302829 0.20427160147227946 0
0.78695675242432939 0.075600753885018968 0.27878523752528583 0
-0.052955660535812243 0.55654424234081923 0.20192262610045342 0
-0.030615789799413928 0.4618985808116664 0.084114890674507309 0
0.32232672615488317 0.040624826714898976 0.30287330297977244 0
0.22217612389459823 0.14495475576321581 0.20884840143792946 0
-0.21304324757567061 0.075600753885018968 0.27878523752528583 0
0 0 0 0
-0.14699246766275886 0.5571540463605188 0.33920642850023736 0
0.092059250347286195 0.74359527251139279 0.3430008861160625 0
0.40586863813730656 0.064602249861240857 0.4723721176274045 0
0.51516563748488242 0.38644231225705583 0.53555259344981176 0
0.78631595214407146 0.67059244703882503 0.51238394248267816 0
0.89087142835181754 0.9521817976434408 0.47243474464444968 0
0.34723003558057092 0.51235345156246648 0.62980107135873087 0
-0.10912857164818246 0.9521817976434408 0.47243474464444968 0
-0.21368404785592854 0.67059244703882503 0.51238394248267816 0
0.0092917756643769722 0.83222202298456427 0.63685487229614035 0
0.26333389495181952 1.0993618007037429 0.54660725300994029 0
0.26333389495181952 0.099361800703742897 0.54660725300994029 0
-0.10912857164818246 -0.047818202356559203 0.47243474464444968 0
0.75 0 1 0
0.5 -0.25 1 0
0.25 0 1 0
0.5 0.25 1 0
0.91117434394361374 -0.12329516454026868 0.90464821391831973 0
0.72740103487135055 -0.26169628025163327 0.85732239717030145 0
0.40632660862537517 0.11632354272736301 0.85567674008419914 0
0.5038636111174738 0.31435421456262125 0.92410234383791301 0
0 0.25 1 0
0.25 0.5 1 0
0.096022014363663366 0.11576398580232579 0.85551149715498442 0
0.43420948080904781 0.41261458739750334 0.90787622655806932 0
0.25 1 1 0
0 0.75 1 0
-0.25 1 1 0
0 1.25 1 0
0.40632660862537517 1.116323542727363 0.85567674008419914 0
0.036110205591063621 0.74117822287060497 0.92104198677746507 0
-0.08882565605638626 0.87670483545973132 0.90464821391831973 0
0.096022014363663366 1.1157639858023258 0.85551149715498442 0
1 0.25 1 0
0.75 0.5 1 0
1.0960220143636634 0.11576398580232579 0.85551149715498442 0
0.72565476742946722 0.50104829521367433 0.8982430463288541 0
0.5 0.75 1 0
0.72740103487135055 0.73830371974836673 0.85732239717030145 0
-0.25 0.5 1 0
-0.27434523257053278 0.50104829521367433 0.8982430463288541 0
1 0.75 1 0
0.75 1 1 0
1.0361102055910636 0.74117822287060497 0.92104198677746507 0
0.91117434394361374 0.87670483545973132 0.90464821391831973 0
0.84214222708313935 -0.0031995377733829988 0.68968671105566881 0
0.66568811756554069 0.14859102524600115 0.69672644016678997 0
0.84214222708313935 0.996800462226617 0.68968671105566881 0
0.32307655298692867 0.52120880384467072 0.7735197106476781 0
0.17928159817621842 0.64968692548439333 0.77756163754617968 0
0.66568811756554069 1.1485910252460012 0.69672644016678997 0
-0.15785777291686065 -0.0031995377733829988 0.68968671105566881 0
-0.33431188243445931 0.14859102524600115 0.69672644016678997 0
1.2112609346232794 0.62279067264383559 0.57154011241324687 0
1.0876123663491835 0.7933501052249361 0.55790407460367764 0
1.1792815981762184 0.64968692548439333 0.77756163754617968 0
1.0092917756643769 0.83222202298456427 0.63685487229614035 0
1.2633338949518196 1.0993618007037429 0.54660725300994029 0
1.0960220143636634 1.1157639858023258 0.85551149715498442 0
0.52393508428791946 2.0094602717825305 0.20427160147227946 0
0.5 2 0 0
1 2 0 0
0.78695675242432939 2.075600753885019 0.27878523752528583 0
0.52880678835281425 1.6195040039596571 0.093424002035420534 0
0.5 1.5 0 0
1 1.5 0 0
0.96201695324086189 1.6006031018767672 0.10825021216979562 0
0.22217612389459823 2.1449547557632158 0.20884840143792946 0
0.2612003300628748 1.6922130191773435 0.14189184331344953 0
0.32232672615488317 2.040624826714899 0.30287330297977244 0
0.37109279423932517 1.6895567982220836 0.1857016712176649 0
-0.037983046759138106 1.6006031018767672 0.10825021216979562 0
0 1.5 0 0
-0.21304324757567061 2.075600753885019 0.27878523752528583 0
0 2 0 0
0.94704433946418776 1.5565442423408191 0.20192262610045342 0
0.67267653428813523 1.548421392956433 0.20069476412851095 0
0.68066573024367238 1.5437175151629916 0.31109995163379794 0
0.85300753233724114 1.5571540463605187 0.33920642850023736 0
0.45257185900070412 1.3989195103547238 0.40739589537896675 0
0.55415454542092868 1.330506696369667 0.45451768096882827 0
0.2883411954841944 1.5069769855583366 0.42130520023241813 0
0.21126093462327944 1.6227906726438355 0.57154011241324687 0
0.40586863813730656 2.0646022498612409 0.4723721176274045 0
0.087612366349183526 1.7933501052249361 0.55790407460367764 0
0.15302876755543171 1.7403528224883842 0.46592180572306352 0
0.28771703139848964 1.6338776448622458 0.27958462299764442 0
0.35788056306673915 1.5266875771388562 0.27193151495716944 0
0.46184423506201644 1.4290886458562806 0.30158249265648368 0
0.62943564990408396 1.4535494251324976 0.077963918046235911 0
0.96938421020058607 1.4618985808116665 0.084114890674507309 0
0.43826911030290028 1.3220013010395677 0.20964228107603347 0
0.39510440174272871 1.4287986230797793 0.096420363491369065 0
0.22345291465021336 1.6737956973473753 0.21732845720404076 0
-0.052955660535812243 1.5565442423408191 0.20192262610045342 0
-0.030615789799413928 1.4618985808116665 0.084114890674507309 0
-0.14699246766275886 1.5571540463605187 0.33920642850023736 0
0.092059250347286195 1.7435952725113928 0.3430008861160625 0
0.51516563748488242 1.3864423122570559 0.53555259344981176 0
0.78631595214407146 1.6705924470388251 0.51238394248267816 0
0.89087142835181754 1.9521817976434408 0.47243474464444968 0
0.34723003558057092 1.5123534515624666 0.62980107135873087 0
-0.10912857164818246 1.9521817976434408 0.47243474464444968 0
-0.21368404785592854 1.6705924470388251 0.51238394248267816 0
0.0092917756643769722 1.8322220229845643 0.63685487229614035 0
0.26333389495181952 2.0993618007037429 0.54660725300994029 0
0.5 1.25 1 0
0.5038636111174738 1.3143542145626212 0.92410234383791301 0
0.25 1.5 1 0
0.43420948080904781 1.4126145873975033 0.90787622655806932 0
0.25 2 1 0
0 1.75 1 0
-0.25 2 1 0
0 2.25 1 0
0.40632660862537517 2.116323542727363 0.85567674008419914 0
0.036110205591063621 1.741178222870605 0.92104198677746507 0
-0.08882565605638626 1.8767048354597313 0.90464821391831973 0
0.096022014363663366 2.1157639858023258 0.85551149715498442 0
1 1.25 1 0
0.75 1.5 1 0
0.72565476742946722 1.5010482952136743 0.8982430463288541 0
0.5 1.75 1 0
0.72740103487135055 1.7383037197483668 0.85732239717030145 0
-0.25 1.5 1 0
-0.27434523257053278 1.5010482952136743 0.8982430463288541 0
1 1.75 1 0
0.75 2 1 0
1.0361102055910636 1.741178222870605 0.92104198677746507 0
0.91117434394361374 1.8767048354597313 0.90464821391831973 0
0.84214222708313935 1.9968004622266169 0.68968671105566881 0
0.32307655298692867 1.5212088038446707 0.7735197106476781 0
0.17928159817621842 1.6496869254843933 0.77756163754617968 0
0.66568811756554069 2.148591025246001 0.69672644016678997 0
-0.15785777291686065 0.996800462226617 0.68968671105566881 0
-0.33431188243445931 1.1485910252460012 0.69672644016678997 0
1.2112609346232794 1.6227906726438355 0.57154011241324687 0
1.0876123663491835 1.7933501052249361 0.55790407460367764 0
1.1792815981762184 1.6496869254843933 0.77756163754617968 0
1.0092917756643769 1.8322220229845643 0.63685487229614035 0
1.2633338949518196 2.0993618007037429 0.54660725300994029 0
1.0960220143636634 2.1157639858023258 0.85551149715498442 0
1.5239350842879196 1.0094602717825303 0.20427160147227946 0
1.5 1 0 0
2 1 0 0
1.7869567524243295 1.075600753885019 0.27878523752528583 0
1.5288067883528142 0.61950400395965699 0.093424002035420534 0
1.5 0.5 0 0
2 0.5 0 0
1.962016953240862 0.60060310187676724 0.10825021216979562 0
1.2221761238945983 1.1449547557632158 0.20884840143792946 0
1.2612003300628749 0.69221301917734357 0.14189184331344953 0
1.3223267261548832 1.040624826714899 0.30287330297977244 0
1.3710927942393252 0.68955679822208371 0.1857016712176649 0
1.9470443394641879 0.55654424234081923 0.20192262610045342 0
1.6726765342881351 0.548421392956433 0.20069476412851095 0
1.6806657302436725 0.5437175151629916 0.31109995163379794 0
1.8530075323372412 0.5571540463605188 0.33920642850023736 0
1.4525718590007042 0.39891951035472389 0.40739589537896675 0
1.5541545454209287 0.33050669636966695 0.45451768096882827 0
1.2883411954841943 0.50697698555833659 0.42130520023241813 0
1.4058686381373064 1.0646022498612409 0.4723721176274045 0
1.1530287675554316 0.74035282248838408 0.46592180572306352 0
1.2877170313984896 0.63387764486224596 0.27958462299764442 0
1.3578805630667392 0.52668757713885628 0.27193151495716944 0
1.4618442350620164 0.42908864585628059 0.30158249265648368 0
1.6294356499040838 0.45354942513249763 0.077963918046235911 0
1.9693842102005861 0.4618985808116664 0.084114890674507309 0
1.4382691103029002 0.32200130103956759 0.20964228107603347 0
1.3951044017427288 0.4287986230797794 0.096420363491369065 0
1.2234529146502133 0.67379569734737532 0.21732845720404076 0
1.5 0 0 0
2 0 0 0
1.5239350842879196 0.0094602717825302829 0.20427160147227946 0
1.7869567524243295 0.075600753885018968 0.27878523752528583 0
1.3223267261548832 0.040624826714898976 0.30287330297977244 0
1.2221761238945983 0.14495475576321581 0.20884840143792946 0
1.0920592503472861 0.74359527251139279 0.3430008861160625 0
1.4058686381373064 0.064602249861240857 0.4723721176274045 0
1.5151656374848823 0.38644231225705583 0.53555259344981176 0
1.7863159521440715 0.67059244703882503 0.51238394248267816 0
1.8908714283518175 0.9521817976434408 0.47243474464444968 0
1.3472300355805709 0.51235345156246648 0.62980107135873087 0
1.2633338949518196 0.099361800703742897 0.54660725300994029 0
0.89087142835181754 -0.047818202356559203 0.47243474464444968 0
1.75 0 1 0
1.5 -0.25 1 0
1.25 0 1 0
1.5 0.25 1 0
1.9111743439436137 -0.12329516454026868 0.90464821391831973 0
1.7274010348713507 -0.26169628025163327 0.85732239717030145 0
1.4063266086253752 0.11632354272736301 0.85567674008419914 0
1.5038636111174739 0.31435421456262125 0.92410234383791301 0
1.25 0.5 1 0
1.4342094808090478 0.41261458739750334 0.90787622655806932 0
1.25 1 1 0
1.4063266086253752 1.116323542727363 0.85567674008419914 0
2 0.25 1 0
1.75 0.5 1 0
2.0960220143636632 0.11576398580232579 0.85551149715498442 0
1.7256547674294671 0.50104829521367433 0.8982430463288541 0
1.5 0.75 1 0
1.7274010348713507 0.73830371974836673 0.85732239717030145 0
2 0.75 1 0
1.75 1 1 0
2.0361102055910636 0.74117822287060497 0.92104198677746507 0
1.9111743439436137 0.87670483545973132 0.90464821391831973 0
1.8421422270831393 -0.0031995377733829988 0.68968671105566881 0
1.6656881175655407 0.14859102524600115 0.69672644016678997 0
1.8421422270831393 0.996800462226617 0.68968671105566881 0
1.3230765529869286 0.52120880384467072 0.7735197106476781 0
1.6656881175655407 1.1485910252460012 0.69672644016678997 0
2.2112609346232794 0.62279067264383559 0.57154011241324687 0
2.0876123663491835 0.7933501052249361 0.55790407460367764 0
2.1792815981762184 0.64968692548439333 0.77756163754617968 0
2.0092917756643769 0.83222202298456427 0.63685487229614035 0
2.2633338949518196 1.0993618007037429 0.54660725300994029 0
2.0960220143636632 1.1157639858023258 0.85551149715498442 0
1.5239350842879196 2.0094602717825305 0.20427160147227946 0
1.5 2 0 0
2 2 0 0
1.7869567524243295 2.075600753885019 0.27878523752528583 0
1.5288067883528142 1.6195040039596571 0.093424002035420534 0
1.5 1.5 0 0
2 1.5 0 0
1.962016953240862 1.6006031018767672 0.10825021216979562 0
1.2221761238945983 2.1449547557632158 0.20884840143792946 0
1.2612003300628749 1.6922130191773435 0.14189184331344953 0
1.3223267261548832 2.040624826714899 0.30287330297977244 0
1.3710927942393252 1.6895567982220836 0.1857016712176649 0
1.9470443394641879 1.5565442423408191 0.20192262610045342 0
1.6726765342881351 1.548421392956433 0.20069476412851095 0
1.6806657302436725 1.5437175151629916 0.31109995163379794 0
1.8530075323372412 1.5571540463605187 0.33920642850023736 0
1.4525718590007042 1.3989195103547238 0.40739589537896675 0
1.5541545454209287 1.330506696369667 0.45451768096882827 0
1.2883411954841943 1.5069769855583366 0.42130520023241813 0
1.4058686381373064 2.0646022498612409 0.4723721176274045 0
1.1530287675554316 1.7403528224883842 0.46592180572306352 0
1.2877170313984896 1.6338776448622458 0.27958462299764442 0
1.3578805630667392 1.5266875771388562 0.27193151495716944 0
1.4618442350620164 1.4290886458562806 0.30158249265648368 0
1.6294356499040838 1.4535494251324976 0.077963918046235911 0
1.9693842102005861 1.4618985808116665 0.084114890674507309 0
1.4382691103029002 1.3220013010395677 0.20964228107603347 0
1.3951044017427288 1.4287986230797793 0.096420363491369065 0
1.2234529146502133 1.6737956973473753 0.21732845720404076 0
1.0920592503472861 1.7435952725113928 0.3430008861160625 0
1.5151656374848823 1.3864423122570559 0.53555259344981176 0
1.7863159521440715 1.6705924470388251 0.51238394248267816 0
1.8908714283518175 1.9521817976434408 0.47243474464444968 0
1.3472300355805709 1.5123534515624666 0.62980107135873087 0
1.5 1.25 1 0
1.5038636111174739 1.3143542145626212 0.92410234383791301 0
1.25 1.5 1 0
1.4342094808090478 1.4126145873975033 0.90787622655806932 0
1.25 2 1 0
1 2.25 1 0
1.4063266086253752 2.116323542727363 0.85567674008419914 0
2 1.25 1 0
1.75 1.5 1 0
1.7256547674294671 1.5010482952136743 0.8982430463288541 0
1.5 1.75 1 0
1.7274010348713507 1.7383037197483668 0.85732239717030145 0
2 1.75 1 0
1.75 2 1 0
2.0361102055910636 1.741178222870605 0.92104198677746507 0
1.9111743439436137 1.8767048354597313 0.90464821391831973 0
1.8421422270831393 1.9968004622266169 0.68968671105566881 0
1.3230765529869286 1.5212088038446707 0.7735197106476781 0
1.6656881175655407 2.148591025246001 0.69672644016678997 0
2.2112609346232794 1.6227906726438355 0.57154011241324687 0
2.0876123663491835 1.7933501052249361 0.55790407460367764 0
2.1792815981762184 1.6496869254843933 0.77756163754617968 0
2.0092917756643769 1.8322220229845643 0.63685487229614035 0
2.2633338949518196 2.0993618007037429 0.54660725300994029 0
2.0960220143636632 2.1157639858023258 0.85551149715498442 0
Hexahedra
208
1 2 3 4 5 6 7 8 0
9 10 6 2 11 12 5 1 0
13 10 6 14 15 9 2 16 0
17 18 19 20 8 5 1 4 0
20 19 21 22 4 1 23 24 0
25 11 1 4 26 27 23 24 0
27 28 12 11 23 29 5 1 0
23 29 5 1 21 30 18 19 0
8 5 6 7 17 18 31 32 0
30 33 34 29 18 31 6 5 0
29 34 35 28 5 6 10 12 0
7 6 36 37 32 31 38 39 0
40 35 34 41 13 10 6 14 0
42 33 31 38 43 34 6 36 0
14 41 44 45 6 34 43 36 0
46 47 43 44 40 35 34 41 0
22 21 42 48 24 23 43 44 0
26 27 23 24 46 47 43 44 0
23 29 34 43 27 28 35 47 0
21 30 33 42 23 29 34 43 0
17 18 31 32 20 19 38 39 0
21 30 18 19 42 33 31 38 0
20 19 38 39 22 21 42 48 0
46 47 9 15 26 27 11 25 0
47 35 10 9 27 28 12 11 0
40 35 10 13 46 47 9 15 0
22 20 4 24 49 50 51 52 0
15 46 26 25 53 54 55 56 0
48 22 24 44 57 49 52 58 0
59 60 61 62 63 64 65 66 0
62 61 67 68 66 65 69 70 0
71 72 73 74 75 76 77 78 0
79 59 62 80 81 63 66 82 0
80 62 68 83 82 66 70 84 0
83 68 72 71 84 70 76 75 0
68 67 85 72 70 69 86 76 0
87 80 83 88 89 82 84 90 0
63 64 65 66 81 91 92 82 0
84 70 76 75 93 94 95 96 0
70 69 86 76 94 97 98 95 0
4 25 26 24 96 75 76 95 0
99 100 20 39 101 89 82 92 0
39 20 22 48 92 82 66 65 0
49 50 51 52 70 84 93 94 0
22 20 50 49 66 82 84 70 0
4 24 52 51 96 95 94 93 0
51 50 102 103 93 84 90 104 0
20 100 102 50 82 89 90 84 0
26 25 56 55 76 75 78 77 0
57 49 52 58 69 70 94 97 0
48 22 49 57 65 66 70 69 0
24 44 58 52 95 98 97 94 0
105 106 107 108 109 110 111 112 0
113 114 110 106 115 116 109 105 0
117 114 110 118 119 113 106 120 0
121 122 123 124 112 109 105 108 0
124 123 125 126 108 105 127 128 0
129 115 105 108 130 131 127 128 0
131 132 116 115 127 133 109 105 0
127 133 109 105 125 134 122 123 0
112 109 110 111 121 122 135 136 0
134 137 138 133 122 135 110 109 0
133 138 139 132 109 110 114 116 0
111 110 2 3 136 135 1 4 0
140 139 138 141 117 114 110 118 0
11 137 135 1 9 138 110 2 0
118 141 15 16 110 138 9 2 0
142 143 9 15 140 139 138 141 0
126 125 11 25 128 127 9 15 0
130 131 127 128 142 143 9 15 0
127 133 138 9 131 132 139 143 0
125 134 137 11 127 133 138 9 0
121 122 135 136 124 123 1 4 0
125 134 122 123 11 137 135 1 0
124 123 1 4 126 125 11 25 0
142 143 113 119 130 131 115 129 0
143 139 114 113 131 132 116 115 0
140 139 114 117 142 143 113 119 0
126 124 108 128 144 145 146 147 0
119 142 130 129 148 149 150 151 0
25 126 128 15 56 144 147 53 0
88 83 71 152 90 84 75 153 0
152 71 74 154 153 75 78 155 0
156 157 158 159 160 161 162 163 0
164 88 152 165 104 90 153 166 0
165 152 154 167 166 153 155 168 0
167 154 157 156 168 155 161 160 0
154 74 169 157 155 78 170 161 0
171 165 167 172 173 166 168 174 0
90 84 75 153 104 93 96 166 0
168 155 161 160 175 176 177 178 0
155 78 170 161 176 179 180 177 0
108 129 130 128 178 160 161 177 0
181 182 124 4 183 173 166 96 0
4 124 126 25 96 166 153 75 0
144 145 146 147 155 168 175 176 0
126 124 145 144 153 166 168 155 0
108 128 147 146 178 177 176 175 0
146 145 184 185 175 168 174 186 0
124 182 184 145 166 173 174 168 0
130 129 151 150 161 160 163 162 0
56 144 147 53 78 155 176 179 0
25 126 144 56 75 153 155 78 0
128 15 53 147 177 180 179 176 0
187 188 189 190 191 192 193 194 0
195 196 192 188 197 198 191 187 0
8 196 192 7 4 195 188 3 0
199 200 201 202 194 191 187 190 0
202 201 203 204 190 187 205 99 0
206 197 187 190 100 207 205 99 0
207 208 198 197 205 209 191 187 0
205 209 191 187 203 210 200 201 0
194 191 192 193 199 200 211 212 0
210 213 214 209 200 211 192 191 0
209 214 215 208 191 192 196 198 0
193 192 216 217 212 211 218 219 0
17 215 214 32 8 196 192 7 0
220 213 211 218 221 214 192 216 0
7 32 39 37 192 214 221 216 0
20 222 221 39 17 215 214 32 0
204 203 220 223 99 205 221 39 0
100 207 205 99 20 222 221 39 0
205 209 214 221 207 208 215 222 0
203 210 213 220 205 209 214 221 0
199 200 211 212 202 201 218 219 0
203 210 200 201 220 213 211 218 0
202 201 218 219 204 203 220 223 0
20 222 195 4 100 207 197 206 0
222 215 196 195 207 208 198 197 0
17 215 196 8 20 222 195 4 0
204 202 190 99 224 225 226 227 0
4 20 100 206 51 50 102 103 0
223 204 99 39 228 224 227 229 0
230 231 232 233 234 235 236 237 0
233 232 79 238 237 236 81 239 0
240 87 88 164 241 89 90 104 0
242 230 233 243 244 234 237 245 0
243 233 238 246 245 237 239 247 0
246 238 87 240 247 239 89 241 0
238 79 80 87 239 81 82 89 0
248 243 246 249 250 245 247 251 0
234 235 236 237 244 252 253 245 0
247 239 89 241 254 255 101 256 0
239 81 82 89 255 91 92 101 0
190 206 100 99 256 241 89 101 0
257 258 202 219 259 250 245 253 0
219 202 204 223 253 245 237 236 0
224 225 226 227 239 247 254 255 0
204 202 225 224 237 245 247 239 0
190 99 227 226 256 101 255 254 0
226 225 260 261 254 247 251 262 0
202 258 260 225 245 250 251 247 0
100 206 103 102 89 241 104 90 0
228 224 227 229 81 239 255 91 0
223 204 224 228 236 237 239 81 0
99 39 229 227 101 92 91 255 0
263 264 265 266 267 268 269 270 0
271 272 268 264 273 274 267 263 0
112 272 268 111 108 271 264 107 0
275 276 277 278 270 267 263 266 0
278 277 279 280 266 263 281 181 0
282 273 263 266 182 283 281 181 0
283 284 274 273 281 285 267 263 0
281 285 267 263 279 286 276 277 0
270 267 268 269 275 276 287 288 0
286 289 290 285 276 287 268 267 0
285 290 291 284 267 268 272 274 0
269 268 188 189 288 287 187 190 0
121 291 290 136 112 272 268 111 0
197 289 287 187 195 290 268 188 0
111 136 4 3 268 290 195 188 0
124 292 195 4 121 291 290 136 0
280 279 197 206 181 281 195 4 0
182 283 281 181 124 292 195 4 0
281 285 290 195 283 284 291 292 0
279 286 289 197 281 285 290 195 0
275 276 287 288 278 277 187 190 0
279 286 276 277 197 289 287 187 0
278 277 187 190 280 279 197 206 0
124 292 271 108 182 283 273 282 0
292 291 272 271 283 284 274 273 0
121 291 272 112 124 292 271 108 0
280 278 266 181 293 294 295 296 0
108 124 182 282 146 145 184 185 0
206 280 181 4 103 293 296 51 0
249 246 240 297 251 247 241 298 0
297 240 164 299 298 241 104 300 0
301 171 172 302 303 173 174 186 0
304 249 297 305 262 251 298 306 0
305 297 299 307 306 298 300 308 0
307 299 171 301 308 300 173 303 0
299 164 165 171 300 104 166 173 0
309 305 307 310 311 306 308 312 0
251 247 241 298 262 254 256 306 0
308 300 173 303 313 314 183 315 0
300 104 166 173 314 93 96 183 0
266 282 182 181 315 303 173 183 0
316 317 278 190 318 311 306 256 0
190 278 280 206 256 306 298 241 0
293 294 295 296 300 308 313 314 0
280 278 294 293 298 306 308 300 0
266 181 296 295 315 183 314 313 0
295 294 319 320 313 308 312 321 0
278 317 319 294 306 311 312 308 0
182 282 185 184 173 303 186 174 0
103 293 296 51 104 300 314 93 0
206 280 293 103 241 298 300 104 0
181 4 51 296 183 96 93 314 0
Quadrilaterals
48
2 3 7 6 0
6 14 16 2 0
7 37 36 6 0
45 14 6 36 0
59 62 61 60 0
62 68 67 61 0
71 74 73 72 0
79 80 62 59 0
80 83 68 62 0
83 71 72 68 0
68 72 85 67 0
87 88 83 80 0
106 107 111 110 0
110 118 120 106 0
111 3 2 110 0
16 118 110 2 0
88 152 71 83 0
152 154 74 71 0
156 159 158 157 0
164 165 152 88 0
165 167 154 152 0
167 156 157 154 0
154 157 169 74 0
171 172 167 165 0
188 189 193 192 0
192 7 3 188 0
193 217 216 192 0
37 7 192 216 0
230 233 232 231 0
233 238 79 232 0
240 164 88 87 0
242 243 233 230 0
243 246 238 233 0
246 240 87 238 0
238 87 80 79 0
248 249 246 243 0
264 265 269 268 0
268 111 107 264 0
269 189 188 268 0
3 111 268 188 0
249 297 240 246 0
297 299 164 240 0
301 302 172 171 0
304 305 297 249 0
305 307 299 297 0
307 301 171 299 0
299 171 165 164 0
309 310 307 305 0
End
