MeshVersionFormatted 2
Dimension 3
Vertices
111
0.78524115040476017 -0.25066676059889714 0.16240709800373862 0
1.277388447767227 -0.4411678749289154 0.17553638025429619 0
1.3713900487129829 0.46381380652806414 0.054365874243278607 0
0.69373019763023469 0.510629257068556 0.078380819682902947 0
0.85204242880374614 -0.14647576213910518 0.33477390887283048 0
0.95605869427902079 -0.1484756611061776 0.45585368293992445 0
1.3772146014056106 0.50149725938533951 0.26522741909397168 0
0.66152687484103512 0.32817644280233799 0.19841072148762673 0
0.27738844776722704 -0.4411678749289154 0.17553638025429619 0
0.37139004871298287 0.46381380652806414 0.054365874243278607 0
0.21763489315870424 -0.3911516268653692 0.37563186410429567 0
0.52146499986853523 0.39470900416067606 0.1772400156361276 0
0.37721460140561058 0.50149725938533951 0.26522741909397168 0
-0.043941305720979207 -0.1484756611061776 0.45585368293992445 0
0.52754917194080475 0.40268111766994924 0.26989203789596627 0
0.067194083415764841 -0.38037325558439627 0.48335778990379097 0
0.78524115040476017 0.74933323940110286 0.16240709800373862 0
1.277388447767227 0.5588321250710846 0.17553638025429619 0
0.95605869427902079 0.8515243388938224 0.45585368293992445 0
0.85204242880374614 0.85352423786089482 0.33477390887283048 0
0.68139388681374147 0.29896639645789586 0.37970430088040058 0
1.2176348931587042 0.6088483731346308 0.37563186410429567 0
1.0671940834157649 0.61962674441560373 0.48335778990379097 0
0.71582180312367005 0.19010882039442775 0.50273880844195584 0
-0.30626980236976531 0.510629257068556 0.078380819682902947 0
0.27738844776722704 0.5588321250710846 0.17553638025429619 0
-0.21475884959523983 0.74933323940110286 0.16240709800373862 0
-0.33847312515896488 0.32817644280233799 0.19841072148762673 0
0.21763489315870424 0.6088483731346308 0.37563186410429567 0
-0.31860611318625853 0.29896639645789586 0.37970430088040058 0
0.067194083415764841 0.61962674441560373 0.48335778990379097 0
0.75 0 1 0
0.5 -0.25 1 0
0.25 0 1 0
0.5 0.25 1 0
0.77887230645590777 0.089602135139192018 0.97006065797340002 0
0.56637036438193189 -0.24149767994117122 0.86654773929377793 0
0.54564782853492011 0.018448954494322999 0.82321095406322164 0
0.58922873755041438 0.44139569638397264 0.90813551666520798 0
0 0.25 1 0
0.25 0.5 1 0
0.047488331535570555 0.31038504534784062 0.96471544332798609 0
0.3990423074686098 0.60570387425398386 0.91702242047298943 0
0 -0.25 1 0
-0.25 0 1 0
0.27933893044229641 -0.37189119267281123 0.87860888182558816 0
-0.22112769354409223 0.089602135139192018 0.97006065797340002 0
1 0.25 1 0
0.75 0.5 1 0
1.0474883315355705 0.31038504534784062 0.96471544332798609 0
0.79610401737344116 0.6000779908355296 0.86612271072197544 0
0.5 0.75 1 0
0.56637036438193189 0.75850232005882878 0.86654773929377793 0
0 0.75 1 0
0.25 1 1 0
0.27933893044229641 0.62810880732718877 0.87860888182558816 0
0.54564782853492011 1.0184489544943229 0.82321095406322164 0
-0.25 0.5 1 0
-0.20389598262655884 0.6000779908355296 0.86612271072197544 0
1 0.75 1 0
0.75 1 1 0
1.2793389304422964 0.62810880732718877 0.87860888182558816 0
0.77887230645590777 1.089602135139192 0.97006065797340002 0
0.58922873755041438 1.4413956963839727 0.90813551666520798 0
0.98850600818885859 0.59824220280321272 0.76354374409650816 0
1.2223798891096318 0.66703312980445206 0.79301378465506822 0
0.52462887340630471 0.078629413191749931 0.77429859432820791 0
0.2223798891096318 -0.33296687019554794 0.79301378465506822 0
-0.41077126244958562 0.44139569638397264 0.90813551666520798 0
0.56532474099932895 0.39876554472776382 0.85431951176238086 0
-0.011493991811141413 0.59824220280321272 0.76354374409650816 0
0.2223798891096318 0.66703312980445206 0.79301378465506822 0
0.56368845176958493 0.28378843161126394 0.72704134308752189 0
0.58001958098030315 0.36816379633719459 0.75371913083886155 0
-0.011493991811141413 -0.40175779719678728 0.76354374409650816 0
-0.45435217146507989 0.018448954494322999 0.82321095406322164 0
0.57958709914569839 0.79579558190703614 0.74657961329612421 0
0.48651696078528417 0.7186685133909656 0.77923133475502093 0
0.52462887340630471 1.07862941319175 0.77429859432820791 0
0.57430832832115142 0.65207226798864382 0.55012495547402196 0
0.69370346119412218 0.70687197949965008 0.55785958306753469 0
0.74172145975936499 0.75011658353290078 0.4914503725677799 0
0.45539059571745999 0.65806455139150111 0.51827300965325351 0
0.82131705022955259 0.83611373592641502 0.46081173806856646 0
0.31625088146808666 0.65311646000957824 0.56856409768775895 0
0.58565368248783234 0.58696310388045214 0.58538523229710215 0
0.65177122918568986 0.53689164651065879 0.62168725200868269 0
0.46359016591816427 0.61164496344662733 0.57578832370176691 0
0.53197761257863507 0.56853336066334026 0.57912819054166509 0
0.95240401849079126 0.81209577798851407 0.57155180679213524 0
0.69999764401937603 0.29269359728559646 0.59984664915264696 0
1.0507665507499051 0.63494755586224383 0.64546146283235617 0
0.66370348669415469 0.42928331197217595 0.58746236600355628 0
0.82131705022955259 -0.16388626407358498 0.46081173806856646 0
0.95240401849079126 -0.18790422201148593 0.57155180679213524 0
0.71582180312367005 1.1901088203944277 0.50273880844195584 0
0.69999764401937603 1.2926935972855964 0.59984664915264696 0
0.050766550749905104 0.63494755586224383 0.64546146283235617 0
0.56368845176958493 1.283788431611264 0.72704134308752189 0
-0.04759598150920874 -0.18790422201148593 0.57155180679213524 0
0.050766550749905104 -0.36505244413775617 0.64546146283235617 0
0.5 0 0 0
0.5 0.5 0 0
0 0.5 0 0
0 0 0 0
-0.21475884959523983 -0.25066676059889714 0.16240709800373862 0
1 0 0 0
1 0.5 0 0
0.5 1 0 0
0 1 0 0
1 1 0 0
Hexahedra
56
1 2 3 4 5 6 7 8 0
9 1 4 10 11 5 8 12 0
9 10 13 14 11 12 15 16 0
17 18 19 20 21 22 23 24 0
25 10 26 27 28 13 29 30 0
8 7 22 21 5 6 23 24 0
11 5 8 12 16 24 21 15 0
13 14 16 15 29 31 24 21 0
32 33 34 35 36 37 38 39 0
35 34 40 41 39 38 42 43 0
34 44 45 40 38 46 47 42 0
48 32 35 49 50 36 39 51 0
49 35 41 52 51 39 43 53 0
52 41 54 55 53 43 56 57 0
41 40 58 54 43 42 59 56 0
60 49 52 61 62 51 53 63 0
63 53 57 64 62 51 65 66 0
38 46 47 42 67 68 69 59 0
39 38 42 43 70 67 59 56 0
56 59 71 72 70 67 73 74 0
67 68 69 59 73 75 76 71 0
39 38 67 70 51 65 73 74 0
53 43 56 57 77 78 72 79 0
10 4 17 26 80 81 82 83 0
80 81 82 83 43 53 77 78 0
26 17 20 29 83 82 84 85 0
83 82 84 85 78 77 79 72 0
4 10 12 8 81 80 86 87 0
81 80 86 87 53 43 39 51 0
10 13 15 12 80 88 89 86 0
80 88 89 86 43 56 70 39 0
19 20 24 23 90 84 91 92 0
20 17 21 24 84 82 93 91 0
10 26 29 13 80 83 85 88 0
80 83 85 88 43 78 72 56 0
17 4 8 21 82 81 87 93 0
5 6 23 24 94 95 92 91 0
94 95 92 91 67 38 65 73 0
29 20 96 31 85 84 97 98 0
85 84 97 98 72 79 99 71 0
8 12 15 21 87 86 89 93 0
87 86 89 93 51 39 70 74 0
29 31 24 21 85 98 91 93 0
85 98 91 93 72 71 73 74 0
14 16 24 31 100 101 91 98 0
100 101 91 98 76 75 73 71 0
15 13 29 21 89 88 85 93 0
89 88 85 93 70 56 72 74 0
102 103 104 105 9 10 25 106 0
107 108 103 102 1 4 10 9 0
103 109 110 104 10 26 27 25 0
108 111 109 103 4 17 26 10 0
57 53 77 79 90 81 82 84 0
51 65 73 74 87 92 91 93 0
53 57 65 51 81 90 92 87 0
81 90 92 87 82 84 91 93 0
Quadrilaterals
12
32 35 34 33 0
35 41 40 34 0
34 40 45 44 0
48 49 35 32 0
49 52 41 35 0
52 55 54 41 0
41 54 58 40 0
60 61 52 49 0
102 105 104 103 0
107 102 103 108 0
103 104 110 109 0
108 103 109 111 0
End
