MeshVersionFormatted 2
Dimension 3
Vertices
331
0.78524115040476017 -0.25066676059889714 0.16240709800373862 0
1.277388447767227 -0.4411678749289154 0.17553638025429619 0
1.3713900487129829 0.46381380652806414 0.054365874243278607 0
0.69373019763023469 0.510629257068556 0.078380819682902947 0
0.85204242880374614 -0.14647576213910518 0.33477390887283048 0
0.95605869427902079 -0.1484756611061776 0.45585368293992445 0
1.3772146014056106 0.50149725938533951 0.26522741909397168 0
0.66152687484103512 0.32817644280233799 0.19841072148762673 0
0.27738844776722704 -0.4411678749289154 0.17553638025429619 0
0.37139004871298287 0.46381380652806414 0.054365874243278607 0
0.21763489315870424 -0.3911516268653692 0.37563186410429567 0
0.52146499986853523 0.39470900416067606 0.1772400156361276 0
0.37721460140561058 0.50149725938533951 0.26522741909397168 0
-0.043941305720979207 -0.1484756611061776 0.45585368293992445 0
0.52754917194080475 0.40268111766994924 0.26989203789596627 0
0.067194083415764841 -0.38037325558439627 0.48335778990379097 0
0.78524115040476017 0.74933323940110286 0.16240709800373862 0
1.277388447767227 0.5588321250710846 0.17553638025429619 0
0.95605869427902079 0.8515243388938224 0.45585368293992445 0
0.85204242880374614 0.85352423786089482 0.33477390887283048 0
0.68139388681374147 0.29896639645789586 0.37970430088040058 0
1.2176348931587042 0.6088483731346308 0.37563186410429567 0
1.0671940834157649 0.61962674441560373 0.48335778990379097 0
0.71582180312367005 0.19010882039442775 0.50273880844195584 0
-0.30626980236976531 0.510629257068556 0.078380819682902947 0
0.27738844776722704 0.5588321250710846 0.17553638025429619 0
-0.21475884959523983 0.74933323940110286 0.16240709800373862 0
-0.33847312515896488 0.32817644280233799 0.19841072148762673 0
0.21763489315870424 0.6088483731346308 0.37563186410429567 0
-0.31860611318625853 0.29896639645789586 0.37970430088040058 0
0.067194083415764841 0.61962674441560373 0.48335778990379097 0
0.75 0 1 0
0.5 -0.25 1 0
0.25 0 1 0
0.5 0.25 1 0
0.77887230645590777 0.089602135139192018 0.97006065797340002 0
0.56637036438193189 -0.24149767994117122 0.86654773929377793 0
0.54564782853492011 0.018448954494322999 0.82321095406322164 0
0.58922873755041438 0.44139569638397264 0.90813551666520798 0
0 0.25 1 0
0.25 0.5 1 0
0.047488331535570555 0.31038504534784062 0.96471544332798609 0
0.3990423074686098 0.60570387425398386 0.91702242047298943 0
0 -0.25 1 0
-0.25 0 1 0
0.27933893044229641 -0.37189119267281123 0.87860888182558816 0
-0.22112769354409223 0.089602135139192018 0.97006065797340002 0
1 0.25 1 0
0.75 0.5 1 0
1.0474883315355705 0.31038504534784062 0.96471544332798609 0
0.79610401737344116 0.6000779908355296 0.86612271072197544 0
0.5 0.75 1 0
0.56637036438193189 0.75850232005882878 0.86654773929377793 0
0 0.75 1 0
0.25 1 1 0
0.27933893044229641 0.62810880732718877 0.87860888182558816 0
0.54564782853492011 1.0184489544943229 0.82321095406322164 0
-0.25 0.5 1 0
-0.20389598262655884 0.6000779908355296 0.86612271072197544 0
1 0.75 1 0
0.75 1 1 0
1.2793389304422964 0.62810880732718877 0.87860888182558816 0
0.77887230645590777 1.089602135139192 0.97006065797340002 0
0.58922873755041438 1.4413956963839727 0.90813551666520798 0
0.98850600818885859 0.59824220280321272 0.76354374409650816 0
1.2223798891096318 0.66703312980445206 0.79301378465506822 0
0.52462887340630471 0.078629413191749931 0.77429859432820791 0
0.2223798891096318 -0.33296687019554794 0.79301378465506822 0
-0.41077126244958562 0.44139569638397264 0.90813551666520798 0
0.56532474099932895 0.39876554472776382 0.85431951176238086 0
-0.011493991811141413 0.59824220280321272 0.76354374409650816 0
0.2223798891096318 0.66703312980445206 0.79301378465506822 0
0.56368845176958493 0.28378843161126394 0.72704134308752189 0
0.58001958098030315 0.36816379633719459 0.75371913083886155 0
-0.011493991811141413 -0.40175779719678728 0.76354374409650816 0
-0.45435217146507989 0.018448954494322999 0.82321095406322164 0
0.57958709914569839 0.79579558190703614 0.74657961329612421 0
0.48651696078528417 0.7186685133909656 0.77923133475502093 0
0.52462887340630471 1.07862941319175 0.77429859432820791 0
0.57430832832115142 0.65207226798864382 0.55012495547402196 0
0.69370346119412218 0.70687197949965008 0.55785958306753469 0
0.74172145975936499 0.75011658353290078 0.4914503725677799 0
0.45539059571745999 0.65806455139150111 0.51827300965325351 0
0.82131705022955259 0.83611373592641502 0.46081173806856646 0
0.31625088146808666 0.65311646000957824 0.56856409768775895 0
0.58565368248783234 0.58696310388045214 0.58538523229710215 0
0.65177122918568986 0.53689164651065879 0.62168725200868269 0
0.46359016591816427 0.61164496344662733 0.57578832370176691 0
0.53197761257863507 0.56853336066334026 0.57912819054166509 0
0.95240401849079126 0.81209577798851407 0.57155180679213524 0
0.69999764401937603 0.29269359728559646 0.59984664915264696 0
1.0507665507499051 0.63494755586224383 0.64546146283235617 0
0.66370348669415469 0.42928331197217595 0.58746236600355628 0
0.82131705022955259 -0.16388626407358498 0.46081173806856646 0
0.95240401849079126 -0.18790422201148593 0.57155180679213524 0
0.71582180312367005 1.1901088203944277 0.50273880844195584 0
0.69999764401937603 1.2926935972855964 0.59984664915264696 0
0.050766550749905104 0.63494755586224383 0.64546146283235617 0
0.56368845176958493 1.283788431611264 0.72704134308752189 0
-0.04759598150920874 -0.18790422201148593 0.57155180679213524 0
0.050766550749905104 -0.36505244413775617 0.64546146283235617 0
0.5 0 0 0
0.5 0.5 0 0
0 0.5 0 0
0 0 0 0
-0.21475884959523983 -0.25066676059889714 0.16240709800373862 0
1 0 0 0
1 0.5 0 0
0.5 1 0 0
0 1 0 0
1 1 0 0
1.3713900487129829 1.4638138065280641 0.054365874243278607 0
0.69373019763023469 1.510629257068556 0.078380819682902947 0
1.3772146014056106 1.5014972593853395 0.26522741909397168 0
0.66152687484103512 1.3281764428023379 0.19841072148762673 0
0.37139004871298287 1.4638138065280641 0.054365874243278607 0
0.52146499986853523 1.394709004160676 0.1772400156361276 0
0.37721460140561058 1.5014972593853395 0.26522741909397168 0
-0.043941305720979207 0.8515243388938224 0.45585368293992445 0
0.52754917194080475 1.4026811176699492 0.26989203789596627 0
0.78524115040476017 1.749333239401103 0.16240709800373862 0
1.277388447767227 1.5588321250710846 0.17553638025429619 0
0.95605869427902079 1.8515243388938223 0.45585368293992445 0
0.85204242880374614 1.8535242378608947 0.33477390887283048 0
0.68139388681374147 1.2989663964578959 0.37970430088040058 0
1.2176348931587042 1.6088483731346308 0.37563186410429567 0
1.0671940834157649 1.6196267444156036 0.48335778990379097 0
-0.30626980236976531 1.510629257068556 0.078380819682902947 0
0.27738844776722704 1.5588321250710846 0.17553638025429619 0
-0.21475884959523983 1.749333239401103 0.16240709800373862 0
-0.33847312515896488 1.3281764428023379 0.19841072148762673 0
0.21763489315870424 1.6088483731346308 0.37563186410429567 0
-0.31860611318625853 1.2989663964578959 0.37970430088040058 0
0.067194083415764841 1.6196267444156036 0.48335778990379097 0
0.5 1.25 1 0
0 1.25 1 0
0.25 1.5 1 0
0.047488331535570555 1.3103850453478407 0.96471544332798609 0
0.3990423074686098 1.605703874253984 0.91702242047298943 0
-0.25 1 1 0
-0.22112769354409223 1.089602135139192 0.97006065797340002 0
1 1.25 1 0
0.75 1.5 1 0
1.0474883315355705 1.3103850453478407 0.96471544332798609 0
0.79610401737344116 1.6000779908355296 0.86612271072197544 0
0.5 1.75 1 0
0.56637036438193189 1.7585023200588288 0.86654773929377793 0
0 1.75 1 0
0.25 2 1 0
0.27933893044229641 1.6281088073271888 0.87860888182558816 0
0.54564782853492011 2.0184489544943229 0.82321095406322164 0
-0.25 1.5 1 0
-0.20389598262655884 1.6000779908355296 0.86612271072197544 0
1 1.75 1 0
0.75 2 1 0
1.2793389304422964 1.6281088073271888 0.87860888182558816 0
0.77887230645590777 2.089602135139192 0.97006065797340002 0
0.58922873755041438 2.4413956963839727 0.90813551666520798 0
0.98850600818885859 1.5982422028032128 0.76354374409650816 0
1.2223798891096318 1.6670331298044521 0.79301378465506822 0
-0.41077126244958562 1.4413956963839727 0.90813551666520798 0
0.56532474099932895 1.3987655447277638 0.85431951176238086 0
-0.011493991811141413 1.5982422028032128 0.76354374409650816 0
0.2223798891096318 1.6670331298044521 0.79301378465506822 0
0.58001958098030315 1.3681637963371946 0.75371913083886155 0
-0.45435217146507989 1.0184489544943229 0.82321095406322164 0
0.57958709914569839 1.7957955819070361 0.74657961329612421 0
0.48651696078528417 1.7186685133909656 0.77923133475502093 0
0.52462887340630471 2.07862941319175 0.77429859432820791 0
0.57430832832115142 1.6520722679886437 0.55012495547402196 0
0.69370346119412218 1.7068719794996501 0.55785958306753469 0
0.74172145975936499 1.7501165835329009 0.4914503725677799 0
0.45539059571745999 1.6580645513915011 0.51827300965325351 0
0.82131705022955259 1.836113735926415 0.46081173806856646 0
0.31625088146808666 1.6531164600095782 0.56856409768775895 0
0.58565368248783234 1.5869631038804521 0.58538523229710215 0
0.65177122918568986 1.5368916465106588 0.62168725200868269 0
0.46359016591816427 1.6116449634466274 0.57578832370176691 0
0.53197761257863507 1.5685333606633403 0.57912819054166509 0
0.95240401849079126 1.8120957779885141 0.57155180679213524 0
1.0507665507499051 1.6349475558622437 0.64546146283235617 0
0.66370348669415469 1.429283311972176 0.58746236600355628 0
0.71582180312367005 2.1901088203944279 0.50273880844195584 0
0.69999764401937603 2.2926935972855964 0.59984664915264696 0
0.050766550749905104 1.6349475558622437 0.64546146283235617 0
0.56368845176958493 2.283788431611264 0.72704134308752189 0
-0.04759598150920874 0.81209577798851407 0.57155180679213524 0
0.5 1.5 0 0
0 1.5 0 0
1 1.5 0 0
0.5 2 0 0
0 2 0 0
1 2 0 0
1.7852411504047603 -0.25066676059889714 0.16240709800373862 0
2.277388447767227 -0.4411678749289154 0.17553638025429619 0
2.3713900487129829 0.46381380652806414 0.054365874243278607 0
1.6937301976302348 0.510629257068556 0.078380819682902947 0
1.8520424288037463 -0.14647576213910518 0.33477390887283048 0
1.9560586942790208 -0.1484756611061776 0.45585368293992445 0
2.3772146014056106 0.50149725938533951 0.26522741909397168 0
1.661526874841035 0.32817644280233799 0.19841072148762673 0
1.2176348931587042 -0.3911516268653692 0.37563186410429567 0
1.5214649998685352 0.39470900416067606 0.1772400156361276 0
1.5275491719408048 0.40268111766994924 0.26989203789596627 0
1.0671940834157649 -0.38037325558439627 0.48335778990379097 0
1.7852411504047603 0.74933323940110286 0.16240709800373862 0
2.277388447767227 0.5588321250710846 0.17553638025429619 0
1.9560586942790208 0.8515243388938224 0.45585368293992445 0
1.8520424288037463 0.85352423786089482 0.33477390887283048 0
1.6813938868137415 0.29896639645789586 0.37970430088040058 0
2.2176348931587042 0.6088483731346308 0.37563186410429567 0
2.0671940834157647 0.61962674441560373 0.48335778990379097 0
1.7158218031236701 0.19010882039442775 0.50273880844195584 0
1.75 0 1 0
1.5 -0.25 1 0
1.25 0 1 0
1.5 0.25 1 0
1.7788723064559078 0.089602135139192018 0.97006065797340002 0
1.5663703643819318 -0.24149767994117122 0.86654773929377793 0
1.54564782853492 0.018448954494322999 0.82321095406322164 0
1.5892287375504144 0.44139569638397264 0.90813551666520798 0
1.25 0.5 1 0
1.3990423074686098 0.60570387425398386 0.91702242047298943 0
1 -0.25 1 0
1.2793389304422964 -0.37189119267281123 0.87860888182558816 0
2 0.25 1 0
1.75 0.5 1 0
2.0474883315355705 0.31038504534784062 0.96471544332798609 0
1.7961040173734411 0.6000779908355296 0.86612271072197544 0
1.5 0.75 1 0
1.5663703643819318 0.75850232005882878 0.86654773929377793 0
1.25 1 1 0
1.54564782853492 1.0184489544943229 0.82321095406322164 0
2 0.75 1 0
1.75 1 1 0
2.2793389304422966 0.62810880732718877 0.87860888182558816 0
1.7788723064559078 1.089602135139192 0.97006065797340002 0
1.5892287375504144 1.4413956963839727 0.90813551666520798 0
1.9885060081888586 0.59824220280321272 0.76354374409650816 0
2.2223798891096318 0.66703312980445206 0.79301378465506822 0
1.5246288734063047 0.078629413191749931 0.77429859432820791 0
1.2223798891096318 -0.33296687019554794 0.79301378465506822 0
1.5653247409993289 0.39876554472776382 0.85431951176238086 0
1.5636884517695848 0.28378843161126394 0.72704134308752189 0
1.580019580980303 0.36816379633719459 0.75371913083886155 0
0.98850600818885859 -0.40175779719678728 0.76354374409650816 0
1.5795870991456984 0.79579558190703614 0.74657961329612421 0
1.4865169607852842 0.7186685133909656 0.77923133475502093 0
1.5246288734063047 1.07862941319175 0.77429859432820791 0
1.5743083283211514 0.65207226798864382 0.55012495547402196 0
1.6937034611941222 0.70687197949965008 0.55785958306753469 0
1.7417214597593649 0.75011658353290078 0.4914503725677799 0
1.45539059571746 0.65806455139150111 0.51827300965325351 0
1.8213170502295526 0.83611373592641502 0.46081173806856646 0
1.3162508814680867 0.65311646000957824 0.56856409768775895 0
1.5856536824878322 0.58696310388045214 0.58538523229710215 0
1.6517712291856899 0.53689164651065879 0.62168725200868269 0
1.4635901659181643 0.61164496344662733 0.57578832370176691 0
1.5319776125786351 0.56853336066334026 0.57912819054166509 0
1.9524040184907911 0.81209577798851407 0.57155180679213524 0
1.699997644019376 0.29269359728559646 0.59984664915264696 0
2.0507665507499051 0.63494755586224383 0.64546146283235617 0
1.6637034866941547 0.42928331197217595 0.58746236600355628 0
1.8213170502295526 -0.16388626407358498 0.46081173806856646 0
1.9524040184907911 -0.18790422201148593 0.57155180679213524 0
1.7158218031236701 1.1901088203944277 0.50273880844195584 0
1.699997644019376 1.2926935972855964 0.59984664915264696 0
1.5636884517695848 1.283788431611264 0.72704134308752189 0
1.0507665507499051 -0.36505244413775617 0.64546146283235617 0
1.5 0 0 0
1.5 0.5 0 0
2 0 0 0
2 0.5 0 0
1.5 1 0 0
2 1 0 0
2.3713900487129829 1.4638138065280641 0.054365874243278607 0
1.6937301976302348 1.510629257068556 0.078380819682902947 0
2.3772146014056106 1.5014972593853395 0.26522741909397168 0
1.661526874841035 1.3281764428023379 0.19841072148762673 0
1.5214649998685352 1.394709004160676 0.1772400156361276 0
1.5275491719408048 1.4026811176699492 0.26989203789596627 0
1.7852411504047603 1.749333239401103 0.16240709800373862 0
2.277388447767227 1.5588321250710846 0.17553638025429619 0
1.9560586942790208 1.8515243388938223 0.45585368293992445 0
1.8520424288037463 1.8535242378608947 0.33477390887283048 0
1.6813938868137415 1.2989663964578959 0.37970430088040058 0
2.2176348931587042 1.6088483731346308 0.37563186410429567 0
2.0671940834157647 1.6196267444156036 0.48335778990379097 0
1.5 1.25 1 0
1.25 1.5 1 0
1.3990423074686098 1.605703874253984 0.91702242047298943 0
2 1.25 1 0
1.75 1.5 1 0
2.0474883315355705 1.3103850453478407 0.96471544332798609 0
1.7961040173734411 1.6000779908355296 0.86612271072197544 0
1.5 1.75 1 0
1.5663703643819318 1.7585023200588288 0.86654773929377793 0
1.25 2 1 0
1.54564782853492 2.0184489544943229 0.82321095406322164 0
2 1.75 1 0
1.75 2 1 0
2.2793389304422966 1.6281088073271888 0.87860888182558816 0
1.7788723064559078 2.089602135139192 0.97006065797340002 0
1.5892287375504144 2.4413956963839727 0.90813551666520798 0
1.9885060081888586 1.5982422028032128 0.76354374409650816 0
2.2223798891096318 1.6670331298044521 0.79301378465506822 0
1.5653247409993289 1.3987655447277638 0.85431951176238086 0
1.580019580980303 1.3681637963371946 0.75371913083886155 0
1.5795870991456984 1.7957955819070361 0.74657961329612421 0
1.4865169607852842 1.7186685133909656 0.77923133475502093 0
1.5246288734063047 2.07862941319175 0.77429859432820791 0
1.5743083283211514 1.6520722679886437 0.55012495547402196 0
1.6937034611941222 1.7068719794996501 0.55785958306753469 0
1.7417214597593649 1.7501165835329009 0.4914503725677799 0
1.45539059571746 1.6580645513915011 0.51827300965325351 0
1.8213170502295526 1.836113735926415 0.46081173806856646 0
1.3162508814680867 1.6531164600095782 0.56856409768775895 0
1.5856536824878322 1.5869631038804521 0.58538523229710215 0
1.6517712291856899 1.5368916465106588 0.62168725200868269 0
1.4635901659181643 1.6116449634466274 0.57578832370176691 0
1.5319776125786351 1.5685333606633403 0.57912819054166509 0
1.9524040184907911 1.8120957779885141 0.57155180679213524 0
2.0507665507499051 1.6349475558622437 0.64546146283235617 0
1.6637034866941547 1.429283311972176 0.58746236600355628 0
1.7158218031236701 2.1901088203944279 0.50273880844195584 0
1.699997644019376 2.2926935972855964 0.59984664915264696 0
1.5636884517695848 2.283788431611264 0.72704134308752189 0
1.5 1.5 0 0
2 1.5 0 0
1.5 2 0 0
2 2 0 0
Hexahedra
224
1 2 3 4 5 6 7 8 0
9 1 4 10 11 5 8 12 0
9 10 13 14 11 12 15 16 0
17 18 19 20 21 22 23 24 0
25 10 26 27 28 13 29 30 0
8 7 22 21 5 6 23 24 0
11 5 8 12 16 24 21 15 0
13 14 16 15 29 31 24 21 0
32 33 34 35 36 37 38 39 0
35 34 40 41 39 38 42 43 0
34 44 45 40 38 46 47 42 0
48 32 35 49 50 36 39 51 0
49 35 41 52 51 39 43 53 0
52 41 54 55 53 43 56 57 0
41 40 58 54 43 42 59 56 0
60 49 52 61 62 51 53 63 0
63 53 57 64 62 51 65 66 0
38 46 47 42 67 68 69 59 0
39 38 42 43 70 67 59 56 0
56 59 71 72 70 67 73 74 0
67 68 69 59 73 75 76 71 0
39 38 67 70 51 65 73 74 0
53 43 56 57 77 78 72 79 0
10 4 17 26 80 81 82 83 0
80 81 82 83 43 53 77 78 0
26 17 20 29 83 82 84 85 0
83 82 84 85 78 77 79 72 0
4 10 12 8 81 80 86 87 0
81 80 86 87 53 43 39 51 0
10 13 15 12 80 88 89 86 0
80 88 89 86 43 56 70 39 0
19 20 24 23 90 84 91 92 0
20 17 21 24 84 82 93 91 0
10 26 29 13 80 83 85 88 0
80 83 85 88 43 78 72 56 0
17 4 8 21 82 81 87 93 0
5 6 23 24 94 95 92 91 0
94 95 92 91 67 38 65 73 0
29 20 96 31 85 84 97 98 0
85 84 97 98 72 79 99 71 0
8 12 15 21 87 86 89 93 0
87 86 89 93 51 39 70 74 0
29 31 24 21 85 98 91 93 0
85 98 91 93 72 71 73 74 0
14 16 24 31 100 101 91 98 0
100 101 91 98 76 75 73 71 0
15 13 29 21 89 88 85 93 0
89 88 85 93 70 56 72 74 0
102 103 104 105 9 10 25 106 0
107 108 103 102 1 4 10 9 0
103 109 110 104 10 26 27 25 0
108 111 109 103 4 17 26 10 0
57 53 77 79 90 81 82 84 0
51 65 73 74 87 92 91 93 0
53 57 65 51 81 90 92 87 0
81 90 92 87 82 84 91 93 0
17 18 112 113 20 19 114 115 0
26 17 113 116 29 20 115 117 0
26 116 118 119 29 117 120 31 0
121 122 123 124 125 126 127 96 0
128 116 129 130 131 118 132 133 0
115 114 126 125 20 19 127 96 0
29 20 115 117 31 96 125 120 0
118 119 31 120 132 134 96 125 0
61 52 55 135 63 53 57 64 0
135 55 136 137 64 57 138 139 0
55 54 140 136 57 56 141 138 0
142 61 135 143 144 63 64 145 0
143 135 137 146 145 64 139 147 0
146 137 148 149 147 139 150 151 0
137 136 152 148 139 138 153 150 0
154 143 146 155 156 145 147 157 0
157 147 151 158 156 145 159 160 0
57 56 141 138 79 72 161 153 0
64 57 138 139 162 79 153 150 0
150 153 163 164 162 79 99 165 0
79 72 161 153 99 71 166 163 0
64 57 79 162 145 159 99 165 0
147 139 150 151 167 168 164 169 0
116 113 121 129 170 171 172 173 0
170 171 172 173 139 147 167 168 0
129 121 124 132 173 172 174 175 0
173 172 174 175 168 167 169 164 0
113 116 117 115 171 170 176 177 0
171 170 176 177 147 139 64 145 0
116 118 120 117 170 178 179 176 0
170 178 179 176 139 150 162 64 0
123 124 96 127 180 174 97 181 0
124 121 125 96 174 172 182 97 0
116 129 132 118 170 173 175 178 0
170 173 175 178 139 168 164 150 0
121 113 115 125 172 171 177 182 0
20 19 127 96 84 90 181 97 0
84 90 181 97 79 57 159 99 0
132 124 183 134 175 174 184 185 0
175 174 184 185 164 169 186 163 0
115 117 120 125 177 176 179 182 0
177 176 179 182 145 64 162 165 0
132 134 96 125 175 185 97 182 0
175 185 97 182 164 163 99 165 0
119 31 96 134 187 98 97 185 0
187 98 97 185 166 71 99 163 0
120 118 132 125 179 178 175 182 0
179 178 175 182 162 150 164 165 0
109 188 189 110 26 116 128 27 0
111 190 188 109 17 113 116 26 0
188 191 192 189 116 129 130 128 0
190 193 191 188 113 121 129 116 0
151 147 167 169 180 171 172 174 0
145 159 99 165 177 181 97 182 0
147 151 159 145 171 180 181 177 0
171 180 181 177 172 174 97 182 0
194 195 196 197 198 199 200 201 0
2 194 197 3 202 198 201 203 0
2 3 7 6 202 203 204 205 0
206 207 208 209 210 211 212 213 0
4 3 18 17 8 7 22 21 0
201 200 211 210 198 199 212 213 0
202 198 201 203 205 213 210 204 0
7 6 205 204 22 23 213 210 0
214 215 216 217 218 219 220 221 0
217 216 48 222 221 220 50 223 0
216 224 32 48 220 225 36 50 0
226 214 217 227 228 218 221 229 0
227 217 222 230 229 221 223 231 0
230 222 60 232 231 223 62 233 0
222 48 49 60 223 50 51 62 0
234 227 230 235 236 229 231 237 0
237 231 233 238 236 229 239 240 0
220 225 36 50 241 242 39 51 0
221 220 50 223 243 241 51 62 0
62 51 65 66 243 241 244 245 0
241 242 39 51 244 246 38 65 0
221 220 241 243 229 239 244 245 0
231 223 62 233 247 248 66 249 0
3 197 206 18 250 251 252 253 0
250 251 252 253 223 231 247 248 0
18 206 209 22 253 252 254 255 0
253 252 254 255 248 247 249 66 0
197 3 203 201 251 250 256 257 0
251 250 256 257 231 223 221 229 0
3 7 204 203 250 258 259 256 0
250 258 259 256 223 62 243 221 0
208 209 213 212 260 254 261 262 0
209 206 210 213 254 252 263 261 0
3 18 22 7 250 253 255 258 0
250 253 255 258 223 248 66 62 0
206 197 201 210 252 251 257 263 0
198 199 212 213 264 265 262 261 0
264 265 262 261 241 220 239 244 0
22 209 266 23 255 254 267 92 0
255 254 267 92 66 249 268 65 0
201 203 204 210 257 256 259 263 0
257 256 259 263 229 221 243 245 0
22 23 213 210 255 92 261 263 0
255 92 261 263 66 65 244 245 0
6 205 213 23 95 269 261 92 0
95 269 261 92 38 246 244 65 0
204 7 22 210 259 258 255 263 0
259 258 255 263 243 62 66 245 0
270 271 108 107 2 3 4 1 0
272 273 271 270 194 197 3 2 0
271 274 111 108 3 18 17 4 0
273 275 274 271 197 206 18 3 0
233 231 247 249 260 251 252 254 0
229 239 244 245 257 262 261 263 0
231 233 239 229 251 260 262 257 0
251 260 262 257 252 254 261 263 0
206 207 276 277 209 208 278 279 0
18 206 277 112 22 209 279 280 0
18 112 114 19 22 280 281 23 0
282 283 284 285 286 287 288 266 0
113 112 122 121 115 114 126 125 0
279 278 287 286 209 208 288 266 0
22 209 279 280 23 266 286 281 0
114 19 23 281 126 127 266 286 0
235 230 232 289 237 231 233 238 0
289 232 142 290 238 233 144 291 0
232 60 61 142 233 62 63 144 0
292 235 289 293 294 237 238 295 0
293 289 290 296 295 238 291 297 0
296 290 154 298 297 291 156 299 0
290 142 143 154 291 144 145 156 0
300 293 296 301 302 295 297 303 0
303 297 299 304 302 295 305 306 0
233 62 63 144 249 66 64 145 0
238 233 144 291 307 249 145 156 0
156 145 159 160 307 249 268 308 0
249 66 64 145 268 65 57 159 0
238 233 249 307 295 305 268 308 0
297 291 156 299 309 310 160 311 0
112 277 282 122 312 313 314 315 0
312 313 314 315 291 297 309 310 0
122 282 285 126 315 314 316 317 0
315 314 316 317 310 309 311 160 0
277 112 280 279 313 312 318 319 0
313 312 318 319 297 291 238 295 0
112 114 281 280 312 320 321 318 0
312 320 321 318 291 156 307 238 0
284 285 266 288 322 316 267 323 0
285 282 286 266 316 314 324 267 0
112 122 126 114 312 315 317 320 0
312 315 317 320 291 310 160 156 0
282 277 279 286 314 313 319 324 0
209 208 288 266 254 260 323 267 0
254 260 323 267 249 233 305 268 0
126 285 325 127 317 316 326 181 0
317 316 326 181 160 311 327 159 0
279 280 281 286 319 318 321 324 0
319 318 321 324 295 238 307 308 0
126 127 266 286 317 181 267 324 0
317 181 267 324 160 159 268 308 0
19 23 266 127 90 92 267 181 0
90 92 267 181 57 65 268 159 0
281 114 126 286 321 320 317 324 0
321 320 317 324 307 156 160 308 0
274 328 190 111 18 112 113 17 0
275 329 328 274 206 277 112 18 0
328 330 193 190 112 122 121 113 0
329 331 330 328 277 282 122 112 0
299 297 309 311 322 313 314 316 0
295 305 268 308 319 323 267 324 0
297 299 305 295 313 322 323 319 0
313 322 323 319 314 316 267 324 0
Quadrilaterals
48
32 35 34 33 0
35 41 40 34 0
34 40 45 44 0
48 49 35 32 0
49 52 41 35 0
52 55 54 41 0
41 54 58 40 0
60 61 52 49 0
102 105 104 103 0
107 102 103 108 0
103 104 110 109 0
108 103 109 111 0
61 135 55 52 0
135 137 136 55 0
55 136 140 54 0
142 143 135 61 0
143 146 137 135 0
146 149 148 137 0
137 148 152 136 0
154 155 146 143 0
109 110 189 188 0
111 109 188 190 0
188 189 192 191 0
190 188 191 193 0
214 217 216 215 0
217 222 48 216 0
216 48 32 224 0
226 227 217 214 0
227 230 222 217 0
230 232 60 222 0
222 60 49 48 0
234 235 230 227 0
270 107 108 271 0
272 270 271 273 0
271 108 111 274 0
273 271 274 275 0
235 289 232 230 0
289 290 142 232 0
232 142 61 60 0
292 293 289 235 0
293 296 290 289 0
296 298 154 290 0
290 154 143 142 0
300 301 296 293 0
274 111 190 328 0
275 274 328 329 0
328 190 193 330 0
329 328 330 331 0
End
