MeshVersionFormatted 2
Dimension 3
Vertices
113
0.81609321735892804 -0.16682648641151865 0.16727399923923789 0
1.2474703367225874 -0.38656101606876037 0.16888314806085403 0
1.3608583868470172 0.48173874500218827 0.045687732505515381 0
0.72986796563370282 0.50467178458350714 0.062669633400791139 0
0.82646854611971021 -0.097971834321987195 0.3204886577109084 0
0.88447672284906054 -0.096957090788280298 0.42384769204631512 0
1.3353384525391174 0.5302002144914284 0.21543005816527924 0
0.68547034817293384 0.38395367552990067 0.14563039048079202 0
0.24747033672258745 -0.38656101606876037 0.16888314806085403 0
0.36085838684701721 0.48173874500218827 0.045687732505515381 0
0.1969910849734903 -0.3703083918231812 0.32182502414997144 0
0.50373558172926958 0.40422703748277805 0.14136970430421097 0
0.33533845253911743 0.5302002144914284 0.21543005816527924 0
-0.11552327715093946 -0.096957090788280298 0.42384769204631512 0
0.50195682634367722 0.42405810489556212 0.21458049390245695 0
0.065737441674439762 -0.35797076821568041 0.422347251081991 0
0.81609321735892804 0.83317351358848135 0.16727399923923789 0
1.2474703367225874 0.61343898393123963 0.16888314806085403 0
0.88447672284906054 0.9030429092117197 0.42384769204631512 0
0.82646854611971021 0.90202816567801281 0.3204886577109084 0
0.65747784244659391 0.32074979035055395 0.29611295600488136 0
1.1969910849734904 0.6296916081768188 0.32182502414997144 0
1.0657374416744398 0.64202923178431959 0.422347251081991 0
0.70112565973995833 0.20356717281046766 0.38933729444276233 0
-0.27013203436629718 0.50467178458350714 0.062669633400791139 0
0.24747033672258745 0.61343898393123963 0.16888314806085403 0
-0.18390678264107196 0.83317351358848135 0.16727399923923789 0
-0.31452965182706616 0.38395367552990067 0.14563039048079202 0
0.1969910849734903 0.6296916081768188 0.32182502414997144 0
-0.34252215755340609 0.32074979035055395 0.29611295600488136 0
0.065737441674439762 0.64202923178431959 0.422347251081991 0
0.75 0 1 0
0.5 -0.25 1 0
0.25 0 1 0
0.5 0.25 1 0
0.75174992424807485 0.04849740148580884 0.96587102553752857 0
0.72928323983525722 -0.24077307328022313 0.78170752264737808 0
0.83583158975141425 -0.086419107884645574 0.71414527645261972 0
0.67285694727013023 0.35783937848933173 0.88943597347979486 0
0 0.25 1 0
0.25 0.5 1 0
0.093026611811971568 0.36247887384943911 0.92314098490797636 0
0.48831719088726971 0.58193007130630425 0.84058007572694005 0
0.25 1 1 0
0 0.75 1 0
-0.25 1 1 0
0 1.25 1 0
0.83583158975141425 0.91358089211535443 0.71414527645261972 0
0.31839939197701933 0.5965871473966613 0.79758903220948074 0
-0.24825007575192515 1.0484974014858088 0.96587102553752857 0
0.093026611811971568 1.3624788738494391 0.92314098490797636 0
1 0.25 1 0
0.75 0.5 1 0
1.0930266118119716 0.36247887384943911 0.92314098490797636 0
0.73941955833621897 0.57442601347237832 0.86347532719812481 0
0.5 0.75 1 0
0.72928323983525722 0.75922692671977687 0.78170752264737808 0
-0.25 0.5 1 0
-0.26058044166378103 0.57442601347237832 0.86347532719812481 0
1 0.75 1 0
0.75 1 1 0
1.3183993919770194 0.5965871473966613 0.79758903220948074 0
0.75174992424807485 1.0484974014858088 0.96587102553752857 0
0.67285694727013023 1.3578393784893317 0.88943597347979486 0
1.0919944204555814 0.62874560237485588 0.61819827203191735 0
1.2643124825132455 0.64087574755708465 0.68804241173359837 0
0.31839939197701933 -0.4034128526033387 0.79758903220948074 0
-0.24825007575192515 0.04849740148580884 0.96587102553752857 0
0.77767752825723024 -0.09464482499539062 0.60936166564190197 0
0.26431248251324546 -0.35912425244291535 0.68804241173359837 0
-0.32714305272986977 0.35783937848933173 0.88943597347979486 0
0.64549707309695215 0.36628506912327363 0.75833447126783282 0
0.091994420455581372 0.62874560237485588 0.61819827203191735 0
0.26431248251324546 0.64087574755708465 0.68804241173359837 0
0.74458644290609077 0.21462529792554641 0.54930341802906812 0
0.71147216798218693 0.31967448120896302 0.6260259075221829 0
0.091994420455581372 -0.37125439762514412 0.61819827203191735 0
-0.16416841024858575 -0.086419107884645574 0.71414527645261972 0
0.73148793483411145 0.79661870934492862 0.67563354958692634 0
0.51747823482595545 0.69392409507672392 0.65480031748387124 0
0.77767752825723024 0.90535517500460938 0.60936166564190197 0
0.47388027213728662 0.64631955254300077 0.47829962668832704 0
0.62344846049855562 0.714937682766419 0.41584984735805031 0
0.67254406861673155 0.76296824248114659 0.38357625624942765 0
0.52112947339924631 0.69607632552300858 0.42923294394458761 0
0.75618426750339307 0.84723094756217976 0.40988006558743983 0
0.34048984963920803 0.66496641520192534 0.48533429240960868 0
0.55366770423914979 0.58776162504503837 0.47756984501937921 0
0.60056057978134447 0.6212326369343899 0.45832072571158178 0
0.40504957575026118 0.64047477230902106 0.47737607772322443 0
0.57281806889870046 0.51844068072251293 0.45761636843210751 0
0.88089607527072855 0.89055430686142045 0.61633859805552293 0
0.67316244675165204 0.32601758924717311 0.46160725223694576 0
1.1572668439083131 0.64116088817869199 0.50968810073236637 0
0.62403848101360215 0.4541600171368429 0.45366310580026381 0
0.75618426750339307 -0.15276905243782024 0.40988006558743983 0
0.88089607527072855 -0.10944569313857955 0.61633859805552293 0
0.70112565973995833 1.2035671728104678 0.38933729444276233 0
0.67316244675165204 1.3260175892471731 0.46160725223694576 0
0.15726684390831314 0.64116088817869199 0.50968810073236637 0
0.74458644290609077 1.2146252979255463 0.54930341802906812 0
-0.11910392472927145 -0.10944569313857955 0.61633859805552293 0
0.15726684390831314 -0.35883911182130801 0.50968810073236637 0
0.5 0 0 0
0.5 0.5 0 0
0 0.5 0 0
0 0 0 0
-0.18390678264107196 -0.16682648641151865 0.16727399923923789 0
1 0 0 0
1 0.5 0 0
0.5 1 0 0
0 1 0 0
1 1 0 0
Hexahedra
56
1 2 3 4 5 6 7 8 0
9 1 4 10 11 5 8 12 0
9 10 13 14 11 12 15 16 0
17 18 19 20 21 22 23 24 0
25 10 26 27 28 13 29 30 0
8 7 22 21 5 6 23 24 0
11 5 8 12 16 24 21 15 0
13 14 16 15 29 31 24 21 0
32 33 34 35 36 37 38 39 0
35 34 40 41 39 38 42 43 0
44 45 46 47 48 49 50 51 0
52 32 35 53 54 36 39 55 0
53 35 41 56 55 39 43 57 0
56 41 45 44 57 43 49 48 0
41 40 58 45 43 42 59 49 0
60 53 56 61 62 55 57 63 0
63 57 48 64 62 55 65 66 0
38 67 68 42 69 70 71 59 0
39 38 42 43 72 69 59 49 0
49 59 73 74 72 69 75 76 0
69 70 71 59 75 77 78 73 0
39 38 69 72 55 65 75 76 0
57 43 49 48 79 80 74 81 0
57 48 65 55 79 81 75 76 0
10 4 17 26 82 83 84 85 0
82 83 84 85 43 57 79 80 0
26 17 20 29 85 84 86 87 0
85 84 86 87 80 79 81 74 0
4 10 12 8 83 82 88 89 0
83 82 88 89 57 43 39 55 0
10 13 15 12 82 90 91 88 0
82 90 91 88 43 49 72 39 0
19 20 24 23 92 86 93 94 0
92 86 93 94 48 81 75 65 0
20 17 21 24 86 84 95 93 0
86 84 95 93 81 79 76 75 0
10 26 29 13 82 85 87 90 0
82 85 87 90 43 80 74 49 0
17 4 8 21 84 83 89 95 0
84 83 89 95 79 57 55 76 0
5 6 23 24 96 97 94 93 0
96 97 94 93 69 38 65 75 0
29 20 98 31 87 86 99 100 0
87 86 99 100 74 81 101 73 0
8 12 15 21 89 88 91 95 0
89 88 91 95 55 39 72 76 0
29 31 24 21 87 100 93 95 0
87 100 93 95 74 73 75 76 0
14 16 24 31 102 103 93 100 0
102 103 93 100 78 77 75 73 0
15 13 29 21 91 90 87 95 0
91 90 87 95 72 49 74 76 0
104 105 106 107 9 10 25 108 0
109 110 105 104 1 4 10 9 0
105 111 112 106 10 26 27 25 0
110 113 111 105 4 17 26 10 0
Quadrilaterals
12
32 35 34 33 0
35 41 40 34 0
44 47 46 45 0
52 53 35 32 0
53 56 41 35 0
56 44 45 41 0
41 45 58 40 0
60 61 56 53 0
104 107 106 105 0
109 104 105 110 0
105 106 112 111 0
110 105 111 113 0
End
