MeshVersionFormatted 2
Dimension 3
Vertices
334
0.81609321735892804 -0.16682648641151865 0.16727399923923789 0
1.2474703367225874 -0.38656101606876037 0.16888314806085403 0
1.3608583868470172 0.48173874500218827 0.045687732505515381 0
0.72986796563370282 0.50467178458350714 0.062669633400791139 0
0.82646854611971021 -0.097971834321987195 0.3204886577109084 0
0.88447672284906054 -0.096957090788280298 0.42384769204631512 0
1.3353384525391174 0.5302002144914284 0.21543005816527924 0
0.68547034817293384 0.38395367552990067 0.14563039048079202 0
0.24747033672258745 -0.38656101606876037 0.16888314806085403 0
0.36085838684701721 0.48173874500218827 0.045687732505515381 0
0.1969910849734903 -0.3703083918231812 0.32182502414997144 0
0.50373558172926958 0.40422703748277805 0.14136970430421097 0
0.33533845253911743 0.5302002144914284 0.21543005816527924 0
-0.11552327715093946 -0.096957090788280298 0.42384769204631512 0
0.50195682634367722 0.42405810489556212 0.21458049390245695 0
0.065737441674439762 -0.35797076821568041 0.422347251081991 0
0.81609321735892804 0.83317351358848135 0.16727399923923789 0
1.2474703367225874 0.61343898393123963 0.16888314806085403 0
0.88447672284906054 0.9030429092117197 0.42384769204631512 0
0.82646854611971021 0.90202816567801281 0.3204886577109084 0
0.65747784244659391 0.32074979035055395 0.29611295600488136 0
1.1969910849734904 0.6296916081768188 0.32182502414997144 0
1.0657374416744398 0.64202923178431959 0.422347251081991 0
0.70112565973995833 0.20356717281046766 0.38933729444276233 0
-0.27013203436629718 0.50467178458350714 0.062669633400791139 0
0.24747033672258745 0.61343898393123963 0.16888314806085403 0
-0.18390678264107196 0.83317351358848135 0.16727399923923789 0
-0.31452965182706616 0.38395367552990067 0.14563039048079202 0
0.1969910849734903 0.6296916081768188 0.32182502414997144 0
-0.34252215755340609 0.32074979035055395 0.29611295600488136 0
0.065737441674439762 0.64202923178431959 0.422347251081991 0
0.75 0 1 0
0.5 -0.25 1 0
0.25 0 1 0
0.5 0.25 1 0
0.75174992424807485 0.04849740148580884 0.96587102553752857 0
0.72928323983525722 -0.24077307328022313 0.78170752264737808 0
0.83583158975141425 -0.086419107884645574 0.71414527645261972 0
0.67285694727013023 0.35783937848933173 0.88943597347979486 0
0 0.25 1 0
0.25 0.5 1 0
0.093026611811971568 0.36247887384943911 0.92314098490797636 0
0.48831719088726971 0.58193007130630425 0.84058007572694005 0
0.25 1 1 0
0 0.75 1 0
-0.25 1 1 0
0 1.25 1 0
0.83583158975141425 0.91358089211535443 0.71414527645261972 0
0.31839939197701933 0.5965871473966613 0.79758903220948074 0
-0.24825007575192515 1.0484974014858088 0.96587102553752857 0
0.093026611811971568 1.3624788738494391 0.92314098490797636 0
1 0.25 1 0
0.75 0.5 1 0
1.0930266118119716 0.36247887384943911 0.92314098490797636 0
0.73941955833621897 0.57442601347237832 0.86347532719812481 0
0.5 0.75 1 0
0.72928323983525722 0.75922692671977687 0.78170752264737808 0
-0.25 0.5 1 0
-0.26058044166378103 0.57442601347237832 0.86347532719812481 0
1 0.75 1 0
0.75 1 1 0
1.3183993919770194 0.5965871473966613 0.79758903220948074 0
0.75174992424807485 1.0484974014858088 0.96587102553752857 0
0.67285694727013023 1.3578393784893317 0.88943597347979486 0
1.0919944204555814 0.62874560237485588 0.61819827203191735 0
1.2643124825132455 0.64087574755708465 0.68804241173359837 0
0.31839939197701933 -0.4034128526033387 0.79758903220948074 0
-0.24825007575192515 0.04849740148580884 0.96587102553752857 0
0.77767752825723024 -0.09464482499539062 0.60936166564190197 0
0.26431248251324546 -0.35912425244291535 0.68804241173359837 0
-0.32714305272986977 0.35783937848933173 0.88943597347979486 0
0.64549707309695215 0.36628506912327363 0.75833447126783282 0
0.091994420455581372 0.62874560237485588 0.61819827203191735 0
0.26431248251324546 0.64087574755708465 0.68804241173359837 0
0.74458644290609077 0.21462529792554641 0.54930341802906812 0
0.71147216798218693 0.31967448120896302 0.6260259075221829 0
0.091994420455581372 -0.37125439762514412 0.61819827203191735 0
-0.16416841024858575 -0.086419107884645574 0.71414527645261972 0
0.73148793483411145 0.79661870934492862 0.67563354958692634 0
0.51747823482595545 0.69392409507672392 0.65480031748387124 0
0.77767752825723024 0.90535517500460938 0.60936166564190197 0
0.47388027213728662 0.64631955254300077 0.47829962668832704 0
0.62344846049855562 0.714937682766419 0.41584984735805031 0
0.67254406861673155 0.76296824248114659 0.38357625624942765 0
0.52112947339924631 0.69607632552300858 0.42923294394458761 0
0.75618426750339307 0.84723094756217976 0.40988006558743983 0
0.34048984963920803 0.66496641520192534 0.48533429240960868 0
0.55366770423914979 0.58776162504503837 0.47756984501937921 0
0.60056057978134447 0.6212326369343899 0.45832072571158178 0
0.40504957575026118 0.64047477230902106 0.47737607772322443 0
0.57281806889870046 0.51844068072251293 0.45761636843210751 0
0.88089607527072855 0.89055430686142045 0.61633859805552293 0
0.67316244675165204 0.32601758924717311 0.46160725223694576 0
1.1572668439083131 0.64116088817869199 0.50968810073236637 0
0.62403848101360215 0.4541600171368429 0.45366310580026381 0
0.75618426750339307 -0.15276905243782024 0.40988006558743983 0
0.88089607527072855 -0.10944569313857955 0.61633859805552293 0
0.70112565973995833 1.2035671728104678 0.38933729444276233 0
0.67316244675165204 1.3260175892471731 0.46160725223694576 0
0.15726684390831314 0.64116088817869199 0.50968810073236637 0
0.74458644290609077 1.2146252979255463 0.54930341802906812 0
-0.11910392472927145 -0.10944569313857955 0.61633859805552293 0
0.15726684390831314 -0.35883911182130801 0.50968810073236637 0
0.5 0 0 0
0.5 0.5 0 0
0 0.5 0 0
0 0 0 0
-0.18390678264107196 -0.16682648641151865 0.16727399923923789 0
1 0 0 0
1 0.5 0 0
0.5 1 0 0
0 1 0 0
1 1 0 0
1.3608583868470172 1.4817387450021884 0.045687732505515381 0
0.72986796563370282 1.5046717845835071 0.062669633400791139 0
1.3353384525391174 1.5302002144914284 0.21543005816527924 0
0.68547034817293384 1.3839536755299007 0.14563039048079202 0
0.36085838684701721 1.4817387450021884 0.045687732505515381 0
0.50373558172926958 1.4042270374827781 0.14136970430421097 0
0.33533845253911743 1.5302002144914284 0.21543005816527924 0
-0.11552327715093946 0.9030429092117197 0.42384769204631512 0
0.50195682634367722 1.4240581048955621 0.21458049390245695 0
0.81609321735892804 1.8331735135884815 0.16727399923923789 0
1.2474703367225874 1.6134389839312395 0.16888314806085403 0
0.88447672284906054 1.9030429092117198 0.42384769204631512 0
0.82646854611971021 1.9020281656780127 0.3204886577109084 0
0.65747784244659391 1.3207497903505541 0.29611295600488136 0
1.1969910849734904 1.6296916081768189 0.32182502414997144 0
1.0657374416744398 1.6420292317843197 0.422347251081991 0
-0.27013203436629718 1.5046717845835071 0.062669633400791139 0
0.24747033672258745 1.6134389839312395 0.16888314806085403 0
-0.18390678264107196 1.8331735135884815 0.16727399923923789 0
-0.31452965182706616 1.3839536755299007 0.14563039048079202 0
0.1969910849734903 1.6296916081768189 0.32182502414997144 0
-0.34252215755340609 1.3207497903505541 0.29611295600488136 0
0.065737441674439762 1.6420292317843197 0.422347251081991 0
0.5 1.25 1 0
0.25 1.5 1 0
0.48831719088726971 1.5819300713063043 0.84058007572694005 0
0.25 2 1 0
0 1.75 1 0
-0.25 2 1 0
0 2.25 1 0
0.83583158975141425 1.9135808921153545 0.71414527645261972 0
0.31839939197701933 1.5965871473966613 0.79758903220948074 0
-0.24825007575192515 2.0484974014858088 0.96587102553752857 0
0.093026611811971568 2.3624788738494393 0.92314098490797636 0
1 1.25 1 0
0.75 1.5 1 0
1.0930266118119716 1.3624788738494391 0.92314098490797636 0
0.73941955833621897 1.5744260134723782 0.86347532719812481 0
0.5 1.75 1 0
0.72928323983525722 1.7592269267197769 0.78170752264737808 0
-0.25 1.5 1 0
-0.26058044166378103 1.5744260134723782 0.86347532719812481 0
1 1.75 1 0
0.75 2 1 0
1.3183993919770194 1.5965871473966613 0.79758903220948074 0
0.75174992424807485 2.0484974014858088 0.96587102553752857 0
0.67285694727013023 2.3578393784893317 0.88943597347979486 0
1.0919944204555814 1.6287456023748559 0.61819827203191735 0
1.2643124825132455 1.6408757475570845 0.68804241173359837 0
-0.32714305272986977 1.3578393784893317 0.88943597347979486 0
0.64549707309695215 1.3662850691232737 0.75833447126783282 0
0.091994420455581372 1.6287456023748559 0.61819827203191735 0
0.26431248251324546 1.6408757475570845 0.68804241173359837 0
0.71147216798218693 1.3196744812089629 0.6260259075221829 0
-0.16416841024858575 0.91358089211535443 0.71414527645261972 0
0.73148793483411145 1.7966187093449286 0.67563354958692634 0
0.51747823482595545 1.6939240950767238 0.65480031748387124 0
0.77767752825723024 1.9053551750046094 0.60936166564190197 0
0.47388027213728662 1.6463195525430008 0.47829962668832704 0
0.62344846049855562 1.7149376827664189 0.41584984735805031 0
0.67254406861673155 1.7629682424811466 0.38357625624942765 0
0.52112947339924631 1.6960763255230087 0.42923294394458761 0
0.75618426750339307 1.8472309475621798 0.40988006558743983 0
0.34048984963920803 1.6649664152019255 0.48533429240960868 0
0.55366770423914979 1.5877616250450384 0.47756984501937921 0
0.60056057978134447 1.6212326369343899 0.45832072571158178 0
0.40504957575026118 1.6404747723090209 0.47737607772322443 0
0.57281806889870046 1.518440680722513 0.45761636843210751 0
0.88089607527072855 1.8905543068614206 0.61633859805552293 0
1.1572668439083131 1.6411608881786921 0.50968810073236637 0
0.62403848101360215 1.454160017136843 0.45366310580026381 0
0.70112565973995833 2.2035671728104678 0.38933729444276233 0
0.67316244675165204 2.3260175892471731 0.46160725223694576 0
0.15726684390831314 1.6411608881786921 0.50968810073236637 0
0.74458644290609077 2.2146252979255463 0.54930341802906812 0
-0.11910392472927145 0.89055430686142045 0.61633859805552293 0
0.5 1.5 0 0
0 1.5 0 0
1 1.5 0 0
0.5 2 0 0
0 2 0 0
1 2 0 0
1.8160932173589281 -0.16682648641151865 0.16727399923923789 0
2.2474703367225874 -0.38656101606876037 0.16888314806085403 0
2.360858386847017 0.48173874500218827 0.045687732505515381 0
1.7298679656337028 0.50467178458350714 0.062669633400791139 0
1.8264685461197101 -0.097971834321987195 0.3204886577109084 0
1.8844767228490604 -0.096957090788280298 0.42384769204631512 0
2.3353384525391174 0.5302002144914284 0.21543005816527924 0
1.6854703481729338 0.38395367552990067 0.14563039048079202 0
1.1969910849734904 -0.3703083918231812 0.32182502414997144 0
1.5037355817292695 0.40422703748277805 0.14136970430421097 0
1.5019568263436773 0.42405810489556212 0.21458049390245695 0
1.0657374416744398 -0.35797076821568041 0.422347251081991 0
1.8160932173589281 0.83317351358848135 0.16727399923923789 0
2.2474703367225874 0.61343898393123963 0.16888314806085403 0
1.8844767228490604 0.9030429092117197 0.42384769204631512 0
1.8264685461197101 0.90202816567801281 0.3204886577109084 0
1.6574778424465939 0.32074979035055395 0.29611295600488136 0
2.1969910849734902 0.6296916081768188 0.32182502414997144 0
2.0657374416744396 0.64202923178431959 0.422347251081991 0
1.7011256597399584 0.20356717281046766 0.38933729444276233 0
1.75 0 1 0
1.5 -0.25 1 0
1.25 0 1 0
1.5 0.25 1 0
1.7517499242480747 0.04849740148580884 0.96587102553752857 0
1.7292832398352571 -0.24077307328022313 0.78170752264737808 0
1.8358315897514141 -0.086419107884645574 0.71414527645261972 0
1.6728569472701302 0.35783937848933173 0.88943597347979486 0
1.25 0.5 1 0
1.4883171908872697 0.58193007130630425 0.84058007572694005 0
1.25 1 1 0
1.8358315897514141 0.91358089211535443 0.71414527645261972 0
2 0.25 1 0
1.75 0.5 1 0
2.0930266118119714 0.36247887384943911 0.92314098490797636 0
1.7394195583362189 0.57442601347237832 0.86347532719812481 0
1.5 0.75 1 0
1.7292832398352571 0.75922692671977687 0.78170752264737808 0
2 0.75 1 0
1.75 1 1 0
2.3183993919770192 0.5965871473966613 0.79758903220948074 0
1.7517499242480747 1.0484974014858088 0.96587102553752857 0
1.6728569472701302 1.3578393784893317 0.88943597347979486 0
2.0919944204555811 0.62874560237485588 0.61819827203191735 0
2.2643124825132457 0.64087574755708465 0.68804241173359837 0
1.3183993919770194 -0.4034128526033387 0.79758903220948074 0
1.7776775282572301 -0.09464482499539062 0.60936166564190197 0
1.2643124825132455 -0.35912425244291535 0.68804241173359837 0
1.6454970730969523 0.36628506912327363 0.75833447126783282 0
1.7445864429060909 0.21462529792554641 0.54930341802906812 0
1.7114721679821869 0.31967448120896302 0.6260259075221829 0
1.0919944204555814 -0.37125439762514412 0.61819827203191735 0
1.7314879348341115 0.79661870934492862 0.67563354958692634 0
1.5174782348259555 0.69392409507672392 0.65480031748387124 0
1.7776775282572301 0.90535517500460938 0.60936166564190197 0
1.4738802721372866 0.64631955254300077 0.47829962668832704 0
1.6234484604985555 0.714937682766419 0.41584984735805031 0
1.6725440686167317 0.76296824248114659 0.38357625624942765 0
1.5211294733992462 0.69607632552300858 0.42923294394458761 0
1.756184267503393 0.84723094756217976 0.40988006558743983 0
1.3404898496392081 0.66496641520192534 0.48533429240960868 0
1.5536677042391498 0.58776162504503837 0.47756984501937921 0
1.6005605797813445 0.6212326369343899 0.45832072571158178 0
1.4050495757502612 0.64047477230902106 0.47737607772322443 0
1.5728180688987003 0.51844068072251293 0.45761636843210751 0
1.8808960752707287 0.89055430686142045 0.61633859805552293 0
1.6731624467516522 0.32601758924717311 0.46160725223694576 0
2.1572668439083129 0.64116088817869199 0.50968810073236637 0
1.6240384810136022 0.4541600171368429 0.45366310580026381 0
1.756184267503393 -0.15276905243782024 0.40988006558743983 0
1.8808960752707287 -0.10944569313857955 0.61633859805552293 0
1.7011256597399584 1.2035671728104678 0.38933729444276233 0
1.6731624467516522 1.3260175892471731 0.46160725223694576 0
1.7445864429060909 1.2146252979255463 0.54930341802906812 0
1.1572668439083131 -0.35883911182130801 0.50968810073236637 0
1.5 0 0 0
1.5 0.5 0 0
2 0 0 0
2 0.5 0 0
1.5 1 0 0
2 1 0 0
2.360858386847017 1.4817387450021884 0.045687732505515381 0
1.7298679656337028 1.5046717845835071 0.062669633400791139 0
2.3353384525391174 1.5302002144914284 0.21543005816527924 0
1.6854703481729338 1.3839536755299007 0.14563039048079202 0
1.5037355817292695 1.4042270374827781 0.14136970430421097 0
1.5019568263436773 1.4240581048955621 0.21458049390245695 0
1.8160932173589281 1.8331735135884815 0.16727399923923789 0
2.2474703367225874 1.6134389839312395 0.16888314806085403 0
1.8844767228490604 1.9030429092117198 0.42384769204631512 0
1.8264685461197101 1.9020281656780127 0.3204886577109084 0
1.6574778424465939 1.3207497903505541 0.29611295600488136 0
2.1969910849734902 1.6296916081768189 0.32182502414997144 0
2.0657374416744396 1.6420292317843197 0.422347251081991 0
1.5 1.25 1 0
1.25 1.5 1 0
1.4883171908872697 1.5819300713063043 0.84058007572694005 0
1.25 2 1 0
1 2.25 1 0
1.8358315897514141 1.9135808921153545 0.71414527645261972 0
1.0930266118119716 2.3624788738494393 0.92314098490797636 0
2 1.25 1 0
1.75 1.5 1 0
2.0930266118119714 1.3624788738494391 0.92314098490797636 0
1.7394195583362189 1.5744260134723782 0.86347532719812481 0
1.5 1.75 1 0
1.7292832398352571 1.7592269267197769 0.78170752264737808 0
2 1.75 1 0
1.75 2 1 0
2.3183993919770192 1.5965871473966613 0.79758903220948074 0
1.7517499242480747 2.0484974014858088 0.96587102553752857 0
1.6728569472701302 2.3578393784893317 0.88943597347979486 0
2.0919944204555811 1.6287456023748559 0.61819827203191735 0
2.2643124825132457 1.6408757475570845 0.68804241173359837 0
1.6454970730969523 1.3662850691232737 0.75833447126783282 0
1.7114721679821869 1.3196744812089629 0.6260259075221829 0
1.7314879348341115 1.7966187093449286 0.67563354958692634 0
1.5174782348259555 1.6939240950767238 0.65480031748387124 0
1.7776775282572301 1.9053551750046094 0.60936166564190197 0
1.4738802721372866 1.6463195525430008 0.47829962668832704 0
1.6234484604985555 1.7149376827664189 0.41584984735805031 0
1.6725440686167317 1.7629682424811466 0.38357625624942765 0
1.5211294733992462 1.6960763255230087 0.42923294394458761 0
1.756184267503393 1.8472309475621798 0.40988006558743983 0
1.3404898496392081 1.6649664152019255 0.48533429240960868 0
1.5536677042391498 1.5877616250450384 0.47756984501937921 0
1.6005605797813445 1.6212326369343899 0.45832072571158178 0
1.4050495757502612 1.6404747723090209 0.47737607772322443 0
1.5728180688987003 1.518440680722513 0.45761636843210751 0
1.8808960752707287 1.8905543068614206 0.61633859805552293 0
2.1572668439083129 1.6411608881786921 0.50968810073236637 0
1.6240384810136022 1.454160017136843 0.45366310580026381 0
1.7011256597399584 2.2035671728104678 0.38933729444276233 0
1.6731624467516522 2.3260175892471731 0.46160725223694576 0
1.7445864429060909 2.2146252979255463 0.54930341802906812 0
1.5 1.5 0 0
2 1.5 0 0
1.5 2 0 0
2 2 0 0
Hexahedra
224
1 2 3 4 5 6 7 8 0
9 1 4 10 11 5 8 12 0
9 10 13 14 11 12 15 16 0
17 18 19 20 21 22 23 24 0
25 10 26 27 28 13 29 30 0
8 7 22 21 5 6 23 24 0
11 5 8 12 16 24 21 15 0
13 14 16 15 29 31 24 21 0
32 33 34 35 36 37 38 39 0
35 34 40 41 39 38 42 43 0
44 45 46 47 48 49 50 51 0
52 32 35 53 54 36 39 55 0
53 35 41 56 55 39 43 57 0
56 41 45 44 57 43 49 48 0
41 40 58 45 43 42 59 49 0
60 53 56 61 62 55 57 63 0
63 57 48 64 62 55 65 66 0
38 67 68 42 69 70 71 59 0
39 38 42 43 72 69 59 49 0
49 59 73 74 72 69 75 76 0
69 70 71 59 75 77 78 73 0
39 38 69 72 55 65 75 76 0
57 43 49 48 79 80 74 81 0
57 48 65 55 79 81 75 76 0
10 4 17 26 82 83 84 85 0
82 83 84 85 43 57 79 80 0
26 17 20 29 85 84 86 87 0
85 84 86 87 80 79 81 74 0
4 10 12 8 83 82 88 89 0
83 82 88 89 57 43 39 55 0
10 13 15 12 82 90 91 88 0
82 90 91 88 43 49 72 39 0
19 20 24 23 92 86 93 94 0
92 86 93 94 48 81 75 65 0
20 17 21 24 86 84 95 93 0
86 84 95 93 81 79 76 75 0
10 26 29 13 82 85 87 90 0
82 85 87 90 43 80 74 49 0
17 4 8 21 84 83 89 95 0
84 83 89 95 79 57 55 76 0
5 6 23 24 96 97 94 93 0
96 97 94 93 69 38 65 75 0
29 20 98 31 87 86 99 100 0
87 86 99 100 74 81 101 73 0
8 12 15 21 89 88 91 95 0
89 88 91 95 55 39 72 76 0
29 31 24 21 87 100 93 95 0
87 100 93 95 74 73 75 76 0
14 16 24 31 102 103 93 100 0
102 103 93 100 78 77 75 73 0
15 13 29 21 91 90 87 95 0
91 90 87 95 72 49 74 76 0
104 105 106 107 9 10 25 108 0
109 110 105 104 1 4 10 9 0
105 111 112 106 10 26 27 25 0
110 113 111 105 4 17 26 10 0
17 18 114 115 20 19 116 117 0
26 17 115 118 29 20 117 119 0
26 118 120 121 29 119 122 31 0
123 124 125 126 127 128 129 98 0
130 118 131 132 133 120 134 135 0
117 116 128 127 20 19 129 98 0
29 20 117 119 31 98 127 122 0
120 121 31 122 134 136 98 127 0
61 56 44 137 63 57 48 64 0
137 44 47 138 64 48 51 139 0
140 141 142 143 144 145 146 147 0
148 61 137 149 150 63 64 151 0
149 137 138 152 151 64 139 153 0
152 138 141 140 153 139 145 144 0
138 47 154 141 139 51 155 145 0
156 149 152 157 158 151 153 159 0
159 153 144 160 158 151 161 162 0
48 49 50 51 81 74 163 155 0
64 48 51 139 164 81 155 145 0
145 155 165 166 164 81 101 167 0
81 74 163 155 101 73 168 165 0
64 48 81 164 151 161 101 167 0
153 139 145 144 169 170 166 171 0
153 144 161 151 169 171 101 167 0
118 115 123 131 172 173 174 175 0
172 173 174 175 139 153 169 170 0
131 123 126 134 175 174 176 177 0
175 174 176 177 170 169 171 166 0
115 118 119 117 173 172 178 179 0
173 172 178 179 153 139 64 151 0
118 120 122 119 172 180 181 178 0
172 180 181 178 139 145 164 64 0
125 126 98 129 182 176 99 183 0
182 176 99 183 144 171 101 161 0
126 123 127 98 176 174 184 99 0
176 174 184 99 171 169 167 101 0
118 131 134 120 172 175 177 180 0
172 175 177 180 139 170 166 145 0
123 115 117 127 174 173 179 184 0
174 173 179 184 169 153 151 167 0
20 19 129 98 86 92 183 99 0
86 92 183 99 81 48 161 101 0
134 126 185 136 177 176 186 187 0
177 176 186 187 166 171 188 165 0
117 119 122 127 179 178 181 184 0
179 178 181 184 151 64 164 167 0
134 136 98 127 177 187 99 184 0
177 187 99 184 166 165 101 167 0
121 31 98 136 189 100 99 187 0
189 100 99 187 168 73 101 165 0
122 120 134 127 181 180 177 184 0
181 180 177 184 164 145 166 167 0
111 190 191 112 26 118 130 27 0
113 192 190 111 17 115 118 26 0
190 193 194 191 118 131 132 130 0
192 195 193 190 115 123 131 118 0
196 197 198 199 200 201 202 203 0
2 196 199 3 204 200 203 205 0
2 3 7 6 204 205 206 207 0
208 209 210 211 212 213 214 215 0
4 3 18 17 8 7 22 21 0
203 202 213 212 200 201 214 215 0
204 200 203 205 207 215 212 206 0
7 6 207 206 22 23 215 212 0
216 217 218 219 220 221 222 223 0
219 218 52 224 223 222 54 225 0
226 60 61 148 227 62 63 150 0
228 216 219 229 230 220 223 231 0
229 219 224 232 231 223 225 233 0
232 224 60 226 233 225 62 227 0
224 52 53 60 225 54 55 62 0
234 229 232 235 236 231 233 237 0
237 233 227 238 236 231 239 240 0
222 241 36 54 242 243 39 55 0
223 222 54 225 244 242 55 62 0
62 55 65 66 244 242 245 246 0
242 243 39 55 245 247 38 65 0
223 222 242 244 231 239 245 246 0
233 225 62 227 248 249 66 250 0
233 227 239 231 248 250 245 246 0
3 199 208 18 251 252 253 254 0
251 252 253 254 225 233 248 249 0
18 208 211 22 254 253 255 256 0
254 253 255 256 249 248 250 66 0
199 3 205 203 252 251 257 258 0
252 251 257 258 233 225 223 231 0
3 7 206 205 251 259 260 257 0
251 259 260 257 225 62 244 223 0
210 211 215 214 261 255 262 263 0
261 255 262 263 227 250 245 239 0
211 208 212 215 255 253 264 262 0
255 253 264 262 250 248 246 245 0
3 18 22 7 251 254 256 259 0
251 254 256 259 225 249 66 62 0
208 199 203 212 253 252 258 264 0
253 252 258 264 248 233 231 246 0
200 201 214 215 265 266 263 262 0
265 266 263 262 242 222 239 245 0
22 211 267 23 256 255 268 94 0
256 255 268 94 66 250 269 65 0
203 205 206 212 258 257 260 264 0
258 257 260 264 231 223 244 246 0
22 23 215 212 256 94 262 264 0
256 94 262 264 66 65 245 246 0
6 207 215 23 97 270 262 94 0
97 270 262 94 38 247 245 65 0
206 7 22 212 260 259 256 264 0
260 259 256 264 244 62 66 246 0
271 272 110 109 2 3 4 1 0
273 274 272 271 196 199 3 2 0
272 275 113 110 3 18 17 4 0
274 276 275 272 199 208 18 3 0
208 209 277 278 211 210 279 280 0
18 208 278 114 22 211 280 281 0
18 114 116 19 22 281 282 23 0
283 284 285 286 287 288 289 267 0
115 114 124 123 117 116 128 127 0
280 279 288 287 211 210 289 267 0
22 211 280 281 23 267 287 282 0
116 19 23 282 128 129 267 287 0
235 232 226 290 237 233 227 238 0
290 226 148 291 238 227 150 292 0
293 156 157 294 295 158 159 296 0
297 235 290 298 299 237 238 300 0
298 290 291 301 300 238 292 302 0
301 291 156 293 302 292 158 295 0
291 148 149 156 292 150 151 158 0
303 298 301 304 305 300 302 306 0
306 302 295 307 305 300 308 309 0
227 62 63 150 250 66 64 151 0
238 227 150 292 310 250 151 158 0
158 151 161 162 310 250 269 311 0
250 66 64 151 269 65 48 161 0
238 227 250 310 300 308 269 311 0
302 292 158 295 312 313 162 314 0
302 295 308 300 312 314 269 311 0
114 278 283 124 315 316 317 318 0
315 316 317 318 292 302 312 313 0
124 283 286 128 318 317 319 320 0
318 317 319 320 313 312 314 162 0
278 114 281 280 316 315 321 322 0
316 315 321 322 302 292 238 300 0
114 116 282 281 315 323 324 321 0
315 323 324 321 292 158 310 238 0
285 286 267 289 325 319 268 326 0
325 319 268 326 295 314 269 308 0
286 283 287 267 319 317 327 268 0
319 317 327 268 314 312 311 269 0
114 124 128 116 315 318 320 323 0
315 318 320 323 292 313 162 158 0
283 278 280 287 317 316 322 327 0
317 316 322 327 312 302 300 311 0
211 210 289 267 255 261 326 268 0
255 261 326 268 250 227 308 269 0
128 286 328 129 320 319 329 183 0
320 319 329 183 162 314 330 161 0
280 281 282 287 322 321 324 327 0
322 321 324 327 300 238 310 311 0
128 129 267 287 320 183 268 327 0
320 183 268 327 162 161 269 311 0
19 23 267 129 92 94 268 183 0
92 94 268 183 48 65 269 161 0
282 116 128 287 324 323 320 327 0
324 323 320 327 310 158 162 311 0
275 331 192 113 18 114 115 17 0
276 332 331 275 208 278 114 18 0
331 333 195 192 114 124 123 115 0
332 334 333 331 278 283 124 114 0
Quadrilaterals
48
32 35 34 33 0
35 41 40 34 0
44 47 46 45 0
52 53 35 32 0
53 56 41 35 0
56 44 45 41 0
41 45 58 40 0
60 61 56 53 0
104 107 106 105 0
109 104 105 110 0
105 106 112 111 0
110 105 111 113 0
61 137 44 56 0
137 138 47 44 0
140 143 142 141 0
148 149 137 61 0
149 152 138 137 0
152 140 141 138 0
138 141 154 47 0
156 157 152 149 0
111 112 191 190 0
113 111 190 192 0
190 191 194 193 0
192 190 193 195 0
216 219 218 217 0
219 224 52 218 0
226 148 61 60 0
228 229 219 216 0
229 232 224 219 0
232 226 60 224 0
224 60 53 52 0
234 235 232 229 0
271 109 110 272 0
273 271 272 274 0
272 110 113 275 0
274 272 275 276 0
235 290 226 232 0
290 291 148 226 0
293 294 157 156 0
297 298 290 235 0
298 301 291 290 0
301 293 156 291 0
291 156 149 148 0
303 304 301 298 0
275 113 192 331 0
276 275 331 332 0
331 192 195 333 0
332 331 333 334 0
End
