MeshVersionFormatted 2
Dimension 3
Vertices
140
0.74213396515189745 0.98359473888029214 0.29459534536900273 0
0.5 1 0 0
1 1 0 0
1.1726488169868796 1.0398379757613978 0.52877998105191859 0
0.73119680565731726 0.617858567390975 0.16154253594513301 0
0.5 0.5 0 0
1 0.5 0 0
1.0393350903768559 0.58768822268354848 0.17293511763835237 0
0.38529678729402611 1.0742347719687817 0.33322045121114602 0
0.28968601628548701 0.61759081124758453 0.17645943573536063 0
0.57407786025541785 1.0304547888136726 0.36175602929298617 0
0.50214947098681129 0.70691855621001876 0.25557029653778623 0
0.039335090376855897 0.58768822268354848 0.17293511763835237 0
0 0.5 0 0
0.17264881698687962 1.0398379757613978 0.52877998105191859 0
0 1 0 0
1.0754656966806824 0.5321456640802763 0.27740464975336099 0
0.81458986085538743 0.53902577017269127 0.22698021101094285 0
0.8654416950772208 0.50029564789252579 0.37958675004128106 0
1.1564210583663368 0.54100598554645118 0.48291453958343983 0
0.69705066946781435 0.36789667219436301 0.40158719331577131 0
0.77491846060969949 0.3567582569431173 0.49870682575485575 0
0.5736005554727629 0.57896841778304475 0.39676250976908789 0
0.67349750032353495 0.54089470965495656 0.48124411770743586 0
0.65883348965048549 1.0550686869209565 0.50497809262866267 0
0.48398648865474486 0.72171931203844686 0.47714864238360744 0
0.47554089183393533 0.70227864935123963 0.38140917794118484 0
0.4821303501071284 0.64316514870229835 0.30124265144695023 0
0.63062921012539563 0.57235233319772572 0.25946283189533909 0
0.67214146315271361 0.48208170739371631 0.28687061042359507 0
0.79269067593593423 0.41637884481783233 0.16323855824243766 0
1.1195937510914593 0.46127081525255714 0.16586404836780441 0
0.6479915019586634 0.41646710073901455 0.21690284366977397 0
0.36272408368383097 0.44995535605407577 0.12509157287022921 0
0.31121984612174636 0.54295801707170321 0.25986904941756472 0
0.5 0 0 0
1 0 0 0
0.74213396515189745 -0.016405261119707859 0.29459534536900273 0
1.1726488169868796 0.039837975761397804 0.52877998105191859 0
0.07546569668068237 0.5321456640802763 0.27740464975336099 0
0.11959375109145931 0.46127081525255714 0.16586404836780441 0
0.57407786025541785 0.030454788813672584 0.36175602929298617 0
0.38529678729402611 0.074234771968781699 0.33322045121114602 0
0.17264881698687962 0.039837975761397804 0.52877998105191859 0
0 0 0 0
0.1564210583663368 0.54100598554645118 0.48291453958343983 0
0.28756782912953288 0.56115989549870282 0.3971867143358439 0
0.65883348965048549 0.055068686920956456 0.50497809262866267 0
0.93292356872511473 0.73807875397647726 0.69119747674476251 0
0.70360454366978342 0.85810338739698311 0.60620023818577717 0
0.57606987680541966 0.64383452434058352 0.57488926682132691 0
0.70667411171634398 0.52067800408418374 0.6361585237154268 0
0.78134004463971729 0.40534599274164829 0.56066815268497916 0
1.0282124625380993 0.55912196541701398 0.58914610226564867 0
0.48316649289900493 0.74477369049507713 0.62199650832848508 0
0.38787516424478302 0.55783969177683579 0.59089623372644406 0
0.67611785725480977 0.18631837609846591 0.57972139045463322 0
0.50588685929650212 0.31128953184420399 0.71254282342799657 0
0.68496206976216112 0.52766742348067897 0.85215078688221602 0
0.88643043661789855 0.34585181194184211 0.62287957380030523 0
0.38334039964848116 0.85611806669737756 0.74385409282000647 0
0.50001614014741225 0.75017924211284015 1 0
0.2500161401474123 1.0001792421128402 1 0
0.14822592704402149 0.62052689843783126 0.90814723720223012 0
0.25001614014741236 0.50017924211284015 1 0
1.6140147412338095e-05 0.75017924211284015 1 0
-0.031811038936369718 0.77323913969138747 0.88506514129288372 0
0.60027591568486927 0.62077690250082485 0.86325831005233211 0
0.40284837917662586 0.48345266136995113 0.90813838865855223 0
0.47906019268245503 0.771163195191786 0.71542665668155558 0
0.33169945895438185 0.53816811922133256 0.84637304313842732 0
0.58552927099344765 0.35370634191365646 0.90197130890776422 0
0.50001614014741225 0.25017924211284015 1 0
0.75001614014741225 0.50017924211284015 1 0
-0.096319244892156153 0.74234956901780946 0.82019300285464691 0
0.061382125949067397 0.56089072603354317 0.85175438075364307 0
0.084313052704359265 0.66642853691146275 0.6952701950875293 0
-0.067076431274885273 0.73807875397647726 0.69119747674476251 0
0.08684895948347772 0.56354003881807435 0.63178514986043188 0
0.028212462538099281 0.55912196541701398 0.58914610226564867 0
0.21291108707068568 0.5251680979173079 0.60640229211317276 0
0.33005882208022003 0.52272908039789645 0.63324557008131144 0
0.29429072290175168 0.50469940626507315 0.76895564114780235 0
0.23498768833021971 0.50426504074875267 0.78562975635781163 0
0.12407125676820116 0.51829669669932488 0.74421419591182592 0
-0.0082707609866848886 0.48983847716862977 0.87849290952472314 0
-0.1177911522054722 0.6604161424706434 0.90281867887235001 0
0.057460875748533535 0.44541653225420363 0.78369708162091067 0
0.24997439265794702 0.41764606167564883 0.90261693352479289 0
0.32299004961180477 0.42489789089859692 0.82868785925742083 0
1.0000161401474124 0.75017924211284015 1 0
1.2500161401474124 0.50017924211284015 1 0
1.0000161401474124 0.25017924211284015 1 0
0.8822088477945278 0.6604161424706434 0.90281867887235001 0
0.99172923901331511 0.48983847716862977 0.87849290952472314 0
0.78654121746551897 0.41502865356253199 0.84602062077974172 0
0.49033281734302964 0.32031625971686595 0.80145527852484544 0
0.43498112821612583 0.25106270376395301 0.88609865472268512 0
-0.094779073328944752 0.31696754382559539 0.68986384650997845 0
-0.21345878253448103 0.41502865356253199 0.84602062077974172 0
0.024449630129210004 0.22164540026614396 0.72221904762750433 0
1.6140147412357919e-05 0.25017924211284015 1 0
0.2500161401474123 0.00017924211284015001 1 0
0.34197593656019726 0.39553780032929664 0.70326244328319398 0
-0.11356956338210145 0.34585181194184211 0.62287957380030523 0
0.90368075510784385 0.74234956901780946 0.82019300285464691 0
1.0613821259490674 0.56089072603354317 0.85175438075364307 0
1.0843130527043592 0.66642853691146275 0.6952701950875293 0
1.0868489594834778 0.56354003881807435 0.63178514986043188 0
0.90522092667105525 0.31696754382559539 0.68986384650997845 0
1.0244496301292101 0.22164540026614396 0.72221904762750433 0
1.2500161401474124 0.00017924211284015001 1 0
0.75001614014741225 0.00017924211284015001 1 0
0.82327336914736027 -0.02018763373331478 0.90855183805911 0
0.96818896106363028 -0.22676086030861253 0.88506514129288372 0
1.0000161401474124 -0.24982075788715985 1 0
0.73821848718481553 0.26495617083971473 0.86837331314230637 0
0.787813025281489 0.17994308355459793 0.78015304176083933 0
0.81057713128186237 0.91232328772834159 0.83919497540490928 0
0.84974742848681928 0.90228474160422512 0.69278999199341129 0
0.82327336914736027 0.97981236626668522 0.90855183805911 0
0.96818896106363028 0.77323913969138747 0.88506514129288372 0
1.0244496301292101 1.2216454002661439 0.72221904762750433 0
0.72245300262156154 0.90556956466180705 0.62925660905485192 0
0.69810974749379717 1.0192354979476417 0.59583848596221289 0
0.66876504751322641 0.1485239907988459 0.61167088578744166 0
0.69810974749379717 0.019235497947641678 0.59583848596221289 0
0.72003110281945526 0.096215513517877313 0.75731141456887163 0
0.72381341590079595 0.0016642722283342071 0.77567962135039481 0
0.72381341590079595 1.0016642722283342 0.77567962135039481 0
0.72823867452535995 0.93541554448876785 0.75545369803336249 0
0.75001614014741225 1.0001792421128402 1 0
0.75894572369127211 0.82840340561091219 0.90657726714331255 0
0.69591665494515387 0.89860930379912374 0.84086642533619393 0
0.62371266506499401 1.1067529449087501 0.90230131418931114 0
0.62371266506499401 0.10675294490875009 0.90230131418931114 0
0.69243520554373816 0.20976584541645524 0.84647140016167188 0
0.50001614014741225 -0.24982075788715985 1 0
0.38334039964848116 -0.14388193330262244 0.74385409282000647 0
0.5758245888873198 0.17076236782253024 0.68854027115708372 0
Hexahedra
86
1 2 3 4 5 6 7 8 0
9 10 6 2 11 12 5 1 0
13 10 6 14 15 9 2 16 0
17 18 19 20 8 5 1 4 0
20 19 21 22 4 1 23 24 0
25 11 1 4 26 27 23 24 0
27 28 12 11 23 29 5 1 0
23 29 5 1 21 30 18 19 0
8 5 6 7 17 18 31 32 0
30 33 34 29 18 31 6 5 0
29 34 35 28 5 6 10 12 0
7 6 36 37 32 31 38 39 0
40 35 34 41 13 10 6 14 0
42 33 31 38 43 34 6 36 0
14 41 44 45 6 34 43 36 0
46 47 43 44 40 35 34 41 0
22 21 42 48 24 23 43 44 0
26 27 23 24 46 47 43 44 0
23 29 34 43 27 28 35 47 0
21 30 33 42 23 29 34 43 0
17 18 31 32 20 19 38 39 0
21 30 18 19 42 33 31 38 0
20 19 38 39 22 21 42 48 0
46 47 9 15 26 27 11 25 0
47 35 10 9 27 28 12 11 0
40 35 10 13 46 47 9 15 0
4 25 26 24 49 50 51 52 0
22 20 4 24 53 54 49 52 0
15 46 26 25 55 56 51 50 0
48 22 24 44 57 53 52 58 0
59 49 54 60 58 52 53 57 0
60 54 20 39 57 53 22 48 0
59 58 56 55 49 52 51 50 0
46 56 58 44 26 51 52 24 0
61 62 63 15 64 65 66 67 0
68 69 65 62 70 71 64 61 0
72 69 65 73 59 68 62 74 0
75 76 77 78 67 64 61 15 0
78 77 79 80 15 61 81 46 0
55 70 61 15 56 82 81 46 0
82 83 71 70 81 84 64 61 0
81 84 64 61 79 85 76 77 0
67 64 65 66 75 76 86 87 0
85 88 89 84 76 86 65 64 0
84 89 90 83 64 65 69 71 0
91 92 93 74 94 95 96 59 0
97 90 89 98 72 69 65 73 0
99 88 86 100 101 89 65 102 0
73 98 44 103 65 89 101 102 0
58 104 101 44 97 90 89 98 0
80 79 99 105 46 81 101 44 0
56 82 81 46 58 104 101 44 0
81 84 89 101 82 83 90 104 0
79 85 88 99 81 84 89 101 0
106 107 95 94 49 108 96 59 0
79 85 76 77 99 88 86 100 0
49 108 96 59 54 109 110 60 0
58 104 68 59 56 82 70 55 0
104 90 69 68 82 83 71 70 0
97 90 69 72 58 104 68 59 0
93 111 39 112 113 114 115 116 0
117 96 93 113 118 110 111 114 0
117 72 73 113 96 59 74 93 0
119 106 49 120 121 122 4 123 0
120 49 50 124 123 4 25 125 0
110 60 39 111 126 57 48 127 0
128 126 110 118 129 127 111 114 0
130 125 123 121 131 124 120 119 0
121 122 91 132 119 106 94 133 0
134 131 130 135 133 119 121 132 0
136 129 128 137 113 114 118 117 0
132 91 74 62 133 94 59 68 0
137 97 98 136 117 72 73 113 0
134 70 68 133 135 61 62 132 0
98 73 103 44 136 113 138 139 0
140 58 44 139 137 97 98 136 0
124 50 55 70 125 25 15 61 0
126 57 48 127 140 58 44 139 0
129 127 139 136 128 126 140 137 0
131 124 70 134 130 125 61 135 0
119 106 94 133 120 49 59 68 0
131 124 120 119 134 70 68 133 0
120 49 59 68 124 50 55 70 0
140 58 59 96 126 57 60 110 0
137 140 96 117 128 126 110 118 0
137 97 72 117 140 58 59 96 0
Quadrilaterals
12
2 3 7 6 0
6 14 16 2 0
7 37 36 6 0
45 14 6 36 0
62 63 66 65 0
65 73 74 62 0
91 74 93 92 0
103 73 65 102 0
112 93 113 116 0
73 113 93 74 0
132 62 74 91 0
73 103 138 113 0
End
