MeshVersionFormatted 2
Dimension 3
Vertices
470
0.74213396515189745 0.98359473888029214 0.29459534536900273 0
0.5 1 0 0
1 1 0 0
1.1726488169868796 1.0398379757613978 0.52877998105191859 0
0.73119680565731726 0.617858567390975 0.16154253594513301 0
0.5 0.5 0 0
1 0.5 0 0
1.0393350903768559 0.58768822268354848 0.17293511763835237 0
0.38529678729402611 1.0742347719687817 0.33322045121114602 0
0.28968601628548701 0.61759081124758453 0.17645943573536063 0
0.57407786025541785 1.0304547888136726 0.36175602929298617 0
0.50214947098681129 0.70691855621001876 0.25557029653778623 0
0.039335090376855897 0.58768822268354848 0.17293511763835237 0
0 0.5 0 0
0.17264881698687962 1.0398379757613978 0.52877998105191859 0
0 1 0 0
1.0754656966806824 0.5321456640802763 0.27740464975336099 0
0.81458986085538743 0.53902577017269127 0.22698021101094285 0
0.8654416950772208 0.50029564789252579 0.37958675004128106 0
1.1564210583663368 0.54100598554645118 0.48291453958343983 0
0.69705066946781435 0.36789667219436301 0.40158719331577131 0
0.77491846060969949 0.3567582569431173 0.49870682575485575 0
0.5736005554727629 0.57896841778304475 0.39676250976908789 0
0.67349750032353495 0.54089470965495656 0.48124411770743586 0
0.65883348965048549 1.0550686869209565 0.50497809262866267 0
0.48398648865474486 0.72171931203844686 0.47714864238360744 0
0.47554089183393533 0.70227864935123963 0.38140917794118484 0
0.4821303501071284 0.64316514870229835 0.30124265144695023 0
0.63062921012539563 0.57235233319772572 0.25946283189533909 0
0.67214146315271361 0.48208170739371631 0.28687061042359507 0
0.79269067593593423 0.41637884481783233 0.16323855824243766 0
1.1195937510914593 0.46127081525255714 0.16586404836780441 0
0.6479915019586634 0.41646710073901455 0.21690284366977397 0
0.36272408368383097 0.44995535605407577 0.12509157287022921 0
0.31121984612174636 0.54295801707170321 0.25986904941756472 0
0.5 0 0 0
1 0 0 0
0.74213396515189745 -0.016405261119707859 0.29459534536900273 0
1.1726488169868796 0.039837975761397804 0.52877998105191859 0
0.07546569668068237 0.5321456640802763 0.27740464975336099 0
0.11959375109145931 0.46127081525255714 0.16586404836780441 0
0.57407786025541785 0.030454788813672584 0.36175602929298617 0
0.38529678729402611 0.074234771968781699 0.33322045121114602 0
0.17264881698687962 0.039837975761397804 0.52877998105191859 0
0 0 0 0
0.1564210583663368 0.54100598554645118 0.48291453958343983 0
0.28756782912953288 0.56115989549870282 0.3971867143358439 0
0.65883348965048549 0.055068686920956456 0.50497809262866267 0
0.93292356872511473 0.73807875397647726 0.69119747674476251 0
0.70360454366978342 0.85810338739698311 0.60620023818577717 0
0.57606987680541966 0.64383452434058352 0.57488926682132691 0
0.70667411171634398 0.52067800408418374 0.6361585237154268 0
0.78134004463971729 0.40534599274164829 0.56066815268497916 0
1.0282124625380993 0.55912196541701398 0.58914610226564867 0
0.48316649289900493 0.74477369049507713 0.62199650832848508 0
0.38787516424478302 0.55783969177683579 0.59089623372644406 0
0.67611785725480977 0.18631837609846591 0.57972139045463322 0
0.50588685929650212 0.31128953184420399 0.71254282342799657 0
0.68496206976216112 0.52766742348067897 0.85215078688221602 0
0.88643043661789855 0.34585181194184211 0.62287957380030523 0
0.38334039964848116 0.85611806669737756 0.74385409282000647 0
0.50001614014741225 0.75017924211284015 1 0
0.2500161401474123 1.0001792421128402 1 0
0.14822592704402149 0.62052689843783126 0.90814723720223012 0
0.25001614014741236 0.50017924211284015 1 0
1.6140147412338095e-05 0.75017924211284015 1 0
-0.031811038936369718 0.77323913969138747 0.88506514129288372 0
0.60027591568486927 0.62077690250082485 0.86325831005233211 0
0.40284837917662586 0.48345266136995113 0.90813838865855223 0
0.47906019268245503 0.771163195191786 0.71542665668155558 0
0.33169945895438185 0.53816811922133256 0.84637304313842732 0
0.58552927099344765 0.35370634191365646 0.90197130890776422 0
0.50001614014741225 0.25017924211284015 1 0
0.75001614014741225 0.50017924211284015 1 0
-0.096319244892156153 0.74234956901780946 0.82019300285464691 0
0.061382125949067397 0.56089072603354317 0.85175438075364307 0
0.084313052704359265 0.66642853691146275 0.6952701950875293 0
-0.067076431274885273 0.73807875397647726 0.69119747674476251 0
0.08684895948347772 0.56354003881807435 0.63178514986043188 0
0.028212462538099281 0.55912196541701398 0.58914610226564867 0
0.21291108707068568 0.5251680979173079 0.60640229211317276 0
0.33005882208022003 0.52272908039789645 0.63324557008131144 0
0.29429072290175168 0.50469940626507315 0.76895564114780235 0
0.23498768833021971 0.50426504074875267 0.78562975635781163 0
0.12407125676820116 0.51829669669932488 0.74421419591182592 0
-0.0082707609866848886 0.48983847716862977 0.87849290952472314 0
-0.1177911522054722 0.6604161424706434 0.90281867887235001 0
0.057460875748533535 0.44541653225420363 0.78369708162091067 0
0.24997439265794702 0.41764606167564883 0.90261693352479289 0
0.32299004961180477 0.42489789089859692 0.82868785925742083 0
1.0000161401474124 0.75017924211284015 1 0
1.2500161401474124 0.50017924211284015 1 0
1.0000161401474124 0.25017924211284015 1 0
0.8822088477945278 0.6604161424706434 0.90281867887235001 0
0.99172923901331511 0.48983847716862977 0.87849290952472314 0
0.78654121746551897 0.41502865356253199 0.84602062077974172 0
0.49033281734302964 0.32031625971686595 0.80145527852484544 0
0.43498112821612583 0.25106270376395301 0.88609865472268512 0
-0.094779073328944752 0.31696754382559539 0.68986384650997845 0
-0.21345878253448103 0.41502865356253199 0.84602062077974172 0
0.024449630129210004 0.22164540026614396 0.72221904762750433 0
1.6140147412357919e-05 0.25017924211284015 1 0
0.2500161401474123 0.00017924211284015001 1 0
0.34197593656019726 0.39553780032929664 0.70326244328319398 0
-0.11356956338210145 0.34585181194184211 0.62287957380030523 0
0.90368075510784385 0.74234956901780946 0.82019300285464691 0
1.0613821259490674 0.56089072603354317 0.85175438075364307 0
1.0843130527043592 0.66642853691146275 0.6952701950875293 0
1.0868489594834778 0.56354003881807435 0.63178514986043188 0
0.90522092667105525 0.31696754382559539 0.68986384650997845 0
1.0244496301292101 0.22164540026614396 0.72221904762750433 0
1.2500161401474124 0.00017924211284015001 1 0
0.75001614014741225 0.00017924211284015001 1 0
0.82327336914736027 -0.02018763373331478 0.90855183805911 0
0.96818896106363028 -0.22676086030861253 0.88506514129288372 0
1.0000161401474124 -0.24982075788715985 1 0
0.73821848718481553 0.26495617083971473 0.86837331314230637 0
0.787813025281489 0.17994308355459793 0.78015304176083933 0
0.81057713128186237 0.91232328772834159 0.83919497540490928 0
0.84974742848681928 0.90228474160422512 0.69278999199341129 0
0.82327336914736027 0.97981236626668522 0.90855183805911 0
0.96818896106363028 0.77323913969138747 0.88506514129288372 0
1.0244496301292101 1.2216454002661439 0.72221904762750433 0
0.72245300262156154 0.90556956466180705 0.62925660905485192 0
0.69810974749379717 1.0192354979476417 0.59583848596221289 0
0.66876504751322641 0.1485239907988459 0.61167088578744166 0
0.69810974749379717 0.019235497947641678 0.59583848596221289 0
0.72003110281945526 0.096215513517877313 0.75731141456887163 0
0.72381341590079595 0.0016642722283342071 0.77567962135039481 0
0.72381341590079595 1.0016642722283342 0.77567962135039481 0
0.72823867452535995 0.93541554448876785 0.75545369803336249 0
0.75001614014741225 1.0001792421128402 1 0
0.75894572369127211 0.82840340561091219 0.90657726714331255 0
0.69591665494515387 0.89860930379912374 0.84086642533619393 0
0.62371266506499401 1.1067529449087501 0.90230131418931114 0
0.62371266506499401 0.10675294490875009 0.90230131418931114 0
0.69243520554373816 0.20976584541645524 0.84647140016167188 0
0.50001614014741225 -0.24982075788715985 1 0
0.38334039964848116 -0.14388193330262244 0.74385409282000647 0
0.5758245888873198 0.17076236782253024 0.68854027115708372 0
0.74213396515189745 1.9835947388802921 0.29459534536900273 0
0.5 2 0 0
1 2 0 0
1.1726488169868796 2.0398379757613978 0.52877998105191859 0
0.73119680565731726 1.6178585673909751 0.16154253594513301 0
0.5 1.5 0 0
1 1.5 0 0
1.0393350903768559 1.5876882226835485 0.17293511763835237 0
0.38529678729402611 2.0742347719687819 0.33322045121114602 0
0.28968601628548701 1.6175908112475845 0.17645943573536063 0
0.57407786025541785 2.0304547888136728 0.36175602929298617 0
0.50214947098681129 1.7069185562100189 0.25557029653778623 0
0.039335090376855897 1.5876882226835485 0.17293511763835237 0
0 1.5 0 0
0.17264881698687962 2.0398379757613978 0.52877998105191859 0
0 2 0 0
1.0754656966806824 1.5321456640802764 0.27740464975336099 0
0.81458986085538743 1.5390257701726913 0.22698021101094285 0
0.8654416950772208 1.5002956478925258 0.37958675004128106 0
1.1564210583663368 1.5410059855464513 0.48291453958343983 0
0.69705066946781435 1.3678966721943631 0.40158719331577131 0
0.77491846060969949 1.3567582569431174 0.49870682575485575 0
0.5736005554727629 1.5789684177830448 0.39676250976908789 0
0.67349750032353495 1.5408947096549566 0.48124411770743586 0
0.65883348965048549 2.0550686869209565 0.50497809262866267 0
0.48398648865474486 1.7217193120384469 0.47714864238360744 0
0.47554089183393533 1.7022786493512396 0.38140917794118484 0
0.4821303501071284 1.6431651487022982 0.30124265144695023 0
0.63062921012539563 1.5723523331977258 0.25946283189533909 0
0.67214146315271361 1.4820817073937163 0.28687061042359507 0
0.79269067593593423 1.4163788448178323 0.16323855824243766 0
1.1195937510914593 1.4612708152525571 0.16586404836780441 0
0.6479915019586634 1.4164671007390146 0.21690284366977397 0
0.36272408368383097 1.4499553560540757 0.12509157287022921 0
0.31121984612174636 1.5429580170717032 0.25986904941756472 0
0.07546569668068237 1.5321456640802764 0.27740464975336099 0
0.11959375109145931 1.4612708152525571 0.16586404836780441 0
0.1564210583663368 1.5410059855464513 0.48291453958343983 0
0.28756782912953288 1.5611598954987027 0.3971867143358439 0
0.93292356872511473 1.7380787539764773 0.69119747674476251 0
0.70360454366978342 1.8581033873969832 0.60620023818577717 0
0.57606987680541966 1.6438345243405834 0.57488926682132691 0
0.70667411171634398 1.5206780040841839 0.6361585237154268 0
0.78134004463971729 1.4053459927416483 0.56066815268497916 0
1.0282124625380993 1.5591219654170141 0.58914610226564867 0
0.48316649289900493 1.744773690495077 0.62199650832848508 0
0.38787516424478302 1.5578396917768358 0.59089623372644406 0
0.67611785725480977 1.1863183760984659 0.57972139045463322 0
0.50588685929650212 1.3112895318442039 0.71254282342799657 0
0.68496206976216112 1.5276674234806791 0.85215078688221602 0
0.88643043661789855 1.3458518119418421 0.62287957380030523 0
0.38334039964848116 1.8561180666973776 0.74385409282000647 0
0.50001614014741225 1.7501792421128402 1 0
0.2500161401474123 2.0001792421128402 1 0
0.14822592704402149 1.6205268984378312 0.90814723720223012 0
0.25001614014741236 1.5001792421128402 1 0
1.6140147412338095e-05 1.7501792421128402 1 0
-0.031811038936369718 1.7732391396913876 0.88506514129288372 0
0.60027591568486927 1.620776902500825 0.86325831005233211 0
0.40284837917662586 1.483452661369951 0.90813838865855223 0
0.47906019268245503 1.7711631951917859 0.71542665668155558 0
0.33169945895438185 1.5381681192213326 0.84637304313842732 0
0.58552927099344765 1.3537063419136564 0.90197130890776422 0
0.50001614014741225 1.2501792421128402 1 0
0.75001614014741225 1.5001792421128402 1 0
-0.096319244892156153 1.7423495690178095 0.82019300285464691 0
0.061382125949067397 1.5608907260335432 0.85175438075364307 0
0.084313052704359265 1.6664285369114626 0.6952701950875293 0
-0.067076431274885273 1.7380787539764773 0.69119747674476251 0
0.08684895948347772 1.5635400388180742 0.63178514986043188 0
0.028212462538099281 1.5591219654170141 0.58914610226564867 0
0.21291108707068568 1.5251680979173079 0.60640229211317276 0
0.33005882208022003 1.5227290803978963 0.63324557008131144 0
0.29429072290175168 1.5046994062650731 0.76895564114780235 0
0.23498768833021971 1.5042650407487526 0.78562975635781163 0
0.12407125676820116 1.5182966966993248 0.74421419591182592 0
-0.0082707609866848886 1.4898384771686297 0.87849290952472314 0
-0.1177911522054722 1.6604161424706434 0.90281867887235001 0
0.057460875748533535 1.4454165322542036 0.78369708162091067 0
0.24997439265794702 1.4176460616756488 0.90261693352479289 0
0.32299004961180477 1.424897890898597 0.82868785925742083 0
1.0000161401474124 1.7501792421128402 1 0
1.2500161401474124 1.5001792421128402 1 0
1.0000161401474124 1.2501792421128402 1 0
0.8822088477945278 1.6604161424706434 0.90281867887235001 0
0.99172923901331511 1.4898384771686297 0.87849290952472314 0
0.78654121746551897 1.415028653562532 0.84602062077974172 0
0.49033281734302964 1.3203162597168658 0.80145527852484544 0
0.43498112821612583 1.251062703763953 0.88609865472268512 0
-0.094779073328944752 1.3169675438255954 0.68986384650997845 0
-0.21345878253448103 1.415028653562532 0.84602062077974172 0
0.024449630129210004 1.2216454002661439 0.72221904762750433 0
1.6140147412357919e-05 1.2501792421128402 1 0
0.34197593656019726 1.3955378003292966 0.70326244328319398 0
-0.11356956338210145 1.3458518119418421 0.62287957380030523 0
0.90368075510784385 1.7423495690178095 0.82019300285464691 0
1.0613821259490674 1.5608907260335432 0.85175438075364307 0
1.0843130527043592 1.6664285369114626 0.6952701950875293 0
1.0868489594834778 1.5635400388180742 0.63178514986043188 0
0.90522092667105525 1.3169675438255954 0.68986384650997845 0
1.2500161401474124 1.0001792421128402 1 0
0.73821848718481553 1.2649561708397148 0.86837331314230637 0
0.787813025281489 1.1799430835545979 0.78015304176083933 0
0.81057713128186237 1.9123232877283416 0.83919497540490928 0
0.84974742848681928 1.902284741604225 0.69278999199341129 0
0.82327336914736027 1.9798123662666853 0.90855183805911 0
0.96818896106363028 1.7732391396913876 0.88506514129288372 0
1.0244496301292101 2.2216454002661439 0.72221904762750433 0
0.72245300262156154 1.9055695646618069 0.62925660905485192 0
0.69810974749379717 2.0192354979476415 0.59583848596221289 0
0.66876504751322641 1.1485239907988458 0.61167088578744166 0
0.72003110281945526 1.0962155135178773 0.75731141456887163 0
0.72381341590079595 2.001664272228334 0.77567962135039481 0
0.72823867452535995 1.9354155444887677 0.75545369803336249 0
0.75001614014741225 2.0001792421128402 1 0
0.75894572369127211 1.8284034056109122 0.90657726714331255 0
0.69591665494515387 1.8986093037991236 0.84086642533619393 0
0.62371266506499401 2.1067529449087501 0.90230131418931114 0
0.69243520554373816 1.2097658454164553 0.84647140016167188 0
0.5758245888873198 1.1707623678225303 0.68854027115708372 0
1.7421339651518974 0.98359473888029214 0.29459534536900273 0
1.5 1 0 0
2 1 0 0
2.1726488169868796 1.0398379757613978 0.52877998105191859 0
1.7311968056573173 0.617858567390975 0.16154253594513301 0
1.5 0.5 0 0
2 0.5 0 0
2.0393350903768557 0.58768822268354848 0.17293511763835237 0
1.3852967872940261 1.0742347719687817 0.33322045121114602 0
1.2896860162854871 0.61759081124758453 0.17645943573536063 0
1.574077860255418 1.0304547888136726 0.36175602929298617 0
1.5021494709868113 0.70691855621001876 0.25557029653778623 0
2.0754656966806824 0.5321456640802763 0.27740464975336099 0
1.8145898608553874 0.53902577017269127 0.22698021101094285 0
1.8654416950772208 0.50029564789252579 0.37958675004128106 0
2.1564210583663366 0.54100598554645118 0.48291453958343983 0
1.6970506694678145 0.36789667219436301 0.40158719331577131 0
1.7749184606096995 0.3567582569431173 0.49870682575485575 0
1.5736005554727628 0.57896841778304475 0.39676250976908789 0
1.6734975003235348 0.54089470965495656 0.48124411770743586 0
1.6588334896504855 1.0550686869209565 0.50497809262866267 0
1.4839864886547449 0.72171931203844686 0.47714864238360744 0
1.4755408918339352 0.70227864935123963 0.38140917794118484 0
1.4821303501071283 0.64316514870229835 0.30124265144695023 0
1.6306292101253956 0.57235233319772572 0.25946283189533909 0
1.6721414631527136 0.48208170739371631 0.28687061042359507 0
1.7926906759359342 0.41637884481783233 0.16323855824243766 0
2.1195937510914593 0.46127081525255714 0.16586404836780441 0
1.6479915019586633 0.41646710073901455 0.21690284366977397 0
1.362724083683831 0.44995535605407577 0.12509157287022921 0
1.3112198461217464 0.54295801707170321 0.25986904941756472 0
1.5 0 0 0
2 0 0 0
1.7421339651518974 -0.016405261119707859 0.29459534536900273 0
2.1726488169868796 0.039837975761397804 0.52877998105191859 0
1.574077860255418 0.030454788813672584 0.36175602929298617 0
1.3852967872940261 0.074234771968781699 0.33322045121114602 0
1.2875678291295329 0.56115989549870282 0.3971867143358439 0
1.6588334896504855 0.055068686920956456 0.50497809262866267 0
1.9329235687251147 0.73807875397647726 0.69119747674476251 0
1.7036045436697833 0.85810338739698311 0.60620023818577717 0
1.5760698768054198 0.64383452434058352 0.57488926682132691 0
1.706674111716344 0.52067800408418374 0.6361585237154268 0
1.7813400446397174 0.40534599274164829 0.56066815268497916 0
2.0282124625380993 0.55912196541701398 0.58914610226564867 0
1.4831664928990049 0.74477369049507713 0.62199650832848508 0
1.3878751642447831 0.55783969177683579 0.59089623372644406 0
1.6761178572548099 0.18631837609846591 0.57972139045463322 0
1.5058868592965022 0.31128953184420399 0.71254282342799657 0
1.684962069762161 0.52766742348067897 0.85215078688221602 0
1.8864304366178986 0.34585181194184211 0.62287957380030523 0
1.3833403996484812 0.85611806669737756 0.74385409282000647 0
1.5000161401474124 0.75017924211284015 1 0
1.1482259270440216 0.62052689843783126 0.90814723720223012 0
1.6002759156848692 0.62077690250082485 0.86325831005233211 0
1.4028483791766257 0.48345266136995113 0.90813838865855223 0
1.4790601926824549 0.771163195191786 0.71542665668155558 0
1.3316994589543818 0.53816811922133256 0.84637304313842732 0
1.5855292709934476 0.35370634191365646 0.90197130890776422 0
1.5000161401474124 0.25017924211284015 1 0
1.7500161401474124 0.50017924211284015 1 0
1.2129110870706856 0.5251680979173079 0.60640229211317276 0
1.3300588220802201 0.52272908039789645 0.63324557008131144 0
1.2942907229017517 0.50469940626507315 0.76895564114780235 0
1.2349876883302198 0.50426504074875267 0.78562975635781163 0
1.1240712567682012 0.51829669669932488 0.74421419591182592 0
1.0574608757485335 0.44541653225420363 0.78369708162091067 0
1.249974392657947 0.41764606167564883 0.90261693352479289 0
1.3229900496118048 0.42489789089859692 0.82868785925742083 0
2.0000161401474124 0.75017924211284015 1 0
2.2500161401474124 0.50017924211284015 1 0
2.0000161401474124 0.25017924211284015 1 0
1.8822088477945278 0.6604161424706434 0.90281867887235001 0
1.9917292390133152 0.48983847716862977 0.87849290952472314 0
1.7865412174655191 0.41502865356253199 0.84602062077974172 0
1.4903328173430297 0.32031625971686595 0.80145527852484544 0
1.4349811282161258 0.25106270376395301 0.88609865472268512 0
1.3419759365601973 0.39553780032929664 0.70326244328319398 0
1.9036807551078438 0.74234956901780946 0.82019300285464691 0
2.0613821259490672 0.56089072603354317 0.85175438075364307 0
2.0843130527043594 0.66642853691146275 0.6952701950875293 0
2.0868489594834778 0.56354003881807435 0.63178514986043188 0
1.9052209266710554 0.31696754382559539 0.68986384650997845 0
2.0244496301292099 0.22164540026614396 0.72221904762750433 0
2.2500161401474124 0.00017924211284015001 1 0
1.7500161401474124 0.00017924211284015001 1 0
1.8232733691473602 -0.02018763373331478 0.90855183805911 0
1.9681889610636303 -0.22676086030861253 0.88506514129288372 0
2.0000161401474124 -0.24982075788715985 1 0
1.7382184871848154 0.26495617083971473 0.86837331314230637 0
1.787813025281489 0.17994308355459793 0.78015304176083933 0
1.8105771312818624 0.91232328772834159 0.83919497540490928 0
1.8497474284868192 0.90228474160422512 0.69278999199341129 0
1.8232733691473602 0.97981236626668522 0.90855183805911 0
1.9681889610636303 0.77323913969138747 0.88506514129288372 0
2.0244496301292099 1.2216454002661439 0.72221904762750433 0
1.7224530026215614 0.90556956466180705 0.62925660905485192 0
1.6981097474937972 1.0192354979476417 0.59583848596221289 0
1.6687650475132263 0.1485239907988459 0.61167088578744166 0
1.6981097474937972 0.019235497947641678 0.59583848596221289 0
1.7200311028194553 0.096215513517877313 0.75731141456887163 0
1.7238134159007958 0.0016642722283342071 0.77567962135039481 0
1.7238134159007958 1.0016642722283342 0.77567962135039481 0
1.72823867452536 0.93541554448876785 0.75545369803336249 0
1.7500161401474124 1.0001792421128402 1 0
1.758945723691272 0.82840340561091219 0.90657726714331255 0
1.6959166549451539 0.89860930379912374 0.84086642533619393 0
1.623712665064994 1.1067529449087501 0.90230131418931114 0
1.623712665064994 0.10675294490875009 0.90230131418931114 0
1.6924352055437382 0.20976584541645524 0.84647140016167188 0
1.5000161401474124 -0.24982075788715985 1 0
1.3833403996484812 -0.14388193330262244 0.74385409282000647 0
1.5758245888873197 0.17076236782253024 0.68854027115708372 0
1.7421339651518974 1.9835947388802921 0.29459534536900273 0
1.5 2 0 0
2 2 0 0
2.1726488169868796 2.0398379757613978 0.52877998105191859 0
1.7311968056573173 1.6178585673909751 0.16154253594513301 0
1.5 1.5 0 0
2 1.5 0 0
2.0393350903768557 1.5876882226835485 0.17293511763835237 0
1.3852967872940261 2.0742347719687819 0.33322045121114602 0
1.2896860162854871 1.6175908112475845 0.17645943573536063 0
1.574077860255418 2.0304547888136728 0.36175602929298617 0
1.5021494709868113 1.7069185562100189 0.25557029653778623 0
2.0754656966806824 1.5321456640802764 0.27740464975336099 0
1.8145898608553874 1.5390257701726913 0.22698021101094285 0
1.8654416950772208 1.5002956478925258 0.37958675004128106 0
2.1564210583663366 1.5410059855464513 0.48291453958343983 0
1.6970506694678145 1.3678966721943631 0.40158719331577131 0
1.7749184606096995 1.3567582569431174 0.49870682575485575 0
1.5736005554727628 1.5789684177830448 0.39676250976908789 0
1.6734975003235348 1.5408947096549566 0.48124411770743586 0
1.6588334896504855 2.0550686869209565 0.50497809262866267 0
1.4839864886547449 1.7217193120384469 0.47714864238360744 0
1.4755408918339352 1.7022786493512396 0.38140917794118484 0
1.4821303501071283 1.6431651487022982 0.30124265144695023 0
1.6306292101253956 1.5723523331977258 0.25946283189533909 0
1.6721414631527136 1.4820817073937163 0.28687061042359507 0
1.7926906759359342 1.4163788448178323 0.16323855824243766 0
2.1195937510914593 1.4612708152525571 0.16586404836780441 0
1.6479915019586633 1.4164671007390146 0.21690284366977397 0
1.362724083683831 1.4499553560540757 0.12509157287022921 0
1.3112198461217464 1.5429580170717032 0.25986904941756472 0
1.2875678291295329 1.5611598954987027 0.3971867143358439 0
1.9329235687251147 1.7380787539764773 0.69119747674476251 0
1.7036045436697833 1.8581033873969832 0.60620023818577717 0
1.5760698768054198 1.6438345243405834 0.57488926682132691 0
1.706674111716344 1.5206780040841839 0.6361585237154268 0
1.7813400446397174 1.4053459927416483 0.56066815268497916 0
2.0282124625380993 1.5591219654170141 0.58914610226564867 0
1.4831664928990049 1.744773690495077 0.62199650832848508 0
1.3878751642447831 1.5578396917768358 0.59089623372644406 0
1.6761178572548099 1.1863183760984659 0.57972139045463322 0
1.5058868592965022 1.3112895318442039 0.71254282342799657 0
1.684962069762161 1.5276674234806791 0.85215078688221602 0
1.8864304366178986 1.3458518119418421 0.62287957380030523 0
1.3833403996484812 1.8561180666973776 0.74385409282000647 0
1.5000161401474124 1.7501792421128402 1 0
1.2500161401474124 2.0001792421128402 1 0
1.1482259270440216 1.6205268984378312 0.90814723720223012 0
1.6002759156848692 1.620776902500825 0.86325831005233211 0
1.4028483791766257 1.483452661369951 0.90813838865855223 0
1.4790601926824549 1.7711631951917859 0.71542665668155558 0
1.3316994589543818 1.5381681192213326 0.84637304313842732 0
1.5855292709934476 1.3537063419136564 0.90197130890776422 0
1.5000161401474124 1.2501792421128402 1 0
1.7500161401474124 1.5001792421128402 1 0
1.2129110870706856 1.5251680979173079 0.60640229211317276 0
1.3300588220802201 1.5227290803978963 0.63324557008131144 0
1.2942907229017517 1.5046994062650731 0.76895564114780235 0
1.2349876883302198 1.5042650407487526 0.78562975635781163 0
1.1240712567682012 1.5182966966993248 0.74421419591182592 0
1.0574608757485335 1.4454165322542036 0.78369708162091067 0
1.249974392657947 1.4176460616756488 0.90261693352479289 0
1.3229900496118048 1.424897890898597 0.82868785925742083 0
2.0000161401474124 1.7501792421128402 1 0
2.2500161401474124 1.5001792421128402 1 0
2.0000161401474124 1.2501792421128402 1 0
1.8822088477945278 1.6604161424706434 0.90281867887235001 0
1.9917292390133152 1.4898384771686297 0.87849290952472314 0
1.7865412174655191 1.415028653562532 0.84602062077974172 0
1.4903328173430297 1.3203162597168658 0.80145527852484544 0
1.4349811282161258 1.251062703763953 0.88609865472268512 0
1.3419759365601973 1.3955378003292966 0.70326244328319398 0
1.9036807551078438 1.7423495690178095 0.82019300285464691 0
2.0613821259490672 1.5608907260335432 0.85175438075364307 0
2.0843130527043594 1.6664285369114626 0.6952701950875293 0
2.0868489594834778 1.5635400388180742 0.63178514986043188 0
1.9052209266710554 1.3169675438255954 0.68986384650997845 0
2.2500161401474124 1.0001792421128402 1 0
1.7382184871848154 1.2649561708397148 0.86837331314230637 0
1.787813025281489 1.1799430835545979 0.78015304176083933 0
1.8105771312818624 1.9123232877283416 0.83919497540490928 0
1.8497474284868192 1.902284741604225 0.69278999199341129 0
1.8232733691473602 1.9798123662666853 0.90855183805911 0
1.9681889610636303 1.7732391396913876 0.88506514129288372 0
2.0244496301292099 2.2216454002661439 0.72221904762750433 0
1.7224530026215614 1.9055695646618069 0.62925660905485192 0
1.6981097474937972 2.0192354979476415 0.59583848596221289 0
1.6687650475132263 1.1485239907988458 0.61167088578744166 0
1.7200311028194553 1.0962155135178773 0.75731141456887163 0
1.7238134159007958 2.001664272228334 0.77567962135039481 0
1.72823867452536 1.9354155444887677 0.75545369803336249 0
1.7500161401474124 2.0001792421128402 1 0
1.758945723691272 1.8284034056109122 0.90657726714331255 0
1.6959166549451539 1.8986093037991236 0.84086642533619393 0
1.623712665064994 2.1067529449087501 0.90230131418931114 0
1.6924352055437382 1.2097658454164553 0.84647140016167188 0
1.5758245888873197 1.1707623678225303 0.68854027115708372 0
Hexahedra
344
1 2 3 4 5 6 7 8 0
9 10 6 2 11 12 5 1 0
13 10 6 14 15 9 2 16 0
17 18 19 20 8 5 1 4 0
20 19 21 22 4 1 23 24 0
25 11 1 4 26 27 23 24 0
27 28 12 11 23 29 5 1 0
23 29 5 1 21 30 18 19 0
8 5 6 7 17 18 31 32 0
30 33 34 29 18 31 6 5 0
29 34 35 28 5 6 10 12 0
7 6 36 37 32 31 38 39 0
40 35 34 41 13 10 6 14 0
42 33 31 38 43 34 6 36 0
14 41 44 45 6 34 43 36 0
46 47 43 44 40 35 34 41 0
22 21 42 48 24 23 43 44 0
26 27 23 24 46 47 43 44 0
23 29 34 43 27 28 35 47 0
21 30 33 42 23 29 34 43 0
17 18 31 32 20 19 38 39 0
21 30 18 19 42 33 31 38 0
20 19 38 39 22 21 42 48 0
46 47 9 15 26 27 11 25 0
47 35 10 9 27 28 12 11 0
40 35 10 13 46 47 9 15 0
4 25 26 24 49 50 51 52 0
22 20 4 24 53 54 49 52 0
15 46 26 25 55 56 51 50 0
48 22 24 44 57 53 52 58 0
59 49 54 60 58 52 53 57 0
60 54 20 39 57 53 22 48 0
59 58 56 55 49 52 51 50 0
46 56 58 44 26 51 52 24 0
61 62 63 15 64 65 66 67 0
68 69 65 62 70 71 64 61 0
72 69 65 73 59 68 62 74 0
75 76 77 78 67 64 61 15 0
78 77 79 80 15 61 81 46 0
55 70 61 15 56 82 81 46 0
82 83 71 70 81 84 64 61 0
81 84 64 61 79 85 76 77 0
67 64 65 66 75 76 86 87 0
85 88 89 84 76 86 65 64 0
84 89 90 83 64 65 69 71 0
91 92 93 74 94 95 96 59 0
97 90 89 98 72 69 65 73 0
99 88 86 100 101 89 65 102 0
73 98 44 103 65 89 101 102 0
58 104 101 44 97 90 89 98 0
80 79 99 105 46 81 101 44 0
56 82 81 46 58 104 101 44 0
81 84 89 101 82 83 90 104 0
79 85 88 99 81 84 89 101 0
106 107 95 94 49 108 96 59 0
79 85 76 77 99 88 86 100 0
49 108 96 59 54 109 110 60 0
58 104 68 59 56 82 70 55 0
104 90 69 68 82 83 71 70 0
97 90 69 72 58 104 68 59 0
93 111 39 112 113 114 115 116 0
117 96 93 113 118 110 111 114 0
117 72 73 113 96 59 74 93 0
119 106 49 120 121 122 4 123 0
120 49 50 124 123 4 25 125 0
110 60 39 111 126 57 48 127 0
128 126 110 118 129 127 111 114 0
130 125 123 121 131 124 120 119 0
121 122 91 132 119 106 94 133 0
134 131 130 135 133 119 121 132 0
136 129 128 137 113 114 118 117 0
132 91 74 62 133 94 59 68 0
137 97 98 136 117 72 73 113 0
134 70 68 133 135 61 62 132 0
98 73 103 44 136 113 138 139 0
140 58 44 139 137 97 98 136 0
124 50 55 70 125 25 15 61 0
126 57 48 127 140 58 44 139 0
129 127 139 136 128 126 140 137 0
131 124 70 134 130 125 61 135 0
119 106 94 133 120 49 59 68 0
131 124 120 119 134 70 68 133 0
120 49 59 68 124 50 55 70 0
140 58 59 96 126 57 60 110 0
137 140 96 117 128 126 110 118 0
137 97 72 117 140 58 59 96 0
141 142 143 144 145 146 147 148 0
149 150 146 142 151 152 145 141 0
153 150 146 154 155 149 142 156 0
157 158 159 160 148 145 141 144 0
160 159 161 162 144 141 163 164 0
165 151 141 144 166 167 163 164 0
167 168 152 151 163 169 145 141 0
163 169 145 141 161 170 158 159 0
148 145 146 147 157 158 171 172 0
170 173 174 169 158 171 146 145 0
169 174 175 168 145 146 150 152 0
147 146 2 3 172 171 1 4 0
176 175 174 177 153 150 146 154 0
11 173 171 1 9 174 146 2 0
154 177 15 16 146 174 9 2 0
178 179 9 15 176 175 174 177 0
162 161 11 25 164 163 9 15 0
166 167 163 164 178 179 9 15 0
163 169 174 9 167 168 175 179 0
161 170 173 11 163 169 174 9 0
157 158 171 172 160 159 1 4 0
161 170 158 159 11 173 171 1 0
160 159 1 4 162 161 11 25 0
178 179 149 155 166 167 151 165 0
179 175 150 149 167 168 152 151 0
176 175 150 153 178 179 149 155 0
144 165 166 164 180 181 182 183 0
162 160 144 164 184 185 180 183 0
155 178 166 165 186 187 182 181 0
25 162 164 15 188 184 183 189 0
190 180 185 191 189 183 184 188 0
191 185 160 4 188 184 162 25 0
190 189 187 186 180 183 182 181 0
178 187 189 15 166 182 183 164 0
192 193 194 155 195 196 197 198 0
199 200 196 193 201 202 195 192 0
203 200 196 204 190 199 193 205 0
206 207 208 209 198 195 192 155 0
209 208 210 211 155 192 212 178 0
186 201 192 155 187 213 212 178 0
213 214 202 201 212 215 195 192 0
212 215 195 192 210 216 207 208 0
198 195 196 197 206 207 217 218 0
216 219 220 215 207 217 196 195 0
215 220 221 214 195 196 200 202 0
222 223 224 205 225 226 227 190 0
228 221 220 229 203 200 196 204 0
230 219 217 231 232 220 196 233 0
204 229 15 63 196 220 232 233 0
189 234 232 15 228 221 220 229 0
211 210 230 235 178 212 232 15 0
187 213 212 178 189 234 232 15 0
212 215 220 232 213 214 221 234 0
210 216 219 230 212 215 220 232 0
236 237 226 225 180 238 227 190 0
210 216 207 208 230 219 217 231 0
180 238 227 190 185 239 240 191 0
189 234 199 190 187 213 201 186 0
234 221 200 199 213 214 202 201 0
228 221 200 203 189 234 199 190 0
224 123 4 241 132 121 122 91 0
242 227 224 132 243 240 123 121 0
242 203 204 132 227 190 205 224 0
244 236 180 245 246 247 144 248 0
245 180 181 249 248 144 165 250 0
240 191 4 123 251 188 25 125 0
252 251 240 243 130 125 123 121 0
253 250 248 246 254 249 245 244 0
246 247 222 255 244 236 225 256 0
257 254 253 258 256 244 246 255 0
135 130 252 259 132 121 243 242 0
255 222 205 193 256 225 190 199 0
259 228 229 135 242 203 204 132 0
257 201 199 256 258 192 193 255 0
229 204 63 15 135 132 62 61 0
260 189 15 61 259 228 229 135 0
249 181 186 201 250 165 155 192 0
251 188 25 125 260 189 15 61 0
130 125 61 135 252 251 260 259 0
254 249 201 257 253 250 192 258 0
244 236 225 256 245 180 190 199 0
254 249 245 244 257 201 199 256 0
245 180 190 199 249 181 186 201 0
260 189 190 227 251 188 191 240 0
259 260 227 242 252 251 240 243 0
259 228 203 242 260 189 190 227 0
261 262 263 264 265 266 267 268 0
269 270 266 262 271 272 265 261 0
8 270 266 7 4 269 262 3 0
273 274 275 276 268 265 261 264 0
276 275 277 278 264 261 279 280 0
281 271 261 264 282 283 279 280 0
283 284 272 271 279 285 265 261 0
279 285 265 261 277 286 274 275 0
268 265 266 267 273 274 287 288 0
286 289 290 285 274 287 266 265 0
285 290 291 284 265 266 270 272 0
267 266 292 293 288 287 294 295 0
17 291 290 32 8 270 266 7 0
296 289 287 294 297 290 266 292 0
7 32 39 37 266 290 297 292 0
20 298 297 39 17 291 290 32 0
278 277 296 299 280 279 297 39 0
282 283 279 280 20 298 297 39 0
279 285 290 297 283 284 291 298 0
277 286 289 296 279 285 290 297 0
273 274 287 288 276 275 294 295 0
277 286 274 275 296 289 287 294 0
276 275 294 295 278 277 296 299 0
20 298 269 4 282 283 271 281 0
298 291 270 269 283 284 272 271 0
17 291 270 8 20 298 269 4 0
264 281 282 280 300 301 302 303 0
278 276 264 280 304 305 300 303 0
4 20 282 281 306 307 302 301 0
299 278 280 39 308 304 303 309 0
310 300 305 311 309 303 304 308 0
311 305 276 295 308 304 278 299 0
310 309 307 306 300 303 302 301 0
20 307 309 39 282 302 303 280 0
312 313 241 4 314 92 91 122 0
315 316 92 313 317 318 314 312 0
319 316 92 320 310 315 313 321 0
106 107 108 49 122 314 312 4 0
49 108 109 54 4 312 322 20 0
306 317 312 4 307 323 322 20 0
323 324 318 317 322 325 314 312 0
322 325 314 312 109 326 107 108 0
122 314 92 91 106 107 95 94 0
326 327 328 325 107 95 92 314 0
325 328 329 324 314 92 316 318 0
330 331 332 321 333 334 335 310 0
336 329 328 337 319 316 92 320 0
110 327 95 96 111 328 92 93 0
320 337 39 112 92 328 111 93 0
309 338 111 39 336 329 328 337 0
54 109 110 60 20 322 111 39 0
307 323 322 20 309 338 111 39 0
322 325 328 111 323 324 329 338 0
109 326 327 110 322 325 328 111 0
339 340 334 333 300 341 335 310 0
109 326 107 108 110 327 95 96 0
300 341 335 310 305 342 343 311 0
309 338 315 310 307 323 317 306 0
338 329 316 315 323 324 318 317 0
336 329 316 319 309 338 315 310 0
332 344 295 345 346 347 348 349 0
350 335 332 346 351 343 344 347 0
350 319 320 346 335 310 321 332 0
352 339 300 353 354 355 264 356 0
353 300 301 357 356 264 281 358 0
343 311 295 344 359 308 299 360 0
361 359 343 351 362 360 344 347 0
363 358 356 354 364 357 353 352 0
354 355 330 365 352 339 333 366 0
367 364 363 368 366 352 354 365 0
369 362 361 370 346 347 351 350 0
365 330 321 313 366 333 310 315 0
370 336 337 369 350 319 320 346 0
367 317 315 366 368 312 313 365 0
337 320 112 39 369 346 371 372 0
373 309 39 372 370 336 337 369 0
357 301 306 317 358 281 4 312 0
359 308 299 360 373 309 39 372 0
362 360 372 369 361 359 373 370 0
364 357 317 367 363 358 312 368 0
352 339 333 366 353 300 310 315 0
364 357 353 352 367 317 315 366 0
353 300 310 315 357 301 306 317 0
373 309 310 335 359 308 311 343 0
370 373 335 350 361 359 343 351 0
370 336 319 350 373 309 310 335 0
374 375 376 377 378 379 380 381 0
382 383 379 375 384 385 378 374 0
148 383 379 147 144 382 375 143 0
386 387 388 389 381 378 374 377 0
389 388 390 391 377 374 392 393 0
394 384 374 377 395 396 392 393 0
396 397 385 384 392 398 378 374 0
392 398 378 374 390 399 387 388 0
381 378 379 380 386 387 400 401 0
399 402 403 398 387 400 379 378 0
398 403 404 397 378 379 383 385 0
380 379 262 263 401 400 261 264 0
157 404 403 172 148 383 379 147 0
271 402 400 261 269 403 379 262 0
147 172 4 3 379 403 269 262 0
160 405 269 4 157 404 403 172 0
391 390 271 281 393 392 269 4 0
395 396 392 393 160 405 269 4 0
392 398 403 269 396 397 404 405 0
390 399 402 271 392 398 403 269 0
386 387 400 401 389 388 261 264 0
390 399 387 388 271 402 400 261 0
389 388 261 264 391 390 271 281 0
160 405 382 144 395 396 384 394 0
405 404 383 382 396 397 385 384 0
157 404 383 148 160 405 382 144 0
377 394 395 393 406 407 408 409 0
391 389 377 393 410 411 406 409 0
144 160 395 394 412 413 408 407 0
281 391 393 4 414 410 409 415 0
416 406 411 417 415 409 410 414 0
417 411 389 264 414 410 391 281 0
416 415 413 412 406 409 408 407 0
160 413 415 4 395 408 409 393 0
418 419 420 144 421 223 222 247 0
422 423 223 419 424 425 421 418 0
426 423 223 427 416 422 419 428 0
236 237 238 180 247 421 418 144 0
180 238 239 185 144 418 429 160 0
412 424 418 144 413 430 429 160 0
430 431 425 424 429 432 421 418 0
429 432 421 418 239 433 237 238 0
247 421 223 222 236 237 226 225 0
433 434 435 432 237 226 223 421 0
432 435 436 431 421 223 423 425 0
437 438 439 428 440 441 442 416 0
443 436 435 444 426 423 223 427 0
240 434 226 227 123 435 223 224 0
427 444 4 241 223 435 123 224 0
415 445 123 4 443 436 435 444 0
185 239 240 191 160 429 123 4 0
413 430 429 160 415 445 123 4 0
429 432 435 123 430 431 436 445 0
239 433 434 240 429 432 435 123 0
446 447 441 440 406 448 442 416 0
239 433 237 238 240 434 226 227 0
406 448 442 416 411 449 450 417 0
415 445 422 416 413 430 424 412 0
445 436 423 422 430 431 425 424 0
443 436 423 426 415 445 422 416 0
439 356 264 451 365 354 355 330 0
452 442 439 365 453 450 356 354 0
452 426 427 365 442 416 428 439 0
454 446 406 455 456 457 377 458 0
455 406 407 459 458 377 394 460 0
450 417 264 356 461 414 281 358 0
462 461 450 453 363 358 356 354 0
463 460 458 456 464 459 455 454 0
456 457 437 465 454 446 440 466 0
467 464 463 468 466 454 456 465 0
368 363 462 469 365 354 453 452 0
465 437 428 419 466 440 416 422 0
469 443 444 368 452 426 427 365 0
467 424 422 466 468 418 419 465 0
444 427 241 4 368 365 313 312 0
470 415 4 312 469 443 444 368 0
459 407 412 424 460 394 144 418 0
461 414 281 358 470 415 4 312 0
363 358 312 368 462 461 470 469 0
464 459 424 467 463 460 418 468 0
454 446 440 466 455 406 416 422 0
464 459 455 454 467 424 422 466 0
455 406 416 422 459 407 412 424 0
470 415 416 442 461 414 417 450 0
469 470 442 452 462 461 450 453 0
469 443 426 452 470 415 416 442 0
Quadrilaterals
48
2 3 7 6 0
6 14 16 2 0
7 37 36 6 0
45 14 6 36 0
62 63 66 65 0
65 73 74 62 0
91 74 93 92 0
103 73 65 102 0
112 93 113 116 0
73 113 93 74 0
132 62 74 91 0
73 103 138 113 0
142 143 147 146 0
146 154 156 142 0
147 3 2 146 0
16 154 146 2 0
193 194 197 196 0
196 204 205 193 0
222 205 224 223 0
63 204 196 233 0
241 224 132 91 0
204 132 224 205 0
255 193 205 222 0
204 63 62 132 0
262 263 267 266 0
266 7 3 262 0
267 293 292 266 0
37 7 266 292 0
313 241 91 92 0
92 320 321 313 0
330 321 332 331 0
112 320 92 93 0
345 332 346 349 0
320 346 332 321 0
365 313 321 330 0
320 112 371 346 0
375 376 380 379 0
379 147 143 375 0
380 263 262 379 0
3 147 379 262 0
419 420 222 223 0
223 427 428 419 0
437 428 439 438 0
241 427 223 224 0
451 439 365 330 0
427 365 439 428 0
465 419 428 437 0
427 241 313 365 0
End
