<?xml version='1.0' encoding='utf-8'?>
<VTKFile type="UnstructuredGrid" version="0.1" byte_order="LittleEndian"><UnstructuredGrid><Piece NumberOfPoints="66" NumberOfCells="34"><Points><DataArray type="Float64" NumberOfComponents="3" format="ascii">-1 0 -0.38580084479236909 0 0 -0.38580084479236909 0 -1 -0.38580084479236909 -1 -1 -0.38580084479236909 -1 1 -0.38580084479236909 0 1 -0.38580084479236909 1 0 -0.38580084479236909 1 -1 -0.38580084479236909 1 1 -0.38580084479236909 -1 -1 0.38580084479236909 -0.5 -1 0.38580084479236909 -0.5 -0.5 0.38580084479236909 -1 -0.5 0.38580084479236909 -0.5 0 0.38580084479236909 -1 0 0.38580084479236909 -0.5 0.5 0.38580084479236909 -1 0.5 0.38580084479236909 -0.5 1 0.38580084479236909 -1 1 0.38580084479236909 0 -1 0.38580084479236909 0 -0.5 0.38580084479236909 0 0 0.38580084479236909 0 0.5 0.38580084479236909 0 1 0.38580084479236909 0.5 -1 0.38580084479236909 0.5 -0.5 0.38580084479236909 0.5 0 0.38580084479236909 0.5 0.5 0.38580084479236909 0.5 1 0.38580084479236909 1 -1 0.38580084479236909 1 -0.5 0.38580084479236909 1 0 0.38580084479236909 1 0.5 0.38580084479236909 1 1 0.38580084479236909 -1 0 0.19955216109950127 -1 -0.16666666666666666 0.30597998035256863 -1 0.16666666666666666 0.30597998035256863 -1 0 0.33258693516583543 1 0 0.19955216109950127 1 -0.16666666666666666 0.30597998035256863 1 0.16666666666666666 0.30597998035256863 1 0 0.33258693516583543 0 -1 0.19955216109950127 -0.16666666666666666 -1 0.30597998035256863 0.16666666666666666 -1 0.30597998035256863 0 -1 0.33258693516583543 0 1 0.19955216109950127 -0.16666666666666666 1 0.30597998035256863 0.16666666666666666 1 0.30597998035256863 0 1 0.33258693516583543 0 0 0.12294145335307802 0 -0.23784282164369619 0.069871623081174464 0 0.23784282164369619 0.069871623081174464 0 0 -0.12558445483943381 0 -0.39002929925084173 0.12067572479098292 0 0.39002929925084173 0.12067572479098292 -0.069487905337255393 -0.46400576584128456 0.18771665502119675 0.069487905337255393 -0.46400576584128456 0.18771665502119675 -0.069487905337255393 0.46400576584128456 0.18771665502119675 0.069487905337255393 0.46400576584128456 0.18771665502119675 0 0 0.12401986566469111 -0.16678548717060415 3.8518598887744717e-34 0.23976579792171415 0.16678548717060415 1.9259299443872359e-34 0.23976579792171415 0 0 0.25558319232344495 0 -0.49816769719612297 0.22767896497626938 0 0.49816769719612297 0.22767896497626938</DataArray></Points><Cells><DataArray type="Int32" Name="connectivity" format="ascii">37 35 34 36 50 51 53 52 41 40 38 39 50 52 53 51 35 34 53 51 12 9 42 54 39 51 53 38 30 54 42 29 36 52 53 34 16 55 46 18 40 38 53 52 32 33 46 55 34 53 42 9 0 1 2 3 38 29 42 53 6 7 2 1 34 18 46 53 0 4 5 1 38 53 46 33 6 1 5 8 12 9 42 54 11 10 43 56 30 54 42 29 25 57 44 24 16 55 46 18 15 58 47 17 32 33 46 55 27 28 48 59 51 35 12 54 50 37 14 60 51 54 30 39 50 60 31 41 52 55 16 36 50 60 14 37 52 40 32 55 50 41 31 60 12 54 60 14 11 56 61 13 30 31 60 54 25 26 62 57 16 14 60 55 15 13 61 58 32 55 60 31 27 59 62 26 54 60 61 56 57 62 63 64 55 58 61 60 59 65 63 62 42 54 56 43 44 57 64 45 46 47 58 55 48 49 65 59 11 56 61 13 20 64 63 21 25 26 62 57 20 21 63 64 15 13 61 58 22 21 63 65 27 59 62 26 22 65 63 21 11 56 64 20 10 43 45 19 25 20 64 57 24 19 45 44 15 22 65 58 17 23 49 47 27 59 65 22 28 48 49 23</DataArray><DataArray type="Int32" Name="offsets" format="ascii">8 16 24 32 40 48 56 64 72 80 88 96 104 112 120 128 136 144 152 160 168 176 184 192 200 208 216 224 232 240 248 256 264 272</DataArray><DataArray type="Int32" Name="types" format="ascii">12 12 12 12 12 12 12 12 12 12 12 12 12 12 12 12 12 12 12 12 12 12 12 12 12 12 12 12 12 12 12 12 12 12</DataArray></Cells></Piece></UnstructuredGrid></VTKFile>