<?xml version='1.0' encoding='utf-8'?>
<VTKFile type="UnstructuredGrid" version="0.1" byte_order="LittleEndian"><UnstructuredGrid><Piece NumberOfPoints="67" NumberOfCells="32"><Points><DataArray type="Float64" NumberOfComponents="3" format="ascii">-1 0 -0.91101183936250429 0 0 -0.91101183936250429 0 -1 -0.91101183936250429 -1 -1 -0.91101183936250429 -1 1 -0.91101183936250429 0 1 -0.91101183936250429 1 0 -0.91101183936250429 1 -1 -0.91101183936250429 1 1 -0.91101183936250429 -1 -1 0.91101183936250429 -0.5 -1 0.91101183936250429 -0.5 -0.5 0.91101183936250429 -1 -0.5 0.91101183936250429 -0.5 0 0.91101183936250429 -1 0 0.91101183936250429 -0.5 0.5 0.91101183936250429 -1 0.5 0.91101183936250429 -0.5 1 0.91101183936250429 -1 1 0.91101183936250429 0 -1 0.91101183936250429 0 -0.5 0.91101183936250429 0 0 0.91101183936250429 0 0.5 0.91101183936250429 0 1 0.91101183936250429 0.5 -1 0.91101183936250429 0.5 -0.5 0.91101183936250429 0.5 0 0.91101183936250429 0.5 0.5 0.91101183936250429 0.5 1 0.91101183936250429 1 -1 0.91101183936250429 1 -0.5 0.91101183936250429 1 0 0.91101183936250429 1 0.5 0.91101183936250429 1 1 0.91101183936250429 -1 -1 0 -1 0 -0.12310970802196004 -1 1 0 -1 -0.5 0.44319494887905619 -1 0 0.41857300727466418 -1 0.5 0.44319494887905619 1 0 -0.12310970802196004 1 -1 0 1 1 0 1 0 0.41857300727466418 1 -0.5 0.44319494887905619 1 0.5 0.44319494887905619 0 -1 -0.12310970802196004 0 -1 0.41857300727466418 -0.5 -1 0.44319494887905619 0.5 -1 0.44319494887905619 0 1 -0.12310970802196004 -0.5 1 0.44319494887905619 0 1 0.41857300727466418 0.5 1 0.44319494887905619 0 0 -0.19791659805064624 0 -0.41062235224430582 0.30575733181042475 0 0.41062235224430582 0.30575733181042475 0 0 0.31504095223666273 0 -0.5 0.63505663840784488 0 0.5 0.63505663840784488 -0.50834788547209353 -0.5596787182534726 0.71153389994028271 0.50834788547209353 -0.5596787182534726 0.71153389994028271 -0.50834788547209353 0.5596787182534726 0.71153389994028271 0.50834788547209353 0.5596787182534726 0.71153389994028271 -0.50343795506240474 9.6296497219361793e-35 0.70447205014804748 0.50343795506240474 0 0.70447205014804748 0 0 0.65286922115876533</DataArray></Points><Cells><DataArray type="Int32" Name="connectivity" format="ascii">0 3 2 1 35 34 46 54 6 1 2 7 40 54 46 41 0 1 5 4 35 54 50 36 6 8 5 1 40 42 50 54 35 34 46 54 38 37 55 57 40 54 46 41 43 57 55 44 35 54 50 36 38 57 56 39 40 42 50 54 43 45 56 57 34 46 55 37 48 47 58 60 41 44 55 46 49 61 58 47 36 39 56 50 51 62 59 52 42 50 56 45 53 52 59 63 38 37 55 57 64 60 58 66 43 57 55 44 65 66 58 61 38 57 56 39 64 66 59 62 43 45 56 57 65 63 59 66 64 60 58 66 13 11 20 21 65 66 58 61 26 21 20 25 64 66 59 62 13 21 22 15 65 63 59 66 26 27 22 21 38 37 60 64 14 12 11 13 43 65 61 44 31 26 25 30 38 64 62 39 14 13 15 16 43 45 63 65 31 32 27 26 60 58 20 11 48 47 19 10 61 25 20 58 49 24 19 47 62 15 22 59 51 17 23 52 63 59 22 27 53 52 23 28 37 34 48 60 12 9 10 11 44 61 49 41 30 25 24 29 39 62 51 36 16 15 17 18 45 42 53 63 32 33 28 27</DataArray><DataArray type="Int32" Name="offsets" format="ascii">8 16 24 32 40 48 56 64 72 80 88 96 104 112 120 128 136 144 152 160 168 176 184 192 200 208 216 224 232 240 248 256</DataArray><DataArray type="Int32" Name="types" format="ascii">12 12 12 12 12 12 12 12 12 12 12 12 12 12 12 12 12 12 12 12 12 12 12 12 12 12 12 12 12 12 12 12</DataArray></Cells></Piece></UnstructuredGrid></VTKFile>