MeshVersionFormatted 2
Dimension 3
Vertices
66
-1 0 -0.38580084479236909 0
0 0 -0.38580084479236909 0
0 -1 -0.38580084479236909 0
-1 -1 -0.38580084479236909 0
-1 1 -0.38580084479236909 0
0 1 -0.38580084479236909 0
1 0 -0.38580084479236909 0
1 -1 -0.38580084479236909 0
1 1 -0.38580084479236909 0
-1 -1 0.38580084479236909 0
-0.5 -1 0.38580084479236909 0
-0.5 -0.5 0.38580084479236909 0
-1 -0.5 0.38580084479236909 0
-0.5 0 0.38580084479236909 0
-1 0 0.38580084479236909 0
-0.5 0.5 0.38580084479236909 0
-1 0.5 0.38580084479236909 0
-0.5 1 0.38580084479236909 0
-1 1 0.38580084479236909 0
0 -1 0.38580084479236909 0
0 -0.5 0.38580084479236909 0
0 0 0.38580084479236909 0
0 0.5 0.38580084479236909 0
0 1 0.38580084479236909 0
0.5 -1 0.38580084479236909 0
0.5 -0.5 0.38580084479236909 0
0.5 0 0.38580084479236909 0
0.5 0.5 0.38580084479236909 0
0.5 1 0.38580084479236909 0
1 -1 0.38580084479236909 0
1 -0.5 0.38580084479236909 0
1 0 0.38580084479236909 0
1 0.5 0.38580084479236909 0
1 1 0.38580084479236909 0
-1 0 0.19955216109950127 0
-1 -0.16666666666666666 0.30597998035256863 0
-1 0.16666666666666666 0.30597998035256863 0
-1 0 0.33258693516583543 0
1 0 0.19955216109950127 0
1 -0.16666666666666666 0.30597998035256863 0
1 0.16666666666666666 0.30597998035256863 0
1 0 0.33258693516583543 0
0 -1 0.19955216109950127 0
-0.16666666666666666 -1 0.30597998035256863 0
0.16666666666666666 -1 0.30597998035256863 0
0 -1 0.33258693516583543 0
0 1 0.19955216109950127 0
-0.16666666666666666 1 0.30597998035256863 0
0.16666666666666666 1 0.30597998035256863 0
0 1 0.33258693516583543 0
0 0 0.12294145335307802 0
0 -0.23784282164369619 0.069871623081174464 0
0 0.23784282164369619 0.069871623081174464 0
0 0 -0.12558445483943381 0
0 -0.39002929925084173 0.12067572479098292 0
0 0.39002929925084173 0.12067572479098292 0
-0.069487905337255393 -0.46400576584128456 0.18771665502119675 0
0.069487905337255393 -0.46400576584128456 0.18771665502119675 0
-0.069487905337255393 0.46400576584128456 0.18771665502119675 0
0.069487905337255393 0.46400576584128456 0.18771665502119675 0
0 0 0.12401986566469111 0
-0.16678548717060415 3.8518598887744717e-34 0.23976579792171415 0
0.16678548717060415 1.9259299443872359e-34 0.23976579792171415 0
0 0 0.25558319232344495 0
0 -0.49816769719612297 0.22767896497626938 0
0 0.49816769719612297 0.22767896497626938 0
Hexahedra
34
38 36 35 37 51 52 54 53 0
42 41 39 40 51 53 54 52 0
36 35 54 52 13 10 43 55 0
40 52 54 39 31 55 43 30 0
37 53 54 35 17 56 47 19 0
41 39 54 53 33 34 47 56 0
35 54 43 10 1 2 3 4 0
39 30 43 54 7 8 3 2 0
35 19 47 54 1 5 6 2 0
39 54 47 34 7 2 6 9 0
13 10 43 55 12 11 44 57 0
31 55 43 30 26 58 45 25 0
17 56 47 19 16 59 48 18 0
33 34 47 56 28 29 49 60 0
52 36 13 55 51 38 15 61 0
52 55 31 40 51 61 32 42 0
53 56 17 37 51 61 15 38 0
53 41 33 56 51 42 32 61 0
13 55 61 15 12 57 62 14 0
31 32 61 55 26 27 63 58 0
17 15 61 56 16 14 62 59 0
33 56 61 32 28 60 63 27 0
55 61 62 57 58 63 64 65 0
56 59 62 61 60 66 64 63 0
43 55 57 44 45 58 65 46 0
47 48 59 56 49 50 66 60 0
12 57 62 14 21 65 64 22 0
26 27 63 58 21 22 64 65 0
16 14 62 59 23 22 64 66 0
28 60 63 27 23 66 64 22 0
12 57 65 21 11 44 46 20 0
26 21 65 58 25 20 46 45 0
16 23 66 59 18 24 50 48 0
28 60 66 23 29 49 50 24 0
Quadrilaterals
48
1 2 3 4 0
5 6 2 1 0
2 7 8 3 0
6 9 7 2 0
10 11 12 13 0
13 12 14 15 0
15 14 16 17 0
17 16 18 19 0
11 20 21 12 0
12 21 22 14 0
14 22 23 16 0
16 23 24 18 0
20 25 26 21 0
21 26 27 22 0
22 27 28 23 0
23 28 29 24 0
25 30 31 26 0
26 31 32 27 0
27 32 33 28 0
28 33 34 29 0
10 35 1 4 0
19 5 1 35 0
13 36 35 10 0
37 17 19 35 0
38 37 35 36 0
15 38 36 13 0
38 15 17 37 0
8 7 39 30 0
39 7 9 34 0
30 39 40 31 0
39 34 33 41 0
40 39 41 42 0
31 40 42 32 0
41 33 32 42 0
4 3 43 10 0
43 3 8 30 0
10 43 44 11 0
43 30 25 45 0
44 43 45 46 0
11 44 46 20 0
45 25 20 46 0
19 47 6 5 0
34 9 6 47 0
18 48 47 19 0
49 29 34 47 0
50 49 47 48 0
24 50 48 18 0
50 24 29 49 0
End
