<?xml version='1.0' encoding='utf-8'?>
<VTKFile type="UnstructuredGrid" version="0.1" byte_order="LittleEndian"><UnstructuredGrid><Piece NumberOfPoints="66" NumberOfCells="34"><Points><DataArray type="Float64" NumberOfComponents="3" format="ascii">-1 0 -1.4589167568125936 0 0 -1.4589167568125936 0 -1 -1.4589167568125936 -1 -1 -1.4589167568125936 -1 1 -1.4589167568125936 0 1 -1.4589167568125936 1 0 -1.4589167568125936 1 -1 -1.4589167568125936 1 1 -1.4589167568125936 -1 -1 1.4589167568125936 -0.5 -1 1.4589167568125936 -0.5 -0.5 1.4589167568125936 -1 -0.5 1.4589167568125936 -0.5 0 1.4589167568125936 -1 0 1.4589167568125936 -0.5 0.5 1.4589167568125936 -1 0.5 1.4589167568125936 -0.5 1 1.4589167568125936 -1 1 1.4589167568125936 0 -1 1.4589167568125936 0 -0.5 1.4589167568125936 0 0 1.4589167568125936 0 0.5 1.4589167568125936 0 1 1.4589167568125936 0.5 -1 1.4589167568125936 0.5 -0.5 1.4589167568125936 0.5 0 1.4589167568125936 0.5 0.5 1.4589167568125936 0.5 1 1.4589167568125936 1 -1 1.4589167568125936 1 -0.5 1.4589167568125936 1 0 1.4589167568125936 1 0.5 1.4589167568125936 1 1 1.4589167568125936 -1 0 0.7546121155927209 -1 -0.16666666666666666 1.1570719105755054 -1 0.16666666666666666 1.1570719105755054 -1 0 1.2576868593212014 1 0 0.7546121155927209 1 -0.16666666666666666 1.1570719105755054 1 0.16666666666666666 1.1570719105755054 1 0 1.2576868593212014 0 -1 0.7546121155927209 -0.16666666666666666 -1 1.1570719105755054 0.16666666666666666 -1 1.1570719105755054 0 -1 1.2576868593212014 0 1 0.7546121155927209 -0.16666666666666666 1 1.1570719105755054 0.16666666666666666 1 1.1570719105755054 0 1 1.2576868593212014 0 0 0.9956245939926921 0 -0.1492816222079773 0.96146688440658945 0 0.1492816222079773 0.96146688440658945 0 0 0.46400077319679356 0 -0.17561017358501849 0.97183859238544801 0 0.17561017358501849 0.97183859238544801 -0.13598040429566477 -0.29117041739304145 1.2642901640981903 0.13598040429566477 -0.29117041739304145 1.2642901640981903 -0.13598040429566477 0.29117041739304145 1.2642901640981903 0.13598040429566477 0.29117041739304145 1.2642901640981903 0 0 0.99604659015494357 -0.26139875400340506 3.8518598887744717e-34 1.3481886989322807 0.26139875400340506 1.9259299443872359e-34 1.3481886989322807 0 0 1.4587637197975962 0 -0.40898950259596573 1.3949966078913927 0 0.40898950259596573 1.3949966078913927</DataArray></Points><Cells><DataArray type="Int32" Name="connectivity" format="ascii">37 35 34 36 50 51 53 52 41 40 38 39 50 52 53 51 35 34 53 51 12 9 42 54 39 51 53 38 30 54 42 29 36 52 53 34 16 55 46 18 40 38 53 52 32 33 46 55 34 53 42 9 0 1 2 3 38 29 42 53 6 7 2 1 34 18 46 53 0 4 5 1 38 53 46 33 6 1 5 8 12 9 42 54 11 10 43 56 30 54 42 29 25 57 44 24 16 55 46 18 15 58 47 17 32 33 46 55 27 28 48 59 51 35 12 54 50 37 14 60 51 54 30 39 50 60 31 41 52 55 16 36 50 60 14 37 52 40 32 55 50 41 31 60 12 54 60 14 11 56 61 13 30 31 60 54 25 26 62 57 16 14 60 55 15 13 61 58 32 55 60 31 27 59 62 26 54 60 61 56 57 62 63 64 55 58 61 60 59 65 63 62 42 54 56 43 44 57 64 45 46 47 58 55 48 49 65 59 11 56 61 13 20 64 63 21 25 26 62 57 20 21 63 64 15 13 61 58 22 21 63 65 27 59 62 26 22 65 63 21 11 56 64 20 10 43 45 19 25 20 64 57 24 19 45 44 15 22 65 58 17 23 49 47 27 59 65 22 28 48 49 23</DataArray><DataArray type="Int32" Name="offsets" format="ascii">8 16 24 32 40 48 56 64 72 80 88 96 104 112 120 128 136 144 152 160 168 176 184 192 200 208 216 224 232 240 248 256 264 272</DataArray><DataArray type="Int32" Name="types" format="ascii">12 12 12 12 12 12 12 12 12 12 12 12 12 12 12 12 12 12 12 12 12 12 12 12 12 12 12 12 12 12 12 12 12 12</DataArray></Cells></Piece></UnstructuredGrid></VTKFile>