MeshVersionFormatted 2
Dimension 3
Vertices
67
-1 0 -1 0
0 0 -1 0
0 -1 -1 0
-1 -1 -1 0
-1 1 -1 0
0 1 -1 0
1 0 -1 0
1 -1 -1 0
1 1 -1 0
-1 -1 1 0
-0.5 -1 1 0
-0.5 -0.5 1 0
-1 -0.5 1 0
-0.5 0 1 0
-1 0 1 0
-0.5 0.5 1 0
-1 0.5 1 0
-0.5 1 1 0
-1 1 1 0
0 -1 1 0
0 -0.5 1 0
0 0 1 0
0 0.5 1 0
0 1 1 0
0.5 -1 1 0
0.5 -0.5 1 0
0.5 0 1 0
0.5 0.5 1 0
0.5 1 1 0
1 -1 1 0
1 -0.5 1 0
1 0 1 0
1 0.5 1 0
1 1 1 0
-1 -1 0 0
-1 0 -0.13513513513513514 0
-1 1 0 0
-1 -0.5 0.48648648648648651 0
-1 0 0.45945945945945948 0
-1 0.5 0.48648648648648651 0
1 0 -0.13513513513513514 0
1 -1 0 0
1 1 0 0
1 0 0.45945945945945948 0
1 -0.5 0.48648648648648651 0
1 0.5 0.48648648648648651 0
0 -1 -0.13513513513513514 0
0 -1 0.45945945945945948 0
-0.5 -1 0.48648648648648651 0
0.5 -1 0.48648648648648651 0
0 1 -0.13513513513513514 0
-0.5 1 0.48648648648648651 0
0 1 0.45945945945945948 0
0.5 1 0.48648648648648651 0
-1.663501896129235e-18 -6.2092580881030324e-19 -0.19791659805064624 0
-3.9198157541355934e-18 -0.44420539733996206 0.31214720061738349 0
-7.5064660466496198e-18 0.44420539733996206 0.31214720061738349 0
-9.98101137677541e-18 -3.7255548528618196e-18 0.35304095223666276 0
-9.6180673939025556e-18 -0.5 0.63505663840784488 0
-2.7551318856472688e-17 0.5 0.63505663840784488 0
-0.52174077636088301 -0.55605925148287705 0.70594079620228978 0
0.52174077636088301 -0.55605925148287705 0.70594079620228978 0
-0.52174077636088301 0.55605925148287705 0.70594079620228978 0
0.52174077636088301 0.55605925148287705 0.70594079620228978 0
-0.50200535434231286 -5.1805901131498174e-18 0.69984616457341553 0
0.50200535434231286 -2.1636797201466739e-18 0.69984616457341553 0
-4.6796284563738005e-17 -9.1399511209643194e-18 0.65586922115876534 0
Hexahedra
32
1 4 3 2 36 35 47 55 0
7 2 3 8 41 55 47 42 0
1 2 6 5 36 55 51 37 0
7 9 6 2 41 43 51 55 0
36 35 47 55 39 38 56 58 0
41 55 47 42 44 58 56 45 0
36 55 51 37 39 58 57 40 0
41 43 51 55 44 46 57 58 0
35 47 56 38 49 48 59 61 0
42 45 56 47 50 62 59 48 0
37 40 57 51 52 63 60 53 0
43 51 57 46 54 53 60 64 0
39 38 56 58 65 61 59 67 0
44 58 56 45 66 67 59 62 0
39 58 57 40 65 67 60 63 0
44 46 57 58 66 64 60 67 0
65 61 59 67 14 12 21 22 0
66 67 59 62 27 22 21 26 0
65 67 60 63 14 22 23 16 0
66 64 60 67 27 28 23 22 0
39 38 61 65 15 13 12 14 0
44 66 62 45 32 27 26 31 0
39 65 63 40 15 14 16 17 0
44 46 64 66 32 33 28 27 0
61 59 21 12 49 48 20 11 0
62 26 21 59 50 25 20 48 0
63 16 23 60 52 18 24 53 0
64 60 23 28 54 53 24 29 0
38 35 49 61 13 10 11 12 0
45 62 50 42 31 26 25 30 0
40 63 52 37 17 16 18 19 0
46 43 54 64 33 34 29 28 0
Quadrilaterals
52
1 2 3 4 0
5 6 2 1 0
2 7 8 3 0
6 9 7 2 0
10 11 12 13 0
13 12 14 15 0
15 14 16 17 0
17 16 18 19 0
11 20 21 12 0
12 21 22 14 0
14 22 23 16 0
16 23 24 18 0
20 25 26 21 0
21 26 27 22 0
22 27 28 23 0
23 28 29 24 0
25 30 31 26 0
26 31 32 27 0
27 32 33 28 0
28 33 34 29 0
35 36 1 4 0
37 5 1 36 0
38 39 36 35 0
39 40 37 36 0
13 15 39 38 0
10 13 38 35 0
17 19 37 40 0
15 17 40 39 0
8 7 41 42 0
41 7 9 43 0
42 41 44 45 0
41 43 46 44 0
45 44 32 31 0
42 45 31 30 0
46 43 34 33 0
44 46 33 32 0
4 3 47 35 0
47 3 8 42 0
35 47 48 49 0
47 42 50 48 0
49 48 20 11 0
35 49 11 10 0
50 42 30 25 0
48 50 25 20 0
37 51 6 5 0
43 9 6 51 0
52 53 51 37 0
53 54 43 51 0
18 24 53 52 0
19 18 52 37 0
29 34 43 54 0
24 29 54 53 0
End
