<?xml version='1.0' encoding='utf-8'?>
<VTKFile type="UnstructuredGrid" version="0.1" byte_order="LittleEndian"><UnstructuredGrid><Piece NumberOfPoints="72" NumberOfCells="37"><Points><DataArray type="Float64" NumberOfComponents="3" format="ascii">-1 1 -0.65011822742646885 1 1 -0.65011822742646885 1 -1 -0.65011822742646885 -1 -1 -0.65011822742646885 -1 -1 0.65011822742646885 -0.59999999999999998 -1 0.65011822742646885 -0.59999999999999998 -0.59999999999999998 0.65011822742646885 -1 -0.59999999999999998 0.65011822742646885 -0.59999999999999998 -0.20000000000000001 0.65011822742646885 -1 -0.20000000000000001 0.65011822742646885 -0.59999999999999998 0.20000000000000001 0.65011822742646885 -1 0.20000000000000001 0.65011822742646885 -0.59999999999999998 0.59999999999999998 0.65011822742646885 -1 0.59999999999999998 0.65011822742646885 -0.59999999999999998 1 0.65011822742646885 -1 1 0.65011822742646885 -0.20000000000000001 -1 0.65011822742646885 -0.20000000000000001 -0.59999999999999998 0.65011822742646885 -0.20000000000000001 -0.20000000000000001 0.65011822742646885 -0.20000000000000001 0.20000000000000001 0.65011822742646885 -0.20000000000000001 0.59999999999999998 0.65011822742646885 -0.20000000000000001 1 0.65011822742646885 0.20000000000000001 -1 0.65011822742646885 0.20000000000000001 -0.59999999999999998 0.65011822742646885 0.20000000000000001 -0.20000000000000001 0.65011822742646885 0.20000000000000001 0.20000000000000001 0.65011822742646885 0.20000000000000001 0.59999999999999998 0.65011822742646885 0.20000000000000001 1 0.65011822742646885 0.59999999999999998 -1 0.65011822742646885 0.59999999999999998 -0.59999999999999998 0.65011822742646885 0.59999999999999998 -0.20000000000000001 0.65011822742646885 0.59999999999999998 0.20000000000000001 0.65011822742646885 0.59999999999999998 0.59999999999999998 0.65011822742646885 0.59999999999999998 1 0.65011822742646885 1 -1 0.65011822742646885 1 -0.59999999999999998 0.65011822742646885 1 -0.20000000000000001 0.65011822742646885 1 0.20000000000000001 0.65011822742646885 1 0.59999999999999998 0.65011822742646885 1 1 0.65011822742646885 -1 -0.3473684210526316 0.13002364548529377 -1 0.3473684210526316 0.13002364548529377 -1 -0.1368421052631579 0.39007093645588131 -1 0.1368421052631579 0.39007093645588131 1 0.3473684210526316 0.13002364548529377 1 -0.3473684210526316 0.13002364548529377 1 0.1368421052631579 0.39007093645588131 1 -0.1368421052631579 0.39007093645588131 0.3473684210526316 -1 0.13002364548529377 -0.3473684210526316 -1 0.13002364548529377 0.1368421052631579 -1 0.39007093645588131 -0.1368421052631579 -1 0.39007093645588131 -0.3473684210526316 1 0.13002364548529377 0.3473684210526316 1 0.13002364548529377 -0.1368421052631579 1 0.39007093645588131 0.1368421052631579 1 0.39007093645588131 -0.49203343244395009 0.45663359149338079 0.36372911481100162 0.49203343244395009 0.45663359149338079 0.36372911481100162 -0.49203343244395009 -0.45663359149338079 0.36372911481100162 0.49203343244395009 -0.45663359149338079 0.36372911481100162 -0.56213829084167466 -0.17463429861272894 0.48384070128342699 0.56213829084167466 -0.17463429861272894 0.48384070128342699 -0.56213829084167466 0.17463429861272894 0.48384070128342699 0.56213829084167466 0.17463429861272894 0.48384070128342699 -0.19349486523012596 0.4729415988801916 0.50981045507372003 0.19349486523012596 0.4729415988801916 0.50981045507372003 -0.19349486523012596 -0.4729415988801916 0.50981045507372003 0.19349486523012596 -0.4729415988801916 0.50981045507372003 -0.20350661154565977 -0.20161037523507186 0.64390894340727534 0.20350661154565977 -0.20161037523507186 0.64390894340727534 -0.20350661154565977 0.20161037523507186 0.64390894340727534 0.20350661154565977 0.20161037523507186 0.64390894340727534</DataArray></Points><Cells><DataArray type="Int32" Name="connectivity" format="ascii">0 3 2 1 41 40 45 44 41 40 45 44 56 58 59 57 1 0 41 44 53 52 56 57 2 45 40 3 48 59 58 49 41 40 58 56 43 42 60 62 44 57 59 45 46 63 61 47 56 58 59 57 64 66 67 65 0 41 56 52 15 13 12 14 1 53 57 44 39 33 32 38 3 49 58 40 4 5 6 7 2 45 59 48 34 35 29 28 48 59 58 49 50 67 66 51 53 52 56 57 55 54 64 65 56 58 66 64 62 60 68 70 57 65 67 59 63 71 69 61 40 58 60 42 7 6 8 9 45 47 61 59 35 36 30 29 41 43 62 56 13 11 10 12 44 57 63 46 38 32 31 37 48 59 67 50 28 29 23 22 49 51 66 58 5 16 17 6 53 55 65 57 33 27 26 32 52 56 64 54 14 12 20 21 66 58 6 17 68 60 8 18 67 23 29 59 69 24 30 61 64 20 12 56 70 19 10 62 65 57 32 26 71 63 31 25 64 66 67 65 70 68 69 71 65 64 70 71 26 20 19 25 67 69 68 66 23 24 18 17 66 67 23 17 51 50 22 16 64 20 26 65 54 21 27 55 70 68 69 71 19 18 24 25 62 60 68 70 10 8 18 19 63 71 69 61 31 25 24 30 62 60 8 10 43 42 9 11 63 31 30 61 46 37 36 47</DataArray><DataArray type="Int32" Name="offsets" format="ascii">8 16 24 32 40 48 56 64 72 80 88 96 104 112 120 128 136 144 152 160 168 176 184 192 200 208 216 224 232 240 248 256 264 272 280 288 296</DataArray><DataArray type="Int32" Name="types" format="ascii">12 12 12 12 12 12 12 12 12 12 12 12 12 12 12 12 12 12 12 12 12 12 12 12 12 12 12 12 12 12 12 12 12 12 12 12 12</DataArray></Cells></Piece></UnstructuredGrid></VTKFile>