MeshVersionFormatted 2
Dimension 3
Vertices
72
-1 1 -0.79279738507247655 0
1 1 -0.79279738507247655 0
1 -1 -0.79279738507247655 0
-1 -1 -0.79279738507247655 0
-1 -1 0.79279738507247655 0
-0.59999999999999998 -1 0.79279738507247655 0
-0.59999999999999998 -0.59999999999999998 0.79279738507247655 0
-1 -0.59999999999999998 0.79279738507247655 0
-0.59999999999999998 -0.20000000000000001 0.79279738507247655 0
-1 -0.20000000000000001 0.79279738507247655 0
-0.59999999999999998 0.20000000000000001 0.79279738507247655 0
-1 0.20000000000000001 0.79279738507247655 0
-0.59999999999999998 0.59999999999999998 0.79279738507247655 0
-1 0.59999999999999998 0.79279738507247655 0
-0.59999999999999998 1 0.79279738507247655 0
-1 1 0.79279738507247655 0
-0.20000000000000001 -1 0.79279738507247655 0
-0.20000000000000001 -0.59999999999999998 0.79279738507247655 0
-0.20000000000000001 -0.20000000000000001 0.79279738507247655 0
-0.20000000000000001 0.20000000000000001 0.79279738507247655 0
-0.20000000000000001 0.59999999999999998 0.79279738507247655 0
-0.20000000000000001 1 0.79279738507247655 0
0.20000000000000001 -1 0.79279738507247655 0
0.20000000000000001 -0.59999999999999998 0.79279738507247655 0
0.20000000000000001 -0.20000000000000001 0.79279738507247655 0
0.20000000000000001 0.20000000000000001 0.79279738507247655 0
0.20000000000000001 0.59999999999999998 0.79279738507247655 0
0.20000000000000001 1 0.79279738507247655 0
0.59999999999999998 -1 0.79279738507247655 0
0.59999999999999998 -0.59999999999999998 0.79279738507247655 0
0.59999999999999998 -0.20000000000000001 0.79279738507247655 0
0.59999999999999998 0.20000000000000001 0.79279738507247655 0
0.59999999999999998 0.59999999999999998 0.79279738507247655 0
0.59999999999999998 1 0.79279738507247655 0
1 -1 0.79279738507247655 0
1 -0.59999999999999998 0.79279738507247655 0
1 -0.20000000000000001 0.79279738507247655 0
1 0.20000000000000001 0.79279738507247655 0
1 0.59999999999999998 0.79279738507247655 0
1 1 0.79279738507247655 0
-1 -0.3473684210526316 0.15855947701449533 0
-1 0.3473684210526316 0.15855947701449533 0
-1 -0.1368421052631579 0.47567843104348589 0
-1 0.1368421052631579 0.47567843104348589 0
1 0.3473684210526316 0.15855947701449533 0
1 -0.3473684210526316 0.15855947701449533 0
1 0.1368421052631579 0.47567843104348589 0
1 -0.1368421052631579 0.47567843104348589 0
0.3473684210526316 -1 0.15855947701449533 0
-0.3473684210526316 -1 0.15855947701449533 0
0.1368421052631579 -1 0.47567843104348589 0
-0.1368421052631579 -1 0.47567843104348589 0
-0.3473684210526316 1 0.15855947701449533 0
0.3473684210526316 1 0.15855947701449533 0
-0.1368421052631579 1 0.47567843104348589 0
0.1368421052631579 1 0.47567843104348589 0
-0.34780746813899133 0.54990386251359558 0.59791168281618301 0
0.34780746813899133 0.54990386251359558 0.59791168281618301 0
-0.34780746813899133 -0.54990386251359558 0.59791168281618301 0
0.34780746813899133 -0.54990386251359558 0.59791168281618301 0
0.36101817494946953 -0.24628075217509018 0.70978769533308128 0
-0.36101817494946953 -0.24628075217509018 0.70978769533308128 0
0.36101817494946953 0.24628075217509018 0.70978769533308128 0
-0.36101817494946953 0.24628075217509018 0.70978769533308128 0
-0.19854038347052835 0.2031144154344684 0.79053447348428896 0
0.19854038347052835 0.2031144154344684 0.79053447348428896 0
-0.19854038347052835 -0.2031144154344684 0.79053447348428896 0
0.19854038347052835 -0.2031144154344684 0.79053447348428896 0
-0.13722033445008014 0.58441538265985793 0.75973603573404502 0
0.13722033445008014 0.58441538265985793 0.75973603573404502 0
-0.13722033445008014 -0.58441538265985793 0.75973603573404502 0
0.13722033445008014 -0.58441538265985793 0.75973603573404502 0
Hexahedra
37
1 4 3 2 42 41 46 45 0
42 41 46 45 44 43 48 47 0
2 1 42 45 54 53 57 58 0
3 46 41 4 49 60 59 50 0
41 46 48 43 59 60 61 62 0
42 44 47 45 57 64 63 58 0
1 42 57 53 16 14 13 15 0
2 54 58 45 40 34 33 39 0
4 50 59 41 5 6 7 8 0
3 46 60 49 35 36 30 29 0
43 41 59 62 10 8 7 9 0
48 61 60 46 37 31 30 36 0
44 64 57 42 12 11 13 14 0
47 45 58 63 38 39 33 32 0
44 43 48 47 64 62 61 63 0
44 43 62 64 12 10 9 11 0
47 63 61 48 38 32 31 37 0
64 62 61 63 65 67 68 66 0
57 64 63 58 69 65 66 70 0
59 60 61 62 71 72 68 67 0
62 64 11 9 67 65 20 19 0
61 31 32 63 68 25 26 66 0
59 62 9 7 71 67 19 18 0
60 30 31 61 72 24 25 68 0
57 13 11 64 69 21 20 65 0
58 63 32 33 70 66 26 27 0
65 67 68 66 20 19 25 26 0
67 68 25 19 71 72 24 18 0
65 20 26 66 69 21 27 70 0
58 57 69 70 54 53 55 56 0
60 72 71 59 49 51 52 50 0
7 59 71 18 6 50 52 17 0
30 24 72 60 29 23 51 49 0
13 21 69 57 15 22 55 53 0
33 58 70 27 34 54 56 28 0
71 72 24 18 52 51 23 17 0
69 21 27 70 55 22 28 56 0
Quadrilaterals
54
1 2 3 4 0
5 6 7 8 0
8 7 9 10 0
10 9 11 12 0
12 11 13 14 0
14 13 15 16 0
6 17 18 7 0
7 18 19 9 0
9 19 20 11 0
11 20 21 13 0
13 21 22 15 0
17 23 24 18 0
18 24 25 19 0
19 25 26 20 0
20 26 27 21 0
21 27 28 22 0
23 29 30 24 0
24 30 31 25 0
25 31 32 26 0
26 32 33 27 0
27 33 34 28 0
29 35 36 30 0
30 36 37 31 0
31 37 38 32 0
32 38 39 33 0
33 39 40 34 0
41 42 1 4 0
14 16 1 42 0
43 44 42 41 0
5 8 41 4 0
44 12 14 42 0
10 12 44 43 0
8 10 43 41 0
3 2 45 46 0
45 2 40 39 0
46 45 47 48 0
3 46 36 35 0
45 39 38 47 0
48 47 38 37 0
46 48 37 36 0
4 3 49 50 0
49 3 35 29 0
50 49 51 52 0
4 50 6 5 0
49 29 23 51 0
52 51 23 17 0
50 52 17 6 0
53 54 2 1 0
34 40 2 54 0
55 56 54 53 0
16 15 53 1 0
56 28 34 54 0
22 28 56 55 0
15 22 55 53 0
End
