<?xml version='1.0' encoding='utf-8'?>
<VTKFile type="UnstructuredGrid" version="0.1" byte_order="LittleEndian"><UnstructuredGrid><Piece NumberOfPoints="76" NumberOfCells="38"><Points><DataArray type="Float64" NumberOfComponents="3" format="ascii">-1 1 -1.3048092569024805 1 1 -1.3048092569024805 1 -1 -1.3048092569024805 -1 -1 -1.3048092569024805 -1 -1 1.3048092569024805 -0.59999999999999998 -1 1.3048092569024805 -0.59999999999999998 -0.59999999999999998 1.3048092569024805 -1 -0.59999999999999998 1.3048092569024805 -0.59999999999999998 -0.20000000000000001 1.3048092569024805 -1 -0.20000000000000001 1.3048092569024805 -0.59999999999999998 0.20000000000000001 1.3048092569024805 -1 0.20000000000000001 1.3048092569024805 -0.59999999999999998 0.59999999999999998 1.3048092569024805 -1 0.59999999999999998 1.3048092569024805 -0.59999999999999998 1 1.3048092569024805 -1 1 1.3048092569024805 -0.20000000000000001 -1 1.3048092569024805 -0.20000000000000001 -0.59999999999999998 1.3048092569024805 -0.20000000000000001 -0.20000000000000001 1.3048092569024805 -0.20000000000000001 0.20000000000000001 1.3048092569024805 -0.20000000000000001 0.59999999999999998 1.3048092569024805 -0.20000000000000001 1 1.3048092569024805 0.20000000000000001 -1 1.3048092569024805 0.20000000000000001 -0.59999999999999998 1.3048092569024805 0.20000000000000001 -0.20000000000000001 1.3048092569024805 0.20000000000000001 0.20000000000000001 1.3048092569024805 0.20000000000000001 0.59999999999999998 1.3048092569024805 0.20000000000000001 1 1.3048092569024805 0.59999999999999998 -1 1.3048092569024805 0.59999999999999998 -0.59999999999999998 1.3048092569024805 0.59999999999999998 -0.20000000000000001 1.3048092569024805 0.59999999999999998 0.20000000000000001 1.3048092569024805 0.59999999999999998 0.59999999999999998 1.3048092569024805 0.59999999999999998 1 1.3048092569024805 1 -1 1.3048092569024805 1 -0.59999999999999998 1.3048092569024805 1 -0.20000000000000001 1.3048092569024805 1 0.20000000000000001 1.3048092569024805 1 0.59999999999999998 1.3048092569024805 1 1 1.3048092569024805 -1 -1 0 -1 1 0 -1 -0.3473684210526316 0.7828855541414883 -1 0.3473684210526316 0.7828855541414883 -1 -0.1368421052631579 1.0438474055219844 -1 0.1368421052631579 1.0438474055219844 1 1 0 1 -1 0 1 0.3473684210526316 0.7828855541414883 1 -0.3473684210526316 0.7828855541414883 1 0.1368421052631579 1.0438474055219844 1 -0.1368421052631579 1.0438474055219844 0.3473684210526316 -1 0.7828855541414883 -0.3473684210526316 -1 0.7828855541414883 0.1368421052631579 -1 1.0438474055219844 -0.1368421052631579 -1 1.0438474055219844 -0.3473684210526316 1 0.7828855541414883 0.3473684210526316 1 0.7828855541414883 -0.1368421052631579 1 1.0438474055219844 0.1368421052631579 1 1.0438474055219844 0.54403483341114478 -0.44564680553118269 0.99382785527554274 -0.54403483341114478 -0.44564680553118269 0.99382785527554274 0.54403483341114478 0.44564680553118269 0.99382785527554274 -0.54403483341114478 0.44564680553118269 0.99382785527554274 -0.59925954025205586 -0.20682372306617489 1.1087153719280749 0.59925954025205586 -0.20682372306617489 1.1087153719280749 -0.59925954025205586 0.20682372306617489 1.1087153719280749 0.59925954025205586 0.20682372306617489 1.1087153719280749 -0.21543687733814479 0.48102211176585308 1.1493001930381124 0.21543687733814479 0.48102211176585308 1.1493001930381124 -0.21543687733814479 -0.48102211176585308 1.1493001930381124 0.21543687733814479 -0.48102211176585308 1.1493001930381124 0.20172691679240934 0.20048576716836236 1.3015535902575721 -0.20172691679240934 0.20048576716836236 1.3015535902575721 0.20172691679240934 -0.20048576716836236 1.3015535902575721 -0.20172691679240934 -0.20048576716836236 1.3015535902575721</DataArray></Points><Cells><DataArray type="Int32" Name="connectivity" format="ascii">0 3 2 1 41 40 47 46 41 40 47 46 43 42 49 48 40 47 49 42 53 52 60 61 41 43 48 46 56 63 62 57 43 42 49 48 63 61 60 62 43 42 61 63 45 44 64 66 48 62 60 49 50 67 65 51 63 61 60 62 68 70 71 69 42 40 53 61 7 4 5 6 49 60 52 47 35 29 28 34 43 63 56 41 13 12 14 15 48 46 57 62 38 39 33 32 53 52 60 61 55 54 71 70 56 63 62 57 58 68 69 59 60 62 69 71 65 67 72 74 61 70 68 63 64 75 73 66 42 61 64 44 7 6 8 9 49 51 65 60 35 36 30 29 43 45 66 63 13 11 10 12 48 62 67 50 38 32 31 37 52 60 71 54 28 29 23 22 53 55 70 61 5 16 17 6 57 59 69 62 33 27 26 32 56 63 68 58 14 12 20 21 70 61 6 17 75 64 8 18 71 23 29 60 74 24 30 65 68 20 12 63 73 19 10 66 69 62 32 26 72 67 31 25 68 70 71 69 73 75 74 72 69 68 73 72 26 20 19 25 71 74 75 70 23 24 18 17 70 71 23 17 55 54 22 16 68 20 26 69 58 21 27 59 73 75 74 72 19 18 24 25 64 75 73 66 8 18 19 10 65 67 72 74 30 31 25 24 66 64 8 10 45 44 9 11 67 31 30 65 50 37 36 51</DataArray><DataArray type="Int32" Name="offsets" format="ascii">8 16 24 32 40 48 56 64 72 80 88 96 104 112 120 128 136 144 152 160 168 176 184 192 200 208 216 224 232 240 248 256 264 272 280 288 296 304</DataArray><DataArray type="Int32" Name="types" format="ascii">12 12 12 12 12 12 12 12 12 12 12 12 12 12 12 12 12 12 12 12 12 12 12 12 12 12 12 12 12 12 12 12 12 12 12 12 12 12</DataArray></Cells></Piece></UnstructuredGrid></VTKFile>