MeshVersionFormatted 2
Dimension 3
Vertices
76
-1 1 -4 0
1 1 -4 0
1 -1 -4 0
-1 -1 -4 0
-1 -1 4 0
-0.59999999999999998 -1 4 0
-0.59999999999999998 -0.59999999999999998 4 0
-1 -0.59999999999999998 4 0
-0.59999999999999998 -0.20000000000000001 4 0
-1 -0.20000000000000001 4 0
-0.59999999999999998 0.20000000000000001 4 0
-1 0.20000000000000001 4 0
-0.59999999999999998 0.59999999999999998 4 0
-1 0.59999999999999998 4 0
-0.59999999999999998 1 4 0
-1 1 4 0
-0.20000000000000001 -1 4 0
-0.20000000000000001 -0.59999999999999998 4 0
-0.20000000000000001 -0.20000000000000001 4 0
-0.20000000000000001 0.20000000000000001 4 0
-0.20000000000000001 0.59999999999999998 4 0
-0.20000000000000001 1 4 0
0.20000000000000001 -1 4 0
0.20000000000000001 -0.59999999999999998 4 0
0.20000000000000001 -0.20000000000000001 4 0
0.20000000000000001 0.20000000000000001 4 0
0.20000000000000001 0.59999999999999998 4 0
0.20000000000000001 1 4 0
0.59999999999999998 -1 4 0
0.59999999999999998 -0.59999999999999998 4 0
0.59999999999999998 -0.20000000000000001 4 0
0.59999999999999998 0.20000000000000001 4 0
0.59999999999999998 0.59999999999999998 4 0
0.59999999999999998 1 4 0
1 -1 4 0
1 -0.59999999999999998 4 0
1 -0.20000000000000001 4 0
1 0.20000000000000001 4 0
1 0.59999999999999998 4 0
1 1 4 0
-1 -1 0 0
-1 1 0 0
-1 -0.3473684210526316 2.3999999999999999 0
-1 0.3473684210526316 2.3999999999999999 0
-1 -0.1368421052631579 3.2000000000000002 0
-1 0.1368421052631579 3.2000000000000002 0
1 1 0 0
1 -1 0 0
1 0.3473684210526316 2.3999999999999999 0
1 -0.3473684210526316 2.3999999999999999 0
1 0.1368421052631579 3.2000000000000002 0
1 -0.1368421052631579 3.2000000000000002 0
0.3473684210526316 -1 2.3999999999999999 0
-0.3473684210526316 -1 2.3999999999999999 0
0.1368421052631579 -1 3.2000000000000002 0
-0.1368421052631579 -1 3.2000000000000002 0
-0.3473684210526316 1 2.3999999999999999 0
0.3473684210526316 1 2.3999999999999999 0
-0.1368421052631579 1 3.2000000000000002 0
0.1368421052631579 1 3.2000000000000002 0
0.41583735814324418 -0.43098497693254223 3.2543070016307647 0
-0.41583735814324418 -0.43098497693254223 3.2543070016307647 0
0.41583735814324418 0.43098497693254223 3.2543070016307647 0
-0.41583735814324418 0.43098497693254223 3.2543070016307647 0
-0.54046152387582946 -0.14259243315997419 3.6020928142747435 0
0.54046152387582946 -0.14259243315997419 3.6020928142747435 0
-0.54046152387582946 0.14259243315997419 3.6020928142747435 0
0.54046152387582946 0.14259243315997419 3.6020928142747435 0
-0.18192409475115645 0.39156561845727844 3.6964495654806568 0
0.18192409475115645 0.39156561845727844 3.6964495654806568 0
-0.18192409475115645 -0.39156561845727844 3.6964495654806568 0
0.18192409475115645 -0.39156561845727844 3.6964495654806568 0
0.20008418959113686 0.19216259926235804 3.9871627493551456 0
-0.20008418959113686 0.19216259926235804 3.9871627493551456 0
0.20008418959113686 -0.19216259926235804 3.9871627493551456 0
-0.20008418959113686 -0.19216259926235804 3.9871627493551456 0
Hexahedra
38
1 4 3 2 42 41 48 47 0
42 41 48 47 44 43 50 49 0
41 48 50 43 54 53 61 62 0
42 44 49 47 57 64 63 58 0
44 43 50 49 64 62 61 63 0
44 43 62 64 46 45 65 67 0
49 63 61 50 51 68 66 52 0
64 62 61 63 69 71 72 70 0
43 41 54 62 8 5 6 7 0
50 61 53 48 36 30 29 35 0
44 64 57 42 14 13 15 16 0
49 47 58 63 39 40 34 33 0
54 53 61 62 56 55 72 71 0
57 64 63 58 59 69 70 60 0
61 63 70 72 66 68 73 75 0
62 71 69 64 65 76 74 67 0
43 62 65 45 8 7 9 10 0
50 52 66 61 36 37 31 30 0
44 46 67 64 14 12 11 13 0
49 63 68 51 39 33 32 38 0
53 61 72 55 29 30 24 23 0
54 56 71 62 6 17 18 7 0
58 60 70 63 34 28 27 33 0
57 64 69 59 15 13 21 22 0
71 62 7 18 76 65 9 19 0
72 24 30 61 75 25 31 66 0
69 21 13 64 74 20 11 67 0
70 63 33 27 73 68 32 26 0
69 71 72 70 74 76 75 73 0
70 69 74 73 27 21 20 26 0
72 75 76 71 24 25 19 18 0
71 72 24 18 56 55 23 17 0
69 21 27 70 59 22 28 60 0
74 76 75 73 20 19 25 26 0
65 76 74 67 9 19 20 11 0
66 68 73 75 31 32 26 25 0
67 65 9 11 46 45 10 12 0
68 32 31 66 51 38 37 52 0
Quadrilaterals
58
1 2 3 4 0
5 6 7 8 0
8 7 9 10 0
10 9 11 12 0
12 11 13 14 0
14 13 15 16 0
6 17 18 7 0
7 18 19 9 0
9 19 20 11 0
11 20 21 13 0
13 21 22 15 0
17 23 24 18 0
18 24 25 19 0
19 25 26 20 0
20 26 27 21 0
21 27 28 22 0
23 29 30 24 0
24 30 31 25 0
25 31 32 26 0
26 32 33 27 0
27 33 34 28 0
29 35 36 30 0
30 36 37 31 0
31 37 38 32 0
32 38 39 33 0
33 39 40 34 0
41 42 1 4 0
43 44 42 41 0
14 16 42 44 0
45 46 44 43 0
5 8 43 41 0
46 12 14 44 0
10 12 46 45 0
8 10 45 43 0
3 2 47 48 0
48 47 49 50 0
49 47 40 39 0
50 49 51 52 0
48 50 36 35 0
49 39 38 51 0
52 51 38 37 0
50 52 37 36 0
4 3 48 41 0
41 48 53 54 0
53 48 35 29 0
54 53 55 56 0
41 54 6 5 0
53 29 23 55 0
56 55 23 17 0
54 56 17 6 0
42 47 2 1 0
57 58 47 42 0
34 40 47 58 0
59 60 58 57 0
16 15 57 42 0
60 28 34 58 0
22 28 60 59 0
15 22 59 57 0
End
