<?xml version='1.0' encoding='utf-8'?>
<VTKFile type="UnstructuredGrid" version="0.1" byte_order="LittleEndian"><UnstructuredGrid><Piece NumberOfPoints="76" NumberOfCells="38"><Points><DataArray type="Float64" NumberOfComponents="3" format="ascii">-1 1 -1.2597301842479938 1 1 -1.2597301842479938 1 -1 -1.2597301842479938 -1 -1 -1.2597301842479938 -1 -1 1.2597301842479938 -0.59999999999999998 -1 1.2597301842479938 -0.59999999999999998 -0.59999999999999998 1.2597301842479938 -1 -0.59999999999999998 1.2597301842479938 -0.59999999999999998 -0.20000000000000001 1.2597301842479938 -1 -0.20000000000000001 1.2597301842479938 -0.59999999999999998 0.20000000000000001 1.2597301842479938 -1 0.20000000000000001 1.2597301842479938 -0.59999999999999998 0.59999999999999998 1.2597301842479938 -1 0.59999999999999998 1.2597301842479938 -0.59999999999999998 1 1.2597301842479938 -1 1 1.2597301842479938 -0.20000000000000001 -1 1.2597301842479938 -0.20000000000000001 -0.59999999999999998 1.2597301842479938 -0.20000000000000001 -0.20000000000000001 1.2597301842479938 -0.20000000000000001 0.20000000000000001 1.2597301842479938 -0.20000000000000001 0.59999999999999998 1.2597301842479938 -0.20000000000000001 1 1.2597301842479938 0.20000000000000001 -1 1.2597301842479938 0.20000000000000001 -0.59999999999999998 1.2597301842479938 0.20000000000000001 -0.20000000000000001 1.2597301842479938 0.20000000000000001 0.20000000000000001 1.2597301842479938 0.20000000000000001 0.59999999999999998 1.2597301842479938 0.20000000000000001 1 1.2597301842479938 0.59999999999999998 -1 1.2597301842479938 0.59999999999999998 -0.59999999999999998 1.2597301842479938 0.59999999999999998 -0.20000000000000001 1.2597301842479938 0.59999999999999998 0.20000000000000001 1.2597301842479938 0.59999999999999998 0.59999999999999998 1.2597301842479938 0.59999999999999998 1 1.2597301842479938 1 -1 1.2597301842479938 1 -0.59999999999999998 1.2597301842479938 1 -0.20000000000000001 1.2597301842479938 1 0.20000000000000001 1.2597301842479938 1 0.59999999999999998 1.2597301842479938 1 1 1.2597301842479938 -1 -1 0 -1 1 0 -1 -0.3473684210526316 0.75583811054879624 -1 0.3473684210526316 0.75583811054879624 -1 -0.1368421052631579 1.0077841473983951 -1 0.1368421052631579 1.0077841473983951 1 1 0 1 -1 0 1 0.3473684210526316 0.75583811054879624 1 -0.3473684210526316 0.75583811054879624 1 0.1368421052631579 1.0077841473983951 1 -0.1368421052631579 1.0077841473983951 0.3473684210526316 -1 0.75583811054879624 -0.3473684210526316 -1 0.75583811054879624 0.1368421052631579 -1 1.0077841473983951 -0.1368421052631579 -1 1.0077841473983951 -0.3473684210526316 1 0.75583811054879624 0.3473684210526316 1 0.75583811054879624 -0.1368421052631579 1 1.0077841473983951 0.1368421052631579 1 1.0077841473983951 0.60907943217666938 -0.42966031048003128 0.93552656965972236 -0.60907943217666938 -0.42966031048003128 0.93552656965972236 0.60907943217666938 0.42966031048003128 0.93552656965972236 -0.60907943217666938 0.42966031048003128 0.93552656965972236 -0.62215431082814954 -0.25797335741246075 1.017342624617138 0.62215431082814954 -0.25797335741246075 1.017342624617138 -0.62215431082814954 0.25797335741246075 1.017342624617138 0.62215431082814954 0.25797335741246075 1.017342624617138 -0.21287218097305446 -0.59288536035008832 1.2095187945752224 0.21287218097305446 -0.59288536035008832 1.2095187945752224 -0.21287218097305446 0.59288536035008832 1.2095187945752224 0.21287218097305446 0.59288536035008832 1.2095187945752224 0.19271563497273364 -0.30136910100621372 1.2123126818248589 -0.19271563497273364 -0.30136910100621372 1.2123126818248589 0.19271563497273364 0.30136910100621372 1.2123126818248589 -0.19271563497273364 0.30136910100621372 1.2123126818248589</DataArray></Points><Cells><DataArray type="Int32" Name="connectivity" format="ascii">0 3 2 1 41 40 47 46 41 40 47 46 43 42 49 48 40 47 49 42 53 52 60 61 41 43 48 46 56 63 62 57 43 42 49 48 63 61 60 62 43 42 61 63 45 44 64 66 48 62 60 49 50 67 65 51 63 61 60 62 66 64 65 67 61 60 65 64 68 69 72 73 63 66 67 62 70 75 74 71 42 40 53 61 7 4 5 6 49 60 52 47 35 29 28 34 43 63 56 41 13 12 14 15 48 46 57 62 38 39 33 32 53 52 60 61 55 54 69 68 56 63 62 57 58 70 71 59 42 61 64 44 7 6 8 9 49 51 65 60 35 36 30 29 43 45 66 63 13 11 10 12 48 62 67 50 38 32 31 37 66 64 65 67 75 73 72 74 60 65 72 69 29 30 24 23 61 68 73 64 6 17 18 8 62 71 74 67 32 26 25 31 63 66 75 70 12 10 19 20 66 64 73 75 10 8 18 19 67 74 72 65 31 25 24 30 66 64 8 10 45 44 9 11 67 31 30 65 50 37 36 51 75 73 72 74 19 18 24 25 73 72 24 18 68 69 23 17 75 19 25 74 70 20 26 71 61 68 17 6 53 55 16 5 60 29 23 69 52 28 22 54 63 12 20 70 56 14 21 58 62 71 26 32 57 59 27 33 68 69 23 17 55 54 22 16 70 20 26 71 58 21 27 59</DataArray><DataArray type="Int32" Name="offsets" format="ascii">8 16 24 32 40 48 56 64 72 80 88 96 104 112 120 128 136 144 152 160 168 176 184 192 200 208 216 224 232 240 248 256 264 272 280 288 296 304</DataArray><DataArray type="Int32" Name="types" format="ascii">12 12 12 12 12 12 12 12 12 12 12 12 12 12 12 12 12 12 12 12 12 12 12 12 12 12 12 12 12 12 12 12 12 12 12 12 12 12</DataArray></Cells></Piece></UnstructuredGrid></VTKFile>