<?xml version='1.0' encoding='utf-8'?>
<VTKFile type="UnstructuredGrid" version="0.1" byte_order="LittleEndian"><UnstructuredGrid><Piece NumberOfPoints="32" NumberOfCells="13"><Points><DataArray type="Float64" NumberOfComponents="3" format="ascii">-1 1 -0.65425872227363202 1 1 -0.65425872227363202 1 -1 -0.65425872227363202 -1 -1 -0.65425872227363202 -1 -1 0.65425872227363202 -0.33333333333333331 -1 0.65425872227363202 -0.33333333333333331 -0.33333333333333331 0.65425872227363202 -1 -0.33333333333333331 0.65425872227363202 -0.33333333333333331 0.33333333333333331 0.65425872227363202 -1 0.33333333333333331 0.65425872227363202 -0.33333333333333331 1 0.65425872227363202 -1 1 0.65425872227363202 0.33333333333333331 -1 0.65425872227363202 0.33333333333333331 -0.33333333333333331 0.65425872227363202 0.33333333333333331 0.33333333333333331 0.65425872227363202 0.33333333333333331 1 0.65425872227363202 1 -1 0.65425872227363202 1 -0.33333333333333331 0.65425872227363202 1 0.33333333333333331 0.65425872227363202 1 1 0.65425872227363202 -1 -0.33333333333333331 0 -1 0.33333333333333331 0 1 0.33333333333333331 0 1 -0.33333333333333331 0 0.33333333333333331 -1 0 -0.33333333333333331 -1 0 -0.33333333333333331 1 0 0.33333333333333331 1 0 -0.32428510783101672 0.34291473707711545 0.62095705250472488 0.32428510783101672 0.34291473707711545 0.62095705250472488 -0.32428510783101672 -0.34291473707711545 0.62095705250472488 0.32428510783101672 -0.34291473707711545 0.62095705250472488</DataArray></Points><Cells><DataArray type="Int32" Name="connectivity" format="ascii">0 3 2 1 21 20 23 22 21 20 23 22 28 30 31 29 1 0 21 22 27 26 28 29 2 23 20 3 24 31 30 25 21 20 30 28 9 7 6 8 22 29 31 23 18 14 13 17 28 30 31 29 8 6 13 14 30 31 13 6 25 24 12 5 28 8 14 29 26 10 15 27 0 21 28 26 11 9 8 10 1 27 29 22 19 15 14 18 3 25 30 20 4 5 6 7 2 23 31 24 16 17 13 12</DataArray><DataArray type="Int32" Name="offsets" format="ascii">8 16 24 32 40 48 56 64 72 80 88 96 104</DataArray><DataArray type="Int32" Name="types" format="ascii">12 12 12 12 12 12 12 12 12 12 12 12 12</DataArray></Cells></Piece></UnstructuredGrid></VTKFile>