MeshVersionFormatted 2
Dimension 3
Vertices
36
-1 1 -1.2540701378247752 0
1 1 -1.2540701378247752 0
1 -1 -1.2540701378247752 0
-1 -1 -1.2540701378247752 0
-1 -1 1.2540701378247752 0
-0.33333333333333331 -1 1.2540701378247752 0
-0.33333333333333331 -0.33333333333333331 1.2540701378247752 0
-1 -0.33333333333333331 1.2540701378247752 0
-0.33333333333333331 0.33333333333333331 1.2540701378247752 0
-1 0.33333333333333331 1.2540701378247752 0
-0.33333333333333331 1 1.2540701378247752 0
-1 1 1.2540701378247752 0
0.33333333333333331 -1 1.2540701378247752 0
0.33333333333333331 -0.33333333333333331 1.2540701378247752 0
0.33333333333333331 0.33333333333333331 1.2540701378247752 0
0.33333333333333331 1 1.2540701378247752 0
1 -1 1.2540701378247752 0
1 -0.33333333333333331 1.2540701378247752 0
1 0.33333333333333331 1.2540701378247752 0
1 1 1.2540701378247752 0
-1 -1 0 0
-1 1 0 0
-1 -0.33333333333333331 0.62703506891238758 0
-1 0.33333333333333331 0.62703506891238758 0
1 1 0 0
1 -1 0 0
1 0.33333333333333331 0.62703506891238758 0
1 -0.33333333333333331 0.62703506891238758 0
0.33333333333333331 -1 0.62703506891238758 0
-0.33333333333333331 -1 0.62703506891238758 0
-0.33333333333333331 1 0.62703506891238758 0
0.33333333333333331 1 0.62703506891238758 0
-0.34236663086216829 -0.32571761944957484 1.2250052898048218 0
0.34236663086216829 -0.32571761944957484 1.2250052898048218 0
-0.34236663086216829 0.32571761944957484 1.2250052898048218 0
0.34236663086216829 0.32571761944957484 1.2250052898048218 0
Hexahedra
14
1 4 3 2 22 21 26 25 0
22 21 26 25 31 30 29 32 0
22 21 30 31 24 23 33 35 0
25 32 29 26 27 36 34 28 0
31 30 29 32 35 33 34 36 0
30 29 34 33 6 13 14 7 0
31 35 36 32 11 9 15 16 0
35 33 34 36 9 7 14 15 0
35 33 7 9 24 23 8 10 0
36 15 14 34 27 19 18 28 0
21 30 33 23 5 6 7 8 0
26 28 34 29 17 18 14 13 0
22 24 35 31 12 10 9 11 0
25 32 36 27 20 16 15 19 0
Quadrilaterals
30
1 2 3 4 0
5 6 7 8 0
8 7 9 10 0
10 9 11 12 0
6 13 14 7 0
7 14 15 9 0
9 15 16 11 0
13 17 18 14 0
14 18 19 15 0
15 19 20 16 0
21 22 1 4 0
23 24 22 21 0
10 12 22 24 0
8 10 24 23 0
5 8 23 21 0
3 2 25 26 0
26 25 27 28 0
27 25 20 19 0
28 27 19 18 0
26 28 18 17 0
4 3 26 21 0
21 26 29 30 0
29 26 17 13 0
30 29 13 6 0
21 30 6 5 0
22 25 2 1 0
31 32 25 22 0
16 20 25 32 0
11 16 32 31 0
12 11 31 22 0
End
