MeshVersionFormatted 2
Dimension 3
Vertices
54
-1 0 -1 0
0 0 -1 0
0 -1 -1 0
-1 -1 -1 0
-1 1 -1 0
0 1 -1 0
1 0 -1 0
1 -1 -1 0
1 1 -1 0
-1 -1 1 0
-0.5 -1 1 0
-0.5 -0.5 1 0
-1 -0.5 1 0
-0.5 0 1 0
-1 0 1 0
-0.5 0.5 1 0
-1 0.5 1 0
-0.5 1 1 0
-1 1 1 0
0 -1 1 0
0 -0.5 1 0
0 0 1 0
0 0.5 1 0
0 1 1 0
0.5 -1 1 0
0.5 -0.5 1 0
0.5 0 1 0
0.5 0.5 1 0
0.5 1 1 0
1 -1 1 0
1 -0.5 1 0
1 0 1 0
1 0.5 1 0
1 1 1 0
-1 -0.4375 0.15384615384615385 0
-1 -0.3125 0.46153846153846156 0
-1 0 0.23076923076923078 0
-1 0.3125 0.46153846153846156 0
-1 0.4375 0.15384615384615385 0
1 -0.4375 0.15384615384615385 0
1 0 0.23076923076923078 0
1 -0.3125 0.46153846153846156 0
1 0.4375 0.15384615384615385 0
1 0.3125 0.46153846153846156 0
-0.4375 -1 0.15384615384615385 0
0 -1 0.23076923076923078 0
-0.3125 -1 0.46153846153846156 0
0.4375 -1 0.15384615384615385 0
0.3125 -1 0.46153846153846156 0
-0.4375 1 0.15384615384615385 0
-0.3125 1 0.46153846153846156 0
0 1 0.23076923076923078 0
0.3125 1 0.46153846153846156 0
0.4375 1 0.15384615384615385 0
Hexahedra
0
Quadrilaterals
52
1 2 3 4 0
5 6 2 1 0
2 7 8 3 0
6 9 7 2 0
10 11 12 13 0
13 12 14 15 0
15 14 16 17 0
17 16 18 19 0
11 20 21 12 0
12 21 22 14 0
14 22 23 16 0
16 23 24 18 0
20 25 26 21 0
21 26 27 22 0
22 27 28 23 0
23 28 29 24 0
25 30 31 26 0
26 31 32 27 0
27 32 33 28 0
28 33 34 29 0
10 35 1 4 0
36 37 1 35 0
13 36 35 10 0
38 39 1 37 0
13 15 37 36 0
19 5 1 39 0
17 19 39 38 0
15 17 38 37 0
8 7 40 30 0
40 7 41 42 0
30 40 42 31 0
41 7 43 44 0
42 41 32 31 0
43 7 9 34 0
44 43 34 33 0
41 44 33 32 0
4 3 45 10 0
45 3 46 47 0
10 45 47 11 0
46 3 48 49 0
47 46 20 11 0
48 3 8 30 0
49 48 30 25 0
46 49 25 20 0
19 50 6 5 0
51 52 6 50 0
18 51 50 19 0
53 54 6 52 0
18 24 52 51 0
34 9 6 54 0
29 34 54 53 0
24 29 53 52 0
End
