MeshVersionFormatted 2
Dimension 3
Vertices
46
-1 0 -1 0
0 0 -1 0
0 -1 -1 0
-1 -1 -1 0
-1 1 -1 0
0 1 -1 0
1 0 -1 0
1 -1 -1 0
1 1 -1 0
-1 -1 1 0
-0.5 -1 1 0
-0.5 -0.5 1 0
-1 -0.5 1 0
-0.5 0 1 0
-1 0 1 0
-0.5 0.5 1 0
-1 0.5 1 0
-0.5 1 1 0
-1 1 1 0
0 -1 1 0
0 -0.5 1 0
0 0 1 0
0 0.5 1 0
0 1 1 0
0.5 -1 1 0
0.5 -0.5 1 0
0.5 0 1 0
0.5 0.5 1 0
0.5 1 1 0
1 -1 1 0
1 -0.5 1 0
1 0 1 0
1 0.5 1 0
1 1 1 0
-1 -0.5 0 0
-1 0 0 0
-1 0.5 0 0
1 0 0 0
1 -0.5 0 0
1 0.5 0 0
0 -1 0 0
-0.5 -1 0 0
0.5 -1 0 0
-0.5 1 0 0
0 1 0 0
0.5 1 0 0
Hexahedra
0
Quadrilaterals
44
1 2 3 4 0
5 6 2 1 0
2 7 8 3 0
6 9 7 2 0
10 11 12 13 0
13 12 14 15 0
15 14 16 17 0
17 16 18 19 0
11 20 21 12 0
12 21 22 14 0
14 22 23 16 0
16 23 24 18 0
20 25 26 21 0
21 26 27 22 0
22 27 28 23 0
23 28 29 24 0
25 30 31 26 0
26 31 32 27 0
27 32 33 28 0
28 33 34 29 0
35 36 1 4 0
37 5 1 36 0
13 15 36 35 0
10 13 35 4 0
17 19 5 37 0
15 17 37 36 0
8 7 38 39 0
38 7 9 40 0
39 38 32 31 0
8 39 31 30 0
40 9 34 33 0
38 40 33 32 0
4 3 41 42 0
41 3 8 43 0
42 41 20 11 0
4 42 11 10 0
43 8 30 25 0
41 43 25 20 0
44 45 6 5 0
46 9 6 45 0
18 24 45 44 0
19 18 44 5 0
29 34 9 46 0
24 29 46 45 0
End
