MeshVersionFormatted 2
Dimension 3
Vertices
54
-1 0 -1 0
0 0 -1 0
0 -1 -1 0
-1 -1 -1 0
-1 1 -1 0
0 1 -1 0
1 0 -1 0
1 -1 -1 0
1 1 -1 0
-1 -1 1 0
-0.5 -1 1 0
-0.5 -0.5 1 0
-1 -0.5 1 0
-0.5 0 1 0
-1 0 1 0
-0.5 0.5 1 0
-1 0.5 1 0
-0.5 1 1 0
-1 1 1 0
0 -1 1 0
0 -0.5 1 0
0 0 1 0
0 0.5 1 0
0 1 1 0
0.5 -1 1 0
0.5 -0.5 1 0
0.5 0 1 0
0.5 0.5 1 0
0.5 1 1 0
1 -1 1 0
1 -0.5 1 0
1 0 1 0
1 0.5 1 0
1 1 1 0
-1 -1 0 0
-1 0 -0.13513513513513514 0
-1 1 0 0
-1 -0.5 0.48648648648648651 0
-1 0 0.45945945945945948 0
-1 0.5 0.48648648648648651 0
1 0 -0.13513513513513514 0
1 -1 0 0
1 1 0 0
1 0 0.45945945945945948 0
1 -0.5 0.48648648648648651 0
1 0.5 0.48648648648648651 0
0 -1 -0.13513513513513514 0
0 -1 0.45945945945945948 0
-0.5 -1 0.48648648648648651 0
0.5 -1 0.48648648648648651 0
0 1 -0.13513513513513514 0
-0.5 1 0.48648648648648651 0
0 1 0.45945945945945948 0
0.5 1 0.48648648648648651 0
Hexahedra
0
Quadrilaterals
52
1 2 3 4 0
5 6 2 1 0
2 7 8 3 0
6 9 7 2 0
10 11 12 13 0
13 12 14 15 0
15 14 16 17 0
17 16 18 19 0
11 20 21 12 0
12 21 22 14 0
14 22 23 16 0
16 23 24 18 0
20 25 26 21 0
21 26 27 22 0
22 27 28 23 0
23 28 29 24 0
25 30 31 26 0
26 31 32 27 0
27 32 33 28 0
28 33 34 29 0
35 36 1 4 0
37 5 1 36 0
38 39 36 35 0
39 40 37 36 0
13 15 39 38 0
10 13 38 35 0
17 19 37 40 0
15 17 40 39 0
8 7 41 42 0
41 7 9 43 0
42 41 44 45 0
41 43 46 44 0
45 44 32 31 0
42 45 31 30 0
46 43 34 33 0
44 46 33 32 0
4 3 47 35 0
47 3 8 42 0
35 47 48 49 0
47 42 50 48 0
49 48 20 11 0
35 49 11 10 0
50 42 30 25 0
48 50 25 20 0
37 51 6 5 0
43 9 6 51 0
52 53 51 37 0
53 54 43 51 0
18 24 53 52 0
19 18 52 37 0
29 34 43 54 0
24 29 54 53 0
End
