MeshVersionFormatted 2
Dimension 3
Vertices
54
-1 0 -1 0
0 0 -1 0
0 -1 -1 0
-1 -1 -1 0
-1 1 -1 0
0 1 -1 0
1 0 -1 0
1 -1 -1 0
1 1 -1 0
-1 -1 1 0
-0.5 -1 1 0
-0.5 -0.5 1 0
-1 -0.5 1 0
-0.5 0 1 0
-1 0 1 0
-0.5 0.5 1 0
-1 0.5 1 0
-0.5 1 1 0
-1 1 1 0
0 -1 1 0
0 -0.5 1 0
0 0 1 0
0 0.5 1 0
0 1 1 0
0.5 -1 1 0
0.5 -0.5 1 0
0.5 0 1 0
0.5 0.5 1 0
0.5 1 1 0
1 -1 1 0
1 -0.5 1 0
1 0 1 0
1 0.5 1 0
1 1 1 0
-1 -0.5625 0.125 0
-1 0.5625 0.125 0
-1 -0.6875 0.375 0
-1 -1 0 0
-1 0.6875 0.375 0
-1 1 0 0
1 -0.5625 0.125 0
1 0.5625 0.125 0
1 -0.6875 0.375 0
1 -1 0 0
1 1 0 0
1 0.6875 0.375 0
-0.5625 -1 0.125 0
0.5625 -1 0.125 0
-0.6875 -1 0.375 0
0.6875 -1 0.375 0
-0.5625 1 0.125 0
0.5625 1 0.125 0
-0.6875 1 0.375 0
0.6875 1 0.375 0
Hexahedra
0
Quadrilaterals
52
1 2 3 4 0
5 6 2 1 0
2 7 8 3 0
6 9 7 2 0
10 11 12 13 0
13 12 14 15 0
15 14 16 17 0
17 16 18 19 0
11 20 21 12 0
12 21 22 14 0
14 22 23 16 0
16 23 24 18 0
20 25 26 21 0
21 26 27 22 0
22 27 28 23 0
23 28 29 24 0
25 30 31 26 0
26 31 32 27 0
27 32 33 28 0
28 33 34 29 0
35 15 1 4 0
36 5 1 15 0
37 13 15 35 0
38 37 35 4 0
39 40 5 36 0
17 39 36 15 0
38 10 13 37 0
17 19 40 39 0
8 7 32 41 0
32 7 9 42 0
41 32 31 43 0
8 41 43 44 0
42 9 45 46 0
32 42 46 33 0
43 31 30 44 0
46 45 34 33 0
4 3 20 47 0
20 3 8 48 0
47 20 11 49 0
4 47 49 38 0
48 8 44 50 0
20 48 50 25 0
49 11 10 38 0
50 44 30 25 0
51 24 6 5 0
52 9 6 24 0
53 18 24 51 0
40 53 51 5 0
54 45 9 52 0
29 54 52 24 0
40 19 18 53 0
29 34 45 54 0
End
