MeshVersionFormatted 2
Dimension 3
Vertices
64
-1 -0.33333333333333331 -1 0
-0.33333333333333331 -0.33333333333333331 -1 0
-0.33333333333333331 -1 -1 0
-1 -1 -1 0
-1 0.33333333333333331 -1 0
-0.33333333333333331 0.33333333333333331 -1 0
-1 1 -1 0
-0.33333333333333331 1 -1 0
0.33333333333333331 -0.33333333333333331 -1 0
0.33333333333333331 -1 -1 0
0.33333333333333331 0.33333333333333331 -1 0
0.33333333333333331 1 -1 0
1 -0.33333333333333331 -1 0
1 -1 -1 0
1 0.33333333333333331 -1 0
1 1 -1 0
-1 -1 1 0
-0.59999999999999998 -1 1 0
-0.59999999999999998 -0.59999999999999998 1 0
-1 -0.59999999999999998 1 0
-0.59999999999999998 -0.20000000000000001 1 0
-1 -0.20000000000000001 1 0
-0.59999999999999998 0.20000000000000001 1 0
-1 0.20000000000000001 1 0
-0.59999999999999998 0.59999999999999998 1 0
-1 0.59999999999999998 1 0
-0.59999999999999998 1 1 0
-1 1 1 0
-0.20000000000000001 -1 1 0
-0.20000000000000001 -0.59999999999999998 1 0
-0.20000000000000001 -0.20000000000000001 1 0
-0.20000000000000001 0.20000000000000001 1 0
-0.20000000000000001 0.59999999999999998 1 0
-0.20000000000000001 1 1 0
0.20000000000000001 -1 1 0
0.20000000000000001 -0.59999999999999998 1 0
0.20000000000000001 -0.20000000000000001 1 0
0.20000000000000001 0.20000000000000001 1 0
0.20000000000000001 0.59999999999999998 1 0
0.20000000000000001 1 1 0
0.59999999999999998 -1 1 0
0.59999999999999998 -0.59999999999999998 1 0
0.59999999999999998 -0.20000000000000001 1 0
0.59999999999999998 0.20000000000000001 1 0
0.59999999999999998 0.59999999999999998 1 0
0.59999999999999998 1 1 0
1 -1 1 0
1 -0.59999999999999998 1 0
1 -0.20000000000000001 1 0
1 0.20000000000000001 1 0
1 0.59999999999999998 1 0
1 1 1 0
-1 -1 0 0
-1 -0.64444444444444449 0 0
-1 0.64444444444444449 0 0
-1 1 0 0
1 -0.64444444444444449 0 0
1 -1 0 0
1 0.64444444444444449 0 0
1 1 0 0
-0.64444444444444449 -1 0 0
0.64444444444444449 -1 0 0
-0.64444444444444449 1 0 0
0.64444444444444449 1 0 0
Hexahedra
0
Quadrilaterals
62
1 2 3 4 0
5 6 2 1 0
7 8 6 5 0
2 9 10 3 0
6 11 9 2 0
8 12 11 6 0
9 13 14 10 0
11 15 13 9 0
12 16 15 11 0
17 18 19 20 0
20 19 21 22 0
22 21 23 24 0
24 23 25 26 0
26 25 27 28 0
18 29 30 19 0
19 30 31 21 0
21 31 32 23 0
23 32 33 25 0
25 33 34 27 0
29 35 36 30 0
30 36 37 31 0
31 37 38 32 0
32 38 39 33 0
33 39 40 34 0
35 41 42 36 0
36 42 43 37 0
37 43 44 38 0
38 44 45 39 0
39 45 46 40 0
41 47 48 42 0
42 48 49 43 0
43 49 50 44 0
44 50 51 45 0
45 51 52 46 0
53 54 1 4 0
20 22 1 54 0
17 20 54 53 0
24 5 1 22 0
26 55 5 24 0
56 7 5 55 0
28 56 55 26 0
14 13 57 58 0
57 13 49 48 0
58 57 48 47 0
49 13 15 50 0
50 15 59 51 0
59 15 16 60 0
51 59 60 52 0
4 3 61 53 0
61 3 29 18 0
53 61 18 17 0
29 3 10 35 0
35 10 62 41 0
62 10 14 58 0
41 62 58 47 0
56 63 8 7 0
27 34 8 63 0
28 27 63 56 0
40 12 8 34 0
46 64 12 40 0
60 16 12 64 0
52 60 64 46 0
End
