MeshVersionFormatted 2
Dimension 3
Vertices
76
-1 -0.33333333333333331 -1 0
-0.33333333333333331 -0.33333333333333331 -1 0
-0.33333333333333331 -1 -1 0
-1 -1 -1 0
-1 0.33333333333333331 -1 0
-0.33333333333333331 0.33333333333333331 -1 0
-1 1 -1 0
-0.33333333333333331 1 -1 0
0.33333333333333331 -0.33333333333333331 -1 0
0.33333333333333331 -1 -1 0
0.33333333333333331 0.33333333333333331 -1 0
0.33333333333333331 1 -1 0
1 -0.33333333333333331 -1 0
1 -1 -1 0
1 0.33333333333333331 -1 0
1 1 -1 0
-1 -1 1 0
-0.59999999999999998 -1 1 0
-0.59999999999999998 -0.59999999999999998 1 0
-1 -0.59999999999999998 1 0
-0.59999999999999998 -0.20000000000000001 1 0
-1 -0.20000000000000001 1 0
-0.59999999999999998 0.20000000000000001 1 0
-1 0.20000000000000001 1 0
-0.59999999999999998 0.59999999999999998 1 0
-1 0.59999999999999998 1 0
-0.59999999999999998 1 1 0
-1 1 1 0
-0.20000000000000001 -1 1 0
-0.20000000000000001 -0.59999999999999998 1 0
-0.20000000000000001 -0.20000000000000001 1 0
-0.20000000000000001 0.20000000000000001 1 0
-0.20000000000000001 0.59999999999999998 1 0
-0.20000000000000001 1 1 0
0.20000000000000001 -1 1 0
0.20000000000000001 -0.59999999999999998 1 0
0.20000000000000001 -0.20000000000000001 1 0
0.20000000000000001 0.20000000000000001 1 0
0.20000000000000001 0.59999999999999998 1 0
0.20000000000000001 1 1 0
0.59999999999999998 -1 1 0
0.59999999999999998 -0.59999999999999998 1 0
0.59999999999999998 -0.20000000000000001 1 0
0.59999999999999998 0.20000000000000001 1 0
0.59999999999999998 0.59999999999999998 1 0
0.59999999999999998 1 1 0
1 -1 1 0
1 -0.59999999999999998 1 0
1 -0.20000000000000001 1 0
1 0.20000000000000001 1 0
1 0.59999999999999998 1 0
1 1 1 0
-1 -0.11549295774647887 0.14285714285714285 0
-1 0.11549295774647887 0.14285714285714285 0
-1 -0.061032863849765258 0.7142857142857143 0
-1 -0.044131455399061034 0.42857142857142855 0
-1 0.044131455399061034 0.42857142857142855 0
-1 0.061032863849765258 0.7142857142857143 0
1 -0.11549295774647887 0.14285714285714285 0
1 0.11549295774647887 0.14285714285714285 0
1 -0.044131455399061034 0.42857142857142855 0
1 -0.061032863849765258 0.7142857142857143 0
1 0.044131455399061034 0.42857142857142855 0
1 0.061032863849765258 0.7142857142857143 0
-0.11549295774647887 -1 0.14285714285714285 0
0.11549295774647887 -1 0.14285714285714285 0
-0.044131455399061034 -1 0.42857142857142855 0
-0.061032863849765258 -1 0.7142857142857143 0
0.044131455399061034 -1 0.42857142857142855 0
0.061032863849765258 -1 0.7142857142857143 0
-0.11549295774647887 1 0.14285714285714285 0
0.11549295774647887 1 0.14285714285714285 0
-0.061032863849765258 1 0.7142857142857143 0
-0.044131455399061034 1 0.42857142857142855 0
0.044131455399061034 1 0.42857142857142855 0
0.061032863849765258 1 0.7142857142857143 0
Hexahedra
0
Quadrilaterals
74
1 2 3 4 0
5 6 2 1 0
7 8 6 5 0
2 9 10 3 0
6 11 9 2 0
8 12 11 6 0
9 13 14 10 0
11 15 13 9 0
12 16 15 11 0
17 18 19 20 0
20 19 21 22 0
22 21 23 24 0
24 23 25 26 0
26 25 27 28 0
18 29 30 19 0
19 30 31 21 0
21 31 32 23 0
23 32 33 25 0
25 33 34 27 0
29 35 36 30 0
30 36 37 31 0
31 37 38 32 0
32 38 39 33 0
33 39 40 34 0
35 41 42 36 0
36 42 43 37 0
37 43 44 38 0
38 44 45 39 0
39 45 46 40 0
41 47 48 42 0
42 48 49 43 0
43 49 50 44 0
44 50 51 45 0
45 51 52 46 0
17 20 1 4 0
22 53 1 20 0
54 5 1 53 0
55 56 53 22 0
24 26 5 54 0
56 57 54 53 0
58 57 56 55 0
24 58 55 22 0
28 7 5 26 0
57 58 24 54 0
14 13 48 47 0
48 13 59 49 0
59 13 15 60 0
49 59 61 62 0
60 15 51 50 0
59 60 63 61 0
62 61 63 64 0
49 62 64 50 0
51 15 16 52 0
60 50 64 63 0
4 3 18 17 0
18 3 65 29 0
65 3 10 66 0
29 65 67 68 0
66 10 41 35 0
65 66 69 67 0
68 67 69 70 0
29 68 70 35 0
41 10 14 47 0
66 35 70 69 0
28 27 8 7 0
34 71 8 27 0
72 12 8 71 0
73 74 71 34 0
40 46 12 72 0
74 75 72 71 0
76 75 74 73 0
40 76 73 34 0
52 16 12 46 0
75 76 40 72 0
End
