MeshVersionFormatted 2
Dimension 3
Vertices
72
-1 -0.33333333333333331 -1 0
-0.33333333333333331 -0.33333333333333331 -1 0
-0.33333333333333331 -1 -1 0
-1 -1 -1 0
-1 0.33333333333333331 -1 0
-0.33333333333333331 0.33333333333333331 -1 0
-1 1 -1 0
-0.33333333333333331 1 -1 0
0.33333333333333331 -0.33333333333333331 -1 0
0.33333333333333331 -1 -1 0
0.33333333333333331 0.33333333333333331 -1 0
0.33333333333333331 1 -1 0
1 -0.33333333333333331 -1 0
1 -1 -1 0
1 0.33333333333333331 -1 0
1 1 -1 0
-1 -1 1 0
-0.59999999999999998 -1 1 0
-0.59999999999999998 -0.59999999999999998 1 0
-1 -0.59999999999999998 1 0
-0.59999999999999998 -0.20000000000000001 1 0
-1 -0.20000000000000001 1 0
-0.59999999999999998 0.20000000000000001 1 0
-1 0.20000000000000001 1 0
-0.59999999999999998 0.59999999999999998 1 0
-1 0.59999999999999998 1 0
-0.59999999999999998 1 1 0
-1 1 1 0
-0.20000000000000001 -1 1 0
-0.20000000000000001 -0.59999999999999998 1 0
-0.20000000000000001 -0.20000000000000001 1 0
-0.20000000000000001 0.20000000000000001 1 0
-0.20000000000000001 0.59999999999999998 1 0
-0.20000000000000001 1 1 0
0.20000000000000001 -1 1 0
0.20000000000000001 -0.59999999999999998 1 0
0.20000000000000001 -0.20000000000000001 1 0
0.20000000000000001 0.20000000000000001 1 0
0.20000000000000001 0.59999999999999998 1 0
0.20000000000000001 1 1 0
0.59999999999999998 -1 1 0
0.59999999999999998 -0.59999999999999998 1 0
0.59999999999999998 -0.20000000000000001 1 0
0.59999999999999998 0.20000000000000001 1 0
0.59999999999999998 0.59999999999999998 1 0
0.59999999999999998 1 1 0
1 -1 1 0
1 -0.59999999999999998 1 0
1 -0.20000000000000001 1 0
1 0.20000000000000001 1 0
1 0.59999999999999998 1 0
1 1 1 0
-1 -0.65000000000000002 0.125 0
-1 -0.75 0.375 0
-1 -1 0 0
-1 0.65000000000000002 0.125 0
-1 0.75 0.375 0
-1 1 0 0
1 -0.65000000000000002 0.125 0
1 -0.75 0.375 0
1 -1 0 0
1 0.65000000000000002 0.125 0
1 1 0 0
1 0.75 0.375 0
-0.65000000000000002 -1 0.125 0
-0.75 -1 0.375 0
0.65000000000000002 -1 0.125 0
0.75 -1 0.375 0
-0.65000000000000002 1 0.125 0
-0.75 1 0.375 0
0.65000000000000002 1 0.125 0
0.75 1 0.375 0
Hexahedra
0
Quadrilaterals
70
1 2 3 4 0
5 6 2 1 0
7 8 6 5 0
2 9 10 3 0
6 11 9 2 0
8 12 11 6 0
9 13 14 10 0
11 15 13 9 0
12 16 15 11 0
17 18 19 20 0
20 19 21 22 0
22 21 23 24 0
24 23 25 26 0
26 25 27 28 0
18 29 30 19 0
19 30 31 21 0
21 31 32 23 0
23 32 33 25 0
25 33 34 27 0
29 35 36 30 0
30 36 37 31 0
31 37 38 32 0
32 38 39 33 0
33 39 40 34 0
35 41 42 36 0
36 42 43 37 0
37 43 44 38 0
38 44 45 39 0
39 45 46 40 0
41 47 48 42 0
42 48 49 43 0
43 49 50 44 0
44 50 51 45 0
45 51 52 46 0
53 22 1 4 0
24 5 1 22 0
54 20 22 53 0
55 54 53 4 0
56 7 5 24 0
55 17 20 54 0
57 58 7 56 0
26 57 56 24 0
26 28 58 57 0
14 13 49 59 0
49 13 15 50 0
59 49 48 60 0
14 59 60 61 0
50 15 16 62 0
60 48 47 61 0
62 16 63 64 0
50 62 64 51 0
64 63 52 51 0
4 3 29 65 0
29 3 10 35 0
65 29 18 66 0
4 65 66 55 0
35 10 14 67 0
66 18 17 55 0
67 14 61 68 0
35 67 68 41 0
68 61 47 41 0
69 34 8 7 0
40 12 8 34 0
70 27 34 69 0
58 70 69 7 0
71 16 12 40 0
58 28 27 70 0
72 63 16 71 0
46 72 71 40 0
46 52 63 72 0
End
