MeshVersionFormatted 2
Dimension 3
Vertices
76
-1 -0.33333333333333331 -1 0
-0.33333333333333331 -0.33333333333333331 -1 0
-0.33333333333333331 -1 -1 0
-1 -1 -1 0
-1 0.33333333333333331 -1 0
-0.33333333333333331 0.33333333333333331 -1 0
-1 1 -1 0
-0.33333333333333331 1 -1 0
0.33333333333333331 -0.33333333333333331 -1 0
0.33333333333333331 -1 -1 0
0.33333333333333331 0.33333333333333331 -1 0
0.33333333333333331 1 -1 0
1 -0.33333333333333331 -1 0
1 -1 -1 0
1 0.33333333333333331 -1 0
1 1 -1 0
-1 -1 1 0
-0.59999999999999998 -1 1 0
-0.59999999999999998 -0.59999999999999998 1 0
-1 -0.59999999999999998 1 0
-0.59999999999999998 -0.20000000000000001 1 0
-1 -0.20000000000000001 1 0
-0.59999999999999998 0.20000000000000001 1 0
-1 0.20000000000000001 1 0
-0.59999999999999998 0.59999999999999998 1 0
-1 0.59999999999999998 1 0
-0.59999999999999998 1 1 0
-1 1 1 0
-0.20000000000000001 -1 1 0
-0.20000000000000001 -0.59999999999999998 1 0
-0.20000000000000001 -0.20000000000000001 1 0
-0.20000000000000001 0.20000000000000001 1 0
-0.20000000000000001 0.59999999999999998 1 0
-0.20000000000000001 1 1 0
0.20000000000000001 -1 1 0
0.20000000000000001 -0.59999999999999998 1 0
0.20000000000000001 -0.20000000000000001 1 0
0.20000000000000001 0.20000000000000001 1 0
0.20000000000000001 0.59999999999999998 1 0
0.20000000000000001 1 1 0
0.59999999999999998 -1 1 0
0.59999999999999998 -0.59999999999999998 1 0
0.59999999999999998 -0.20000000000000001 1 0
0.59999999999999998 0.20000000000000001 1 0
0.59999999999999998 0.59999999999999998 1 0
0.59999999999999998 1 1 0
1 -1 1 0
1 -0.59999999999999998 1 0
1 -0.20000000000000001 1 0
1 0.20000000000000001 1 0
1 0.59999999999999998 1 0
1 1 1 0
-1 -0.31515151515151513 0 0
-1 -0.16212121212121211 -0.5 0
-1 0.16212121212121211 -0.5 0
-1 0.31515151515151513 0 0
-1 -0.12878787878787878 0.5 0
-1 0.12878787878787878 0.5 0
1 -0.16212121212121211 -0.5 0
1 -0.31515151515151513 0 0
1 0.16212121212121211 -0.5 0
1 0.31515151515151513 0 0
1 0.12878787878787878 0.5 0
1 -0.12878787878787878 0.5 0
-0.16212121212121211 -1 -0.5 0
-0.31515151515151513 -1 0 0
0.16212121212121211 -1 -0.5 0
0.31515151515151513 -1 0 0
0.12878787878787878 -1 0.5 0
-0.12878787878787878 -1 0.5 0
-0.31515151515151513 1 0 0
-0.16212121212121211 1 -0.5 0
0.16212121212121211 1 -0.5 0
0.31515151515151513 1 0 0
-0.12878787878787878 1 0.5 0
0.12878787878787878 1 0.5 0
Hexahedra
0
Quadrilaterals
74
1 2 3 4 0
5 6 2 1 0
7 8 6 5 0
2 9 10 3 0
6 11 9 2 0
8 12 11 6 0
9 13 14 10 0
11 15 13 9 0
12 16 15 11 0
17 18 19 20 0
20 19 21 22 0
22 21 23 24 0
24 23 25 26 0
26 25 27 28 0
18 29 30 19 0
19 30 31 21 0
21 31 32 23 0
23 32 33 25 0
25 33 34 27 0
29 35 36 30 0
30 36 37 31 0
31 37 38 32 0
32 38 39 33 0
33 39 40 34 0
35 41 42 36 0
36 42 43 37 0
37 43 44 38 0
38 44 45 39 0
39 45 46 40 0
41 47 48 42 0
42 48 49 43 0
43 49 50 44 0
44 50 51 45 0
45 51 52 46 0
53 54 1 4 0
55 5 1 54 0
56 55 54 53 0
17 20 53 4 0
56 7 5 55 0
57 58 56 53 0
22 57 53 20 0
26 28 7 56 0
24 26 56 58 0
22 24 58 57 0
14 13 59 60 0
59 13 15 61 0
60 59 61 62 0
14 60 48 47 0
61 15 16 62 0
60 62 63 64 0
48 60 64 49 0
62 16 52 51 0
63 62 51 50 0
64 63 50 49 0
4 3 65 66 0
65 3 10 67 0
66 65 67 68 0
4 66 18 17 0
67 10 14 68 0
66 68 69 70 0
18 66 70 29 0
68 14 47 41 0
69 68 41 35 0
70 69 35 29 0
71 72 8 7 0
73 12 8 72 0
74 73 72 71 0
28 27 71 7 0
74 16 12 73 0
75 76 74 71 0
34 75 71 27 0
46 52 16 74 0
40 46 74 76 0
34 40 76 75 0
End
