MeshVersionFormatted 2
Dimension 3
Vertices
68
-1 1 -1 0
1 1 -1 0
1 -1 -1 0
-1 -1 -1 0
-1 -1 1 0
-0.59999999999999998 -1 1 0
-0.59999999999999998 -0.59999999999999998 1 0
-1 -0.59999999999999998 1 0
-0.59999999999999998 -0.20000000000000001 1 0
-1 -0.20000000000000001 1 0
-0.59999999999999998 0.20000000000000001 1 0
-1 0.20000000000000001 1 0
-0.59999999999999998 0.59999999999999998 1 0
-1 0.59999999999999998 1 0
-0.59999999999999998 1 1 0
-1 1 1 0
-0.20000000000000001 -1 1 0
-0.20000000000000001 -0.59999999999999998 1 0
-0.20000000000000001 -0.20000000000000001 1 0
-0.20000000000000001 0.20000000000000001 1 0
-0.20000000000000001 0.59999999999999998 1 0
-0.20000000000000001 1 1 0
0.20000000000000001 -1 1 0
0.20000000000000001 -0.59999999999999998 1 0
0.20000000000000001 -0.20000000000000001 1 0
0.20000000000000001 0.20000000000000001 1 0
0.20000000000000001 0.59999999999999998 1 0
0.20000000000000001 1 1 0
0.59999999999999998 -1 1 0
0.59999999999999998 -0.59999999999999998 1 0
0.59999999999999998 -0.20000000000000001 1 0
0.59999999999999998 0.20000000000000001 1 0
0.59999999999999998 0.59999999999999998 1 0
0.59999999999999998 1 1 0
1 -1 1 0
1 -0.59999999999999998 1 0
1 -0.20000000000000001 1 0
1 0.20000000000000001 1 0
1 0.59999999999999998 1 0
1 1 1 0
-1 -1 0 0
-1 1 0 0
-1 -0.30566037735849055 0.30769230769230771 0
-1 0.30566037735849055 0.30769230769230771 0
-1 0.22264150943396227 0.61538461538461542 0
-1 0.60754716981132073 0.53846153846153844 0
-1 -0.22264150943396227 0.61538461538461542 0
-1 -0.60754716981132073 0.53846153846153844 0
1 1 0 0
1 -1 0 0
1 0.30566037735849055 0.30769230769230771 0
1 -0.30566037735849055 0.30769230769230771 0
1 0.60754716981132073 0.53846153846153844 0
1 0.22264150943396227 0.61538461538461542 0
1 -0.22264150943396227 0.61538461538461542 0
1 -0.60754716981132073 0.53846153846153844 0
0.30566037735849055 -1 0.30769230769230771 0
-0.30566037735849055 -1 0.30769230769230771 0
0.60754716981132073 -1 0.53846153846153844 0
0.22264150943396227 -1 0.61538461538461542 0
-0.22264150943396227 -1 0.61538461538461542 0
-0.60754716981132073 -1 0.53846153846153844 0
-0.30566037735849055 1 0.30769230769230771 0
0.30566037735849055 1 0.30769230769230771 0
0.22264150943396227 1 0.61538461538461542 0
0.60754716981132073 1 0.53846153846153844 0
-0.22264150943396227 1 0.61538461538461542 0
-0.60754716981132073 1 0.53846153846153844 0
Hexahedra
0
Quadrilaterals
66
1 2 3 4 0
5 6 7 8 0
8 7 9 10 0
10 9 11 12 0
12 11 13 14 0
14 13 15 16 0
6 17 18 7 0
7 18 19 9 0
9 19 20 11 0
11 20 21 13 0
13 21 22 15 0
17 23 24 18 0
18 24 25 19 0
19 25 26 20 0
20 26 27 21 0
21 27 28 22 0
23 29 30 24 0
24 30 31 25 0
25 31 32 26 0
26 32 33 27 0
27 33 34 28 0
29 35 36 30 0
30 36 37 31 0
31 37 38 32 0
32 38 39 33 0
33 39 40 34 0
41 42 1 4 0
43 44 42 41 0
45 46 42 44 0
47 45 44 43 0
48 47 43 41 0
14 16 42 46 0
12 14 46 45 0
10 12 45 47 0
8 10 47 48 0
5 8 48 41 0
3 2 49 50 0
50 49 51 52 0
51 49 53 54 0
52 51 54 55 0
50 52 55 56 0
53 49 40 39 0
54 53 39 38 0
55 54 38 37 0
56 55 37 36 0
50 56 36 35 0
4 3 50 41 0
41 50 57 58 0
57 50 59 60 0
58 57 60 61 0
41 58 61 62 0
59 50 35 29 0
60 59 29 23 0
61 60 23 17 0
62 61 17 6 0
41 62 6 5 0
42 49 2 1 0
63 64 49 42 0
65 66 49 64 0
67 65 64 63 0
68 67 63 42 0
34 40 49 66 0
28 34 66 65 0
22 28 65 67 0
15 22 67 68 0
16 15 68 42 0
End
