MeshVersionFormatted 2
Dimension 3
Vertices
76
-1 -0.33333333333333331 -1 0
-0.33333333333333331 -0.33333333333333331 -1 0
-0.33333333333333331 -1 -1 0
-1 -1 -1 0
-1 0.33333333333333331 -1 0
-0.33333333333333331 0.33333333333333331 -1 0
-1 1 -1 0
-0.33333333333333331 1 -1 0
0.33333333333333331 -0.33333333333333331 -1 0
0.33333333333333331 -1 -1 0
0.33333333333333331 0.33333333333333331 -1 0
0.33333333333333331 1 -1 0
1 -0.33333333333333331 -1 0
1 -1 -1 0
1 0.33333333333333331 -1 0
1 1 -1 0
-1 -1 1 0
-0.59999999999999998 -1 1 0
-0.59999999999999998 -0.59999999999999998 1 0
-1 -0.59999999999999998 1 0
-0.59999999999999998 -0.20000000000000001 1 0
-1 -0.20000000000000001 1 0
-0.59999999999999998 0.20000000000000001 1 0
-1 0.20000000000000001 1 0
-0.59999999999999998 0.59999999999999998 1 0
-1 0.59999999999999998 1 0
-0.59999999999999998 1 1 0
-1 1 1 0
-0.20000000000000001 -1 1 0
-0.20000000000000001 -0.59999999999999998 1 0
-0.20000000000000001 -0.20000000000000001 1 0
-0.20000000000000001 0.20000000000000001 1 0
-0.20000000000000001 0.59999999999999998 1 0
-0.20000000000000001 1 1 0
0.20000000000000001 -1 1 0
0.20000000000000001 -0.59999999999999998 1 0
0.20000000000000001 -0.20000000000000001 1 0
0.20000000000000001 0.20000000000000001 1 0
0.20000000000000001 0.59999999999999998 1 0
0.20000000000000001 1 1 0
0.59999999999999998 -1 1 0
0.59999999999999998 -0.59999999999999998 1 0
0.59999999999999998 -0.20000000000000001 1 0
0.59999999999999998 0.20000000000000001 1 0
0.59999999999999998 0.59999999999999998 1 0
0.59999999999999998 1 1 0
1 -1 1 0
1 -0.59999999999999998 1 0
1 -0.20000000000000001 1 0
1 0.20000000000000001 1 0
1 0.59999999999999998 1 0
1 1 1 0
-1 -0.59999999999999998 0.14285714285714285 0
-1 -0.46666666666666667 0.42857142857142855 0
-1 -0.20000000000000001 0.14285714285714285 0
-1 0.20000000000000001 0.14285714285714285 0
-1 0.46666666666666667 0.42857142857142855 0
-1 0.59999999999999998 0.14285714285714285 0
1 -0.59999999999999998 0.14285714285714285 0
1 -0.20000000000000001 0.14285714285714285 0
1 -0.46666666666666667 0.42857142857142855 0
1 0.20000000000000001 0.14285714285714285 0
1 0.59999999999999998 0.14285714285714285 0
1 0.46666666666666667 0.42857142857142855 0
-0.59999999999999998 -1 0.14285714285714285 0
-0.20000000000000001 -1 0.14285714285714285 0
-0.46666666666666667 -1 0.42857142857142855 0
0.20000000000000001 -1 0.14285714285714285 0
0.59999999999999998 -1 0.14285714285714285 0
0.46666666666666667 -1 0.42857142857142855 0
-0.59999999999999998 1 0.14285714285714285 0
-0.46666666666666667 1 0.42857142857142855 0
-0.20000000000000001 1 0.14285714285714285 0
0.20000000000000001 1 0.14285714285714285 0
0.46666666666666667 1 0.42857142857142855 0
0.59999999999999998 1 0.14285714285714285 0
Hexahedra
0
Quadrilaterals
74
1 2 3 4 0
5 6 2 1 0
7 8 6 5 0
2 9 10 3 0
6 11 9 2 0
8 12 11 6 0
9 13 14 10 0
11 15 13 9 0
12 16 15 11 0
17 18 19 20 0
20 19 21 22 0
22 21 23 24 0
24 23 25 26 0
26 25 27 28 0
18 29 30 19 0
19 30 31 21 0
21 31 32 23 0
23 32 33 25 0
25 33 34 27 0
29 35 36 30 0
30 36 37 31 0
31 37 38 32 0
32 38 39 33 0
33 39 40 34 0
35 41 42 36 0
36 42 43 37 0
37 43 44 38 0
38 44 45 39 0
39 45 46 40 0
41 47 48 42 0
42 48 49 43 0
43 49 50 44 0
44 50 51 45 0
45 51 52 46 0
17 53 1 4 0
54 55 1 53 0
20 54 53 17 0
56 5 1 55 0
20 22 55 54 0
57 58 5 56 0
22 24 56 55 0
28 7 5 58 0
26 28 58 57 0
24 26 57 56 0
14 13 59 47 0
59 13 60 61 0
47 59 61 48 0
60 13 15 62 0
61 60 49 48 0
62 15 63 64 0
60 62 50 49 0
63 15 16 52 0
64 63 52 51 0
62 64 51 50 0
4 3 65 17 0
65 3 66 67 0
17 65 67 18 0
66 3 10 68 0
67 66 29 18 0
68 10 69 70 0
66 68 35 29 0
69 10 14 47 0
70 69 47 41 0
68 70 41 35 0
28 71 8 7 0
72 73 8 71 0
27 72 71 28 0
74 12 8 73 0
27 34 73 72 0
75 76 12 74 0
34 40 74 73 0
52 16 12 76 0
46 52 76 75 0
40 46 75 74 0
End
