MeshVersionFormatted 2
Dimension 3
Vertices
56
-1 1 -1 0
1 1 -1 0
1 -1 -1 0
-1 -1 -1 0
-1 -1 1 0
-0.59999999999999998 -1 1 0
-0.59999999999999998 -0.59999999999999998 1 0
-1 -0.59999999999999998 1 0
-0.59999999999999998 -0.20000000000000001 1 0
-1 -0.20000000000000001 1 0
-0.59999999999999998 0.20000000000000001 1 0
-1 0.20000000000000001 1 0
-0.59999999999999998 0.59999999999999998 1 0
-1 0.59999999999999998 1 0
-0.59999999999999998 1 1 0
-1 1 1 0
-0.20000000000000001 -1 1 0
-0.20000000000000001 -0.59999999999999998 1 0
-0.20000000000000001 -0.20000000000000001 1 0
-0.20000000000000001 0.20000000000000001 1 0
-0.20000000000000001 0.59999999999999998 1 0
-0.20000000000000001 1 1 0
0.20000000000000001 -1 1 0
0.20000000000000001 -0.59999999999999998 1 0
0.20000000000000001 -0.20000000000000001 1 0
0.20000000000000001 0.20000000000000001 1 0
0.20000000000000001 0.59999999999999998 1 0
0.20000000000000001 1 1 0
0.59999999999999998 -1 1 0
0.59999999999999998 -0.59999999999999998 1 0
0.59999999999999998 -0.20000000000000001 1 0
0.59999999999999998 0.20000000000000001 1 0
0.59999999999999998 0.59999999999999998 1 0
0.59999999999999998 1 1 0
1 -1 1 0
1 -0.59999999999999998 1 0
1 -0.20000000000000001 1 0
1 0.20000000000000001 1 0
1 0.59999999999999998 1 0
1 1 1 0
-1 -0.3473684210526316 0.20000000000000001 0
-1 0.3473684210526316 0.20000000000000001 0
-1 -0.1368421052631579 0.59999999999999998 0
-1 0.1368421052631579 0.59999999999999998 0
1 0.3473684210526316 0.20000000000000001 0
1 -0.3473684210526316 0.20000000000000001 0
1 0.1368421052631579 0.59999999999999998 0
1 -0.1368421052631579 0.59999999999999998 0
0.3473684210526316 -1 0.20000000000000001 0
-0.3473684210526316 -1 0.20000000000000001 0
0.1368421052631579 -1 0.59999999999999998 0
-0.1368421052631579 -1 0.59999999999999998 0
-0.3473684210526316 1 0.20000000000000001 0
0.3473684210526316 1 0.20000000000000001 0
-0.1368421052631579 1 0.59999999999999998 0
0.1368421052631579 1 0.59999999999999998 0
Hexahedra
0
Quadrilaterals
54
1 2 3 4 0
5 6 7 8 0
8 7 9 10 0
10 9 11 12 0
12 11 13 14 0
14 13 15 16 0
6 17 18 7 0
7 18 19 9 0
9 19 20 11 0
11 20 21 13 0
13 21 22 15 0
17 23 24 18 0
18 24 25 19 0
19 25 26 20 0
20 26 27 21 0
21 27 28 22 0
23 29 30 24 0
24 30 31 25 0
25 31 32 26 0
26 32 33 27 0
27 33 34 28 0
29 35 36 30 0
30 36 37 31 0
31 37 38 32 0
32 38 39 33 0
33 39 40 34 0
41 42 1 4 0
14 16 1 42 0
43 44 42 41 0
5 8 41 4 0
44 12 14 42 0
10 12 44 43 0
8 10 43 41 0
3 2 45 46 0
45 2 40 39 0
46 45 47 48 0
3 46 36 35 0
45 39 38 47 0
48 47 38 37 0
46 48 37 36 0
4 3 49 50 0
49 3 35 29 0
50 49 51 52 0
4 50 6 5 0
49 29 23 51 0
52 51 23 17 0
50 52 17 6 0
53 54 2 1 0
34 40 2 54 0
55 56 54 53 0
16 15 53 1 0
56 28 34 54 0
22 28 56 55 0
15 22 55 53 0
End
