MeshVersionFormatted 2
Dimension 3
Vertices
60
-1 1 -1 0
1 1 -1 0
1 -1 -1 0
-1 -1 -1 0
-1 -1 1 0
-0.59999999999999998 -1 1 0
-0.59999999999999998 -0.59999999999999998 1 0
-1 -0.59999999999999998 1 0
-0.59999999999999998 -0.20000000000000001 1 0
-1 -0.20000000000000001 1 0
-0.59999999999999998 0.20000000000000001 1 0
-1 0.20000000000000001 1 0
-0.59999999999999998 0.59999999999999998 1 0
-1 0.59999999999999998 1 0
-0.59999999999999998 1 1 0
-1 1 1 0
-0.20000000000000001 -1 1 0
-0.20000000000000001 -0.59999999999999998 1 0
-0.20000000000000001 -0.20000000000000001 1 0
-0.20000000000000001 0.20000000000000001 1 0
-0.20000000000000001 0.59999999999999998 1 0
-0.20000000000000001 1 1 0
0.20000000000000001 -1 1 0
0.20000000000000001 -0.59999999999999998 1 0
0.20000000000000001 -0.20000000000000001 1 0
0.20000000000000001 0.20000000000000001 1 0
0.20000000000000001 0.59999999999999998 1 0
0.20000000000000001 1 1 0
0.59999999999999998 -1 1 0
0.59999999999999998 -0.59999999999999998 1 0
0.59999999999999998 -0.20000000000000001 1 0
0.59999999999999998 0.20000000000000001 1 0
0.59999999999999998 0.59999999999999998 1 0
0.59999999999999998 1 1 0
1 -1 1 0
1 -0.59999999999999998 1 0
1 -0.20000000000000001 1 0
1 0.20000000000000001 1 0
1 0.59999999999999998 1 0
1 1 1 0
-1 -0.37142857142857144 0.125 0
-1 0.37142857142857144 0.125 0
-1 0.65714285714285714 0.375 0
-1 1 0 0
-1 -1 0 0
-1 -0.65714285714285714 0.375 0
1 0.37142857142857144 0.125 0
1 -0.37142857142857144 0.125 0
1 1 0 0
1 0.65714285714285714 0.375 0
1 -0.65714285714285714 0.375 0
1 -1 0 0
0.37142857142857144 -1 0.125 0
-0.37142857142857144 -1 0.125 0
0.65714285714285714 -1 0.375 0
-0.65714285714285714 -1 0.375 0
-0.37142857142857144 1 0.125 0
0.37142857142857144 1 0.125 0
0.65714285714285714 1 0.375 0
-0.65714285714285714 1 0.375 0
Hexahedra
0
Quadrilaterals
58
1 2 3 4 0
5 6 7 8 0
8 7 9 10 0
10 9 11 12 0
12 11 13 14 0
14 13 15 16 0
6 17 18 7 0
7 18 19 9 0
9 19 20 11 0
11 20 21 13 0
13 21 22 15 0
17 23 24 18 0
18 24 25 19 0
19 25 26 20 0
20 26 27 21 0
21 27 28 22 0
23 29 30 24 0
24 30 31 25 0
25 31 32 26 0
26 32 33 27 0
27 33 34 28 0
29 35 36 30 0
30 36 37 31 0
31 37 38 32 0
32 38 39 33 0
33 39 40 34 0
41 42 1 4 0
43 44 1 42 0
10 12 42 41 0
45 46 41 4 0
14 16 44 43 0
12 14 43 42 0
46 8 10 41 0
5 8 46 45 0
3 2 47 48 0
47 2 49 50 0
48 47 38 37 0
3 48 51 52 0
50 49 40 39 0
47 50 39 38 0
48 37 36 51 0
52 51 36 35 0
4 3 53 54 0
53 3 52 55 0
54 53 23 17 0
4 54 56 45 0
55 52 35 29 0
53 55 29 23 0
54 17 6 56 0
45 56 6 5 0
57 58 2 1 0
59 49 2 58 0
22 28 58 57 0
44 60 57 1 0
34 40 49 59 0
28 34 59 58 0
60 15 22 57 0
16 15 60 44 0
End
