MeshVersionFormatted 2
Dimension 3
Vertices
68
-1 1 -1 0
1 1 -1 0
1 -1 -1 0
-1 -1 -1 0
-1 -1 1 0
-0.59999999999999998 -1 1 0
-0.59999999999999998 -0.59999999999999998 1 0
-1 -0.59999999999999998 1 0
-0.59999999999999998 -0.20000000000000001 1 0
-1 -0.20000000000000001 1 0
-0.59999999999999998 0.20000000000000001 1 0
-1 0.20000000000000001 1 0
-0.59999999999999998 0.59999999999999998 1 0
-1 0.59999999999999998 1 0
-0.59999999999999998 1 1 0
-1 1 1 0
-0.20000000000000001 -1 1 0
-0.20000000000000001 -0.59999999999999998 1 0
-0.20000000000000001 -0.20000000000000001 1 0
-0.20000000000000001 0.20000000000000001 1 0
-0.20000000000000001 0.59999999999999998 1 0
-0.20000000000000001 1 1 0
0.20000000000000001 -1 1 0
0.20000000000000001 -0.59999999999999998 1 0
0.20000000000000001 -0.20000000000000001 1 0
0.20000000000000001 0.20000000000000001 1 0
0.20000000000000001 0.59999999999999998 1 0
0.20000000000000001 1 1 0
0.59999999999999998 -1 1 0
0.59999999999999998 -0.59999999999999998 1 0
0.59999999999999998 -0.20000000000000001 1 0
0.59999999999999998 0.20000000000000001 1 0
0.59999999999999998 0.59999999999999998 1 0
0.59999999999999998 1 1 0
1 -1 1 0
1 -0.59999999999999998 1 0
1 -0.20000000000000001 1 0
1 0.20000000000000001 1 0
1 0.59999999999999998 1 0
1 1 1 0
-1 -0.33636363636363636 -0.33333333333333331 0
-1 0.33636363636363636 -0.33333333333333331 0
-1 0.34545454545454546 0.33333333333333331 0
-1 1 0 0
-1 -0.34545454545454546 0.33333333333333331 0
-1 -1 0 0
-1 -0.13636363636363635 0.66666666666666663 0
-1 0.13636363636363635 0.66666666666666663 0
1 0.33636363636363636 -0.33333333333333331 0
1 -0.33636363636363636 -0.33333333333333331 0
1 1 0 0
1 0.34545454545454546 0.33333333333333331 0
1 -0.34545454545454546 0.33333333333333331 0
1 -1 0 0
1 0.13636363636363635 0.66666666666666663 0
1 -0.13636363636363635 0.66666666666666663 0
0.33636363636363636 -1 -0.33333333333333331 0
-0.33636363636363636 -1 -0.33333333333333331 0
0.34545454545454546 -1 0.33333333333333331 0
-0.34545454545454546 -1 0.33333333333333331 0
0.13636363636363635 -1 0.66666666666666663 0
-0.13636363636363635 -1 0.66666666666666663 0
-0.33636363636363636 1 -0.33333333333333331 0
0.33636363636363636 1 -0.33333333333333331 0
0.34545454545454546 1 0.33333333333333331 0
-0.34545454545454546 1 0.33333333333333331 0
-0.13636363636363635 1 0.66666666666666663 0
0.13636363636363635 1 0.66666666666666663 0
Hexahedra
0
Quadrilaterals
66
1 2 3 4 0
5 6 7 8 0
8 7 9 10 0
10 9 11 12 0
12 11 13 14 0
14 13 15 16 0
6 17 18 7 0
7 18 19 9 0
9 19 20 11 0
11 20 21 13 0
13 21 22 15 0
17 23 24 18 0
18 24 25 19 0
19 25 26 20 0
20 26 27 21 0
21 27 28 22 0
23 29 30 24 0
24 30 31 25 0
25 31 32 26 0
26 32 33 27 0
27 33 34 28 0
29 35 36 30 0
30 36 37 31 0
31 37 38 32 0
32 38 39 33 0
33 39 40 34 0
41 42 1 4 0
43 44 1 42 0
45 43 42 41 0
46 45 41 4 0
14 16 44 43 0
47 48 43 45 0
5 8 45 46 0
48 12 14 43 0
10 12 48 47 0
8 10 47 45 0
3 2 49 50 0
49 2 51 52 0
50 49 52 53 0
3 50 53 54 0
52 51 40 39 0
53 52 55 56 0
54 53 36 35 0
52 39 38 55 0
56 55 38 37 0
53 56 37 36 0
4 3 57 58 0
57 3 54 59 0
58 57 59 60 0
4 58 60 46 0
59 54 35 29 0
60 59 61 62 0
46 60 6 5 0
59 29 23 61 0
62 61 23 17 0
60 62 17 6 0
63 64 2 1 0
65 51 2 64 0
66 65 64 63 0
44 66 63 1 0
34 40 51 65 0
67 68 65 66 0
16 15 66 44 0
68 28 34 65 0
22 28 68 67 0
15 22 67 66 0
End
