MeshVersionFormatted 2
Dimension 3
Vertices
76
-1 -0.33333333333333331 -1 0
-0.33333333333333331 -0.33333333333333331 -1 0
-0.33333333333333331 -1 -1 0
-1 -1 -1 0
-1 0.33333333333333331 -1 0
-0.33333333333333331 0.33333333333333331 -1 0
-1 1 -1 0
-0.33333333333333331 1 -1 0
0.33333333333333331 -0.33333333333333331 -1 0
0.33333333333333331 -1 -1 0
0.33333333333333331 0.33333333333333331 -1 0
0.33333333333333331 1 -1 0
1 -0.33333333333333331 -1 0
1 -1 -1 0
1 0.33333333333333331 -1 0
1 1 -1 0
-1 -1 1 0
-0.59999999999999998 -1 1 0
-0.59999999999999998 -0.59999999999999998 1 0
-1 -0.59999999999999998 1 0
-0.59999999999999998 -0.20000000000000001 1 0
-1 -0.20000000000000001 1 0
-0.59999999999999998 0.20000000000000001 1 0
-1 0.20000000000000001 1 0
-0.59999999999999998 0.59999999999999998 1 0
-1 0.59999999999999998 1 0
-0.59999999999999998 1 1 0
-1 1 1 0
-0.20000000000000001 -1 1 0
-0.20000000000000001 -0.59999999999999998 1 0
-0.20000000000000001 -0.20000000000000001 1 0
-0.20000000000000001 0.20000000000000001 1 0
-0.20000000000000001 0.59999999999999998 1 0
-0.20000000000000001 1 1 0
0.20000000000000001 -1 1 0
0.20000000000000001 -0.59999999999999998 1 0
0.20000000000000001 -0.20000000000000001 1 0
0.20000000000000001 0.20000000000000001 1 0
0.20000000000000001 0.59999999999999998 1 0
0.20000000000000001 1 1 0
0.59999999999999998 -1 1 0
0.59999999999999998 -0.59999999999999998 1 0
0.59999999999999998 -0.20000000000000001 1 0
0.59999999999999998 0.20000000000000001 1 0
0.59999999999999998 0.59999999999999998 1 0
0.59999999999999998 1 1 0
1 -1 1 0
1 -0.59999999999999998 1 0
1 -0.20000000000000001 1 0
1 0.20000000000000001 1 0
1 0.59999999999999998 1 0
1 1 1 0
-1 -0.30695970695970698 0.23076923076923078 0
-1 0.30695970695970698 0.23076923076923078 0
-1 -0.20146520146520147 0.69230769230769229 0
-1 0.20146520146520147 0.69230769230769229 0
-1 -0.10036630036630037 0.84615384615384615 0
-1 0.10036630036630037 0.84615384615384615 0
1 -0.30695970695970698 0.23076923076923078 0
1 0.30695970695970698 0.23076923076923078 0
1 -0.20146520146520147 0.69230769230769229 0
1 0.20146520146520147 0.69230769230769229 0
1 -0.10036630036630037 0.84615384615384615 0
1 0.10036630036630037 0.84615384615384615 0
-0.30695970695970698 -1 0.23076923076923078 0
0.30695970695970698 -1 0.23076923076923078 0
-0.20146520146520147 -1 0.69230769230769229 0
0.20146520146520147 -1 0.69230769230769229 0
-0.10036630036630037 -1 0.84615384615384615 0
0.10036630036630037 -1 0.84615384615384615 0
-0.30695970695970698 1 0.23076923076923078 0
0.30695970695970698 1 0.23076923076923078 0
-0.20146520146520147 1 0.69230769230769229 0
0.20146520146520147 1 0.69230769230769229 0
-0.10036630036630037 1 0.84615384615384615 0
0.10036630036630037 1 0.84615384615384615 0
Hexahedra
0
Quadrilaterals
74
1 2 3 4 0
5 6 2 1 0
7 8 6 5 0
2 9 10 3 0
6 11 9 2 0
8 12 11 6 0
9 13 14 10 0
11 15 13 9 0
12 16 15 11 0
17 18 19 20 0
20 19 21 22 0
22 21 23 24 0
24 23 25 26 0
26 25 27 28 0
18 29 30 19 0
19 30 31 21 0
21 31 32 23 0
23 32 33 25 0
25 33 34 27 0
29 35 36 30 0
30 36 37 31 0
31 37 38 32 0
32 38 39 33 0
33 39 40 34 0
35 41 42 36 0
36 42 43 37 0
37 43 44 38 0
38 44 45 39 0
39 45 46 40 0
41 47 48 42 0
42 48 49 43 0
43 49 50 44 0
44 50 51 45 0
45 51 52 46 0
17 53 1 4 0
54 5 1 53 0
20 55 53 17 0
28 7 5 54 0
55 56 54 53 0
22 57 55 20 0
56 26 28 54 0
57 58 56 55 0
24 58 57 22 0
58 24 26 56 0
14 13 59 47 0
59 13 15 60 0
47 59 61 48 0
60 15 16 52 0
59 60 62 61 0
48 61 63 49 0
60 52 51 62 0
61 62 64 63 0
49 63 64 50 0
62 51 50 64 0
4 3 65 17 0
65 3 10 66 0
17 65 67 18 0
66 10 14 47 0
65 66 68 67 0
18 67 69 29 0
66 47 41 68 0
67 68 70 69 0
29 69 70 35 0
68 41 35 70 0
28 71 8 7 0
72 12 8 71 0
27 73 71 28 0
52 16 12 72 0
73 74 72 71 0
34 75 73 27 0
74 46 52 72 0
75 76 74 73 0
40 76 75 34 0
76 40 46 74 0
End
