MeshVersionFormatted 2
Dimension 3
Vertices
44
-1 1 -1 0
1 1 -1 0
1 -1 -1 0
-1 -1 -1 0
-1 -1 1 0
-0.33333333333333331 -1 1 0
-0.33333333333333331 -0.33333333333333331 1 0
-1 -0.33333333333333331 1 0
-0.33333333333333331 0.33333333333333331 1 0
-1 0.33333333333333331 1 0
-0.33333333333333331 1 1 0
-1 1 1 0
0.33333333333333331 -1 1 0
0.33333333333333331 -0.33333333333333331 1 0
0.33333333333333331 0.33333333333333331 1 0
0.33333333333333331 1 1 0
1 -1 1 0
1 -0.33333333333333331 1 0
1 0.33333333333333331 1 0
1 1 1 0
-1 -0.32407407407407407 -0.25 0
-1 0.32407407407407407 -0.25 0
-1 0.29629629629629628 0.5 0
-1 -0.29629629629629628 0.5 0
-1 0.15740740740740741 0.75 0
-1 -0.15740740740740741 0.75 0
1 0.32407407407407407 -0.25 0
1 -0.32407407407407407 -0.25 0
1 0.29629629629629628 0.5 0
1 -0.29629629629629628 0.5 0
1 0.15740740740740741 0.75 0
1 -0.15740740740740741 0.75 0
0.32407407407407407 -1 -0.25 0
-0.32407407407407407 -1 -0.25 0
0.29629629629629628 -1 0.5 0
-0.29629629629629628 -1 0.5 0
0.15740740740740741 -1 0.75 0
-0.15740740740740741 -1 0.75 0
-0.32407407407407407 1 -0.25 0
0.32407407407407407 1 -0.25 0
0.29629629629629628 1 0.5 0
-0.29629629629629628 1 0.5 0
0.15740740740740741 1 0.75 0
-0.15740740740740741 1 0.75 0
Hexahedra
0
Quadrilaterals
42
1 2 3 4 0
5 6 7 8 0
8 7 9 10 0
10 9 11 12 0
6 13 14 7 0
7 14 15 9 0
9 15 16 11 0
13 17 18 14 0
14 18 19 15 0
15 19 20 16 0
21 22 1 4 0
23 12 1 22 0
24 23 22 21 0
5 24 21 4 0
25 10 12 23 0
26 25 23 24 0
8 26 24 5 0
26 8 10 25 0
3 2 27 28 0
27 2 20 29 0
28 27 29 30 0
3 28 30 17 0
29 20 19 31 0
30 29 31 32 0
17 30 32 18 0
31 19 18 32 0
4 3 33 34 0
33 3 17 35 0
34 33 35 36 0
4 34 36 5 0
35 17 13 37 0
36 35 37 38 0
5 36 38 6 0
37 13 6 38 0
39 40 2 1 0
41 20 2 40 0
42 41 40 39 0
12 42 39 1 0
43 16 20 41 0
44 43 41 42 0
11 44 42 12 0
44 11 16 43 0
End
