MeshVersionFormatted 2
Dimension 3
Vertices
50
-1 0 -1 0
0 0 -1 0
0 -1 -1 0
-1 -1 -1 0
-1 1 -1 0
0 1 -1 0
1 0 -1 0
1 -1 -1 0
1 1 -1 0
-1 -1 1 0
-0.5 -1 1 0
-0.5 -0.5 1 0
-1 -0.5 1 0
-0.5 0 1 0
-1 0 1 0
-0.5 0.5 1 0
-1 0.5 1 0
-0.5 1 1 0
-1 1 1 0
0 -1 1 0
0 -0.5 1 0
0 0 1 0
0 0.5 1 0
0 1 1 0
0.5 -1 1 0
0.5 -0.5 1 0
0.5 0 1 0
0.5 0.5 1 0
0.5 1 1 0
1 -1 1 0
1 -0.5 1 0
1 0 1 0
1 0.5 1 0
1 1 1 0
-1 -0.16666666666666666 0.59999999999999998 0
-1 0 0.066666666666666666 0
-1 0.16666666666666666 0.59999999999999998 0
-1 0 0.73333333333333328 0
1 0 0.066666666666666666 0
1 -0.16666666666666666 0.59999999999999998 0
1 0.16666666666666666 0.59999999999999998 0
1 0 0.73333333333333328 0
0 -1 0.066666666666666666 0
-0.16666666666666666 -1 0.59999999999999998 0
0.16666666666666666 -1 0.59999999999999998 0
0 -1 0.73333333333333328 0
-0.16666666666666666 1 0.59999999999999998 0
0 1 0.066666666666666666 0
0.16666666666666666 1 0.59999999999999998 0
0 1 0.73333333333333328 0
Hexahedra
0
Quadrilaterals
48
1 2 3 4 0
5 6 2 1 0
2 7 8 3 0
6 9 7 2 0
10 11 12 13 0
13 12 14 15 0
15 14 16 17 0
17 16 18 19 0
11 20 21 12 0
12 21 22 14 0
14 22 23 16 0
16 23 24 18 0
20 25 26 21 0
21 26 27 22 0
22 27 28 23 0
23 28 29 24 0
25 30 31 26 0
26 31 32 27 0
27 32 33 28 0
28 33 34 29 0
10 13 1 4 0
35 36 1 13 0
37 17 1 36 0
38 37 36 35 0
15 38 35 13 0
19 5 1 17 0
38 15 17 37 0
8 7 31 30 0
31 7 39 40 0
39 7 33 41 0
40 39 41 42 0
31 40 42 32 0
33 7 9 34 0
41 33 32 42 0
4 3 11 10 0
11 3 43 44 0
43 3 25 45 0
44 43 45 46 0
11 44 46 20 0
25 3 8 30 0
45 25 20 46 0
19 18 6 5 0
47 48 6 18 0
49 29 6 48 0
50 49 48 47 0
24 50 47 18 0
34 9 6 29 0
50 24 29 49 0
End
