MeshVersionFormatted 2
Dimension 3
Vertices
46
-1 0 -1 0
0 0 -1 0
0 -1 -1 0
-1 -1 -1 0
-1 1 -1 0
0 1 -1 0
1 0 -1 0
1 -1 -1 0
1 1 -1 0
-1 -1 1 0
-0.5 -1 1 0
-0.5 -0.5 1 0
-1 -0.5 1 0
-0.5 0 1 0
-1 0 1 0
-0.5 0.5 1 0
-1 0.5 1 0
-0.5 1 1 0
-1 1 1 0
0 -1 1 0
0 -0.5 1 0
0 0 1 0
0 0.5 1 0
0 1 1 0
0.5 -1 1 0
0.5 -0.5 1 0
0.5 0 1 0
0.5 0.5 1 0
0.5 1 1 0
1 -1 1 0
1 -0.5 1 0
1 0 1 0
1 0.5 1 0
1 1 1 0
-1 -1 0 0
-1 -0.5 0 0
-1 0.5 0 0
-1 1 0 0
1 -0.5 0 0
1 -1 0 0
1 0.5 0 0
1 1 0 0
-0.5 -1 0 0
0.5 -1 0 0
-0.5 1 0 0
0.5 1 0 0
Hexahedra
0
Quadrilaterals
44
1 2 3 4 0
5 6 2 1 0
2 7 8 3 0
6 9 7 2 0
10 11 12 13 0
13 12 14 15 0
15 14 16 17 0
17 16 18 19 0
11 20 21 12 0
12 21 22 14 0
14 22 23 16 0
16 23 24 18 0
20 25 26 21 0
21 26 27 22 0
22 27 28 23 0
23 28 29 24 0
25 30 31 26 0
26 31 32 27 0
27 32 33 28 0
28 33 34 29 0
35 36 1 4 0
13 15 1 36 0
10 13 36 35 0
17 37 1 15 0
38 5 1 37 0
19 38 37 17 0
8 7 39 40 0
39 7 32 31 0
40 39 31 30 0
32 7 41 33 0
41 7 9 42 0
33 41 42 34 0
4 3 43 35 0
43 3 20 11 0
35 43 11 10 0
20 3 44 25 0
44 3 8 40 0
25 44 40 30 0
38 45 6 5 0
18 24 6 45 0
19 18 45 38 0
29 46 6 24 0
42 9 6 46 0
34 42 46 29 0
End
