MeshVersionFormatted 2
Dimension 3
Vertices
50
-1 0 -1 0
0 0 -1 0
0 -1 -1 0
-1 -1 -1 0
-1 1 -1 0
0 1 -1 0
1 0 -1 0
1 -1 -1 0
1 1 -1 0
-1 -1 1 0
-0.5 -1 1 0
-0.5 -0.5 1 0
-1 -0.5 1 0
-0.5 0 1 0
-1 0 1 0
-0.5 0.5 1 0
-1 0.5 1 0
-0.5 1 1 0
-1 1 1 0
0 -1 1 0
0 -0.5 1 0
0 0 1 0
0 0.5 1 0
0 1 1 0
0.5 -1 1 0
0.5 -0.5 1 0
0.5 0 1 0
0.5 0.5 1 0
0.5 1 1 0
1 -1 1 0
1 -0.5 1 0
1 0 1 0
1 0.5 1 0
1 1 1 0
-1 -1 0 0
-1 -0.375 0.10000000000000001 0
-1 0 0.40000000000000002 0
-1 0.375 0.10000000000000001 0
-1 1 0 0
1 -0.375 0.10000000000000001 0
1 -1 0 0
1 0.375 0.10000000000000001 0
1 0 0.40000000000000002 0
1 1 0 0
-0.375 -1 0.10000000000000001 0
0.375 -1 0.10000000000000001 0
0 -1 0.40000000000000002 0
-0.375 1 0.10000000000000001 0
0 1 0.40000000000000002 0
0.375 1 0.10000000000000001 0
Hexahedra
0
Quadrilaterals
48
1 2 3 4 0
5 6 2 1 0
2 7 8 3 0
6 9 7 2 0
10 11 12 13 0
13 12 14 15 0
15 14 16 17 0
17 16 18 19 0
11 20 21 12 0
12 21 22 14 0
14 22 23 16 0
16 23 24 18 0
20 25 26 21 0
21 26 27 22 0
22 27 28 23 0
23 28 29 24 0
25 30 31 26 0
26 31 32 27 0
27 32 33 28 0
28 33 34 29 0
35 36 1 4 0
37 38 1 36 0
10 13 36 35 0
39 5 1 38 0
15 17 38 37 0
13 15 37 36 0
17 19 39 38 0
8 7 40 41 0
40 7 42 43 0
41 40 31 30 0
42 7 9 44 0
43 42 33 32 0
40 43 32 31 0
42 44 34 33 0
4 3 45 35 0
45 3 46 47 0
35 45 11 10 0
46 3 8 41 0
47 46 25 20 0
45 47 20 11 0
46 41 30 25 0
39 48 6 5 0
49 50 6 48 0
19 18 48 39 0
44 9 6 50 0
24 29 50 49 0
18 24 49 48 0
29 34 44 50 0
End
