MeshVersionFormatted 2
Dimension 3
Vertices
64
-1 1 -1 0
1 1 -1 0
1 -1 -1 0
-1 -1 -1 0
-1 -1 1 0
-0.59999999999999998 -1 1 0
-0.59999999999999998 -0.59999999999999998 1 0
-1 -0.59999999999999998 1 0
-0.59999999999999998 -0.20000000000000001 1 0
-1 -0.20000000000000001 1 0
-0.59999999999999998 0.20000000000000001 1 0
-1 0.20000000000000001 1 0
-0.59999999999999998 0.59999999999999998 1 0
-1 0.59999999999999998 1 0
-0.59999999999999998 1 1 0
-1 1 1 0
-0.20000000000000001 -1 1 0
-0.20000000000000001 -0.59999999999999998 1 0
-0.20000000000000001 -0.20000000000000001 1 0
-0.20000000000000001 0.20000000000000001 1 0
-0.20000000000000001 0.59999999999999998 1 0
-0.20000000000000001 1 1 0
0.20000000000000001 -1 1 0
0.20000000000000001 -0.59999999999999998 1 0
0.20000000000000001 -0.20000000000000001 1 0
0.20000000000000001 0.20000000000000001 1 0
0.20000000000000001 0.59999999999999998 1 0
0.20000000000000001 1 1 0
0.59999999999999998 -1 1 0
0.59999999999999998 -0.59999999999999998 1 0
0.59999999999999998 -0.20000000000000001 1 0
0.59999999999999998 0.20000000000000001 1 0
0.59999999999999998 0.59999999999999998 1 0
0.59999999999999998 1 1 0
1 -1 1 0
1 -0.59999999999999998 1 0
1 -0.20000000000000001 1 0
1 0.20000000000000001 1 0
1 0.59999999999999998 1 0
1 1 1 0
-1 -0.30566037735849055 -0.38461538461538464 0
-1 0.30566037735849055 -0.38461538461538464 0
-1 0.22264150943396227 0.23076923076923078 0
-1 0.60754716981132073 0.076923076923076927 0
-1 -0.22264150943396227 0.23076923076923078 0
-1 -0.60754716981132073 0.076923076923076927 0
1 0.30566037735849055 -0.38461538461538464 0
1 -0.30566037735849055 -0.38461538461538464 0
1 0.60754716981132073 0.076923076923076927 0
1 0.22264150943396227 0.23076923076923078 0
1 -0.22264150943396227 0.23076923076923078 0
1 -0.60754716981132073 0.076923076923076927 0
0.30566037735849055 -1 -0.38461538461538464 0
-0.30566037735849055 -1 -0.38461538461538464 0
0.60754716981132073 -1 0.076923076923076927 0
0.22264150943396227 -1 0.23076923076923078 0
-0.22264150943396227 -1 0.23076923076923078 0
-0.60754716981132073 -1 0.076923076923076927 0
-0.30566037735849055 1 -0.38461538461538464 0
0.30566037735849055 1 -0.38461538461538464 0
0.22264150943396227 1 0.23076923076923078 0
0.60754716981132073 1 0.076923076923076927 0
-0.22264150943396227 1 0.23076923076923078 0
-0.60754716981132073 1 0.076923076923076927 0
Hexahedra
0
Quadrilaterals
62
1 2 3 4 0
5 6 7 8 0
8 7 9 10 0
10 9 11 12 0
12 11 13 14 0
14 13 15 16 0
6 17 18 7 0
7 18 19 9 0
9 19 20 11 0
11 20 21 13 0
13 21 22 15 0
17 23 24 18 0
18 24 25 19 0
19 25 26 20 0
20 26 27 21 0
21 27 28 22 0
23 29 30 24 0
24 30 31 25 0
25 31 32 26 0
26 32 33 27 0
27 33 34 28 0
29 35 36 30 0
30 36 37 31 0
31 37 38 32 0
32 38 39 33 0
33 39 40 34 0
41 42 1 4 0
43 44 1 42 0
45 43 42 41 0
46 45 41 4 0
14 16 1 44 0
12 14 44 43 0
10 12 43 45 0
8 10 45 46 0
5 8 46 4 0
3 2 47 48 0
47 2 49 50 0
48 47 50 51 0
3 48 51 52 0
49 2 40 39 0
50 49 39 38 0
51 50 38 37 0
52 51 37 36 0
3 52 36 35 0
4 3 53 54 0
53 3 55 56 0
54 53 56 57 0
4 54 57 58 0
55 3 35 29 0
56 55 29 23 0
57 56 23 17 0
58 57 17 6 0
4 58 6 5 0
59 60 2 1 0
61 62 2 60 0
63 61 60 59 0
64 63 59 1 0
34 40 2 62 0
28 34 62 61 0
22 28 61 63 0
15 22 63 64 0
16 15 64 1 0
End
