MeshVersionFormatted 2
Dimension 3
Vertices
76
-1 -0.33333333333333331 -1 0
-0.33333333333333331 -0.33333333333333331 -1 0
-0.33333333333333331 -1 -1 0
-1 -1 -1 0
-1 0.33333333333333331 -1 0
-0.33333333333333331 0.33333333333333331 -1 0
-1 1 -1 0
-0.33333333333333331 1 -1 0
0.33333333333333331 -0.33333333333333331 -1 0
0.33333333333333331 -1 -1 0
0.33333333333333331 0.33333333333333331 -1 0
0.33333333333333331 1 -1 0
1 -0.33333333333333331 -1 0
1 -1 -1 0
1 0.33333333333333331 -1 0
1 1 -1 0
-1 -1 1 0
-0.59999999999999998 -1 1 0
-0.59999999999999998 -0.59999999999999998 1 0
-1 -0.59999999999999998 1 0
-0.59999999999999998 -0.20000000000000001 1 0
-1 -0.20000000000000001 1 0
-0.59999999999999998 0.20000000000000001 1 0
-1 0.20000000000000001 1 0
-0.59999999999999998 0.59999999999999998 1 0
-1 0.59999999999999998 1 0
-0.59999999999999998 1 1 0
-1 1 1 0
-0.20000000000000001 -1 1 0
-0.20000000000000001 -0.59999999999999998 1 0
-0.20000000000000001 -0.20000000000000001 1 0
-0.20000000000000001 0.20000000000000001 1 0
-0.20000000000000001 0.59999999999999998 1 0
-0.20000000000000001 1 1 0
0.20000000000000001 -1 1 0
0.20000000000000001 -0.59999999999999998 1 0
0.20000000000000001 -0.20000000000000001 1 0
0.20000000000000001 0.20000000000000001 1 0
0.20000000000000001 0.59999999999999998 1 0
0.20000000000000001 1 1 0
0.59999999999999998 -1 1 0
0.59999999999999998 -0.59999999999999998 1 0
0.59999999999999998 -0.20000000000000001 1 0
0.59999999999999998 0.20000000000000001 1 0
0.59999999999999998 0.59999999999999998 1 0
0.59999999999999998 1 1 0
1 -1 1 0
1 -0.59999999999999998 1 0
1 -0.20000000000000001 1 0
1 0.20000000000000001 1 0
1 0.59999999999999998 1 0
1 1 1 0
-1 -0.11737089201877934 -0.14285714285714285 0
-1 -0.053521126760563378 -0.42857142857142855 0
-1 -0.096713615023474184 -0.7142857142857143 0
-1 0.11737089201877934 -0.14285714285714285 0
-1 0.096713615023474184 -0.7142857142857143 0
-1 0.053521126760563378 -0.42857142857142855 0
1 -0.11737089201877934 -0.14285714285714285 0
1 -0.096713615023474184 -0.7142857142857143 0
1 -0.053521126760563378 -0.42857142857142855 0
1 0.11737089201877934 -0.14285714285714285 0
1 0.096713615023474184 -0.7142857142857143 0
1 0.053521126760563378 -0.42857142857142855 0
-0.11737089201877934 -1 -0.14285714285714285 0
-0.096713615023474184 -1 -0.7142857142857143 0
-0.053521126760563378 -1 -0.42857142857142855 0
0.11737089201877934 -1 -0.14285714285714285 0
0.096713615023474184 -1 -0.7142857142857143 0
0.053521126760563378 -1 -0.42857142857142855 0
-0.11737089201877934 1 -0.14285714285714285 0
-0.053521126760563378 1 -0.42857142857142855 0
-0.096713615023474184 1 -0.7142857142857143 0
0.11737089201877934 1 -0.14285714285714285 0
0.096713615023474184 1 -0.7142857142857143 0
0.053521126760563378 1 -0.42857142857142855 0
Hexahedra
0
Quadrilaterals
74
1 2 3 4 0
5 6 2 1 0
7 8 6 5 0
2 9 10 3 0
6 11 9 2 0
8 12 11 6 0
9 13 14 10 0
11 15 13 9 0
12 16 15 11 0
17 18 19 20 0
20 19 21 22 0
22 21 23 24 0
24 23 25 26 0
26 25 27 28 0
18 29 30 19 0
19 30 31 21 0
21 31 32 23 0
23 32 33 25 0
25 33 34 27 0
29 35 36 30 0
30 36 37 31 0
31 37 38 32 0
32 38 39 33 0
33 39 40 34 0
35 41 42 36 0
36 42 43 37 0
37 43 44 38 0
38 44 45 39 0
39 45 46 40 0
41 47 48 42 0
42 48 49 43 0
43 49 50 44 0
44 50 51 45 0
45 51 52 46 0
17 20 1 4 0
22 53 1 20 0
54 55 1 53 0
24 56 53 22 0
57 5 1 55 0
58 57 55 54 0
56 58 54 53 0
26 5 56 24 0
58 56 5 57 0
28 7 5 26 0
14 13 48 47 0
48 13 59 49 0
59 13 60 61 0
49 59 62 50 0
60 13 15 63 0
61 60 63 64 0
59 61 64 62 0
50 62 15 51 0
63 15 62 64 0
51 15 16 52 0
4 3 18 17 0
18 3 65 29 0
65 3 66 67 0
29 65 68 35 0
66 3 10 69 0
67 66 69 70 0
65 67 70 68 0
35 68 10 41 0
69 10 68 70 0
41 10 14 47 0
28 27 8 7 0
34 71 8 27 0
72 73 8 71 0
40 74 71 34 0
75 12 8 73 0
76 75 73 72 0
74 76 72 71 0
46 12 74 40 0
76 74 12 75 0
52 16 12 46 0
End
