MeshVersionFormatted 2
Dimension 3
Vertices
68
-1 1 -1 0
1 1 -1 0
1 -1 -1 0
-1 -1 -1 0
-1 -1 1 0
-0.59999999999999998 -1 1 0
-0.59999999999999998 -0.59999999999999998 1 0
-1 -0.59999999999999998 1 0
-0.59999999999999998 -0.20000000000000001 1 0
-1 -0.20000000000000001 1 0
-0.59999999999999998 0.20000000000000001 1 0
-1 0.20000000000000001 1 0
-0.59999999999999998 0.59999999999999998 1 0
-1 0.59999999999999998 1 0
-0.59999999999999998 1 1 0
-1 1 1 0
-0.20000000000000001 -1 1 0
-0.20000000000000001 -0.59999999999999998 1 0
-0.20000000000000001 -0.20000000000000001 1 0
-0.20000000000000001 0.20000000000000001 1 0
-0.20000000000000001 0.59999999999999998 1 0
-0.20000000000000001 1 1 0
0.20000000000000001 -1 1 0
0.20000000000000001 -0.59999999999999998 1 0
0.20000000000000001 -0.20000000000000001 1 0
0.20000000000000001 0.20000000000000001 1 0
0.20000000000000001 0.59999999999999998 1 0
0.20000000000000001 1 1 0
0.59999999999999998 -1 1 0
0.59999999999999998 -0.59999999999999998 1 0
0.59999999999999998 -0.20000000000000001 1 0
0.59999999999999998 0.20000000000000001 1 0
0.59999999999999998 0.59999999999999998 1 0
0.59999999999999998 1 1 0
1 -1 1 0
1 -0.59999999999999998 1 0
1 -0.20000000000000001 1 0
1 0.20000000000000001 1 0
1 0.59999999999999998 1 0
1 1 1 0
-1 -0.29999999999999999 0 0
-1 0.29999999999999999 0 0
-1 0.65000000000000002 0.125 0
-1 -0.65000000000000002 0.125 0
-1 0.75 0.375 0
-1 1 0 0
-1 -0.75 0.375 0
-1 -1 0 0
1 0.29999999999999999 0 0
1 -0.29999999999999999 0 0
1 0.65000000000000002 0.125 0
1 -0.65000000000000002 0.125 0
1 1 0 0
1 0.75 0.375 0
1 -0.75 0.375 0
1 -1 0 0
0.29999999999999999 -1 0 0
-0.29999999999999999 -1 0 0
0.65000000000000002 -1 0.125 0
-0.65000000000000002 -1 0.125 0
0.75 -1 0.375 0
-0.75 -1 0.375 0
-0.29999999999999999 1 0 0
0.29999999999999999 1 0 0
0.65000000000000002 1 0.125 0
-0.65000000000000002 1 0.125 0
0.75 1 0.375 0
-0.75 1 0.375 0
Hexahedra
0
Quadrilaterals
66
1 2 3 4 0
5 6 7 8 0
8 7 9 10 0
10 9 11 12 0
12 11 13 14 0
14 13 15 16 0
6 17 18 7 0
7 18 19 9 0
9 19 20 11 0
11 20 21 13 0
13 21 22 15 0
17 23 24 18 0
18 24 25 19 0
19 25 26 20 0
20 26 27 21 0
21 27 28 22 0
23 29 30 24 0
24 30 31 25 0
25 31 32 26 0
26 32 33 27 0
27 33 34 28 0
29 35 36 30 0
30 36 37 31 0
31 37 38 32 0
32 38 39 33 0
33 39 40 34 0
41 42 1 4 0
12 43 1 42 0
10 12 42 41 0
44 10 41 4 0
45 46 1 43 0
14 45 43 12 0
47 8 10 44 0
48 47 44 4 0
14 16 46 45 0
48 5 8 47 0
3 2 49 50 0
49 2 51 38 0
50 49 38 37 0
3 50 37 52 0
51 2 53 54 0
38 51 54 39 0
52 37 36 55 0
3 52 55 56 0
54 53 40 39 0
55 36 35 56 0
4 3 57 58 0
57 3 59 23 0
58 57 23 17 0
4 58 17 60 0
59 3 56 61 0
23 59 61 29 0
60 17 6 62 0
4 60 62 48 0
61 56 35 29 0
62 6 5 48 0
63 64 2 1 0
28 65 2 64 0
22 28 64 63 0
66 22 63 1 0
67 53 2 65 0
34 67 65 28 0
68 15 22 66 0
46 68 66 1 0
34 40 53 67 0
46 16 15 68 0
End
