MeshVersionFormatted 2
Dimension 3
Vertices
68
-1 -0.33333333333333331 -1 0
-0.33333333333333331 -0.33333333333333331 -1 0
-0.33333333333333331 -1 -1 0
-1 -1 -1 0
-1 0.33333333333333331 -1 0
-0.33333333333333331 0.33333333333333331 -1 0
-1 1 -1 0
-0.33333333333333331 1 -1 0
0.33333333333333331 -0.33333333333333331 -1 0
0.33333333333333331 -1 -1 0
0.33333333333333331 0.33333333333333331 -1 0
0.33333333333333331 1 -1 0
1 -0.33333333333333331 -1 0
1 -1 -1 0
1 0.33333333333333331 -1 0
1 1 -1 0
-1 -1 1 0
-0.59999999999999998 -1 1 0
-0.59999999999999998 -0.59999999999999998 1 0
-1 -0.59999999999999998 1 0
-0.59999999999999998 -0.20000000000000001 1 0
-1 -0.20000000000000001 1 0
-0.59999999999999998 0.20000000000000001 1 0
-1 0.20000000000000001 1 0
-0.59999999999999998 0.59999999999999998 1 0
-1 0.59999999999999998 1 0
-0.59999999999999998 1 1 0
-1 1 1 0
-0.20000000000000001 -1 1 0
-0.20000000000000001 -0.59999999999999998 1 0
-0.20000000000000001 -0.20000000000000001 1 0
-0.20000000000000001 0.20000000000000001 1 0
-0.20000000000000001 0.59999999999999998 1 0
-0.20000000000000001 1 1 0
0.20000000000000001 -1 1 0
0.20000000000000001 -0.59999999999999998 1 0
0.20000000000000001 -0.20000000000000001 1 0
0.20000000000000001 0.20000000000000001 1 0
0.20000000000000001 0.59999999999999998 1 0
0.20000000000000001 1 1 0
0.59999999999999998 -1 1 0
0.59999999999999998 -0.59999999999999998 1 0
0.59999999999999998 -0.20000000000000001 1 0
0.59999999999999998 0.20000000000000001 1 0
0.59999999999999998 0.59999999999999998 1 0
0.59999999999999998 1 1 0
1 -1 1 0
1 -0.59999999999999998 1 0
1 -0.20000000000000001 1 0
1 0.20000000000000001 1 0
1 0.59999999999999998 1 0
1 1 1 0
-1 -0.60952380952380958 0 0
-1 -0.22857142857142856 0 0
-1 0.22857142857142856 0 0
-1 0.60952380952380958 0 0
1 -0.22857142857142856 0 0
1 -0.60952380952380958 0 0
1 0.22857142857142856 0 0
1 0.60952380952380958 0 0
-0.22857142857142856 -1 0 0
-0.60952380952380958 -1 0 0
0.22857142857142856 -1 0 0
0.60952380952380958 -1 0 0
-0.60952380952380958 1 0 0
-0.22857142857142856 1 0 0
0.22857142857142856 1 0 0
0.60952380952380958 1 0 0
Hexahedra
0
Quadrilaterals
66
1 2 3 4 0
5 6 2 1 0
7 8 6 5 0
2 9 10 3 0
6 11 9 2 0
8 12 11 6 0
9 13 14 10 0
11 15 13 9 0
12 16 15 11 0
17 18 19 20 0
20 19 21 22 0
22 21 23 24 0
24 23 25 26 0
26 25 27 28 0
18 29 30 19 0
19 30 31 21 0
21 31 32 23 0
23 32 33 25 0
25 33 34 27 0
29 35 36 30 0
30 36 37 31 0
31 37 38 32 0
32 38 39 33 0
33 39 40 34 0
35 41 42 36 0
36 42 43 37 0
37 43 44 38 0
38 44 45 39 0
39 45 46 40 0
41 47 48 42 0
42 48 49 43 0
43 49 50 44 0
44 50 51 45 0
45 51 52 46 0
53 54 1 4 0
55 5 1 54 0
20 22 54 53 0
17 20 53 4 0
56 7 5 55 0
22 24 55 54 0
26 28 7 56 0
24 26 56 55 0
14 13 57 58 0
57 13 15 59 0
58 57 49 48 0
14 58 48 47 0
59 15 16 60 0
57 59 50 49 0
60 16 52 51 0
59 60 51 50 0
4 3 61 62 0
61 3 10 63 0
62 61 29 18 0
4 62 18 17 0
63 10 14 64 0
61 63 35 29 0
64 14 47 41 0
63 64 41 35 0
65 66 8 7 0
67 12 8 66 0
27 34 66 65 0
28 27 65 7 0
68 16 12 67 0
34 40 67 66 0
46 52 16 68 0
40 46 68 67 0
End
