MeshVersionFormatted 2
Dimension 3
Vertices
76
-1 -0.33333333333333331 -1 0
-0.33333333333333331 -0.33333333333333331 -1 0
-0.33333333333333331 -1 -1 0
-1 -1 -1 0
-1 0.33333333333333331 -1 0
-0.33333333333333331 0.33333333333333331 -1 0
-1 1 -1 0
-0.33333333333333331 1 -1 0
0.33333333333333331 -0.33333333333333331 -1 0
0.33333333333333331 -1 -1 0
0.33333333333333331 0.33333333333333331 -1 0
0.33333333333333331 1 -1 0
1 -0.33333333333333331 -1 0
1 -1 -1 0
1 0.33333333333333331 -1 0
1 1 -1 0
-1 -1 1 0
-0.59999999999999998 -1 1 0
-0.59999999999999998 -0.59999999999999998 1 0
-1 -0.59999999999999998 1 0
-0.59999999999999998 -0.20000000000000001 1 0
-1 -0.20000000000000001 1 0
-0.59999999999999998 0.20000000000000001 1 0
-1 0.20000000000000001 1 0
-0.59999999999999998 0.59999999999999998 1 0
-1 0.59999999999999998 1 0
-0.59999999999999998 1 1 0
-1 1 1 0
-0.20000000000000001 -1 1 0
-0.20000000000000001 -0.59999999999999998 1 0
-0.20000000000000001 -0.20000000000000001 1 0
-0.20000000000000001 0.20000000000000001 1 0
-0.20000000000000001 0.59999999999999998 1 0
-0.20000000000000001 1 1 0
0.20000000000000001 -1 1 0
0.20000000000000001 -0.59999999999999998 1 0
0.20000000000000001 -0.20000000000000001 1 0
0.20000000000000001 0.20000000000000001 1 0
0.20000000000000001 0.59999999999999998 1 0
0.20000000000000001 1 1 0
0.59999999999999998 -1 1 0
0.59999999999999998 -0.59999999999999998 1 0
0.59999999999999998 -0.20000000000000001 1 0
0.59999999999999998 0.20000000000000001 1 0
0.59999999999999998 0.59999999999999998 1 0
0.59999999999999998 1 1 0
1 -1 1 0
1 -0.59999999999999998 1 0
1 -0.20000000000000001 1 0
1 0.20000000000000001 1 0
1 0.59999999999999998 1 0
1 1 1 0
-1 -0.66666666666666663 0 0
-1 -0.40000000000000002 0 0
-1 -0.13333333333333333 0 0
-1 0.13333333333333333 0 0
-1 0.40000000000000002 0 0
-1 0.66666666666666663 0 0
1 -0.40000000000000002 0 0
1 -0.66666666666666663 0 0
1 -0.13333333333333333 0 0
1 0.13333333333333333 0 0
1 0.40000000000000002 0 0
1 0.66666666666666663 0 0
-0.40000000000000002 -1 0 0
-0.66666666666666663 -1 0 0
-0.13333333333333333 -1 0 0
0.13333333333333333 -1 0 0
0.40000000000000002 -1 0 0
0.66666666666666663 -1 0 0
-0.66666666666666663 1 0 0
-0.40000000000000002 1 0 0
-0.13333333333333333 1 0 0
0.13333333333333333 1 0 0
0.40000000000000002 1 0 0
0.66666666666666663 1 0 0
Hexahedra
0
Quadrilaterals
74
1 2 3 4 0
5 6 2 1 0
7 8 6 5 0
2 9 10 3 0
6 11 9 2 0
8 12 11 6 0
9 13 14 10 0
11 15 13 9 0
12 16 15 11 0
17 18 19 20 0
20 19 21 22 0
22 21 23 24 0
24 23 25 26 0
26 25 27 28 0
18 29 30 19 0
19 30 31 21 0
21 31 32 23 0
23 32 33 25 0
25 33 34 27 0
29 35 36 30 0
30 36 37 31 0
31 37 38 32 0
32 38 39 33 0
33 39 40 34 0
35 41 42 36 0
36 42 43 37 0
37 43 44 38 0
38 44 45 39 0
39 45 46 40 0
41 47 48 42 0
42 48 49 43 0
43 49 50 44 0
44 50 51 45 0
45 51 52 46 0
53 54 1 4 0
22 55 1 54 0
20 22 54 53 0
17 20 53 4 0
56 5 1 55 0
24 56 55 22 0
24 57 5 56 0
58 7 5 57 0
26 58 57 24 0
26 28 7 58 0
14 13 59 60 0
59 13 61 49 0
60 59 49 48 0
14 60 48 47 0
61 13 15 62 0
49 61 62 50 0
62 15 63 50 0
63 15 16 64 0
50 63 64 51 0
64 16 52 51 0
4 3 65 66 0
65 3 67 29 0
66 65 29 18 0
4 66 18 17 0
67 3 10 68 0
29 67 68 35 0
68 10 69 35 0
69 10 14 70 0
35 69 70 41 0
70 14 47 41 0
71 72 8 7 0
34 73 8 72 0
27 34 72 71 0
28 27 71 7 0
74 12 8 73 0
40 74 73 34 0
40 75 12 74 0
76 16 12 75 0
46 76 75 40 0
46 52 16 76 0
End
