MeshVersionFormatted 2
Dimension 3
Vertices
44
-1 1 -1 0
1 1 -1 0
1 -1 -1 0
-1 -1 -1 0
-1 -1 1 0
-0.33333333333333331 -1 1 0
-0.33333333333333331 -0.33333333333333331 1 0
-1 -0.33333333333333331 1 0
-0.33333333333333331 0.33333333333333331 1 0
-1 0.33333333333333331 1 0
-0.33333333333333331 1 1 0
-1 1 1 0
0.33333333333333331 -1 1 0
0.33333333333333331 -0.33333333333333331 1 0
0.33333333333333331 0.33333333333333331 1 0
0.33333333333333331 1 1 0
1 -1 1 0
1 -0.33333333333333331 1 0
1 0.33333333333333331 1 0
1 1 1 0
-1 -0.28638497652582162 -0.7142857142857143 0
-1 0.28638497652582162 -0.7142857142857143 0
-1 0.14553990610328638 -0.42857142857142855 0
-1 0.29577464788732394 -0.14285714285714285 0
-1 -0.14553990610328638 -0.42857142857142855 0
-1 -0.29577464788732394 -0.14285714285714285 0
1 0.28638497652582162 -0.7142857142857143 0
1 -0.28638497652582162 -0.7142857142857143 0
1 0.29577464788732394 -0.14285714285714285 0
1 0.14553990610328638 -0.42857142857142855 0
1 -0.14553990610328638 -0.42857142857142855 0
1 -0.29577464788732394 -0.14285714285714285 0
0.28638497652582162 -1 -0.7142857142857143 0
-0.28638497652582162 -1 -0.7142857142857143 0
0.29577464788732394 -1 -0.14285714285714285 0
0.14553990610328638 -1 -0.42857142857142855 0
-0.14553990610328638 -1 -0.42857142857142855 0
-0.29577464788732394 -1 -0.14285714285714285 0
-0.28638497652582162 1 -0.7142857142857143 0
0.28638497652582162 1 -0.7142857142857143 0
0.14553990610328638 1 -0.42857142857142855 0
0.29577464788732394 1 -0.14285714285714285 0
-0.14553990610328638 1 -0.42857142857142855 0
-0.29577464788732394 1 -0.14285714285714285 0
Hexahedra
0
Quadrilaterals
42
1 2 3 4 0
5 6 7 8 0
8 7 9 10 0
10 9 11 12 0
6 13 14 7 0
7 14 15 9 0
9 15 16 11 0
13 17 18 14 0
14 18 19 15 0
15 19 20 16 0
21 22 1 4 0
23 24 1 22 0
25 23 22 21 0
26 25 21 4 0
10 12 1 24 0
25 26 24 23 0
5 8 26 4 0
26 8 10 24 0
3 2 27 28 0
27 2 29 30 0
28 27 30 31 0
3 28 31 32 0
29 2 20 19 0
30 29 32 31 0
3 32 18 17 0
29 19 18 32 0
4 3 33 34 0
33 3 35 36 0
34 33 36 37 0
4 34 37 38 0
35 3 17 13 0
36 35 38 37 0
4 38 6 5 0
35 13 6 38 0
39 40 2 1 0
41 42 2 40 0
43 41 40 39 0
44 43 39 1 0
16 20 2 42 0
43 44 42 41 0
12 11 44 1 0
44 11 16 42 0
End
