MeshVersionFormatted 2
Dimension 3
Vertices
40
-1 1 -1 0
1 1 -1 0
1 -1 -1 0
-1 -1 -1 0
-1 -1 1 0
-0.33333333333333331 -1 1 0
-0.33333333333333331 -0.33333333333333331 1 0
-1 -0.33333333333333331 1 0
-0.33333333333333331 0.33333333333333331 1 0
-1 0.33333333333333331 1 0
-0.33333333333333331 1 1 0
-1 1 1 0
0.33333333333333331 -1 1 0
0.33333333333333331 -0.33333333333333331 1 0
0.33333333333333331 0.33333333333333331 1 0
0.33333333333333331 1 1 0
1 -1 1 0
1 -0.33333333333333331 1 0
1 0.33333333333333331 1 0
1 1 1 0
-1 -0.33333333333333331 -0.40000000000000002 0
-1 0.33333333333333331 -0.40000000000000002 0
-1 0.33333333333333331 0.20000000000000001 0
-1 1 0 0
-1 -0.33333333333333331 0.20000000000000001 0
-1 -1 0 0
1 0.33333333333333331 -0.40000000000000002 0
1 -0.33333333333333331 -0.40000000000000002 0
1 1 0 0
1 0.33333333333333331 0.20000000000000001 0
1 -0.33333333333333331 0.20000000000000001 0
1 -1 0 0
0.33333333333333331 -1 -0.40000000000000002 0
-0.33333333333333331 -1 -0.40000000000000002 0
0.33333333333333331 -1 0.20000000000000001 0
-0.33333333333333331 -1 0.20000000000000001 0
-0.33333333333333331 1 -0.40000000000000002 0
0.33333333333333331 1 -0.40000000000000002 0
0.33333333333333331 1 0.20000000000000001 0
-0.33333333333333331 1 0.20000000000000001 0
Hexahedra
0
Quadrilaterals
38
1 2 3 4 0
5 6 7 8 0
8 7 9 10 0
10 9 11 12 0
6 13 14 7 0
7 14 15 9 0
9 15 16 11 0
13 17 18 14 0
14 18 19 15 0
15 19 20 16 0
21 22 1 4 0
23 24 1 22 0
25 23 22 21 0
26 25 21 4 0
10 12 24 23 0
8 10 23 25 0
5 8 25 26 0
3 2 27 28 0
27 2 29 30 0
28 27 30 31 0
3 28 31 32 0
30 29 20 19 0
31 30 19 18 0
32 31 18 17 0
4 3 33 34 0
33 3 32 35 0
34 33 35 36 0
4 34 36 26 0
35 32 17 13 0
36 35 13 6 0
26 36 6 5 0
37 38 2 1 0
39 29 2 38 0
40 39 38 37 0
24 40 37 1 0
16 20 29 39 0
11 16 39 40 0
12 11 40 24 0
End
