MeshVersionFormatted 2
Dimension 3
Vertices
28
-1 1 -1 0
1 1 -1 0
1 -1 -1 0
-1 -1 -1 0
-1 -1 1 0
-0.33333333333333331 -1 1 0
-0.33333333333333331 -0.33333333333333331 1 0
-1 -0.33333333333333331 1 0
-0.33333333333333331 0.33333333333333331 1 0
-1 0.33333333333333331 1 0
-0.33333333333333331 1 1 0
-1 1 1 0
0.33333333333333331 -1 1 0
0.33333333333333331 -0.33333333333333331 1 0
0.33333333333333331 0.33333333333333331 1 0
0.33333333333333331 1 1 0
1 -1 1 0
1 -0.33333333333333331 1 0
1 0.33333333333333331 1 0
1 1 1 0
-1 -0.33333333333333331 0 0
-1 0.33333333333333331 0 0
1 0.33333333333333331 0 0
1 -0.33333333333333331 0 0
0.33333333333333331 -1 0 0
-0.33333333333333331 -1 0 0
-0.33333333333333331 1 0 0
0.33333333333333331 1 0 0
Hexahedra
0
Quadrilaterals
26
1 2 3 4 0
5 6 7 8 0
8 7 9 10 0
10 9 11 12 0
6 13 14 7 0
7 14 15 9 0
9 15 16 11 0
13 17 18 14 0
14 18 19 15 0
15 19 20 16 0
21 22 1 4 0
10 12 1 22 0
8 10 22 21 0
5 8 21 4 0
3 2 23 24 0
23 2 20 19 0
24 23 19 18 0
3 24 18 17 0
4 3 25 26 0
25 3 17 13 0
26 25 13 6 0
4 26 6 5 0
27 28 2 1 0
16 20 2 28 0
11 16 28 27 0
12 11 27 1 0
End
