MeshVersionFormatted 2
Dimension 3
Vertices
44
-1 1 -1 0
1 1 -1 0
1 -1 -1 0
-1 -1 -1 0
-1 -1 1 0
-0.33333333333333331 -1 1 0
-0.33333333333333331 -0.33333333333333331 1 0
-1 -0.33333333333333331 1 0
-0.33333333333333331 0.33333333333333331 1 0
-1 0.33333333333333331 1 0
-0.33333333333333331 1 1 0
-1 1 1 0
0.33333333333333331 -1 1 0
0.33333333333333331 -0.33333333333333331 1 0
0.33333333333333331 0.33333333333333331 1 0
0.33333333333333331 1 1 0
1 -1 1 0
1 -0.33333333333333331 1 0
1 0.33333333333333331 1 0
1 1 1 0
-1 -0.28638497652582162 0.14285714285714285 0
-1 0.28638497652582162 0.14285714285714285 0
-1 -0.098591549295774641 0.42857142857142855 0
-1 0.098591549295774641 0.42857142857142855 0
-1 0.107981220657277 0.7142857142857143 0
-1 -0.107981220657277 0.7142857142857143 0
1 0.28638497652582162 0.14285714285714285 0
1 -0.28638497652582162 0.14285714285714285 0
1 0.098591549295774641 0.42857142857142855 0
1 -0.098591549295774641 0.42857142857142855 0
1 0.107981220657277 0.7142857142857143 0
1 -0.107981220657277 0.7142857142857143 0
0.28638497652582162 -1 0.14285714285714285 0
-0.28638497652582162 -1 0.14285714285714285 0
0.098591549295774641 -1 0.42857142857142855 0
-0.098591549295774641 -1 0.42857142857142855 0
0.107981220657277 -1 0.7142857142857143 0
-0.107981220657277 -1 0.7142857142857143 0
-0.28638497652582162 1 0.14285714285714285 0
0.28638497652582162 1 0.14285714285714285 0
-0.098591549295774641 1 0.42857142857142855 0
0.098591549295774641 1 0.42857142857142855 0
0.107981220657277 1 0.7142857142857143 0
-0.107981220657277 1 0.7142857142857143 0
Hexahedra
0
Quadrilaterals
42
1 2 3 4 0
5 6 7 8 0
8 7 9 10 0
10 9 11 12 0
6 13 14 7 0
7 14 15 9 0
9 15 16 11 0
13 17 18 14 0
14 18 19 15 0
15 19 20 16 0
21 22 1 4 0
10 12 1 22 0
23 24 22 21 0
5 8 21 4 0
24 25 10 22 0
26 25 24 23 0
8 26 23 21 0
26 8 10 25 0
3 2 27 28 0
27 2 20 19 0
28 27 29 30 0
3 28 18 17 0
27 19 31 29 0
30 29 31 32 0
28 30 32 18 0
31 19 18 32 0
4 3 33 34 0
33 3 17 13 0
34 33 35 36 0
4 34 6 5 0
33 13 37 35 0
36 35 37 38 0
34 36 38 6 0
37 13 6 38 0
39 40 2 1 0
16 20 2 40 0
41 42 40 39 0
12 11 39 1 0
42 43 16 40 0
44 43 42 41 0
11 44 41 39 0
44 11 16 43 0
End
