MeshVersionFormatted 2
Dimension 3
Vertices
51
1 1 0 0
1 -1 0 0
-1 -1 0 0
-1 1 0 0
0 -0 1.4142135623730951 0
1 0 0 0
-1 0 0 0
0 1 0 0
0 -1 0 0
0.5 0.5 0.70710678118654757 0
0.5 -0.5 0.70710678118654757 0
-0.5 0.5 0.70710678118654757 0
-0.5 -0.5 0.70710678118654757 0
0 0 0 0
0 0.66666666666666663 0.47140452079103173 0
0 -0.66666666666666663 0.47140452079103173 0
0.66666666666666663 0 0.47140452079103173 0
-0.66666666666666663 0 0.47140452079103173 0
0.24145432001128789 0.24145432001128789 0.43733061904828896 0
-0.24145432001128789 -0.24145432001128789 0.43733061904828896 0
0.039566561018259526 -0.039566561018259526 0.089926954273224072 0
-0.039566561018259526 0.039566561018259526 0.089926954273224072 0
0.42890933303427453 -0.26088819027682886 0.2255426003526344 0
-0.26088819027682886 0.42890933303427453 0.2255426003526344 0
0.26088819027682886 -0.42890933303427453 0.2255426003526344 0
-0.42890933303427453 0.26088819027682886 0.2255426003526344 0
0.46761666352909659 -0.069799352696667344 0.39867942523872835 0
-0.069799352696667344 0.46761666352909659 0.39867942523872835 0
0.069799352696667344 -0.46761666352909659 0.39867942523872835 0
-0.46761666352909659 0.069799352696667344 0.39867942523872835 0
0.24564980799844793 0.19864517854446337 0.42934482785281564 0
0.19864517854446337 0.24564980799844793 0.42934482785281564 0
-0.19864517854446337 -0.24564980799844793 0.42934482785281564 0
-0.24564980799844793 -0.19864517854446337 0.42934482785281564 0
0 0 0.12598380838129644 0
0.19743245982991359 0.19743245982991359 0.42844627142973807 0
-0.19743245982991359 -0.19743245982991359 0.42844627142973807 0
0.45745665918573231 -0.45745665918573231 0.25559485728901604 0
-0.45745665918573231 0.45745665918573231 0.25559485728901604 0
0.036725761992622452 0.036725761992622452 0.38891195726158867 0
-0.036725761992622452 -0.036725761992622452 0.38891195726158867 0
0 0 0.39776376195330204 0
0.039518065668178184 0.039518065668178184 0.39538281382067619 0
-0.039518065668178184 -0.039518065668178184 0.39538281382067619 0
0.02074447457420869 -0.02074447457420869 0.56621072312639742 0
-0.02074447457420869 0.02074447457420869 0.56621072312639742 0
0 0 0.58072631317276213 0
0 0 0.52718731094065419 0
-0.30508311444592917 0.30508311444592917 0.52611918488325171 0
0.30508311444592917 -0.30508311444592917 0.52611918488325171 0
0 0 0.40895425420722031 0
Hexahedra
36
1 8 14 6 10 15 19 17 0
3 9 14 7 13 16 20 18 0
14 6 17 19 21 23 27 31 0
14 19 15 8 22 32 28 24 0
14 20 16 9 21 33 29 25 0
14 7 18 20 22 26 30 34 0
19 14 21 31 32 22 35 36 0
20 33 21 14 34 37 35 22 0
14 6 23 21 9 2 38 25 0
14 22 24 8 7 26 39 4 0
23 21 25 38 40 35 41 42 0
24 39 26 22 40 42 41 35 0
23 21 35 40 27 31 36 43 0
24 40 35 22 28 43 36 32 0
25 41 35 21 29 44 37 33 0
26 22 35 41 30 34 37 44 0
31 19 32 36 45 47 46 48 0
33 37 34 20 45 48 46 47 0
19 15 28 32 47 12 49 46 0
19 31 27 17 47 45 50 11 0
20 34 30 18 47 46 49 12 0
20 16 29 33 47 11 50 45 0
20 16 11 47 18 13 5 12 0
19 47 11 17 15 12 5 10 0
36 31 45 48 43 27 50 51 0
36 48 46 32 43 51 49 28 0
37 48 45 33 44 51 50 29 0
37 34 46 48 44 30 49 51 0
16 29 50 11 9 25 38 2 0
18 12 49 30 7 4 39 26 0
17 11 50 27 6 2 38 23 0
15 28 49 12 8 24 39 4 0
50 27 23 38 51 43 40 42 0
49 39 24 28 51 42 40 43 0
50 38 25 29 51 42 41 44 0
49 30 26 39 51 44 41 42 0
Quadrilaterals
16
1 6 14 8 0
2 9 14 6 0
2 6 17 11 0
2 11 16 9 0
4 8 14 7 0
4 7 18 12 0
4 12 15 8 0
12 18 13 5 0
12 5 10 15 0
6 1 10 17 0
5 11 17 10 0
13 16 11 5 0
1 8 15 10 0
14 9 3 7 0
7 3 13 18 0
9 16 13 3 0
End
