MeshVersionFormatted 2
Dimension 3
Vertices
55
1 1 0 0
1 -1 0 0
-1 -1 0 0
-1 1 0 0
0 -0 1.4142135623730951 0
1 0 0 0
-1 0 0 0
0 1 0 0
0 -1 0 0
0.5 0.5 0.70710678118654757 0
0.5 -0.5 0.70710678118654757 0
-0.5 0.5 0.70710678118654757 0
-0.5 -0.5 0.70710678118654757 0
0 0 0 0
0 0.66666666666666663 0.47140452079103173 0
0 -0.66666666666666663 0.47140452079103173 0
0.66666666666666663 0 0.47140452079103173 0
-0.66666666666666663 0 0.47140452079103173 0
0.23515110896227553 0.23515110896227553 0.26507837346768759 0
-0.23515110896227553 -0.23515110896227553 0.26507837346768759 0
0.12073646091531644 0.25338022122508985 0.2091890317469336 0
0.25338022122508985 0.12073646091531644 0.2091890317469336 0
-0.25338022122508985 -0.12073646091531644 0.2091890317469336 0
-0.12073646091531644 -0.25338022122508985 0.2091890317469336 0
0.064192556168674267 0.064192556168674267 0.088982851871587859 0
-0.064192556168674267 -0.064192556168674267 0.088982851871587859 0
0.23546745576611738 -0.23546745576611736 0.50936418177720966 0
-0.23546745576611736 0.23546745576611738 0.50936418177720966 0
0.28735835353865019 0.04694732883085994 0.3725163132100115 0
0.04694732883085994 0.28735835353865019 0.3725163132100115 0
-0.04694732883085994 -0.28735835353865019 0.3725163132100115 0
-0.28735835353865019 -0.04694732883085994 0.3725163132100115 0
0.21667785453886768 -0.074708411875224659 0.42716405734391233 0
-0.074708411875224659 0.21667785453886768 0.42716405734391233 0
0.074708411875224659 -0.21667785453886768 0.42716405734391233 0
-0.21667785453886768 0.074708411875224659 0.42716405734391233 0
-1.9259299443872359e-34 -9.6296497219361793e-35 0.18352332436494917 0
0.088866042543332094 -0.088866042543332108 0.37733144469332536 0
-0.088866042543332108 0.088866042543332094 0.37733144469332536 0
0 0 0.29389205658647782 0
-0.01744796028811707 0.01744796028811707 0.27010727860224037 0
0.01744796028811707 -0.01744796028811707 0.27010727860224037 0
-0.052361196649281357 0.052361196649281357 0.34305362061511313 0
0.052361196649281357 -0.052361196649281357 0.34305362061511313 0
-1.9259299443872359e-34 0 0.49182064735588099 0
0.03401088146222285 0.03401088146222285 0.44987378451095916 0
-0.03401088146222285 -0.03401088146222285 0.44987378451095916 0
-3.8518598887744717e-34 -3.8518598887744717e-34 0.42084918217136297 0
0 0 0.67623428798663976 0
0.1312583467552936 0.1312583467552936 0.45501556425228584 0
-0.1312583467552936 -0.1312583467552936 0.45501556425228584 0
0.20661326033502853 0.20661326033502853 0.41977869519897471 0
-0.20661326033502853 -0.20661326033502853 0.41977869519897471 0
0 0 0.36625804086692587 0
0 0 0.33967485889047644 0
Hexahedra
40
1 8 14 6 19 21 25 22 0
3 9 14 7 20 24 26 23 0
14 6 22 25 27 17 29 33 0
14 25 21 8 28 34 30 15 0
14 26 24 9 27 35 31 16 0
14 7 23 26 28 18 32 36 0
25 14 27 33 37 26 35 38 0
25 34 28 14 37 39 36 26 0
14 6 17 27 9 2 11 16 0
14 28 15 8 7 18 12 4 0
19 21 25 22 40 41 37 42 0
20 24 26 23 40 42 37 41 0
21 25 37 41 30 34 39 43 0
22 42 37 25 29 44 38 33 0
23 41 37 26 32 43 39 36 0
24 26 37 42 31 35 38 44 0
27 33 38 35 45 46 48 47 0
28 36 39 34 45 47 48 46 0
28 34 30 15 49 50 52 10 0
27 17 29 33 49 10 52 50 0
28 18 32 36 49 13 53 51 0
27 35 31 16 49 51 53 13 0
33 27 49 50 46 45 28 34 0
35 51 49 27 47 36 28 45 0
15 28 49 10 12 18 13 5 0
17 10 49 27 11 5 13 16 0
50 33 46 34 54 38 48 39 0
51 36 47 35 54 39 48 38 0
50 33 38 54 52 29 44 55 0
50 54 39 34 52 55 43 30 0
51 54 38 35 53 55 44 31 0
51 36 39 54 53 32 43 55 0
30 15 10 52 21 8 1 19 0
29 52 10 17 22 19 1 6 0
32 53 13 18 23 20 3 7 0
31 16 13 53 24 9 3 20 0
52 30 21 19 55 43 41 40 0
52 19 22 29 55 40 42 44 0
53 20 23 32 55 40 41 43 0
53 31 24 20 55 44 42 40 0
Quadrilaterals
16
1 6 14 8 0
2 9 14 6 0
2 6 17 11 0
2 11 16 9 0
4 8 14 7 0
4 7 18 12 0
4 12 15 8 0
12 18 13 5 0
12 5 10 15 0
6 1 10 17 0
5 11 17 10 0
13 16 11 5 0
1 8 15 10 0
14 9 3 7 0
7 3 13 18 0
9 16 13 3 0
End
