MeshVersionFormatted 2
Dimension 3
Vertices
55
1 1 0 0
1 -1 0 0
-1 -1 0 0
-1 1 0 0
0 -0 1.4142135623730951 0
1 0 0 0
-1 0 0 0
0 1 0 0
0 -1 0 0
0.5 0.5 0.70710678118654757 0
0.5 -0.5 0.70710678118654757 0
-0.5 0.5 0.70710678118654757 0
-0.5 -0.5 0.70710678118654757 0
0 0 0 0
0 0.66666666666666663 0.47140452079103173 0
0 -0.66666666666666663 0.47140452079103173 0
0.66666666666666663 0 0.47140452079103173 0
-0.66666666666666663 0 0.47140452079103173 0
0.19031077811712768 0.19031077811712768 0.29110925925208286 0
-0.19031077811712768 -0.19031077811712768 0.29110925925208286 0
0.16666904027597593 -0.16666904027597593 0.27198333444746003 0
-0.16666904027597593 0.16666904027597593 0.27198333444746003 0
0.30581603028016136 -0.16595670221768741 0.32095806183213321 0
-0.16595670221768741 0.30581603028016136 0.32095806183213321 0
0.16595670221768741 -0.30581603028016136 0.32095806183213321 0
-0.30581603028016136 0.16595670221768741 0.32095806183213321 0
0.31166164747488645 -0.069934649762541934 0.3636358861861832 0
-0.069934649762541934 0.31166164747488645 0.3636358861861832 0
0.069934649762541934 -0.31166164747488645 0.3636358861861832 0
-0.31166164747488645 0.069934649762541934 0.3636358861861832 0
0.22562091296159409 0.070810143691915114 0.32171666423749723 0
0.070810143691915114 0.22562091296159409 0.32171666423749723 0
-0.070810143691915114 -0.22562091296159409 0.32171666423749723 0
-0.22562091296159409 -0.070810143691915114 0.32171666423749723 0
0 0 0.30257020586963645 0
0.038980075905194693 -0.038980075905194693 0.31841758134090486 0
-0.038980075905194693 0.038980075905194693 0.31841758134090486 0
0.29098754935021476 -0.29098754935021476 0.4088604384315534 0
-0.29098754935021476 0.29098754935021476 0.4088604384315534 0
0 0 0.65839057975881632 0
0.090352223772664275 -0.090352223772664275 0.62014667226221409 0
-0.090352223772664275 0.090352223772664275 0.62014667226221409 0
0.23833294801615898 -0.23833294801615898 0.59126326904018289 0
-0.23833294801615898 0.23833294801615898 0.59126326904018289 0
0.10157803686495864 0.10157803686495864 0.37550481461366708 0
-0.10157803686495864 -0.10157803686495864 0.37550481461366708 0
0 0 0.59396456997635838 0
0 0 0.34619690622211552 0
0 0 0.39054811806617606 0
0.060909305850860664 0.060909305850860664 0.41826835798115691 0
-0.060909305850860664 -0.060909305850860664 0.41826835798115691 0
0.025692943192123358 0.025692943192123358 0.42476785824832614 0
-0.025692943192123358 -0.025692943192123358 0.42476785824832614 0
0 0 0.54158823579551463 0
0 0 0.48171034339979474 0
Hexahedra
40
1 8 14 6 10 15 19 17 0
3 9 14 7 13 16 20 18 0
14 6 17 19 21 23 27 31 0
14 19 15 8 22 32 28 24 0
14 20 16 9 21 33 29 25 0
14 7 18 20 22 26 30 34 0
19 14 21 31 35 20 33 36 0
19 32 22 14 35 37 34 20 0
14 6 23 21 9 2 38 25 0
14 22 24 8 7 26 39 4 0
10 15 19 17 5 12 40 11 0
13 16 20 18 5 11 40 12 0
16 20 40 11 29 33 41 43 0
18 12 40 20 30 44 42 34 0
17 11 40 19 27 43 41 31 0
15 19 40 12 28 32 42 44 0
40 19 31 41 42 32 45 47 0
40 41 33 20 42 47 46 34 0
19 31 45 32 35 36 48 37 0
20 34 46 33 35 37 48 36 0
21 31 36 33 49 45 48 46 0
22 34 37 32 49 46 48 45 0
21 31 45 49 23 27 50 52 0
22 49 45 32 24 52 50 28 0
21 49 46 33 25 53 51 29 0
22 34 46 49 26 30 51 53 0
31 41 47 45 27 43 54 50 0
32 45 47 42 28 50 54 44 0
33 46 47 41 29 51 54 43 0
34 42 47 46 30 44 54 51 0
49 21 23 52 53 25 38 55 0
49 52 24 22 53 55 39 26 0
11 16 29 43 2 9 25 38 0
12 44 30 18 4 39 26 7 0
11 43 27 17 2 38 23 6 0
12 15 28 44 4 8 24 39 0
43 27 23 38 54 50 52 55 0
44 39 24 28 54 55 52 50 0
43 38 25 29 54 55 53 51 0
44 30 26 39 54 51 53 55 0
Quadrilaterals
16
1 6 14 8 0
2 9 14 6 0
2 6 17 11 0
2 11 16 9 0
4 8 14 7 0
4 7 18 12 0
4 12 15 8 0
12 18 13 5 0
12 5 10 15 0
6 1 10 17 0
5 11 17 10 0
13 16 11 5 0
1 8 15 10 0
14 9 3 7 0
7 3 13 18 0
9 16 13 3 0
End
