MeshVersionFormatted 2
Dimension 3
Vertices
57
1 1 0 0
1 -1 0 0
-1 -1 0 0
-1 1 0 0
0 -0 1.4142135623730951 0
1 0 0 0
-1 0 0 0
0 1 0 0
0 -1 0 0
0.5 0.5 0.70710678118654757 0
0.5 -0.5 0.70710678118654757 0
-0.5 0.5 0.70710678118654757 0
-0.5 -0.5 0.70710678118654757 0
0 0 0 0
0 0.66666666666666663 0.47140452079103173 0
0 -0.66666666666666663 0.47140452079103173 0
0.66666666666666663 0 0.47140452079103173 0
-0.66666666666666663 0 0.47140452079103173 0
0.27740575170110759 0.27740575170110759 0.45087733590491008 0
-0.27740575170110759 -0.27740575170110759 0.45087733590491008 0
0.035280792166954358 -0.035280792166954358 0.1590378498334678 0
-0.035280792166954358 0.035280792166954358 0.1590378498334678 0
0.26268363363181513 -0.1935092553662188 0.33085891100826226 0
-0.1935092553662188 0.26268363363181513 0.33085891100826226 0
0.1935092553662188 -0.26268363363181513 0.33085891100826226 0
-0.26268363363181513 0.1935092553662188 0.33085891100826226 0
0.27488739248421373 -0.046317789357424526 0.41813657008586813 0
-0.046317789357424526 0.27488739248421373 0.41813657008586813 0
0.046317789357424526 -0.27488739248421373 0.41813657008586813 0
-0.27488739248421373 0.046317789357424526 0.41813657008586813 0
0.24890840168513789 0.12649238467444138 0.43162809486424564 0
0.12649238467444138 0.24890840168513789 0.43162809486424564 0
-0.12649238467444138 -0.24890840168513789 0.43162809486424564 0
-0.24890840168513789 -0.12649238467444138 0.43162809486424564 0
0 0 0.17186865218404035 0
0.16053403712760569 0.16053403712760569 0.41099322358593227 0
-0.16053403712760569 -0.16053403712760569 0.41099322358593227 0
0.22296098884706581 -0.22296098884706581 0.35440726885083595 0
-0.22296098884706581 0.22296098884706581 0.35440726885083595 0
0.023864749118828913 0.023864749118828913 0.27488165407753634 0
-0.023864749118828913 -0.023864749118828913 0.27488165407753634 0
0 0 0.28738416476817441 0
0.14046753712634025 0.14046753712634025 0.42106201536328514 0
-0.14046753712634025 -0.14046753712634025 0.42106201536328514 0
0.067193230691917849 -0.067193230691917849 0.57093953146416676 0
-0.067193230691917849 0.067193230691917849 0.57093953146416676 0
0 0 0.63215024136959019 0
0 0 0.55918302450922031 0
-0.16737158290137588 0.16737158290137588 0.51858063135537202 0
0.16737158290137588 -0.16737158290137588 0.51858063135537202 0
0 0 0.54815440498695878 0
0 0 0.45216204903824403 0
0.05991548697602446 0.05991548697602446 0.40247224822958255 0
-0.05991548697602446 -0.05991548697602446 0.40247224822958255 0
0.030979892812157416 0.030979892812157416 0.37721447887666837 0
-0.030979892812157416 -0.030979892812157416 0.37721447887666837 0
0 0 0.39178690273953676 0
Hexahedra
42
1 8 14 6 10 15 19 17 0
3 9 14 7 13 16 20 18 0
14 6 17 19 21 23 27 31 0
14 19 15 8 22 32 28 24 0
14 20 16 9 21 33 29 25 0
14 7 18 20 22 26 30 34 0
19 14 21 31 32 22 35 36 0
20 33 21 14 34 37 35 22 0
14 6 23 21 9 2 38 25 0
14 22 24 8 7 26 39 4 0
23 21 25 38 40 35 41 42 0
24 39 26 22 40 42 41 35 0
23 21 35 40 27 31 36 43 0
24 40 35 22 28 43 36 32 0
25 41 35 21 29 44 37 33 0
26 22 35 41 30 34 37 44 0
31 19 32 36 45 47 46 48 0
33 37 34 20 45 48 46 47 0
19 15 28 32 47 12 49 46 0
19 31 27 17 47 45 50 11 0
20 34 30 18 47 46 49 12 0
20 16 29 33 47 11 50 45 0
20 16 11 47 18 13 5 12 0
19 47 11 17 15 12 5 10 0
36 31 45 48 43 27 50 51 0
36 48 46 32 43 51 49 28 0
37 48 45 33 44 51 50 29 0
37 34 46 48 44 30 49 51 0
16 29 50 11 9 25 38 2 0
18 12 49 30 7 4 39 26 0
17 11 50 27 6 2 38 23 0
15 28 49 12 8 24 39 4 0
50 27 23 38 52 53 55 57 0
49 39 24 28 52 57 55 53 0
50 38 25 29 52 57 56 54 0
49 30 26 39 52 54 56 57 0
43 27 50 51 28 53 52 49 0
44 51 50 29 30 49 52 54 0
43 27 53 28 40 23 55 24 0
44 30 54 29 41 26 56 25 0
40 23 55 24 42 38 57 39 0
41 26 56 25 42 39 57 38 0
Quadrilaterals
16
1 6 14 8 0
2 9 14 6 0
2 6 17 11 0
2 11 16 9 0
4 8 14 7 0
4 7 18 12 0
4 12 15 8 0
12 18 13 5 0
12 5 10 15 0
6 1 10 17 0
5 11 17 10 0
13 16 11 5 0
1 8 15 10 0
14 9 3 7 0
7 3 13 18 0
9 16 13 3 0
End
