MeshVersionFormatted 2
Dimension 3
Vertices
57
1 1 0 0
1 -1 0 0
-1 -1 0 0
-1 1 0 0
0 -0 1.4142135623730951 0
1 0 0 0
-1 0 0 0
0 1 0 0
0 -1 0 0
0.5 0.5 0.70710678118654757 0
0.5 -0.5 0.70710678118654757 0
-0.5 0.5 0.70710678118654757 0
-0.5 -0.5 0.70710678118654757 0
0 0 0 0
0 0.66666666666666663 0.47140452079103173 0
0 -0.66666666666666663 0.47140452079103173 0
0.66666666666666663 0 0.47140452079103173 0
-0.66666666666666663 0 0.47140452079103173 0
0.24763608679673674 0.24763608679673674 0.42775438024943779 0
-0.24763608679673674 -0.24763608679673674 0.42775438024943779 0
0.023648224385935276 -0.023648224385935276 0.05550400730370722 0
-0.023648224385935276 0.023648224385935276 0.05550400730370722 0
0.35894669128822604 -0.22638393883292401 0.20761086738005172 0
-0.22638393883292401 0.35894669128822604 0.20761086738005172 0
0.22638393883292401 -0.35894669128822604 0.20761086738005172 0
-0.35894669128822604 0.22638393883292401 0.20761086738005172 0
0.35860462380239927 -0.037065223706333389 0.3592847854392624 0
-0.037065223706333389 0.35860462380239927 0.3592847854392624 0
0.037065223706333389 -0.35860462380239927 0.3592847854392624 0
-0.35860462380239927 0.037065223706333389 0.3592847854392624 0
0.25276225151958226 0.10933762478438287 0.38003403586276541 0
0.10933762478438287 0.25276225151958226 0.38003403586276541 0
-0.10933762478438287 -0.25276225151958226 0.38003403586276541 0
-0.25276225151958226 -0.10933762478438287 0.38003403586276541 0
0 0 0.071602867401328207 0
0.12692999679932571 0.12692999679932571 0.34889672912713565 0
-0.12692999679932571 -0.12692999679932571 0.34889672912713565 0
0.33767738066805708 -0.33767738066805708 0.25225849028146735 0
-0.33767738066805708 0.33767738066805708 0.25225849028146735 0
0.020550578177435115 0.020550578177435115 0.26506174132616345 0
-0.020550578177435115 -0.020550578177435115 0.26506174132616345 0
0 0 0.26954848874005743 0
0.065805236228401592 0.065805236228401592 0.35263690801179021 0
-0.065805236228401592 -0.065805236228401592 0.35263690801179021 0
0.060793907398422095 -0.060793907398422095 0.46759124488895676 0
-0.060793907398422095 0.060793907398422095 0.46759124488895676 0
0 0 0.50766214111054453 0
0 0 0.44579063981122047 0
-0.10546279193943937 0.10546279193943937 0.52845521781685112 0
0.10546279193943937 -0.10546279193943937 0.52845521781685112 0
-0.12994405812107468 0.12994405812107468 0.45235592907371813 0
0.12994405812107468 -0.12994405812107468 0.45235592907371813 0
0 0 0.60191068090505317 0
0 0 0.38609572012227061 0
-0.32898015371440226 0.32898015371440226 0.27022594609122363 0
0.32898015371440226 -0.32898015371440226 0.27022594609122363 0
0 0 0.32054917857029502 0
Hexahedra
42
1 8 14 6 10 15 19 17 0
3 9 14 7 13 16 20 18 0
14 6 17 19 21 23 27 31 0
14 19 15 8 22 32 28 24 0
14 20 16 9 21 33 29 25 0
14 7 18 20 22 26 30 34 0
19 14 21 31 32 22 35 36 0
20 33 21 14 34 37 35 22 0
14 6 23 21 9 2 38 25 0
14 22 24 8 7 26 39 4 0
23 21 25 38 40 35 41 42 0
24 39 26 22 40 42 41 35 0
23 21 35 40 27 31 36 43 0
24 40 35 22 28 43 36 32 0
25 41 35 21 29 44 37 33 0
26 22 35 41 30 34 37 44 0
31 19 32 36 45 47 46 48 0
33 37 34 20 45 48 46 47 0
19 15 28 32 47 49 51 46 0
19 31 27 17 47 45 52 50 0
20 34 30 18 47 46 51 49 0
20 16 29 33 47 50 52 45 0
19 15 49 47 17 10 53 50 0
20 47 49 18 16 50 53 13 0
36 31 45 48 43 27 52 54 0
36 48 46 32 43 54 51 28 0
37 48 45 33 44 54 52 29 0
37 34 46 48 44 30 51 54 0
15 28 51 49 12 55 30 18 0
17 50 52 27 11 16 29 56 0
43 27 52 54 57 56 29 44 0
43 54 51 28 57 44 30 55 0
40 23 27 43 42 38 56 57 0
40 43 28 24 42 57 55 39 0
41 44 29 25 42 57 56 38 0
41 26 30 44 42 39 55 57 0
6 17 27 23 2 11 56 38 0
8 24 28 15 4 39 55 12 0
9 25 29 16 2 38 56 11 0
7 18 30 26 4 12 55 39 0
17 50 16 11 10 53 13 5 0
15 12 18 49 10 5 13 53 0
Quadrilaterals
16
1 6 14 8 0
2 9 14 6 0
2 6 17 11 0
2 11 16 9 0
4 8 14 7 0
4 7 18 12 0
4 12 15 8 0
12 18 13 5 0
12 5 10 15 0
6 1 10 17 0
5 11 17 10 0
13 16 11 5 0
1 8 15 10 0
14 9 3 7 0
7 3 13 18 0
9 16 13 3 0
End
