MeshVersionFormatted 2
Dimension 3
Vertices
57
1 1 0 0
1 -1 0 0
-1 -1 0 0
-1 1 0 0
0 -0 1.4142135623730951 0
1 0 0 0
-1 0 0 0
0 1 0 0
0 -1 0 0
0.5 0.5 0.70710678118654757 0
0.5 -0.5 0.70710678118654757 0
-0.5 0.5 0.70710678118654757 0
-0.5 -0.5 0.70710678118654757 0
0 0 0 0
0 0.66666666666666663 0.47140452079103173 0
0 -0.66666666666666663 0.47140452079103173 0
0.66666666666666663 0 0.47140452079103173 0
-0.66666666666666663 0 0.47140452079103173 0
0.21478481300452609 0.21478481300452609 0.47889650613438828 0
-0.21478481300452609 -0.21478481300452609 0.47889650613438828 0
0.0075782359569155355 -0.0075782359569155355 0.044965246301022652 0
-0.0075782359569155355 0.0075782359569155355 0.044965246301022652 0
0.30319068542136729 -0.21515485606604925 0.22664926674398686 0
-0.21515485606604925 0.30319068542136729 0.22664926674398686 0
0.21515485606604925 -0.30319068542136729 0.22664926674398686 0
-0.30319068542136729 0.21515485606604925 0.22664926674398686 0
0.28371619722118135 -0.029094049564667483 0.40880327796779531 0
-0.029094049564667483 0.28371619722118135 0.40880327796779531 0
0.029094049564667483 -0.28371619722118135 0.40880327796779531 0
-0.28371619722118135 0.029094049564667483 0.40880327796779531 0
0.22718461542844107 0.073715730920618269 0.43347580137545105 0
0.073715730920618269 0.22718461542844107 0.43347580137545105 0
-0.073715730920618269 -0.22718461542844107 0.43347580137545105 0
-0.22718461542844107 -0.073715730920618269 0.43347580137545105 0
0 0 0.050065117034008941 0
0.099767283946991692 0.099767283946991692 0.37841274233427546 0
-0.099767283946991692 -0.099767283946991692 0.37841274233427546 0
0.26101497043272859 -0.26101497043272859 0.24723244299674743 0
-0.26101497043272859 0.26101497043272859 0.24723244299674743 0
0.020422846201236543 0.020422846201236543 0.27169760686378547 0
-0.020422846201236543 -0.020422846201236543 0.27169760686378547 0
0 0 0.27512183518921868 0
0.051988033869473031 0.051988033869473031 0.33664338538331567 0
-0.051988033869473031 -0.051988033869473031 0.33664338538331567 0
0.011225106465521741 -0.011225106465521741 0.43506603860738857 0
-0.011225106465521741 0.011225106465521741 0.43506603860738857 0
0 0 0.4406639149115863 0
0 0 0.4115706672954334 0
0 0 0.6154444693333494 0
-0.2507972405515087 0.2507972405515087 0.41655435957130643 0
0.2507972405515087 -0.2507972405515087 0.41655435957130643 0
-0.10005464814413001 0.10005464814413001 0.5063415718537142 0
0.10005464814413001 -0.10005464814413001 0.5063415718537142 0
0.071760413541070878 -0.071760413541070878 0.40482905851765583 0
-0.071760413541070878 0.071760413541070878 0.40482905851765583 0
0 0 0.37016840698344761 0
0 0 0.30085142887417493 0
Hexahedra
42
1 8 14 6 10 15 19 17 0
3 9 14 7 13 16 20 18 0
14 6 17 19 21 23 27 31 0
14 19 15 8 22 32 28 24 0
14 20 16 9 21 33 29 25 0
14 7 18 20 22 26 30 34 0
19 14 21 31 32 22 35 36 0
20 33 21 14 34 37 35 22 0
14 6 23 21 9 2 38 25 0
14 22 24 8 7 26 39 4 0
23 21 25 38 40 35 41 42 0
24 39 26 22 40 42 41 35 0
23 21 35 40 27 31 36 43 0
24 40 35 22 28 43 36 32 0
25 41 35 21 29 44 37 33 0
26 22 35 41 30 34 37 44 0
31 19 32 36 45 47 46 48 0
33 37 34 20 45 48 46 47 0
19 15 28 32 49 12 50 52 0
19 31 27 17 49 53 51 11 0
20 34 30 18 49 52 50 12 0
20 16 29 33 49 11 51 53 0
19 31 53 49 47 45 33 20 0
19 49 52 32 47 20 34 46 0
20 16 11 49 18 13 5 12 0
19 49 11 17 15 12 5 10 0
31 53 33 45 27 51 29 54 0
32 46 34 52 28 55 30 50 0
27 31 36 43 54 45 48 56 0
28 43 36 32 55 56 48 46 0
29 44 37 33 54 56 48 45 0
30 34 37 44 55 46 48 56 0
40 23 27 43 42 38 51 57 0
40 43 28 24 42 57 50 39 0
41 44 29 25 42 57 51 38 0
41 26 30 44 42 39 50 57 0
27 43 57 51 54 56 44 29 0
28 50 57 43 55 30 44 56 0
23 27 51 38 6 17 11 2 0
24 39 50 28 8 4 12 15 0
25 38 51 29 9 2 11 16 0
26 30 50 39 7 18 12 4 0
Quadrilaterals
16
1 6 14 8 0
2 9 14 6 0
2 6 17 11 0
2 11 16 9 0
4 8 14 7 0
4 7 18 12 0
4 12 15 8 0
12 18 13 5 0
12 5 10 15 0
6 1 10 17 0
5 11 17 10 0
13 16 11 5 0
1 8 15 10 0
14 9 3 7 0
7 3 13 18 0
9 16 13 3 0
End
