MeshVersionFormatted 2
Dimension 3
Vertices
57
1 1 0 0
1 -1 0 0
-1 -1 0 0
-1 1 0 0
0 -0 1.4142135623730951 0
1 0 0 0
-1 0 0 0
0 1 0 0
0 -1 0 0
0.5 0.5 0.70710678118654757 0
0.5 -0.5 0.70710678118654757 0
-0.5 0.5 0.70710678118654757 0
-0.5 -0.5 0.70710678118654757 0
0 0 0 0
0 0.66666666666666663 0.47140452079103173 0
0 -0.66666666666666663 0.47140452079103173 0
0.66666666666666663 0 0.47140452079103173 0
-0.66666666666666663 0 0.47140452079103173 0
0.25931062505394503 0.25931062505394503 0.45205823542781665 0
-0.25931062505394503 -0.25931062505394503 0.45205823542781665 0
0.014536863110269017 -0.014536863110269017 0.029834991628084163 0
-0.014536863110269017 0.014536863110269017 0.029834991628084163 0
0.34849561435836518 -0.20849791407022419 0.18619197450816588 0
-0.20849791407022419 0.34849561435836518 0.18619197450816588 0
0.20849791407022419 -0.34849561435836518 0.18619197450816588 0
-0.34849561435836518 0.20849791407022419 0.18619197450816588 0
0.34951068055695655 -0.081611141314420377 0.30833970663455823 0
-0.081611141314420377 0.34951068055695655 0.30833970663455823 0
0.081611141314420377 -0.34951068055695655 0.30833970663455823 0
-0.34951068055695655 0.081611141314420377 0.30833970663455823 0
0.24059770932387761 0.10335030378281447 0.36570947467199455 0
0.10335030378281447 0.24059770932387761 0.36570947467199455 0
-0.10335030378281447 -0.24059770932387761 0.36570947467199455 0
-0.24059770932387761 -0.10335030378281447 0.36570947467199455 0
0 0 0.040681501430719975 0
0.11269708961446902 0.11269708961446902 0.3371020218766087 0
-0.11269708961446902 -0.11269708961446902 0.3371020218766087 0
0.32466009494011988 -0.32466009494011988 0.23629756079716879 0
-0.32466009494011988 0.32466009494011988 0.23629756079716879 0
0.019144583909043059 0.019144583909043059 0.23356165634856549 0
-0.019144583909043059 -0.019144583909043059 0.23356165634856549 0
0 0 0.23761287771202072 0
0.044421934511741222 0.044421934511741222 0.31733908603835809 0
-0.044421934511741222 -0.044421934511741222 0.31733908603835809 0
0.05536937248005077 -0.05536937248005077 0.38457063923727081 0
-0.05536937248005077 0.05536937248005077 0.38457063923727081 0
0 0 0.40613457416820492 0
0 0 0.36709363275621382 0
-0.14218316392551988 0.14218316392551988 0.40122347970504113 0
0.14218316392551988 -0.14218316392551988 0.40122347970504113 0
-0.1438033801144275 0.1438033801144275 0.38146557187403168 0
0.1438033801144275 -0.1438033801144275 0.38146557187403168 0
0 0 0.61207866313341441 0
0.31124617123318954 -0.31124617123318954 0.24904047535154969 0
-0.31124617123318954 0.31124617123318954 0.24904047535154969 0
0 0 0.28913831373083654 0
0 0 0.32561943712819191 0
Hexahedra
42
1 8 14 6 10 15 19 17 0
3 9 14 7 13 16 20 18 0
14 6 17 19 21 23 27 31 0
14 19 15 8 22 32 28 24 0
14 20 16 9 21 33 29 25 0
14 7 18 20 22 26 30 34 0
19 14 21 31 32 22 35 36 0
20 33 21 14 34 37 35 22 0
14 6 23 21 9 2 38 25 0
14 22 24 8 7 26 39 4 0
23 21 25 38 40 35 41 42 0
24 39 26 22 40 42 41 35 0
23 21 35 40 27 31 36 43 0
24 40 35 22 28 43 36 32 0
25 41 35 21 29 44 37 33 0
26 22 35 41 30 34 37 44 0
31 19 32 36 45 47 46 48 0
33 37 34 20 45 48 46 47 0
19 15 28 32 47 49 51 46 0
19 31 27 17 47 45 52 50 0
20 34 30 18 47 46 51 49 0
20 16 29 33 47 50 52 45 0
19 15 49 47 53 12 18 20 0
19 47 50 17 53 20 16 11 0
10 15 19 17 5 12 53 11 0
13 16 20 18 5 11 53 12 0
50 17 11 16 52 27 54 29 0
49 18 12 15 51 30 55 28 0
6 17 27 23 2 11 54 38 0
8 24 28 15 4 39 55 12 0
9 25 29 16 2 38 54 11 0
7 18 30 26 4 12 55 39 0
27 23 38 54 43 40 42 56 0
28 55 39 24 43 56 42 40 0
29 54 38 25 44 56 42 41 0
30 26 39 55 44 41 42 56 0
52 27 54 29 57 43 56 44 0
51 30 55 28 57 44 56 43 0
27 31 36 43 52 45 48 57 0
28 43 36 32 51 57 48 46 0
29 44 37 33 52 57 48 45 0
30 34 37 44 51 46 48 57 0
Quadrilaterals
16
1 6 14 8 0
2 9 14 6 0
2 6 17 11 0
2 11 16 9 0
4 8 14 7 0
4 7 18 12 0
4 12 15 8 0
12 18 13 5 0
12 5 10 15 0
6 1 10 17 0
5 11 17 10 0
13 16 11 5 0
1 8 15 10 0
14 9 3 7 0
7 3 13 18 0
9 16 13 3 0
End
