MeshVersionFormatted 2
Dimension 3
Vertices
57
1 1 0 0
1 -1 0 0
-1 -1 0 0
-1 1 0 0
0 -0 1.4142135623730951 0
1 0 0 0
-1 0 0 0
0 1 0 0
0 -1 0 0
0.5 0.5 0.70710678118654757 0
0.5 -0.5 0.70710678118654757 0
-0.5 0.5 0.70710678118654757 0
-0.5 -0.5 0.70710678118654757 0
0 0 0 0
0 0.66666666666666663 0.47140452079103173 0
0 -0.66666666666666663 0.47140452079103173 0
0.66666666666666663 0 0.47140452079103173 0
-0.66666666666666663 0 0.47140452079103173 0
0.29892052777409789 0.29892052777409789 0.46435550958123922 0
-0.29892052777409789 -0.29892052777409789 0.46435550958123922 0
0.069777290497160763 -0.069777290497160763 0.08058720634618545 0
-0.069777290497160763 0.069777290497160763 0.08058720634618545 0
0.28798293449591422 -0.15541996379278811 0.20198586170025293 0
-0.15541996379278811 0.28798293449591422 0.20198586170025293 0
0.15541996379278811 -0.28798293449591422 0.20198586170025293 0
-0.28798293449591422 0.15541996379278811 0.20198586170025293 0
0.32539777352472599 -0.053733228622588607 0.40171777281807464 0
-0.053733228622588607 0.32539777352472599 0.40171777281807464 0
0.053733228622588607 -0.32539777352472599 0.40171777281807464 0
-0.32539777352472599 0.053733228622588607 0.40171777281807464 0
0.2606669788962197 0.095601373275175858 0.45360062722348193 0
0.095601373275175858 0.2606669788962197 0.45360062722348193 0
-0.095601373275175858 -0.2606669788962197 0.45360062722348193 0
-0.2606669788962197 -0.095601373275175858 0.45360062722348193 0
0 0 0.14326070394652216 0
0.13920390507219593 0.13920390507219593 0.43037795663738659 0
-0.13920390507219593 -0.13920390507219593 0.43037795663738659 0
0.27839957901264289 -0.27839957901264289 0.25171674137656308 0
-0.27839957901264289 0.27839957901264289 0.25171674137656308 0
0.023692606250613122 0.023692606250613122 0.25624021063857089 0
-0.023692606250613122 -0.023692606250613122 0.25624021063857089 0
0 0 0.27799468864195431 0
0.070868365932170288 0.070868365932170288 0.35372152090643544 0
-0.070868365932170288 -0.070868365932170288 0.35372152090643544 0
0.083397280659506426 -0.083397280659506426 0.57256753650461256 0
-0.083397280659506426 0.083397280659506426 0.57256753650461256 0
0 0 0.66375223517181747 0
0 0 0.53059440995845319 0
-0.28480736259795764 0.28480736259795764 0.40374467539251274 0
0.28480736259795764 -0.28480736259795764 0.40374467539251274 0
0 0 0.41472683393215659 0
0.077638986229819323 -0.077638986229819323 0.43773645611990369 0
-0.077638986229819323 0.077638986229819323 0.43773645611990369 0
0.11584303501665121 -0.11584303501665121 0.40627594930092148 0
-0.11584303501665121 0.11584303501665121 0.40627594930092148 0
0 0 0.37432380896326678 0
0 0 0.32594510402177507 0
Hexahedra
42
1 8 14 6 10 15 19 17 0
3 9 14 7 13 16 20 18 0
14 6 17 19 21 23 27 31 0
14 19 15 8 22 32 28 24 0
14 20 16 9 21 33 29 25 0
14 7 18 20 22 26 30 34 0
19 14 21 31 32 22 35 36 0
20 33 21 14 34 37 35 22 0
14 6 23 21 9 2 38 25 0
14 22 24 8 7 26 39 4 0
23 21 25 38 40 35 41 42 0
24 39 26 22 40 42 41 35 0
23 21 35 40 27 31 36 43 0
24 40 35 22 28 43 36 32 0
25 41 35 21 29 44 37 33 0
26 22 35 41 30 34 37 44 0
31 19 32 36 45 47 46 48 0
33 37 34 20 45 48 46 47 0
19 15 28 32 47 12 49 46 0
19 31 27 17 47 45 50 11 0
20 34 30 18 47 46 49 12 0
20 16 29 33 47 11 50 45 0
20 16 11 47 18 13 5 12 0
19 47 11 17 15 12 5 10 0
36 31 45 48 51 52 33 37 0
36 48 46 32 51 37 34 53 0
31 45 33 52 27 50 29 54 0
32 53 34 46 28 55 30 49 0
27 31 36 43 54 52 51 56 0
28 43 36 32 55 56 51 53 0
29 44 37 33 54 56 51 52 0
30 34 37 44 55 53 51 56 0
40 23 27 43 42 38 50 57 0
40 43 28 24 42 57 49 39 0
41 44 29 25 42 57 50 38 0
41 26 30 44 42 39 49 57 0
27 43 57 50 54 56 44 29 0
28 49 57 43 55 30 44 56 0
23 27 50 38 6 17 11 2 0
24 39 49 28 8 4 12 15 0
25 38 50 29 9 2 11 16 0
26 30 49 39 7 18 12 4 0
Quadrilaterals
16
1 6 14 8 0
2 9 14 6 0
2 6 17 11 0
2 11 16 9 0
4 8 14 7 0
4 7 18 12 0
4 12 15 8 0
12 18 13 5 0
12 5 10 15 0
6 1 10 17 0
5 11 17 10 0
13 16 11 5 0
1 8 15 10 0
14 9 3 7 0
7 3 13 18 0
9 16 13 3 0
End
