MeshVersionFormatted 2
Dimension 3
Vertices
59
1 1 0 0
1 -1 0 0
-1 -1 0 0
-1 1 0 0
0 -0 1.4142135623730951 0
1 0 0 0
-1 0 0 0
0 1 0 0
0 -1 0 0
0.5 0.5 0.70710678118654757 0
0.5 -0.5 0.70710678118654757 0
-0.5 0.5 0.70710678118654757 0
-0.5 -0.5 0.70710678118654757 0
0 0 0 0
0 0.66666666666666663 0.47140452079103173 0
0 -0.66666666666666663 0.47140452079103173 0
0.66666666666666663 0 0.47140452079103173 0
-0.66666666666666663 0 0.47140452079103173 0
0.2570334403297227 0.2570334403297227 0.43272471456260914 0
-0.2570334403297227 -0.2570334403297227 0.43272471456260914 0
0.0037585348695466339 -0.0037585348695466339 0.0079835240893098951 0
-0.0037585348695466339 0.0037585348695466339 0.0079835240893098951 0
0.33458588906148251 -0.20203965008810285 0.1742463159493339 0
-0.20203965008810285 0.33458588906148251 0.1742463159493339 0
0.20203965008810285 -0.33458588906148251 0.1742463159493339 0
-0.33458588906148251 0.20203965008810285 0.1742463159493339 0
0.38632749262701643 -0.070601024716616279 0.35374377036322502 0
-0.070601024716616279 0.38632749262701643 0.35374377036322502 0
0.070601024716616279 -0.38632749262701643 0.35374377036322502 0
-0.38632749262701643 0.070601024716616279 0.35374377036322502 0
0.28751199226767615 0.079587452985363474 0.38228993025430785 0
0.079587452985363474 0.28751199226767615 0.38228993025430785 0
-0.079587452985363474 -0.28751199226767615 0.38228993025430785 0
-0.28751199226767615 -0.079587452985363474 0.38228993025430785 0
0 0 0.011089378308334773 0
0.10693340197094843 0.10693340197094843 0.30330810237704314 0
-0.10693340197094843 -0.10693340197094843 0.30330810237704314 0
0.31999310811171922 -0.31999310811171922 0.22735976629512905 0
-0.31999310811171922 0.31999310811171922 0.22735976629512905 0
0.018898977632419295 0.018898977632419295 0.20571051362261719 0
-0.018898977632419295 -0.018898977632419295 0.20571051362261719 0
0 0 0.20933535619160484 0
0.023706866080784317 0.023706866080784317 0.22011954098142827 0
-0.023706866080784317 -0.023706866080784317 0.22011954098142827 0
0.061368827015655249 -0.061368827015655249 0.33513477405639391 0
-0.061368827015655249 0.061368827015655249 0.33513477405639391 0
0 0 0.3824376589413917 0
0 0 0.3155211921438697 0
0 0 0.50462884895900573 0
-0.12799836289155375 0.12799836289155375 0.52727936266552189 0
0.12799836289155375 -0.12799836289155375 0.52727936266552189 0
-0.15095979861650768 0.15095979861650768 0.45861268358068397 0
0.15095979861650768 -0.15095979861650768 0.45861268358068397 0
-0.093305819143519181 0.093305819143519181 0.46184570700538702 0
0.093305819143519181 -0.093305819143519181 0.46184570700538702 0
0 0 0.61497912367699548 0
0.32953102541732171 -0.32953102541732171 0.303515273645317 0
-0.32953102541732171 0.32953102541732171 0.303515273645317 0
0 0 0.20960989162518204 0
Hexahedra
44
1 8 14 6 10 15 19 17 0
3 9 14 7 13 16 20 18 0
14 6 17 19 21 23 27 31 0
14 19 15 8 22 32 28 24 0
14 20 16 9 21 33 29 25 0
14 7 18 20 22 26 30 34 0
19 14 21 31 32 22 35 36 0
20 33 21 14 34 37 35 22 0
14 6 23 21 9 2 38 25 0
14 22 24 8 7 26 39 4 0
23 21 25 38 40 35 41 42 0
24 39 26 22 40 42 41 35 0
23 21 35 40 27 31 36 43 0
24 40 35 22 28 43 36 32 0
25 41 35 21 29 44 37 33 0
26 22 35 41 30 34 37 44 0
31 19 32 36 45 47 46 48 0
33 37 34 20 45 48 46 47 0
19 15 28 32 49 50 52 54 0
19 31 27 17 49 55 53 51 0
20 34 30 18 49 54 52 50 0
20 16 29 33 49 51 53 55 0
19 31 55 49 47 45 33 20 0
19 49 54 32 47 20 34 46 0
19 15 50 49 17 10 56 51 0
20 49 50 18 16 51 56 13 0
31 55 33 45 27 53 29 57 0
32 46 34 54 28 58 30 52 0
27 31 36 43 57 45 48 59 0
28 43 36 32 58 59 48 46 0
29 44 37 33 57 59 48 45 0
30 34 37 44 58 46 48 59 0
40 23 27 43 42 38 57 59 0
40 43 28 24 42 59 58 39 0
41 44 29 25 42 59 57 38 0
41 26 30 44 42 39 58 59 0
27 53 29 57 17 51 16 11 0
28 58 30 52 15 12 18 50 0
23 27 57 38 6 17 11 2 0
24 39 58 28 8 4 12 15 0
25 38 57 29 9 2 11 16 0
26 30 58 39 7 18 12 4 0
17 51 16 11 10 56 13 5 0
15 12 18 50 10 5 13 56 0
Quadrilaterals
16
1 6 14 8 0
2 9 14 6 0
2 6 17 11 0
2 11 16 9 0
4 8 14 7 0
4 7 18 12 0
4 12 15 8 0
12 18 13 5 0
12 5 10 15 0
6 1 10 17 0
5 11 17 10 0
13 16 11 5 0
1 8 15 10 0
14 9 3 7 0
7 3 13 18 0
9 16 13 3 0
End
