MeshVersionFormatted 2
Dimension 3
Vertices
59
1 1 0 0
1 -1 0 0
-1 -1 0 0
-1 1 0 0
0 -0 1.4142135623730951 0
1 0 0 0
-1 0 0 0
0 1 0 0
0 -1 0 0
0.5 0.5 0.70710678118654757 0
0.5 -0.5 0.70710678118654757 0
-0.5 0.5 0.70710678118654757 0
-0.5 -0.5 0.70710678118654757 0
0 0 0 0
0 0.66666666666666663 0.47140452079103173 0
0 -0.66666666666666663 0.47140452079103173 0
0.66666666666666663 0 0.47140452079103173 0
-0.66666666666666663 0 0.47140452079103173 0
0.25819507422679622 0.25819507422679622 0.43419996567489871 0
-0.25819507422679622 -0.25819507422679622 0.43419996567489871 0
0.0136319127481955 -0.0136319127481955 0.03123317989994959 0
-0.0136319127481955 0.0136319127481955 0.03123317989994959 0
0.32177650239347688 -0.20591784004360031 0.17854920677660335 0
-0.20591784004360031 0.32177650239347688 0.17854920677660335 0
0.20591784004360031 -0.32177650239347688 0.17854920677660335 0
-0.32177650239347688 0.20591784004360031 0.17854920677660335 0
0.38262660470452409 -0.064368876905899874 0.37375611310230311 0
-0.064368876905899874 0.38262660470452409 0.37375611310230311 0
0.064368876905899874 -0.38262660470452409 0.37375611310230311 0
-0.38262660470452409 0.064368876905899874 0.37375611310230311 0
0.27098074183454512 0.09614255183696678 0.39508206542373137 0
0.09614255183696678 0.27098074183454512 0.39508206542373137 0
-0.09614255183696678 -0.27098074183454512 0.39508206542373137 0
-0.27098074183454512 -0.09614255183696678 0.39508206542373137 0
0 0 0.040136744038993151 0
0.1318795912668681 0.1318795912668681 0.34532198015714249 0
-0.1318795912668681 -0.1318795912668681 0.34532198015714249 0
0.32088667245166846 -0.32088667245166846 0.22731045523331939 0
-0.32088667245166846 0.32088667245166846 0.22731045523331939 0
0.015980035058695725 0.015980035058695725 0.21537002732931115 0
-0.015980035058695725 -0.015980035058695725 0.21537002732931115 0
0 0 0.21803667888287748 0
0.021553172789672614 0.021553172789672614 0.22817429164777414 0
-0.021553172789672614 -0.021553172789672614 0.22817429164777414 0
0.073368830112266997 -0.073368830112266997 0.47117431672135801 0
-0.073368830112266997 0.073368830112266997 0.47117431672135801 0
0 0 0.50809360517433921 0
0 0 0.43589923603556402 0
-0.12275458734840028 0.12275458734840028 0.52979074080047228 0
0.12275458734840028 -0.12275458734840028 0.52979074080047228 0
-0.14705268253420731 0.14705268253420731 0.46322543435922331 0
0.14705268253420731 -0.14705268253420731 0.46322543435922331 0
0 0 0.61417593770885059 0
0 0 0.32038001018836038 0
0.093740347686830344 -0.093740347686830344 0.34784076969248318 0
-0.093740347686830344 0.093740347686830344 0.34784076969248318 0
0.33657413062897884 -0.33657413062897884 0.3200821749873986 0
-0.33657413062897884 0.33657413062897884 0.3200821749873986 0
0 0 0.21807329989687499 0
Hexahedra
44
1 8 14 6 10 15 19 17 0
3 9 14 7 13 16 20 18 0
14 6 17 19 21 23 27 31 0
14 19 15 8 22 32 28 24 0
14 20 16 9 21 33 29 25 0
14 7 18 20 22 26 30 34 0
19 14 21 31 32 22 35 36 0
20 33 21 14 34 37 35 22 0
14 6 23 21 9 2 38 25 0
14 22 24 8 7 26 39 4 0
23 21 25 38 40 35 41 42 0
24 39 26 22 40 42 41 35 0
23 21 35 40 27 31 36 43 0
24 40 35 22 28 43 36 32 0
25 41 35 21 29 44 37 33 0
26 22 35 41 30 34 37 44 0
31 19 32 36 45 47 46 48 0
33 37 34 20 45 48 46 47 0
19 15 28 32 47 49 51 46 0
19 31 27 17 47 45 52 50 0
20 34 30 18 47 46 51 49 0
20 16 29 33 47 50 52 45 0
19 15 49 47 17 10 53 50 0
20 47 49 18 16 50 53 13 0
36 31 45 48 54 55 33 37 0
36 48 46 32 54 37 34 56 0
31 45 33 55 27 52 29 57 0
32 56 34 46 28 58 30 51 0
27 31 36 43 57 55 54 59 0
28 43 36 32 58 59 54 56 0
29 44 37 33 57 59 54 55 0
30 34 37 44 58 56 54 59 0
40 23 27 43 42 38 57 59 0
40 43 28 24 42 59 58 39 0
41 44 29 25 42 59 57 38 0
41 26 30 44 42 39 58 59 0
27 52 29 57 17 50 16 11 0
28 58 30 51 15 12 18 49 0
23 27 57 38 6 17 11 2 0
24 39 58 28 8 4 12 15 0
25 38 57 29 9 2 11 16 0
26 30 58 39 7 18 12 4 0
17 50 16 11 10 53 13 5 0
15 12 18 49 10 5 13 53 0
Quadrilaterals
16
1 6 14 8 0
2 9 14 6 0
2 6 17 11 0
2 11 16 9 0
4 8 14 7 0
4 7 18 12 0
4 12 15 8 0
12 18 13 5 0
12 5 10 15 0
6 1 10 17 0
5 11 17 10 0
13 16 11 5 0
1 8 15 10 0
14 9 3 7 0
7 3 13 18 0
9 16 13 3 0
End
