MeshVersionFormatted 2
Dimension 3
Vertices
61
1 1 0 0
1 -1 0 0
-1 -1 0 0
-1 1 0 0
0 -0 1.4142135623730951 0
1 0 0 0
-1 0 0 0
0 1 0 0
0 -1 0 0
0.5 0.5 0.70710678118654757 0
0.5 -0.5 0.70710678118654757 0
-0.5 0.5 0.70710678118654757 0
-0.5 -0.5 0.70710678118654757 0
0 0 0 0
0 0.66666666666666663 0.47140452079103173 0
0 -0.66666666666666663 0.47140452079103173 0
0.66666666666666663 0 0.47140452079103173 0
-0.66666666666666663 0 0.47140452079103173 0
0 0 0.11300032907898783 0
0.19217148008088808 0.19217148008088808 0.55305697177537871 0
-0.19217148008088808 -0.19217148008088808 0.55305697177537871 0
0.084635899054738548 0.24093596135053777 0.50311415654998948 0
0.24093596135053777 0.084635899054738548 0.50311415654998948 0
-0.24093596135053777 -0.084635899054738548 0.50311415654998948 0
-0.084635899054738548 -0.24093596135053777 0.50311415654998948 0
0.078351689070216987 0.078351689070216987 0.38489847674526545 0
-0.078351689070216987 -0.078351689070216987 0.38489847674526545 0
0.42495753012728599 -0.12034646893274863 0.59808791708733966 0
-0.12034646893274863 0.42495753012728599 0.59808791708733966 0
0.12034646893274863 -0.42495753012728599 0.59808791708733966 0
-0.42495753012728599 0.12034646893274863 0.59808791708733966 0
0.1636646924109553 -0.1636646924109553 0.49761646624337169 0
-0.1636646924109553 0.1636646924109553 0.49761646624337169 0
0.33892502184845846 -0.33892502184845846 0.73137894196273079 0
-0.33892502184845846 0.33892502184845846 0.73137894196273079 0
-0.098478898512354973 0.16813113137916416 0.51310211887039481 0
0.16813113137916416 -0.098478898512354973 0.51310211887039481 0
-0.16813113137916416 0.098478898512354973 0.51310211887039481 0
0.098478898512354973 -0.16813113137916416 0.51310211887039481 0
0.0059977294739690596 0.25341301424434232 0.54293792423611975 0
0.25341301424434232 0.0059977294739690596 0.54293792423611975 0
-0.25341301424434232 -0.0059977294739690596 0.54293792423611975 0
-0.0059977294739690596 -0.25341301424434232 0.54293792423611975 0
0 0 0.42310842949455563 0
-0.091270755900267522 0.091270755900267522 0.52563610212560818 0
0.091270755900267522 -0.091270755900267522 0.52563610212560818 0
0 0 0.55166732388894379 0
-0.023085716888042822 0.023085716888042822 0.50713643049856294 0
0.023085716888042822 -0.023085716888042822 0.50713643049856294 0
-0.038294517280917782 0.038294517280917782 0.52104934541067571 0
0.038294517280917782 -0.038294517280917782 0.52104934541067571 0
0 0 0.79619197783293127 0
0.044095720491089334 0.044095720491089334 0.7313767913345941 0
-0.044095720491089334 -0.044095720491089334 0.7313767913345941 0
0 0 0.67311426094078664 0
0.16093423488735273 0.16093423488735273 0.8705740349628116 0
-0.16093423488735273 -0.16093423488735273 0.8705740349628116 0
0.12741980051750071 0.12741980051750071 0.70690917697431499 0
-0.12741980051750071 -0.12741980051750071 0.70690917697431499 0
0 0 1.1095200782037633 0
0 0 0.6155871921176358 0
Hexahedra
44
1 8 14 6 10 15 19 17 0
3 9 14 7 13 16 19 18 0
14 6 17 19 9 2 11 16 0
14 19 15 8 7 18 12 4 0
10 15 19 17 20 22 26 23 0
13 16 19 18 21 25 27 24 0
17 19 16 11 28 32 30 34 0
15 12 18 19 29 35 31 33 0
15 19 26 22 29 33 36 40 0
17 23 26 19 28 41 37 32 0
18 24 27 19 31 42 38 33 0
16 19 27 25 30 32 39 43 0
19 26 36 33 27 44 45 38 0
19 32 37 26 27 39 46 44 0
20 22 26 23 47 48 44 49 0
21 25 27 24 47 49 44 48 0
22 26 44 48 40 36 45 50 0
23 49 44 26 41 51 46 37 0
24 48 44 27 42 50 45 38 0
25 27 44 49 43 39 46 51 0
32 37 46 39 52 53 55 54 0
33 38 45 36 52 54 55 53 0
10 15 22 20 56 29 40 58 0
10 20 23 17 56 58 41 28 0
13 21 24 18 57 59 42 31 0
13 16 25 21 57 30 43 59 0
10 15 29 56 5 12 35 60 0
10 56 28 17 5 60 34 11 0
13 57 31 18 5 60 35 12 0
13 16 30 57 5 11 34 60 0
28 32 30 34 56 52 57 60 0
29 35 31 33 56 60 57 52 0
28 32 52 56 41 37 53 58 0
29 56 52 33 40 58 53 36 0
30 57 52 32 43 59 54 39 0
31 33 52 57 42 38 54 59 0
22 20 58 40 48 47 61 50 0
23 41 58 20 49 51 61 47 0
24 42 59 21 48 50 61 47 0
25 21 59 43 49 47 61 51 0
40 58 53 36 50 61 55 45 0
41 37 53 58 51 46 55 61 0
42 38 54 59 50 45 55 61 0
43 59 54 39 51 61 55 46 0
Quadrilaterals
16
1 6 14 8 0
2 9 14 6 0
2 6 17 11 0
2 11 16 9 0
4 8 14 7 0
4 7 18 12 0
4 12 15 8 0
12 18 13 5 0
12 5 10 15 0
6 1 10 17 0
5 11 17 10 0
13 16 11 5 0
1 8 15 10 0
14 9 3 7 0
7 3 13 18 0
9 16 13 3 0
End
