MeshVersionFormatted 2
Dimension 3
Vertices
57
1 1 0 0
1 -1 0 0
-1 -1 0 0
-1 1 0 0
0 -0 1.4142135623730951 0
1 0 0 0
-1 0 0 0
0 1 0 0
0 -1 0 0
0.5 0.5 0.70710678118654757 0
0.5 -0.5 0.70710678118654757 0
-0.5 0.5 0.70710678118654757 0
-0.5 -0.5 0.70710678118654757 0
0 0 0 0
0 0.66666666666666663 0.47140452079103173 0
0 -0.66666666666666663 0.47140452079103173 0
0.66666666666666663 0 0.47140452079103173 0
-0.66666666666666663 0 0.47140452079103173 0
0.082421272079853183 0.082421272079853183 0.14451484992070565 0
-0.082421272079853183 -0.082421272079853183 0.14451484992070565 0
0.29362366599380751 -0.29362366599380751 0.40684069228190611 0
-0.29362366599380751 0.29362366599380751 0.40684069228190611 0
0.45367962231172371 -0.25295128975751502 0.44491569899653916 0
-0.25295128975751502 0.45367962231172371 0.44491569899653916 0
0.25295128975751502 -0.45367962231172371 0.44491569899653916 0
-0.45367962231172371 0.25295128975751502 0.44491569899653916 0
0.48307590604891332 -0.099457925291891125 0.48455795809725871 0
-0.099457925291891125 0.48307590604891332 0.48455795809725871 0
0.099457925291891125 -0.48307590604891332 0.48455795809725871 0
-0.48307590604891332 0.099457925291891125 0.48455795809725871 0
0.2962499198017976 -0.17757488043715897 0.4244221219771826 0
-0.17757488043715897 0.2962499198017976 0.4244221219771826 0
0.17757488043715897 -0.2962499198017976 0.4244221219771826 0
-0.2962499198017976 0.17757488043715897 0.4244221219771826 0
0 0 0.24487046758384115 0
0.15665712452089881 -0.15665712452089881 0.40115934363430783 0
-0.15665712452089881 0.15665712452089881 0.40115934363430783 0
0.4135529210960513 -0.4135529210960513 0.53764819136679431 0
-0.4135529210960513 0.4135529210960513 0.53764819136679431 0
0 0 0.44321557089809471 0
-0.024671049143658384 0.024671049143658384 0.39339834161834741 0
0.024671049143658384 -0.024671049143658384 0.39339834161834741 0
-0.094543229610846824 0.094543229610846824 0.40923503372345454 0
0.094543229610846824 -0.094543229610846824 0.40923503372345454 0
0 0 0.74030922119093945 0
0.072275553609360055 0.072275553609360055 0.674328636517733 0
-0.072275553609360055 -0.072275553609360055 0.674328636517733 0
0 0 0.59607774082136045 0
0.094976683247705418 0.094976683247705418 0.79992436725354887 0
-0.094976683247705418 -0.094976683247705418 0.79992436725354887 0
0.24746002417869653 0.24746002417869653 0.7216225300475454 0
-0.24746002417869653 -0.24746002417869653 0.7216225300475454 0
0 0 0.93163236374662428 0
0 0 0.5321134848743323 0
-0.33877987337434717 0.33877987337434717 0.77662947969343832 0
0.33877987337434717 -0.33877987337434717 0.77662947969343832 0
0 0 1.1264047066100045 0
Hexahedra
44
1 8 14 6 10 15 19 17 0
3 9 14 7 13 16 20 18 0
14 6 17 19 21 23 27 31 0
14 19 15 8 22 32 28 24 0
14 20 16 9 21 33 29 25 0
14 7 18 20 22 26 30 34 0
19 14 21 31 35 20 33 36 0
19 32 22 14 35 37 34 20 0
14 6 23 21 9 2 38 25 0
14 22 24 8 7 26 39 4 0
10 15 19 17 40 41 35 42 0
13 16 20 18 40 42 35 41 0
15 19 35 41 28 32 37 43 0
17 42 35 19 27 44 36 31 0
18 41 35 20 30 43 37 34 0
16 20 35 42 29 33 36 44 0
21 31 36 33 45 46 48 47 0
22 34 37 32 45 47 48 46 0
21 23 27 31 45 49 51 46 0
22 32 28 24 45 46 51 49 0
21 33 29 25 45 47 52 50 0
22 26 30 34 45 50 52 47 0
21 23 49 45 25 38 53 50 0
22 45 49 24 26 50 53 39 0
31 36 48 46 27 44 54 51 0
32 46 48 37 28 51 54 43 0
33 47 48 36 29 52 54 44 0
34 37 48 47 30 43 54 52 0
41 15 28 43 40 10 51 54 0
42 44 27 17 40 54 51 10 0
41 43 30 18 40 54 52 13 0
42 16 29 44 40 13 52 54 0
15 28 51 10 12 55 57 5 0
17 10 51 27 11 5 57 56 0
18 13 52 30 12 5 57 55 0
16 29 52 13 11 56 57 5 0
23 27 51 49 38 56 57 53 0
24 49 51 28 39 53 57 55 0
25 50 52 29 38 53 57 56 0
26 30 52 50 39 55 57 53 0
6 17 27 23 2 11 56 38 0
8 24 28 15 4 39 55 12 0
9 25 29 16 2 38 56 11 0
7 18 30 26 4 12 55 39 0
Quadrilaterals
16
1 6 14 8 0
2 9 14 6 0
2 6 17 11 0
2 11 16 9 0
4 8 14 7 0
4 7 18 12 0
4 12 15 8 0
12 18 13 5 0
12 5 10 15 0
6 1 10 17 0
5 11 17 10 0
13 16 11 5 0
1 8 15 10 0
14 9 3 7 0
7 3 13 18 0
9 16 13 3 0
End
