 MeshVersionFormatted 2
 Dimension
 3
 Vertices
 61
                  0.5                  0.707107                       0.5      0
             0.666667                  0.471405                         0      0
                  0.5                  0.707107                      -0.5      0
     0.19547551760846          0.76877693931183         0.085833797031396      0
     0.24928645603481          0.69001985905563      -5.2361046330275E-05      0
     0.19549830617349          0.76876830672658        -0.085947884057709      0
  9.6666958396164E-05           0.7620114621734         0.033673498486816      0
  0.00010248216094082          0.73392466072231      -4.5570641874867E-05      0
  9.7968539429444E-05          0.76201308868014        -0.033760991327313      0
    -0.19531400382772          0.76878261341266         0.085830511484087      0
    -0.24909066412382          0.69003986588384      -4.0688145660552E-05      0
    -0.19533026156335          0.76877512428643        -0.085915996534001      0
                 -0.5                  0.707107                       0.5      0
            -0.666667                  0.471405                         0      0
                 -0.5                  0.707107                      -0.5      0
    0.097232943434462          0.94721984419726      -5.5858319032963E-05      0
     0.19027568737159           0.6365423939063          0.36760396307869      0
   9.721742616889E-05          0.70735716810067          0.27475388985929      0
  8.3964783753097E-05          0.87091531260242      -4.8912317827225E-05      0
     0.14282934043511          0.70509064431128          0.14184271543756      0
    0.061010436549266          0.71338369709801          0.17149358406372      0
  0.00010284505683638          0.72679767350975         0.076189340562366      0
   0.0001000684967316          0.72442640818024          0.12794513820981      0
    -0.14263960523161          0.70508747930711          0.14183772945476      0
   -0.060819702764149          0.71338215309488          0.17149161867469      0
   -0.097108535708367          0.94722403470032      -4.6481053390362E-05      0
    -0.19011561567331          0.63652234951866           0.3675863590751      0
     0.15898860212518          0.45862699225926      -4.7443072113908E-05      0
  0.00010096314377421           0.5077046158669      -4.7774289215848E-05      0
     0.14209222778953          0.60981470762786      -5.6339337062481E-05      0
    0.052080770182672          0.58473405692052      -5.1889767175578E-05      0
  0.00010593400498339          0.67096564165199      -4.9479889312581E-05      0
  0.00010529468945555          0.62342402554671      -4.9735291699336E-05      0
    -0.14187498472802          0.60982010162034      -4.9125692993816E-05      0
   -0.051872081998475          0.58473618959409      -4.9253838170506E-05      0
    -0.15880875354938          0.45862831274393      -4.5509495585678E-05      0
     0.19027220642314          0.63652530672149         -0.36766556868597      0
  7.9915248606644E-05          0.70733466091139         -0.27481397341734      0
     0.14284373364937          0.70507516785324         -0.14194938224124      0
    0.061010869749794          0.71336642933317         -0.17158274996761      0
  0.00010118191758536          0.72678922825359        -0.076278343398486      0
  9.5278513361187E-05          0.72441360550666         -0.12803021094476      0
    -0.14265852480004           0.7050740647767         -0.14192391338094      0
    -0.06083437259858           0.7133662887179         -0.17157200105978      0
     -0.1901379972363          0.63650969942302         -0.36764879521098      0
  4.3228760612639E-05          0.54209297869445          0.42898347982846      0
                    0                  0.471405                  0.666667      0
  3.7374384901805E-05          0.54208002007101         -0.42907290440052      0
                    0                  0.471405                 -0.666667      0
                    0                   1.41421                         0      0
  6.4638203203443E-05          0.34221364536989      -5.4436762634916E-05      0
   4.714794047612E-05          0.18335401599107      -4.3945643249708E-05      0
                    0                         0                         0      0
                   -1                         0                        -1      0
                   -1                         0                         0      0
                   -1                         0                         1      0
                    0                         0                         1      0
                    1                         0                         1      0
                    1                         0                         0      0
                    1                         0                        -1      0
                    0                         0                        -1      0
 Hexahedra
 44
 13 50 1 47 27 18 17 46 0
 21 18 17 20 16 50 1 4 0
 4 1 2 5 16 50 3 6 0
 16 6 5 4 19 9 8 7 0
 16 40 39 6 19 42 41 9 0
 16 50 38 40 19 26 44 42 0
 39 6 3 37 40 16 50 38 0
 21 16 4 20 23 19 7 22 0
 7 19 9 8 10 26 12 11 0
 22 23 19 7 24 25 26 10 0
 21 18 50 16 23 25 26 19 0
 44 42 19 26 43 41 9 12 0
 18 25 24 27 50 26 10 13 0
 13 10 11 14 50 26 12 15 0
 45 15 12 43 38 50 26 44 0
 39 6 5 30 37 3 2 28 0
 40 39 30 31 38 37 28 29 0
 31 30 20 21 29 28 17 18 0
 30 5 4 20 28 2 1 17 0
 42 41 32 33 40 39 30 31 0
 41 9 8 32 39 6 5 30 0
 33 32 22 23 31 30 20 21 0
 32 8 7 22 30 5 4 20 0
 44 43 34 35 42 41 32 33 0
 43 12 11 34 41 9 8 32 0
 35 34 24 25 33 32 22 23 0
 34 11 10 24 32 8 7 22 0
 38 45 36 29 44 43 34 35 0
 45 15 14 36 43 12 11 34 0
 29 36 27 18 35 34 24 25 0
 36 14 13 27 34 11 10 24 0
 29 31 33 35 18 21 23 25 0
 38 40 42 44 29 31 33 35 0
 27 18 17 46 36 29 28 51 0
 36 29 28 51 45 38 37 48 0
 47 46 17 1 52 51 28 2 0
 52 51 28 2 49 48 37 3 0
 52 14 36 51 49 15 45 48 0
 47 13 27 46 52 14 36 51 0
 15 49 3 50 45 48 37 38 0
 54 55 53 61 15 14 52 49 0
 55 56 57 53 14 13 47 52 0
 53 57 58 59 52 47 1 2 0
 53 59 60 61 52 2 3 49 0
 End
