MeshVersionFormatted 2
Dimension 3
Vertices
59
1 1 0 0
1 -1 0 0
-1 -1 0 0
-1 1 0 0
0 -0 1.4142135623730951 0
1 0 0 0
-1 0 0 0
0 1 0 0
0 -1 0 0
0.5 0.5 0.70710678118654757 0
0.5 -0.5 0.70710678118654757 0
-0.5 0.5 0.70710678118654757 0
-0.5 -0.5 0.70710678118654757 0
0 0 0 0
0 0.66666666666666663 0.47140452079103173 0
0 -0.66666666666666663 0.47140452079103173 0
0.66666666666666663 0 0.47140452079103173 0
-0.66666666666666663 0 0.47140452079103173 0
0.23984291974037092 0.23984291974037092 0.46835308544859566 0
-0.23984291974037092 -0.23984291974037092 0.46835308544859566 0
0.01763055961256273 -0.01763055961256273 0.028011065617740489 0
-0.01763055961256273 0.01763055961256273 0.028011065617740489 0
0.34090113580200876 -0.19048283017950557 0.16974565290489069 0
-0.19048283017950557 0.34090113580200876 0.16974565290489069 0
0.19048283017950557 -0.34090113580200876 0.16974565290489069 0
-0.34090113580200876 0.19048283017950557 0.16974565290489069 0
0.3488736417561345 -0.087552275796840398 0.30284902087183557 0
-0.087552275796840398 0.3488736417561345 0.30284902087183557 0
0.087552275796840398 -0.3488736417561345 0.30284902087183557 0
-0.3488736417561345 0.087552275796840398 0.30284902087183557 0
0.24583509250849112 0.084708435614814129 0.38069539836665012 0
0.084708435614814129 0.24583509250849112 0.38069539836665012 0
-0.084708435614814129 -0.24583509250849112 0.38069539836665012 0
-0.24583509250849112 -0.084708435614814129 0.38069539836665012 0
0 0 0.045684567400173827 0
0.099208581899070059 0.099208581899070059 0.34539045049679629 0
-0.099208581899070059 -0.099208581899070059 0.34539045049679629 0
0.30620806352451091 -0.30620806352451091 0.22141024670071824 0
-0.30620806352451091 0.30620806352451091 0.22141024670071824 0
0.018920887038084196 0.018920887038084196 0.23861748513904935 0
-0.018920887038084196 -0.018920887038084196 0.23861748513904935 0
0 0 0.24235103730532317 0
0.027814345457788079 0.027814345457788079 0.27113811735976617 0
-0.027814345457788079 -0.027814345457788079 0.27113811735976617 0
0.060323158954413071 -0.060323158954413071 0.40590058844628668 0
-0.060323158954413071 0.060323158954413071 0.40590058844628668 0
0 0 0.43040130855147785 0
0 0 0.39157615841627741 0
-0.17769260448377827 0.17769260448377827 0.41781244260928863 0
0.17769260448377827 -0.17769260448377827 0.41781244260928863 0
-0.17666464411992333 0.17666464411992333 0.41590392939626891 0
0.17666464411992333 -0.17666464411992333 0.41590392939626891 0
0 0 0.61976355048675036 0
0.29507505522871696 -0.29507505522871696 0.23426060457340198 0
-0.29507505522871696 0.29507505522871696 0.23426060457340198 0
0 0 0.25510599592850325 0
0.090124036029177262 -0.090124036029177262 0.33118178841867868 0
-0.090124036029177262 0.090124036029177262 0.33118178841867868 0
0 0 0.32504148607321254 0
Hexahedra
44
1 8 14 6 10 15 19 17 0
3 9 14 7 13 16 20 18 0
14 6 17 19 21 23 27 31 0
14 19 15 8 22 32 28 24 0
14 20 16 9 21 33 29 25 0
14 7 18 20 22 26 30 34 0
19 14 21 31 32 22 35 36 0
20 33 21 14 34 37 35 22 0
14 6 23 21 9 2 38 25 0
14 22 24 8 7 26 39 4 0
23 21 25 38 40 35 41 42 0
24 39 26 22 40 42 41 35 0
23 21 35 40 27 31 36 43 0
24 40 35 22 28 43 36 32 0
25 41 35 21 29 44 37 33 0
26 22 35 41 30 34 37 44 0
31 19 32 36 45 47 46 48 0
33 37 34 20 45 48 46 47 0
19 15 28 32 47 49 51 46 0
19 31 27 17 47 45 52 50 0
20 34 30 18 47 46 51 49 0
20 16 29 33 47 50 52 45 0
19 15 49 47 53 12 18 20 0
19 47 50 17 53 20 16 11 0
10 15 19 17 5 12 53 11 0
13 16 20 18 5 11 53 12 0
50 17 11 16 52 27 54 29 0
49 18 12 15 51 30 55 28 0
6 17 27 23 2 11 54 38 0
8 24 28 15 4 39 55 12 0
9 25 29 16 2 38 54 11 0
7 18 30 26 4 12 55 39 0
27 23 38 54 43 40 42 56 0
28 55 39 24 43 56 42 40 0
29 54 38 25 44 56 42 41 0
30 26 39 55 44 41 42 56 0
52 27 54 29 45 31 57 33 0
51 30 55 28 46 34 58 32 0
27 31 36 43 54 57 59 56 0
28 43 36 32 55 56 59 58 0
29 44 37 33 54 56 59 57 0
30 34 37 44 55 58 59 56 0
45 31 57 33 48 36 59 37 0
46 34 58 32 48 37 59 36 0
Quadrilaterals
16
1 6 14 8 0
2 9 14 6 0
2 6 17 11 0
2 11 16 9 0
4 8 14 7 0
4 7 18 12 0
4 12 15 8 0
12 18 13 5 0
12 5 10 15 0
6 1 10 17 0
5 11 17 10 0
13 16 11 5 0
1 8 15 10 0
14 9 3 7 0
7 3 13 18 0
9 16 13 3 0
End
