MeshVersionFormatted 2
Dimension 3
Vertices
59
1 1 0 0
1 -1 0 0
-1 -1 0 0
-1 1 0 0
0 -0 1.4142135623730951 0
1 0 0 0
-1 0 0 0
0 1 0 0
0 -1 0 0
0.5 0.5 0.70710678118654757 0
0.5 -0.5 0.70710678118654757 0
-0.5 0.5 0.70710678118654757 0
-0.5 -0.5 0.70710678118654757 0
0 0 0 0
0 0.66666666666666663 0.47140452079103173 0
0 -0.66666666666666663 0.47140452079103173 0
0.66666666666666663 0 0.47140452079103173 0
-0.66666666666666663 0 0.47140452079103173 0
0.17967209167186196 0.17967209167186196 0.27124149511815021 0
-0.17967209167186196 -0.17967209167186196 0.27124149511815021 0
0.12404363007204744 -0.12404363007204744 0.35972427329376255 0
-0.12404363007204744 0.12404363007204744 0.35972427329376255 0
0.22586397435067021 -0.11731494371382004 0.39177787028380789 0
-0.11731494371382004 0.22586397435067021 0.39177787028380789 0
0.11731494371382004 -0.22586397435067021 0.39177787028380789 0
-0.22586397435067021 0.11731494371382004 0.39177787028380789 0
0.2999059232385336 -0.049204499246006277 0.39397981333065069 0
-0.049204499246006277 0.2999059232385336 0.39397981333065069 0
0.049204499246006277 -0.2999059232385336 0.39397981333065069 0
-0.2999059232385336 0.049204499246006277 0.39397981333065069 0
0.22028354579484444 0.081353382962353532 0.32604203544884308 0
0.081353382962353532 0.22028354579484444 0.32604203544884308 0
-0.081353382962353532 -0.22028354579484444 0.32604203544884308 0
-0.22028354579484444 -0.081353382962353532 0.32604203544884308 0
0 0 0.29913505946211422 0
0.034022243055049327 -0.034022243055049327 0.32394453382425026 0
-0.034022243055049327 0.034022243055049327 0.32394453382425026 0
0.18942363824358946 -0.18942363824358946 0.50360918828082513 0
-0.18942363824358946 0.18942363824358946 0.50360918828082513 0
0 0 0.66690403526209152 0
0.079829612206098105 -0.079829612206098105 0.63949734508644873 0
-0.079829612206098105 0.079829612206098105 0.63949734508644873 0
0.2109788913699493 -0.2109788913699493 0.61803811642923345 0
-0.2109788913699493 0.2109788913699493 0.61803811642923345 0
0.12053775079704815 0.12053775079704815 0.34789507228613797 0
-0.12053775079704815 -0.12053775079704815 0.34789507228613797 0
0 0 0.60853602709129395 0
0 0 0.33289418745285937 0
0 0 0.35311359972203971 0
0.086340907961521191 0.086340907961521191 0.38872777577659112 0
-0.086340907961521191 -0.086340907961521191 0.38872777577659112 0
0.068550871136337455 0.068550871136337455 0.39186713479006224 0
-0.068550871136337455 -0.068550871136337455 0.39186713479006224 0
0 0 0.56435631793993246 0
0 0 0.40222915953095695 0
0.023447733843522434 0.023447733843522434 0.42207275525750421 0
-0.023447733843522434 -0.023447733843522434 0.42207275525750421 0
0 0 0.46570360390681487 0
0 0 0.53060099791642523 0
Hexahedra
44
1 8 14 6 10 15 19 17 0
3 9 14 7 13 16 20 18 0
14 6 17 19 21 23 27 31 0
14 19 15 8 22 32 28 24 0
14 20 16 9 21 33 29 25 0
14 7 18 20 22 26 30 34 0
19 14 21 31 35 20 33 36 0
19 32 22 14 35 37 34 20 0
14 6 23 21 9 2 38 25 0
14 22 24 8 7 26 39 4 0
10 15 19 17 5 12 40 11 0
13 16 20 18 5 11 40 12 0
16 20 40 11 29 33 41 43 0
18 12 40 20 30 44 42 34 0
17 11 40 19 27 43 41 31 0
15 19 40 12 28 32 42 44 0
40 19 31 41 42 32 45 47 0
40 41 33 20 42 47 46 34 0
19 31 45 32 35 36 48 37 0
20 34 46 33 35 37 48 36 0
21 31 36 33 49 45 48 46 0
22 34 37 32 49 46 48 45 0
21 31 45 49 23 27 50 52 0
22 49 45 32 24 52 50 28 0
21 49 46 33 25 53 51 29 0
22 34 46 49 26 30 51 53 0
31 41 47 45 27 43 54 50 0
32 45 47 42 28 50 54 44 0
33 46 47 41 29 51 54 43 0
34 42 47 46 30 44 54 51 0
49 21 23 52 22 55 56 24 0
49 53 25 21 22 26 57 55 0
23 21 25 38 56 55 57 58 0
24 39 26 22 56 58 57 55 0
23 52 24 56 38 59 39 58 0
25 57 26 53 38 58 39 59 0
23 27 50 52 38 43 54 59 0
24 52 50 28 39 59 54 44 0
25 53 51 29 38 59 54 43 0
26 30 51 53 39 44 54 59 0
23 27 43 38 6 17 11 2 0
24 39 44 28 8 4 12 15 0
25 38 43 29 9 2 11 16 0
26 30 44 39 7 18 12 4 0
Quadrilaterals
16
1 6 14 8 0
2 9 14 6 0
2 6 17 11 0
2 11 16 9 0
4 8 14 7 0
4 7 18 12 0
4 12 15 8 0
12 18 13 5 0
12 5 10 15 0
6 1 10 17 0
5 11 17 10 0
13 16 11 5 0
1 8 15 10 0
14 9 3 7 0
7 3 13 18 0
9 16 13 3 0
End
