MeshVersionFormatted 2
Dimension 3
Vertices
61
1 1 0 0
1 -1 0 0
-1 -1 0 0
-1 1 0 0
0 -0 1.4142135623730951 0
1 0 0 0
-1 0 0 0
0 1 0 0
0 -1 0 0
0.5 0.5 0.70710678118654757 0
0.5 -0.5 0.70710678118654757 0
-0.5 0.5 0.70710678118654757 0
-0.5 -0.5 0.70710678118654757 0
0 0 0 0
0 0.66666666666666663 0.47140452079103173 0
0 -0.66666666666666663 0.47140452079103173 0
0.66666666666666663 0 0.47140452079103173 0
-0.66666666666666663 0 0.47140452079103173 0
0.20252042112305105 0.20252042112305105 0.29784847144365756 0
-0.20252042112305105 -0.20252042112305105 0.29784847144365756 0
0.12173351362007093 -0.12173351362007094 0.37275334432239893 0
-0.12173351362007094 0.12173351362007093 0.37275334432239893 0
0.21059547521398689 -0.12388280153641514 0.4074565143845662 0
-0.12388280153641514 0.21059547521398689 0.4074565143845662 0
0.12388280153641514 -0.21059547521398689 0.4074565143845662 0
-0.21059547521398689 0.12388280153641514 0.4074565143845662 0
0.25050982985396392 -0.063924935494515001 0.41095973085993193 0
-0.063924935494515001 0.25050982985396392 0.41095973085993193 0
0.063924935494515001 -0.25050982985396392 0.41095973085993193 0
-0.25050982985396392 0.063924935494515001 0.41095973085993193 0
0.21676142370822699 0.070489543168538171 0.35481350374091197 0
0.070489543168538171 0.21676142370822699 0.35481350374091197 0
-0.070489543168538171 -0.21676142370822699 0.35481350374091197 0
-0.21676142370822699 -0.070489543168538171 0.35481350374091197 0
0 0 0.30547130296366226 0
0.03516827805961302 -0.03516827805961302 0.33520606213341358 0
-0.03516827805961302 0.03516827805961302 0.33520606213341358 0
0.24368203426452317 -0.24368203426452317 0.46052215955191134 0
-0.24368203426452317 0.24368203426452317 0.46052215955191134 0
0 0 0.68284688920518688 0
0.074848699311420755 -0.074848699311420755 0.64202339518549145 0
-0.074848699311420755 0.074848699311420755 0.64202339518549145 0
0.19785033499826313 -0.19785033499826313 0.59159271632169597 0
-0.19785033499826313 0.19785033499826313 0.59159271632169597 0
0.13318762414118945 0.13318762414118945 0.36266825168079087 0
-0.13318762414118945 -0.13318762414118945 0.36266825168079087 0
0 0 0.63023663364086679 0
0 0 0.34486707965616559 0
0 0 0.36765890174547039 0
0.10702882262609706 0.10702882262609706 0.39290962264148255 0
-0.10702882262609706 -0.10702882262609706 0.39290962264148255 0
0.052406228829498212 0.052406228829498212 0.3919606005520565 0
-0.052406228829498212 -0.052406228829498212 0.3919606005520565 0
0 0 0.60173260642138138 0
0 0 0.42611842005345058 0
0.028814983600926949 0.028814983600926949 0.45088972699999574 0
-0.028814983600926949 -0.028814983600926949 0.45088972699999574 0
0 0 0.4961733809840207 0
0.046803518064913611 0.046803518064913611 0.46701758556410872 0
-0.046803518064913611 -0.046803518064913611 0.46701758556410872 0
0 0 0.5528331962161368 0
Hexahedra
46
1 8 14 6 10 15 19 17 0
3 9 14 7 13 16 20 18 0
14 6 17 19 21 23 27 31 0
14 19 15 8 22 32 28 24 0
14 20 16 9 21 33 29 25 0
14 7 18 20 22 26 30 34 0
19 14 21 31 35 20 33 36 0
19 32 22 14 35 37 34 20 0
14 6 23 21 9 2 38 25 0
14 22 24 8 7 26 39 4 0
10 15 19 17 5 12 40 11 0
13 16 20 18 5 11 40 12 0
16 20 40 11 29 33 41 43 0
18 12 40 20 30 44 42 34 0
17 11 40 19 27 43 41 31 0
15 19 40 12 28 32 42 44 0
40 19 31 41 42 32 45 47 0
40 41 33 20 42 47 46 34 0
19 31 45 32 35 36 48 37 0
20 34 46 33 35 37 48 36 0
21 31 36 33 49 45 48 46 0
22 34 37 32 49 46 48 45 0
21 31 45 49 23 27 50 52 0
22 49 45 32 24 52 50 28 0
21 49 46 33 25 53 51 29 0
22 34 46 49 26 30 51 53 0
31 41 47 45 27 43 54 50 0
32 45 47 42 28 50 54 44 0
33 46 47 41 29 51 54 43 0
34 42 47 46 30 44 54 51 0
49 21 23 52 22 55 56 24 0
49 53 25 21 22 26 57 55 0
23 21 25 38 56 55 57 58 0
24 39 26 22 56 58 57 55 0
23 52 24 56 27 50 28 59 0
25 57 26 53 29 60 30 51 0
6 17 27 23 2 11 43 38 0
8 24 28 15 4 39 44 12 0
9 25 29 16 2 38 43 11 0
7 18 30 26 4 12 44 39 0
27 23 38 43 59 56 58 61 0
28 44 39 24 59 61 58 56 0
29 43 38 25 60 61 58 57 0
30 26 39 44 60 57 58 61 0
27 43 54 50 59 61 44 28 0
29 51 54 43 60 30 44 61 0
Quadrilaterals
16
1 6 14 8 0
2 9 14 6 0
2 6 17 11 0
2 11 16 9 0
4 8 14 7 0
4 7 18 12 0
4 12 15 8 0
12 18 13 5 0
12 5 10 15 0
6 1 10 17 0
5 11 17 10 0
13 16 11 5 0
1 8 15 10 0
14 9 3 7 0
7 3 13 18 0
9 16 13 3 0
End
