MeshVersionFormatted 2
Dimension 3
Vertices
61
1 1 0 0
1 -1 0 0
-1 -1 0 0
-1 1 0 0
0 -0 1.4142135623730951 0
1 0 0 0
-1 0 0 0
0 1 0 0
0 -1 0 0
0.5 0.5 0.70710678118654757 0
0.5 -0.5 0.70710678118654757 0
-0.5 0.5 0.70710678118654757 0
-0.5 -0.5 0.70710678118654757 0
0 0 0 0
0 0.66666666666666663 0.47140452079103173 0
0 -0.66666666666666663 0.47140452079103173 0
0.66666666666666663 0 0.47140452079103173 0
-0.66666666666666663 0 0.47140452079103173 0
0.26088372311095476 0.26088372311095476 0.41370117681293095 0
-0.26088372311095476 -0.26088372311095476 0.41370117681293095 0
0.011429894544582486 -0.011429894544582486 0.021218454637212274 0
-0.011429894544582486 0.011429894544582486 0.021218454637212274 0
0.23294793783207704 -0.15088592546129032 0.15782742578747957 0
-0.15088592546129032 0.23294793783207704 0.15782742578747957 0
0.15088592546129032 -0.23294793783207704 0.15782742578747957 0
-0.23294793783207704 0.15088592546129032 0.15782742578747957 0
0.26090141511966403 -0.061880602009800716 0.28490061387714427 0
-0.061880602009800716 0.26090141511966403 0.28490061387714427 0
0.061880602009800716 -0.26090141511966403 0.28490061387714427 0
-0.26090141511966403 0.061880602009800716 0.28490061387714427 0
0.24419049214546285 0.22575901963127806 0.39357543746526696 0
0.22575901963127806 0.24419049214546285 0.39357543746526696 0
-0.22575901963127806 -0.24419049214546285 0.39357543746526696 0
-0.24419049214546285 -0.22575901963127806 0.39357543746526696 0
0 0 0.06699930799126487 0
0.23277613550777035 0.23277613550777035 0.39200934230152784 0
-0.23277613550777035 -0.23277613550777035 0.39200934230152784 0
0.24721796852841899 -0.24721796852841899 0.18769087286610217 0
-0.24721796852841899 0.24721796852841899 0.18769087286610217 0
0.01342175705620308 0.01342175705620308 0.13180583442106503 0
-0.01342175705620308 -0.01342175705620308 0.13180583442106503 0
0 0 0.20455395565692716 0
0.11979079780977042 0.11979079780977042 0.27813871070993307 0
-0.11979079780977042 -0.11979079780977042 0.27813871070993307 0
0.050275366223471812 -0.050275366223471812 0.48752796390440811 0
-0.050275366223471812 0.050275366223471812 0.48752796390440811 0
0 0 0.55049298775782263 0
0 0 0.47862235476771248 0
-0.11738670633818712 0.11738670633818712 0.56408857380226729 0
0.11738670633818712 -0.11738670633818712 0.56408857380226729 0
-0.11502022704481953 0.11502022704481953 0.42991152753868811 0
0.11502022704481953 -0.11502022704481953 0.42991152753868811 0
0 0 0.64677206762520056 0
0 0 0.47766028575943459 0
-0.26305981092289255 0.26305981092289255 0.24281280449599965 0
0.26305981092289255 -0.26305981092289255 0.24281280449599965 0
0.033972730927234074 0.033972730927234074 0.34322451287661815 0
-0.033972730927234074 -0.033972730927234074 0.34322451287661815 0
0 0 0.39080527354110728 0
0 0 0.2923905120055536 0
0 0 0.20477983604957933 0
Hexahedra
46
1 8 14 6 10 15 19 17 0
3 9 14 7 13 16 20 18 0
14 6 17 19 21 23 27 31 0
14 19 15 8 22 32 28 24 0
14 20 16 9 21 33 29 25 0
14 7 18 20 22 26 30 34 0
19 14 21 31 32 22 35 36 0
20 33 21 14 34 37 35 22 0
14 6 23 21 9 2 38 25 0
14 22 24 8 7 26 39 4 0
23 21 25 38 40 35 41 42 0
24 39 26 22 40 42 41 35 0
23 21 35 40 27 31 36 43 0
24 40 35 22 28 43 36 32 0
25 41 35 21 29 44 37 33 0
26 22 35 41 30 34 37 44 0
31 19 32 36 45 47 46 48 0
33 37 34 20 45 48 46 47 0
19 15 28 32 47 49 51 46 0
19 31 27 17 47 45 52 50 0
20 34 30 18 47 46 51 49 0
20 16 29 33 47 50 52 45 0
19 15 49 47 17 10 53 50 0
20 47 49 18 16 50 53 13 0
36 31 45 48 43 27 52 54 0
36 48 46 32 43 54 51 28 0
37 48 45 33 44 54 52 29 0
37 34 46 48 44 30 51 54 0
15 28 51 49 12 55 30 18 0
17 50 52 27 11 16 29 56 0
43 27 52 54 28 57 59 51 0
44 54 52 29 30 51 59 58 0
52 27 56 29 59 57 60 58 0
51 30 55 28 59 58 60 57 0
43 27 57 28 61 56 60 55 0
44 30 58 29 61 55 60 56 0
40 23 27 43 42 38 56 61 0
40 43 28 24 42 61 55 39 0
41 44 29 25 42 61 56 38 0
41 26 30 44 42 39 55 61 0
23 27 56 38 6 17 11 2 0
24 39 55 28 8 4 12 15 0
25 38 56 29 9 2 11 16 0
26 30 55 39 7 18 12 4 0
17 50 16 11 10 53 13 5 0
15 12 18 49 10 5 13 53 0
Quadrilaterals
16
1 6 14 8 0
2 9 14 6 0
2 6 17 11 0
2 11 16 9 0
4 8 14 7 0
4 7 18 12 0
4 12 15 8 0
12 18 13 5 0
12 5 10 15 0
6 1 10 17 0
5 11 17 10 0
13 16 11 5 0
1 8 15 10 0
14 9 3 7 0
7 3 13 18 0
9 16 13 3 0
End
