MeshVersionFormatted 2
Dimension 3
Vertices
63
1 1 0 0
1 -1 0 0
-1 -1 0 0
-1 1 0 0
0 -0 1.4142135623730951 0
1 0 0 0
-1 0 0 0
0 1 0 0
0 -1 0 0
0.5 0.5 0.70710678118654757 0
0.5 -0.5 0.70710678118654757 0
-0.5 0.5 0.70710678118654757 0
-0.5 -0.5 0.70710678118654757 0
0 0 0 0
0 0.66666666666666663 0.47140452079103173 0
0 -0.66666666666666663 0.47140452079103173 0
0.66666666666666663 0 0.47140452079103173 0
-0.66666666666666663 0 0.47140452079103173 0
0.25871583762507466 0.25871583762507466 0.44222830887290598 0
-0.25871583762507466 -0.25871583762507466 0.44222830887290598 0
0.057144696098674216 -0.057144696098674216 0.097482485254240775 0
-0.057144696098674216 0.057144696098674216 0.097482485254240775 0
0.35410560083974596 -0.21951139143117299 0.22027325221867985 0
-0.21951139143117299 0.35410560083974596 0.22027325221867985 0
0.21951139143117299 -0.35410560083974596 0.22027325221867985 0
-0.35410560083974596 0.21951139143117299 0.22027325221867985 0
0.36451779466016937 -0.042496647161277122 0.37201979008555713 0
-0.042496647161277122 0.36451779466016937 0.37201979008555713 0
0.042496647161277122 -0.36451779466016937 0.37201979008555713 0
-0.36451779466016937 0.042496647161277122 0.37201979008555713 0
0.28095284528966602 0.084926440587188012 0.39807782979064438 0
0.084926440587188012 0.28095284528966602 0.39807782979064438 0
-0.084926440587188012 -0.28095284528966602 0.39807782979064438 0
-0.28095284528966602 -0.084926440587188012 0.39807782979064438 0
0 0 0.16550636369400315 0
0.083968266157371949 0.083968266157371949 0.32700960195499407 0
-0.083968266157371949 -0.083968266157371949 0.32700960195499407 0
0.30402955849251329 -0.30402955849251329 0.25436066235609461 0
-0.30402955849251329 0.30402955849251329 0.25436066235609461 0
0.015645287404639087 0.015645287404639087 0.28540391084368433 0
-0.015645287404639087 -0.015645287404639087 0.28540391084368433 0
0 0 0.31282674287869405 0
0.047558840193880222 0.047558840193880222 0.34277171986056976 0
-0.047558840193880222 -0.047558840193880222 0.34277171986056976 0
0.13462529186307112 0.060177742992716422 0.43460002821475668 0
0.060177742992716422 0.13462529186307112 0.43460002821475668 0
-0.060177742992716422 -0.13462529186307112 0.43460002821475668 0
-0.13462529186307112 -0.060177742992716422 0.43460002821475668 0
0.11094777438345449 0.11094777438345449 0.44428509919093456 0
-0.11094777438345449 -0.11094777438345449 0.44428509919093456 0
0.082156003616640744 0.082156003616640744 0.33791389646974684 0
-0.082156003616640744 -0.082156003616640744 0.33791389646974684 0
0 0 0.60760826312789884 0
-0.2406783219456744 0.2406783219456744 0.48093606915098491 0
0.2406783219456744 -0.2406783219456744 0.48093606915098491 0
-0.14243139038719202 0.14243139038719202 0.50658177170165741 0
0.14243139038719202 -0.14243139038719202 0.50658177170165741 0
0.060076098067125203 -0.060076098067125203 0.52542444372897867 0
-0.060076098067125203 0.060076098067125203 0.52542444372897867 0
0 0 0.60145301971322673 0
0 0 0.42404877586436096 0
0 0 0.38955763710931662 0
0 0 0.44579376106877877 0
Hexahedra
46
1 8 14 6 10 15 19 17 0
3 9 14 7 13 16 20 18 0
14 6 17 19 21 23 27 31 0
14 19 15 8 22 32 28 24 0
14 20 16 9 21 33 29 25 0
14 7 18 20 22 26 30 34 0
19 14 21 31 32 22 35 36 0
20 33 21 14 34 37 35 22 0
14 6 23 21 9 2 38 25 0
14 22 24 8 7 26 39 4 0
23 21 25 38 40 35 41 42 0
24 39 26 22 40 42 41 35 0
23 21 35 40 27 31 36 43 0
24 40 35 22 28 43 36 32 0
25 41 35 21 29 44 37 33 0
26 22 35 41 30 34 37 44 0
31 19 32 36 45 49 46 51 0
33 37 34 20 47 52 48 50 0
19 15 28 32 53 12 54 56 0
19 31 27 17 53 57 55 11 0
20 34 30 18 53 56 54 12 0
20 16 29 33 53 11 55 57 0
19 31 57 53 49 45 58 60 0
19 53 56 32 49 60 59 46 0
20 53 57 33 50 60 58 47 0
20 34 56 53 50 48 59 60 0
20 16 11 53 18 13 5 12 0
19 53 11 17 15 12 5 10 0
27 31 36 43 55 57 61 62 0
28 43 36 32 54 62 61 56 0
29 44 37 33 55 62 61 57 0
30 34 37 44 54 56 61 62 0
31 36 61 57 45 51 63 58 0
32 56 61 36 46 59 63 51 0
33 57 61 37 47 58 63 52 0
34 37 61 56 48 52 63 59 0
16 29 55 11 9 25 38 2 0
18 12 54 30 7 4 39 26 0
17 11 55 27 6 2 38 23 0
15 28 54 12 8 24 39 4 0
55 27 23 38 62 43 40 42 0
54 39 24 28 62 42 40 43 0
55 38 25 29 62 42 41 44 0
54 30 26 39 62 44 41 42 0
49 45 58 60 46 51 63 59 0
50 60 58 47 48 59 63 52 0
Quadrilaterals
16
1 6 14 8 0
2 9 14 6 0
2 6 17 11 0
2 11 16 9 0
4 8 14 7 0
4 7 18 12 0
4 12 15 8 0
12 18 13 5 0
12 5 10 15 0
6 1 10 17 0
5 11 17 10 0
13 16 11 5 0
1 8 15 10 0
14 9 3 7 0
7 3 13 18 0
9 16 13 3 0
End
