MeshVersionFormatted 2
Dimension 3
Vertices
61
1 1 0 0
1 -1 0 0
-1 -1 0 0
-1 1 0 0
0 -0 1.4142135623730951 0
1 0 0 0
-1 0 0 0
0 1 0 0
0 -1 0 0
0.5 0.5 0.70710678118654757 0
0.5 -0.5 0.70710678118654757 0
-0.5 0.5 0.70710678118654757 0
-0.5 -0.5 0.70710678118654757 0
0 0 0 0
0 0.66666666666666663 0.47140452079103173 0
0 -0.66666666666666663 0.47140452079103173 0
0.66666666666666663 0 0.47140452079103173 0
-0.66666666666666663 0 0.47140452079103173 0
0.27778978355820849 0.27778978355820849 0.42590864372953163 0
-0.27778978355820849 -0.27778978355820849 0.42590864372953163 0
0.00018207610401398805 -0.00018207610401398805 0.00089908230444357847 0
-0.00018207610401398805 0.00018207610401398805 0.00089908230444357847 0
0.2342579194443169 -0.16616159718522019 0.13798596412092598 0
-0.16616159718522019 0.2342579194443169 0.13798596412092598 0
0.16616159718522019 -0.2342579194443169 0.13798596412092598 0
-0.2342579194443169 0.16616159718522019 0.13798596412092598 0
0.25392230999722193 -0.12683246356888336 0.18856855869680608 0
-0.12683246356888336 0.25392230999722193 0.18856855869680608 0
0.12683246356888336 -0.25392230999722193 0.18856855869680608 0
-0.25392230999722193 0.12683246356888336 0.18856855869680608 0
0.26013603131727536 0.24478133441489594 0.4022968650512298 0
0.24478133441489594 0.26013603131727536 0.4022968650512298 0
-0.24478133441489594 -0.26013603131727536 0.4022968650512298 0
-0.26013603131727536 -0.24478133441489594 0.4022968650512298 0
0 0 0.001624054930216323 0
0.25039064820333795 0.25039064820333795 0.40131154699931021 0
-0.25039064820333795 -0.25039064820333795 0.40131154699931021 0
0.25670839588438032 -0.25670839588438032 0.15694036755595939 0
-0.25670839588438032 0.25670839588438032 0.15694036755595939 0
0.011665488986893222 0.011665488986893222 0.077255162884810172 0
-0.011665488986893222 -0.011665488986893222 0.077255162884810172 0
0 0 0.11913314354091767 0
0.079053207191940811 0.079053207191940811 0.18400075416555522 0
-0.079053207191940811 -0.079053207191940811 0.18400075416555522 0
0.00065860474733423868 -0.00065860474733423868 0.40288610056580415 0
-0.00065860474733423868 0.00065860474733423868 0.40288610056580415 0
0 0 0.40412625255402929 0
0 0 0.4022575379661914 0
-0.17313435726848456 0.17313435726848456 0.42162439653675571 0
0.17313435726848456 -0.17313435726848456 0.42162439653675571 0
-0.16766708433827479 0.16766708433827479 0.28365974219477541 0
0.16766708433827479 -0.16766708433827479 0.28365974219477541 0
0 0 0.66146650452900946 0
0.22350600775805446 -0.22350600775805446 0.1753884026138037 0
-0.22350600775805446 0.22350600775805446 0.1753884026138037 0
0 0 0.1192044446385675 0
0 0 0.24490874173971847 0
0.0067716617578010329 0.0067716617578010329 0.23493793235537533 0
-0.0067716617578010329 -0.0067716617578010329 0.23493793235537533 0
0 0 0.21640792903696718 0
0 0 0.3363267552726289 0
Hexahedra
46
1 8 14 6 10 15 19 17 0
3 9 14 7 13 16 20 18 0
14 6 17 19 21 23 27 31 0
14 19 15 8 22 32 28 24 0
14 20 16 9 21 33 29 25 0
14 7 18 20 22 26 30 34 0
19 14 21 31 32 22 35 36 0
20 33 21 14 34 37 35 22 0
14 6 23 21 9 2 38 25 0
14 22 24 8 7 26 39 4 0
23 21 25 38 40 35 41 42 0
24 39 26 22 40 42 41 35 0
23 21 35 40 27 31 36 43 0
24 40 35 22 28 43 36 32 0
25 41 35 21 29 44 37 33 0
26 22 35 41 30 34 37 44 0
31 19 32 36 45 47 46 48 0
33 37 34 20 45 48 46 47 0
19 15 28 32 47 49 51 46 0
19 31 27 17 47 45 52 50 0
20 34 30 18 47 46 51 49 0
20 16 29 33 47 50 52 45 0
19 15 49 47 53 12 18 20 0
19 47 50 17 53 20 16 11 0
10 15 19 17 5 12 53 11 0
13 16 20 18 5 11 53 12 0
50 17 11 16 52 27 54 29 0
49 18 12 15 51 30 55 28 0
6 17 27 23 2 11 54 38 0
8 24 28 15 4 39 55 12 0
9 25 29 16 2 38 54 11 0
7 18 30 26 4 12 55 39 0
27 23 38 54 43 40 42 56 0
28 55 39 24 43 56 42 40 0
29 54 38 25 44 56 42 41 0
30 26 39 55 44 41 42 56 0
52 27 54 29 57 58 60 59 0
51 30 55 28 57 59 60 58 0
54 27 43 56 60 58 28 55 0
54 56 44 29 60 55 30 59 0
27 43 28 58 52 61 51 57 0
29 59 30 44 52 57 51 61 0
27 31 36 43 52 45 48 61 0
28 43 36 32 51 61 48 46 0
29 44 37 33 52 61 48 45 0
30 34 37 44 51 46 48 61 0
Quadrilaterals
16
1 6 14 8 0
2 9 14 6 0
2 6 17 11 0
2 11 16 9 0
4 8 14 7 0
4 7 18 12 0
4 12 15 8 0
12 18 13 5 0
12 5 10 15 0
6 1 10 17 0
5 11 17 10 0
13 16 11 5 0
1 8 15 10 0
14 9 3 7 0
7 3 13 18 0
9 16 13 3 0
End
