MeshVersionFormatted 2
Dimension 3
Vertices
63
1 1 0 0
1 -1 0 0
-1 -1 0 0
-1 1 0 0
0 -0 1.4142135623730951 0
1 0 0 0
-1 0 0 0
0 1 0 0
0 -1 0 0
0.5 0.5 0.70710678118654757 0
0.5 -0.5 0.70710678118654757 0
-0.5 0.5 0.70710678118654757 0
-0.5 -0.5 0.70710678118654757 0
0 0 0 0
0 0.66666666666666663 0.47140452079103173 0
0 -0.66666666666666663 0.47140452079103173 0
0.66666666666666663 0 0.47140452079103173 0
-0.66666666666666663 0 0.47140452079103173 0
0.28196008846588583 0.28196008846588583 0.45560184536369319 0
-0.28196008846588583 -0.28196008846588583 0.45560184536369319 0
0.076307357964804728 -0.076307357964804728 0.13775644494392317 0
-0.076307357964804728 0.076307357964804728 0.13775644494392317 0
0.28022127109151362 -0.17405175236894549 0.27346491060254347 0
-0.17405175236894549 0.28022127109151362 0.27346491060254347 0
0.17405175236894549 -0.28022127109151362 0.27346491060254347 0
-0.28022127109151362 0.17405175236894549 0.27346491060254347 0
0.32489937674215225 -0.010950881012930869 0.38921905491510334 0
-0.010950881012930869 0.32489937674215225 0.38921905491510334 0
0.010950881012930869 -0.32489937674215225 0.38921905491510334 0
-0.32489937674215225 0.010950881012930869 0.38921905491510334 0
0.26680989107266195 0.12020233220091825 0.40730609217321578 0
0.12020233220091825 0.26680989107266195 0.40730609217321578 0
-0.12020233220091825 -0.26680989107266195 0.40730609217321578 0
-0.26680989107266195 -0.12020233220091825 0.40730609217321578 0
0 0 0.18046564177428898 0
0.14766574500083776 0.14766574500083776 0.39281016038169919 0
-0.14766574500083776 -0.14766574500083776 0.39281016038169919 0
0.2238656555299435 -0.2238656555299435 0.31615736645397086 0
-0.2238656555299435 0.2238656555299435 0.31615736645397086 0
0.080840768815433367 -0.059531664587518393 0.29662270085403331 0
-0.059531664587518393 0.080840768815433367 0.29662270085403331 0
0.059531664587518393 -0.080840768815433367 0.29662270085403331 0
-0.080840768815433367 0.059531664587518393 0.29662270085403331 0
0.059441308481147585 -0.059441308481147585 0.24931545149735079 0
-0.059441308481147585 0.059441308481147585 0.24931545149735079 0
0.069639669614499758 -0.069639669614499758 0.32191209938249726 0
-0.069639669614499758 0.069639669614499758 0.32191209938249726 0
0.064759443273811321 0.064759443273811321 0.32021580864138027 0
-0.064759443273811321 -0.064759443273811321 0.32021580864138027 0
0.10242921454347237 0.10242921454347237 0.37493761967466088 0
-0.10242921454347237 -0.10242921454347237 0.37493761967466088 0
0.016763385706351899 0.016763385706351899 0.30474044812814793 0
-0.016763385706351899 -0.016763385706351899 0.30474044812814793 0
0 0 0.26416285226357944 0
0.083807321813757135 -0.083807321813757135 0.57809311801273255 0
-0.083807321813757135 0.083807321813757135 0.57809311801273255 0
0 0 0.63605740847387515 0
0 0 0.54029454701078927 0
-0.20961701207557959 0.20961701207557959 0.53528003244597377 0
0.20961701207557959 -0.20961701207557959 0.53528003244597377 0
0 0 0.40630406395050112 0
0 0 0.4700281418119156 0
0 0 0.36322085998717368 0
Hexahedra
46
1 8 14 6 10 15 19 17 0
3 9 14 7 13 16 20 18 0
14 6 17 19 21 23 27 31 0
14 19 15 8 22 32 28 24 0
14 20 16 9 21 33 29 25 0
14 7 18 20 22 26 30 34 0
19 14 21 31 32 22 35 36 0
20 33 21 14 34 37 35 22 0
14 6 23 21 9 2 38 25 0
14 22 24 8 7 26 39 4 0
23 21 25 38 40 44 42 46 0
24 39 26 22 41 47 43 45 0
21 23 27 31 35 48 50 36 0
22 32 28 24 35 36 50 48 0
21 33 29 25 35 37 51 49 0
22 26 30 34 35 49 51 37 0
21 23 48 35 44 40 52 54 0
22 35 48 24 45 54 52 41 0
21 35 49 25 44 54 53 42 0
22 26 49 35 45 43 53 54 0
31 19 32 36 55 57 56 58 0
33 37 34 20 55 58 56 57 0
19 15 28 32 57 12 59 56 0
19 31 27 17 57 55 60 11 0
20 34 30 18 57 56 59 12 0
20 16 29 33 57 11 60 55 0
20 16 11 57 18 13 5 12 0
19 57 11 17 15 12 5 10 0
6 17 27 23 2 11 60 38 0
8 24 28 15 4 39 59 12 0
9 25 29 16 2 38 60 11 0
7 18 30 26 4 12 59 39 0
27 23 38 60 50 48 61 62 0
28 59 39 24 50 62 61 48 0
29 60 38 25 51 62 61 49 0
30 26 39 59 51 49 61 62 0
23 38 61 48 40 46 63 52 0
24 48 61 39 41 52 63 47 0
25 49 61 38 42 53 63 46 0
26 39 61 49 43 47 63 53 0
31 27 60 55 36 50 62 58 0
32 56 59 28 36 58 62 50 0
33 55 60 29 37 58 62 51 0
34 30 59 56 37 51 62 58 0
44 40 52 54 42 46 63 53 0
45 54 52 41 43 53 63 47 0
Quadrilaterals
16
1 6 14 8 0
2 9 14 6 0
2 6 17 11 0
2 11 16 9 0
4 8 14 7 0
4 7 18 12 0
4 12 15 8 0
12 18 13 5 0
12 5 10 15 0
6 1 10 17 0
5 11 17 10 0
13 16 11 5 0
1 8 15 10 0
14 9 3 7 0
7 3 13 18 0
9 16 13 3 0
End
