MeshVersionFormatted 2
Dimension 3
Vertices
61
1 1 0 0
1 -1 0 0
-1 -1 0 0
-1 1 0 0
0 -0 1.4142135623730951 0
1 0 0 0
-1 0 0 0
0 1 0 0
0 -1 0 0
0.5 0.5 0.70710678118654757 0
0.5 -0.5 0.70710678118654757 0
-0.5 0.5 0.70710678118654757 0
-0.5 -0.5 0.70710678118654757 0
0 0 0 0
0 0.66666666666666663 0.47140452079103173 0
0 -0.66666666666666663 0.47140452079103173 0
0.66666666666666663 0 0.47140452079103173 0
-0.66666666666666663 0 0.47140452079103173 0
0.30900344507482674 0.30900344507482674 0.47438784848267418 0
-0.30900344507482674 -0.30900344507482674 0.47438784848267418 0
0.062540579274656741 -0.062540579274656741 0.062478962202710799 0
-0.062540579274656741 0.062540579274656741 0.062478962202710799 0
0.2635038630776147 -0.14806359640963485 0.17358402041855667 0
-0.14806359640963485 0.2635038630776147 0.17358402041855667 0
0.14806359640963485 -0.2635038630776147 0.17358402041855667 0
-0.2635038630776147 0.14806359640963485 0.17358402041855667 0
0.24082754010470225 -0.040407061479380002 0.36883711260255947 0
-0.040407061479380002 0.24082754010470225 0.36883711260255947 0
0.040407061479380002 -0.24082754010470225 0.36883711260255947 0
-0.24082754010470225 0.040407061479380002 0.36883711260255947 0
0.23827706766896217 0.10827649435938536 0.43981556131760896 0
0.10827649435938536 0.23827706766896217 0.43981556131760896 0
-0.10827649435938536 -0.23827706766896217 0.43981556131760896 0
-0.23827706766896217 -0.10827649435938536 0.43981556131760896 0
0 0 0.1253683431189683 0
0.15934123007901665 0.15934123007901665 0.43287319187799672 0
-0.15934123007901665 -0.15934123007901665 0.43287319187799672 0
0.25849855893184903 -0.25849855893184903 0.20736056736705405 0
-0.25849855893184903 0.25849855893184903 0.20736056736705405 0
0.022866742508720748 0.022866742508720748 0.22633214902316343 0
-0.022866742508720748 -0.022866742508720748 0.22633214902316343 0
0 0 0.24331087354688821 0
0.11002250970667386 0.11002250970667388 0.3726917896192054 0
-0.11002250970667388 -0.11002250970667386 0.3726917896192054 0
0.061305112739637235 -0.061305112739637235 0.56376826251420331 0
-0.061305112739637235 0.061305112739637235 0.56376826251420331 0
0 0 0.68958455500357885 0
0 0 0.52743686744189233 0
-0.22431774021019163 0.22431774021019169 0.31429053207057672 0
0.22431774021019169 -0.22431774021019163 0.31429053207057672 0
0 0 0.42508864008604924 0
0.060579433493918478 -0.060579433493918478 0.42648047538344502 0
-0.060579433493918478 0.060579433493918478 0.42648047538344502 0
0.083339572850317997 -0.083339572850317997 0.38743780644247872 0
-0.083339572850317997 0.083339572850317997 0.38743780644247872 0
0 0 0.40411262881425936 0
4.8148248609680896e-35 0 0.27689234595805051 0
0.038432116121360008 0.038432116121360008 0.35746728187703014 0
-0.038432116121360008 -0.038432116121360008 0.35746728187703014 0
3.8518598887744717e-34 0 0.33113051396579601 0
-3.8518598887744717e-34 0 0.37191221857363504 0
Hexahedra
46
1 8 14 6 10 15 19 17 0
3 9 14 7 13 16 20 18 0
14 6 17 19 21 23 27 31 0
14 19 15 8 22 32 28 24 0
14 20 16 9 21 33 29 25 0
14 7 18 20 22 26 30 34 0
19 14 21 31 32 22 35 36 0
20 33 21 14 34 37 35 22 0
14 6 23 21 9 2 38 25 0
14 22 24 8 7 26 39 4 0
23 21 25 38 40 35 41 42 0
24 39 26 22 40 42 41 35 0
23 21 35 40 27 31 36 43 0
24 40 35 22 28 43 36 32 0
25 41 35 21 29 44 37 33 0
26 22 35 41 30 34 37 44 0
31 19 32 36 45 47 46 48 0
33 37 34 20 45 48 46 47 0
19 15 28 32 47 12 49 46 0
19 31 27 17 47 45 50 11 0
20 34 30 18 47 46 49 12 0
20 16 29 33 47 11 50 45 0
20 16 11 47 18 13 5 12 0
19 47 11 17 15 12 5 10 0
36 31 45 48 51 52 33 37 0
36 48 46 32 51 37 34 53 0
31 45 33 52 27 50 29 54 0
32 53 34 46 28 55 30 49 0
27 31 36 43 54 52 51 56 0
28 43 36 32 55 56 51 53 0
29 44 37 33 54 56 51 52 0
30 34 37 44 55 53 51 56 0
40 23 27 43 42 38 50 57 0
40 43 28 24 42 57 49 39 0
41 44 29 25 42 57 50 38 0
41 26 30 44 42 39 49 57 0
27 43 57 50 58 28 49 60 0
29 50 57 44 59 60 49 30 0
27 50 29 54 58 60 59 61 0
28 55 30 49 58 61 59 60 0
27 43 28 58 54 56 55 61 0
29 59 30 44 54 61 55 56 0
23 27 50 38 6 17 11 2 0
24 39 49 28 8 4 12 15 0
25 38 50 29 9 2 11 16 0
26 30 49 39 7 18 12 4 0
Quadrilaterals
16
1 6 14 8 0
2 9 14 6 0
2 6 17 11 0
2 11 16 9 0
4 8 14 7 0
4 7 18 12 0
4 12 15 8 0
12 18 13 5 0
12 5 10 15 0
6 1 10 17 0
5 11 17 10 0
13 16 11 5 0
1 8 15 10 0
14 9 3 7 0
7 3 13 18 0
9 16 13 3 0
End
