MeshVersionFormatted 2
Dimension 3
Vertices
61
1 1 0 0
1 -1 0 0
-1 -1 0 0
-1 1 0 0
0 -0 1.4142135623730951 0
1 0 0 0
-1 0 0 0
0 1 0 0
0 -1 0 0
0.5 0.5 0.70710678118654757 0
0.5 -0.5 0.70710678118654757 0
-0.5 0.5 0.70710678118654757 0
-0.5 -0.5 0.70710678118654757 0
0 0 0 0
0 0.66666666666666663 0.47140452079103173 0
0 -0.66666666666666663 0.47140452079103173 0
0.66666666666666663 0 0.47140452079103173 0
-0.66666666666666663 0 0.47140452079103173 0
0.27705169779436573 0.27705169779436573 0.29877354574007453 0
-0.27705169779436573 -0.27705169779436573 0.29877354574007453 0
0.17442826667265529 0.27805169081860792 0.26489783505390108 0
0.27805169081860792 0.17442826667265529 0.26489783505390108 0
-0.27805169081860792 -0.17442826667265529 0.26489783505390108 0
-0.17442826667265529 -0.27805169081860792 0.26489783505390108 0
0.15371598537210238 0.15371598537210238 0.18945062928622147 0
-0.15371598537210238 -0.15371598537210238 0.18945062928622147 0
0.12773280247684174 -0.12773280247684174 0.19698332326876325 0
-0.12773280247684174 0.12773280247684174 0.19698332326876325 0
0.32686170158592298 0.10221876846511131 0.36157506677019247 0
0.10221876846511131 0.32686170158592298 0.36157506677019247 0
-0.10221876846511131 -0.32686170158592298 0.36157506677019247 0
-0.32686170158592298 -0.10221876846511131 0.36157506677019247 0
0.13972006714075061 -0.096759071706989733 0.20988319115768564 0
-0.096759071706989733 0.13972006714075061 0.20988319115768564 0
0.096759071706989733 -0.13972006714075061 0.20988319115768564 0
-0.13972006714075061 0.096759071706989733 0.20988319115768564 0
0 0 0.25140180155304392 0
0.0070995094799720538 0.0070995094799720538 0.25562175947617111 0
-0.0070995094799720538 -0.0070995094799720538 0.25562175947617111 0
0.093311944737331703 0.093311944737331703 0.61174401641065945 0
-0.093311944737331703 -0.093311944737331703 0.61174401641065945 0
0 0 0.59920026703798468 0
0 0 0.6787486061621284 0
0.1196085227688756 0.1196085227688756 0.54993477910086475 0
-0.1196085227688756 -0.1196085227688756 0.54993477910086475 0
0.048732582131413418 0.048732582131413418 0.5701049180186295 0
-0.048732582131413418 -0.048732582131413418 0.5701049180186295 0
0 0 0.53625116802848982 0
0.068624802129754442 -0.068624802129754442 0.30314044433671289 0
-0.068624802129754442 0.068624802129754442 0.30314044433671289 0
0 0 0.28955320669849011 0
0 0 0.32832691655071877 0
0.014258293497022493 -0.014258293497022493 0.3684914053665625 0
-0.014258293497022493 0.014258293497022493 0.3684914053665625 0
0.018681481684216714 -0.018681481684216714 0.37567633194186278 0
-0.018681481684216714 0.018681481684216714 0.37567633194186278 0
0 0 0.47994872065921235 0
0 0 0.37394280139335095 0
0.28417061220732831 0.28417061220732831 0.34656238060285893 0
-0.28417061220732831 -0.28417061220732831 0.34656238060285893 0
0 0 0.37411411650578996 0
Hexahedra
46
1 8 14 6 19 21 25 22 0
3 9 14 7 20 24 26 23 0
14 6 22 25 27 17 29 33 0
14 25 21 8 28 34 30 15 0
14 26 24 9 27 35 31 16 0
14 7 23 26 28 18 32 36 0
25 14 27 33 34 28 37 38 0
26 35 27 14 36 39 37 28 0
14 6 17 27 9 2 11 16 0
14 28 15 8 7 18 12 4 0
17 27 16 11 40 42 41 43 0
15 12 18 28 40 43 41 42 0
28 15 40 42 34 30 44 46 0
27 42 40 17 33 46 44 29 0
28 42 41 18 36 47 45 32 0
27 16 41 42 35 31 45 47 0
27 42 46 33 35 47 48 49 0
28 34 46 42 36 50 48 47 0
33 27 35 49 38 37 39 51 0
34 50 36 28 38 51 39 37 0
33 25 34 38 49 52 50 51 0
35 39 36 26 49 51 50 52 0
33 25 52 49 29 22 53 55 0
34 50 52 25 30 56 54 21 0
35 49 52 26 31 55 53 24 0
36 26 52 50 32 23 54 56 0
46 33 49 48 44 29 55 57 0
46 48 50 34 44 57 56 30 0
47 48 49 35 45 57 55 31 0
47 36 50 48 45 32 56 57 0
52 25 21 54 53 22 19 58 0
52 54 23 26 53 58 20 24 0
15 40 44 30 10 17 29 59 0
18 32 45 41 13 60 31 16 0
44 29 55 57 30 59 61 56 0
45 57 55 31 32 56 61 60 0
30 56 54 21 59 61 58 19 0
29 22 53 55 59 19 58 61 0
32 23 54 56 60 20 58 61 0
31 55 53 24 60 61 58 20 0
6 22 29 17 1 19 59 10 0
8 15 30 21 1 10 59 19 0
9 16 31 24 3 13 60 20 0
7 23 32 18 3 20 60 13 0
15 40 17 10 12 43 11 5 0
18 13 16 41 12 5 11 43 0
Quadrilaterals
16
1 6 14 8 0
2 9 14 6 0
2 6 17 11 0
2 11 16 9 0
4 8 14 7 0
4 7 18 12 0
4 12 15 8 0
12 18 13 5 0
12 5 10 15 0
6 1 10 17 0
5 11 17 10 0
13 16 11 5 0
1 8 15 10 0
14 9 3 7 0
7 3 13 18 0
9 16 13 3 0
End
