MeshVersionFormatted 2
Dimension 3
Vertices
61
1 1 0 0
1 -1 0 0
-1 -1 0 0
-1 1 0 0
0 -0 1.4142135623730951 0
1 0 0 0
-1 0 0 0
0 1 0 0
0 -1 0 0
0.5 0.5 0.70710678118654757 0
0.5 -0.5 0.70710678118654757 0
-0.5 0.5 0.70710678118654757 0
-0.5 -0.5 0.70710678118654757 0
0 0 0 0
0 0.66666666666666663 0.47140452079103173 0
0 -0.66666666666666663 0.47140452079103173 0
0.66666666666666663 0 0.47140452079103173 0
-0.66666666666666663 0 0.47140452079103173 0
0.2365834093467612 0.2365834093467612 0.44583732532810788 0
-0.2365834093467612 -0.2365834093467612 0.44583732532810788 0
0.029045046381784047 -0.029045046381784047 0.053666484355587345 0
-0.029045046381784047 0.029045046381784047 0.053666484355587345 0
0.32428425991769755 -0.20558347600751037 0.18349310926068049 0
-0.20558347600751037 0.32428425991769755 0.18349310926068049 0
0.20558347600751037 -0.32428425991769755 0.18349310926068049 0
-0.32428425991769755 0.20558347600751037 0.18349310926068049 0
0.36083608039873616 -0.064333371263382302 0.3545609646084274 0
-0.064333371263382302 0.36083608039873616 0.3545609646084274 0
0.064333371263382302 -0.36083608039873616 0.3545609646084274 0
-0.36083608039873616 0.064333371263382302 0.3545609646084274 0
0.24534580651098173 0.096824325389674337 0.38658981148271881 0
0.096824325389674337 0.24534580651098173 0.38658981148271881 0
-0.096824325389674337 -0.24534580651098173 0.38658981148271881 0
-0.24534580651098173 -0.096824325389674337 0.38658981148271881 0
0 0 0.074706119739154531 0
0.12287856106667723 0.12287856106667723 0.35110359005084246 0
-0.12287856106667723 -0.12287856106667723 0.35110359005084246 0
0.31510639799497248 -0.31510639799497248 0.22920490648827885 0
-0.31510639799497248 0.31510639799497248 0.22920490648827885 0
0.015328621061238274 0.015328621061238274 0.23520819688396044 0
-0.015328621061238274 -0.015328621061238274 0.23520819688396044 0
0 0 0.23776130337060447 0
0.056591222866123232 0.056591222866123232 0.30768449878522575 0
-0.056591222866123232 -0.056591222866123232 0.30768449878522575 0
0.016501015516228047 -0.016501015516228047 0.39051866561787951 0
-0.016501015516228047 0.016501015516228047 0.39051866561787951 0
0 0 0.40149072055506863 0
0 0 0.38106157374649863 0
0 0 0.53441391436330743 0
-0.088382630041883598 0.088382630041883598 0.55075689366318925 0
0.088382630041883598 -0.088382630041883598 0.55075689366318925 0
-0.17785770034719614 0.17785770034719614 0.37071010820011646 0
0.17785770034719614 -0.17785770034719614 0.37071010820011646 0
-0.15895557992026182 0.15895557992026182 0.37570293960775053 0
0.15895557992026182 -0.15895557992026182 0.37570293960775053 0
0 0 0.61382311965471614 0
0 0 0.32953108464137398 0
0 0 0.31901431066889141 0
-0.31872530710897312 0.31872530710897312 0.27805532044276005 0
0.31872530710897312 -0.31872530710897312 0.27805532044276005 0
0 0 0.2947492570634957 0
Hexahedra
46
1 8 14 6 10 15 19 17 0
3 9 14 7 13 16 20 18 0
14 6 17 19 21 23 27 31 0
14 19 15 8 22 32 28 24 0
14 20 16 9 21 33 29 25 0
14 7 18 20 22 26 30 34 0
19 14 21 31 32 22 35 36 0
20 33 21 14 34 37 35 22 0
14 6 23 21 9 2 38 25 0
14 22 24 8 7 26 39 4 0
23 21 25 38 40 35 41 42 0
24 39 26 22 40 42 41 35 0
23 21 35 40 27 31 36 43 0
24 40 35 22 28 43 36 32 0
25 41 35 21 29 44 37 33 0
26 22 35 41 30 34 37 44 0
31 19 32 36 45 47 46 48 0
33 37 34 20 45 48 46 47 0
19 15 28 32 49 50 52 54 0
19 31 27 17 49 55 53 51 0
20 34 30 18 49 54 52 50 0
20 16 29 33 49 51 53 55 0
19 31 55 49 47 45 33 20 0
19 49 54 32 47 20 34 46 0
19 15 50 49 17 10 56 51 0
20 49 50 18 16 51 56 13 0
31 55 33 45 36 57 37 48 0
32 46 34 54 36 48 37 57 0
31 55 57 36 27 53 58 43 0
32 36 57 54 28 43 58 52 0
33 37 57 55 29 44 58 53 0
34 54 57 37 30 52 58 44 0
15 28 52 50 12 59 30 18 0
17 51 53 27 11 16 29 60 0
27 53 58 43 60 29 44 61 0
28 43 58 52 59 61 44 30 0
40 23 27 43 42 38 60 61 0
40 43 28 24 42 61 59 39 0
41 44 29 25 42 61 60 38 0
41 26 30 44 42 39 59 61 0
6 17 27 23 2 11 60 38 0
8 24 28 15 4 39 59 12 0
9 25 29 16 2 38 60 11 0
7 18 30 26 4 12 59 39 0
17 51 16 11 10 56 13 5 0
15 12 18 50 10 5 13 56 0
Quadrilaterals
16
1 6 14 8 0
2 9 14 6 0
2 6 17 11 0
2 11 16 9 0
4 8 14 7 0
4 7 18 12 0
4 12 15 8 0
12 18 13 5 0
12 5 10 15 0
6 1 10 17 0
5 11 17 10 0
13 16 11 5 0
1 8 15 10 0
14 9 3 7 0
7 3 13 18 0
9 16 13 3 0
End
