MeshVersionFormatted 2
Dimension 3
Vertices
63
1 1 0 0
1 -1 0 0
-1 -1 0 0
-1 1 0 0
0 -0 1.4142135623730951 0
1 0 0 0
-1 0 0 0
0 1 0 0
0 -1 0 0
0.5 0.5 0.70710678118654757 0
0.5 -0.5 0.70710678118654757 0
-0.5 0.5 0.70710678118654757 0
-0.5 -0.5 0.70710678118654757 0
0 0 0 0
0 0.66666666666666663 0.47140452079103173 0
0 -0.66666666666666663 0.47140452079103173 0
0.66666666666666663 0 0.47140452079103173 0
-0.66666666666666663 0 0.47140452079103173 0
0.2463878066957356 0.2463878066957356 0.44335563239976161 0
-0.2463878066957356 -0.2463878066957356 0.44335563239976161 0
0.011728309095939913 -0.011728309095939913 0.054520632754033529 0
-0.011728309095939913 0.011728309095939913 0.054520632754033529 0
0.41606085049979019 -0.26182363353201177 0.25635166282882788 0
-0.26182363353201177 0.41606085049979019 0.25635166282882788 0
0.26182363353201177 -0.41606085049979019 0.25635166282882788 0
-0.41606085049979019 0.26182363353201177 0.25635166282882788 0
0.40260326871357499 -0.024379883344580168 0.42570219746067522 0
-0.024379883344580168 0.40260326871357499 0.42570219746067522 0
0.024379883344580168 -0.40260326871357499 0.42570219746067522 0
-0.40260326871357499 0.024379883344580168 0.42570219746067522 0
0.26705892826343985 0.13938545213680148 0.43024514885465287 0
0.13938545213680148 0.26705892826343985 0.43024514885465287 0
-0.13938545213680148 -0.26705892826343985 0.43024514885465287 0
-0.26705892826343985 -0.13938545213680148 0.43024514885465287 0
0 0 0.064831462232748299 0
0.14524104214183622 0.14524104214183622 0.38268844074002073 0
-0.14524104214183622 -0.14524104214183622 0.38268844074002073 0
0.36321939168189621 -0.36321939168189621 0.29390406692011134 0
-0.36321939168189621 0.36321939168189621 0.29390406692011134 0
0.04209338014131557 0.04209338014131557 0.37817926695623216 0
-0.04209338014131557 -0.04209338014131557 0.37817926695623216 0
0 0 0.38861533120205149 0
0.052819769249878738 0.052819769249878738 0.40446868151202259 0
-0.052819769249878738 -0.052819769249878738 0.40446868151202259 0
0.088743975712032158 -0.088743975712032158 0.58954116495608555 0
-0.088743975712032158 0.088743975712032158 0.58954116495608555 0
0 0 0.69546592956804532 0
0 0 0.53887959559810683 0
-0.22511075892407922 0.22511075892407922 0.53977692035240865 0
0.22511075892407922 -0.22511075892407922 0.53977692035240865 0
-0.16431759926520051 -0.16431759926520051 0.67612767043623734 0
0.16431759926520051 0.16431759926520051 0.67612767043623734 0
-0.076482052420636298 -0.29245748778231784 0.71804071901476429 0
-0.29245748778231784 -0.076482052420636298 0.71804071901476429 0
0.29245748778231784 0.076482052420636298 0.71804071901476429 0
0.076482052420636298 0.29245748778231784 0.71804071901476429 0
0.15691289213891751 -0.15691289213891751 0.89720070782915007 0
-0.15691289213891751 0.15691289213891751 0.89720070782915007 0
0 0 0.79499313716821374 0
0.23999008517093509 0.23999008517093509 0.82363563230874992 0
-0.23999008517093509 -0.23999008517093509 0.82363563230874992 0
0 0 0.46573301601236478 0
0 0 1.1272748473350169 0
Hexahedra
46
1 8 14 6 10 15 19 17 0
3 9 14 7 13 16 20 18 0
14 6 17 19 21 23 27 31 0
14 19 15 8 22 32 28 24 0
14 20 16 9 21 33 29 25 0
14 7 18 20 22 26 30 34 0
19 14 21 31 32 22 35 36 0
20 33 21 14 34 37 35 22 0
14 6 23 21 9 2 38 25 0
14 22 24 8 7 26 39 4 0
23 21 25 38 40 35 41 42 0
24 39 26 22 40 42 41 35 0
23 21 35 40 27 31 36 43 0
24 40 35 22 28 43 36 32 0
25 41 35 21 29 44 37 33 0
26 22 35 41 30 34 37 44 0
31 19 32 36 45 47 46 48 0
33 37 34 20 45 48 46 47 0
19 15 28 32 47 12 49 46 0
19 31 27 17 47 45 50 11 0
20 34 30 18 47 46 49 12 0
20 16 29 33 47 11 50 45 0
20 16 11 47 51 53 57 59 0
20 47 12 18 51 59 58 54 0
19 47 11 17 52 59 57 55 0
19 15 12 47 52 56 58 59 0
10 15 19 17 60 56 52 55 0
13 16 20 18 61 53 51 54 0
6 17 27 23 2 11 50 38 0
8 24 28 15 4 39 49 12 0
9 25 29 16 2 38 50 11 0
7 18 30 26 4 12 49 39 0
27 23 38 50 43 40 42 62 0
28 49 39 24 43 62 42 40 0
29 50 38 25 44 62 42 41 0
30 26 39 49 44 41 42 62 0
31 27 50 45 36 43 62 48 0
32 46 49 28 36 48 62 43 0
33 45 50 29 37 48 62 44 0
34 30 49 46 37 44 62 48 0
16 11 57 53 13 5 63 61 0
18 54 58 12 13 61 63 5 0
17 55 57 11 10 60 63 5 0
15 12 58 56 10 5 63 60 0
51 53 57 59 54 61 63 58 0
52 59 57 55 56 58 63 60 0
Quadrilaterals
16
1 6 14 8 0
2 9 14 6 0
2 6 17 11 0
2 11 16 9 0
4 8 14 7 0
4 7 18 12 0
4 12 15 8 0
12 18 13 5 0
12 5 10 15 0
6 1 10 17 0
5 11 17 10 0
13 16 11 5 0
1 8 15 10 0
14 9 3 7 0
7 3 13 18 0
9 16 13 3 0
End
