MeshVersionFormatted 2
Dimension 3
Vertices
61
1 1 0 0
1 -1 0 0
-1 -1 0 0
-1 1 0 0
0 -0 1.4142135623730951 0
1 0 0 0
-1 0 0 0
0 1 0 0
0 -1 0 0
0.5 0.5 0.70710678118654757 0
0.5 -0.5 0.70710678118654757 0
-0.5 0.5 0.70710678118654757 0
-0.5 -0.5 0.70710678118654757 0
0 0 0 0
0 0.66666666666666663 0.47140452079103173 0
0 -0.66666666666666663 0.47140452079103173 0
0.66666666666666663 0 0.47140452079103173 0
-0.66666666666666663 0 0.47140452079103173 0
0.26014348081472627 0.26014348081472627 0.47218561696803096 0
-0.26014348081472627 -0.26014348081472627 0.47218561696803096 0
0.0087962346102696039 -0.0087962346102696039 0.04389738263054762 0
-0.0087962346102696039 0.0087962346102696039 0.04389738263054762 0
0.23743289980593418 -0.17046158534353537 0.24133973035994974 0
-0.17046158534353537 0.23743289980593418 0.24133973035994974 0
0.17046158534353537 -0.23743289980593418 0.24133973035994974 0
-0.23743289980593418 0.17046158534353537 0.24133973035994974 0
0.28684575459606826 -0.095498676254811898 0.35272525667862242 0
-0.095498676254811898 0.28684575459606826 0.35272525667862242 0
0.095498676254811898 -0.28684575459606826 0.35272525667862242 0
-0.28684575459606826 0.095498676254811898 0.35272525667862242 0
0.23706401189424556 0.13944281638427367 0.41911616761347742 0
0.13944281638427367 0.23706401189424556 0.41911616761347742 0
-0.13944281638427367 -0.23706401189424556 0.41911616761347742 0
-0.23706401189424556 -0.13944281638427367 0.41911616761347742 0
0 0 0.058598194628807221 0
0.1595828004340922 0.1595828004340922 0.39443513908030342 0
-0.1595828004340922 -0.1595828004340922 0.39443513908030342 0
0.19406855075707161 -0.19406855075707161 0.24928992086299467 0
-0.19406855075707161 0.19406855075707161 0.24928992086299467 0
0.028310776312952604 0.028310776312952604 0.1904524265047064 0
-0.028310776312952604 -0.028310776312952604 0.1904524265047064 0
0 0 0.21973880610775964 0
0.13182561221879632 0.13182561221879632 0.37933692297262145 0
-0.13182561221879632 -0.13182561221879632 0.37933692297262145 0
0.0099389099206040575 -0.0099389099206040575 0.42433151429409904 0
-0.0099389099206040575 0.0099389099206040575 0.42433151429409904 0
0 0 0.43274332708737961 0
0 0 0.41878403559734639 0
0 0 0.63976262530090577 0
-0.18094398478295881 0.18094398478295881 0.34858782283025797 0
0.18094398478295881 -0.18094398478295881 0.34858782283025797 0
-0.12163658429827273 0.12163658429827273 0.42173411239896258 0
0.12163658429827273 -0.12163658429827273 0.42173411239896258 0
0 0 0.37153343880375755 0
0 0 0.37108980493809524 0
0 0 0.32575704754703461 0
0.05884340885843127 0.05884340885843127 0.32749872632580801 0
-0.05884340885843127 -0.05884340885843127 0.32749872632580801 0
0.037762189098850672 0.037762189098850672 0.29022259873048872 0
-0.037762189098850672 -0.037762189098850672 0.29022259873048872 0
0 0 0.2993737039782795 0
Hexahedra
46
1 8 14 6 10 15 19 17 0
3 9 14 7 13 16 20 18 0
14 6 17 19 21 23 27 31 0
14 19 15 8 22 32 28 24 0
14 20 16 9 21 33 29 25 0
14 7 18 20 22 26 30 34 0
19 14 21 31 32 22 35 36 0
20 33 21 14 34 37 35 22 0
14 6 23 21 9 2 38 25 0
14 22 24 8 7 26 39 4 0
23 21 25 38 40 35 41 42 0
24 39 26 22 40 42 41 35 0
23 21 35 40 27 31 36 43 0
24 40 35 22 28 43 36 32 0
25 41 35 21 29 44 37 33 0
26 22 35 41 30 34 37 44 0
31 19 32 36 45 47 46 48 0
33 37 34 20 45 48 46 47 0
19 15 28 32 49 12 50 52 0
19 31 27 17 49 53 51 11 0
20 34 30 18 49 52 50 12 0
20 16 29 33 49 11 51 53 0
19 31 53 49 47 45 33 20 0
19 49 52 32 47 20 34 46 0
20 16 11 49 18 13 5 12 0
19 49 11 17 15 12 5 10 0
31 53 33 45 36 54 37 48 0
32 46 34 52 36 48 37 54 0
31 53 54 36 27 51 55 43 0
32 36 54 52 28 43 55 50 0
33 37 54 53 29 44 55 51 0
34 52 54 37 30 50 55 44 0
16 29 51 11 9 25 38 2 0
18 12 50 30 7 4 39 26 0
17 11 51 27 6 2 38 23 0
15 28 50 12 8 24 39 4 0
51 27 23 38 56 57 59 61 0
50 39 24 28 56 61 59 57 0
51 38 25 29 56 61 60 58 0
50 30 26 39 56 58 60 61 0
27 51 55 43 57 56 50 28 0
29 44 55 51 58 30 50 56 0
43 27 57 28 40 23 59 24 0
44 30 58 29 41 26 60 25 0
40 23 59 24 42 38 61 39 0
41 26 60 25 42 39 61 38 0
Quadrilaterals
16
1 6 14 8 0
2 9 14 6 0
2 6 17 11 0
2 11 16 9 0
4 8 14 7 0
4 7 18 12 0
4 12 15 8 0
12 18 13 5 0
12 5 10 15 0
6 1 10 17 0
5 11 17 10 0
13 16 11 5 0
1 8 15 10 0
14 9 3 7 0
7 3 13 18 0
9 16 13 3 0
End
