MeshVersionFormatted 2
Dimension 3
Vertices
63
1 1 0 0
1 -1 0 0
-1 -1 0 0
-1 1 0 0
0 -0 1.4142135623730951 0
1 0 0 0
-1 0 0 0
0 1 0 0
0 -1 0 0
0.5 0.5 0.70710678118654757 0
0.5 -0.5 0.70710678118654757 0
-0.5 0.5 0.70710678118654757 0
-0.5 -0.5 0.70710678118654757 0
0 0 0 0
0 0.66666666666666663 0.47140452079103173 0
0 -0.66666666666666663 0.47140452079103173 0
0.66666666666666663 0 0.47140452079103173 0
-0.66666666666666663 0 0.47140452079103173 0
0.24495921497371856 0.24495921497371856 0.44701943238728958 0
-0.24495921497371856 -0.24495921497371856 0.44701943238728958 0
0.12898012945294179 -0.12898012945294179 0.20084203803617792 0
-0.12898012945294179 0.12898012945294179 0.20084203803617792 0
0.36236511832932145 -0.25360400276796424 0.27485294006029265 0
-0.25360400276796424 0.36236511832932145 0.27485294006029265 0
0.25360400276796424 -0.36236511832932145 0.27485294006029265 0
-0.36236511832932145 0.25360400276796424 0.27485294006029265 0
0.36385434289662882 -0.037451549333242039 0.43249615572755967 0
-0.037451549333242039 0.36385434289662882 0.43249615572755967 0
0.037451549333242039 -0.36385434289662882 0.43249615572755967 0
-0.36385434289662882 0.037451549333242039 0.43249615572755967 0
0.25036246726901484 0.083666177876531869 0.44128991206283508 0
0.083666177876531869 0.25036246726901484 0.44128991206283508 0
-0.083666177876531869 -0.25036246726901484 0.44128991206283508 0
-0.25036246726901484 -0.083666177876531869 0.44128991206283508 0
0.084436218760012505 0.084436218760012505 0.31795195528263759 0
-0.084436218760012505 -0.084436218760012505 0.31795195528263759 0
0 0 0.12050147165033227 0
0.057062442104972431 -0.057062442104972431 0.196940538705692 0
-0.057062442104972431 0.057062442104972431 0.196940538705692 0
0.10125798807814861 0.06807664452443693 0.33145577294969858 0
0.06807664452443693 0.10125798807814861 0.33145577294969858 0
-0.06807664452443693 -0.10125798807814861 0.33145577294969858 0
-0.10125798807814861 -0.06807664452443693 0.33145577294969858 0
0.31801705605985864 -0.31801705605985864 0.29648434625281489 0
-0.31801705605985864 0.31801705605985864 0.29648434625281489 0
0 0 0.59656408673081551 0
0.051185404468697848 -0.051185404468697848 0.5643140762767983 0
-0.051185404468697848 0.051185404468697848 0.5643140762767983 0
0.28165227207166632 -0.28165227207166632 0.53623431064546245 0
-0.28165227207166632 0.28165227207166632 0.53623431064546245 0
0.095885778339768135 0.095885778339768135 0.4421177531405025 0
-0.095885778339768135 -0.095885778339768135 0.4421177531405025 0
0 0 0.53437536584790679 0
0.061703616128975292 0.061703616128975292 0.32402775700505454 0
-0.061703616128975292 -0.061703616128975292 0.32402775700505454 0
0 0 0.32310682353194403 0
0.010436903312644838 0.010436903312644838 0.40507460268250772 0
-0.010436903312644838 -0.010436903312644838 0.40507460268250772 0
0.032065768855782058 0.032065768855782058 0.42385001316505116 0
-0.032065768855782058 -0.032065768855782058 0.42385001316505116 0
0 0 0.26607861833701024 0
0 0 0.42551716014532032 0
0 0 0.4309243173254152 0
Hexahedra
46
1 8 14 6 10 15 19 17 0
3 9 14 7 13 16 20 18 0
14 6 17 19 21 23 27 31 0
14 19 15 8 22 32 28 24 0
14 20 16 9 21 33 29 25 0
14 7 18 20 22 26 30 34 0
19 14 21 31 35 37 38 40 0
19 32 22 14 35 41 39 37 0
20 33 21 14 36 42 38 37 0
20 14 22 34 36 37 39 43 0
14 6 23 21 9 2 44 25 0
14 22 24 8 7 26 45 4 0
10 15 19 17 5 12 46 11 0
13 16 20 18 5 11 46 12 0
16 20 46 11 29 33 47 49 0
18 12 46 20 30 50 48 34 0
17 11 46 19 27 49 47 31 0
15 19 46 12 28 32 48 50 0
46 19 31 47 48 32 51 53 0
46 47 33 20 48 53 52 34 0
19 31 51 32 35 40 54 41 0
20 34 52 33 36 43 55 42 0
21 23 27 31 56 57 59 51 0
22 32 28 24 56 51 59 57 0
21 33 29 25 56 52 60 58 0
22 26 30 34 56 58 60 52 0
31 21 56 51 40 38 61 54 0
32 51 56 22 41 54 61 39 0
33 52 56 21 42 55 61 38 0
34 22 56 52 43 39 61 55 0
21 23 57 56 25 44 62 58 0
22 56 57 24 26 58 62 45 0
31 47 53 51 27 49 63 59 0
32 51 53 48 28 59 63 50 0
33 52 53 47 29 60 63 49 0
34 48 53 52 30 50 63 60 0
11 16 29 49 2 9 25 44 0
12 50 30 18 4 45 26 7 0
11 49 27 17 2 44 23 6 0
12 15 28 50 4 8 24 45 0
49 27 23 44 63 59 57 62 0
50 45 24 28 63 62 57 59 0
49 44 25 29 63 62 58 60 0
50 30 26 45 63 60 58 62 0
35 37 38 40 41 39 61 54 0
36 42 38 37 43 55 61 39 0
Quadrilaterals
16
1 6 14 8 0
2 9 14 6 0
2 6 17 11 0
2 11 16 9 0
4 8 14 7 0
4 7 18 12 0
4 12 15 8 0
12 18 13 5 0
12 5 10 15 0
6 1 10 17 0
5 11 17 10 0
13 16 11 5 0
1 8 15 10 0
14 9 3 7 0
7 3 13 18 0
9 16 13 3 0
End
