MeshVersionFormatted 2
Dimension 3
Vertices
61
1 1 0 0
1 -1 0 0
-1 -1 0 0
-1 1 0 0
0 -0 1.4142135623730951 0
1 0 0 0
-1 0 0 0
0 1 0 0
0 -1 0 0
0.5 0.5 0.70710678118654757 0
0.5 -0.5 0.70710678118654757 0
-0.5 0.5 0.70710678118654757 0
-0.5 -0.5 0.70710678118654757 0
0 0 0 0
0 0.66666666666666663 0.47140452079103173 0
0 -0.66666666666666663 0.47140452079103173 0
0.66666666666666663 0 0.47140452079103173 0
-0.66666666666666663 0 0.47140452079103173 0
0.17416514218163767 0.17416514218163767 0.25732224170422929 0
-0.17416514218163767 -0.17416514218163767 0.25732224170422929 0
0.12868011962000075 -0.12868011962000075 0.29538043341265163 0
-0.12868011962000075 0.12868011962000075 0.29538043341265163 0
0.21923458064868523 -0.12008332962936737 0.37955232290023855 0
-0.12008332962936737 0.21923458064868523 0.37955232290023855 0
0.12008332962936737 -0.21923458064868523 0.37955232290023855 0
-0.21923458064868523 0.12008332962936737 0.37955232290023855 0
0.24255594690088561 -0.063358209911078628 0.36932776751032381 0
-0.063358209911078628 0.24255594690088561 0.36932776751032381 0
0.063358209911078628 -0.24255594690088561 0.36932776751032381 0
-0.24255594690088561 0.063358209911078628 0.36932776751032381 0
0.16851789770216641 0.11137476872060836 0.27360064156181585 0
0.11137476872060836 0.16851789770216641 0.27360064156181585 0
-0.11137476872060836 -0.16851789770216641 0.27360064156181585 0
-0.16851789770216641 -0.11137476872060836 0.27360064156181585 0
0 0 0.29832289986487925 0
0.014470731251872898 -0.014470731251872898 0.30171047832903447 0
-0.014470731251872898 0.014470731251872898 0.30171047832903447 0
0.18769773434045756 -0.18769773434045756 0.45980295798229021 0
-0.18769773434045756 0.18769773434045756 0.45980295798229021 0
0 0 0.67890212223975177 0
0.072607220916604265 -0.072607220916604265 0.63492306458432379 0
-0.072607220916604265 0.072607220916604265 0.63492306458432379 0
0.18443699768644864 -0.18443699768644864 0.5841589708090793 0
-0.18443699768644864 0.18443699768644864 0.5841589708090793 0
0.10784893443236343 0.10784893443236343 0.34710777282089383 0
-0.10784893443236343 -0.10784893443236343 0.34710777282089383 0
0 0 0.62958208269284111 0
0 0 0.34023031031770012 0
0 0 0.36722422366137186 0
0.095840181282081785 0.095840181282081785 0.36312746960836478 0
-0.095840181282081785 -0.095840181282081785 0.36312746960836478 0
0.028009269182151599 0.028009269182151599 0.37819301885384204 0
-0.028009269182151599 -0.028009269182151599 0.37819301885384204 0
0 0 0.5948618854947757 0
0 0 0.42107143019149534 0
0 0 0.54653895875496306 0
0.046171340776906135 0.046171340776906135 0.44961673405302172 0
-0.046171340776906135 -0.046171340776906135 0.44961673405302172 0
0.034491150242687174 0.034491150242687174 0.44022621006540863 0
-0.034491150242687174 -0.034491150242687174 0.44022621006540863 0
0 0 0.49512729191696148 0
Hexahedra
46
1 8 14 6 10 15 19 17 0
3 9 14 7 13 16 20 18 0
14 6 17 19 21 23 27 31 0
14 19 15 8 22 32 28 24 0
14 20 16 9 21 33 29 25 0
14 7 18 20 22 26 30 34 0
19 14 21 31 35 20 33 36 0
19 32 22 14 35 37 34 20 0
14 6 23 21 9 2 38 25 0
14 22 24 8 7 26 39 4 0
10 15 19 17 5 12 40 11 0
13 16 20 18 5 11 40 12 0
16 20 40 11 29 33 41 43 0
18 12 40 20 30 44 42 34 0
17 11 40 19 27 43 41 31 0
15 19 40 12 28 32 42 44 0
40 19 31 41 42 32 45 47 0
40 41 33 20 42 47 46 34 0
19 31 45 32 35 36 48 37 0
20 34 46 33 35 37 48 36 0
21 31 36 33 49 45 48 46 0
22 34 37 32 49 46 48 45 0
21 31 45 49 23 27 50 52 0
22 49 45 32 24 52 50 28 0
21 49 46 33 25 53 51 29 0
22 34 46 49 26 30 51 53 0
31 41 47 45 27 43 54 50 0
32 45 47 42 28 50 54 44 0
33 46 47 41 29 51 54 43 0
34 42 47 46 30 44 54 51 0
49 21 23 52 53 25 38 55 0
49 52 24 22 53 55 39 26 0
11 16 29 43 2 9 25 38 0
12 44 30 18 4 39 26 7 0
11 43 27 17 2 38 23 6 0
12 15 28 44 4 8 24 39 0
43 27 23 38 56 57 59 61 0
44 39 24 28 56 61 59 57 0
43 38 25 29 56 61 60 58 0
44 30 26 39 56 58 60 61 0
27 43 54 50 57 56 44 28 0
29 51 54 43 58 30 44 56 0
50 27 57 28 52 23 59 24 0
51 30 58 29 53 26 60 25 0
52 23 59 24 55 38 61 39 0
53 26 60 25 55 39 61 38 0
Quadrilaterals
16
1 6 14 8 0
2 9 14 6 0
2 6 17 11 0
2 11 16 9 0
4 8 14 7 0
4 7 18 12 0
4 12 15 8 0
12 18 13 5 0
12 5 10 15 0
6 1 10 17 0
5 11 17 10 0
13 16 11 5 0
1 8 15 10 0
14 9 3 7 0
7 3 13 18 0
9 16 13 3 0
End
