MeshVersionFormatted 2
Dimension 3
Vertices
61
1 1 0 0
1 -1 0 0
-1 -1 0 0
-1 1 0 0
0 -0 1.4142135623730951 0
1 0 0 0
-1 0 0 0
0 1 0 0
0 -1 0 0
0.5 0.5 0.70710678118654757 0
0.5 -0.5 0.70710678118654757 0
-0.5 0.5 0.70710678118654757 0
-0.5 -0.5 0.70710678118654757 0
0 0 0 0
0 0.66666666666666663 0.47140452079103173 0
0 -0.66666666666666663 0.47140452079103173 0
0.66666666666666663 0 0.47140452079103173 0
-0.66666666666666663 0 0.47140452079103173 0
0.29610790790236441 0.29610790790236441 0.47195797305048803 0
-0.29610790790236441 -0.29610790790236441 0.47195797305048803 0
0.030553701265304406 -0.030553701265304406 0.037819316115792617 0
-0.030553701265304406 0.030553701265304406 0.037819316115792617 0
0.24916528402038526 -0.17413621235485383 0.16553434985140394 0
-0.17413621235485383 0.24916528402038526 0.16553434985140394 0
0.17413621235485383 -0.24916528402038526 0.16553434985140394 0
-0.24916528402038526 0.17413621235485383 0.16553434985140394 0
0.25434792326244177 -0.059977088242790334 0.26257908450405654 0
-0.059977088242790334 0.25434792326244177 0.26257908450405654 0
0.059977088242790334 -0.25434792326244177 0.26257908450405654 0
-0.25434792326244177 0.059977088242790334 0.26257908450405654 0
0.26279006636470975 0.15709006205084483 0.394228182761799 0
0.15709006205084483 0.26279006636470975 0.394228182761799 0
-0.15709006205084483 -0.26279006636470975 0.394228182761799 0
-0.26279006636470975 -0.15709006205084483 0.394228182761799 0
0 0 0.059330413763888194 0
0.20353453985739389 0.20353453985739389 0.38955496848665105 0
-0.20353453985739389 -0.20353453985739389 0.38955496848665105 0
0.24699660070361268 -0.24699660070361268 0.17389558228887764 0
-0.24699660070361268 0.24699660070361268 0.17389558228887764 0
0.037166726404999566 0.037166726404999566 0.14565013000240082 0
-0.037166726404999566 -0.037166726404999566 0.14565013000240082 0
0 0 0.14879192279951428 0
0.10944043524120008 0.10944043524120008 0.26280438147607349 0
-0.10944043524120008 -0.10944043524120008 0.26280438147607349 0
0.039509585329951163 -0.039509585329951163 0.39280453478990518 0
-0.039509585329951163 0.039509585329951163 0.39280453478990518 0
0 0 0.44559706875182209 0
0 0 0.38999057939012427 0
0 0 0.67137424568334136 0
-0.24653288324283121 0.24653288324283121 0.17439717392996884 0
0.24653288324283121 -0.24653288324283121 0.17439717392996884 0
-0.075754785644839215 0.075754785644839215 0.49576677372631345 0
0.075754785644839215 -0.075754785644839215 0.49576677372631345 0
0.046757519781731094 -0.046757519781731094 0.35768050875404678 0
-0.046757519781731094 0.046757519781731094 0.35768050875404678 0
0 0 0.37171742154909998 0
0 0 0.14885200248468666 0
0.052461088148279107 0.052461088148279107 0.27036788828992508 0
-0.052461088148279107 -0.052461088148279107 0.27036788828992508 0
0 0 0.19667831206124076 0
0 0 0.35280053288238117 0
Hexahedra
46
1 8 14 6 10 15 19 17 0
3 9 14 7 13 16 20 18 0
14 6 17 19 21 23 27 31 0
14 19 15 8 22 32 28 24 0
14 20 16 9 21 33 29 25 0
14 7 18 20 22 26 30 34 0
19 14 21 31 32 22 35 36 0
20 33 21 14 34 37 35 22 0
14 6 23 21 9 2 38 25 0
14 22 24 8 7 26 39 4 0
23 21 25 38 40 35 41 42 0
24 39 26 22 40 42 41 35 0
23 21 35 40 27 31 36 43 0
24 40 35 22 28 43 36 32 0
25 41 35 21 29 44 37 33 0
26 22 35 41 30 34 37 44 0
31 19 32 36 45 47 46 48 0
33 37 34 20 45 48 46 47 0
19 15 28 32 49 12 50 52 0
19 31 27 17 49 53 51 11 0
20 34 30 18 49 52 50 12 0
20 16 29 33 49 11 51 53 0
19 31 53 49 47 45 33 20 0
19 49 52 32 47 20 34 46 0
20 16 11 49 18 13 5 12 0
19 49 11 17 15 12 5 10 0
31 53 33 45 27 51 29 54 0
32 46 34 52 28 55 30 50 0
27 31 36 43 54 45 48 56 0
28 43 36 32 55 56 48 46 0
29 44 37 33 54 56 48 45 0
30 34 37 44 55 46 48 56 0
40 23 27 43 42 38 51 57 0
40 43 28 24 42 57 50 39 0
41 44 29 25 42 57 51 38 0
41 26 30 44 42 39 50 57 0
27 43 57 51 58 28 50 60 0
29 51 57 44 59 60 50 30 0
27 51 29 54 58 60 59 61 0
28 55 30 50 58 61 59 60 0
27 43 28 58 54 56 55 61 0
29 59 30 44 54 61 55 56 0
23 27 51 38 6 17 11 2 0
24 39 50 28 8 4 12 15 0
25 38 51 29 9 2 11 16 0
26 30 50 39 7 18 12 4 0
Quadrilaterals
16
1 6 14 8 0
2 9 14 6 0
2 6 17 11 0
2 11 16 9 0
4 8 14 7 0
4 7 18 12 0
4 12 15 8 0
12 18 13 5 0
12 5 10 15 0
6 1 10 17 0
5 11 17 10 0
13 16 11 5 0
1 8 15 10 0
14 9 3 7 0
7 3 13 18 0
9 16 13 3 0
End
