MeshVersionFormatted 2
Dimension 3
Vertices
61
1 1 0 0
1 -1 0 0
-1 -1 0 0
-1 1 0 0
0 -0 1.4142135623730951 0
1 0 0 0
-1 0 0 0
0 1 0 0
0 -1 0 0
0.5 0.5 0.70710678118654757 0
0.5 -0.5 0.70710678118654757 0
-0.5 0.5 0.70710678118654757 0
-0.5 -0.5 0.70710678118654757 0
0 0 0 0
0 0.66666666666666663 0.47140452079103173 0
0 -0.66666666666666663 0.47140452079103173 0
0.66666666666666663 0 0.47140452079103173 0
-0.66666666666666663 0 0.47140452079103173 0
0.27666641140154924 0.27666641140154924 0.47075818613028447 0
-0.27666641140154924 -0.27666641140154924 0.47075818613028447 0
0.0014631299998786071 -0.0014631299998786071 0.014134587024031406 0
-0.0014631299998786071 0.0014631299998786071 0.014134587024031406 0
0.18520797095323011 -0.14547032644179847 0.1776615267521986 0
-0.14547032644179847 0.18520797095323011 0.1776615267521986 0
0.14547032644179847 -0.18520797095323011 0.1776615267521986 0
-0.18520797095323011 0.14547032644179847 0.1776615267521986 0
0.26363847221098552 0.03784700066158516 0.48740297058114612 0
0.03784700066158516 0.26363847221098552 0.48740297058114612 0
-0.03784700066158516 -0.26363847221098552 0.48740297058114612 0
-0.26363847221098552 -0.03784700066158516 0.48740297058114612 0
0.22010773318087101 0.14788217948179411 0.50009173802497042 0
0.14788217948179411 0.22010773318087101 0.50009173802497042 0
-0.14788217948179411 -0.22010773318087101 0.50009173802497042 0
-0.22010773318087101 -0.14788217948179411 0.50009173802497042 0
0 0 0.016325739840806999 0
0.17211698511887841 0.17211698511887841 0.50054988352350882 0
-0.17211698511887841 -0.17211698511887841 0.50054988352350882 0
0.16566188369286233 -0.16566188369286233 0.18018115484060546 0
-0.16566188369286233 0.16566188369286233 0.18018115484060546 0
0.016974309415162148 0.016974309415162148 0.13622994696922944 0
-0.016974309415162148 -0.016974309415162148 0.13622994696922944 0
0 0 0.13910890298706607 0
0.16591849738710326 0.16591849738710326 0.50104363268195673 0
-0.16591849738710326 -0.16591849738710326 0.50104363268195673 0
0.089969933960052761 -0.089969933960052761 0.62605237191782281 0
-0.089969933960052761 0.089969933960052761 0.62605237191782281 0
0 0 0.65208576218701231 0
0 0 0.57612129509828769 0
-0.2530739847235568 0.2530739847235568 0.6172239307578975 0
0.2530739847235568 -0.2530739847235568 0.6172239307578975 0
0 0 0.55453417866664789 0
0 0 0.28942613745173923 0
0.073304032078893619 0.073304032078893619 0.35902327240388443 0
-0.073304032078893619 -0.073304032078893619 0.35902327240388443 0
0.012413577594260669 0.012413577594260669 0.19551506579783742 0
-0.012413577594260669 -0.012413577594260669 0.19551506579783742 0
0 0 0.19680396012264295 0
0 0 0.48092046369237418 0
0.050038036986696892 -0.050038036986696892 0.44818157412011972 0
-0.050038036986696892 0.050038036986696892 0.44818157412011972 0
0 0 0.38577698860137799 0
Hexahedra
46
1 8 14 6 10 15 19 17 0
3 9 14 7 13 16 20 18 0
14 6 17 19 21 23 27 31 0
14 19 15 8 22 32 28 24 0
14 20 16 9 21 33 29 25 0
14 7 18 20 22 26 30 34 0
19 14 21 31 32 22 35 36 0
20 33 21 14 34 37 35 22 0
14 6 23 21 9 2 38 25 0
14 22 24 8 7 26 39 4 0
23 21 25 38 40 35 41 42 0
24 39 26 22 40 42 41 35 0
23 21 35 40 27 31 36 43 0
24 40 35 22 28 43 36 32 0
25 41 35 21 29 44 37 33 0
26 22 35 41 30 34 37 44 0
31 19 32 36 45 47 46 48 0
33 37 34 20 45 48 46 47 0
19 15 28 32 47 12 49 46 0
19 31 27 17 47 45 50 11 0
20 34 30 18 47 46 49 12 0
20 16 29 33 47 11 50 45 0
20 16 11 47 18 13 5 12 0
19 47 11 17 15 12 5 10 0
36 31 45 48 43 27 50 51 0
36 48 46 32 43 51 49 28 0
37 48 45 33 44 51 50 29 0
37 34 46 48 44 30 49 51 0
16 29 50 11 9 25 38 2 0
18 12 49 30 7 4 39 26 0
17 11 50 27 6 2 38 23 0
15 28 49 12 8 24 39 4 0
50 27 23 38 52 53 55 57 0
49 39 24 28 52 57 55 53 0
50 38 25 29 52 57 56 54 0
49 30 26 39 52 54 56 57 0
43 27 50 51 58 59 29 44 0
43 51 49 28 58 44 30 60 0
27 50 29 59 53 52 54 61 0
28 60 30 49 53 61 54 52 0
40 23 27 43 24 55 53 28 0
41 44 29 25 26 30 54 56 0
27 43 28 53 59 58 60 61 0
29 54 30 44 59 61 60 58 0
40 23 55 24 42 38 57 39 0
41 26 56 25 42 39 57 38 0
Quadrilaterals
16
1 6 14 8 0
2 9 14 6 0
2 6 17 11 0
2 11 16 9 0
4 8 14 7 0
4 7 18 12 0
4 12 15 8 0
12 18 13 5 0
12 5 10 15 0
6 1 10 17 0
5 11 17 10 0
13 16 11 5 0
1 8 15 10 0
14 9 3 7 0
7 3 13 18 0
9 16 13 3 0
End
