MeshVersionFormatted 2
Dimension 3
Vertices
63
1 1 0 0
1 -1 0 0
-1 -1 0 0
-1 1 0 0
0 -0 1.4142135623730951 0
1 0 0 0
-1 0 0 0
0 1 0 0
0 -1 0 0
0.5 0.5 0.70710678118654757 0
0.5 -0.5 0.70710678118654757 0
-0.5 0.5 0.70710678118654757 0
-0.5 -0.5 0.70710678118654757 0
0 0 0 0
0 0.66666666666666663 0.47140452079103173 0
0 -0.66666666666666663 0.47140452079103173 0
0.66666666666666663 0 0.47140452079103173 0
-0.66666666666666663 0 0.47140452079103173 0
0.27138487825682361 0.27138487825682361 0.47083483539759247 0
-0.27138487825682361 -0.27138487825682361 0.47083483539759247 0
0.0037539191153181236 -0.0037539191153181236 0.022382509072088819 0
-0.0037539191153181236 0.0037539191153181236 0.022382509072088819 0
0.19610447928486829 -0.15362206796406719 0.16464957070750866 0
-0.15362206796406719 0.19610447928486829 0.16464957070750866 0
0.15362206796406719 -0.19610447928486829 0.16464957070750866 0
-0.19610447928486829 0.15362206796406719 0.16464957070750866 0
0.28104399689012277 -0.041793408206532476 0.3469661977679348 0
-0.041793408206532476 0.28104399689012277 0.3469661977679348 0
0.041793408206532476 -0.28104399689012277 0.3469661977679348 0
-0.28104399689012277 0.041793408206532476 0.3469661977679348 0
0.25470839055041228 0.11866469920158473 0.4101704607768944 0
0.11866469920158473 0.25470839055041228 0.4101704607768944 0
-0.11866469920158473 -0.25470839055041228 0.4101704607768944 0
-0.25470839055041228 -0.11866469920158473 0.4101704607768944 0
0 0 0.030196601075399128 0
0.16885075213594306 0.16885075213594306 0.39050536622354426 0
-0.16885075213594306 -0.16885075213594306 0.39050536622354426 0
0.1786117099554817 -0.1786117099554817 0.1764069585123666 0
-0.1786117099554817 0.1786117099554817 0.1764069585123666 0
0.020888607601667639 0.020888607601667639 0.13180602431024233 0
-0.020888607601667639 -0.020888607601667639 0.13180602431024233 0
0 0 0.15136027299358334 0
0.14768985871089046 0.14768985871089046 0.36951483685828185 0
-0.14768985871089046 -0.14768985871089046 0.36951483685828185 0
0.039683468606572264 -0.039683468606572264 0.40606601460869418 0
-0.039683468606572264 0.039683468606572264 0.40606601460869418 0
0 0 0.43610582418948962 0
0 0 0.40077316746815611 0
0 0 0.64774192340116721 0
-0.23506524934238635 0.23506524934238635 0.32087459426895598 0
0.23506524934238635 -0.23506524934238635 0.32087459426895598 0
-0.076778628107025584 0.076778628107025584 0.51594903308131823 0
0.076778628107025584 -0.076778628107025584 0.51594903308131823 0
0.067076247412749382 -0.067076247412749382 0.38508717662216008 0
-0.067076247412749382 0.067076247412749382 0.38508717662216008 0
0 0 0.38858349110379892 0
0.01684735920690443 0.01684735920690443 0.18752050217445976 0
-0.01684735920690443 -0.01684735920690443 0.18752050217445976 0
0.083719963439051207 0.083719963439051207 0.31153897994562024 0
-0.083719963439051207 -0.083719963439051207 0.31153897994562024 0
0 0 0.34696948596531929 0
0 0 0.28716396612812167 0
0 0 0.19700733551296051 0
Hexahedra
48
1 8 14 6 10 15 19 17 0
3 9 14 7 13 16 20 18 0
14 6 17 19 21 23 27 31 0
14 19 15 8 22 32 28 24 0
14 20 16 9 21 33 29 25 0
14 7 18 20 22 26 30 34 0
19 14 21 31 32 22 35 36 0
20 33 21 14 34 37 35 22 0
14 6 23 21 9 2 38 25 0
14 22 24 8 7 26 39 4 0
23 21 25 38 40 35 41 42 0
24 39 26 22 40 42 41 35 0
23 21 35 40 27 31 36 43 0
24 40 35 22 28 43 36 32 0
25 41 35 21 29 44 37 33 0
26 22 35 41 30 34 37 44 0
31 19 32 36 45 47 46 48 0
33 37 34 20 45 48 46 47 0
19 15 28 32 49 12 50 52 0
19 31 27 17 49 53 51 11 0
20 34 30 18 49 52 50 12 0
20 16 29 33 49 11 51 53 0
19 31 53 49 47 45 33 20 0
19 49 52 32 47 20 34 46 0
20 16 11 49 18 13 5 12 0
19 49 11 17 15 12 5 10 0
31 53 33 45 27 51 29 54 0
32 46 34 52 28 55 30 50 0
27 31 36 43 54 45 48 56 0
28 43 36 32 55 56 48 46 0
29 44 37 33 54 56 48 45 0
30 34 37 44 55 46 48 56 0
40 23 27 43 24 57 59 28 0
41 44 29 25 26 30 60 58 0
27 43 28 59 51 61 50 62 0
29 60 30 44 51 62 50 61 0
27 51 29 54 43 61 44 56 0
28 55 30 50 43 56 44 61 0
16 29 51 11 9 25 38 2 0
18 12 50 30 7 4 39 26 0
17 11 51 27 6 2 38 23 0
15 28 50 12 8 24 39 4 0
51 27 23 38 62 59 57 63 0
50 39 24 28 62 63 57 59 0
51 38 25 29 62 63 58 60 0
50 30 26 39 62 60 58 63 0
40 23 57 24 42 38 63 39 0
41 26 58 25 42 39 63 38 0
Quadrilaterals
16
1 6 14 8 0
2 9 14 6 0
2 6 17 11 0
2 11 16 9 0
4 8 14 7 0
4 7 18 12 0
4 12 15 8 0
12 18 13 5 0
12 5 10 15 0
6 1 10 17 0
5 11 17 10 0
13 16 11 5 0
1 8 15 10 0
14 9 3 7 0
7 3 13 18 0
9 16 13 3 0
End
