MeshVersionFormatted 2
Dimension 3
Vertices
61
1 1 0 0
1 -1 0 0
-1 -1 0 0
-1 1 0 0
0 -0 1.4142135623730951 0
1 0 0 0
-1 0 0 0
0 1 0 0
0 -1 0 0
0.5 0.5 0.70710678118654757 0
0.5 -0.5 0.70710678118654757 0
-0.5 0.5 0.70710678118654757 0
-0.5 -0.5 0.70710678118654757 0
0 0 0 0
0 0.66666666666666663 0.47140452079103173 0
0 -0.66666666666666663 0.47140452079103173 0
0.66666666666666663 0 0.47140452079103173 0
-0.66666666666666663 0 0.47140452079103173 0
0.21854309060804919 0.21854309060804919 0.37750637053737324 0
-0.21854309060804919 -0.21854309060804919 0.37750637053737324 0
0.0041613260326382618 -0.0041613260326382618 0.024431551347250682 0
-0.0041613260326382618 0.0041613260326382618 0.024431551347250682 0
0.33277872756724947 -0.22022652235405418 0.25049096207396671 0
-0.22022652235405418 0.33277872756724947 0.25049096207396671 0
0.22022652235405418 -0.33277872756724947 0.25049096207396671 0
-0.33277872756724947 0.22022652235405418 0.25049096207396671 0
0.5011739256706782 -0.14881909145383987 0.52572003835813463 0
-0.14881909145383987 0.5011739256706782 0.52572003835813463 0
0.14881909145383987 -0.5011739256706782 0.52572003835813463 0
-0.5011739256706782 0.14881909145383987 0.52572003835813463 0
0.25091276997419132 0.11444910182678818 0.39962538828955763 0
0.11444910182678818 0.25091276997419132 0.39962538828955763 0
-0.11444910182678818 -0.25091276997419132 0.39962538828955763 0
-0.25091276997419132 -0.11444910182678818 0.39962538828955763 0
0 0 0.026354601438043239 0
0.15267359668303868 0.15267359668303868 0.3638903932071631 0
-0.15267359668303868 -0.15267359668303868 0.3638903932071631 0
0.39169399911431241 -0.39169399911431241 0.29386293700254235 0
-0.39169399911431241 0.39169399911431241 0.29386293700254235 0
0.026971874636259538 0.026971874636259538 0.32068848372614828 0
-0.026971874636259538 -0.026971874636259538 0.32068848372614828 0
0 0 0.32564283403444327 0
0.040896768731715848 0.040896768731715848 0.33399142324184805 0
-0.040896768731715848 -0.040896768731715848 0.33399142324184805 0
0.064252321524596812 -0.064252321524596812 0.58735641378788461 0
-0.064252321524596812 0.064252321524596812 0.58735641378788461 0
0 0 0.63871260128164831 0
0 0 0.52102983404015413 0
-0.0097899448114272085 0.0097899448114272085 0.64613323490831753 0
0.0097899448114272085 -0.0097899448114272085 0.64613323490831753 0
-0.18177344507267076 0.18177344507267076 0.64366865309022192 0
0.18177344507267076 -0.18177344507267076 0.64366865309022192 0
0 0 0.69893396946015995 0
0 0 0.44219292259650872 0
0.14453350055603836 0.14453350055603836 0.97327470611860023 0
-0.14453350055603836 -0.14453350055603836 0.97327470611860023 0
0 0 0.90733198331185427 0
0 0 0.32594486723899774 0
0.43027107256391706 -0.43027107256391706 0.53290987468795503 0
-0.43027107256391706 0.43027107256391706 0.53290987468795503 0
0 0 1.2113931530920099 0
Hexahedra
48
1 8 14 6 10 15 19 17 0
3 9 14 7 13 16 20 18 0
14 6 17 19 21 23 27 31 0
14 19 15 8 22 32 28 24 0
14 20 16 9 21 33 29 25 0
14 7 18 20 22 26 30 34 0
19 14 21 31 32 22 35 36 0
20 33 21 14 34 37 35 22 0
14 6 23 21 9 2 38 25 0
14 22 24 8 7 26 39 4 0
23 21 25 38 40 35 41 42 0
24 39 26 22 40 42 41 35 0
23 21 35 40 27 31 36 43 0
24 40 35 22 28 43 36 32 0
25 41 35 21 29 44 37 33 0
26 22 35 41 30 34 37 44 0
31 19 32 36 45 47 46 48 0
33 37 34 20 45 48 46 47 0
19 15 28 32 47 49 51 46 0
19 31 27 17 47 45 52 50 0
20 34 30 18 47 46 51 49 0
20 16 29 33 47 50 52 45 0
19 15 49 47 17 10 53 50 0
20 47 49 18 16 50 53 13 0
36 31 45 48 43 27 52 54 0
36 48 46 32 43 54 51 28 0
37 48 45 33 44 54 52 29 0
37 34 46 48 44 30 51 54 0
15 28 51 49 10 55 57 53 0
17 50 52 27 10 53 57 55 0
18 49 51 30 13 53 57 56 0
16 29 52 50 13 56 57 53 0
43 27 52 54 58 59 29 44 0
43 54 51 28 58 44 30 60 0
27 52 29 59 55 57 56 61 0
28 60 30 51 55 61 56 57 0
40 23 27 43 42 38 59 58 0
40 43 28 24 42 58 60 39 0
41 44 29 25 42 58 59 38 0
41 26 30 44 42 39 60 58 0
6 17 27 23 2 11 59 38 0
8 24 28 15 4 39 60 12 0
9 25 29 16 2 38 59 11 0
7 18 30 26 4 12 60 39 0
15 28 55 10 12 60 61 5 0
17 10 55 27 11 5 61 59 0
18 13 56 30 12 5 61 60 0
16 29 56 13 11 59 61 5 0
Quadrilaterals
16
1 6 14 8 0
2 9 14 6 0
2 6 17 11 0
2 11 16 9 0
4 8 14 7 0
4 7 18 12 0
4 12 15 8 0
12 18 13 5 0
12 5 10 15 0
6 1 10 17 0
5 11 17 10 0
13 16 11 5 0
1 8 15 10 0
14 9 3 7 0
7 3 13 18 0
9 16 13 3 0
End
