MeshVersionFormatted 2
Dimension 3
Vertices
63
1 1 0 0
1 -1 0 0
-1 -1 0 0
-1 1 0 0
0 -0 1.4142135623730951 0
1 0 0 0
-1 0 0 0
0 1 0 0
0 -1 0 0
0.5 0.5 0.70710678118654757 0
0.5 -0.5 0.70710678118654757 0
-0.5 0.5 0.70710678118654757 0
-0.5 -0.5 0.70710678118654757 0
0 0 0 0
0 0.66666666666666663 0.47140452079103173 0
0 -0.66666666666666663 0.47140452079103173 0
0.66666666666666663 0 0.47140452079103173 0
-0.66666666666666663 0 0.47140452079103173 0
0.30889085999137156 0.30889085999137156 0.46351534459110261 0
-0.30889085999137156 -0.30889085999137156 0.46351534459110261 0
0.051560453974328277 -0.051560453974328277 0.069398604375241757 0
-0.051560453974328277 0.051560453974328277 0.069398604375241757 0
0.28919105578687904 -0.070811280531832055 0.10163328415001192 0
-0.070811280531832055 0.28919105578687904 0.10163328415001192 0
0.070811280531832055 -0.28919105578687904 0.10163328415001192 0
-0.28919105578687904 0.070811280531832055 0.10163328415001192 0
0.31400297830272561 0.1294839612279953 0.39243549460117355 0
0.1294839612279953 0.31400297830272561 0.39243549460117355 0
-0.1294839612279953 -0.31400297830272561 0.39243549460117355 0
-0.31400297830272561 -0.1294839612279953 0.39243549460117355 0
0.26783183022403856 0.18321913654319361 0.4143553519804335 0
0.18321913654319361 0.26783183022403856 0.4143553519804335 0
-0.18321913654319361 -0.26783183022403856 0.4143553519804335 0
-0.26783183022403856 -0.18321913654319361 0.4143553519804335 0
0 0 0.21834663169276153 0
0.14151417863443849 0.14151417863443849 0.40108187880103141 0
-0.14151417863443849 -0.14151417863443849 0.40108187880103141 0
0.26306141179575121 -0.26306141179575121 0.15859395755618569 0
-0.26306141179575121 0.26306141179575121 0.15859395755618569 0
0.019722699496951206 0.019722699496951206 0.37189127474988443 0
-0.019722699496951206 -0.019722699496951206 0.37189127474988443 0
0 0 0.38696843010938509 0
0.086180271543128323 0.086180271543128323 0.3947328871815331 0
-0.086180271543128323 -0.086180271543128323 0.3947328871815331 0
0.067028545042296911 -0.067028545042296925 0.62079382747470224 0
-0.067028545042296925 0.067028545042296911 0.62079382747470224 0
0 0 0.6754795811081804 0
0 0 0.54952191131120798 0
-0.16775200063020734 0.16775200063020734 0.59903323621899163 0
0.16775200063020734 -0.16775200063020734 0.59903323621899163 0
0 0 0.47831094823600073 0
0.12895415888523604 -0.42641649808183085 0.42655203341802633 0
-0.42641649808183085 0.12895415888523604 0.42655203341802633 0
0.42641649808183085 -0.12895415888523604 0.42655203341802633 0
-0.12895415888523604 0.42641649808183085 0.42655203341802633 0
0.32305528881974288 -0.32305528881974288 0.50715028711224108 0
-0.32305528881974288 0.32305528881974288 0.50715028711224108 0
0.46208036812638675 -0.16099056188459915 0.29610147806376186 0
-0.16099056188459915 0.46208036812638675 0.29610147806376186 0
0.16099056188459915 -0.46208036812638675 0.29610147806376186 0
-0.46208036812638675 0.16099056188459915 0.29610147806376186 0
0.36366652569109142 -0.36366652569109142 0.34665449511160729 0
-0.36366652569109142 0.36366652569109142 0.34665449511160729 0
Hexahedra
48
1 8 14 6 10 15 19 17 0
3 9 14 7 13 16 20 18 0
14 6 17 19 21 23 27 31 0
14 19 15 8 22 32 28 24 0
14 20 16 9 21 33 29 25 0
14 7 18 20 22 26 30 34 0
19 14 21 31 32 22 35 36 0
20 33 21 14 34 37 35 22 0
14 6 23 21 9 2 38 25 0
14 22 24 8 7 26 39 4 0
23 21 25 38 40 35 41 42 0
24 39 26 22 40 42 41 35 0
23 21 35 40 27 31 36 43 0
24 40 35 22 28 43 36 32 0
25 41 35 21 29 44 37 33 0
26 22 35 41 30 34 37 44 0
31 19 32 36 45 47 46 48 0
33 37 34 20 45 48 46 47 0
19 15 28 32 47 12 49 46 0
19 31 27 17 47 45 50 11 0
20 34 30 18 47 46 49 12 0
20 16 29 33 47 11 50 45 0
20 16 11 47 18 13 5 12 0
19 47 11 17 15 12 5 10 0
36 31 45 48 43 27 50 51 0
36 48 46 32 43 51 49 28 0
37 48 45 33 44 51 50 29 0
37 34 46 48 44 30 49 51 0
16 29 50 11 52 44 51 56 0
18 12 49 30 53 57 51 44 0
17 11 50 27 54 56 51 43 0
15 28 49 12 55 43 51 57 0
40 23 27 43 58 6 17 54 0
40 43 28 24 59 55 15 8 0
41 44 29 25 60 52 16 9 0
41 26 30 44 61 7 18 53 0
54 56 51 43 58 62 42 40 0
55 43 51 57 59 40 42 63 0
52 44 51 56 60 41 42 62 0
53 57 51 44 61 63 42 41 0
38 23 40 42 2 6 58 62 0
39 42 40 24 4 63 59 8 0
38 42 41 25 2 62 60 9 0
39 26 41 42 4 7 61 63 0
2 11 17 6 62 56 54 58 0
4 8 15 12 63 59 55 57 0
2 9 16 11 62 60 52 56 0
4 12 18 7 63 57 53 61 0
Quadrilaterals
16
1 6 14 8 0
2 9 14 6 0
2 6 17 11 0
2 11 16 9 0
4 8 14 7 0
4 7 18 12 0
4 12 15 8 0
12 18 13 5 0
12 5 10 15 0
6 1 10 17 0
5 11 17 10 0
13 16 11 5 0
1 8 15 10 0
14 9 3 7 0
7 3 13 18 0
9 16 13 3 0
End
