MeshVersionFormatted 2
Dimension 3
Vertices
61
1 1 0 0
1 -1 0 0
-1 -1 0 0
-1 1 0 0
0 -0 1.4142135623730951 0
1 0 0 0
-1 0 0 0
0 1 0 0
0 -1 0 0
0.5 0.5 0.70710678118654757 0
0.5 -0.5 0.70710678118654757 0
-0.5 0.5 0.70710678118654757 0
-0.5 -0.5 0.70710678118654757 0
0 0 0 0
0 0.66666666666666663 0.47140452079103173 0
0 -0.66666666666666663 0.47140452079103173 0
0.66666666666666663 0 0.47140452079103173 0
-0.66666666666666663 0 0.47140452079103173 0
0.04240117933731008 0.04240117933731008 0.073867566720390104 0
-0.04240117933731008 -0.04240117933731008 0.073867566720390104 0
0.28430778050765287 -0.28430778050765287 0.73356940762070333 0
-0.28430778050765287 0.28430778050765287 0.73356940762070333 0
0.28844011851701745 -0.28436107498835711 0.73240499648900115 0
-0.28436107498835711 0.28844011851701745 0.73240499648900115 0
0.28436107498835711 -0.28844011851701745 0.73240499648900115 0
-0.28844011851701745 0.28436107498835711 0.73240499648900115 0
0.50507746114691843 -0.084832113017394725 0.61718044259530291 0
-0.084832113017394725 0.50507746114691843 0.61718044259530291 0
0.084832113017394725 -0.50507746114691843 0.61718044259530291 0
-0.50507746114691843 0.084832113017394725 0.61718044259530291 0
0.25398572863676672 -0.090843819753613622 0.52581561232458252 0
-0.090843819753613622 0.25398572863676672 0.52581561232458252 0
0.090843819753613622 -0.25398572863676672 0.52581561232458252 0
-0.25398572863676672 0.090843819753613622 0.52581561232458252 0
0 0 0.36815733117128979 0
0.047403256949018639 -0.047403256949018639 0.42248966240687852 0
-0.047403256949018639 0.047403256949018639 0.42248966240687852 0
0.2918381654389568 -0.2918381654389568 0.72887912920091324 0
-0.2918381654389568 0.2918381654389568 0.72887912920091324 0
0 0 0.39921555765060385 0
-0.0052273237303584342 0.0052273237303584342 0.39264358283896289 0
0.0052273237303584342 -0.0052273237303584342 0.39264358283896289 0
-0.006549341405406129 0.006549341405406129 0.39435698860018042 0
0.006549341405406129 -0.006549341405406129 0.39435698860018042 0
0 0 0.69009509761300936 0
0.05916982126307354 0.05916982126307354 0.55092517877483083 0
-0.05916982126307354 -0.05916982126307354 0.55092517877483083 0
0 0 0.51053921474892106 0
0 0 0.98139318234193873 0
0.065790665087169672 0.065790665087169672 1.0112833709632891 0
-0.065790665087169672 -0.065790665087169672 1.0112833709632891 0
0.33052545610574463 0.33052545610574463 0.71744987897727164 0
-0.33052545610574463 -0.33052545610574463 0.71744987897727164 0
0.16343372093355138 0.16343372093355138 0.59583665394685492 0
-0.16343372093355138 -0.16343372093355138 0.59583665394685492 0
0 0 1.1098789192941116 0
0 0 0.40866695106576884 0
0 0 0.3992975471156186 0
-0.34380477828135375 0.34380477828135375 0.8404285639483331 0
0.34380477828135375 -0.34380477828135375 0.8404285639483331 0
0 0 1.2385921093987131 0
Hexahedra
48
1 8 14 6 10 15 19 17 0
3 9 14 7 13 16 20 18 0
14 6 17 19 21 23 27 31 0
14 19 15 8 22 32 28 24 0
14 20 16 9 21 33 29 25 0
14 7 18 20 22 26 30 34 0
19 14 21 31 35 20 33 36 0
19 32 22 14 35 37 34 20 0
14 6 23 21 9 2 38 25 0
14 22 24 8 7 26 39 4 0
10 15 19 17 40 41 35 42 0
13 16 20 18 40 42 35 41 0
15 19 35 41 28 32 37 43 0
17 42 35 19 27 44 36 31 0
18 41 35 20 30 43 37 34 0
16 20 35 42 29 33 36 44 0
21 31 36 33 45 46 48 47 0
22 34 37 32 45 47 48 46 0
21 23 27 31 49 50 52 54 0
22 32 28 24 49 54 52 50 0
21 33 29 25 49 55 53 51 0
22 26 30 34 49 51 53 55 0
31 21 49 54 46 45 22 32 0
33 55 49 21 47 34 22 45 0
21 23 50 49 25 38 56 51 0
22 49 50 24 26 51 56 39 0
54 31 46 32 57 36 48 37 0
55 34 47 33 57 37 48 36 0
54 31 36 57 52 27 44 58 0
54 57 37 32 52 58 43 28 0
55 57 36 33 53 58 44 29 0
55 34 37 57 53 30 43 58 0
41 15 28 43 40 10 52 58 0
42 44 27 17 40 58 52 10 0
41 43 30 18 40 58 53 13 0
42 16 29 44 40 13 53 58 0
15 28 52 10 12 59 61 5 0
17 10 52 27 11 5 61 60 0
18 13 53 30 12 5 61 59 0
16 29 53 13 11 60 61 5 0
23 27 52 50 38 60 61 56 0
24 50 52 28 39 56 61 59 0
25 51 53 29 38 56 61 60 0
26 30 53 51 39 59 61 56 0
6 17 27 23 2 11 60 38 0
8 24 28 15 4 39 59 12 0
9 25 29 16 2 38 60 11 0
7 18 30 26 4 12 59 39 0
Quadrilaterals
16
1 6 14 8 0
2 9 14 6 0
2 6 17 11 0
2 11 16 9 0
4 8 14 7 0
4 7 18 12 0
4 12 15 8 0
12 18 13 5 0
12 5 10 15 0
6 1 10 17 0
5 11 17 10 0
13 16 11 5 0
1 8 15 10 0
14 9 3 7 0
7 3 13 18 0
9 16 13 3 0
End
