MeshVersionFormatted 2
Dimension 3
Vertices
63
1 1 0 0
1 -1 0 0
-1 -1 0 0
-1 1 0 0
0 -0 1.4142135623730951 0
1 0 0 0
-1 0 0 0
0 1 0 0
0 -1 0 0
0.5 0.5 0.70710678118654757 0
0.5 -0.5 0.70710678118654757 0
-0.5 0.5 0.70710678118654757 0
-0.5 -0.5 0.70710678118654757 0
0 0 0 0
0 0.66666666666666663 0.47140452079103173 0
0 -0.66666666666666663 0.47140452079103173 0
0.66666666666666663 0 0.47140452079103173 0
-0.66666666666666663 0 0.47140452079103173 0
0.29091220579390725 0.29091220579390725 0.45896919190351465 0
-0.29091220579390725 -0.29091220579390725 0.45896919190351465 0
0.01183619503883647 -0.01183619503883647 0.028448228832677853 0
-0.01183619503883647 0.01183619503883647 0.028448228832677853 0
0.22631070245056356 -0.15131744011898052 0.19089369353060659 0
-0.15131744011898052 0.22631070245056356 0.19089369353060659 0
0.15131744011898052 -0.22631070245056356 0.19089369353060659 0
-0.22631070245056356 0.15131744011898052 0.19089369353060659 0
0.31315063050428216 -0.06627162525107233 0.33363275395311759 0
-0.06627162525107233 0.31315063050428216 0.33363275395311759 0
0.06627162525107233 -0.31315063050428216 0.33363275395311759 0
-0.31315063050428216 0.06627162525107233 0.33363275395311759 0
0.2668126739998084 0.1516291766755106 0.39860180994358763 0
0.1516291766755106 0.2668126739998084 0.39860180994358763 0
-0.1516291766755106 -0.2668126739998084 0.39860180994358763 0
-0.2668126739998084 -0.1516291766755106 0.39860180994358763 0
0 0 0.045121940210686821 0
0.1673506805977531 0.1673506805977531 0.355542657970911 0
-0.1673506805977531 -0.1673506805977531 0.355542657970911 0
0.25851848069048028 -0.25851848069048028 0.222051965868971 0
-0.25851848069048028 0.25851848069048028 0.222051965868971 0
0.036541375831916044 0.036541375831916044 0.15786383597047512 0
-0.036541375831916044 -0.036541375831916044 0.15786383597047512 0
0 0 0.17817961761285453 0
0.15450094530341776 0.15450094530341776 0.3525055270269844 0
-0.15450094530341776 -0.15450094530341776 0.3525055270269844 0
0.043287202837104841 -0.043287202837104841 0.39552080410134266 0
-0.043287202837104841 0.043287202837104841 0.39552080410134266 0
0 0 0.42705842882682044 0
0 0 0.38255274927246086 0
-0.16253272515276965 0.16253272515276965 0.42600634902461315 0
0.16253272515276965 -0.16253272515276965 0.42600634902461315 0
-0.1557389998330509 0.1557389998330509 0.34452663989192012 0
0.1557389998330509 -0.1557389998330509 0.34452663989192012 0
0 0 0.64730125112261094 0
0.269129786781381 -0.269129786781381 0.25508158588874463 0
-0.269129786781381 0.269129786781381 0.25508158588874463 0
0.065313521215337234 0.065313521215337234 0.31040130279087941 0
-0.065313521215337234 -0.065313521215337234 0.31040130279087941 0
0.045903403667672343 0.045903403667672343 0.26509648250221896 0
-0.045903403667672343 -0.045903403667672343 0.26509648250221896 0
0 0 0.30220698065656099 0
0 0 0.3024289681004908 0
0 0 0.31919843010973353 0
0 0 0.36228330072910236 0
Hexahedra
48
1 8 14 6 10 15 19 17 0
3 9 14 7 13 16 20 18 0
14 6 17 19 21 23 27 31 0
14 19 15 8 22 32 28 24 0
14 20 16 9 21 33 29 25 0
14 7 18 20 22 26 30 34 0
19 14 21 31 32 22 35 36 0
20 33 21 14 34 37 35 22 0
14 6 23 21 9 2 38 25 0
14 22 24 8 7 26 39 4 0
23 21 25 38 40 35 41 42 0
24 39 26 22 40 42 41 35 0
23 21 35 40 27 31 36 43 0
24 40 35 22 28 43 36 32 0
25 41 35 21 29 44 37 33 0
26 22 35 41 30 34 37 44 0
31 19 32 36 45 47 46 48 0
33 37 34 20 45 48 46 47 0
19 15 28 32 47 49 51 46 0
19 31 27 17 47 45 52 50 0
20 34 30 18 47 46 51 49 0
20 16 29 33 47 50 52 45 0
19 15 49 47 53 12 18 20 0
19 47 50 17 53 20 16 11 0
10 15 19 17 5 12 53 11 0
13 16 20 18 5 11 53 12 0
50 17 11 16 52 27 54 29 0
49 18 12 15 51 30 55 28 0
6 17 27 23 2 11 54 38 0
8 24 28 15 4 39 55 12 0
9 25 29 16 2 38 54 11 0
7 18 30 26 4 12 55 39 0
27 23 38 54 56 58 60 61 0
28 55 39 24 56 61 60 58 0
29 54 38 25 57 61 60 59 0
30 26 39 55 57 59 60 61 0
52 27 54 29 62 56 61 57 0
51 30 55 28 62 57 61 56 0
31 27 52 45 36 43 63 48 0
32 46 51 28 36 48 63 43 0
33 45 52 29 37 48 63 44 0
34 30 51 46 37 44 63 48 0
40 23 27 43 24 58 56 28 0
41 44 29 25 26 30 57 59 0
27 43 28 56 52 63 51 62 0
29 57 30 44 52 62 51 63 0
40 23 58 24 42 38 60 39 0
41 26 59 25 42 39 60 38 0
Quadrilaterals
16
1 6 14 8 0
2 9 14 6 0
2 6 17 11 0
2 11 16 9 0
4 8 14 7 0
4 7 18 12 0
4 12 15 8 0
12 18 13 5 0
12 5 10 15 0
6 1 10 17 0
5 11 17 10 0
13 16 11 5 0
1 8 15 10 0
14 9 3 7 0
7 3 13 18 0
9 16 13 3 0
End
