MeshVersionFormatted 2
Dimension 3
Vertices
63
1 1 0 0
1 -1 0 0
-1 -1 0 0
-1 1 0 0
0 -0 1.4142135623730951 0
1 0 0 0
-1 0 0 0
0 1 0 0
0 -1 0 0
0.5 0.5 0.70710678118654757 0
0.5 -0.5 0.70710678118654757 0
-0.5 0.5 0.70710678118654757 0
-0.5 -0.5 0.70710678118654757 0
0 0 0 0
0 0.66666666666666663 0.47140452079103173 0
0 -0.66666666666666663 0.47140452079103173 0
0.66666666666666663 0 0.47140452079103173 0
-0.66666666666666663 0 0.47140452079103173 0
0.27169354197917944 0.27169354197917944 0.47934299590853491 0
-0.27169354197917944 -0.27169354197917944 0.47934299590853491 0
0.046016944587933234 -0.046016944587933234 0.095397710725848794 0
-0.046016944587933234 0.046016944587933234 0.095397710725848794 0
0.19849317965157276 -0.12411533693012786 0.23402766953412718 0
-0.12411533693012786 0.19849317965157276 0.23402766953412718 0
0.12411533693012786 -0.19849317965157276 0.23402766953412718 0
-0.19849317965157276 0.12411533693012786 0.23402766953412718 0
0.27706749922506735 -0.049083295153048795 0.37831491750989477 0
-0.049083295153048795 0.27706749922506735 0.37831491750989477 0
0.049083295153048795 -0.27706749922506735 0.37831491750989477 0
-0.27706749922506735 0.049083295153048795 0.37831491750989477 0
0.25497478056165312 0.091922979262369087 0.42492845166451537 0
0.091922979262369087 0.25497478056165312 0.42492845166451537 0
-0.091922979262369087 -0.25497478056165312 0.42492845166451537 0
-0.25497478056165312 -0.091922979262369087 0.42492845166451537 0
0 0 0.10846212603006009 0
0.15689253875973705 0.15689253875973705 0.40605864603231823 0
-0.15689253875973705 -0.15689253875973705 0.40605864603231823 0
0.18563734426348799 -0.18563734426348799 0.26581294250187204 0
-0.18563734426348799 0.18563734426348799 0.26581294250187204 0
0.031607703160490108 0.031607703160490108 0.19464835509361009 0
-0.031607703160490108 -0.031607703160490108 0.19464835509361009 0
0 0 0.21936979992225636 0
0.13252035776979529 0.13252035776979529 0.3900374373917686 0
-0.13252035776979529 -0.13252035776979529 0.3900374373917686 0
0.049418928656774462 -0.049418928656774462 0.4261231130660551 0
-0.049418928656774462 0.049418928656774462 0.4261231130660551 0
0 0 0.45342931809155812 0
0 0 0.42036551711800729 0
0 0 0.65902100446206768 0
-0.23559461491959291 0.23559461491959291 0.38420131153915899 0
0.23559461491959291 -0.23559461491959291 0.38420131153915899 0
-0.091174140272032606 0.091174140272032606 0.53459839828522271 0
0.091174140272032606 -0.091174140272032606 0.53459839828522271 0
0.082208293250692635 -0.082208293250692635 0.39009303775211707 0
-0.082208293250692635 0.082208293250692635 0.39009303775211707 0
0 0 0.40719636264186071 0
0.04355418743015383 0.04355418743015383 0.2906133759011878 0
-0.04355418743015383 -0.04355418743015383 0.2906133759011878 0
0.064580328905007617 0.064580328905007617 0.34317430103290786 0
-0.064580328905007617 -0.064580328905007617 0.34317430103290786 0
0 0 0.36365474509156664 0
0 0 0.3194299245994599 0
0 0 0.28901888488016358 0
Hexahedra
48
1 8 14 6 10 15 19 17 0
3 9 14 7 13 16 20 18 0
14 6 17 19 21 23 27 31 0
14 19 15 8 22 32 28 24 0
14 20 16 9 21 33 29 25 0
14 7 18 20 22 26 30 34 0
19 14 21 31 32 22 35 36 0
20 33 21 14 34 37 35 22 0
14 6 23 21 9 2 38 25 0
14 22 24 8 7 26 39 4 0
23 21 25 38 40 35 41 42 0
24 39 26 22 40 42 41 35 0
23 21 35 40 27 31 36 43 0
24 40 35 22 28 43 36 32 0
25 41 35 21 29 44 37 33 0
26 22 35 41 30 34 37 44 0
31 19 32 36 45 47 46 48 0
33 37 34 20 45 48 46 47 0
19 15 28 32 49 12 50 52 0
19 31 27 17 49 53 51 11 0
20 34 30 18 49 52 50 12 0
20 16 29 33 49 11 51 53 0
19 31 53 49 47 45 33 20 0
19 49 52 32 47 20 34 46 0
20 16 11 49 18 13 5 12 0
19 49 11 17 15 12 5 10 0
31 53 33 45 27 51 29 54 0
32 46 34 52 28 55 30 50 0
27 31 36 43 54 45 48 56 0
28 43 36 32 55 56 48 46 0
29 44 37 33 54 56 48 45 0
30 34 37 44 55 46 48 56 0
40 23 27 43 24 57 59 28 0
41 44 29 25 26 30 60 58 0
27 43 28 59 54 56 55 61 0
29 60 30 44 54 61 55 56 0
27 51 29 54 59 62 60 61 0
28 55 30 50 59 61 60 62 0
6 17 27 23 2 11 51 38 0
8 24 28 15 4 39 50 12 0
9 25 29 16 2 38 51 11 0
7 18 30 26 4 12 50 39 0
27 23 38 51 59 57 63 62 0
28 50 39 24 59 62 63 57 0
29 51 38 25 60 62 63 58 0
30 26 39 50 60 58 63 62 0
40 23 57 24 42 38 63 39 0
41 26 58 25 42 39 63 38 0
Quadrilaterals
16
1 6 14 8 0
2 9 14 6 0
2 6 17 11 0
2 11 16 9 0
4 8 14 7 0
4 7 18 12 0
4 12 15 8 0
12 18 13 5 0
12 5 10 15 0
6 1 10 17 0
5 11 17 10 0
13 16 11 5 0
1 8 15 10 0
14 9 3 7 0
7 3 13 18 0
9 16 13 3 0
End
