MeshVersionFormatted 2
Dimension 3
Vertices
65
1 1 0 0
1 -1 0 0
-1 -1 0 0
-1 1 0 0
0 -0 1.4142135623730951 0
1 0 0 0
-1 0 0 0
0 1 0 0
0 -1 0 0
0.5 0.5 0.70710678118654757 0
0.5 -0.5 0.70710678118654757 0
-0.5 0.5 0.70710678118654757 0
-0.5 -0.5 0.70710678118654757 0
0 0 0 0
0 0.66666666666666663 0.47140452079103173 0
0 -0.66666666666666663 0.47140452079103173 0
0.66666666666666663 0 0.47140452079103173 0
-0.66666666666666663 0 0.47140452079103173 0
-0.23826098116566471 0.35946836682927313 0.58744309215567414 0
0.23826098116566471 0.35946836682927313 0.58744309215567414 0
-0.23826098116566471 -0.35946836682927313 0.58744309215567414 0
0.23826098116566471 -0.35946836682927313 0.58744309215567414 0
0 0.41332617586338305 0.46838464490163756 0
0 -0.41332617586338305 0.46838464490163756 0
0 0.31722779359476994 0.59133801597450075 0
0 -0.31722779359476994 0.59133801597450075 0
0.26927446097992969 0.092171634503769417 0.85349486490400728 0
-0.26927446097992969 0.092171634503769417 0.85349486490400728 0
0.26927446097992969 -0.092171634503769417 0.85349486490400728 0
-0.26927446097992969 -0.092171634503769417 0.85349486490400728 0
0.12865640364055303 0 1.0822493083405615 0
-0.12865640364055303 0 1.0822493083405615 0
0.10853133518197904 0.20440530625925724 0.68080150491642921 0
-0.10853133518197904 0.20440530625925724 0.68080150491642921 0
0.10853133518197904 -0.20440530625925724 0.68080150491642921 0
-0.10853133518197904 -0.20440530625925724 0.68080150491642921 0
0.22258238602170491 0.15904932074620493 0.71802472026567554 0
-0.22258238602170491 0.15904932074620493 0.71802472026567554 0
0.22258238602170491 -0.15904932074620493 0.71802472026567554 0
-0.22258238602170491 -0.15904932074620493 0.71802472026567554 0
0 0.15143256080914327 0.73293591953513615 0
0 -0.15143256080914327 0.73293591953513615 0
0 0 1.0129639764888911 0
0.31268954221041689 0 0.77471709431012592 0
-0.31268954221041689 0 0.77471709431012592 0
0 0.033480204272367496 0.8753480541986236 0
0 -0.033480204272367496 0.8753480541986236 0
0 0 0.84460790066855429 0
0 0.08357848230139639 0.78450452440953866 0
0 -0.08357848230139639 0.78450452440953866 0
0 0 0.61500649202357105 0
0.053683897613927778 0 0.66203423405759676 0
-0.053683897613927778 0 0.66203423405759676 0
0 0 0.69162373830612855 0
-0.26173101233651691 0 0.43117660976791999 0
0.26173101233651691 0 0.43117660976791999 0
0 0 0.46539576040108194 0
-0.17029914504047297 0 0.66640555412180391 0
0.17029914504047297 0 0.66640555412180391 0
-0.24577381439830334 0 0.68669237795365667 0
0.24577381439830334 0 0.68669237795365667 0
0 0 0.27149353385730907 0
0 0 0.74986286146621806 0
0 0 0.78571568636677969 0
0 0 0.10823618137206639 0
Hexahedra
48
12 15 10 5 19 23 20 25 0
13 5 11 16 21 26 22 24 0
10 5 25 20 27 31 33 37 0
12 19 25 5 28 38 34 32 0
11 22 26 5 29 39 35 31 0
13 5 26 21 30 32 36 40 0
5 25 33 31 32 34 41 43 0
5 31 35 26 32 43 42 36 0
10 5 31 27 17 11 29 44 0
12 28 32 5 18 45 30 13 0
31 27 44 29 43 46 48 47 0
32 30 45 28 43 47 48 46 0
31 27 46 43 33 37 49 41 0
32 43 46 28 34 41 49 38 0
31 43 47 29 35 42 50 39 0
32 30 47 43 36 40 50 42 0
25 33 41 34 51 52 54 53 0
26 36 42 35 51 53 54 52 0
19 25 34 38 55 57 58 60 0
20 37 33 25 56 61 59 57 0
21 40 36 26 55 60 58 57 0
22 26 35 39 56 57 59 61 0
33 25 57 59 52 51 26 35 0
34 58 57 25 53 36 26 51 0
19 25 57 55 23 20 56 62 0
21 55 57 26 24 62 56 22 0
59 33 52 35 63 41 54 42 0
58 36 53 34 63 42 54 41 0
59 33 41 63 61 37 49 64 0
58 63 41 34 60 64 49 38 0
59 63 42 35 61 64 50 39 0
58 36 42 63 60 40 50 64 0
38 19 55 60 28 12 18 45 0
37 61 56 20 27 44 17 10 0
40 60 55 21 30 45 18 13 0
39 22 56 61 29 11 17 44 0
37 61 44 27 49 64 48 46 0
38 28 45 60 49 46 48 64 0
39 29 44 61 50 47 48 64 0
40 60 45 30 50 64 48 47 0
56 20 10 17 62 23 15 65 0
55 18 12 19 62 65 15 23 0
56 17 11 22 62 65 16 24 0
55 21 13 18 62 24 16 65 0
10 17 65 15 1 6 14 8 0
12 15 65 18 4 8 14 7 0
11 16 65 17 2 9 14 6 0
13 18 65 16 3 7 14 9 0
Quadrilaterals
16
1 6 14 8 0
2 9 14 6 0
2 6 17 11 0
2 11 16 9 0
4 8 14 7 0
4 7 18 12 0
4 12 15 8 0
12 18 13 5 0
12 5 10 15 0
6 1 10 17 0
5 11 17 10 0
13 16 11 5 0
1 8 15 10 0
14 9 3 7 0
7 3 13 18 0
9 16 13 3 0
End
