MeshVersionFormatted 2
Dimension 3
Vertices
67
1 1 0 0
1 -1 0 0
-1 -1 0 0
-1 1 0 0
0 -0 1.4142135623730951 0
1 0 0 0
-1 0 0 0
0 1 0 0
0 -1 0 0
0.5 0.5 0.70710678118654757 0
0.5 -0.5 0.70710678118654757 0
-0.5 0.5 0.70710678118654757 0
-0.5 -0.5 0.70710678118654757 0
0 0 0 0
0 0.66666666666666663 0.47140452079103173 0
0 -0.66666666666666663 0.47140452079103173 0
0.66666666666666663 0 0.47140452079103173 0
-0.66666666666666663 0 0.47140452079103173 0
0.25548278961891624 0.25548278961891624 0.44463342782839044 0
-0.25548278961891624 -0.25548278961891624 0.44463342782839044 0
0.041992811090603363 -0.041992811090603363 0.073074535317250403 0
-0.041992811090603363 0.041992811090603363 0.073074535317250403 0
0.39631888390453468 -0.2250998371388217 0.21939094498862249 0
-0.2250998371388217 0.39631888390453468 0.21939094498862249 0
0.2250998371388217 -0.39631888390453468 0.21939094498862249 0
-0.39631888390453468 0.2250998371388217 0.21939094498862249 0
0.39195275834065424 -0.034695860800963679 0.37931541073250619 0
-0.034695860800963679 0.39195275834065424 0.37931541073250619 0
0.034695860800963679 -0.39195275834065424 0.37931541073250619 0
-0.39195275834065424 0.034695860800963679 0.37931541073250619 0
0.2830576611328946 0.092669803876364421 0.39875137938041605 0
0.092669803876364421 0.2830576611328946 0.39875137938041605 0
-0.092669803876364421 -0.2830576611328946 0.39875137938041605 0
-0.2830576611328946 -0.092669803876364421 0.39875137938041605 0
0 0 0.11159361514606783 0
0.10852681057621666 0.10852681057621666 0.34444495040001638 0
-0.10852681057621666 -0.10852681057621666 0.34444495040001638 0
0.33578697358764209 -0.33578697358764209 0.2634103177367485 0
-0.33578697358764209 0.33578697358764209 0.2634103177367485 0
0.023490426634138799 0.023490426634138799 0.31034787550686488 0
-0.023490426634138799 -0.023490426634138799 0.31034787550686488 0
0 0 0.3271832042224046 0
0.048095778625456165 0.048095778625456165 0.36666921097849181 0
-0.048095778625456165 -0.048095778625456165 0.36666921097849181 0
0.20196564102972986 0.099080196448912222 0.40507875604610211 0
0.099080196448912222 0.20196564102972986 0.40507875604610211 0
-0.099080196448912222 -0.20196564102972986 0.40507875604610211 0
-0.20196564102972986 -0.099080196448912222 0.40507875604610211 0
0.20933344798163983 0.20933344798163983 0.44551596832773915 0
-0.20933344798163983 -0.20933344798163983 0.44551596832773915 0
0.10445138750335609 0.10445138750335609 0.36784211249223053 0
-0.10445138750335609 -0.10445138750335609 0.36784211249223053 0
0 0 0.59993801113765888 0
-0.23186700100665517 0.23186700100665517 0.50590085361875869 0
0.23186700100665517 -0.23186700100665517 0.50590085361875869 0
-0.12015554840006197 0.12015554840006197 0.52349647887238293 0
0.12015554840006197 -0.12015554840006197 0.52349647887238293 0
0.10260544029289038 -0.07494769058534459 0.51499928897123437 0
-0.07494769058534459 0.10260544029289038 0.51499928897123437 0
0.07494769058534459 -0.10260544029289038 0.51499928897123437 0
-0.10260544029289038 0.07494769058534459 0.51499928897123437 0
0.0018051736060594118 0.0018051736060594118 0.59679056147534393 0
-0.0018051736060594118 -0.0018051736060594118 0.59679056147534393 0
0 0 0.45909713189615797 0
0.030531711870750437 0.030531711870750437 0.44558124778531871 0
-0.030531711870750437 -0.030531711870750437 0.44558124778531871 0
0 0 0.41930670267137343 0
Hexahedra
48
1 8 14 6 10 15 19 17 0
3 9 14 7 13 16 20 18 0
14 6 17 19 21 23 27 31 0
14 19 15 8 22 32 28 24 0
14 20 16 9 21 33 29 25 0
14 7 18 20 22 26 30 34 0
19 14 21 31 32 22 35 36 0
20 33 21 14 34 37 35 22 0
14 6 23 21 9 2 38 25 0
14 22 24 8 7 26 39 4 0
23 21 25 38 40 35 41 42 0
24 39 26 22 40 42 41 35 0
23 21 35 40 27 31 36 43 0
24 40 35 22 28 43 36 32 0
25 41 35 21 29 44 37 33 0
26 22 35 41 30 34 37 44 0
31 19 32 36 45 49 46 51 0
33 37 34 20 47 52 48 50 0
19 15 28 32 53 12 54 56 0
19 31 27 17 53 57 55 11 0
20 34 30 18 53 56 54 12 0
20 16 29 33 53 11 55 57 0
19 31 57 53 49 45 58 62 0
19 53 56 32 49 62 59 46 0
20 53 57 33 50 63 60 47 0
20 34 56 53 50 48 61 63 0
20 16 11 53 18 13 5 12 0
19 53 11 17 15 12 5 10 0
53 56 59 62 57 64 65 58 0
53 63 61 56 57 60 66 64 0
31 27 55 57 36 43 67 64 0
32 56 54 28 36 64 67 43 0
33 57 55 29 37 64 67 44 0
34 30 54 56 37 44 67 64 0
57 31 36 64 58 45 51 65 0
56 64 36 32 59 65 51 46 0
57 64 37 33 60 66 52 47 0
56 34 37 64 61 48 52 66 0
16 29 55 11 9 25 38 2 0
18 12 54 30 7 4 39 26 0
17 11 55 27 6 2 38 23 0
15 28 54 12 8 24 39 4 0
55 27 23 38 67 43 40 42 0
54 39 24 28 67 42 40 43 0
55 38 25 29 67 42 41 44 0
54 30 26 39 67 44 41 42 0
45 49 46 51 58 62 59 65 0
47 52 48 50 60 66 61 63 0
Quadrilaterals
16
1 6 14 8 0
2 9 14 6 0
2 6 17 11 0
2 11 16 9 0
4 8 14 7 0
4 7 18 12 0
4 12 15 8 0
12 18 13 5 0
12 5 10 15 0
6 1 10 17 0
5 11 17 10 0
13 16 11 5 0
1 8 15 10 0
14 9 3 7 0
7 3 13 18 0
9 16 13 3 0
End
