MeshVersionFormatted 2
Dimension 3
Vertices
61
1 1 0 0
1 -1 0 0
-1 -1 0 0
-1 1 0 0
0 -0 1.4142135623730951 0
1 0 0 0
-1 0 0 0
0 1 0 0
0 -1 0 0
0.5 0.5 0.70710678118654757 0
0.5 -0.5 0.70710678118654757 0
-0.5 0.5 0.70710678118654757 0
-0.5 -0.5 0.70710678118654757 0
0 0 0 0
0 0.66666666666666663 0.47140452079103173 0
0 -0.66666666666666663 0.47140452079103173 0
0.66666666666666663 0 0.47140452079103173 0
-0.66666666666666663 0 0.47140452079103173 0
0.024068336234898798 0.024068336234898798 0.051683682507295284 0
-0.024068336234898798 -0.024068336234898798 0.051683682507295284 0
0.27314601893082668 -0.27314601893082668 0.44897464997918268 0
-0.27314601893082668 0.27314601893082668 0.44897464997918268 0
0.42663196804218212 -0.31054465677884496 0.47532617046655939 0
-0.31054465677884496 0.42663196804218212 0.47532617046655939 0
0.31054465677884496 -0.42663196804218212 0.47532617046655939 0
-0.42663196804218212 0.31054465677884496 0.47532617046655939 0
0.47720931467390759 -0.17601787948574713 0.5735528361060005 0
-0.17601787948574713 0.47720931467390759 0.5735528361060005 0
0.17601787948574713 -0.47720931467390759 0.5735528361060005 0
-0.47720931467390759 0.17601787948574713 0.5735528361060005 0
0.29070833786414019 -0.22076150497757088 0.45540688249381467 0
-0.22076150497757088 0.29070833786414019 0.45540688249381467 0
0.22076150497757088 -0.29070833786414019 0.45540688249381467 0
-0.29070833786414019 0.22076150497757088 0.45540688249381467 0
0 0 0.08835943152371048 0
0.16353835140013509 -0.16353835140013509 0.40201328966657468 0
-0.16353835140013509 0.16353835140013509 0.40201328966657468 0
0.39006990921529783 -0.39006990921529783 0.46958450990965883 0
-0.39006990921529783 0.39006990921529783 0.46958450990965883 0
0 0 0.3607018771251253 0
-0.028700178380134955 0.028700178380134955 0.3555919248022652 0
0.028700178380134955 -0.028700178380134955 0.3555919248022652 0
-0.041395383777622537 0.041395383777622537 0.37199198183500587 0
0.041395383777622537 -0.041395383777622537 0.37199198183500587 0
0 0 0.67823541279819399 0
0.04083140479331563 0.04083140479331563 0.63397664616150828 0
-0.04083140479331563 -0.04083140479331563 0.63397664616150828 0
0 0 0.53649844238220679 0
0.028584421469874919 0.028584421469874919 0.69751805277127166 0
-0.028584421469874919 -0.028584421469874919 0.69751805277127166 0
0.059955478796528128 0.059955478796528128 0.65956448020675285 0
-0.059955478796528128 -0.059955478796528128 0.65956448020675285 0
0 0 0.77350885120901935 0
0 0 0.48360006973157033 0
0.30247549253634426 0.30247549253634426 0.6483708806511107 0
-0.30247549253634426 -0.30247549253634426 0.6483708806511107 0
0 0 0.36094402432830358 0
0 0 0.77413610630573282 0
0.32451514269286191 -0.32451514269286191 0.85468469372305 0
-0.32451514269286191 0.32451514269286191 0.85468469372305 0
0 0 1.4058535734014641 0
Hexahedra
48
1 8 14 6 10 15 19 17 0
3 9 14 7 13 16 20 18 0
14 6 17 19 21 23 27 31 0
14 19 15 8 22 32 28 24 0
14 20 16 9 21 33 29 25 0
14 7 18 20 22 26 30 34 0
19 14 21 31 35 20 33 36 0
19 32 22 14 35 37 34 20 0
14 6 23 21 9 2 38 25 0
14 22 24 8 7 26 39 4 0
10 15 19 17 40 41 35 42 0
13 16 20 18 40 42 35 41 0
15 19 35 41 28 32 37 43 0
17 42 35 19 27 44 36 31 0
18 41 35 20 30 43 37 34 0
16 20 35 42 29 33 36 44 0
21 31 36 33 45 46 48 47 0
22 34 37 32 45 47 48 46 0
21 23 27 31 45 49 51 46 0
22 32 28 24 45 46 51 49 0
21 33 29 25 45 47 52 50 0
22 26 30 34 45 50 52 47 0
21 23 49 45 25 38 53 50 0
22 45 49 24 26 50 53 39 0
31 36 48 46 27 44 54 51 0
32 46 48 37 28 51 54 43 0
33 47 48 36 29 52 54 44 0
34 37 48 47 30 43 54 52 0
41 15 28 43 40 10 55 57 0
42 44 27 17 40 57 55 10 0
41 43 30 18 40 57 56 13 0
42 16 29 44 40 13 56 57 0
27 44 54 51 55 57 43 28 0
29 52 54 44 56 30 43 57 0
51 27 55 28 58 59 61 60 0
52 30 56 29 58 60 61 59 0
23 27 51 49 38 59 58 53 0
24 49 51 28 39 53 58 60 0
25 50 52 29 38 53 58 59 0
26 30 52 50 39 60 58 53 0
6 17 27 23 2 11 59 38 0
8 24 28 15 4 39 60 12 0
9 25 29 16 2 38 59 11 0
7 18 30 26 4 12 60 39 0
15 28 55 10 12 60 61 5 0
17 10 55 27 11 5 61 59 0
18 13 56 30 12 5 61 60 0
16 29 56 13 11 59 61 5 0
Quadrilaterals
16
1 6 14 8 0
2 9 14 6 0
2 6 17 11 0
2 11 16 9 0
4 8 14 7 0
4 7 18 12 0
4 12 15 8 0
12 18 13 5 0
12 5 10 15 0
6 1 10 17 0
5 11 17 10 0
13 16 11 5 0
1 8 15 10 0
14 9 3 7 0
7 3 13 18 0
9 16 13 3 0
End
