MeshVersionFormatted 2
Dimension 3
Vertices
61
1 1 0 0
1 -1 0 0
-1 -1 0 0
-1 1 0 0
0 -0 1.4142135623730951 0
1 0 0 0
-1 0 0 0
0 1 0 0
0 -1 0 0
0.5 0.5 0.70710678118654757 0
0.5 -0.5 0.70710678118654757 0
-0.5 0.5 0.70710678118654757 0
-0.5 -0.5 0.70710678118654757 0
0 0 0 0
0 0.66666666666666663 0.47140452079103173 0
0 -0.66666666666666663 0.47140452079103173 0
0.66666666666666663 0 0.47140452079103173 0
-0.66666666666666663 0 0.47140452079103173 0
0.03822305996460023 0.03822305996460023 0.072449488579972673 0
-0.03822305996460023 -0.03822305996460023 0.072449488579972673 0
0.24678379168890766 -0.24678379168890766 0.52424374783154826 0
-0.24678379168890766 0.24678379168890766 0.52424374783154826 0
0.36352867072259748 -0.21013992921189006 0.56357346445138612 0
-0.21013992921189006 0.36352867072259748 0.56357346445138612 0
0.21013992921189006 -0.36352867072259748 0.56357346445138612 0
-0.36352867072259748 0.21013992921189006 0.56357346445138612 0
0.4207484224834207 -0.16648662218010354 0.57069578401824572 0
-0.16648662218010354 0.4207484224834207 0.57069578401824572 0
0.16648662218010354 -0.4207484224834207 0.57069578401824572 0
-0.4207484224834207 0.16648662218010354 0.57069578401824572 0
0.23929660801367345 -0.18321381103126438 0.50550492311033757 0
-0.18321381103126438 0.23929660801367345 0.50550492311033757 0
0.18321381103126438 -0.23929660801367345 0.50550492311033757 0
-0.23929660801367345 0.18321381103126438 0.50550492311033757 0
0 0 0.20415724848044586 0
0.15198859085047503 -0.15198859085047503 0.45571079207846144 0
-0.15198859085047503 0.15198859085047503 0.45571079207846144 0
0.27702830441582205 -0.27702830441582205 0.63669429313099857 0
-0.27702830441582205 0.27702830441582205 0.63669429313099857 0
0 0 0.37361261452498984 0
-0.026336547873349075 0.026336547873349075 0.36990571517484594 0
0.026336547873349075 -0.026336547873349075 0.36990571517484594 0
-0.029271143014127948 0.029271143014127948 0.37728775799585418 0
0.029271143014127948 -0.029271143014127948 0.37728775799585418 0
0 0 0.46446969640883068 0
0.0030763356191996463 0.0030763356191996463 0.46261226535353167 0
-0.0030763356191996463 -0.0030763356191996463 0.46261226535353167 0
0 0 0.45891933777965183 0
0.15650017665650345 0.15650017665650345 0.58484796308623499 0
-0.15650017665650345 -0.15650017665650345 0.58484796308623499 0
0.22390839145288319 0.22390839145288319 0.61069930773567616 0
-0.22390839145288319 -0.22390839145288319 0.61069930773567616 0
0 0 0.58468902776225273 0
0.0099023095879968923 0.0099023095879968923 0.5871046975985067 0
-0.0099023095879968923 -0.0099023095879968923 0.5871046975985067 0
0 0 0.59689901950782331 0
0 0 0.92156800845528908 0
0.3406001178771863 -0.3406001178771863 0.81845932446911984 0
-0.3406001178771863 0.3406001178771863 0.81845932446911984 0
0 0 1.260854763295397 0
0 0 0.38369872791593201 0
Hexahedra
48
1 8 14 6 10 15 19 17 0
3 9 14 7 13 16 20 18 0
14 6 17 19 21 23 27 31 0
14 19 15 8 22 32 28 24 0
14 20 16 9 21 33 29 25 0
14 7 18 20 22 26 30 34 0
19 14 21 31 35 20 33 36 0
19 32 22 14 35 37 34 20 0
14 6 23 21 9 2 38 25 0
14 22 24 8 7 26 39 4 0
10 15 19 17 40 41 35 42 0
13 16 20 18 40 42 35 41 0
15 19 35 41 28 32 37 43 0
17 42 35 19 27 44 36 31 0
18 41 35 20 30 43 37 34 0
16 20 35 42 29 33 36 44 0
21 31 36 33 45 46 48 47 0
22 34 37 32 45 47 48 46 0
21 23 27 31 45 49 51 46 0
22 32 28 24 45 46 51 49 0
21 33 29 25 45 47 52 50 0
22 26 30 34 45 50 52 47 0
21 23 49 45 53 54 24 22 0
21 45 50 25 53 22 26 55 0
23 21 25 38 54 53 55 56 0
24 39 26 22 54 56 55 53 0
23 49 24 54 38 57 39 56 0
25 55 26 50 38 56 39 57 0
6 17 27 23 2 11 58 38 0
8 24 28 15 4 39 59 12 0
9 25 29 16 2 38 58 11 0
7 18 30 26 4 12 59 39 0
27 23 38 58 51 49 57 60 0
28 59 39 24 51 60 57 49 0
29 58 38 25 52 60 57 50 0
30 26 39 59 52 50 57 60 0
27 31 46 51 44 36 48 61 0
28 51 46 32 43 61 48 37 0
29 52 47 33 44 61 48 36 0
30 34 47 52 43 37 48 61 0
51 27 44 61 10 17 42 40 0
51 61 43 28 10 40 41 15 0
52 61 44 29 13 40 42 16 0
52 30 43 61 13 18 41 40 0
28 51 10 15 59 60 5 12 0
27 17 10 51 58 11 5 60 0
30 18 13 52 59 12 5 60 0
29 52 13 16 58 60 5 11 0
Quadrilaterals
16
1 6 14 8 0
2 9 14 6 0
2 6 17 11 0
2 11 16 9 0
4 8 14 7 0
4 7 18 12 0
4 12 15 8 0
12 18 13 5 0
12 5 10 15 0
6 1 10 17 0
5 11 17 10 0
13 16 11 5 0
1 8 15 10 0
14 9 3 7 0
7 3 13 18 0
9 16 13 3 0
End
