MeshVersionFormatted 2
Dimension 3
Vertices
63
1 1 0 0
1 -1 0 0
-1 -1 0 0
-1 1 0 0
0 -0 1.4142135623730951 0
1 0 0 0
-1 0 0 0
0 1 0 0
0 -1 0 0
0.5 0.5 0.70710678118654757 0
0.5 -0.5 0.70710678118654757 0
-0.5 0.5 0.70710678118654757 0
-0.5 -0.5 0.70710678118654757 0
0 0 0 0
0 0.66666666666666663 0.47140452079103173 0
0 -0.66666666666666663 0.47140452079103173 0
0.66666666666666663 0 0.47140452079103173 0
-0.66666666666666663 0 0.47140452079103173 0
0.3030549819939744 0.3030549819939744 0.4421495216360794 0
-0.3030549819939744 -0.3030549819939744 0.4421495216360794 0
0.059405093450876509 -0.059405093450876509 0.090657616367089591 0
-0.059405093450876509 0.059405093450876509 0.090657616367089591 0
0.22098015023379591 -0.11724622037595372 0.23568062847943955 0
-0.11724622037595372 0.22098015023379591 0.23568062847943955 0
0.11724622037595372 -0.22098015023379591 0.23568062847943955 0
-0.22098015023379591 0.11724622037595372 0.23568062847943955 0
0.29090994985674085 -0.043409885315194949 0.36964913453379139 0
-0.043409885315194949 0.29090994985674085 0.36964913453379139 0
0.043409885315194949 -0.29090994985674085 0.36964913453379139 0
-0.29090994985674085 0.043409885315194949 0.36964913453379139 0
0.27119663619178708 0.12073006051554305 0.39227105155658926 0
0.12073006051554305 0.27119663619178708 0.39227105155658926 0
-0.12073006051554305 -0.27119663619178708 0.39227105155658926 0
-0.27119663619178708 -0.12073006051554305 0.39227105155658926 0
0 3.3703774026776627e-34 0.11238005549760556 0
0.17559530662949588 0.17559530662949588 0.38193650742004648 0
-0.17559530662949588 -0.17559530662949588 0.38193650742004648 0
0.22613188099769024 -0.22613188099769027 0.26297354368647297 0
-0.22613188099769027 0.22613188099769024 0.26297354368647297 0
0.034443323533598545 0.034443323533598545 0.19857194891244745 0
-0.034443323533598545 -0.034443323533598545 0.19857194891244745 0
0 0 0.22414112415799609 0
0.14013035966615339 0.14013035966615339 0.37187420688595479 0
-0.14013035966615339 -0.14013035966615339 0.37187420688595479 0
0.055196221671518587 -0.055196221671518587 0.51711192285652219 0
-0.055196221671518587 0.055196221671518587 0.51711192285652219 0
0 4.8148248609680896e-35 0.58881025499063544 0
3.8518598887744717e-34 3.8518598887744717e-34 0.50039609758237724 0
-0.11644578975974033 0.11644578975974033 0.60055477044986194 0
0.11644578975974033 -0.11644578975974033 0.60055477044986194 0
-0.13752124420736456 0.13752124420736456 0.44997877148616283 0
0.13752124420736456 -0.13752124420736456 0.44997877148616283 0
0 0 0.68938335990783084 0
-3.8518598887744717e-34 -1.9259299443872359e-34 0.46452035689851273 0
-0.26645528542567193 0.26645528542567187 0.3574659741155678 0
0.26645528542567187 -0.26645528542567193 0.3574659741155678 0
0.070015078473254444 0.070015078473254444 0.36770386154517576 0
-0.070015078473254444 -0.070015078473254444 0.36770386154517576 0
3.8518598887744717e-34 3.8518598887744717e-34 0.40677027100306923 0
0 0 0.34693392179185945 0
0.049541417317610886 0.049541417317610886 0.30647207788306513 0
-0.049541417317610886 -0.049541417317610886 0.30647207788306513 0
0 3.8518598887744717e-34 0.30272103970268016 0
Hexahedra
48
1 8 14 6 10 15 19 17 0
3 9 14 7 13 16 20 18 0
14 6 17 19 21 23 27 31 0
14 19 15 8 22 32 28 24 0
14 20 16 9 21 33 29 25 0
14 7 18 20 22 26 30 34 0
19 14 21 31 32 22 35 36 0
20 33 21 14 34 37 35 22 0
14 6 23 21 9 2 38 25 0
14 22 24 8 7 26 39 4 0
23 21 25 38 40 35 41 42 0
24 39 26 22 40 42 41 35 0
23 21 35 40 27 31 36 43 0
24 40 35 22 28 43 36 32 0
25 41 35 21 29 44 37 33 0
26 22 35 41 30 34 37 44 0
31 19 32 36 45 47 46 48 0
33 37 34 20 45 48 46 47 0
19 15 28 32 47 49 51 46 0
19 31 27 17 47 45 52 50 0
20 34 30 18 47 46 51 49 0
20 16 29 33 47 50 52 45 0
19 15 49 47 17 10 53 50 0
20 47 49 18 16 50 53 13 0
36 31 45 48 43 27 52 54 0
36 48 46 32 43 54 51 28 0
37 48 45 33 44 54 52 29 0
37 34 46 48 44 30 51 54 0
15 28 51 49 12 55 30 18 0
17 50 52 27 11 16 29 56 0
43 27 52 54 28 57 59 51 0
44 54 52 29 30 51 59 58 0
52 27 56 29 59 57 60 58 0
51 30 55 28 59 58 60 57 0
43 27 57 28 40 23 61 24 0
44 30 58 29 41 26 62 25 0
6 17 27 23 2 11 56 38 0
8 24 28 15 4 39 55 12 0
9 25 29 16 2 38 56 11 0
7 18 30 26 4 12 55 39 0
27 23 38 56 57 61 63 60 0
28 55 39 24 57 60 63 61 0
29 56 38 25 58 60 63 62 0
30 26 39 55 58 62 63 60 0
40 23 61 24 42 38 63 39 0
41 26 62 25 42 39 63 38 0
17 50 16 11 10 53 13 5 0
15 12 18 49 10 5 13 53 0
Quadrilaterals
16
1 6 14 8 0
2 9 14 6 0
2 6 17 11 0
2 11 16 9 0
4 8 14 7 0
4 7 18 12 0
4 12 15 8 0
12 18 13 5 0
12 5 10 15 0
6 1 10 17 0
5 11 17 10 0
13 16 11 5 0
1 8 15 10 0
14 9 3 7 0
7 3 13 18 0
9 16 13 3 0
End
