MeshVersionFormatted 2
Dimension 3
Vertices
65
1 1 0 0
1 -1 0 0
-1 -1 0 0
-1 1 0 0
0 -0 1.4142135623730951 0
1 0 0 0
-1 0 0 0
0 1 0 0
0 -1 0 0
0.5 0.5 0.70710678118654757 0
0.5 -0.5 0.70710678118654757 0
-0.5 0.5 0.70710678118654757 0
-0.5 -0.5 0.70710678118654757 0
0 0 0 0
0 0.66666666666666663 0.47140452079103173 0
0 -0.66666666666666663 0.47140452079103173 0
0.66666666666666663 0 0.47140452079103173 0
-0.66666666666666663 0 0.47140452079103173 0
-0.20125719454395768 0.33883977570513929 0.61614133466800869 0
0.20125719454395768 0.33883977570513929 0.61614133466800869 0
-0.20125719454395768 -0.33883977570513929 0.61614133466800869 0
0.20125719454395768 -0.33883977570513929 0.61614133466800869 0
0 0.33503425300428819 0.43021277026322235 0
0 -0.33503425300428819 0.43021277026322235 0
0 0.24512447562055392 0.75747452127656056 0
0 -0.24512447562055392 0.75747452127656056 0
0.22710324420647959 0.10477742788262218 0.88551155155906913 0
-0.22710324420647959 0.10477742788262218 0.88551155155906913 0
0.22710324420647959 -0.10477742788262218 0.88551155155906913 0
-0.22710324420647959 -0.10477742788262218 0.88551155155906913 0
0.14113966008065978 0 1.0158202172167778 0
-0.14113966008065978 0 1.0158202172167778 0
0.045202937130572801 0.13300674270357382 0.82491601552745697 0
-0.045202937130572801 0.13300674270357382 0.82491601552745697 0
0.045202937130572801 -0.13300674270357382 0.82491601552745697 0
-0.045202937130572801 -0.13300674270357382 0.82491601552745697 0
0.14711781200221655 0.13999815200905691 0.81277609696395792 0
-0.14711781200221655 0.13999815200905691 0.81277609696395792 0
0.14711781200221655 -0.13999815200905691 0.81277609696395792 0
-0.14711781200221655 -0.13999815200905691 0.81277609696395792 0
0 0.075134756599927105 0.84366781950482095 0
0 -0.075134756599927105 0.84366781950482095 0
0 0 0.91344140784408889 0
0.26310353397192482 0 0.80996363255362369 0
-0.26310353397192482 0 0.80996363255362369 0
0 0.0072780451484479496 0.86525498711508231 0
0 -0.0072780451484479496 0.86525498711508231 0
0 0 0.84092151714597096 0
0 0.046253800575891499 0.84762097037771456 0
0 -0.046253800575891499 0.84762097037771456 0
0 0 0.79038068615960355 0
0.030089153228584711 0 0.79413642200026935 0
-0.030089153228584711 0 0.79413642200026935 0
0 0 0.82148387849202398 0
-0.27402680266752305 0 0.61634721065080122 0
0.27402680266752305 0 0.61634721065080122 0
-0.15131549927219107 0 0.76860831790813844 0
0.15131549927219107 0 0.76860831790813844 0
-0.078327595801537128 0 0.55927724852768346 0
0.078327595801537128 0 0.55927724852768346 0
0 0 0.60426114728149893 0
0 0 0.48338813289540455 0
0 0 0.2739707589276193 0
0 0 0.12327188989738533 0
0 0 0.84033888554703007 0
Hexahedra
48
12 15 10 5 19 23 20 25 0
13 5 11 16 21 26 22 24 0
10 5 25 20 27 31 33 37 0
12 19 25 5 28 38 34 32 0
11 22 26 5 29 39 35 31 0
13 5 26 21 30 32 36 40 0
5 25 33 31 32 34 41 43 0
5 31 35 26 32 43 42 36 0
10 5 31 27 17 11 29 44 0
12 28 32 5 18 45 30 13 0
31 27 44 29 43 46 48 47 0
32 30 45 28 43 47 48 46 0
31 27 46 43 33 37 49 41 0
32 43 46 28 34 41 49 38 0
31 43 47 29 35 42 50 39 0
32 30 47 43 36 40 50 42 0
25 33 41 34 51 52 54 53 0
26 36 42 35 51 53 54 52 0
19 25 34 38 55 51 53 57 0
20 37 33 25 56 58 52 51 0
21 40 36 26 55 57 53 51 0
22 26 35 39 56 51 52 58 0
19 25 51 55 59 61 26 21 0
20 56 51 25 60 22 26 61 0
19 23 20 25 59 62 60 61 0
21 26 22 24 59 61 60 62 0
55 19 59 21 63 23 62 24 0
56 22 60 20 63 24 62 23 0
20 10 27 37 56 17 44 58 0
19 38 28 12 55 57 45 18 0
22 39 29 11 56 58 44 17 0
21 13 30 40 55 18 45 57 0
20 10 17 56 23 15 64 63 0
19 55 18 12 23 63 64 15 0
22 56 17 11 24 63 64 16 0
21 13 18 55 24 16 64 63 0
10 17 64 15 1 6 14 8 0
12 15 64 18 4 8 14 7 0
11 16 64 17 2 9 14 6 0
13 18 64 16 3 7 14 9 0
27 37 58 44 46 49 65 48 0
28 45 57 38 46 48 65 49 0
29 44 58 39 47 48 65 50 0
30 40 57 45 47 50 65 48 0
37 33 52 58 49 41 54 65 0
38 57 53 34 49 65 54 41 0
39 58 52 35 50 65 54 42 0
40 36 53 57 50 42 54 65 0
Quadrilaterals
16
1 6 14 8 0
2 9 14 6 0
2 6 17 11 0
2 11 16 9 0
4 8 14 7 0
4 7 18 12 0
4 12 15 8 0
12 18 13 5 0
12 5 10 15 0
6 1 10 17 0
5 11 17 10 0
13 16 11 5 0
1 8 15 10 0
14 9 3 7 0
7 3 13 18 0
9 16 13 3 0
End
