MeshVersionFormatted 2
Dimension 3
Vertices
63
1 1 0 0
1 -1 0 0
-1 -1 0 0
-1 1 0 0
0 -0 1.4142135623730951 0
1 0 0 0
-1 0 0 0
0 1 0 0
0 -1 0 0
0.5 0.5 0.70710678118654757 0
0.5 -0.5 0.70710678118654757 0
-0.5 0.5 0.70710678118654757 0
-0.5 -0.5 0.70710678118654757 0
0 0 0 0
0 0.66666666666666663 0.47140452079103173 0
0 -0.66666666666666663 0.47140452079103173 0
0.66666666666666663 0 0.47140452079103173 0
-0.66666666666666663 0 0.47140452079103173 0
0.30815699995719686 0.30815699995719686 0.46629315418251888 0
-0.30815699995719686 -0.30815699995719686 0.46629315418251888 0
0.050531332074076174 -0.050531332074076174 0.09943887393427657 0
-0.050531332074076174 0.050531332074076174 0.09943887393427657 0
0.19855332626505037 -0.11144655009037419 0.24740454710147292 0
-0.11144655009037419 0.19855332626505037 0.24740454710147292 0
0.11144655009037419 -0.19855332626505037 0.24740454710147292 0
-0.19855332626505037 0.11144655009037419 0.24740454710147292 0
0.27209889038974022 -0.04432504698114819 0.40161402412186326 0
-0.04432504698114819 0.27209889038974022 0.40161402412186326 0
0.04432504698114819 -0.27209889038974022 0.40161402412186326 0
-0.27209889038974022 0.04432504698114819 0.40161402412186326 0
0.25238655558142947 0.1088149760785441 0.45200816667188398 0
0.1088149760785441 0.25238655558142947 0.45200816667188398 0
-0.1088149760785441 -0.25238655558142947 0.45200816667188398 0
-0.25238655558142947 -0.1088149760785441 0.45200816667188398 0
0 0 0.11675062919556814 0
0.16782044191710491 0.16782044191710491 0.45021127483872614 0
-0.16782044191710491 -0.16782044191710491 0.45021127483872614 0
0.18422148208948053 -0.18422148208948053 0.28008990469968298 0
-0.18422148208948053 0.18422148208948053 0.28008990469968298 0
0.032296804547492626 0.032296804547492626 0.20622687127897388 0
-0.032296804547492626 -0.032296804547492626 0.20622687127897388 0
0 0 0.23172741375464659 0
0.12813851427082856 0.12813851427082856 0.41034896263833109 0
-0.12813851427082856 -0.12813851427082856 0.41034896263833109 0
0.076817980362786045 -0.076817980362786045 0.58011773414376766 0
-0.076817980362786045 0.076817980362786045 0.58011773414376766 0
0 0 0.67560730258616786 0
0 0 0.54253670979090063 0
-0.24301310590424496 0.24301310590424494 0.40901516675317284 0
0.24301310590424494 -0.24301310590424496 0.40901516675317284 0
0 0 0.44017807228631128 0
0.066723711358992924 -0.066723711358992924 0.44162149197923384 0
-0.066723711358992924 0.066723711358992924 0.44162149197923384 0
0.087989976983841034 -0.087989976983841034 0.40329297955879628 0
-0.087989976983841034 0.087989976983841034 0.40329297955879628 0
0 0 0.41548349545309315 0
0.043299510204664826 0.043299510204664826 0.304220278104677 0
-0.043299510204664826 -0.043299510204664826 0.304220278104677 0
0.064147472665808281 0.064147472665808281 0.35766137878161497 0
-0.064147472665808281 -0.064147472665808281 0.35766137878161497 0
0 0 0.37664098116632377 0
0 0 0.33562812167441947 0
0 0 0.3027894629250012 0
Hexahedra
48
1 8 14 6 10 15 19 17 0
3 9 14 7 13 16 20 18 0
14 6 17 19 21 23 27 31 0
14 19 15 8 22 32 28 24 0
14 20 16 9 21 33 29 25 0
14 7 18 20 22 26 30 34 0
19 14 21 31 32 22 35 36 0
20 33 21 14 34 37 35 22 0
14 6 23 21 9 2 38 25 0
14 22 24 8 7 26 39 4 0
23 21 25 38 40 35 41 42 0
24 39 26 22 40 42 41 35 0
23 21 35 40 27 31 36 43 0
24 40 35 22 28 43 36 32 0
25 41 35 21 29 44 37 33 0
26 22 35 41 30 34 37 44 0
31 19 32 36 45 47 46 48 0
33 37 34 20 45 48 46 47 0
19 15 28 32 47 12 49 46 0
19 31 27 17 47 45 50 11 0
20 34 30 18 47 46 49 12 0
20 16 29 33 47 11 50 45 0
20 16 11 47 18 13 5 12 0
19 47 11 17 15 12 5 10 0
36 31 45 48 51 52 33 37 0
36 48 46 32 51 37 34 53 0
31 45 33 52 27 50 29 54 0
32 53 34 46 28 55 30 49 0
27 31 36 43 54 52 51 56 0
28 43 36 32 55 56 51 53 0
29 44 37 33 54 56 51 52 0
30 34 37 44 55 53 51 56 0
40 23 27 43 24 57 59 28 0
41 44 29 25 26 30 60 58 0
27 43 28 59 54 56 55 61 0
29 60 30 44 54 61 55 56 0
27 50 29 54 59 62 60 61 0
28 55 30 49 59 61 60 62 0
6 17 27 23 2 11 50 38 0
8 24 28 15 4 39 49 12 0
9 25 29 16 2 38 50 11 0
7 18 30 26 4 12 49 39 0
27 23 38 50 59 57 63 62 0
28 49 39 24 59 62 63 57 0
29 50 38 25 60 62 63 58 0
30 26 39 49 60 58 63 62 0
40 23 57 24 42 38 63 39 0
41 26 58 25 42 39 63 38 0
Quadrilaterals
16
1 6 14 8 0
2 9 14 6 0
2 6 17 11 0
2 11 16 9 0
4 8 14 7 0
4 7 18 12 0
4 12 15 8 0
12 18 13 5 0
12 5 10 15 0
6 1 10 17 0
5 11 17 10 0
13 16 11 5 0
1 8 15 10 0
14 9 3 7 0
7 3 13 18 0
9 16 13 3 0
End
