MeshVersionFormatted 2
Dimension 3
Vertices
63
1 1 0 0
1 -1 0 0
-1 -1 0 0
-1 1 0 0
0 -0 1.4142135623730951 0
1 0 0 0
-1 0 0 0
0 1 0 0
0 -1 0 0
0.5 0.5 0.70710678118654757 0
0.5 -0.5 0.70710678118654757 0
-0.5 0.5 0.70710678118654757 0
-0.5 -0.5 0.70710678118654757 0
0 0 0 0
0 0.66666666666666663 0.47140452079103173 0
0 -0.66666666666666663 0.47140452079103173 0
0.66666666666666663 0 0.47140452079103173 0
-0.66666666666666663 0 0.47140452079103173 0
0.2928494769696296 0.2928494769696296 0.45921941244216702 0
-0.2928494769696296 -0.2928494769696296 0.45921941244216702 0
0.010392690566642524 -0.010392690566642524 0.021696207480093325 0
-0.010392690566642524 0.010392690566642524 0.021696207480093325 0
0.22803761025916472 -0.15049041740570412 0.18098954275611714 0
-0.15049041740570412 0.22803761025916472 0.18098954275611714 0
0.15049041740570412 -0.22803761025916472 0.18098954275611714 0
-0.22803761025916472 0.15049041740570412 0.18098954275611714 0
0.32640164617471368 -0.065587797377340246 0.33480181202728565 0
-0.065587797377340246 0.32640164617471368 0.33480181202728565 0
0.065587797377340246 -0.32640164617471368 0.33480181202728565 0
-0.32640164617471368 0.065587797377340246 0.33480181202728565 0
0.27684046589141598 0.14794475994456102 0.39970662645491412 0
0.14794475994456102 0.27684046589141598 0.39970662645491412 0
-0.14794475994456102 -0.27684046589141598 0.39970662645491412 0
-0.27684046589141598 -0.14794475994456102 0.39970662645491412 0
0 0 0.038713486458770423 0
0.17619955206305712 0.17619955206305712 0.36044585817509939 0
-0.17619955206305712 -0.17619955206305712 0.36044585817509939 0
0.25516208462428164 -0.25516208462428164 0.21329527813561741 0
-0.25516208462428164 0.25516208462428164 0.21329527813561741 0
0.036588359614339622 0.036588359614339622 0.14806854759703025 0
-0.036588359614339622 -0.036588359614339622 0.14806854759703025 0
0 0 0.15289340821692723 0
0.16364904979525602 0.16364904979525602 0.35856278655479557 0
-0.16364904979525602 -0.16364904979525602 0.35856278655479557 0
0.065937418526997069 -0.065937418526997069 0.40571267630885444 0
-0.065937418526997069 0.065937418526997069 0.40571267630885444 0
0 0 0.4282854113154243 0
0 0 0.38235836835899828 0
-0.1786491153423686 0.1786491153423686 0.42943044018047499 0
0.1786491153423686 -0.1786491153423686 0.42943044018047499 0
-0.15894596717191409 0.15894596717191409 0.39491657722522966 0
0.15894596717191409 -0.15894596717191409 0.39491657722522966 0
0 0 0.65182568090719506 0
0.28145845759752158 -0.28145845759752158 0.28859289448102404 0
-0.28145845759752158 0.28145845759752158 0.28859289448102404 0
0.068239186946266808 0.068239186946266808 0.26951955075337392 0
-0.068239186946266808 -0.068239186946266808 0.26951955075337392 0
0.051799046735766255 0.051799046735766255 0.24011655252980491 0
-0.051799046735766255 -0.051799046735766255 0.24011655252980491 0
0 0 0.2596393753922609 0
0 0 0.26018233262782736 0
0 0 0.37600601045728743 0
0 0 0.34143110967388524 0
Hexahedra
48
1 8 14 6 10 15 19 17 0
3 9 14 7 13 16 20 18 0
14 6 17 19 21 23 27 31 0
14 19 15 8 22 32 28 24 0
14 20 16 9 21 33 29 25 0
14 7 18 20 22 26 30 34 0
19 14 21 31 32 22 35 36 0
20 33 21 14 34 37 35 22 0
14 6 23 21 9 2 38 25 0
14 22 24 8 7 26 39 4 0
23 21 25 38 40 35 41 42 0
24 39 26 22 40 42 41 35 0
23 21 35 40 27 31 36 43 0
24 40 35 22 28 43 36 32 0
25 41 35 21 29 44 37 33 0
26 22 35 41 30 34 37 44 0
31 19 32 36 45 47 46 48 0
33 37 34 20 45 48 46 47 0
19 15 28 32 47 49 51 46 0
19 31 27 17 47 45 52 50 0
20 34 30 18 47 46 51 49 0
20 16 29 33 47 50 52 45 0
19 15 49 47 53 12 18 20 0
19 47 50 17 53 20 16 11 0
10 15 19 17 5 12 53 11 0
13 16 20 18 5 11 53 12 0
50 17 11 16 52 27 54 29 0
49 18 12 15 51 30 55 28 0
6 17 27 23 2 11 54 38 0
8 24 28 15 4 39 55 12 0
9 25 29 16 2 38 54 11 0
7 18 30 26 4 12 55 39 0
27 23 38 54 56 58 60 61 0
28 55 39 24 56 61 60 58 0
29 54 38 25 57 61 60 59 0
30 26 39 55 57 59 60 61 0
52 27 54 29 62 43 63 44 0
51 30 55 28 62 44 63 43 0
40 23 27 43 24 58 56 28 0
41 44 29 25 26 30 57 59 0
27 43 28 56 54 63 55 61 0
29 57 30 44 54 61 55 63 0
27 31 36 43 52 45 48 62 0
28 43 36 32 51 62 48 46 0
29 44 37 33 52 62 48 45 0
30 34 37 44 51 46 48 62 0
40 23 58 24 42 38 60 39 0
41 26 59 25 42 39 60 38 0
Quadrilaterals
16
1 6 14 8 0
2 9 14 6 0
2 6 17 11 0
2 11 16 9 0
4 8 14 7 0
4 7 18 12 0
4 12 15 8 0
12 18 13 5 0
12 5 10 15 0
6 1 10 17 0
5 11 17 10 0
13 16 11 5 0
1 8 15 10 0
14 9 3 7 0
7 3 13 18 0
9 16 13 3 0
End
