MeshVersionFormatted 2
Dimension 3
Vertices
63
1 1 0 0
1 -1 0 0
-1 -1 0 0
-1 1 0 0
0 -0 1.4142135623730951 0
1 0 0 0
-1 0 0 0
0 1 0 0
0 -1 0 0
0.5 0.5 0.70710678118654757 0
0.5 -0.5 0.70710678118654757 0
-0.5 0.5 0.70710678118654757 0
-0.5 -0.5 0.70710678118654757 0
0 0 0 0
0 0.66666666666666663 0.47140452079103173 0
0 -0.66666666666666663 0.47140452079103173 0
0.66666666666666663 0 0.47140452079103173 0
-0.66666666666666663 0 0.47140452079103173 0
0.30568342715820657 0.30568342715820657 0.46545514113737996 0
-0.30568342715820657 -0.30568342715820657 0.46545514113737996 0
0.048789617354346122 -0.048789617354346122 0.09605496825390919 0
-0.048789617354346122 0.048789617354346122 0.09605496825390919 0
0.19437250132590028 -0.10986432562866978 0.23893708519279011 0
-0.10986432562866978 0.19437250132590028 0.23893708519279011 0
0.10986432562866978 -0.19437250132590028 0.23893708519279011 0
-0.19437250132590028 0.10986432562866978 0.23893708519279011 0
0.27358678068999642 -0.051362108573013675 0.38610707045589798 0
-0.051362108573013675 0.27358678068999642 0.38610707045589798 0
0.051362108573013675 -0.27358678068999642 0.38610707045589798 0
-0.27358678068999642 0.051362108573013675 0.38610707045589798 0
0.24842398203264004 0.11308410407154325 0.44499707114550308 0
0.11308410407154325 0.24842398203264004 0.44499707114550308 0
-0.11308410407154325 -0.24842398203264004 0.44499707114550308 0
-0.24842398203264004 -0.11308410407154325 0.44499707114550308 0
0 0 0.11109539888016676 0
0.16713299446407431 0.16713299446407431 0.44173204816472511 0
-0.16713299446407431 -0.16713299446407431 0.44173204816472511 0
0.17999625836349115 -0.17999625836349117 0.27199376675023224 0
-0.17999625836349117 0.17999625836349115 0.27199376675023224 0
0.032682614407285093 0.032682614407285093 0.19912514588325803 0
-0.032682614407285093 -0.032682614407285093 0.19912514588325803 0
0 0 0.22633190194524128 0
0.12603534625639759 0.12603534625639759 0.39843610579455796 0
-0.12603534625639759 -0.12603534625639759 0.39843610579455796 0
0.06010655430931864 -0.06010655430931864 0.57054984499186379 0
-0.06010655430931864 0.06010655430931864 0.57054984499186379 0
0 0 0.67148159983875411 0
0 0 0.5337334316165121 0
-0.2058915095635552 0.2058915095635552 0.37054903337587275 0
0.2058915095635552 -0.2058915095635552 0.37054903337587275 0
0 0 0.43037049135755417 0
0.065321241558499374 -0.065321241558499374 0.43315660139797452 0
-0.065321241558499374 0.065321241558499374 0.43315660139797452 0
0.098911661123411834 -0.098911661123411834 0.40452680569400651 0
-0.098911661123411834 0.098911661123411834 0.40452680569400651 0
0 0 0.40714698647867437 0
0.041475384691830833 0.041475384691830833 0.29554447711325194 0
-0.041475384691830833 -0.041475384691830833 0.29554447711325194 0
0.062911081821038287 0.062911081821038287 0.34584079439455795 0
-0.062911081821038287 -0.062911081821038287 0.34584079439455795 0
0 0 0.38408578794531795 0
0 0 0.34080461555069869 0
0 0 0.3025292290816724 0
Hexahedra
48
1 8 14 6 10 15 19 17 0
3 9 14 7 13 16 20 18 0
14 6 17 19 21 23 27 31 0
14 19 15 8 22 32 28 24 0
14 20 16 9 21 33 29 25 0
14 7 18 20 22 26 30 34 0
19 14 21 31 32 22 35 36 0
20 33 21 14 34 37 35 22 0
14 6 23 21 9 2 38 25 0
14 22 24 8 7 26 39 4 0
23 21 25 38 40 35 41 42 0
24 39 26 22 40 42 41 35 0
23 21 35 40 27 31 36 43 0
24 40 35 22 28 43 36 32 0
25 41 35 21 29 44 37 33 0
26 22 35 41 30 34 37 44 0
31 19 32 36 45 47 46 48 0
33 37 34 20 45 48 46 47 0
19 15 28 32 47 12 49 46 0
19 31 27 17 47 45 50 11 0
20 34 30 18 47 46 49 12 0
20 16 29 33 47 11 50 45 0
20 16 11 47 18 13 5 12 0
19 47 11 17 15 12 5 10 0
36 31 45 48 51 52 33 37 0
36 48 46 32 51 37 34 53 0
31 45 33 52 27 50 29 54 0
32 53 34 46 28 55 30 49 0
27 31 36 43 54 52 51 56 0
28 43 36 32 55 56 51 53 0
29 44 37 33 54 56 51 52 0
30 34 37 44 55 53 51 56 0
40 23 27 43 24 57 59 28 0
41 44 29 25 26 30 60 58 0
27 43 28 59 50 61 49 62 0
29 60 30 44 50 62 49 61 0
27 50 29 54 43 61 44 56 0
28 55 30 49 43 56 44 61 0
16 29 50 11 9 25 38 2 0
18 12 49 30 7 4 39 26 0
17 11 50 27 6 2 38 23 0
15 28 49 12 8 24 39 4 0
50 27 23 38 62 59 57 63 0
49 39 24 28 62 63 57 59 0
50 38 25 29 62 63 58 60 0
49 30 26 39 62 60 58 63 0
40 23 57 24 42 38 63 39 0
41 26 58 25 42 39 63 38 0
Quadrilaterals
16
1 6 14 8 0
2 9 14 6 0
2 6 17 11 0
2 11 16 9 0
4 8 14 7 0
4 7 18 12 0
4 12 15 8 0
12 18 13 5 0
12 5 10 15 0
6 1 10 17 0
5 11 17 10 0
13 16 11 5 0
1 8 15 10 0
14 9 3 7 0
7 3 13 18 0
9 16 13 3 0
End
