MeshVersionFormatted 2
Dimension 3
Vertices
63
1 1 0 0
1 -1 0 0
-1 -1 0 0
-1 1 0 0
0 -0 1.4142135623730951 0
1 0 0 0
-1 0 0 0
0 1 0 0
0 -1 0 0
0.5 0.5 0.70710678118654757 0
0.5 -0.5 0.70710678118654757 0
-0.5 0.5 0.70710678118654757 0
-0.5 -0.5 0.70710678118654757 0
0 0 0 0
0 0.66666666666666663 0.47140452079103173 0
0 -0.66666666666666663 0.47140452079103173 0
0.66666666666666663 0 0.47140452079103173 0
-0.66666666666666663 0 0.47140452079103173 0
0.28492961346615492 0.28492961346615492 0.45058833408989252 0
-0.28492961346615492 -0.28492961346615492 0.45058833408989252 0
0.012680016840676689 -0.012680016840676689 0.02911135536342338 0
-0.012680016840676689 0.012680016840676689 0.02911135536342338 0
0.25249298579027363 -0.16704890435954731 0.20784391192769447 0
-0.16704890435954731 0.25249298579027363 0.20784391192769447 0
0.16704890435954731 -0.25249298579027363 0.20784391192769447 0
-0.25249298579027363 0.16704890435954731 0.20784391192769447 0
0.35105796408966478 -0.057558115755512236 0.3751277399377963 0
-0.057558115755512236 0.35105796408966478 0.3751277399377963 0
0.057558115755512236 -0.35105796408966478 0.3751277399377963 0
-0.35105796408966478 0.057558115755512236 0.3751277399377963 0
0.28687941771496411 0.14878103052162053 0.41521197608234572 0
0.14878103052162053 0.28687941771496411 0.41521197608234572 0
-0.14878103052162053 -0.28687941771496411 0.41521197608234572 0
-0.28687941771496411 -0.14878103052162053 0.41521197608234572 0
0 0 0.047673493842406156 0
0.19030733854252632 0.19030733854252632 0.40352943415177955 0
-0.19030733854252632 -0.19030733854252632 0.40352943415177955 0
0.27806447555232927 -0.27806447555232927 0.24509942239167595 0
-0.27806447555232927 0.27806447555232927 0.24509942239167595 0
0.036878467482716129 0.036878467482716129 0.16392678315148615 0
-0.036878467482716129 -0.036878467482716129 0.16392678315148615 0
0 0 0.1689642612172281 0
0.18507453887622524 0.18507453887622524 0.40245809308565961 0
-0.18507453887622524 -0.18507453887622524 0.40245809308565961 0
0.062643606147765069 -0.062643606147765069 0.50955315592713046 0
-0.062643606147765069 0.062643606147765069 0.50955315592713046 0
0 0 0.55669902103248936 0
0 0 0.47924849215915682 0
-0.11015344028694465 0.11015344028694465 0.56917913077954774 0
0.11015344028694465 -0.11015344028694465 0.56917913077954774 0
-0.14277476622113305 0.14277476622113305 0.47317888457681706 0
0.14277476622113305 -0.14277476622113305 0.47317888457681706 0
0 0 0.64717765021211704 0
0 0 0.42945355948591374 0
-0.30382858806174151 0.30382858806174151 0.32307235674081208 0
0.30382858806174151 -0.30382858806174151 0.32307235674081208 0
0 0 0.38169699483330782 0
0.05676426911196239 0.05676426911196239 0.26928609154721694 0
-0.05676426911196239 -0.05676426911196239 0.26928609154721694 0
0.073899408385568729 0.073899408385568729 0.2983986639994789 0
-0.073899408385568729 -0.073899408385568729 0.2983986639994789 0
0 0 0.2903208945295645 0
0 0 0.28955105369493844 0
Hexahedra
48
1 8 14 6 10 15 19 17 0
3 9 14 7 13 16 20 18 0
14 6 17 19 21 23 27 31 0
14 19 15 8 22 32 28 24 0
14 20 16 9 21 33 29 25 0
14 7 18 20 22 26 30 34 0
19 14 21 31 32 22 35 36 0
20 33 21 14 34 37 35 22 0
14 6 23 21 9 2 38 25 0
14 22 24 8 7 26 39 4 0
23 21 25 38 40 35 41 42 0
24 39 26 22 40 42 41 35 0
23 21 35 40 27 31 36 43 0
24 40 35 22 28 43 36 32 0
25 41 35 21 29 44 37 33 0
26 22 35 41 30 34 37 44 0
31 19 32 36 45 47 46 48 0
33 37 34 20 45 48 46 47 0
19 15 28 32 47 49 51 46 0
19 31 27 17 47 45 52 50 0
20 34 30 18 47 46 51 49 0
20 16 29 33 47 50 52 45 0
19 15 49 47 17 10 53 50 0
20 47 49 18 16 50 53 13 0
36 31 45 48 43 27 52 54 0
36 48 46 32 43 54 51 28 0
37 48 45 33 44 54 52 29 0
37 34 46 48 44 30 51 54 0
15 28 51 49 12 55 30 18 0
17 50 52 27 11 16 29 56 0
43 27 52 54 57 56 29 44 0
43 54 51 28 57 44 30 55 0
40 23 27 43 24 58 60 28 0
41 44 29 25 26 30 61 59 0
27 43 28 60 56 57 55 62 0
29 61 30 44 56 62 55 57 0
6 17 27 23 2 11 56 38 0
8 24 28 15 4 39 55 12 0
9 25 29 16 2 38 56 11 0
7 18 30 26 4 12 55 39 0
27 23 38 56 60 58 63 62 0
28 55 39 24 60 62 63 58 0
29 56 38 25 61 62 63 59 0
30 26 39 55 61 59 63 62 0
40 23 58 24 42 38 63 39 0
41 26 59 25 42 39 63 38 0
17 50 16 11 10 53 13 5 0
15 12 18 49 10 5 13 53 0
Quadrilaterals
16
1 6 14 8 0
2 9 14 6 0
2 6 17 11 0
2 11 16 9 0
4 8 14 7 0
4 7 18 12 0
4 12 15 8 0
12 18 13 5 0
12 5 10 15 0
6 1 10 17 0
5 11 17 10 0
13 16 11 5 0
1 8 15 10 0
14 9 3 7 0
7 3 13 18 0
9 16 13 3 0
End
