MeshVersionFormatted 2
Dimension 3
Vertices
65
1 1 0 0
1 -1 0 0
-1 -1 0 0
-1 1 0 0
0 -0 1.4142135623730951 0
1 0 0 0
-1 0 0 0
0 1 0 0
0 -1 0 0
0.5 0.5 0.70710678118654757 0
0.5 -0.5 0.70710678118654757 0
-0.5 0.5 0.70710678118654757 0
-0.5 -0.5 0.70710678118654757 0
0 0 0 0
0 0.66666666666666663 0.47140452079103173 0
0 -0.66666666666666663 0.47140452079103173 0
0.66666666666666663 0 0.47140452079103173 0
-0.66666666666666663 0 0.47140452079103173 0
-0.22565565086342754 0.41101817517537587 0.6699111218624163 0
0.22565565086342754 0.41101817517537587 0.6699111218624163 0
-0.22565565086342754 -0.41101817517537587 0.6699111218624163 0
0.22565565086342754 -0.41101817517537587 0.6699111218624163 0
0 0.46156706497922267 0.53850299613194874 0
0 -0.46156706497922267 0.53850299613194874 0
0 0.282975885403631 0.8747823249402128 0
0 -0.282975885403631 0.8747823249402128 0
0.28327217508526115 0.091325865160359301 0.74229658506397411 0
-0.28327217508526115 0.091325865160359301 0.74229658506397411 0
0.28327217508526115 -0.091325865160359301 0.74229658506397411 0
-0.28327217508526115 -0.091325865160359301 0.74229658506397411 0
0.2181057482414244 0 0.8272651951865686 0
-0.2181057482414244 0 0.8272651951865686 0
0.10159243096761905 0.19606149667372649 0.7967379714681071 0
-0.10159243096761905 0.19606149667372649 0.7967379714681071 0
0.10159243096761905 -0.19606149667372649 0.7967379714681071 0
-0.10159243096761905 -0.19606149667372649 0.7967379714681071 0
0.22063495374489794 0.14533754217282674 0.71909422843700699 0
-0.22063495374489794 0.14533754217282674 0.71909422843700699 0
0.22063495374489794 -0.14533754217282674 0.71909422843700699 0
-0.22063495374489794 -0.14533754217282674 0.71909422843700699 0
0 0 0.86071011117640039 0
0.051228950593305594 0 0.8180684116026069 0
-0.051228950593305594 0 0.8180684116026069 0
0.33095632775399447 0 0.64207253414437215 0
-0.33095632775399447 0 0.64207253414437215 0
-0.23642021213745956 0 0.35325473065825197 0
0.23642021213745956 0 0.35325473065825197 0
0 0 0.21556644387906593 0
0 0 0.37801616164783752 0
-0.22644266301813554 0 0.52481366894074155 0
0.22644266301813554 0 0.52481366894074155 0
-0.095744267272520306 0 0.4792851303250914 0
0.095744267272520306 0 0.4792851303250914 0
0 0 0.5266058815997835 0
0 0.136342498409563 0.75789969735710339 0
0 -0.136342498409563 0.75789969735710339 0
0 0 0.79279648203205155 0
0 0 0.74298156018965877 0
0 0.032536978968304403 0.70685447391100042 0
0 -0.032536978968304403 0.70685447391100042 0
0 0.077257780067807716 0.7104836570561055 0
0 -0.077257780067807716 0.7104836570561055 0
0 0 0.58685296571972045 0
0 0 0.64964174941044728 0
0 0 0.087390943291274656 0
Hexahedra
48
12 15 10 5 19 23 20 25 0
13 5 11 16 21 26 22 24 0
10 5 25 20 27 31 33 37 0
12 19 25 5 28 38 34 32 0
11 22 26 5 29 39 35 31 0
13 5 26 21 30 32 36 40 0
5 25 33 31 26 41 42 35 0
5 32 34 25 26 36 43 41 0
10 5 31 27 17 11 29 44 0
12 28 32 5 18 45 30 13 0
19 23 20 25 46 48 47 49 0
21 26 22 24 46 49 47 48 0
25 19 46 49 34 38 50 52 0
25 49 47 20 33 53 51 37 0
26 49 46 21 36 52 50 40 0
26 22 47 49 35 39 51 53 0
25 49 53 33 34 52 54 55 0
26 35 53 49 36 56 54 52 0
33 25 34 55 42 41 43 57 0
35 56 36 26 42 57 43 41 0
33 31 35 42 55 58 56 57 0
34 43 36 32 55 57 56 58 0
33 31 58 55 37 27 59 61 0
34 55 58 32 38 61 59 28 0
35 56 58 31 39 62 60 29 0
36 32 58 56 40 30 60 62 0
53 33 55 54 51 37 61 63 0
52 54 55 34 50 63 61 38 0
53 54 56 35 51 63 62 39 0
52 36 56 54 50 40 62 63 0
31 58 59 27 29 60 64 44 0
32 28 59 58 30 45 64 60 0
19 46 50 38 12 18 45 28 0
20 37 51 47 10 27 44 17 0
21 40 50 46 13 30 45 18 0
22 47 51 39 11 17 44 29 0
37 51 44 27 61 63 64 59 0
38 28 45 50 61 59 64 63 0
39 29 44 51 62 60 64 63 0
40 50 45 30 62 63 64 60 0
47 20 10 17 48 23 15 65 0
46 18 12 19 48 65 15 23 0
47 17 11 22 48 65 16 24 0
46 21 13 18 48 24 16 65 0
10 17 65 15 1 6 14 8 0
12 15 65 18 4 8 14 7 0
11 16 65 17 2 9 14 6 0
13 18 65 16 3 7 14 9 0
Quadrilaterals
16
1 6 14 8 0
2 9 14 6 0
2 6 17 11 0
2 11 16 9 0
4 8 14 7 0
4 7 18 12 0
4 12 15 8 0
12 18 13 5 0
12 5 10 15 0
6 1 10 17 0
5 11 17 10 0
13 16 11 5 0
1 8 15 10 0
14 9 3 7 0
7 3 13 18 0
9 16 13 3 0
End
