MeshVersionFormatted 2
Dimension 3
Vertices
67
1 1 0 0
1 -1 0 0
-1 -1 0 0
-1 1 0 0
0 -0 1.4142135623730951 0
1 0 0 0
-1 0 0 0
0 1 0 0
0 -1 0 0
0.5 0.5 0.70710678118654757 0
0.5 -0.5 0.70710678118654757 0
-0.5 0.5 0.70710678118654757 0
-0.5 -0.5 0.70710678118654757 0
0 0 0 0
0 0.66666666666666663 0.47140452079103173 0
0 -0.66666666666666663 0.47140452079103173 0
0.66666666666666663 0 0.47140452079103173 0
-0.66666666666666663 0 0.47140452079103173 0
0.25018502234046308 0.25018502234046308 0.4446661193682534 0
-0.25018502234046308 -0.25018502234046308 0.4446661193682534 0
0.011732320816612065 -0.011732320816612065 0.052744814500928695 0
-0.011732320816612065 0.011732320816612065 0.052744814500928695 0
0.40974483138422241 -0.25653680400338913 0.26972971440934851 0
-0.25653680400338913 0.40974483138422241 0.26972971440934851 0
0.25653680400338913 -0.40974483138422241 0.26972971440934851 0
-0.40974483138422241 0.25653680400338913 0.26972971440934851 0
0.39644164518432862 -0.042607646867266112 0.42520785911685505 0
-0.042607646867266112 0.39644164518432862 0.42520785911685505 0
0.042607646867266112 -0.39644164518432862 0.42520785911685505 0
-0.39644164518432862 0.042607646867266112 0.42520785911685505 0
0.26173757588804897 0.13733802116045143 0.42623176868568341 0
0.13733802116045143 0.26173757588804897 0.42623176868568341 0
-0.13733802116045143 -0.26173757588804897 0.42623176868568341 0
-0.26173757588804897 -0.13733802116045143 0.42623176868568341 0
0 0 0.061619173571517881 0
0.13269313758039356 0.13269313758039356 0.37533573347261889 0
-0.13269313758039356 -0.13269313758039356 0.37533573347261889 0
0.35120381886440327 -0.35120381886440327 0.30987263187823966 0
-0.35120381886440327 0.35120381886440327 0.30987263187823966 0
0.036990184111846555 0.036990184111846555 0.35937822541757203 0
-0.036990184111846555 -0.036990184111846555 0.35937822541757203 0
0 0 0.36932428707281234 0
0.040910734700314019 0.040910734700314019 0.36849569267286986 0
-0.040910734700314019 -0.040910734700314019 0.36849569267286986 0
0.072039917331583478 -0.072039917331583478 0.51853861728609496 0
-0.072039917331583478 0.072039917331583478 0.51853861728609496 0
0 0 0.56342774908476456 0
0 0 0.49291745061507536 0
-0.26836805421510851 0.26836805421510851 0.49387427152412866 0
0.26836805421510851 -0.26836805421510851 0.49387427152412866 0
-0.22262269167452711 -0.22262269167452711 0.59136304342478374 0
0.22262269167452711 0.22262269167452711 0.59136304342478374 0
-0.15116028898319908 -0.37716581074973665 0.64507498553949216 0
-0.37716581074973665 -0.15116028898319908 0.64507498553949216 0
0.37716581074973665 0.15116028898319908 0.64507498553949216 0
0.15116028898319908 0.37716581074973665 0.64507498553949216 0
0.0029598460678581838 -0.27986282487369263 0.7305707611961062 0
-0.27986282487369263 0.0029598460678581838 0.7305707611961062 0
0.27986282487369263 -0.0029598460678581838 0.7305707611961062 0
-0.0029598460678581838 0.27986282487369263 0.7305707611961062 0
-0.11920344215965803 -0.11920344215965803 0.66550471739133243 0
0.11920344215965803 0.11920344215965803 0.66550471739133243 0
0.31539412883151086 0.31539412883151086 0.74044330617835608 0
-0.31539412883151086 -0.31539412883151086 0.74044330617835608 0
-0.13505636583386449 -0.13505636583386449 0.8853468844681428 0
0.13505636583386449 0.13505636583386449 0.8853468844681428 0
0 0 0.40054884164700294 0
Hexahedra
48
1 8 14 6 10 15 19 17 0
3 9 14 7 13 16 20 18 0
14 6 17 19 21 23 27 31 0
14 19 15 8 22 32 28 24 0
14 20 16 9 21 33 29 25 0
14 7 18 20 22 26 30 34 0
19 14 21 31 32 22 35 36 0
20 33 21 14 34 37 35 22 0
14 6 23 21 9 2 38 25 0
14 22 24 8 7 26 39 4 0
23 21 25 38 40 35 41 42 0
24 39 26 22 40 42 41 35 0
23 21 35 40 27 31 36 43 0
24 40 35 22 28 43 36 32 0
25 41 35 21 29 44 37 33 0
26 22 35 41 30 34 37 44 0
31 19 32 36 45 47 46 48 0
33 37 34 20 45 48 46 47 0
19 15 28 32 47 12 49 46 0
19 31 27 17 47 45 50 11 0
20 34 30 18 47 46 49 12 0
20 16 29 33 47 11 50 45 0
20 16 11 47 51 53 57 61 0
20 47 12 18 51 61 58 54 0
19 47 11 17 52 62 59 55 0
19 15 12 47 52 56 60 62 0
10 15 19 17 63 56 52 55 0
13 16 20 18 64 53 51 54 0
11 47 61 57 5 12 58 65 0
11 59 62 47 5 66 60 12 0
16 29 50 11 9 25 38 2 0
18 12 49 30 7 4 39 26 0
17 11 50 27 6 2 38 23 0
15 28 49 12 8 24 39 4 0
12 15 10 5 60 56 63 66 0
11 5 10 17 59 66 63 55 0
12 5 13 18 58 65 64 54 0
11 16 13 5 57 53 64 65 0
50 27 23 38 67 43 40 42 0
49 39 24 28 67 42 40 43 0
50 38 25 29 67 42 41 44 0
49 30 26 39 67 44 41 42 0
31 27 50 45 36 43 67 48 0
32 46 49 28 36 48 67 43 0
33 45 50 29 37 48 67 44 0
34 30 49 46 37 44 67 48 0
64 53 51 54 65 57 61 58 0
63 56 52 55 66 60 62 59 0
Quadrilaterals
16
1 6 14 8 0
2 9 14 6 0
2 6 17 11 0
2 11 16 9 0
4 8 14 7 0
4 7 18 12 0
4 12 15 8 0
12 18 13 5 0
12 5 10 15 0
6 1 10 17 0
5 11 17 10 0
13 16 11 5 0
1 8 15 10 0
14 9 3 7 0
7 3 13 18 0
9 16 13 3 0
End
