MeshVersionFormatted 2
Dimension 3
Vertices
65
1 1 0 0
1 -1 0 0
-1 -1 0 0
-1 1 0 0
0 -0 1.4142135623730951 0
1 0 0 0
-1 0 0 0
0 1 0 0
0 -1 0 0
0.5 0.5 0.70710678118654757 0
0.5 -0.5 0.70710678118654757 0
-0.5 0.5 0.70710678118654757 0
-0.5 -0.5 0.70710678118654757 0
0 0 0 0
0 0.66666666666666663 0.47140452079103173 0
0 -0.66666666666666663 0.47140452079103173 0
0.66666666666666663 0 0.47140452079103173 0
-0.66666666666666663 0 0.47140452079103173 0
0 0 0.10072866195350723 0
0.2389172241241807 0.2389172241241807 0.6509650826803457 0
-0.2389172241241807 -0.2389172241241807 0.6509650826803457 0
0.13563692634205504 0.25860166504898446 0.55758264480753728 0
0.25860166504898446 0.13563692634205504 0.55758264480753728 0
-0.25860166504898446 -0.13563692634205504 0.55758264480753728 0
-0.13563692634205504 -0.25860166504898446 0.55758264480753728 0
0.14573159177641534 0.14573159177641534 0.49193356633994378 0
-0.14573159177641534 -0.14573159177641534 0.49193356633994378 0
0.44510781392083165 -0.13693945037961 0.57354024662438885 0
-0.13693945037961 0.44510781392083165 0.57354024662438885 0
0.13693945037961 -0.44510781392083165 0.57354024662438885 0
-0.44510781392083165 0.13693945037961 0.57354024662438885 0
0.20443878331740176 -0.20443878331740173 0.44728266163902236 0
-0.20443878331740173 0.20443878331740176 0.44728266163902236 0
0.34597185282542209 -0.34597185282542209 0.70519432840558327 0
-0.34597185282542209 0.34597185282542209 0.70519432840558327 0
-0.066632624649281658 0.21229543405656953 0.5200301142465783 0
0.21229543405656953 -0.066632624649281658 0.5200301142465783 0
-0.21229543405656953 0.066632624649281658 0.5200301142465783 0
0.066632624649281658 -0.21229543405656953 0.5200301142465783 0
0.051676735134392915 0.26149655445913766 0.58472819013601751 0
0.26149655445913766 0.051676735134392915 0.58472819013601751 0
-0.26149655445913766 -0.051676735134392915 0.58472819013601751 0
-0.051676735134392915 -0.26149655445913766 0.58472819013601751 0
0.036839171332739291 0.036839171332739291 0.50142812338925924 0
-0.036839171332739291 -0.036839171332739291 0.50142812338925924 0
0 0 0.46108223793107767 0
0.1670192881388041 0.1670192881388041 0.97739507264207415 0
-0.1670192881388041 -0.1670192881388041 0.97739507264207415 0
7.7037197775489434e-34 3.8518598887744717e-34 0.95132981251924298 0
0 -1.9259299443872359e-34 1.1950385049016501 0
0.071652691597672957 0.071652691597672957 0.83935757743559702 0
-0.071652691597672957 -0.071652691597672957 0.83935757743559702 0
0.1676790676900414 0.16767906769004143 0.78372882330124438 0
-0.16767906769004143 -0.1676790676900414 0.78372882330124438 0
1.5407439555097887e-33 7.7037197775489434e-34 0.79504360130894858 0
0.098441937812427716 -0.098441937812427716 0.56166435707115303 0
-0.098441937812427716 0.098441937812427716 0.56166435707115303 0
0 -3.8518598887744717e-34 0.52708450127173767 0
-7.7037197775489434e-34 -3.8518598887744717e-34 0.57665269784794548 0
-0.056165533858175985 0.056165533858175992 0.60924609854581235 0
0.056165533858175992 -0.056165533858175985 0.60924609854581235 0
-0.023837225622722905 0.023837225622722905 0.61303657428115776 0
0.023837225622722905 -0.023837225622722905 0.61303657428115776 0
0 3.8518598887744717e-34 0.73381563159498664 0
7.7037197775489434e-34 3.8518598887744717e-34 0.66998943071729999 0
Hexahedra
48
1 8 14 6 10 15 19 17 0
3 9 14 7 13 16 19 18 0
14 6 17 19 9 2 11 16 0
14 19 15 8 7 18 12 4 0
10 15 19 17 20 22 26 23 0
13 16 19 18 21 25 27 24 0
17 19 16 11 28 32 30 34 0
15 12 18 19 29 35 31 33 0
15 19 26 22 29 33 36 40 0
17 23 26 19 28 41 37 32 0
18 24 27 19 31 42 38 33 0
16 19 27 25 30 32 39 43 0
19 26 36 33 32 37 44 46 0
19 33 38 27 32 46 45 39 0
28 32 30 34 47 49 48 50 0
29 35 31 33 47 50 48 49 0
28 32 49 47 41 37 51 53 0
29 47 49 33 40 53 51 36 0
30 48 49 32 43 54 52 39 0
31 33 49 48 42 38 52 54 0
32 49 51 37 39 52 55 56 0
33 36 51 49 38 57 55 52 0
37 32 39 56 44 46 45 58 0
36 57 38 33 44 58 45 46 0
26 36 44 37 59 57 58 56 0
27 39 45 38 59 56 58 57 0
26 36 57 59 22 40 60 62 0
26 59 56 37 23 63 61 41 0
27 59 57 38 24 62 60 42 0
27 39 56 59 25 43 61 63 0
36 51 55 57 40 53 64 60 0
37 56 55 51 41 61 64 53 0
38 57 55 52 42 60 64 54 0
39 52 55 56 43 54 64 61 0
59 26 22 62 63 23 20 65 0
59 62 24 27 63 65 21 25 0
22 15 29 40 20 10 47 53 0
23 41 28 17 20 53 47 10 0
24 42 31 18 21 54 48 13 0
25 16 30 43 21 13 48 54 0
15 29 47 10 12 35 50 5 0
17 10 47 28 11 5 50 34 0
18 13 48 31 12 5 50 35 0
16 30 48 13 11 34 50 5 0
40 22 20 53 60 62 65 64 0
41 53 20 23 61 64 65 63 0
42 54 21 24 60 64 65 62 0
43 25 21 54 61 63 65 64 0
Quadrilaterals
16
1 6 14 8 0
2 9 14 6 0
2 6 17 11 0
2 11 16 9 0
4 8 14 7 0
4 7 18 12 0
4 12 15 8 0
12 18 13 5 0
12 5 10 15 0
6 1 10 17 0
5 11 17 10 0
13 16 11 5 0
1 8 15 10 0
14 9 3 7 0
7 3 13 18 0
9 16 13 3 0
End
