MeshVersionFormatted 2
Dimension 3
Vertices
67
1 1 0 0
1 -1 0 0
-1 -1 0 0
-1 1 0 0
0 -0 1.4142135623730951 0
1 0 0 0
-1 0 0 0
0 1 0 0
0 -1 0 0
0.5 0.5 0.70710678118654757 0
0.5 -0.5 0.70710678118654757 0
-0.5 0.5 0.70710678118654757 0
-0.5 -0.5 0.70710678118654757 0
0 0 0 0
0 0.66666666666666663 0.47140452079103173 0
0 -0.66666666666666663 0.47140452079103173 0
0.66666666666666663 0 0.47140452079103173 0
-0.66666666666666663 0 0.47140452079103173 0
0.28237772325584104 0.28237772325584104 0.45583244710526061 0
-0.28237772325584104 -0.28237772325584104 0.45583244710526061 0
0.080049177169175478 -0.080049177169175478 0.13086985926570655 0
-0.080049177169175478 0.080049177169175478 0.13086985926570655 0
0.29212012860194919 -0.17073937614926626 0.26301655415857617 0
-0.17073937614926626 0.29212012860194919 0.26301655415857617 0
0.17073937614926626 -0.29212012860194919 0.26301655415857617 0
-0.29212012860194919 0.17073937614926626 0.26301655415857617 0
0.32456113126086494 -0.013183692247005262 0.38722415266753041 0
-0.013183692247005262 0.32456113126086494 0.38722415266753041 0
0.013183692247005262 -0.32456113126086494 0.38722415266753041 0
-0.32456113126086494 0.013183692247005262 0.38722415266753041 0
0.26480670193711936 0.11800758211245001 0.40326692284755228 0
0.11800758211245001 0.26480670193711936 0.40326692284755228 0
-0.11800758211245001 -0.26480670193711936 0.40326692284755228 0
-0.26480670193711936 -0.11800758211245001 0.40326692284755228 0
0 0 0.20019001618524451 0
0.14168713133487748 0.14168713133487748 0.39264632020205692 0
-0.14168713133487748 -0.14168713133487748 0.39264632020205692 0
0.2321237493784957 -0.2321237493784957 0.31606564966325029 0
-0.2321237493784957 0.2321237493784957 0.31606564966325029 0
0.11026622415707832 -0.095596872216813816 0.2676382347925706 0
-0.095596872216813816 0.11026622415707832 0.2676382347925706 0
0.095596872216813816 -0.11026622415707832 0.2676382347925706 0
-0.11026622415707832 0.095596872216813816 0.2676382347925706 0
0.086469112634281767 -0.086469112634281767 0.23648334992964884 0
-0.086469112634281767 0.086469112634281767 0.23648334992964884 0
0.1051209696611502 -0.1051209696611502 0.29113686572235103 0
-0.1051209696611502 0.1051209696611502 0.29113686572235103 0
0.052253857722683823 0.052253857722683823 0.31187957618484874 0
-0.052253857722683823 -0.052253857722683823 0.31187957618484874 0
0.09493304629005743 0.09493304629005743 0.37424244133439438 0
-0.09493304629005743 -0.09493304629005743 0.37424244133439438 0
0.07845671126231811 -0.047294016348317557 0.28697236185921732 0
-0.047294016348317557 0.07845671126231811 0.28697236185921732 0
0.047294016348317557 -0.07845671126231811 0.28697236185921732 0
-0.07845671126231811 0.047294016348317557 0.28697236185921732 0
0.057531869005701661 -0.057531869005701661 0.26489597077511284 0
-0.057531869005701661 0.057531869005701661 0.26489597077511284 0
0 0 0.39263329667516239 0
0.06771167687515646 -0.06771167687515646 0.3110279840374785 0
-0.06771167687515646 0.06771167687515646 0.3110279840374785 0
0.21062834983759382 -0.21062834983759382 0.53164035930913911 0
-0.21062834983759382 0.21062834983759382 0.53164035930913911 0
0 0 0.46414848814898757 0
0 0 0.53657473752971685 0
0.081706669242089455 -0.081706669242089455 0.57719368865983034 0
-0.081706669242089455 0.081706669242089455 0.57719368865983034 0
0 0 0.6362547074074667 0
Hexahedra
48
1 8 14 6 10 15 19 17 0
3 9 14 7 13 16 20 18 0
14 6 17 19 21 23 27 31 0
14 19 15 8 22 32 28 24 0
14 20 16 9 21 33 29 25 0
14 7 18 20 22 26 30 34 0
19 14 21 31 32 22 35 36 0
20 33 21 14 34 37 35 22 0
14 6 23 21 9 2 38 25 0
14 22 24 8 7 26 39 4 0
23 21 25 38 40 44 42 46 0
24 39 26 22 41 47 43 45 0
21 23 27 31 35 48 50 36 0
22 32 28 24 35 36 50 48 0
21 33 29 25 35 37 51 49 0
22 26 30 34 35 49 51 37 0
21 23 48 35 44 40 52 56 0
22 35 48 24 45 57 53 41 0
21 35 49 25 44 56 54 42 0
22 26 49 35 45 43 55 57 0
48 35 56 52 58 49 54 59 0
48 53 57 35 58 60 55 49 0
23 27 50 48 38 61 63 58 0
24 48 50 28 39 58 63 62 0
25 49 51 29 38 58 63 61 0
26 30 51 49 39 62 63 58 0
48 23 38 58 52 40 46 59 0
48 58 39 24 53 60 47 41 0
49 58 38 25 54 59 46 42 0
49 26 39 58 55 43 47 60 0
23 27 61 38 6 17 11 2 0
24 39 62 28 8 4 12 15 0
25 38 61 29 9 2 11 16 0
26 30 62 39 7 18 12 4 0
27 50 63 61 31 36 64 65 0
28 62 63 50 32 66 64 36 0
29 61 63 51 33 65 64 37 0
30 51 63 62 34 37 64 66 0
31 19 32 36 65 67 66 64 0
33 37 34 20 65 64 66 67 0
61 27 31 65 11 17 19 67 0
62 66 32 28 12 67 19 15 0
61 65 33 29 11 67 20 16 0
62 30 34 66 12 18 20 67 0
11 67 20 16 5 12 18 13 0
11 17 19 67 5 10 15 12 0
40 44 42 46 52 56 54 59 0
41 47 43 45 53 60 55 57 0
Quadrilaterals
16
1 6 14 8 0
2 9 14 6 0
2 6 17 11 0
2 11 16 9 0
4 8 14 7 0
4 7 18 12 0
4 12 15 8 0
12 18 13 5 0
12 5 10 15 0
6 1 10 17 0
5 11 17 10 0
13 16 11 5 0
1 8 15 10 0
14 9 3 7 0
7 3 13 18 0
9 16 13 3 0
End
