MeshVersionFormatted 2
Dimension 3
Vertices
61
1 1 0 0
1 -1 0 0
-1 -1 0 0
-1 1 0 0
0 -0 1.4142135623730951 0
1 0 0 0
-1 0 0 0
0 1 0 0
0 -1 0 0
0.5 0.5 0.70710678118654757 0
0.5 -0.5 0.70710678118654757 0
-0.5 0.5 0.70710678118654757 0
-0.5 -0.5 0.70710678118654757 0
0 0 0 0
0 0.66666666666666663 0.47140452079103173 0
0 -0.66666666666666663 0.47140452079103173 0
0.66666666666666663 0 0.47140452079103173 0
-0.66666666666666663 0 0.47140452079103173 0
0.19516114147488359 0.19516114147488359 0.32197636645851901 0
-0.19516114147488359 -0.19516114147488359 0.32197636645851901 0
0.33782371221859014 -0.33782371221859014 0.16446749932736776 0
-0.33782371221859014 0.33782371221859014 0.16446749932736776 0
0.53709002690024199 -0.32069823638657069 0.18406589572086132 0
-0.32069823638657069 0.53709002690024199 0.18406589572086132 0
0.32069823638657069 -0.53709002690024199 0.18406589572086132 0
-0.53709002690024199 0.32069823638657069 0.18406589572086132 0
0.57423687300438109 -0.11397243878414015 0.427746677645093 0
-0.11397243878414015 0.57423687300438109 0.427746677645093 0
0.11397243878414015 -0.57423687300438109 0.427746677645093 0
-0.57423687300438109 0.11397243878414015 0.427746677645093 0
0.34522448320341187 -0.20913260143383303 0.25354777364257608 0
-0.20913260143383303 0.34522448320341187 0.25354777364257608 0
0.20913260143383303 -0.34522448320341187 0.25354777364257608 0
-0.34522448320341187 0.20913260143383303 0.25354777364257608 0
0 0 0.21883074037225025 0
0.019473352817784874 0.019473352817784874 0.24186385664290594 0
-0.019473352817784874 -0.019473352817784874 0.24186385664290594 0
0.53984310333383434 -0.53984310333383434 0.2747892233912323 0
-0.53984310333383434 0.53984310333383434 0.2747892233912323 0
0.075607827780213022 0.075607827780213022 0.91788165815195033 0
-0.075607827780213022 -0.075607827780213022 0.91788165815195033 0
0 0 0.88299565841477101 0
0 0 1.0090759173411206 0
0.051381209064970353 0.051381209064970353 0.82788417113798252 0
-0.051381209064970353 -0.051381209064970353 0.82788417113798252 0
0.12357013541699918 0.12357013541699918 0.89481357395773997 0
-0.12357013541699918 -0.12357013541699918 0.89481357395773997 0
0 0 0.71587411346855534 0
0.093752380642739511 -0.093752380642739511 0.31563759254471357 0
-0.093752380642739511 0.093752380642739511 0.31563759254471357 0
0 0 0.25322808053526213 0
0 0 0.32732360000048955 0
0.0026301462532265442 -0.0026301462532265442 0.36566212100362655 0
-0.0026301462532265442 0.0026301462532265442 0.36566212100362655 0
0.066839814598302419 -0.066839814598302419 0.34351481843068771 0
-0.066839814598302419 0.066839814598302419 0.34351481843068771 0
0 0 0.70569828567714477 0
0 0 0.38201616541685601 0
-0.36529448555553301 0.36529448555553307 0.74540544812021758 0
0.36529448555553307 -0.36529448555553301 0.74540544812021758 0
0 0 1.1869516930149819 0
Hexahedra
48
1 8 14 6 10 15 19 17 0
3 9 14 7 13 16 20 18 0
14 6 17 19 21 23 27 31 0
14 19 15 8 22 32 28 24 0
14 20 16 9 21 33 29 25 0
14 7 18 20 22 26 30 34 0
19 14 21 31 32 22 35 36 0
20 33 21 14 34 37 35 22 0
14 6 23 21 9 2 38 25 0
14 22 24 8 7 26 39 4 0
23 21 25 38 40 42 41 43 0
24 39 26 22 40 43 41 42 0
23 21 42 40 27 31 44 46 0
24 40 42 22 28 46 44 32 0
25 41 42 21 29 47 45 33 0
26 22 42 41 30 34 45 47 0
21 42 44 31 33 45 48 49 0
22 32 44 42 34 50 48 45 0
31 21 33 49 36 35 37 51 0
32 50 34 22 36 51 37 35 0
31 19 32 36 49 52 50 51 0
33 37 34 20 49 51 50 52 0
31 19 52 49 27 17 53 55 0
32 50 52 19 28 56 54 15 0
33 49 52 20 29 55 53 16 0
34 20 52 50 30 18 54 56 0
44 31 49 48 46 27 55 57 0
44 48 50 32 46 57 56 28 0
45 48 49 33 47 57 55 29 0
45 34 50 48 47 30 56 57 0
52 19 15 54 53 17 10 58 0
52 54 18 20 53 58 13 16 0
28 56 54 15 46 57 58 10 0
27 17 53 55 46 10 58 57 0
30 18 54 56 47 13 58 57 0
29 55 53 16 47 57 58 13 0
15 28 46 10 12 59 61 5 0
17 10 46 27 11 5 61 60 0
18 13 47 30 12 5 61 59 0
16 29 47 13 11 60 61 5 0
40 23 27 46 43 38 60 61 0
40 46 28 24 43 61 59 39 0
41 47 29 25 43 61 60 38 0
41 26 30 47 43 39 59 61 0
6 17 27 23 2 11 60 38 0
8 24 28 15 4 39 59 12 0
9 25 29 16 2 38 60 11 0
7 18 30 26 4 12 59 39 0
Quadrilaterals
16
1 6 14 8 0
2 9 14 6 0
2 6 17 11 0
2 11 16 9 0
4 8 14 7 0
4 7 18 12 0
4 12 15 8 0
12 18 13 5 0
12 5 10 15 0
6 1 10 17 0
5 11 17 10 0
13 16 11 5 0
1 8 15 10 0
14 9 3 7 0
7 3 13 18 0
9 16 13 3 0
End
