MeshVersionFormatted 2
Dimension 3
Vertices
65
1 1 0 0
1 -1 0 0
-1 -1 0 0
-1 1 0 0
0 -0 1.4142135623730951 0
1 0 0 0
-1 0 0 0
0 1 0 0
0 -1 0 0
0.5 0.5 0.70710678118654757 0
0.5 -0.5 0.70710678118654757 0
-0.5 0.5 0.70710678118654757 0
-0.5 -0.5 0.70710678118654757 0
0 0 0 0
0 0.66666666666666663 0.47140452079103173 0
0 -0.66666666666666663 0.47140452079103173 0
0.66666666666666663 0 0.47140452079103173 0
-0.66666666666666663 0 0.47140452079103173 0
0 0 0.074385999122363919 0
0.28984208664185424 0.28984208664185418 0.8204090504616568 0
-0.28984208664185418 -0.28984208664185424 0.8204090504616568 0
0.093728228292171825 0.38657154094256196 0.69308608100210556 0
0.38657154094256196 0.093728228292171825 0.69308608100210556 0
-0.38657154094256196 -0.093728228292171825 0.69308608100210556 0
-0.093728228292171825 -0.38657154094256196 0.69308608100210556 0
0.21005059487381927 0.21005059487381927 0.70007754655247756 0
-0.21005059487381927 -0.21005059487381927 0.70007754655247756 0
0.24574324760994259 -0.12511370631079735 0.44828595703874607 0
-0.12511370631079735 0.24574324760994259 0.44828595703874607 0
0.12511370631079735 -0.24574324760994259 0.44828595703874607 0
-0.24574324760994259 0.12511370631079735 0.44828595703874607 0
0.079477134077688083 -0.079477134077688083 0.26131435028413852 0
-0.079477134077688083 0.079477134077688083 0.26131435028413852 0
0.22313145826258063 -0.2231314582625806 0.51379348153964477 0
-0.2231314582625806 0.22313145826258063 0.51379348153964477 0
0.063490274843105987 0.21136525688643526 0.62142162254411981 0
0.21136525688643526 0.063490274843105987 0.62142162254411981 0
-0.21136525688643526 -0.063490274843105987 0.62142162254411981 0
-0.063490274843105987 -0.21136525688643526 0.62142162254411981 0
-0.045112638705613606 0.25938679163034051 0.58159698311056063 0
0.25938679163034051 -0.045112638705613606 0.58159698311056063 0
-0.25938679163034051 0.045112638705613606 0.58159698311056063 0
0.045112638705613606 -0.25938679163034051 0.58159698311056063 0
0.10116516575409637 0.10116516575409637 0.57474565335396177 0
-0.10116516575409637 -0.10116516575409637 0.57474565335396177 0
-3.8518598887744717e-34 -1.9259299443872359e-34 0.32541265649037043 0
0.021825606204935434 0.021825606204935434 0.44490811070373798 0
-0.021825606204935434 -0.021825606204935434 0.44490811070373798 0
0 0 0.47289417380286003 0
0.055684780451117889 0.055684780451117896 0.52762018377063891 0
-0.055684780451117896 -0.055684780451117889 0.52762018377063891 0
0 0 0.68156889483578731 0
-0.036946072156074504 0.036946072156074511 0.638763678187384 0
0.036946072156074511 -0.036946072156074504 0.638763678187384 0
0 0 0.61191716764303661 0
0.19065331853727394 -0.19065331853727394 0.88776818632024912 0
-0.19065331853727394 0.19065331853727394 0.88776818632024912 0
0.17604069260761512 -0.17604069260761512 0.61301425690077349 0
-0.17604069260761512 0.17604069260761512 0.61301425690077349 0
0 0 1.1423659387221974 0
0 0 0.85070286307369292 0
-0.12008693841236462 0.12008693841236462 0.6356775861719326 0
0.12008693841236462 -0.12008693841236462 0.6356775861719326 0
9.6296497219361793e-35 9.6296497219361793e-35 0.55910745232647718 0
0 0 0.52628388767835033 0
Hexahedra
48
1 8 14 6 10 15 19 17 0
3 9 14 7 13 16 19 18 0
14 6 17 19 9 2 11 16 0
14 19 15 8 7 18 12 4 0
10 15 19 17 20 22 26 23 0
13 16 19 18 21 25 27 24 0
17 19 16 11 28 32 30 34 0
15 12 18 19 29 35 31 33 0
15 19 26 22 29 33 36 40 0
17 23 26 19 28 41 37 32 0
18 24 27 19 31 42 38 33 0
16 19 27 25 30 32 39 43 0
19 26 36 33 32 37 44 46 0
19 33 38 27 32 46 45 39 0
28 32 30 34 47 46 48 49 0
29 35 31 33 47 49 48 46 0
28 32 46 47 41 37 44 50 0
29 47 46 33 40 50 44 36 0
30 48 46 32 43 51 45 39 0
31 33 46 48 42 38 45 51 0
26 36 44 37 52 53 55 54 0
27 39 45 38 52 54 55 53 0
16 11 34 30 25 56 58 43 0
18 31 35 12 24 42 59 57 0
17 28 34 11 23 41 58 56 0
15 12 35 29 22 57 59 40 0
16 11 56 25 13 5 60 21 0
18 24 57 12 13 21 60 5 0
17 23 56 11 10 20 60 5 0
15 12 57 22 10 5 60 20 0
20 22 26 23 60 57 61 56 0
21 25 27 24 60 56 61 57 0
22 26 61 57 40 36 62 59 0
23 56 61 26 41 58 63 37 0
24 57 61 27 42 59 62 38 0
25 27 61 56 43 39 63 58 0
26 61 62 36 52 27 38 53 0
26 37 63 61 52 54 39 27 0
62 36 53 38 64 44 55 45 0
63 39 54 37 64 45 55 44 0
40 50 44 36 59 65 64 62 0
41 37 44 50 58 63 64 65 0
42 38 45 51 59 62 64 65 0
43 51 45 39 58 65 64 63 0
28 34 58 41 47 49 65 50 0
29 40 59 35 47 50 65 49 0
30 43 58 34 48 51 65 49 0
31 35 59 42 48 49 65 51 0
Quadrilaterals
16
1 6 14 8 0
2 9 14 6 0
2 6 17 11 0
2 11 16 9 0
4 8 14 7 0
4 7 18 12 0
4 12 15 8 0
12 18 13 5 0
12 5 10 15 0
6 1 10 17 0
5 11 17 10 0
13 16 11 5 0
1 8 15 10 0
14 9 3 7 0
7 3 13 18 0
9 16 13 3 0
End
