MeshVersionFormatted 2
Dimension 3
Vertices
65
1 1 0 0
1 -1 0 0
-1 -1 0 0
-1 1 0 0
0 -0 1.4142135623730951 0
1 0 0 0
-1 0 0 0
0 1 0 0
0 -1 0 0
0.5 0.5 0.70710678118654757 0
0.5 -0.5 0.70710678118654757 0
-0.5 0.5 0.70710678118654757 0
-0.5 -0.5 0.70710678118654757 0
0 0 0 0
0 0.66666666666666663 0.47140452079103173 0
0 -0.66666666666666663 0.47140452079103173 0
0.66666666666666663 0 0.47140452079103173 0
-0.66666666666666663 0 0.47140452079103173 0
0 0 0.15717510330396317 0
0.16204396967971893 0.16204396967971893 0.89780007668260464 0
-0.16204396967971893 -0.16204396967971893 0.89780007668260464 0
0.072715931616173499 0.27948889910258035 0.71192759855725884 0
0.27948889910258035 0.072715931616173499 0.71192759855725884 0
-0.27948889910258035 -0.072715931616173499 0.71192759855725884 0
-0.072715931616173499 -0.27948889910258035 0.71192759855725884 0
0.12673014541468289 0.12673014541468289 0.62610534600370193 0
-0.12673014541468289 -0.12673014541468289 0.62610534600370193 0
0.16863653519220928 -0.09244601505592713 0.48180415136728982 0
-0.09244601505592713 0.16863653519220928 0.48180415136728982 0
0.09244601505592713 -0.16863653519220928 0.48180415136728982 0
-0.16863653519220928 0.09244601505592713 0.48180415136728982 0
0.053819328787128418 -0.053819328787128418 0.37270779250521979 0
-0.053819328787128418 0.053819328787128418 0.37270779250521979 0
0.14038608194246904 -0.14038608194246904 0.52009980628971431 0
-0.14038608194246904 0.14038608194246904 0.52009980628971431 0
0.036553732329496699 0.093284302788015763 0.5375289990845713 0
0.093284302788015763 0.036553732329496699 0.5375289990845713 0
-0.093284302788015763 -0.036553732329496699 0.5375289990845713 0
-0.036553732329496699 -0.093284302788015763 0.5375289990845713 0
-0.0055487164203058036 0.13559095407452496 0.55003939528667012 0
0.13559095407452496 -0.0055487164203058036 0.55003939528667012 0
-0.13559095407452496 0.0055487164203058036 0.55003939528667012 0
0.0055487164203058036 -0.13559095407452496 0.55003939528667012 0
0.029738949054030853 0.029738949054030853 0.52147561926272024 0
-0.029738949054030853 -0.029738949054030853 0.52147561926272024 0
0 0 0.47264839655486474 0
0.0065498268149528837 0.0065498268149528837 0.50282039990780047 0
-0.0065498268149528837 -0.0065498268149528837 0.50282039990780047 0
0 0 0.51281297471656984 0
0.026238775112350794 0.026238775112350794 0.52026632402851369 0
-0.026238775112350794 -0.026238775112350794 0.52026632402851369 0
0 0 0.60324373651261209 0
-0.027429407331779621 0.027429407331779621 0.58582427307050622 0
0.027429407331779621 -0.027429407331779621 0.58582427307050622 0
0 0 0.54972870631671633 0
0.18020921238910409 -0.18020921238910409 0.72788030215429589 0
-0.18020921238910409 0.18020921238910409 0.72788030215429589 0
0.077964745531596422 -0.077964745531596422 0.58552840405884499 0
-0.077964745531596422 0.077964745531596422 0.58552840405884499 0
0 0 1.1119136873132285 0
0 0 0.84980559177651704 0
-0.050326361376051017 0.050326361376051024 0.7568886654269954 0
0.050326361376051024 -0.050326361376051017 0.7568886654269954 0
0 0 0.70946511216713515 0
0 0 0.53507461598266726 0
Hexahedra
48
1 8 14 6 10 15 19 17 0
3 9 14 7 13 16 19 18 0
14 6 17 19 9 2 11 16 0
14 19 15 8 7 18 12 4 0
10 15 19 17 20 22 26 23 0
13 16 19 18 21 25 27 24 0
17 19 16 11 28 32 30 34 0
15 12 18 19 29 35 31 33 0
15 19 26 22 29 33 36 40 0
17 23 26 19 28 41 37 32 0
18 24 27 19 31 42 38 33 0
16 19 27 25 30 32 39 43 0
19 26 36 33 32 37 44 46 0
19 33 38 27 32 46 45 39 0
28 32 30 34 47 46 48 49 0
29 35 31 33 47 49 48 46 0
28 32 46 47 41 37 44 50 0
29 47 46 33 40 50 44 36 0
30 48 46 32 43 51 45 39 0
31 33 46 48 42 38 45 51 0
26 36 44 37 52 53 55 54 0
27 39 45 38 52 54 55 53 0
16 11 34 30 25 56 58 43 0
18 31 35 12 24 42 59 57 0
17 28 34 11 23 41 58 56 0
15 12 35 29 22 57 59 40 0
16 11 56 25 13 5 60 21 0
18 24 57 12 13 21 60 5 0
17 23 56 11 10 20 60 5 0
15 12 57 22 10 5 60 20 0
20 22 26 23 61 62 64 63 0
21 25 27 24 61 63 64 62 0
26 22 40 36 52 57 59 53 0
26 37 41 23 52 54 58 56 0
27 38 42 24 52 53 59 57 0
27 25 43 39 52 56 58 54 0
26 22 57 52 64 62 24 27 0
26 52 56 23 64 27 25 63 0
22 57 24 62 20 60 21 61 0
23 63 25 56 20 61 21 60 0
28 34 58 41 47 49 65 50 0
29 40 59 35 47 50 65 49 0
30 43 58 34 48 51 65 49 0
31 35 59 42 48 49 65 51 0
40 36 53 59 50 44 55 65 0
41 58 54 37 50 65 55 44 0
42 59 53 38 51 65 55 45 0
43 39 54 58 51 45 55 65 0
Quadrilaterals
16
1 6 14 8 0
2 9 14 6 0
2 6 17 11 0
2 11 16 9 0
4 8 14 7 0
4 7 18 12 0
4 12 15 8 0
12 18 13 5 0
12 5 10 15 0
6 1 10 17 0
5 11 17 10 0
13 16 11 5 0
1 8 15 10 0
14 9 3 7 0
7 3 13 18 0
9 16 13 3 0
End
