MeshVersionFormatted 2
Dimension 3
Vertices
67
1 1 0 0
1 -1 0 0
-1 -1 0 0
-1 1 0 0
0 -0 1.4142135623730951 0
1 0 0 0
-1 0 0 0
0 1 0 0
0 -1 0 0
0.5 0.5 0.70710678118654757 0
0.5 -0.5 0.70710678118654757 0
-0.5 0.5 0.70710678118654757 0
-0.5 -0.5 0.70710678118654757 0
0 0 0 0
0 0.66666666666666663 0.47140452079103173 0
0 -0.66666666666666663 0.47140452079103173 0
0.66666666666666663 0 0.47140452079103173 0
-0.66666666666666663 0 0.47140452079103173 0
0.27063719176718898 0.27063719176718898 0.4564057038235485 0
-0.27063719176718898 -0.27063719176718898 0.4564057038235485 0
0.070262990122609767 -0.070262990122609767 0.21437847119603087 0
-0.070262990122609767 0.070262990122609767 0.21437847119603087 0
0.3665409095970128 -0.19081686004395362 0.41011284931045472 0
-0.19081686004395362 0.3665409095970128 0.41011284931045472 0
0.19081686004395362 -0.3665409095970128 0.41011284931045472 0
-0.3665409095970128 0.19081686004395362 0.41011284931045472 0
0.2490409495602976 -0.00012956900414076692 0.43685050568357492 0
-0.00012956900414076692 0.2490409495602976 0.43685050568357492 0
0.00012956900414076692 -0.2490409495602976 0.43685050568357492 0
-0.2490409495602976 0.00012956900414076692 0.43685050568357492 0
0.18878247993918559 0.090402578724254112 0.41577029981041219 0
0.090402578724254112 0.18878247993918559 0.41577029981041219 0
-0.090402578724254112 -0.18878247993918559 0.41577029981041219 0
-0.18878247993918559 -0.090402578724254112 0.41577029981041219 0
0 0 0.33287197584368539 0
0.065915944754604688 0.065915944754604688 0.41323265560954764 0
-0.065915944754604688 -0.065915944754604688 0.41323265560954764 0
0.21228768709292856 -0.21228768709292856 0.094220873395048518 0
-0.21228768709292856 0.21228768709292856 0.094220873395048518 0
0.52986930203602745 -0.26490746492313511 0.11800949450398873 0
-0.26490746492313511 0.52986930203602745 0.11800949450398873 0
0.26490746492313511 -0.52986930203602745 0.11800949450398873 0
-0.52986930203602745 0.26490746492313511 0.11800949450398873 0
0.32778968203675529 -0.22824931025546638 0.21705446098185105 0
-0.22824931025546638 0.32778968203675529 0.21705446098185105 0
0.22824931025546638 -0.32778968203675529 0.21705446098185105 0
-0.32778968203675529 0.22824931025546638 0.21705446098185105 0
0.19599296528717489 -0.19599296528717489 0.16333476527192123 0
-0.19599296528717489 0.19599296528717489 0.16333476527192123 0
0.50000241822313907 -0.50000241822313907 0.14457074393223363 0
-0.50000241822313907 0.50000241822313907 0.14457074393223363 0
0.017856715321967413 0.017856715321967413 0.39116786841013046 0
-0.017856715321967413 -0.017856715321967413 0.39116786841013046 0
0.053049569700106131 0.053049569700106131 0.41207641152905489 0
-0.053049569700106131 -0.053049569700106131 0.41207641152905489 0
0.322364956654067 -0.322364956654067 0.50972758608394708 0
-0.322364956654067 0.322364956654067 0.50972758608394708 0
0 0 0.40453652894186393 0
0.32719150702710931 -0.32719150702710931 0.26567655421747433 0
-0.32719150702710931 0.32719150702710931 0.26567655421747433 0
0.055290634420321283 -0.055290634420321283 0.58458268372175659 0
-0.055290634420321283 0.055290634420321283 0.58458268372175659 0
0 0 0.6284910012018331 0
0 0 0.49057526637191368 0
0.26823877443637706 -0.26823877443637706 0.58383087941486267 0
-0.26823877443637706 0.26823877443637706 0.58383087941486267 0
0 0 0.44376902320874834 0
Hexahedra
48
1 8 14 6 10 15 19 17 0
3 9 14 7 13 16 20 18 0
14 6 17 19 21 23 27 31 0
14 19 15 8 22 32 28 24 0
14 20 16 9 21 33 29 25 0
14 7 18 20 22 26 30 34 0
19 14 21 31 32 22 35 36 0
20 33 21 14 34 37 35 22 0
14 6 23 21 38 40 44 48 0
14 22 24 8 39 49 45 41 0
14 21 25 9 38 48 46 42 0
14 7 26 22 39 43 47 49 0
2 6 14 9 50 40 38 42 0
4 7 14 8 51 43 39 41 0
21 23 27 31 35 52 54 36 0
22 32 28 24 35 36 54 52 0
21 33 29 25 35 37 55 53 0
22 26 30 34 35 53 55 37 0
21 23 52 35 25 56 58 53 0
22 35 52 24 26 53 58 57 0
21 23 56 25 48 44 59 46 0
22 26 57 24 49 47 60 45 0
31 19 32 36 61 63 62 64 0
33 37 34 20 61 64 62 63 0
6 17 27 23 2 11 65 56 0
8 24 28 15 4 57 66 12 0
9 25 29 16 2 56 65 11 0
7 18 30 26 4 12 66 57 0
23 6 2 56 44 40 50 59 0
24 57 4 8 45 60 51 41 0
25 56 2 9 46 59 50 42 0
26 7 4 57 47 43 51 60 0
23 52 58 56 27 54 67 65 0
24 57 58 52 28 66 67 54 0
25 56 58 53 29 65 67 55 0
26 53 58 57 30 55 67 66 0
19 15 28 32 63 12 66 62 0
19 31 27 17 63 61 65 11 0
20 34 30 18 63 62 66 12 0
20 16 29 33 63 11 65 61 0
20 16 11 63 18 13 5 12 0
19 63 11 17 15 12 5 10 0
31 27 65 61 36 54 67 64 0
32 62 66 28 36 64 67 54 0
33 61 65 29 37 64 67 55 0
34 30 66 62 37 55 67 64 0
50 40 38 42 59 44 48 46 0
51 43 39 41 60 47 49 45 0
Quadrilaterals
16
1 6 14 8 0
2 9 14 6 0
2 6 17 11 0
2 11 16 9 0
4 8 14 7 0
4 7 18 12 0
4 12 15 8 0
12 18 13 5 0
12 5 10 15 0
6 1 10 17 0
5 11 17 10 0
13 16 11 5 0
1 8 15 10 0
14 9 3 7 0
7 3 13 18 0
9 16 13 3 0
End
