MeshVersionFormatted 2
Dimension 3
Vertices
67
1 1 0 0
1 -1 0 0
-1 -1 0 0
-1 1 0 0
0 -0 1.4142135623730951 0
1 0 0 0
-1 0 0 0
0 1 0 0
0 -1 0 0
0.5 0.5 0.70710678118654757 0
0.5 -0.5 0.70710678118654757 0
-0.5 0.5 0.70710678118654757 0
-0.5 -0.5 0.70710678118654757 0
0 0 0 0
0 0.66666666666666663 0.47140452079103173 0
0 -0.66666666666666663 0.47140452079103173 0
0.66666666666666663 0 0.47140452079103173 0
-0.66666666666666663 0 0.47140452079103173 0
0.67014276641405002 0.67014276641405002 0.15352697963283649 0
-0.67014276641405002 -0.67014276641405002 0.15352697963283649 0
0.31647836506922911 0.66394265568026312 0.1522815254021089 0
0.66394265568026312 0.31647836506922911 0.1522815254021089 0
-0.66394265568026312 -0.31647836506922911 0.1522815254021089 0
-0.31647836506922911 -0.66394265568026312 0.1522815254021089 0
0.33055761944476836 0.33055761944476836 0.15254205570836038 0
-0.33055761944476836 -0.33055761944476836 0.15254205570836038 0
0.29858107923347954 0.29858107923347954 0.40929416508301608 0
-0.29858107923347954 -0.29858107923347954 0.40929416508301608 0
0.55335758095382626 0.32904430195081602 0.32771522788383789 0
0.32904430195081602 0.55335758095382626 0.32771522788383789 0
-0.32904430195081602 -0.55335758095382626 0.32771522788383789 0
-0.55335758095382626 -0.32904430195081602 0.32771522788383789 0
0.37023758061644579 0.37023758061644579 0.28625204095672069 0
-0.37023758061644579 -0.37023758061644579 0.28625204095672069 0
0.04450557456832923 -0.04450557456832923 0.10483609581301059 0
-0.04450557456832923 0.04450557456832923 0.10483609581301059 0
0.4205856435891886 -0.2591328107556673 0.25017919857661441 0
-0.2591328107556673 0.4205856435891886 0.25017919857661441 0
0.2591328107556673 -0.4205856435891886 0.25017919857661441 0
-0.4205856435891886 0.2591328107556673 0.25017919857661441 0
0.4120578251283028 -0.043534278483568917 0.38699962513823066 0
-0.043534278483568917 0.4120578251283028 0.38699962513823066 0
0.043534278483568917 -0.4120578251283028 0.38699962513823066 0
-0.4120578251283028 0.043534278483568917 0.38699962513823066 0
0.29433781479784293 0.13939062768323857 0.39217479435198732 0
0.13939062768323857 0.29433781479784293 0.39217479435198732 0
-0.13939062768323857 -0.29433781479784293 0.39217479435198732 0
-0.29433781479784293 -0.13939062768323857 0.39217479435198732 0
0 0 0.14885604883212189 0
0.14024855198584435 0.14024855198584435 0.35734106207370303 0
-0.14024855198584435 -0.14024855198584435 0.35734106207370303 0
0.37389990514460397 -0.37389990514460397 0.28886110173420854 0
-0.37389990514460397 0.37389990514460397 0.28886110173420854 0
0.063843747422529087 -0.063843747422529087 0.53727527152882182 0
-0.063843747422529087 0.063843747422529087 0.53727527152882182 0
0 0 0.58469319473613224 0
0 0 0.50731675633306084 0
0.26714242083004031 -0.26714242083004031 0.49992153020301522 0
-0.26714242083004031 0.26714242083004031 0.49992153020301522 0
0.52506083083574628 0.52506083083574628 0.40292947444533161 0
-0.52506083083574628 -0.52506083083574628 0.40292947444533161 0
0.031434084423470218 0.031434084423470218 0.37431547474975324 0
-0.031434084423470218 -0.031434084423470218 0.37431547474975324 0
0.04188572426345314 0.04188572426345314 0.3778644354871849 0
-0.04188572426345314 -0.04188572426345314 0.3778644354871849 0
0 0 0.40201222066074216 0
0 0 0.41377287556615272 0
Hexahedra
48
1 8 14 6 19 21 25 22 0
3 9 14 7 20 24 26 23 0
14 6 22 25 27 17 29 33 0
14 25 21 8 27 33 30 15 0
14 26 24 9 28 34 31 16 0
14 7 23 26 28 18 32 34 0
14 6 17 27 35 37 41 45 0
14 27 15 8 36 46 42 38 0
14 28 16 9 35 47 43 39 0
14 7 18 28 36 40 44 48 0
27 14 35 45 46 36 49 50 0
28 47 35 14 48 51 49 36 0
14 6 37 35 9 2 52 39 0
14 36 38 8 7 40 53 4 0
45 27 46 50 54 56 55 57 0
47 51 48 28 54 57 55 56 0
45 27 56 54 41 17 11 58 0
46 55 56 27 42 59 12 15 0
47 54 56 28 43 58 11 16 0
48 28 56 55 44 18 12 59 0
56 28 16 11 12 18 13 5 0
56 11 17 27 12 5 10 15 0
17 27 15 10 29 33 30 60 0
16 13 18 28 31 61 32 34 0
2 11 17 6 52 58 41 37 0
4 8 15 12 53 38 42 59 0
2 9 16 11 52 39 43 58 0
4 12 18 7 53 59 44 40 0
6 22 29 17 1 19 60 10 0
8 15 30 21 1 10 60 19 0
9 16 31 24 3 13 61 20 0
7 23 32 18 3 20 61 13 0
35 37 41 45 49 62 64 50 0
36 46 42 38 49 50 64 62 0
35 47 43 39 49 51 65 63 0
36 40 44 48 49 63 65 51 0
35 37 62 49 39 52 66 63 0
36 49 62 38 40 63 66 53 0
52 58 41 37 66 67 64 62 0
53 38 42 59 66 62 64 67 0
52 39 43 58 66 63 65 67 0
53 59 44 40 66 67 65 63 0
54 45 41 58 57 50 64 67 0
55 59 42 46 57 67 64 50 0
54 58 43 47 57 67 65 51 0
55 48 44 59 57 51 65 67 0
19 21 25 22 60 30 33 29 0
20 24 26 23 61 31 34 32 0
Quadrilaterals
16
1 6 14 8 0
2 9 14 6 0
2 6 17 11 0
2 11 16 9 0
4 8 14 7 0
4 7 18 12 0
4 12 15 8 0
12 18 13 5 0
12 5 10 15 0
6 1 10 17 0
5 11 17 10 0
13 16 11 5 0
1 8 15 10 0
14 9 3 7 0
7 3 13 18 0
9 16 13 3 0
End
