MeshVersionFormatted 2
Dimension 3
Vertices
67
1 1 0 0
1 -1 0 0
-1 -1 0 0
-1 1 0 0
0 -0 1.4142135623730951 0
1 0 0 0
-1 0 0 0
0 1 0 0
0 -1 0 0
0.5 0.5 0.70710678118654757 0
0.5 -0.5 0.70710678118654757 0
-0.5 0.5 0.70710678118654757 0
-0.5 -0.5 0.70710678118654757 0
0 0 0 0
0 0.66666666666666663 0.47140452079103173 0
0 -0.66666666666666663 0.47140452079103173 0
0.66666666666666663 0 0.47140452079103173 0
-0.66666666666666663 0 0.47140452079103173 0
0.23899616354025996 0.23899616354025996 0.4173262933917174 0
-0.23899616354025996 -0.23899616354025996 0.4173262933917174 0
0.11780201923580901 -0.11780201923580901 0.17660315834255816 0
-0.11780201923580901 0.11780201923580901 0.17660315834255816 0
0.38073990527386592 -0.23797259655704278 0.27877615587974708 0
-0.23797259655704278 0.38073990527386592 0.27877615587974708 0
0.23797259655704278 -0.38073990527386592 0.27877615587974708 0
-0.38073990527386592 0.23797259655704278 0.27877615587974708 0
0.38279625013580515 -0.033989086997416894 0.40769249673951802 0
-0.033989086997416894 0.38279625013580515 0.40769249673951802 0
0.033989086997416894 -0.38279625013580515 0.40769249673951802 0
-0.38279625013580515 0.033989086997416894 0.40769249673951802 0
0.26170653993552162 0.090534632539380808 0.4020372212196347 0
0.090534632539380808 0.26170653993552162 0.4020372212196347 0
-0.090534632539380808 -0.26170653993552162 0.4020372212196347 0
-0.26170653993552162 -0.090534632539380808 0.4020372212196347 0
0.16153807725247493 0.16153807725247493 0.36257064527411476 0
-0.16153807725247493 -0.16153807725247493 0.36257064527411476 0
0.040631483554198163 0.040631483554198163 0.20274341652339228 0
-0.040631483554198163 -0.040631483554198163 0.20274341652339228 0
0.073378093536742309 0.0064976093806854533 0.23605446853581336 0
0.0064976093806854533 0.073378093536742309 0.23605446853581336 0
-0.0064976093806854533 -0.073378093536742309 0.23605446853581336 0
-0.073378093536742309 -0.0064976093806854533 0.23605446853581336 0
0.19881352426184362 0.10568372406083167 0.37759886270849569 0
0.10568372406083167 0.19881352426184362 0.37759886270849569 0
-0.10568372406083167 -0.19881352426184362 0.37759886270849569 0
-0.19881352426184362 -0.10568372406083167 0.37759886270849569 0
0.31680545521578096 -0.31680545521578096 0.31407698287095576 0
-0.31680545521578096 0.31680545521578096 0.31407698287095576 0
0 0 0.28720800980189742 0
0.044981393036121156 0.044981393036121156 0.28734468977866989 0
-0.044981393036121156 -0.044981393036121156 0.28734468977866989 0
0.0072755256498797643 0.0072755256498797643 0.34838813666744445 0
-0.0072755256498797643 -0.0072755256498797643 0.34838813666744445 0
0 0 0.38380571492018128 0
0.098355682834707581 0.098355682834707581 0.38658058019635483 0
-0.098355682834707581 -0.098355682834707581 0.38658058019635483 0
0.016986167028543078 0.016986167028543078 0.35853532640618563 0
-0.016986167028543078 -0.016986167028543078 0.35853532640618563 0
0.10421347468593328 0.10421347468593328 0.38248344317047617 0
-0.10421347468593328 -0.10421347468593328 0.38248344317047617 0
0 0 0.59590196470958512 0
-0.25359339663241331 0.25359339663241331 0.51913036414789926 0
0.25359339663241331 -0.25359339663241331 0.51913036414789926 0
-0.06861932085562511 0.06861932085562511 0.54967313128327189 0
0.06861932085562511 -0.06861932085562511 0.54967313128327189 0
0 0 0.52767443383227219 0
0 0 0.44099114914999993 0
Hexahedra
48
1 8 14 6 10 15 19 17 0
3 9 14 7 13 16 20 18 0
14 6 17 19 21 23 27 31 0
14 19 15 8 22 32 28 24 0
14 20 16 9 21 33 29 25 0
14 7 18 20 22 26 30 34 0
19 14 21 31 35 37 39 43 0
19 32 22 14 35 44 40 37 0
20 33 21 14 36 45 41 38 0
20 14 22 34 36 38 42 46 0
14 6 23 21 9 2 47 25 0
14 22 24 8 7 26 48 4 0
14 21 39 37 22 49 50 40 0
14 38 41 21 22 42 51 49 0
23 21 25 47 52 49 53 54 0
24 48 26 22 52 54 53 49 0
23 21 49 52 27 31 55 57 0
24 52 49 22 28 57 55 32 0
25 53 49 21 29 58 56 33 0
26 22 49 53 30 34 56 58 0
21 49 55 31 39 50 59 43 0
22 32 55 49 40 44 59 50 0
21 33 56 49 41 45 60 51 0
22 49 56 34 42 51 60 46 0
19 15 28 32 61 12 62 64 0
19 31 27 17 61 65 63 11 0
20 34 30 18 61 64 62 12 0
20 16 29 33 61 11 63 65 0
19 31 65 61 32 55 66 64 0
20 61 65 33 34 64 66 56 0
19 31 55 32 35 43 59 44 0
20 34 56 33 36 46 60 45 0
20 16 11 61 18 13 5 12 0
19 61 11 17 15 12 5 10 0
31 65 66 55 27 63 67 57 0
32 55 66 64 28 57 67 62 0
33 56 66 65 29 58 67 63 0
34 64 66 56 30 62 67 58 0
16 29 63 11 9 25 47 2 0
18 12 62 30 7 4 48 26 0
17 11 63 27 6 2 47 23 0
15 28 62 12 8 24 48 4 0
63 27 23 47 67 57 52 54 0
62 48 24 28 67 54 52 57 0
63 47 25 29 67 54 53 58 0
62 30 26 48 67 58 53 54 0
35 43 59 44 37 39 50 40 0
36 46 60 45 38 42 51 41 0
Quadrilaterals
16
1 6 14 8 0
2 9 14 6 0
2 6 17 11 0
2 11 16 9 0
4 8 14 7 0
4 7 18 12 0
4 12 15 8 0
12 18 13 5 0
12 5 10 15 0
6 1 10 17 0
5 11 17 10 0
13 16 11 5 0
1 8 15 10 0
14 9 3 7 0
7 3 13 18 0
9 16 13 3 0
End
