MeshVersionFormatted 2
Dimension 3
Vertices
105
1 1 0 0
1 -1 0 0
-1 -1 0 0
-1 1 0 0
0 -0 1.4142135623730951 0
1 0 0 0
-1 0 0 0
0 1 0 0
0 -1 0 0
0.5 0.5 0.70710678118654757 0
0.5 -0.5 0.70710678118654757 0
-0.5 0.5 0.70710678118654757 0
-0.5 -0.5 0.70710678118654757 0
0 0 0 0
0 0.66666666666666663 0.47140452079103173 0
0 -0.66666666666666663 0.47140452079103173 0
0.66666666666666663 0 0.47140452079103173 0
-0.66666666666666663 0 0.47140452079103173 0
0.28905700000000001 -0.051665999999999997 0.47460219551257127 0
0.32496999999999998 0.058014999999999997 0.42148406170915165 0
0.27671000000000001 0.14813999999999999 0.46384816842341176 0
0.3372 -0.071986999999999995 0.36709092469402677 0
0.36487799999999998 0.057896000000000003 0.34484386865417815 0
0.32519700000000001 0.18178800000000001 0.3612299099302585 0
0 0.016801 0.42939308163180018 0
0 0.054195 0.4103400336375882 0
0 0.104114 0.43500209576078436 0
0 0.015276 0.40767502692449442 0
0 0.054392000000000003 0.40120901063674053 0
0 0.11060499999999999 0.40416501808285882 0
-0.28905700000000001 -0.051665999999999997 0.47460219551257127 0
-0.32496999999999998 0.058014999999999997 0.42148406170915165 0
-0.27671000000000001 0.14813999999999999 0.46384816842341176 0
-0.3372 -0.071986999999999995 0.36709092469402677 0
-0.36487799999999998 0.057896000000000003 0.34484386865417815 0
-0.32519700000000001 0.18178800000000001 0.3612299099302585 0
0.084598999999999994 0.208673 0.53639335116314357 0
0.26395299999999999 0.16294500000000001 0.69779175772220692 0
0.44296000000000002 -0.021475999999999999 0.56912543361454482 0
0.31095400000000001 -0.38951599999999997 0.74288287130573782 0
0 0.15764600000000001 0.55804640570671538 0
0 -0.159885 0.94669238469745343 0
0.118244 0.14264499999999999 0.49737925288748164 0
0.21208199999999999 0.073556999999999997 0.53251434139200271 0
0.24404899999999999 0.032793000000000003 0.50013425982728399 0
0.21393999999999999 -0.060338999999999997 0.54148036397721788 0
0.040495000000000003 0.13648199999999999 0.53050433632884375 0
0.110306 -0.043449000000000002 0.66625367827847315 0
0 0.11110299999999999 0.46327516698003363 0
0 0.079663999999999999 0.46545517247141988 0
0 0.047878999999999998 0.43097308561179576 0
0 0.0087340000000000004 0.45113613640208056 0
0 0.124554 0.5152752979672286 0
0 -0.0085599999999999999 0.58971448547791716 0
-0.118244 0.14264499999999999 0.49737925288748164 0
-0.21208199999999999 0.073556999999999997 0.53251434139200271 0
-0.24404899999999999 0.032793000000000003 0.50013425982728399 0
-0.21393999999999999 -0.060338999999999997 0.54148036397721788 0
-0.040495000000000003 0.13648199999999999 0.53050433632884375 0
-0.110306 -0.043449000000000002 0.66625367827847315 0
-0.084598999999999994 0.208673 0.53639335116314357 0
-0.26395299999999999 0.16294500000000001 0.69779175772220692 0
-0.44296000000000002 -0.021475999999999999 0.56912543361454482 0
-0.31095400000000001 -0.38951599999999997 0.74288287130573782 0
0.65049299999999999 0.041898999999999999 0.080018201564103178 0
0.45453700000000002 0.68088000000000004 0.10497726443543776 0
0 0.103504 0.21638154506038901 0
0 0.39225500000000002 0.20092050611436937 0
0.32050800000000002 0.065989000000000006 0.32641682223685042 0
0.264129 0.212535 0.33993385628596418 0
0.063695000000000002 0.093142000000000003 0.28091570762053591 0
0.092212000000000002 0.22713900000000001 0.30572577011654184 0
0 0.056201000000000001 0.39650299878239942 0
0 0.124443 0.39442399354543062 0
0 0.087184999999999999 0.31061778243941401 0
0 0.18216399999999999 0.33749985015475586 0
-0.32050800000000002 0.065989000000000006 0.32641682223685042 0
-0.264129 0.212535 0.33993385628596418 0
-0.063695000000000002 0.093142000000000003 0.28091570762053591 0
-0.092212000000000002 0.22713900000000001 0.30572577011654184 0
-0.65049299999999999 0.041898999999999999 0.080018201564103178 0
-0.45453700000000002 0.68088000000000004 0.10497726443543776 0
0.61961599999999994 -0.78628399999999998 0.081443205153656106 0
0 -0.44327100000000003 0.20469051561094101 0
0.27717000000000003 -0.104202 0.35475089360975781 0
0.124682 -0.144731 0.33496484376913011 0
0 0.0053299999999999997 0.40361201668986035 0
0 -0.073926000000000006 0.36749692571673442 0
-0.27717000000000003 -0.104202 0.35475089360975781 0
-0.124682 -0.144731 0.33496484376913011 0
-0.61961599999999994 -0.78628399999999998 0.081443205153656106 0
0.12810099999999999 0.36425400000000002 0.50120026251252148 0
0 0.28288200000000002 0.53857635666208681 0
0.17610400000000001 0.18979399999999999 0.44745512712969859 0
0.084236000000000005 0.182143 0.48622522479072833 0
0 0.12703600000000001 0.43172408750355312 0
0 0.14866499999999999 0.47006618408645751 0
-0.17610400000000001 0.18979399999999999 0.44745512712969859 0
-0.084236000000000005 0.182143 0.48622522479072833 0
-0.12810099999999999 0.36425400000000002 0.50120026251252148 0
0 -0.64222199999999996 0.48870223103025295 0
0 -0.95965800000000001 0.017336043669115606 0
0 0.45507900000000001 0.45219813907724216 0
0 0.84445199999999998 0.05768214530006497 0
0 0.0090200000000000002 0.015731039626145454 0
Hexahedra
88
11 17 6 2 19 20 23 22 0
17 10 1 6 20 21 24 23 0
19 20 23 22 25 26 29 28 0
20 21 24 23 26 27 30 29 0
25 26 29 28 31 32 35 34 0
26 27 30 29 32 33 36 35 0
31 32 35 34 13 18 7 3 0
32 33 36 35 18 12 4 7 0
48 46 45 44 42 40 39 38 0
46 19 20 45 40 11 17 39 0
44 45 20 21 38 39 17 10 0
48 44 43 47 42 38 37 41 0
43 44 21 94 37 38 10 92 0
47 43 94 95 41 37 92 93 0
54 52 51 50 48 46 45 44 0
52 25 26 51 46 19 20 45 0
50 51 26 27 44 45 20 21 0
54 50 49 53 48 44 43 47 0
49 50 27 96 43 44 21 94 0
53 49 96 97 47 43 94 95 0
60 58 57 56 54 52 51 50 0
58 31 32 57 52 25 26 51 0
56 57 32 33 50 51 26 27 0
60 56 55 59 54 50 49 53 0
55 56 33 98 49 50 27 96 0
59 55 98 99 53 49 96 97 0
42 64 63 62 60 58 57 56 0
64 13 18 63 58 31 32 57 0
62 63 18 12 56 57 32 33 0
42 62 61 41 60 56 55 59 0
61 62 12 100 55 56 33 98 0
41 61 100 93 59 55 98 99 0
41 47 53 59 93 95 97 99 0
42 48 54 60 41 47 53 59 0
72 70 69 71 68 66 65 67 0
70 24 23 69 66 1 6 65 0
71 69 85 86 67 65 83 84 0
69 23 22 85 65 6 2 83 0
76 74 73 75 72 70 69 71 0
74 30 29 73 70 24 23 69 0
75 73 87 88 71 69 85 86 0
73 29 28 87 69 23 22 85 0
80 78 77 79 76 74 73 75 0
78 36 35 77 74 30 29 73 0
79 77 89 90 75 73 87 88 0
77 35 34 89 73 29 28 87 0
68 82 81 67 80 78 77 79 0
82 4 7 81 78 36 35 77 0
67 81 91 84 79 77 89 90 0
81 7 3 91 77 35 34 89 0
67 71 75 79 84 86 88 90 0
68 72 76 80 67 71 75 79 0
86 85 46 48 84 83 40 42 0
85 22 19 46 83 2 11 40 0
88 87 52 54 86 85 46 48 0
87 28 25 52 85 22 19 46 0
90 89 58 60 88 87 52 54 0
89 34 31 58 87 28 25 52 0
84 91 64 42 90 89 58 60 0
91 3 13 64 89 34 31 58 0
84 86 88 90 42 48 54 60 0
95 94 70 72 93 92 66 68 0
94 21 24 70 92 10 1 66 0
97 96 74 76 95 94 70 72 0
96 27 30 74 94 21 24 70 0
99 98 78 80 97 96 74 76 0
98 33 36 78 96 27 30 74 0
93 100 82 68 99 98 78 80 0
100 12 4 82 98 33 36 78 0
93 95 97 99 68 72 76 80 0
64 42 40 101 91 84 83 102 0
13 64 101 16 3 91 102 9 0
16 101 40 11 9 102 83 2 0
92 93 100 103 66 68 82 104 0
10 92 103 15 1 66 104 8 0
15 103 100 12 8 104 82 4 0
91 84 83 102 81 67 65 105 0
81 67 65 105 82 68 66 104 0
9 102 83 2 14 105 65 6 0
14 105 65 6 8 104 66 1 0
14 7 81 105 8 4 82 104 0
9 3 91 102 14 7 81 105 0
12 15 10 5 100 103 92 93 0
42 62 12 5 41 61 100 93 0
42 5 10 38 41 93 92 37 0
13 18 12 5 64 63 62 42 0
42 38 10 5 40 39 17 11 0
13 5 11 16 64 42 40 101 0
Quadrilaterals
16
1 6 14 8 0
2 9 14 6 0
2 6 17 11 0
2 11 16 9 0
4 8 14 7 0
4 7 18 12 0
4 12 15 8 0
12 18 13 5 0
12 5 10 15 0
6 1 10 17 0
5 11 17 10 0
13 16 11 5 0
1 8 15 10 0
14 9 3 7 0
7 3 13 18 0
9 16 13 3 0
End
