<svg xmlns="http://www.w3.org/2000/svg" viewBox="0 0 280 278" role="img" aria-label="Q11-18: 11 quads, 2 vertices on each vertical edge"><polygon points="35.000000,242.000000 140.000000,242.000000 140.000000,174.470588 91.000000,171.176471" fill="#e7eff4" stroke="none"/><polygon points="140.000000,174.470588 140.000000,242.000000 245.000000,242.000000 189.000000,171.176471" fill="#e7eff4" stroke="none"/><polygon points="91.000000,171.176471 140.000000,174.470588 140.000000,113.529412 98.000000,97.058824" fill="#e7eff4" stroke="none"/><polygon points="35.000000,242.000000 91.000000,171.176471 98.000000,97.058824 35.000000,32.000000" fill="#e7eff4" stroke="none"/><polygon points="189.000000,171.176471 245.000000,242.000000 245.000000,32.000000 182.000000,97.058824" fill="#e7eff4" stroke="none"/><polygon points="140.000000,174.470588 189.000000,171.176471 182.000000,97.058824 140.000000,113.529412" fill="#e7eff4" stroke="none"/><polygon points="98.000000,97.058824 140.000000,113.529412 140.000000,85.529412 126.000000,71.529412" fill="#e7eff4" stroke="none"/><polygon points="35.000000,32.000000 98.000000,97.058824 126.000000,71.529412 140.000000,32.000000" fill="#e7eff4" stroke="none"/><polygon points="182.000000,97.058824 245.000000,32.000000 140.000000,32.000000 154.000000,71.529412" fill="#e7eff4" stroke="none"/><polygon points="140.000000,113.529412 182.000000,97.058824 154.000000,71.529412 140.000000,85.529412" fill="#e7eff4" stroke="none"/><polygon points="126.000000,71.529412 140.000000,85.529412 154.000000,71.529412 140.000000,32.000000" fill="#e7eff4" stroke="none"/><path d="M 35.000000,242.000000 L 140.000000,242.000000" stroke="#245a82" stroke-width="1.8" fill="none"/><path d="M 35.000000,242.000000 L 35.000000,32.000000" stroke="#245a82" stroke-width="1.8" fill="none"/><path d="M 35.000000,242.000000 L 91.000000,171.176471" stroke="#245a82" stroke-width="1.8" fill="none"/><path d="M 140.000000,242.000000 L 245.000000,242.000000" stroke="#245a82" stroke-width="1.8" fill="none"/><path d="M 140.000000,242.000000 L 140.000000,174.470588" stroke="#245a82" stroke-width="1.8" fill="none"/><path d="M 245.000000,242.000000 L 245.000000,32.000000" stroke="#245a82" stroke-width="1.8" fill="none"/><path d="M 245.000000,242.000000 L 189.000000,171.176471" stroke="#245a82" stroke-width="1.8" fill="none"/><path d="M 245.000000,32.000000 L 140.000000,32.000000" stroke="#245a82" stroke-width="1.8" fill="none"/><path d="M 245.000000,32.000000 L 182.000000,97.058824" stroke="#245a82" stroke-width="1.8" fill="none"/><path d="M 140.000000,32.000000 L 35.000000,32.000000" stroke="#245a82" stroke-width="1.8" fill="none"/><path d="M 140.000000,32.000000 L 126.000000,71.529412" stroke="#245a82" stroke-width="1.8" fill="none"/><path d="M 140.000000,32.000000 L 154.000000,71.529412" stroke="#245a82" stroke-width="1.8" fill="none"/><path d="M 35.000000,32.000000 L 98.000000,97.058824" stroke="#245a82" stroke-width="1.8" fill="none"/><path d="M 140.000000,174.470588 L 91.000000,171.176471" stroke="#245a82" stroke-width="1.8" fill="none"/><path d="M 140.000000,174.470588 L 189.000000,171.176471" stroke="#245a82" stroke-width="1.8" fill="none"/><path d="M 140.000000,174.470588 L 140.000000,113.529412" stroke="#245a82" stroke-width="1.8" fill="none"/><path d="M 91.000000,171.176471 L 98.000000,97.058824" stroke="#245a82" stroke-width="1.8" fill="none"/><path d="M 189.000000,171.176471 L 182.000000,97.058824" stroke="#245a82" stroke-width="1.8" fill="none"/><path d="M 140.000000,113.529412 L 98.000000,97.058824" stroke="#245a82" stroke-width="1.8" fill="none"/><path d="M 140.000000,113.529412 L 182.000000,97.058824" stroke="#245a82" stroke-width="1.8" fill="none"/><path d="M 140.000000,113.529412 L 140.000000,85.529412" stroke="#245a82" stroke-width="1.8" fill="none"/><path d="M 98.000000,97.058824 L 126.000000,71.529412" stroke="#245a82" stroke-width="1.8" fill="none"/><path d="M 182.000000,97.058824 L 154.000000,71.529412" stroke="#245a82" stroke-width="1.8" fill="none"/><path d="M 140.000000,85.529412 L 126.000000,71.529412" stroke="#245a82" stroke-width="1.8" fill="none"/><path d="M 140.000000,85.529412 L 154.000000,71.529412" stroke="#245a82" stroke-width="1.8" fill="none"/><path class="reflection-axis" d="M140,20 V254" stroke="#bc7648" stroke-width="1" stroke-dasharray="4 4"/><circle cx="35.000000" cy="242.000000" r="2.9" fill="#202428"/><circle cx="140.000000" cy="242.000000" r="2.9" fill="#202428"/><circle cx="245.000000" cy="242.000000" r="2.9" fill="#202428"/><circle cx="245.000000" cy="32.000000" r="2.9" fill="#202428"/><circle cx="140.000000" cy="32.000000" r="2.9" fill="#202428"/><circle cx="35.000000" cy="32.000000" r="2.9" fill="#202428"/><circle cx="140.000000" cy="174.470588" r="2.9" fill="#202428"/><circle cx="91.000000" cy="171.176471" r="2.9" fill="#202428"/><circle cx="189.000000" cy="171.176471" r="2.9" fill="#202428"/><circle cx="140.000000" cy="113.529412" r="2.9" fill="#202428"/><circle cx="98.000000" cy="97.058824" r="2.9" fill="#202428"/><circle cx="182.000000" cy="97.058824" r="2.9" fill="#202428"/><circle cx="140.000000" cy="85.529412" r="2.9" fill="#202428"/><circle cx="126.000000" cy="71.529412" r="2.9" fill="#202428"/><circle cx="154.000000" cy="71.529412" r="2.9" fill="#202428"/><text x="140" y="14" text-anchor="middle" fill="#5d646b" font-family="system-ui,sans-serif" font-size="10">2 edges</text><text x="140" y="268" text-anchor="middle" fill="#5d646b" font-family="system-ui,sans-serif" font-size="10">2 edges</text></svg>
