<svg xmlns="http://www.w3.org/2000/svg" viewBox="0 0 280 278" role="img" aria-label="Q12-08: 12 quads, 2 vertices on each vertical edge"><polygon points="35.000000,242.000000 140.000000,242.000000 140.000000,90.910891 35.000000,32.000000" fill="#e7eff4" stroke="none"/><polygon points="140.000000,90.910891 140.000000,242.000000 245.000000,242.000000 245.000000,32.000000" fill="#e7eff4" stroke="none"/><polygon points="35.000000,32.000000 140.000000,90.910891 140.000000,57.643564 117.500000,44.475248" fill="#e7eff4" stroke="none"/><polygon points="140.000000,90.910891 245.000000,32.000000 162.500000,44.475248 140.000000,57.643564" fill="#e7eff4" stroke="none"/><polygon points="117.500000,44.475248 140.000000,57.643564 140.000000,50.712871 132.500000,47.247525" fill="#e7eff4" stroke="none"/><polygon points="35.000000,32.000000 117.500000,44.475248 140.000000,40.316832 140.000000,32.000000" fill="#e7eff4" stroke="none"/><polygon points="162.500000,44.475248 245.000000,32.000000 140.000000,32.000000 140.000000,40.316832" fill="#e7eff4" stroke="none"/><polygon points="140.000000,57.643564 162.500000,44.475248 147.500000,47.247525 140.000000,50.712871" fill="#e7eff4" stroke="none"/><polygon points="132.500000,47.247525 140.000000,50.712871 147.500000,47.247525 140.000000,46.554455" fill="#e7eff4" stroke="none"/><polygon points="117.500000,44.475248 132.500000,47.247525 140.000000,46.554455 140.000000,45.168317" fill="#e7eff4" stroke="none"/><polygon points="140.000000,40.316832 117.500000,44.475248 140.000000,45.168317 162.500000,44.475248" fill="#e7eff4" stroke="none"/><polygon points="147.500000,47.247525 162.500000,44.475248 140.000000,45.168317 140.000000,46.554455" fill="#e7eff4" stroke="none"/><path d="M 35.000000,242.000000 L 140.000000,242.000000" stroke="#245a82" stroke-width="1.8" fill="none"/><path d="M 35.000000,242.000000 L 35.000000,32.000000" stroke="#245a82" stroke-width="1.8" fill="none"/><path d="M 140.000000,242.000000 L 245.000000,242.000000" stroke="#245a82" stroke-width="1.8" fill="none"/><path d="M 140.000000,242.000000 L 140.000000,90.910891" stroke="#245a82" stroke-width="1.8" fill="none"/><path d="M 245.000000,242.000000 L 245.000000,32.000000" stroke="#245a82" stroke-width="1.8" fill="none"/><path d="M 245.000000,32.000000 L 140.000000,32.000000" stroke="#245a82" stroke-width="1.8" fill="none"/><path d="M 245.000000,32.000000 L 140.000000,90.910891" stroke="#245a82" stroke-width="1.8" fill="none"/><path d="M 245.000000,32.000000 L 162.500000,44.475248" stroke="#245a82" stroke-width="1.8" fill="none"/><path d="M 140.000000,32.000000 L 35.000000,32.000000" stroke="#245a82" stroke-width="1.8" fill="none"/><path d="M 140.000000,32.000000 L 140.000000,40.316832" stroke="#245a82" stroke-width="1.8" fill="none"/><path d="M 35.000000,32.000000 L 140.000000,90.910891" stroke="#245a82" stroke-width="1.8" fill="none"/><path d="M 35.000000,32.000000 L 117.500000,44.475248" stroke="#245a82" stroke-width="1.8" fill="none"/><path d="M 140.000000,90.910891 L 140.000000,57.643564" stroke="#245a82" stroke-width="1.8" fill="none"/><path d="M 140.000000,57.643564 L 117.500000,44.475248" stroke="#245a82" stroke-width="1.8" fill="none"/><path d="M 140.000000,57.643564 L 162.500000,44.475248" stroke="#245a82" stroke-width="1.8" fill="none"/><path d="M 140.000000,57.643564 L 140.000000,50.712871" stroke="#245a82" stroke-width="1.8" fill="none"/><path d="M 117.500000,44.475248 L 132.500000,47.247525" stroke="#245a82" stroke-width="1.8" fill="none"/><path d="M 117.500000,44.475248 L 140.000000,40.316832" stroke="#245a82" stroke-width="1.8" fill="none"/><path d="M 117.500000,44.475248 L 140.000000,45.168317" stroke="#245a82" stroke-width="1.8" fill="none"/><path d="M 162.500000,44.475248 L 140.000000,40.316832" stroke="#245a82" stroke-width="1.8" fill="none"/><path d="M 162.500000,44.475248 L 147.500000,47.247525" stroke="#245a82" stroke-width="1.8" fill="none"/><path d="M 162.500000,44.475248 L 140.000000,45.168317" stroke="#245a82" stroke-width="1.8" fill="none"/><path d="M 140.000000,50.712871 L 132.500000,47.247525" stroke="#245a82" stroke-width="1.8" fill="none"/><path d="M 140.000000,50.712871 L 147.500000,47.247525" stroke="#245a82" stroke-width="1.8" fill="none"/><path d="M 132.500000,47.247525 L 140.000000,46.554455" stroke="#245a82" stroke-width="1.8" fill="none"/><path d="M 147.500000,47.247525 L 140.000000,46.554455" stroke="#245a82" stroke-width="1.8" fill="none"/><path d="M 140.000000,46.554455 L 140.000000,45.168317" stroke="#245a82" stroke-width="1.8" fill="none"/><path class="reflection-axis" d="M140,20 V254" stroke="#bc7648" stroke-width="1" stroke-dasharray="4 4"/><circle cx="35.000000" cy="242.000000" r="2.9" fill="#202428"/><circle cx="140.000000" cy="242.000000" r="2.9" fill="#202428"/><circle cx="245.000000" cy="242.000000" r="2.9" fill="#202428"/><circle cx="245.000000" cy="32.000000" r="2.9" fill="#202428"/><circle cx="140.000000" cy="32.000000" r="2.9" fill="#202428"/><circle cx="35.000000" cy="32.000000" r="2.9" fill="#202428"/><circle cx="140.000000" cy="90.910891" r="2.9" fill="#202428"/><circle cx="140.000000" cy="57.643564" r="2.9" fill="#202428"/><circle cx="117.500000" cy="44.475248" r="2.9" fill="#202428"/><circle cx="162.500000" cy="44.475248" r="2.9" fill="#202428"/><circle cx="140.000000" cy="50.712871" r="2.9" fill="#202428"/><circle cx="132.500000" cy="47.247525" r="2.9" fill="#202428"/><circle cx="140.000000" cy="40.316832" r="2.9" fill="#202428"/><circle cx="147.500000" cy="47.247525" r="2.9" fill="#202428"/><circle cx="140.000000" cy="46.554455" r="2.9" fill="#202428"/><circle cx="140.000000" cy="45.168317" r="2.9" fill="#202428"/><text x="140" y="14" text-anchor="middle" fill="#5d646b" font-family="system-ui,sans-serif" font-size="10">2 edges</text><text x="140" y="268" text-anchor="middle" fill="#5d646b" font-family="system-ui,sans-serif" font-size="10">2 edges</text></svg>
